<?xml version="1.0" encoding="UTF-8"?>
<!DOCTYPE svg PUBLIC "-//W3C//DTD SVG 1.1//EN" "http://www.w3.org/Graphics/SVG/1.1/DTD/svg11.dtd">
<svg xmlns="http://www.w3.org/2000/svg" version="1.1" width="1103px" height="654px" style="shape-rendering:geometricPrecision; text-rendering:geometricPrecision; image-rendering:optimizeQuality; fill-rule:evenodd; clip-rule:evenodd" xmlns:xlink="http://www.w3.org/1999/xlink">
<g><path style="opacity:0.935" fill="#6abcea" d="M 1102.5,409.5 C 1102.5,422.167 1102.5,434.833 1102.5,447.5C 1088.99,513.522 1050.32,557.689 986.5,580C 930.865,594.729 879.531,585.729 832.5,553C 827.563,549.049 822.897,544.882 818.5,540.5C 796.869,587.298 762.536,621.131 715.5,642C 701.637,646.796 687.637,650.63 673.5,653.5C 658.833,653.5 644.167,653.5 629.5,653.5C 578.222,645.948 535.722,622.615 502,583.5C 484.945,561.052 472.945,536.052 466,508.5C 416.095,553.113 357.929,568.947 291.5,556C 258.783,547.482 230.45,531.482 206.5,508C 183.939,486.719 168.106,461.219 159,431.5C 157.55,421.244 155.217,411.244 152,401.5C 150.833,400.333 149.667,399.167 148.5,398C 82.3572,392.19 35.5239,359.357 8,299.5C 4.82476,289.82 1.99143,280.154 -0.5,270.5C -0.5,255.833 -0.5,241.167 -0.5,226.5C 10.041,177.796 38.041,143.296 83.5,123C 126.7,108.571 169.7,109.238 212.5,125C 218.745,128.039 224.912,131.206 231,134.5C 251.848,63.3183 298.348,19.1516 370.5,2C 434.993,-6.39395 489.826,12.4394 535,58.5C 550.243,76.3069 561.91,96.3069 570,118.5C 573.069,121.807 576.902,123.307 581.5,123C 614.208,123.021 644.375,131.521 672,148.5C 704.081,106.284 747.081,83.9507 801,81.5C 825.938,82.2759 849.438,88.4425 871.5,100C 900.199,116.929 922.366,140.096 938,169.5C 951.807,198.79 955.64,229.29 949.5,261C 976.338,263.864 1001,272.531 1023.5,287C 1067.31,316.436 1093.65,357.269 1102.5,409.5 Z"/></g>
<g><path style="opacity:1" fill="#fdfdfd" d="M 414.5,20.5 C 487.851,29.1755 536.518,68.5088 560.5,138.5C 600.745,136.643 637.745,146.476 671.5,168C 674.303,168.755 676.97,168.422 679.5,167C 711.512,118.661 756.512,96.4945 814.5,100.5C 818.295,101.617 822.295,102.283 826.5,102.5C 872.398,111.881 905.232,137.881 925,180.5C 927.76,187.344 929.927,194.344 931.5,201.5C 931.41,204.152 932.076,206.485 933.5,208.5C 935.009,215.724 935.676,223.057 935.5,230.5C 935.171,244.283 934.004,257.95 932,271.5C 932.785,273.286 933.951,274.786 935.5,276C 945.206,276.922 954.873,278.088 964.5,279.5C 967.505,281.277 970.838,282.277 974.5,282.5C 1035.23,303.01 1071.57,344.677 1083.5,407.5C 1083.66,409.857 1083.5,412.19 1083,414.5C 1073.25,427.586 1062.75,440.086 1051.5,452C 1020.75,477.473 985.252,489.64 945,488.5C 913.276,487.61 882.776,481.11 853.5,469C 842.123,464.227 830.956,459.061 820,453.5C 799.086,498.917 763.586,524.75 713.5,531C 658.795,532.541 609.128,517.541 564.5,486C 552.591,476.093 542.091,464.926 533,452.5C 528.153,443.954 524.486,434.954 522,425.5C 521.333,419.167 521.333,412.833 522,406.5C 522.789,400.785 523.456,395.118 524,389.5C 503.217,413.831 477.717,431.664 447.5,443C 422.387,452.945 396.387,459.112 369.5,461.5C 354.151,461.671 338.817,461.337 323.5,460.5C 287.517,455.327 259.017,437.994 238,408.5C 232.518,396.102 229.184,383.102 228,369.5C 227.333,354.5 227.333,339.5 228,324.5C 229.234,317.224 231.234,310.224 234,303.5C 235.5,302 237,300.5 238.5,299C 236.5,298.333 234.5,298.333 232.5,299C 158.499,322.05 90.1658,311.05 27.5,266C 23.631,261.963 19.631,258.13 15.5,254.5C 13.4361,202.784 35.4361,165.284 81.5,142C 112.568,129.45 144.568,126.283 177.5,132.5C 179.515,133.924 181.848,134.59 184.5,134.5C 202.161,138.887 218.827,145.721 234.5,155C 239.768,156.45 243.268,154.617 245,149.5C 255.478,91.6893 287.978,51.8559 342.5,30C 351.026,27.2019 359.693,25.0352 368.5,23.5C 383.714,20.9323 399.048,19.9323 414.5,20.5 Z"/></g>
<g><path style="opacity:1" fill="#bfdff5" d="M 414.5,20.5 C 399.048,19.9323 383.714,20.9323 368.5,23.5C 373.564,21.7426 378.897,20.5759 384.5,20C 394.675,19.1751 404.675,19.3417 414.5,20.5 Z"/></g>
<g><path style="opacity:1" fill="#a7d4f1" d="M 814.5,100.5 C 818.817,100.083 822.817,100.75 826.5,102.5C 822.295,102.283 818.295,101.617 814.5,100.5 Z"/></g>
<g><path style="opacity:1" fill="#aed7f2" d="M 177.5,132.5 C 180.152,132.41 182.485,133.076 184.5,134.5C 181.848,134.59 179.515,133.924 177.5,132.5 Z"/></g>
<g><path style="opacity:1" fill="#c0dff5" d="M 931.5,201.5 C 932.924,203.515 933.59,205.848 933.5,208.5C 932.076,206.485 931.41,204.152 931.5,201.5 Z"/></g>
<g><path style="opacity:1" fill="#c3e3f6" d="M 15.5,254.5 C 19.631,258.13 23.631,261.963 27.5,266C 90.1658,311.05 158.499,322.05 232.5,299C 234.5,298.333 236.5,298.333 238.5,299C 237,300.5 235.5,302 234,303.5C 231.234,310.224 229.234,317.224 228,324.5C 227.333,339.5 227.333,354.5 228,369.5C 229.184,383.102 232.518,396.102 238,408.5C 259.017,437.994 287.517,455.327 323.5,460.5C 332.281,462.028 341.281,462.695 350.5,462.5C 357.009,462.5 363.342,462.166 369.5,461.5C 396.387,459.112 422.387,452.945 447.5,443C 477.717,431.664 503.217,413.831 524,389.5C 523.456,395.118 522.789,400.785 522,406.5C 521.333,412.833 521.333,419.167 522,425.5C 524.486,434.954 528.153,443.954 533,452.5C 542.091,464.926 552.591,476.093 564.5,486C 609.128,517.541 658.795,532.541 713.5,531C 763.586,524.75 799.086,498.917 820,453.5C 830.956,459.061 842.123,464.227 853.5,469C 882.776,481.11 913.276,487.61 945,488.5C 985.252,489.64 1020.75,477.473 1051.5,452C 1062.75,440.086 1073.25,427.586 1083,414.5C 1083.5,412.19 1083.66,409.857 1083.5,407.5C 1087.53,448.385 1077.36,485.385 1053,518.5C 1022.36,553.677 983.53,571.01 936.5,570.5C 890.409,569.115 851.409,551.948 819.5,519C 815.879,516.91 812.379,517.077 809,519.5C 783.533,587.509 734.7,626.342 662.5,636C 590.471,640.469 536.304,611.635 500,549.5C 489.808,529.591 482.808,508.591 479,486.5C 474.833,482.06 470.333,481.56 465.5,485C 422.392,531.006 369.392,549.006 306.5,539C 244.11,525.597 200.943,489.43 177,430.5C 174.826,421.469 172.492,412.469 170,403.5C 169.663,397.461 168.997,391.461 168,385.5C 166.362,383.266 164.195,381.933 161.5,381.5C 152.67,380.243 143.67,379.243 134.5,378.5C 94.297,370.824 61.797,350.824 37,318.5C 23.538,299.281 16.3713,277.947 15.5,254.5 Z"/></g>
<g><path style="opacity:1" fill="#a9d4f2" d="M 964.5,279.5 C 968.162,279.723 971.495,280.723 974.5,282.5C 970.838,282.277 967.505,281.277 964.5,279.5 Z"/></g>
<g><path style="opacity:1" fill="#a2d3f1" d="M 134.5,378.5 C 143.67,379.243 152.67,380.243 161.5,381.5C 152.188,382.029 143.188,381.029 134.5,378.5 Z"/></g>
<g><path style="opacity:1" fill="#e6f3fb" d="M 323.5,460.5 C 338.817,461.337 354.151,461.671 369.5,461.5C 363.342,462.166 357.009,462.5 350.5,462.5C 341.281,462.695 332.281,462.028 323.5,460.5 Z"/></g>
</svg>
