<svg width="280" height="163" viewBox="0 0 280 163" fill="none" xmlns="http://www.w3.org/2000/svg">
<g clip-path="url(#clip0_27_5)">
<path d="M272.312 132.487C273.836 131.5 274.977 130.304 275.736 128.899C277.477 125.659 278.397 122.038 278.496 118.036C278.701 109.455 276.425 101.65 271.669 94.6195C269.084 90.8029 266.188 87.2414 262.982 83.935C258.629 79.4624 253.55 76.272 247.746 74.3637C246.361 73.9065 244.405 73.1313 241.879 72.038C239.939 71.1965 237.862 70.6068 235.645 70.2688C235.522 70.2508 235.403 70.2056 235.299 70.1364C235.194 70.0671 235.107 69.9757 235.041 69.8684C234.976 69.7612 234.935 69.6408 234.922 69.5159C234.908 69.391 234.922 69.2646 234.963 69.1457C236.249 65.2761 236.147 61.549 234.656 57.9643C229.471 45.4743 220.283 38.4772 207.091 36.9731C205.653 36.8141 204.13 36.8108 202.52 36.9632C201.155 37.0957 199.634 37.2713 197.959 37.4899C197.857 37.5039 197.754 37.4963 197.655 37.4675C197.557 37.4388 197.466 37.3895 197.387 37.323C197.309 37.2564 197.245 37.1741 197.201 37.0813C197.156 36.9885 197.131 36.8873 197.128 36.7843C197.003 33.3653 196.277 30.1119 194.951 27.0242C193.665 24.0226 191.709 21.4318 189.084 19.2518C184.817 15.7135 179.952 13.6297 174.491 13.0002C170.177 12.5032 165.899 13.0863 161.658 14.7495C157.45 16.3993 153.736 18.8145 150.517 21.995C150.372 22.1389 150.194 22.2461 149.999 22.3078C149.804 22.3695 149.597 22.384 149.395 22.3501C149.194 22.3161 149.003 22.2348 148.838 22.1126C148.674 21.9904 148.541 21.8309 148.45 21.6471C140.501 5.37365 127.382 -1.89178 109.091 -0.149137C104.817 0.25505 101.374 2.15009 98.7619 5.53599C95.3848 9.92903 93.218 14.8787 92.2616 20.3849C92.2257 20.5915 92.1448 20.7876 92.0246 20.9592C91.9043 21.1307 91.7478 21.2733 91.5662 21.3769C91.3847 21.4804 91.1825 21.5423 90.9743 21.5581C90.7661 21.5739 90.5569 21.5432 90.3619 21.4682C88.614 20.7924 86.7836 20.1132 84.8708 19.4307C75.2802 16.0183 66.1513 16.8764 57.4842 22.0049C55.8814 22.9525 54.5885 24.2081 53.6057 25.7718C52.0359 28.2566 50.687 30.854 49.5591 33.564C49.104 34.6639 48.85 35.6777 48.7973 36.6054C48.7379 37.6655 48.8006 38.7323 48.9852 39.8057C49.2623 41.449 48.6093 42.0188 47.0262 41.5152C42.4552 40.0774 37.6698 39.6567 32.67 40.253C30.2229 40.5445 28.0166 41.1906 26.051 42.1911C23.9468 43.2645 22.0307 44.593 20.3026 46.1767C17.7433 48.5355 15.9657 51.4013 14.9697 54.7739C12.9117 61.7246 14.066 68.6455 18.4326 75.5365C18.5454 75.7145 18.6152 75.9165 18.6363 76.1264C18.6575 76.3363 18.6294 76.5483 18.5544 76.7453C18.4794 76.9424 18.3595 77.1191 18.2044 77.2612C18.0492 77.4034 17.8631 77.5071 17.6609 77.5641C12.6149 79.0019 8.66721 81.8412 5.81774 86.0818C5.7254 86.2276 4.7294 87.5959 2.82976 90.1867C1.70844 91.7173 0.972986 93.4036 0.623398 95.2456C0.319982 96.8557 0.158378 99.4134 0.13859 102.919C0.112206 107.597 1.32257 112.281 3.76969 116.972C7.87899 124.844 12.6479 131.232 18.0764 136.135C20.2333 138.083 23.34 139.852 27.3965 141.442C33.9991 144.033 39.8333 145.822 44.899 146.809C45.928 147.008 46.9932 147.015 48.0948 146.829C49.1633 146.644 50.2286 146.458 51.2905 146.273C52.1678 146.12 53.764 145.974 56.0792 145.835C58.1768 145.716 59.7466 145.289 60.7888 144.553C63.1897 142.844 65.6962 141.283 68.3082 139.872C68.6934 139.662 69.143 139.605 69.5693 139.712C69.9955 139.818 70.3678 140.081 70.6135 140.448C72.7704 143.669 75.2703 146.475 78.1132 148.867C83.5087 153.405 89.577 155.307 96.3181 154.572C98.8378 154.3 100.902 153.883 102.512 153.319C104.491 152.624 106.337 151.527 108.052 150.03C108.198 149.904 108.366 149.808 108.548 149.748C108.731 149.687 108.923 149.664 109.114 149.679C109.306 149.694 109.492 149.746 109.663 149.834C109.834 149.921 109.986 150.042 110.11 150.189C112.689 153.27 115.654 155.612 119.005 157.215C122.659 158.958 126.399 160.475 130.225 161.767C137.388 164.173 144.38 163.785 151.2 160.605C155.019 158.822 157.822 155.718 159.61 151.292C159.664 151.159 159.75 151.04 159.859 150.947C159.968 150.854 160.097 150.788 160.236 150.756C160.375 150.724 160.52 150.726 160.657 150.762C160.794 150.798 160.92 150.868 161.025 150.964C163.017 152.786 165.184 154.22 167.525 155.267C169.445 156.122 171.888 156.917 174.857 157.653C180.18 158.985 185.453 159.044 190.677 157.832C195.275 156.765 199.539 154.552 203.47 151.192C207.223 147.992 210.406 144.222 213.018 139.882C213.085 139.771 213.194 139.691 213.32 139.659C213.446 139.627 213.579 139.647 213.691 139.713C220.663 143.94 227.677 146.816 234.735 148.34C236.028 148.618 237.476 148.618 239.079 148.34C240.741 148.048 242.152 147.909 243.313 147.922C246.473 147.962 249.583 147.634 252.643 146.938C254.925 146.422 257.359 145.365 259.945 143.768C262.221 142.363 264.473 140.925 266.703 139.454C269.433 137.659 271.125 135.581 271.778 133.223C271.868 132.92 272.057 132.66 272.312 132.487Z" stroke="#C6E6F8" stroke-width="2"/>
<path d="M97.3471 15.8726C96.7996 15.6804 96.417 15.7931 96.1994 16.2105C96.0345 16.5219 96.0444 16.8532 96.2291 17.2044C96.5721 17.8405 97.0536 17.7875 97.6736 17.0454C97.7509 16.9537 97.8046 16.8444 97.8302 16.727C97.8557 16.6096 97.8522 16.4877 97.82 16.372C97.7877 16.2563 97.7278 16.1503 97.6454 16.0632C97.5629 15.9762 97.4605 15.9107 97.3471 15.8726Z" stroke="#C1E2F6" stroke-width="2"/>
<path d="M97.3093 70.0703C97.7597 69.7995 98.1409 69.4226 98.4312 68.9612C98.7214 68.4997 98.915 67.9627 99.0009 67.3808C99.0868 66.7988 99.0632 66.1835 98.9317 65.5697C98.8001 64.956 98.5631 64.3559 98.2342 63.8038C97.9052 63.2516 97.4908 62.7582 97.0145 62.3517C96.5382 61.9452 96.0094 61.6336 95.4583 61.4347C94.9072 61.2357 94.3446 61.1533 93.8026 61.1922C93.2606 61.2311 92.7498 61.3905 92.2994 61.6613C91.8489 61.9321 91.4677 62.309 91.1775 62.7705C90.8873 63.232 90.6937 63.769 90.6078 64.3509C90.5219 64.9328 90.5454 65.5482 90.677 66.1619C90.8085 66.7757 91.0455 67.3757 91.3745 67.9279C91.7034 68.48 92.1179 68.9734 92.5941 69.3799C93.0704 69.7864 93.5992 70.098 94.1503 70.297C94.7014 70.4959 95.264 70.5783 95.8061 70.5394C96.3481 70.5005 96.8589 70.3411 97.3093 70.0703Z" stroke="#537386" stroke-width="2"/>
<path d="M151.912 71.6206L119.866 67.1877C118.678 67.0221 117.95 67.5389 117.679 68.7382C115.951 76.4708 118.157 82.5899 124.298 87.0956C128.038 89.8388 132.055 91.2667 136.349 91.3793C140.933 91.4986 144.789 90.3192 147.915 87.841C151.84 84.7334 153.73 79.9726 153.585 73.5587C153.574 73.0819 153.4 72.625 153.094 72.2699C152.788 71.9148 152.369 71.6846 151.912 71.6206Z" stroke="#537386" stroke-width="2"/>
<path d="M176.388 80.464C177.648 80.4993 178.872 79.9272 179.792 78.8733C180.712 77.8195 181.253 76.3704 181.296 74.8448C181.338 73.3192 180.879 71.842 180.018 70.7382C179.158 69.6345 177.967 68.9945 176.708 68.9592C175.449 68.9239 174.225 69.496 173.305 70.5498C172.385 71.6036 171.844 73.0528 171.801 74.5784C171.759 76.104 172.218 77.5812 173.079 78.685C173.939 79.7887 175.129 80.4287 176.388 80.464Z" stroke="#537386" stroke-width="2"/>
<path d="M85.8008 78.6971C83.8418 77.8158 81.7838 77.2129 79.6269 76.8882C76.8698 76.4774 74.5315 77.2328 72.6121 79.1543C70.3958 81.3608 69.2053 84.0476 69.0404 87.2148C68.8689 90.4285 69.0239 92.9132 69.5054 94.6691C70.7388 99.1483 73.7895 101.633 78.6573 102.123C83.7231 102.634 87.4498 101.166 89.8375 97.7204C91.3151 95.5935 92.2748 93.1849 92.7167 90.4947C93.2114 87.5263 92.5749 84.8626 90.8072 82.5038C89.6397 80.94 87.9709 79.6711 85.8008 78.6971Z" stroke="#C3D8ED" stroke-width="2"/>
<path d="M169.138 88.1193C168.478 88.815 168.594 89.196 169.484 89.2623C169.647 89.2748 169.809 89.2508 169.959 89.1922C170.108 89.1336 170.24 89.042 170.345 88.9244C170.833 88.3744 170.714 88.0166 169.989 87.8509C169.838 87.8174 169.681 87.8244 169.532 87.8714C169.383 87.9185 169.247 88.0039 169.138 88.1193Z" stroke="#8CCCF0" stroke-width="2"/>
<path d="M178.132 103.863V104.111" stroke="#C2C4D6" stroke-width="2"/>
<path d="M178.131 104.111C177.637 104.496 177.541 104.992 177.845 105.602C179.856 109.657 182.749 111.791 186.522 112.003C189.602 112.182 192.356 111.33 194.783 109.448C197.276 107.514 198.734 104.734 199.156 101.11C199.433 98.7176 198.863 96.4681 197.445 94.361C194.918 90.6041 191.601 88.5997 187.491 88.3479C185.268 88.2154 183.356 88.6063 181.753 89.5207C179.886 90.5875 178.603 92.2407 177.904 94.4803C177.614 95.4146 177.211 96.1865 176.697 96.7961C176.587 96.9246 176.507 97.0682 176.464 97.2139C176.421 97.3596 176.416 97.5029 176.45 97.631L178.131 103.863" stroke="#C3D8ED" stroke-width="2"/>
<path d="M178.132 104.111C178.943 104.105 179.583 104.446 180.051 105.135C182.03 108.07 184.635 109.597 187.867 109.717C189.463 109.776 190.938 109.362 192.29 108.474C193.662 107.573 194.77 106.43 195.614 105.045C196.821 103.058 197.171 100.894 196.663 98.5552C196.122 96.0705 194.836 94.0529 192.804 92.5024C191.518 91.5151 189.998 91.1109 188.243 91.2898C181.799 91.9458 178.659 95.8286 178.824 102.938C178.827 103.105 178.8 103.262 178.745 103.39C178.691 103.519 178.612 103.614 178.517 103.664L178.132 103.863" stroke="#F9D0D3" stroke-width="2"/>
<path d="M167.149 105.662C168.046 105.589 168.228 105.145 167.693 104.33C167.605 104.196 167.484 104.089 167.343 104.023C167.203 103.956 167.05 103.931 166.902 103.952C166.084 104.058 165.906 104.492 166.368 105.254C166.448 105.389 166.564 105.498 166.702 105.57C166.84 105.642 166.995 105.674 167.149 105.662Z" stroke="#C1E2F6" stroke-width="2"/>
<path d="M202.389 116.669C202.475 116.572 202.533 116.453 202.561 116.318C202.588 116.182 202.584 116.034 202.549 115.88C202.515 115.727 202.449 115.571 202.358 115.423C202.266 115.274 202.149 115.136 202.014 115.015C201.742 114.771 201.412 114.615 201.097 114.58C200.783 114.546 200.509 114.636 200.336 114.831C200.25 114.927 200.192 115.047 200.165 115.182C200.137 115.317 200.141 115.466 200.176 115.619C200.211 115.773 200.276 115.928 200.368 116.077C200.459 116.225 200.576 116.364 200.711 116.485C200.983 116.728 201.313 116.885 201.628 116.919C201.943 116.954 202.217 116.864 202.389 116.669Z" stroke="#C1E2F6" stroke-width="2"/>
<path d="M38.4677 118.642C38.7853 118.391 38.9783 118.007 39.0044 117.577C39.0304 117.146 38.8873 116.702 38.6066 116.344C38.3259 115.986 37.9305 115.742 37.5075 115.666C37.0844 115.59 36.6684 115.688 36.3508 115.939C36.0333 116.19 35.8402 116.573 35.8142 117.004C35.7881 117.435 35.9312 117.878 36.2119 118.237C36.4926 118.595 36.888 118.839 37.311 118.915C37.7341 118.991 38.1502 118.893 38.4677 118.642Z" stroke="#C6E6F8" stroke-width="2"/>
<path d="M208.408 118.122C208.598 118.277 208.863 118.321 209.145 118.246C209.428 118.171 209.704 117.983 209.914 117.723C210.018 117.594 210.102 117.452 210.162 117.303C210.222 117.155 210.256 117.004 210.263 116.859C210.27 116.714 210.25 116.577 210.203 116.458C210.156 116.338 210.083 116.237 209.989 116.16C209.8 116.006 209.535 115.961 209.252 116.036C208.97 116.111 208.693 116.299 208.484 116.56C208.38 116.688 208.295 116.831 208.235 116.979C208.175 117.128 208.141 117.279 208.134 117.424C208.127 117.569 208.147 117.705 208.194 117.825C208.242 117.945 208.314 118.046 208.408 118.122Z" stroke="#C1E2F6" stroke-width="2"/>
<path d="M151.302 73.5484C151.314 73.446 151.305 73.3422 151.277 73.243C151.25 73.1437 151.202 73.051 151.139 72.9701C151.075 72.8892 150.996 72.8216 150.907 72.7713C150.817 72.721 150.718 72.689 150.617 72.6769L120.174 69.0845C120.072 69.0724 119.969 69.0807 119.87 69.1088C119.771 69.1368 119.679 69.1842 119.599 69.2481C119.518 69.312 119.451 69.3912 119.401 69.4813C119.351 69.5713 119.319 69.6703 119.307 69.7727L118.963 72.7143C118.951 72.8167 118.959 72.9205 118.987 73.0197C119.015 73.1189 119.062 73.2117 119.126 73.2926C119.189 73.3735 119.268 73.441 119.358 73.4913C119.447 73.5416 119.546 73.5737 119.648 73.5858L150.09 77.1782C150.192 77.1902 150.295 77.182 150.394 77.1539C150.493 77.1258 150.585 77.0785 150.666 77.0146C150.746 76.9507 150.814 76.8714 150.864 76.7814C150.914 76.6914 150.946 76.5923 150.958 76.4899L151.302 73.5484Z" stroke="#88898B" stroke-width="2"/>
<path d="M145.283 85.8334C139.321 82.0565 133.731 82.1659 128.513 86.1614C128.472 86.1937 128.44 86.2362 128.421 86.2849C128.401 86.3335 128.395 86.3867 128.402 86.4394C128.409 86.4921 128.429 86.5426 128.46 86.5861C128.492 86.6296 128.534 86.6647 128.582 86.6881C133.952 89.2391 139.495 89.2623 145.214 86.7577C145.814 86.4927 145.838 86.1846 145.283 85.8334Z" stroke="#88898B" stroke-width="2"/>
<path d="M74.1654 95.1661L79.0036 99.3504C79.2205 99.5363 79.536 99.6455 79.8941 99.6585C85.6787 99.8507 89.1548 97.1307 90.3223 91.4986C91.5756 85.4556 89.3362 81.861 83.6043 80.7147" stroke="#F9D0D3" stroke-width="2"/>
<path d="M83.6043 80.7147C83.0437 80.0322 82.0543 79.6314 80.6361 79.5121C76.4345 79.1609 73.5949 80.718 72.1174 84.1834C70.6795 87.5561 70.818 90.8061 72.5329 93.9336C72.6319 94.0993 72.866 94.3047 73.2354 94.5498L74.1654 95.1661" stroke="#F9D0D3" stroke-width="2"/>
<path d="M83.6043 80.7148C82.2456 80.3901 81.1011 80.6784 80.1711 81.5795C80.0573 81.6876 79.9242 81.7688 79.7819 81.8171C79.6396 81.8653 79.4918 81.8792 79.3499 81.8578C77.6745 81.6325 76.5367 81.7617 75.9365 82.2454C72.2559 85.2072 71.56 88.7952 73.8489 93.0094C74.2182 93.6786 74.3238 94.3975 74.1655 95.1661" stroke="#F8BBBC" stroke-width="2"/>
<path d="M271.778 133.223C271.125 135.581 269.433 137.659 266.703 139.454C264.473 140.925 262.221 142.363 259.945 143.768C257.359 145.365 254.925 146.422 252.643 146.938C249.583 147.634 246.473 147.962 243.313 147.922C242.152 147.909 240.741 148.048 239.079 148.34C237.476 148.618 236.028 148.618 234.735 148.34C227.677 146.816 220.663 143.94 213.691 139.713C213.579 139.647 213.446 139.627 213.32 139.659C213.194 139.691 213.085 139.771 213.018 139.882C210.406 144.222 207.223 147.992 203.47 151.192C199.539 154.552 195.275 156.765 190.677 157.832C185.453 159.044 180.18 158.985 174.857 157.653C171.888 156.917 169.445 156.122 167.525 155.267C165.184 154.22 163.017 152.786 161.025 150.964C160.92 150.868 160.794 150.798 160.657 150.762C160.52 150.726 160.375 150.724 160.236 150.756C160.098 150.788 159.968 150.854 159.859 150.947C159.75 151.04 159.664 151.159 159.61 151.292C157.822 155.718 155.019 158.822 151.2 160.605C144.38 163.785 137.388 164.173 130.225 161.767C126.399 160.475 122.659 158.958 119.005 157.215C115.654 155.612 112.689 153.27 110.11 150.189C109.986 150.042 109.834 149.921 109.663 149.834C109.492 149.746 109.306 149.694 109.114 149.679C108.923 149.664 108.731 149.687 108.548 149.748C108.366 149.808 108.198 149.904 108.052 150.03C106.337 151.527 104.491 152.624 102.512 153.319C100.902 153.883 98.8378 154.3 96.3181 154.572C89.577 155.307 83.5087 153.405 78.1132 148.867C75.2703 146.475 72.7704 143.669 70.6135 140.448C70.3678 140.081 69.9955 139.818 69.5693 139.712C69.143 139.605 68.6934 139.662 68.3082 139.872C65.6962 141.283 63.1897 142.844 60.7888 144.553C59.7466 145.289 58.1768 145.716 56.0792 145.835C53.764 145.974 52.1678 146.12 51.2905 146.273C50.2286 146.458 49.1633 146.644 48.0948 146.829C46.9932 147.015 45.928 147.008 44.899 146.809C39.8333 145.822 33.9991 144.033 27.3965 141.442C23.34 139.852 20.2333 138.083 18.0764 136.135C12.6479 131.232 7.87899 124.844 3.76969 116.972C1.32257 112.281 0.112206 107.597 0.13859 102.919C0.158378 99.4134 0.319982 96.8557 0.623398 95.2456C0.972986 93.4036 1.70844 91.7173 2.82976 90.1867C4.7294 87.5959 5.7254 86.2276 5.81774 86.0818C8.66722 81.8412 12.6149 79.0019 17.6609 77.5641C17.8631 77.5071 18.0492 77.4034 18.2044 77.2612C18.3595 77.1191 18.4794 76.9424 18.5544 76.7453C18.6294 76.5483 18.6575 76.3363 18.6363 76.1264C18.6152 75.9165 18.5454 75.7145 18.4326 75.5365C14.066 68.6455 12.9117 61.7246 14.9697 54.7739C15.9657 51.4013 17.7433 48.5355 20.3026 46.1767C22.0307 44.593 23.9468 43.2645 26.051 42.1911C28.0166 41.1906 30.2229 40.5445 32.67 40.253C37.6698 39.6567 42.4552 40.0774 47.0262 41.5152C48.6093 42.0188 49.2623 41.449 48.9852 39.8057C48.8006 38.7323 48.7379 37.6655 48.7973 36.6054C48.85 35.6777 49.104 34.6639 49.5591 33.564C50.687 30.854 52.0359 28.2566 53.6057 25.7718C54.5885 24.2081 55.8814 22.9525 57.4842 22.0049C66.1513 16.8764 75.2802 16.0183 84.8708 19.4307C86.7836 20.1132 88.614 20.7924 90.3619 21.4682C90.5569 21.5432 90.7661 21.5739 90.9743 21.5581C91.1825 21.5423 91.3847 21.4804 91.5662 21.3769C91.7478 21.2733 91.9043 21.1307 92.0246 20.9592C92.1448 20.7876 92.2257 20.5915 92.2616 20.3849C93.218 14.8787 95.3848 9.92903 98.7619 5.53599C101.374 2.15009 104.817 0.25505 109.091 -0.149137C127.382 -1.89178 140.501 5.37365 148.45 21.6471C148.541 21.8309 148.674 21.9904 148.838 22.1126C149.003 22.2348 149.194 22.3161 149.395 22.3501C149.597 22.384 149.804 22.3695 149.999 22.3078C150.194 22.2461 150.372 22.1389 150.517 21.995C153.736 18.8145 157.45 16.3993 161.658 14.7495C165.899 13.0863 170.177 12.5032 174.491 13.0002C179.952 13.6297 184.817 15.7135 189.084 19.2518C191.709 21.4318 193.665 24.0226 194.951 27.0242C196.277 30.1119 197.003 33.3653 197.128 36.7843C197.131 36.8873 197.156 36.9885 197.201 37.0813C197.245 37.1741 197.309 37.2564 197.387 37.323C197.466 37.3895 197.557 37.4388 197.655 37.4675C197.754 37.4963 197.857 37.5039 197.959 37.4899C199.634 37.2713 201.155 37.0957 202.52 36.9632C204.13 36.8108 205.653 36.8141 207.091 36.9731C220.283 38.4772 229.471 45.4743 234.656 57.9643C236.147 61.549 236.249 65.2761 234.963 69.1457C234.922 69.2646 234.908 69.391 234.922 69.5159C234.935 69.6408 234.976 69.7612 235.041 69.8684C235.107 69.9757 235.194 70.0671 235.299 70.1364C235.403 70.2056 235.522 70.2508 235.645 70.2688C237.862 70.6068 239.939 71.1965 241.879 72.038C244.405 73.1313 246.361 73.9065 247.746 74.3637C253.55 76.272 258.629 79.4624 262.982 83.935C266.188 87.2414 269.084 90.8029 271.669 94.6195C276.425 101.65 278.701 109.455 278.496 118.036C278.397 122.038 277.477 125.659 275.736 128.899C274.977 130.304 273.836 131.5 272.312 132.487C272.057 132.66 271.868 132.92 271.778 133.223ZM97.3471 15.8726C96.7996 15.6804 96.417 15.7931 96.1994 16.2105C96.0345 16.5219 96.0444 16.8532 96.229 17.2044C96.572 17.8405 97.0536 17.7875 97.6736 17.0454C97.7509 16.9537 97.8046 16.8444 97.8302 16.727C97.8557 16.6096 97.8522 16.4877 97.8199 16.372C97.7877 16.2563 97.7278 16.1503 97.6454 16.0632C97.5629 15.9761 97.4605 15.9107 97.3471 15.8726ZM97.3093 70.0704C97.7597 69.7996 98.1409 69.4227 98.4312 68.9612C98.7214 68.4997 98.915 67.9627 99.0009 67.3808C99.0868 66.7989 99.0632 66.1835 98.9317 65.5698C98.8001 64.956 98.5631 64.3559 98.2342 63.8038C97.9052 63.2517 97.4908 62.7583 97.0145 62.3518C96.5382 61.9453 96.0094 61.6337 95.4583 61.4347C94.9072 61.2358 94.3446 61.1534 93.8026 61.1923C93.2606 61.2312 92.7498 61.3906 92.2994 61.6614C91.8489 61.9322 91.4677 62.309 91.1775 62.7705C90.8873 63.232 90.6937 63.769 90.6078 64.3509C90.5219 64.9328 90.5454 65.5482 90.6769 66.162C90.8085 66.7757 91.0455 67.3758 91.3745 67.9279C91.7034 68.4801 92.1179 68.9735 92.5941 69.38C93.0704 69.7865 93.5992 70.0981 94.1503 70.297C94.7014 70.496 95.264 70.5783 95.8061 70.5395C96.3481 70.5006 96.8589 70.3412 97.3093 70.0704ZM151.912 71.6206L119.866 67.1878C118.679 67.0221 117.95 67.5389 117.679 68.7382C115.951 76.4708 118.157 82.5899 124.298 87.0956C128.038 89.8388 132.055 91.2667 136.349 91.3793C140.933 91.4986 144.789 90.3192 147.915 87.841C151.84 84.7334 153.73 79.9727 153.585 73.5587C153.574 73.0819 153.4 72.625 153.094 72.2699C152.788 71.9148 152.369 71.6846 151.912 71.6206ZM176.389 80.464C177.648 80.4993 178.872 79.9272 179.792 78.8733C180.712 77.8195 181.253 76.3704 181.296 74.8448C181.338 73.3192 180.879 71.842 180.018 70.7382C179.158 69.6345 177.968 68.9945 176.708 68.9592C175.449 68.9239 174.225 69.496 173.305 70.5498C172.385 71.6036 171.844 73.0528 171.801 74.5784C171.759 76.104 172.218 77.5812 173.079 78.685C173.939 79.7887 175.129 80.4287 176.389 80.464ZM85.8008 78.6971C83.8418 77.8159 81.7838 77.2129 79.6269 76.8882C76.8698 76.4774 74.5315 77.2328 72.6121 79.1543C70.3958 81.3608 69.2053 84.0477 69.0404 87.2149C68.8689 90.4285 69.0239 92.9133 69.5054 94.6692C70.7388 99.1483 73.7895 101.633 78.6573 102.123C83.7231 102.634 87.4498 101.166 89.8375 97.7204C91.315 95.5935 92.2748 93.1849 92.7167 90.4948C93.2114 87.5263 92.5749 84.8627 90.8072 82.5038C89.6397 80.94 87.9709 79.6712 85.8008 78.6971ZM169.138 88.1193C168.478 88.8151 168.594 89.1961 169.484 89.2623C169.647 89.2748 169.809 89.2508 169.959 89.1922C170.108 89.1336 170.24 89.042 170.345 88.9244C170.833 88.3744 170.714 88.0166 169.989 87.851C169.838 87.8174 169.681 87.8245 169.532 87.8715C169.383 87.9185 169.247 88.0039 169.138 88.1193ZM178.132 103.863V104.111C177.637 104.496 177.541 104.992 177.845 105.602C179.856 109.657 182.749 111.791 186.522 112.003C189.602 112.182 192.356 111.33 194.783 109.448C197.276 107.514 198.734 104.734 199.156 101.11C199.433 98.7176 198.863 96.4681 197.445 94.361C194.918 90.6041 191.601 88.5997 187.491 88.3479C185.268 88.2154 183.356 88.6064 181.753 89.5207C179.886 90.5875 178.603 92.2407 177.904 94.4803C177.614 95.4146 177.211 96.1865 176.697 96.7961C176.587 96.9247 176.507 97.0682 176.464 97.214C176.421 97.3597 176.416 97.503 176.45 97.631L178.132 103.863ZM167.149 105.662C168.046 105.589 168.228 105.145 167.693 104.33C167.605 104.196 167.484 104.089 167.343 104.023C167.203 103.956 167.05 103.931 166.902 103.952C166.084 104.058 165.906 104.492 166.368 105.254C166.448 105.389 166.564 105.498 166.702 105.57C166.84 105.642 166.995 105.674 167.149 105.662ZM202.389 116.669C202.475 116.572 202.533 116.453 202.561 116.318C202.588 116.182 202.584 116.034 202.549 115.88C202.515 115.727 202.449 115.571 202.358 115.423C202.266 115.274 202.149 115.136 202.014 115.015C201.742 114.771 201.412 114.615 201.097 114.58C200.783 114.546 200.509 114.636 200.336 114.831C200.25 114.927 200.192 115.047 200.165 115.182C200.137 115.317 200.141 115.466 200.176 115.619C200.211 115.773 200.276 115.928 200.368 116.077C200.459 116.225 200.576 116.364 200.711 116.485C200.983 116.728 201.313 116.885 201.628 116.919C201.943 116.954 202.217 116.864 202.389 116.669ZM38.4677 118.642C38.7853 118.391 38.9783 118.007 39.0044 117.577C39.0304 117.146 38.8873 116.702 38.6066 116.344C38.3259 115.986 37.9305 115.742 37.5075 115.666C37.0844 115.59 36.6684 115.688 36.3508 115.939C36.0333 116.19 35.8402 116.573 35.8142 117.004C35.7881 117.435 35.9312 117.878 36.2119 118.237C36.4926 118.595 36.888 118.839 37.311 118.915C37.7341 118.991 38.1502 118.893 38.4677 118.642ZM208.408 118.122C208.598 118.277 208.863 118.321 209.145 118.246C209.428 118.171 209.704 117.983 209.914 117.723C210.018 117.594 210.102 117.452 210.162 117.303C210.222 117.155 210.256 117.004 210.263 116.859C210.27 116.714 210.25 116.577 210.203 116.458C210.156 116.338 210.083 116.237 209.989 116.16C209.8 116.006 209.535 115.961 209.252 116.036C208.97 116.111 208.693 116.299 208.484 116.56C208.38 116.688 208.295 116.831 208.235 116.979C208.175 117.127 208.141 117.279 208.134 117.424C208.127 117.569 208.147 117.705 208.194 117.825C208.242 117.945 208.314 118.046 208.408 118.122Z" fill="#8CCCF0"/>
<path d="M97.347 15.8726C97.4604 15.9107 97.5628 15.9762 97.6453 16.0632C97.7277 16.1503 97.7876 16.2563 97.8199 16.372C97.8521 16.4877 97.8556 16.6096 97.8301 16.727C97.8046 16.8444 97.7508 16.9537 97.6735 17.0454C97.0535 17.7875 96.572 17.8405 96.229 17.2044C96.0443 16.8532 96.0344 16.5219 96.1993 16.2105C96.417 15.7931 96.7995 15.6804 97.347 15.8726Z" fill="#F6F8FB"/>
<path d="M91.3745 67.9281C92.7579 70.2501 95.415 71.2093 97.3092 70.0705C99.2035 68.9316 99.6176 66.126 98.2341 63.804C96.8507 61.4819 94.1936 60.5227 92.2994 61.6615C90.4051 62.8004 89.991 65.606 91.3745 67.9281Z" fill="#19191B"/>
<path d="M151.912 71.6207C152.369 71.6847 152.788 71.9149 153.094 72.27C153.4 72.6252 153.574 73.082 153.584 73.5588C153.729 79.9728 151.84 84.7336 147.915 87.8412C144.789 90.3193 140.933 91.4987 136.349 91.3795C132.055 91.2668 128.038 89.8389 124.298 87.0957C118.157 82.59 115.951 76.4709 117.679 68.7384C117.949 67.5391 118.678 67.0222 119.866 67.1879L151.912 71.6207ZM151.301 73.5485C151.313 73.446 151.305 73.3423 151.277 73.243C151.249 73.1438 151.202 73.0511 151.139 72.9702C151.075 72.8892 150.996 72.8217 150.906 72.7714C150.817 72.7211 150.718 72.689 150.616 72.677L120.174 69.0845C120.072 69.0725 119.969 69.0808 119.87 69.1088C119.771 69.1369 119.679 69.1843 119.598 69.2482C119.518 69.3121 119.451 69.3913 119.401 69.4813C119.35 69.5713 119.319 69.6704 119.307 69.7728L118.963 72.7144C118.951 72.8168 118.959 72.9206 118.987 73.0198C119.015 73.119 119.062 73.2117 119.125 73.2927C119.189 73.3736 119.268 73.4411 119.358 73.4914C119.447 73.5417 119.546 73.5738 119.648 73.5858L150.09 77.1783C150.192 77.1903 150.295 77.1821 150.394 77.154C150.493 77.1259 150.585 77.0785 150.666 77.0146C150.746 76.9507 150.813 76.8715 150.863 76.7815C150.914 76.6915 150.946 76.5924 150.957 76.49L151.301 73.5485ZM145.283 85.8335C139.32 82.0567 133.73 82.166 128.513 86.1615C128.472 86.1938 128.44 86.2363 128.421 86.285C128.401 86.3336 128.395 86.3868 128.402 86.4395C128.408 86.4922 128.429 86.5427 128.46 86.5862C128.492 86.6297 128.534 86.6648 128.582 86.6882C133.951 89.2393 139.495 89.2624 145.214 86.7578C145.814 86.4928 145.837 86.1847 145.283 85.8335Z" fill="#19191B"/>
<path d="M171.801 74.5784C171.713 77.7554 173.767 80.3905 176.389 80.4641C179.01 80.5377 181.207 78.0218 181.296 74.8449C181.384 71.6679 179.33 69.0328 176.708 68.9592C174.087 68.8856 171.89 71.4015 171.801 74.5784Z" fill="#19191B"/>
<path d="M150.617 72.6769L120.174 69.0845C119.746 69.0339 119.357 69.3421 119.307 69.7727L118.963 72.7143C118.912 73.145 119.219 73.5352 119.648 73.5858L150.09 77.1782C150.519 77.2288 150.907 76.9207 150.958 76.49L151.302 73.5484C151.352 73.1177 151.045 72.7275 150.617 72.6769Z" fill="#F6F8FB"/>
<path d="M90.807 82.5038C92.5748 84.8626 93.2113 87.5263 92.7166 90.4947C92.2746 93.1849 91.3149 95.5935 89.8374 97.7204C87.4497 101.166 83.7229 102.634 78.6572 102.123C73.7894 101.633 70.7387 99.1483 69.5053 94.6691C69.0238 92.9132 68.8687 90.4285 69.0402 87.2148C69.2051 84.0476 70.3957 81.3608 72.612 79.1543C74.5314 77.2328 76.8697 76.4774 79.6268 76.8882C81.7837 77.2129 83.8417 77.8158 85.8007 78.6971C87.9708 79.6711 89.6395 80.94 90.807 82.5038ZM74.1653 95.1661L79.0035 99.3504C79.2204 99.5363 79.5359 99.6455 79.894 99.6585C85.6786 99.8507 89.1547 97.1307 90.3222 91.4986C91.5755 85.4556 89.3361 81.861 83.6042 80.7147C83.0435 80.0322 82.0541 79.6314 80.636 79.5121C76.4344 79.1609 73.5948 80.718 72.1173 84.1834C70.6794 87.5561 70.8179 90.8061 72.5328 93.9336C72.6318 94.0993 72.8659 94.3047 73.2353 94.5499L74.1653 95.1661Z" fill="#F9E4E9"/>
<path d="M83.6042 80.7147C82.2454 80.39 81.101 80.6783 80.171 81.5794C80.0572 81.6875 79.9241 81.7688 79.7818 81.817C79.6395 81.8652 79.4917 81.8791 79.3498 81.8577C77.6744 81.6324 76.5366 81.7616 75.9364 82.2453C72.2558 85.2072 71.5599 88.7951 73.8487 93.0093C74.2181 93.6785 74.3237 94.3974 74.1653 95.1661L73.2353 94.5498C72.8659 94.3047 72.6318 94.0993 72.5328 93.9336C70.8179 90.8061 70.6794 87.5561 72.1173 84.1834C73.5948 80.718 76.4344 79.1609 80.636 79.5121C82.0542 79.6314 83.0436 80.0322 83.6042 80.7147Z" fill="#F8BBBC"/>
<path d="M145.283 85.8335C145.837 86.1847 145.814 86.4928 145.214 86.7578C139.495 89.2625 133.951 89.2393 128.582 86.6883C128.534 86.6649 128.492 86.6297 128.46 86.5862C128.429 86.5427 128.409 86.4922 128.402 86.4395C128.395 86.3868 128.401 86.3336 128.421 86.285C128.44 86.2364 128.472 86.1939 128.513 86.1615C133.73 82.166 139.321 82.0567 145.283 85.8335Z" fill="#F6F8FB"/>
<path d="M169.989 87.8511C170.714 88.0167 170.833 88.3745 170.345 88.9245C170.24 89.0421 170.108 89.1337 169.958 89.1923C169.809 89.2509 169.647 89.2749 169.484 89.2624C168.594 89.1961 168.478 88.8152 169.138 88.1194C169.247 88.004 169.383 87.9186 169.532 87.8716C169.681 87.8245 169.838 87.8175 169.989 87.8511Z" fill="#8CCCF0"/>
<path d="M178.132 104.111C178.943 104.105 179.583 104.446 180.051 105.135C182.03 108.07 184.635 109.598 187.867 109.717C189.463 109.777 190.938 109.362 192.29 108.475C193.662 107.573 194.77 106.43 195.614 105.046C196.821 103.058 197.171 100.894 196.663 98.5554C196.122 96.0707 194.836 94.053 192.804 92.5026C191.518 91.5153 189.998 91.1111 188.243 91.29C181.799 91.946 178.659 95.8288 178.824 102.939C178.827 103.105 178.8 103.262 178.745 103.391C178.691 103.519 178.612 103.614 178.517 103.664L178.132 103.863L176.45 97.6311C176.416 97.5031 176.421 97.3598 176.464 97.2141C176.507 97.0683 176.587 96.9248 176.697 96.7962C177.211 96.1866 177.614 95.4147 177.904 94.4804C178.603 92.2408 179.886 90.5876 181.753 89.5209C183.356 88.6065 185.268 88.2155 187.491 88.348C191.601 88.5998 194.918 90.6042 197.445 94.3612C198.863 96.4682 199.433 98.7177 199.156 101.11C198.734 104.734 197.276 107.514 194.783 109.449C192.356 111.33 189.602 112.182 186.522 112.003C182.749 111.791 179.856 109.657 177.845 105.602C177.541 104.993 177.637 104.496 178.132 104.111Z" fill="#F9E4E9"/>
<path d="M178.132 104.111V103.863L178.517 103.664C178.612 103.614 178.691 103.519 178.745 103.39C178.8 103.262 178.827 103.105 178.824 102.938C178.659 95.8288 181.799 91.9459 188.243 91.2899C189.998 91.111 191.518 91.5152 192.804 92.5025C194.836 94.053 196.122 96.0706 196.663 98.5554C197.171 100.894 196.821 103.058 195.614 105.046C194.77 106.43 193.662 107.573 192.29 108.475C190.938 109.362 189.463 109.777 187.867 109.717C184.635 109.598 182.03 108.07 180.051 105.135C179.583 104.446 178.943 104.105 178.132 104.111Z" fill="#F8BBBC"/>
<path d="M166.368 105.254C165.906 104.492 166.084 104.058 166.902 103.952C167.05 103.931 167.203 103.956 167.343 104.023C167.483 104.09 167.605 104.196 167.693 104.33C168.228 105.145 168.046 105.589 167.149 105.662C166.995 105.674 166.84 105.642 166.702 105.57C166.564 105.499 166.448 105.389 166.368 105.254Z" fill="#F6F8FB"/>
<path d="M200.711 116.485C201.278 116.992 202.029 117.075 202.389 116.669C202.749 116.263 202.581 115.523 202.014 115.015C201.447 114.508 200.695 114.425 200.336 114.831C199.976 115.237 200.144 115.977 200.711 116.485Z" fill="#F6F8FB"/>
<path d="M36.2119 118.237C36.7964 118.983 37.8064 119.164 38.4677 118.642C39.129 118.119 39.1912 117.09 38.6066 116.344C38.022 115.598 37.012 115.416 36.3507 115.939C35.6894 116.462 35.6273 117.491 36.2119 118.237Z" fill="white"/>
<path d="M208.483 116.56C208.047 117.101 208.013 117.801 208.408 118.122C208.803 118.444 209.477 118.265 209.914 117.723C210.35 117.181 210.384 116.482 209.989 116.16C209.594 115.839 208.92 116.018 208.483 116.56Z" fill="#F6F8FB"/>
</g>
<defs>
<clipPath id="clip0_27_5">
<rect width="280" height="163" fill="white"/>
</clipPath>
</defs>
</svg>
