<?xml version="1.0" encoding="UTF-8" standalone="no"?>
<!DOCTYPE svg PUBLIC "-//W3C//DTD SVG 1.1//EN" "http://www.w3.org/Graphics/SVG/1.1/DTD/svg11.dtd">
<svg xmlns="http://www.w3.org/2000/svg" version="1.1" viewBox="0.00 0.00 1092.00 972.00">
<g stroke-width="2.00" fill="none" stroke-linecap="butt">
<path stroke="#6b7272" vector-effect="non-scaling-stroke" d="
  M 529.75 589.21
  Q 529.71 589.03 529.75 588.79
  Q 529.86 588.18 529.25 588.22
  L 528.00 588.29"
/>
<path stroke="#6b7f7e" vector-effect="non-scaling-stroke" d="
  M 430.94 108.62
  Q 416.81 104.82 403.31 106.07
  C 373.54 108.82 361.79 132.38 358.00 159.29"
/>
<path stroke="#7a8a89" vector-effect="non-scaling-stroke" d="
  M 358.00 159.29
  L 345.75 153.71"
/>
<path stroke="#6b7f7e" vector-effect="non-scaling-stroke" d="
  M 345.75 153.71
  C 305.70 137.91 267.81 165.71 260.49 205.27
  C 259.97 208.11 262.31 209.67 265.01 209.92
  Q 270.59 210.43 275.40 212.80
  A 0.64 0.64 0.0 0 1 275.11 214.02
  Q 255.36 213.78 235.82 215.59
  Q 226.97 216.41 221.45 218.19
  C 123.27 249.89 73.68 357.35 137.71 446.75"
/>
<path stroke="#7a8a89" vector-effect="non-scaling-stroke" d="
  M 137.71 446.75
  C 176.54 497.15 230.82 514.93 293.21 503.00"
/>
<path stroke="#6b7f7e" vector-effect="non-scaling-stroke" d="
  M 293.21 503.00
  Q 301.72 511.20 306.50 522.04"
/>
<path stroke="#7a8a89" vector-effect="non-scaling-stroke" d="
  M 306.50 522.04
  C 339.39 578.91 414.13 596.25 465.65 553.14
  Q 467.23 551.82 468.22 550.58
  A 1.30 1.28 -43.6 0 0 468.27 549.04
  L 458.96 535.75"
/>
<path stroke="#6b7f7e" vector-effect="non-scaling-stroke" d="
  M 458.96 535.75
  Q 450.35 521.32 447.54 504.75"
/>
<path stroke="#5a6867" vector-effect="non-scaling-stroke" d="
  M 447.54 504.75
  L 448.46 504.75"
/>
<path stroke="#6b7f7e" vector-effect="non-scaling-stroke" d="
  M 448.46 504.75
  Q 456.27 527.20 472.46 544.50"
/>
<path stroke="#7a8a89" vector-effect="non-scaling-stroke" d="
  M 472.46 544.50
  C 518.89 593.21 593.03 594.10 638.51 543.67"
/>
<path stroke="#6b7f7e" vector-effect="non-scaling-stroke" d="
  M 638.51 543.67
  Q 654.71 527.77 661.76 505.98
  A 0.76 0.75 26.2 0 1 662.91 505.59
  C 665.92 507.71 659.64 523.75 658.42 526.90"
/>
<path stroke="#7a8a89" vector-effect="non-scaling-stroke" d="
  M 658.42 526.90
  Q 654.88 531.24 652.86 536.12
  C 651.55 539.28 652.42 540.29 654.53 542.48
  Q 668.02 556.50 681.95 564.56
  C 736.03 595.87 803.90 577.69 835.71 524.00"
/>
<path stroke="#6b7f7e" vector-effect="non-scaling-stroke" d="
  M 835.71 524.00
  Q 861.48 475.16 844.84 422.07
  Q 844.16 419.90 845.15 421.95
  Q 862.75 458.39 853.54 498.25"
/>
<path stroke="#7a8a89" vector-effect="non-scaling-stroke" d="
  M 853.54 498.25
  L 848.22 518.12
  A 1.77 1.76 15.6 0 0 849.44 520.27
  Q 912.15 538.24 969.76 511.67
  C 1039.32 479.59 1077.49 405.66 1065.46 330.25"
/>
<path stroke="#6b7f7e" vector-effect="non-scaling-stroke" d="
  M 1065.46 330.25
  C 1053.34 267.16 1014.23 221.18 953.79 199.50"
/>
<path stroke="#7a8a89" vector-effect="non-scaling-stroke" d="
  M 953.79 199.50
  Q 915.08 186.33 873.93 189.52
  A 0.31 0.31 0.0 0 1 873.79 188.93
  L 886.41 183.56"
/>
<path stroke="#6b7f7e" vector-effect="non-scaling-stroke" d="
  M 886.41 183.56
  Q 894.36 186.23 902.11 182.67
  A 1.21 1.20 -25.5 0 0 902.69 181.04
  C 876.71 128.35 811.97 111.87 764.72 147.98
  Q 759.32 152.11 761.04 159.00"
/>
<path stroke="#7a8a89" vector-effect="non-scaling-stroke" d="
  M 761.04 159.00
  Q 761.99 172.21 759.53 185.25
  Q 759.30 186.43 759.15 185.24
  C 757.69 174.09 757.47 162.62 753.12 152.10
  C 740.36 121.25 712.22 99.63 677.76 102.13
  C 654.74 103.80 637.35 114.24 620.67 129.82
  A 0.30 0.30 0.0 0 1 620.22 129.44
  Q 634.61 106.98 659.89 98.43
  A 1.99 1.99 0.0 0 0 660.78 95.27
  C 601.38 24.01 495.26 27.08 445.22 107.86
  A 1.58 1.58 0.0 0 0 445.59 109.94
  Q 459.15 120.49 463.98 137.04
  A 0.28 0.28 0.0 0 1 463.47 137.26
  Q 460.68 132.88 457.51 128.53
  Q 446.99 114.13 430.94 108.62"
/>
<path stroke="#c7dddb" vector-effect="non-scaling-stroke" d="
  M 761.04 159.00
  C 778.10 154.35 798.18 147.54 815.25 147.01
  C 843.81 146.13 869.91 161.12 886.41 183.56"
/>
<path stroke="#c7dddb" vector-effect="non-scaling-stroke" d="
  M 953.79 199.50
  C 953.13 202.13 951.70 211.52 954.54 213.22
  C 981.58 229.37 1002.41 254.57 1009.30 285.67
  C 1020.80 337.65 995.62 391.44 946.19 413.03
  C 909.41 429.09 867.58 423.84 834.38 402.37
  A 2.13 2.12 -62.1 0 0 831.27 403.33
  Q 825.90 415.86 827.15 429.47
  Q 827.19 429.99 826.89 430.42
  C 809.70 454.21 789.01 473.66 759.79 481.07
  C 725.27 489.82 688.11 484.35 662.53 457.98
  C 658.23 453.56 652.43 453.94 649.03 459.11
  C 633.53 482.61 612.70 502.14 585.24 509.77
  C 555.31 518.09 517.17 515.38 492.16 495.34
  Q 476.43 482.73 463.06 466.90
  A 1.48 1.47 39.5 0 0 460.64 467.13
  C 456.13 475.29 449.42 487.73 441.71 492.19
  C 407.43 512.00 361.35 513.00 331.67 484.11
  C 327.96 480.50 324.60 475.89 321.23 471.60
  C 314.84 463.46 306.34 456.76 300.51 448.27
  Q 298.50 445.35 296.58 442.33
  A 2.02 2.01 71.8 0 0 294.77 441.41
  C 258.91 443.48 227.19 433.76 201.59 409.30
  C 175.46 384.33 165.64 348.18 172.40 313.20
  C 182.82 259.33 230.03 226.96 282.74 224.74
  C 286.38 224.58 288.16 222.24 288.07 218.80
  C 288.00 216.07 286.23 214.62 286.40 211.59
  C 288.37 174.98 320.67 168.72 345.75 153.71"
/>
<path stroke="#c7dddb" vector-effect="non-scaling-stroke" d="
  M 358.00 159.29
  C 363.59 163.86 367.48 160.69 371.12 155.71
  C 374.26 151.43 377.38 146.81 380.63 143.04
  Q 401.08 119.32 430.94 108.62"
/>
<path stroke="#c7dddb" vector-effect="non-scaling-stroke" d="
  M 1065.46 330.25
  C 1062.83 330.62 1058.28 328.40 1058.41 333.49
  Q 1059.90 393.55 1025.36 442.06
  C 983.66 500.63 922.21 517.68 853.54 498.25"
/>
<path stroke="#c7dddb" vector-effect="non-scaling-stroke" d="
  M 835.71 524.00
  Q 834.63 522.95 833.14 522.71
  Q 832.62 522.62 832.22 522.96
  C 810.61 540.69 788.53 553.23 761.14 558.67
  C 722.06 566.43 687.58 552.13 658.42 526.90"
/>
<path stroke="#c7dddb" vector-effect="non-scaling-stroke" d="
  M 638.51 543.67
  Q 631.38 542.91 626.28 546.53
  Q 604.84 561.77 580.50 565.73
  C 546.67 571.23 509.57 565.07 481.70 544.25
  C 478.28 541.70 475.31 540.79 472.46 544.50"
/>
<path stroke="#a7bab9" vector-effect="non-scaling-stroke" d="
  M 448.46 504.75
  C 451.30 502.17 451.52 499.67 455.76 498.98
  A 2.11 2.09 -19.4 0 1 457.93 500.01
  Q 462.20 507.47 466.41 515.04
  C 470.36 522.14 480.36 522.16 486.83 518.94
  C 489.54 517.60 488.88 514.83 486.46 513.60
  Q 470.37 505.37 460.17 490.39
  C 456.03 484.31 449.90 493.25 448.02 497.20
  Q 446.25 500.92 447.54 504.75"
/>
<path stroke="#c7dddb" vector-effect="non-scaling-stroke" d="
  M 458.96 535.75
  C 415.48 564.61 360.01 570.09 320.84 530.81
  C 317.14 527.10 312.74 518.54 306.50 522.04"
/>
<path stroke="#c7dddb" vector-effect="non-scaling-stroke" d="
  M 293.21 503.00
  Q 302.38 493.06 311.75 483.32
  C 313.08 481.95 316.58 477.28 313.56 476.02
  Q 313.04 475.81 312.64 476.20
  C 309.90 478.81 298.59 490.88 295.75 491.26
  Q 265.92 495.31 236.01 492.19
  C 227.68 491.33 220.11 484.17 213.50 478.50
  C 211.58 476.86 207.59 477.14 209.76 480.16
  Q 212.12 483.44 214.55 486.94
  A 1.03 1.03 0.0 0 1 213.55 488.54
  Q 213.41 488.52 213.25 488.48
  Q 176.95 479.68 151.07 452.93
  Q 147.97 449.73 144.82 446.43
  C 142.28 443.78 139.85 443.69 137.71 446.75"
/>
<path stroke="#889897" vector-effect="non-scaling-stroke" d="
  M 495.0596 306.6416
  A 1.63 1.63 0.0 0 0 494.3626 304.4444
  L 453.0081 283.0083
  A 1.63 1.63 0.0 0 0 450.8109 283.7053
  L 450.7004 283.9184
  A 1.63 1.63 0.0 0 0 451.3974 286.1156
  L 492.7519 307.5517
  A 1.63 1.63 0.0 0 0 494.9491 306.8547
  L 495.0596 306.6416"
/>
<path stroke="#889897" vector-effect="non-scaling-stroke" d="
  M 676.94 284.03
  C 662.79 288.59 647.97 296.85 636.15 304.88
  Q 635.79 305.13 635.60 305.52
  L 635.33 306.08
  A 0.69 0.69 0.0 0 0 636.19 307.02
  Q 657.96 298.97 677.13 285.92
  A 2.18 0.32 -71.3 0 0 677.92 284.37
  C 678.03 284.06 677.23 283.93 676.94 284.03"
/>
<path stroke="#889897" vector-effect="non-scaling-stroke" d="
  M 472.2471 347.6379
  A 16.73 15.89 41.1 0 0 470.0857 324.6659
  A 16.73 15.89 41.1 0 0 447.0329 325.6421
  A 16.73 15.89 41.1 0 0 449.1943 348.6141
  A 16.73 15.89 41.1 0 0 472.2471 347.6379"
/>
<path stroke="#889897" vector-effect="non-scaling-stroke" d="
  M 685.13 336.52
  A 16.30 16.30 0.0 0 0 668.83 320.22
  A 16.30 16.30 0.0 0 0 652.53 336.52
  A 16.30 16.30 0.0 0 0 668.83 352.82
  A 16.30 16.30 0.0 0 0 685.13 336.52"
/>
<path stroke="#aaa29d" vector-effect="non-scaling-stroke" d="
  M 435.6298 370.2520
  A 26.35 21.39 0.2 0 0 409.3547 348.7701
  A 26.35 21.39 0.2 0 0 382.9302 370.0680
  A 26.35 21.39 0.2 0 0 409.2053 391.5499
  A 26.35 21.39 0.2 0 0 435.6298 370.2520"
/>
<path stroke="#aaa29d" vector-effect="non-scaling-stroke" d="
  M 746.8100 370.1247
  A 25.96 21.28 -0.1 0 0 720.8129 348.8900
  A 25.96 21.28 -0.1 0 0 694.8900 370.2153
  A 25.96 21.28 -0.1 0 0 720.8871 391.4500
  A 25.96 21.28 -0.1 0 0 746.8100 370.1247"
/>
<path stroke="#889897" vector-effect="non-scaling-stroke" d="
  M 596.40 389.11
  C 575.60 398.13 554.29 396.93 533.24 389.49
  A 1.39 1.39 0.0 0 0 531.39 390.75
  C 530.70 407.78 539.95 424.01 556.43 429.06
  C 568.63 432.79 581.59 428.69 589.65 418.84
  C 595.95 411.14 598.44 400.85 598.88 391.00
  Q 598.98 388.89 596.98 388.97
  A 1.55 1.44 -56.5 0 0 596.40 389.11"
/>
<path stroke="#838a8a" vector-effect="non-scaling-stroke" d="
  M 450.0009 344.4829
  A 3.54 2.21 117.4 0 0 453.5921 342.3570
  A 3.54 2.21 117.4 0 0 453.2591 338.1971
  A 3.54 2.21 117.4 0 0 449.6679 340.3230
  A 3.54 2.21 117.4 0 0 450.0009 344.4829"
/>
<path stroke="#ae6354" vector-effect="non-scaling-stroke" d="
  M 428.7892 370.0944
  A 19.99 14.69 0.5 0 0 408.9282 355.2306
  A 19.99 14.69 0.5 0 0 388.8108 369.7456
  A 19.99 14.69 0.5 0 0 408.6718 384.6094
  A 19.99 14.69 0.5 0 0 428.7892 370.0944"
/>
<path stroke="#ae6354" vector-effect="non-scaling-stroke" d="
  M 742.4779 370.0334
  A 21.24 16.29 -0.8 0 0 721.0126 354.0416
  A 21.24 16.29 -0.8 0 0 700.0021 370.6266
  A 21.24 16.29 -0.8 0 0 721.4674 386.6184
  A 21.24 16.29 -0.8 0 0 742.4779 370.0334"
/>
<path stroke="#838a8a" vector-effect="non-scaling-stroke" d="
  M 581.10 416.85
  C 572.15 409.96 560.37 409.70 550.62 415.12
  A 2.06 2.05 60.5 0 0 549.84 417.94
  C 550.95 419.86 552.88 421.06 555.09 422.55
  C 563.80 428.40 574.81 425.91 581.21 417.71
  Q 581.59 417.23 581.10 416.85"
/>
<path stroke="#889897" vector-effect="non-scaling-stroke" d="
  M 249.19 581.61
  L 249.19 594.71
  A 5.81 5.81 0.0 0 0 255.00 600.52
  L 261.54 600.52
  A 17.49 11.09 0.0 0 0 279.03 589.43
  L 279.03 586.89
  A 17.49 11.09 0.0 0 0 261.54 575.80
  L 255.00 575.80
  A 5.81 5.81 0.0 0 0 249.19 581.61"
/>
<path stroke="#a7aead" vector-effect="non-scaling-stroke" d="
  M 466.25 664.54
  L 465.21 664.50"
/>
<path stroke="#6a7e7d" stroke-opacity="0.820" vector-effect="non-scaling-stroke" d="
  M 727.79 653.25
  Q 726.85 652.25 725.54 653.00"
/>
<path stroke="#818888" vector-effect="non-scaling-stroke" d="
  M 809.73 671.70
  C 800.80 682.26 780.39 681.64 779.85 664.92"
/>
<path stroke="#6b7f7e" vector-effect="non-scaling-stroke" d="
  M 807.53 672.74
  L 807.93 649.48
  A 2.35 2.35 0.0 0 0 805.62 647.09
  L 796.98 646.94
  A 12.77 11.96 1.0 0 0 784.01 658.67
  L 783.94 662.71
  A 12.77 11.96 1.0 0 0 796.50 674.89
  L 805.13 675.04
  A 2.35 2.35 0.0 0 0 807.53 672.74"
/>
<path stroke="#bcc4c3" vector-effect="non-scaling-stroke" d="
  M 461.00 667.24
  L 461.22 667.67
  Q 461.41 668.02 461.14 668.32
  C 457.65 672.28 404.01 732.86 407.08 735.05
  Q 407.50 735.35 407.83 734.95
  Q 434.38 703.44 460.97 671.97
  Q 462.14 670.59 463.21 670.50"
/>
<path stroke="#818888" vector-effect="non-scaling-stroke" d="
  M 497.23 682.83
  C 500.19 697.10 517.27 687.95 509.11 675.87
  Q 508.87 675.52 509.49 674.86"
/>
<path stroke="#818888" vector-effect="non-scaling-stroke" d="
  M 578.71 677.25
  Q 575.31 687.13 582.50 694.54"
/>
<path stroke="#cedbda" vector-effect="non-scaling-stroke" d="
  M 582.50 694.54
  L 583.25 696.29"
/>
<path stroke="#818888" vector-effect="non-scaling-stroke" d="
  M 583.25 696.29
  Q 585.34 711.75 598.68 719.70
  Q 599.12 719.96 599.64 719.94
  C 613.72 719.49 623.72 707.75 632.00 699.04"
/>
<path stroke="#bcc4c3" vector-effect="non-scaling-stroke" d="
  M 665.20 723.21
  C 646.36 746.09 627.18 768.67 607.13 790.51
  Q 594.04 804.77 583.77 821.30
  A 0.48 0.47 38.6 0 0 583.84 821.89
  Q 584.17 822.21 584.53 821.79
  Q 655.66 738.32 726.96 655.00"
/>
<path stroke="#9aa6a5" stroke-opacity="0.820" vector-effect="non-scaling-stroke" d="
  M 1091.79 690.00
  L 1092.00 696.56"
/>
<path stroke="#cecece" vector-effect="non-scaling-stroke" d="
  M 1092.00 822.06
  Q 966.36 822.44 840.72 822.76
  Q 834.56 822.78 829.39 821.71
  C 817.89 819.34 801.36 811.35 791.00 819.29"
/>
<path stroke="#818888" vector-effect="non-scaling-stroke" d="
  M 791.00 819.29
  L 774.32 805.29
  A 1.44 1.43 -43.2 0 0 772.55 805.24
  L 762.75 812.54"
/>
<path stroke="#cecece" vector-effect="non-scaling-stroke" d="
  M 762.75 812.54
  C 749.33 804.93 731.74 822.06 722.21 805.75"
/>
<path stroke="#8f9696" vector-effect="non-scaling-stroke" d="
  M 722.21 805.75
  Q 725.63 802.53 726.15 798.59
  A 0.61 0.60 -20.9 0 0 725.09 798.12
  L 692.54 835.54"
/>
<path stroke="#d7d8d8" vector-effect="non-scaling-stroke" d="
  M 692.54 835.54
  Q 684.60 835.07 675.76 837.29
  C 663.74 840.32 651.40 844.40 638.99 845.15
  C 627.69 845.84 620.03 842.09 609.27 836.73
  Q 602.15 833.19 594.29 832.25"
/>
<path stroke="#818888" vector-effect="non-scaling-stroke" d="
  M 594.29 832.25
  C 589.43 823.67 580.28 819.38 571.07 824.69
  A 1.86 1.81 84.5 0 0 570.24 825.72
  Q 567.50 834.55 561.21 841.25"
/>
<path stroke="#d7d8d8" vector-effect="non-scaling-stroke" d="
  M 561.21 841.25
  Q 544.49 838.08 527.74 841.23
  C 524.39 841.86 517.92 843.92 513.97 843.47
  C 509.06 842.91 505.11 839.06 501.22 835.45
  Q 500.77 835.04 500.16 835.10
  L 498.03 835.30
  Q 496.46 835.45 497.66 834.43
  L 499.79 832.63
  Q 500.19 832.29 500.32 831.78
  Q 500.69 830.24 500.21 828.75"
/>
<path stroke="#bcc4c3" vector-effect="non-scaling-stroke" d="
  M 500.21 828.75
  Q 515.55 810.13 531.09 791.68
  C 543.64 776.76 557.62 762.70 568.60 746.60
  Q 569.02 745.99 568.39 745.61
  L 567.91 745.32
  A 1.11 1.11 0.0 0 0 566.48 745.56
  L 523.65 797.13"
/>
<path stroke="#d7d8d8" vector-effect="non-scaling-stroke" d="
  M 523.65 797.13
  Q 503.41 791.76 483.29 796.25"
/>
<path stroke="#818888" vector-effect="non-scaling-stroke" d="
  M 483.29 796.25
  C 481.33 788.39 471.46 793.47 475.04 800.75"
/>
<path stroke="#d7d8d8" vector-effect="non-scaling-stroke" d="
  M 475.04 800.75
  C 453.50 800.97 434.89 799.78 410.05 799.72
  C 395.40 799.69 381.48 796.79 366.85 796.24
  C 364.80 796.16 363.51 796.99 361.76 797.80
  C 356.20 800.39 350.72 800.12 345.49 796.73
  Q 345.06 796.45 344.54 796.51
  C 325.21 798.83 303.82 799.89 290.42 784.58
  Q 288.99 782.94 290.70 780.96
  Q 317.68 749.71 384.42 670.88"
/>
<path stroke="#818888" vector-effect="non-scaling-stroke" d="
  M 808.84 715.63
  A 7.61 7.61 0.0 0 0 801.23 708.02
  A 7.61 7.61 0.0 0 0 793.62 715.63
  A 7.61 7.61 0.0 0 0 801.23 723.24
  A 7.61 7.61 0.0 0 0 808.84 715.63"
/>
<path stroke="#cedbda" vector-effect="non-scaling-stroke" d="
  M 382.50 763.54
  L 383.25 764.29"
/>
<path stroke="#818888" vector-effect="non-scaling-stroke" d="
  M 383.25 764.29
  C 385.85 772.86 399.70 770.80 405.91 768.37
  C 413.06 765.57 412.24 748.07 408.19 743.39
  C 403.61 738.10 397.34 743.01 391.44 742.70
  Q 384.93 742.36 378.41 742.29
  C 373.11 742.24 370.26 746.48 373.53 751.07
  Q 377.99 757.32 382.50 763.54"
/>
<path stroke="#6b7f7e" vector-effect="non-scaling-stroke" d="
  M 383.25 764.29
  C 398.33 775.10 417.71 759.57 404.35 744.41
  C 402.86 742.70 401.81 742.87 399.75 743.24
  Q 389.62 745.02 379.54 746.99
  A 1.86 1.85 76.0 0 0 378.12 749.36
  L 382.50 763.54"
/>
<path stroke="#818888" vector-effect="non-scaling-stroke" d="
  M 718.82 756.27
  A 5.02 5.02 0.0 0 0 713.80 751.25
  A 5.02 5.02 0.0 0 0 708.78 756.27
  A 5.02 5.02 0.0 0 0 713.80 761.29
  A 5.02 5.02 0.0 0 0 718.82 756.27"
/>
<path stroke="#687675" vector-effect="non-scaling-stroke" d="
  M 715.29 665.25
  Q 717.60 664.81 717.46 662.50"
/>
<path stroke="#6b7f7e" vector-effect="non-scaling-stroke" d="
  M 583.25 696.29
  C 585.77 702.05 596.70 719.45 604.74 716.24
  Q 616.24 711.65 627.60 701.86
  C 643.94 687.78 636.72 674.43 622.24 664.24
  Q 619.58 662.36 615.79 662.81
  Q 594.83 665.28 581.91 681.14
  C 579.06 684.63 581.35 691.04 582.50 694.54"
/>
<path stroke="#818888" vector-effect="non-scaling-stroke" d="
  M 291.08 673.90
  C 293.43 682.53 297.07 704.95 289.33 710.32
  Q 287.34 711.70 282.69 712.54
  C 273.29 714.23 262.42 717.31 253.32 716.14
  C 234.07 713.65 225.23 685.87 245.00 675.79"
/>
<path stroke="#5a6867" vector-effect="non-scaling-stroke" d="
  M 245.00 675.79
  Q 245.02 675.90 245.04 676.00"
/>
<path stroke="#6b7f7e" vector-effect="non-scaling-stroke" d="
  M 245.04 676.00
  C 234.58 684.01 234.62 697.80 243.55 706.95
  C 256.42 720.13 273.84 712.26 288.70 705.65
  C 290.29 704.94 291.08 704.00 291.35 702.34
  Q 293.68 688.24 287.85 675.68
  C 284.31 668.07 281.02 663.12 271.54 666.53
  Q 259.14 670.99 246.75 675.21"
/>
<path stroke="#5a6867" vector-effect="non-scaling-stroke" d="
  M 246.75 675.21
  L 245.75 674.04"
/>
<path stroke="#a7bab9" vector-effect="non-scaling-stroke" d="
  M 615.36 686.11
  C 607.81 683.31 598.93 681.49 591.06 682.53
  Q 590.46 682.61 590.25 683.18
  Q 589.57 684.98 590.52 686.53
  Q 590.82 687.03 591.40 687.02
  L 615.22 686.94
  A 0.43 0.43 0.0 0 0 615.36 686.11"
/>
<path stroke="#bcc4c3" vector-effect="non-scaling-stroke" d="
  M 245.25 674.04
  L 245.61 674.49
  Q 246.05 675.02 245.49 675.43
  L 245.00 675.79"
/>
<path stroke="#d7d8d8" vector-effect="non-scaling-stroke" d="
  M 381.51 671.13
  Q 380.78 672.93 378.77 675.28
  Q 348.72 710.47 318.66 745.66
  Q 317.80 746.67 316.82 747.11
  Q 316.32 747.35 315.80 747.15
  L 308.58 744.44
  Q 308.02 744.22 307.46 744.45
  Q 292.16 750.51 282.75 751.72
  C 272.35 753.04 259.66 749.85 248.75 759.04"
/>
<path stroke="#818888" vector-effect="non-scaling-stroke" d="
  M 248.75 759.04
  L 247.75 758.96"
/>
<path stroke="#d7d8d8" vector-effect="non-scaling-stroke" d="
  M 247.75 758.96
  L 245.71 756.87
  Q 245.38 756.52 244.91 756.41
  C 230.72 753.03 221.48 757.46 207.20 759.97
  Q 202.21 760.85 199.50 760.80
  Q 152.66 759.85 105.81 758.90
  C 69.02 758.15 38.02 759.13 0.00 761.14"
/>
<path stroke="#a7bab9" vector-effect="non-scaling-stroke" d="
  M 245.04 676.00
  L 246.75 675.21"
/>
<path stroke="#798d8c" vector-effect="non-scaling-stroke" d="
  M 279.58 698.34
  Q 268.12 692.38 256.31 688.58
  A 0.40 0.40 0.0 0 0 255.98 689.31
  Q 268.46 696.50 282.15 701.02
  A 0.42 0.41 -14.7 0 0 282.56 700.32
  Q 281.43 699.30 279.58 698.34"
/>
<path stroke="#757c7c" vector-effect="non-scaling-stroke" d="
  M 475.04 800.75
  C 479.56 804.09 483.03 801.15 483.29 796.25"
/>
<path stroke="#b0b8b7" vector-effect="non-scaling-stroke" d="
  M 523.65 797.13
  L 485.36 840.31
  Q 484.89 840.84 485.50 841.21
  L 486.62 841.87
  Q 487.04 842.12 487.38 841.78
  L 500.21 828.75"
/>
<path stroke="#757c7c" vector-effect="non-scaling-stroke" d="
  M 561.21 841.25
  C 554.91 857.85 568.56 859.24 580.00 855.96"
/>
<path stroke="#b0b8b7" vector-effect="non-scaling-stroke" d="
  M 580.00 855.96
  L 586.50 854.79"
/>
<path stroke="#757c7c" vector-effect="non-scaling-stroke" d="
  M 586.50 854.79
  Q 597.49 846.17 594.29 832.25"
/>
<path stroke="#838a8a" vector-effect="non-scaling-stroke" d="
  M 692.54 835.54
  Q 666.95 868.51 638.03 898.21"
/>
<path stroke="#c2c2c2" vector-effect="non-scaling-stroke" d="
  M 638.03 898.21
  Q 600.10 891.33 564.81 893.60
  C 557.86 894.04 549.97 897.11 543.58 897.66
  Q 538.01 898.15 531.69 897.85
  Q 513.12 896.97 499.25 895.29"
/>
<path stroke="#757c7c" vector-effect="non-scaling-stroke" d="
  M 499.25 895.29
  Q 490.21 869.56 467.42 854.95
  C 462.93 852.06 448.48 863.00 445.57 866.06
  Q 437.31 874.72 441.50 887.71"
/>
<path stroke="#c2c2c2" vector-effect="non-scaling-stroke" d="
  M 441.50 887.71
  Q 428.78 889.07 416.65 892.96
  C 415.24 893.41 410.76 895.51 409.23 895.05
  C 396.65 891.31 386.90 895.01 375.10 896.50
  Q 369.94 897.15 360.75 897.11
  Q 180.37 896.26 0.00 897.69"
/>
<path stroke="#757c7c" vector-effect="non-scaling-stroke" d="
  M 247.75 758.96
  C 245.60 758.98 243.15 758.75 241.29 759.62
  C 233.66 763.22 240.70 773.39 248.35 770.55
  C 254.03 768.44 252.43 762.15 248.75 759.04"
/>
<path stroke="#b0b8b7" vector-effect="non-scaling-stroke" d="
  M 286.00 837.54
  L 287.46 832.75"
/>
<path stroke="#757c7c" vector-effect="non-scaling-stroke" d="
  M 287.46 832.75
  C 292.41 825.02 286.94 818.75 279.94 815.78
  Q 264.99 809.43 248.06 810.43
  Q 245.49 810.58 244.80 811.57
  C 234.85 825.85 242.21 843.81 255.55 852.72
  C 270.51 862.73 283.46 853.58 286.00 837.54"
/>
<path stroke="#5a6867" vector-effect="non-scaling-stroke" d="
  M 287.46 832.75
  C 288.07 815.91 261.65 813.26 250.25 813.56
  C 243.10 813.74 241.36 828.88 242.50 833.86
  C 244.98 844.69 258.06 851.22 268.27 852.48
  C 271.47 852.87 273.28 853.48 275.11 851.15
  Q 280.50 844.27 286.00 837.54"
/>
<path stroke="#757c7c" vector-effect="non-scaling-stroke" d="
  M 407.96 825.61
  A 7.48 7.48 0.0 0 0 400.48 818.13
  A 7.48 7.48 0.0 0 0 393.00 825.61
  A 7.48 7.48 0.0 0 0 400.48 833.09
  A 7.48 7.48 0.0 0 0 407.96 825.61"
/>
<path stroke="#798080" vector-effect="non-scaling-stroke" d="
  M 722.21 805.75
  Q 720.25 807.52 718.52 809.53
  Q 674.34 860.48 629.97 911.28
  C 629.31 912.04 628.24 912.37 627.51 911.61
  A 0.78 0.78 0.0 0 1 627.48 910.57
  L 638.03 898.21"
/>
<path stroke="#6b7272" vector-effect="non-scaling-stroke" d="
  M 791.00 819.29
  C 789.75 829.61 785.50 837.86 774.53 840.31
  C 749.85 845.84 751.50 825.09 762.75 812.54"
/>
<path stroke="#5a6867" vector-effect="non-scaling-stroke" d="
  M 784.6687 828.5054
  A 9.40 9.40 0.0 0 0 784.0425 815.2265
  L 780.7290 812.2114
  A 9.40 9.40 0.0 0 0 767.4501 812.8376
  L 759.7913 821.2546
  A 9.40 9.40 0.0 0 0 760.4175 834.5335
  L 763.7310 837.5486
  A 9.40 9.40 0.0 0 0 777.0099 836.9224
  L 784.6687 828.5054"
/>
<path stroke="#cecece" vector-effect="non-scaling-stroke" d="
  M 633.94 972.00
  L 634.00 971.62
  Q 634.06 971.19 633.64 971.16
  C 630.40 970.94 601.52 969.71 601.69 972.00"
/>
<path stroke="#6b7272" vector-effect="non-scaling-stroke" d="
  M 441.50 887.71
  Q 445.40 898.60 448.94 909.65
  C 452.30 920.16 458.36 919.42 468.35 917.93
  C 480.11 916.18 499.69 910.79 499.25 895.29"
/>
<path stroke="#6b7272" vector-effect="non-scaling-stroke" d="
  M 717.38 897.96
  A 4.71 4.71 0.0 0 0 712.67 893.25
  A 4.71 4.71 0.0 0 0 707.96 897.96
  A 4.71 4.71 0.0 0 0 712.67 902.67
  A 4.71 4.71 0.0 0 0 717.38 897.96"
/>
<path stroke="#798080" vector-effect="non-scaling-stroke" d="
  M 597.75 946.29
  C 605.89 959.05 629.42 975.88 639.66 954.79"
/>
<path stroke="#6b7272" vector-effect="non-scaling-stroke" d="
  M 639.66 954.79
  Q 641.27 951.50 644.51 942.84
  C 647.78 934.12 644.78 928.96 636.81 925.10
  C 628.58 921.11 614.99 916.09 606.24 918.28
  C 593.26 921.53 592.01 936.43 597.75 946.29"
/>
<path stroke="#2c3a3a" vector-effect="non-scaling-stroke" d="
  M 639.66 954.79
  Q 638.57 953.36 638.21 951.50"
/>
<path stroke="#5a6867" vector-effect="non-scaling-stroke" d="
  M 638.21 951.50
  C 641.34 944.82 646.98 936.35 640.86 932.14
  Q 625.76 921.74 607.23 922.44
  C 598.15 922.78 597.09 939.64 598.54 945.50"
/>
<path stroke="#2c3a3a" vector-effect="non-scaling-stroke" d="
  M 598.54 945.50
  L 597.75 946.29"
/>
<path stroke="#687675" vector-effect="non-scaling-stroke" d="
  M 638.21 951.50
  C 635.27 954.11 630.07 959.82 625.99 959.51
  Q 610.37 958.35 599.51 947.24
  Q 599.04 946.76 598.54 945.50"
/>
<path stroke="#5a6867" vector-effect="non-scaling-stroke" d="
  M 586.50 854.79
  C 587.47 851.63 592.76 838.44 591.57 836.19
  Q 586.25 826.21 575.05 825.98
  C 573.63 825.95 572.10 826.54 571.51 827.79
  Q 568.41 834.36 565.26 840.92
  C 562.77 846.12 561.07 851.68 568.52 853.28
  Q 577.41 855.19 580.00 855.96"
/>
<path stroke="#5a6867" vector-effect="non-scaling-stroke" d="
  M 481.8740 868.7931
  A 17.03 17.03 0.0 0 0 458.6885 862.2759
  L 449.9329 867.1893
  A 17.03 17.03 0.0 0 0 443.4158 890.3748
  L 453.0860 907.6069
  A 17.03 17.03 0.0 0 0 476.2715 914.1241
  L 485.0271 909.2107
  A 17.03 17.03 0.0 0 0 491.5442 886.0252
  L 481.8740 868.7931"
/>
<path stroke="#687675" vector-effect="non-scaling-stroke" d="
  M 462.54 906.68
  L 470.58 880.26
  A 0.57 0.56 85.3 0 0 469.79 879.59
  C 465.31 881.79 459.42 902.46 461.54 906.76
  A 0.54 0.54 0.0 0 0 462.54 906.68"
/>
</g>
<path fill="#1e2c2c" d="
  M 529.75 589.21
  Q 529.71 589.03 529.75 588.79
  Q 529.86 588.18 529.25 588.22
  L 528.00 588.29
  Q 521.69 585.78 515.39 583.25
  Q 492.61 574.08 474.82 557.80
  A 2.08 2.07 -44.7 0 0 472.04 557.79
  C 459.21 569.24 442.80 576.26 426.26 580.28
  C 375.78 592.55 325.40 571.44 300.14 525.89
  Q 296.20 518.78 293.03 511.37
  A 2.31 2.30 73.0 0 0 290.48 510.01
  Q 276.30 512.71 261.93 513.52
  C 189.32 517.61 127.96 473.88 107.74 404.52
  C 83.18 320.24 129.08 241.97 210.75 215.00
  C 223.46 210.80 239.28 209.96 252.63 208.95
  A 1.63 1.62 89.0 0 0 254.13 207.39
  C 256.06 156.68 308.48 133.58 352.31 147.36
  A 0.98 0.98 0.0 0 0 353.57 146.58
  C 360.32 105.96 400.48 87.85 436.82 103.91
  Q 437.29 104.12 437.78 103.94
  Q 439.12 103.43 439.96 102.20
  C 492.80 24.81 602.86 12.23 664.07 88.18
  Q 667.40 92.32 668.62 93.83
  Q 668.94 94.23 669.45 94.32
  Q 671.22 94.64 673.00 94.51
  C 711.91 91.59 740.78 108.62 757.08 143.79
  A 1.26 1.25 -31.3 0 0 758.98 144.25
  C 784.48 124.76 815.52 116.77 846.76 125.46
  C 875.69 133.51 898.82 155.09 910.78 182.20
  A 2.45 2.43 -7.5 0 0 912.65 183.62
  C 1003.49 196.99 1076.66 264.67 1076.05 360.25
  C 1075.28 480.52 959.33 564.05 844.60 527.16
  A 1.96 1.96 0.0 0 0 842.36 527.95
  C 819.84 562.64 782.01 587.07 739.96 588.03
  C 703.28 588.87 672.62 573.79 648.17 546.43
  A 1.43 1.42 43.8 0 0 646.01 546.47
  C 615.50 583.31 576.34 595.33 529.75 589.21
  Z
  M 430.94 108.62
  Q 416.81 104.82 403.31 106.07
  C 373.54 108.82 361.79 132.38 358.00 159.29
  L 345.75 153.71
  C 305.70 137.91 267.81 165.71 260.49 205.27
  C 259.97 208.11 262.31 209.67 265.01 209.92
  Q 270.59 210.43 275.40 212.80
  A 0.64 0.64 0.0 0 1 275.11 214.02
  Q 255.36 213.78 235.82 215.59
  Q 226.97 216.41 221.45 218.19
  C 123.27 249.89 73.68 357.35 137.71 446.75
  C 176.54 497.15 230.82 514.93 293.21 503.00
  Q 301.72 511.20 306.50 522.04
  C 339.39 578.91 414.13 596.25 465.65 553.14
  Q 467.23 551.82 468.22 550.58
  A 1.30 1.28 -43.6 0 0 468.27 549.04
  L 458.96 535.75
  Q 450.35 521.32 447.54 504.75
  L 448.46 504.75
  Q 456.27 527.20 472.46 544.50
  C 518.89 593.21 593.03 594.10 638.51 543.67
  Q 654.71 527.77 661.76 505.98
  A 0.76 0.75 26.2 0 1 662.91 505.59
  C 665.92 507.71 659.64 523.75 658.42 526.90
  Q 654.88 531.24 652.86 536.12
  C 651.55 539.28 652.42 540.29 654.53 542.48
  Q 668.02 556.50 681.95 564.56
  C 736.03 595.87 803.90 577.69 835.71 524.00
  Q 861.48 475.16 844.84 422.07
  Q 844.16 419.90 845.15 421.95
  Q 862.75 458.39 853.54 498.25
  L 848.22 518.12
  A 1.77 1.76 15.6 0 0 849.44 520.27
  Q 912.15 538.24 969.76 511.67
  C 1039.32 479.59 1077.49 405.66 1065.46 330.25
  C 1053.34 267.16 1014.23 221.18 953.79 199.50
  Q 915.08 186.33 873.93 189.52
  A 0.31 0.31 0.0 0 1 873.79 188.93
  L 886.41 183.56
  Q 894.36 186.23 902.11 182.67
  A 1.21 1.20 -25.5 0 0 902.69 181.04
  C 876.71 128.35 811.97 111.87 764.72 147.98
  Q 759.32 152.11 761.04 159.00
  Q 761.99 172.21 759.53 185.25
  Q 759.30 186.43 759.15 185.24
  C 757.69 174.09 757.47 162.62 753.12 152.10
  C 740.36 121.25 712.22 99.63 677.76 102.13
  C 654.74 103.80 637.35 114.24 620.67 129.82
  A 0.30 0.30 0.0 0 1 620.22 129.44
  Q 634.61 106.98 659.89 98.43
  A 1.99 1.99 0.0 0 0 660.78 95.27
  C 601.38 24.01 495.26 27.08 445.22 107.86
  A 1.58 1.58 0.0 0 0 445.59 109.94
  Q 459.15 120.49 463.98 137.04
  A 0.28 0.28 0.0 0 1 463.47 137.26
  Q 460.68 132.88 457.51 128.53
  Q 446.99 114.13 430.94 108.62
  Z"
/>
<path fill="#d5e8e6" d="
  M 761.04 159.00
  C 778.10 154.35 798.18 147.54 815.25 147.01
  C 843.81 146.13 869.91 161.12 886.41 183.56
  L 873.79 188.93
  A 0.31 0.31 0.0 0 0 873.93 189.52
  Q 915.08 186.33 953.79 199.50
  C 953.13 202.13 951.70 211.52 954.54 213.22
  C 981.58 229.37 1002.41 254.57 1009.30 285.67
  C 1020.80 337.65 995.62 391.44 946.19 413.03
  C 909.41 429.09 867.58 423.84 834.38 402.37
  A 2.13 2.12 -62.1 0 0 831.27 403.33
  Q 825.90 415.86 827.15 429.47
  Q 827.19 429.99 826.89 430.42
  C 809.70 454.21 789.01 473.66 759.79 481.07
  C 725.27 489.82 688.11 484.35 662.53 457.98
  C 658.23 453.56 652.43 453.94 649.03 459.11
  C 633.53 482.61 612.70 502.14 585.24 509.77
  C 555.31 518.09 517.17 515.38 492.16 495.34
  Q 476.43 482.73 463.06 466.90
  A 1.48 1.47 39.5 0 0 460.64 467.13
  C 456.13 475.29 449.42 487.73 441.71 492.19
  C 407.43 512.00 361.35 513.00 331.67 484.11
  C 327.96 480.50 324.60 475.89 321.23 471.60
  C 314.84 463.46 306.34 456.76 300.51 448.27
  Q 298.50 445.35 296.58 442.33
  A 2.02 2.01 71.8 0 0 294.77 441.41
  C 258.91 443.48 227.19 433.76 201.59 409.30
  C 175.46 384.33 165.64 348.18 172.40 313.20
  C 182.82 259.33 230.03 226.96 282.74 224.74
  C 286.38 224.58 288.16 222.24 288.07 218.80
  C 288.00 216.07 286.23 214.62 286.40 211.59
  C 288.37 174.98 320.67 168.72 345.75 153.71
  L 358.00 159.29
  C 363.59 163.86 367.48 160.69 371.12 155.71
  C 374.26 151.43 377.38 146.81 380.63 143.04
  Q 401.08 119.32 430.94 108.62
  Q 446.99 114.13 457.51 128.53
  Q 460.68 132.88 463.47 137.26
  A 0.28 0.28 0.0 0 0 463.98 137.04
  Q 459.15 120.49 445.59 109.94
  A 1.58 1.58 0.0 0 1 445.22 107.86
  C 495.26 27.08 601.38 24.01 660.78 95.27
  A 1.99 1.99 0.0 0 1 659.89 98.43
  Q 634.61 106.98 620.22 129.44
  A 0.30 0.30 0.0 0 0 620.67 129.82
  C 637.35 114.24 654.74 103.80 677.76 102.13
  C 712.22 99.63 740.36 121.25 753.12 152.10
  C 757.47 162.62 757.69 174.09 759.15 185.24
  Q 759.30 186.43 759.53 185.25
  Q 761.99 172.21 761.04 159.00
  Z
  M 495.0596 306.6416
  A 1.63 1.63 0.0 0 0 494.3626 304.4444
  L 453.0081 283.0083
  A 1.63 1.63 0.0 0 0 450.8109 283.7053
  L 450.7004 283.9184
  A 1.63 1.63 0.0 0 0 451.3974 286.1156
  L 492.7519 307.5517
  A 1.63 1.63 0.0 0 0 494.9491 306.8547
  L 495.0596 306.6416
  Z
  M 676.94 284.03
  C 662.79 288.59 647.97 296.85 636.15 304.88
  Q 635.79 305.13 635.60 305.52
  L 635.33 306.08
  A 0.69 0.69 0.0 0 0 636.19 307.02
  Q 657.96 298.97 677.13 285.92
  A 2.18 0.32 -71.3 0 0 677.92 284.37
  C 678.03 284.06 677.23 283.93 676.94 284.03
  Z
  M 472.2471 347.6379
  A 16.73 15.89 41.1 0 0 470.0857 324.6659
  A 16.73 15.89 41.1 0 0 447.0329 325.6421
  A 16.73 15.89 41.1 0 0 449.1943 348.6141
  A 16.73 15.89 41.1 0 0 472.2471 347.6379
  Z
  M 685.13 336.52
  A 16.30 16.30 0.0 0 0 668.83 320.22
  A 16.30 16.30 0.0 0 0 652.53 336.52
  A 16.30 16.30 0.0 0 0 668.83 352.82
  A 16.30 16.30 0.0 0 0 685.13 336.52
  Z
  M 435.6298 370.2520
  A 26.35 21.39 0.2 0 0 409.3547 348.7701
  A 26.35 21.39 0.2 0 0 382.9302 370.0680
  A 26.35 21.39 0.2 0 0 409.2053 391.5499
  A 26.35 21.39 0.2 0 0 435.6298 370.2520
  Z
  M 746.8100 370.1247
  A 25.96 21.28 -0.1 0 0 720.8129 348.8900
  A 25.96 21.28 -0.1 0 0 694.8900 370.2153
  A 25.96 21.28 -0.1 0 0 720.8871 391.4500
  A 25.96 21.28 -0.1 0 0 746.8100 370.1247
  Z
  M 596.40 389.11
  C 575.60 398.13 554.29 396.93 533.24 389.49
  A 1.39 1.39 0.0 0 0 531.39 390.75
  C 530.70 407.78 539.95 424.01 556.43 429.06
  C 568.63 432.79 581.59 428.69 589.65 418.84
  C 595.95 411.14 598.44 400.85 598.88 391.00
  Q 598.98 388.89 596.98 388.97
  A 1.55 1.44 -56.5 0 0 596.40 389.11
  Z"
/>
<path fill="#b8d1cf" d="
  M 430.94 108.62
  Q 401.08 119.32 380.63 143.04
  C 377.38 146.81 374.26 151.43 371.12 155.71
  C 367.48 160.69 363.59 163.86 358.00 159.29
  C 361.79 132.38 373.54 108.82 403.31 106.07
  Q 416.81 104.82 430.94 108.62
  Z"
/>
<path fill="#b8d1cf" d="
  M 886.41 183.56
  C 869.91 161.12 843.81 146.13 815.25 147.01
  C 798.18 147.54 778.10 154.35 761.04 159.00
  Q 759.32 152.11 764.72 147.98
  C 811.97 111.87 876.71 128.35 902.69 181.04
  A 1.21 1.20 -25.5 0 1 902.11 182.67
  Q 894.36 186.23 886.41 183.56
  Z"
/>
<path fill="#b8d1cf" d="
  M 345.75 153.71
  C 320.67 168.72 288.37 174.98 286.40 211.59
  C 286.23 214.62 288.00 216.07 288.07 218.80
  C 288.16 222.24 286.38 224.58 282.74 224.74
  C 230.03 226.96 182.82 259.33 172.40 313.20
  C 165.64 348.18 175.46 384.33 201.59 409.30
  C 227.19 433.76 258.91 443.48 294.77 441.41
  A 2.02 2.01 71.8 0 1 296.58 442.33
  Q 298.50 445.35 300.51 448.27
  C 306.34 456.76 314.84 463.46 321.23 471.60
  C 324.60 475.89 327.96 480.50 331.67 484.11
  C 361.35 513.00 407.43 512.00 441.71 492.19
  C 449.42 487.73 456.13 475.29 460.64 467.13
  A 1.48 1.47 39.5 0 1 463.06 466.90
  Q 476.43 482.73 492.16 495.34
  C 517.17 515.38 555.31 518.09 585.24 509.77
  C 612.70 502.14 633.53 482.61 649.03 459.11
  C 652.43 453.94 658.23 453.56 662.53 457.98
  C 688.11 484.35 725.27 489.82 759.79 481.07
  C 789.01 473.66 809.70 454.21 826.89 430.42
  Q 827.19 429.99 827.15 429.47
  Q 825.90 415.86 831.27 403.33
  A 2.13 2.12 -62.1 0 1 834.38 402.37
  C 867.58 423.84 909.41 429.09 946.19 413.03
  C 995.62 391.44 1020.80 337.65 1009.30 285.67
  C 1002.41 254.57 981.58 229.37 954.54 213.22
  C 951.70 211.52 953.13 202.13 953.79 199.50
  C 1014.23 221.18 1053.34 267.16 1065.46 330.25
  C 1062.83 330.62 1058.28 328.40 1058.41 333.49
  Q 1059.90 393.55 1025.36 442.06
  C 983.66 500.63 922.21 517.68 853.54 498.25
  Q 862.75 458.39 845.15 421.95
  Q 844.16 419.90 844.84 422.07
  Q 861.48 475.16 835.71 524.00
  Q 834.63 522.95 833.14 522.71
  Q 832.62 522.62 832.22 522.96
  C 810.61 540.69 788.53 553.23 761.14 558.67
  C 722.06 566.43 687.58 552.13 658.42 526.90
  C 659.64 523.75 665.92 507.71 662.91 505.59
  A 0.76 0.75 26.2 0 0 661.76 505.98
  Q 654.71 527.77 638.51 543.67
  Q 631.38 542.91 626.28 546.53
  Q 604.84 561.77 580.50 565.73
  C 546.67 571.23 509.57 565.07 481.70 544.25
  C 478.28 541.70 475.31 540.79 472.46 544.50
  Q 456.27 527.20 448.46 504.75
  C 451.30 502.17 451.52 499.67 455.76 498.98
  A 2.11 2.09 -19.4 0 1 457.93 500.01
  Q 462.20 507.47 466.41 515.04
  C 470.36 522.14 480.36 522.16 486.83 518.94
  C 489.54 517.60 488.88 514.83 486.46 513.60
  Q 470.37 505.37 460.17 490.39
  C 456.03 484.31 449.90 493.25 448.02 497.20
  Q 446.25 500.92 447.54 504.75
  Q 450.35 521.32 458.96 535.75
  C 415.48 564.61 360.01 570.09 320.84 530.81
  C 317.14 527.10 312.74 518.54 306.50 522.04
  Q 301.72 511.20 293.21 503.00
  Q 302.38 493.06 311.75 483.32
  C 313.08 481.95 316.58 477.28 313.56 476.02
  Q 313.04 475.81 312.64 476.20
  C 309.90 478.81 298.59 490.88 295.75 491.26
  Q 265.92 495.31 236.01 492.19
  C 227.68 491.33 220.11 484.17 213.50 478.50
  C 211.58 476.86 207.59 477.14 209.76 480.16
  Q 212.12 483.44 214.55 486.94
  A 1.03 1.03 0.0 0 1 213.55 488.54
  Q 213.41 488.52 213.25 488.48
  Q 176.95 479.68 151.07 452.93
  Q 147.97 449.73 144.82 446.43
  C 142.28 443.78 139.85 443.69 137.71 446.75
  C 73.68 357.35 123.27 249.89 221.45 218.19
  Q 226.97 216.41 235.82 215.59
  Q 255.36 213.78 275.11 214.02
  A 0.64 0.64 0.0 0 0 275.40 212.80
  Q 270.59 210.43 265.01 209.92
  C 262.31 209.67 259.97 208.11 260.49 205.27
  C 267.81 165.71 305.70 137.91 345.75 153.71
  Z"
/>
<rect fill="#3a4848" x="-24.92" y="-1.75" transform="translate(472.88,295.28) rotate(27.4)" width="49.84" height="3.50" rx="1.63"/>
<path fill="#3a4848" d="
  M 636.15 304.88
  C 647.97 296.85 662.79 288.59 676.94 284.03
  C 677.23 283.93 678.03 284.06 677.92 284.37
  A 2.18 0.32 -71.3 0 1 677.13 285.92
  Q 657.96 298.97 636.19 307.02
  A 0.69 0.69 0.0 0 1 635.33 306.08
  L 635.60 305.52
  Q 635.79 305.13 636.15 304.88
  Z"
/>
<path fill="#3a4848" d="
  M 472.2471 347.6379
  A 16.73 15.89 41.1 0 1 449.1943 348.6141
  A 16.73 15.89 41.1 0 1 447.0329 325.6421
  A 16.73 15.89 41.1 0 1 470.0857 324.6659
  A 16.73 15.89 41.1 0 1 472.2471 347.6379
  Z
  M 450.0009 344.4829
  A 3.54 2.21 117.4 0 0 453.5921 342.3570
  A 3.54 2.21 117.4 0 0 453.2591 338.1971
  A 3.54 2.21 117.4 0 0 449.6679 340.3230
  A 3.54 2.21 117.4 0 0 450.0009 344.4829
  Z"
/>
<circle fill="#3a4848" cx="668.83" cy="336.52" r="16.30"/>
<path fill="#d5e8e6" d="
  M 1065.46 330.25
  C 1077.49 405.66 1039.32 479.59 969.76 511.67
  Q 912.15 538.24 849.44 520.27
  A 1.77 1.76 15.6 0 1 848.22 518.12
  L 853.54 498.25
  C 922.21 517.68 983.66 500.63 1025.36 442.06
  Q 1059.90 393.55 1058.41 333.49
  C 1058.28 328.40 1062.83 330.62 1065.46 330.25
  Z"
/>
<ellipse fill="#cbcccc" cx="0.00" cy="0.00" transform="translate(451.63,341.34) rotate(117.4)" rx="3.54" ry="2.21"/>
<path fill="#7e5c54" d="
  M 435.6298 370.2520
  A 26.35 21.39 0.2 0 1 409.2053 391.5499
  A 26.35 21.39 0.2 0 1 382.9302 370.0680
  A 26.35 21.39 0.2 0 1 409.3547 348.7701
  A 26.35 21.39 0.2 0 1 435.6298 370.2520
  Z
  M 428.7892 370.0944
  A 19.99 14.69 0.5 0 0 408.9282 355.2306
  A 19.99 14.69 0.5 0 0 388.8108 369.7456
  A 19.99 14.69 0.5 0 0 408.6718 384.6094
  A 19.99 14.69 0.5 0 0 428.7892 370.0944
  Z"
/>
<path fill="#7e5c54" d="
  M 746.8100 370.1247
  A 25.96 21.28 -0.1 0 1 720.8871 391.4500
  A 25.96 21.28 -0.1 0 1 694.8900 370.2153
  A 25.96 21.28 -0.1 0 1 720.8129 348.8900
  A 25.96 21.28 -0.1 0 1 746.8100 370.1247
  Z
  M 742.4779 370.0334
  A 21.24 16.29 -0.8 0 0 721.0126 354.0416
  A 21.24 16.29 -0.8 0 0 700.0021 370.6266
  A 21.24 16.29 -0.8 0 0 721.4674 386.6184
  A 21.24 16.29 -0.8 0 0 742.4779 370.0334
  Z"
/>
<ellipse fill="#dd6a54" cx="0.00" cy="0.00" transform="translate(721.24,370.33) rotate(-0.8)" rx="21.24" ry="16.29"/>
<ellipse fill="#dd6a54" cx="0.00" cy="0.00" transform="translate(408.80,369.92) rotate(0.5)" rx="19.99" ry="14.69"/>
<path fill="#3a4848" d="
  M 533.24 389.49
  C 554.29 396.93 575.60 398.13 596.40 389.11
  A 1.55 1.44 -56.5 0 1 596.98 388.97
  Q 598.98 388.89 598.88 391.00
  C 598.44 400.85 595.95 411.14 589.65 418.84
  C 581.59 428.69 568.63 432.79 556.43 429.06
  C 539.95 424.01 530.70 407.78 531.39 390.75
  A 1.39 1.39 0.0 0 1 533.24 389.49
  Z
  M 581.10 416.85
  C 572.15 409.96 560.37 409.70 550.62 415.12
  A 2.06 2.05 60.5 0 0 549.84 417.94
  C 550.95 419.86 552.88 421.06 555.09 422.55
  C 563.80 428.40 574.81 425.91 581.21 417.71
  Q 581.59 417.23 581.10 416.85
  Z"
/>
<path fill="#cbcccc" d="
  M 550.62 415.12
  C 560.37 409.70 572.15 409.96 581.10 416.85
  Q 581.59 417.23 581.21 417.71
  C 574.81 425.91 563.80 428.40 555.09 422.55
  C 552.88 421.06 550.95 419.86 549.84 417.94
  A 2.06 2.05 60.5 0 1 550.62 415.12
  Z"
/>
<path fill="#d5e8e6" d="
  M 293.21 503.00
  C 230.82 514.93 176.54 497.15 137.71 446.75
  C 139.85 443.69 142.28 443.78 144.82 446.43
  Q 147.97 449.73 151.07 452.93
  Q 176.95 479.68 213.25 488.48
  Q 213.41 488.52 213.55 488.54
  A 1.03 1.03 0.0 0 0 214.55 486.94
  Q 212.12 483.44 209.76 480.16
  C 207.59 477.14 211.58 476.86 213.50 478.50
  C 220.11 484.17 227.68 491.33 236.01 492.19
  Q 265.92 495.31 295.75 491.26
  C 298.59 490.88 309.90 478.81 312.64 476.20
  Q 313.04 475.81 313.56 476.02
  C 316.58 477.28 313.08 481.95 311.75 483.32
  Q 302.38 493.06 293.21 503.00
  Z"
/>
<path fill="#95a3a2" d="
  M 448.46 504.75
  L 447.54 504.75
  Q 446.25 500.92 448.02 497.20
  C 449.90 493.25 456.03 484.31 460.17 490.39
  Q 470.37 505.37 486.46 513.60
  C 488.88 514.83 489.54 517.60 486.83 518.94
  C 480.36 522.16 470.36 522.14 466.41 515.04
  Q 462.20 507.47 457.93 500.01
  A 2.11 2.09 -19.4 0 0 455.76 498.98
  C 451.52 499.67 451.30 502.17 448.46 504.75
  Z"
/>
<path fill="#d5e8e6" d="
  M 458.96 535.75
  L 468.27 549.04
  A 1.30 1.28 -43.6 0 1 468.22 550.58
  Q 467.23 551.82 465.65 553.14
  C 414.13 596.25 339.39 578.91 306.50 522.04
  C 312.74 518.54 317.14 527.10 320.84 530.81
  C 360.01 570.09 415.48 564.61 458.96 535.75
  Z"
/>
<path fill="#d5e8e6" d="
  M 835.71 524.00
  C 803.90 577.69 736.03 595.87 681.95 564.56
  Q 668.02 556.50 654.53 542.48
  C 652.42 540.29 651.55 539.28 652.86 536.12
  Q 654.88 531.24 658.42 526.90
  C 687.58 552.13 722.06 566.43 761.14 558.67
  C 788.53 553.23 810.61 540.69 832.22 522.96
  Q 832.62 522.62 833.14 522.71
  Q 834.63 522.95 835.71 524.00
  Z"
/>
<path fill="#d5e8e6" d="
  M 638.51 543.67
  C 593.03 594.10 518.89 593.21 472.46 544.50
  C 475.31 540.79 478.28 541.70 481.70 544.25
  C 509.57 565.07 546.67 571.23 580.50 565.73
  Q 604.84 561.77 626.28 546.53
  Q 631.38 542.91 638.51 543.67
  Z"
/>
<path fill="#3a4848" d="
  M 247.24 580.30
  A 7.49 7.49 0.0 0 1 254.76 572.83
  L 260.03 572.85
  A 22.84 14.83 0.2 0 1 282.81 587.76
  L 282.81 589.72
  A 22.84 14.83 0.2 0 1 259.91 604.47
  L 254.64 604.45
  A 7.49 7.49 0.0 0 1 247.18 596.94
  L 247.24 580.30
  Z
  M 249.19 581.61
  L 249.19 594.71
  A 5.81 5.81 0.0 0 0 255.00 600.52
  L 261.54 600.52
  A 17.49 11.09 0.0 0 0 279.03 589.43
  L 279.03 586.89
  A 17.49 11.09 0.0 0 0 261.54 575.80
  L 255.00 575.80
  A 5.81 5.81 0.0 0 0 249.19 581.61
  Z"
/>
<path fill="#d5e8e6" d="
  M 249.19 581.61
  A 5.81 5.81 0.0 0 1 255.00 575.80
  L 261.54 575.80
  A 17.49 11.09 0.0 0 1 279.03 586.89
  L 279.03 589.43
  A 17.49 11.09 -0.0 0 1 261.54 600.52
  L 255.00 600.52
  A 5.81 5.81 0.0 0 1 249.19 594.71
  L 249.19 581.61
  Z"
/>
<rect fill="#274442" fill-opacity="0.635" x="-1.04" y="-43.85" transform="translate(323.24,611.89) rotate(40.4)" width="2.08" height="87.70" rx="1.03"/>
<rect fill="#b8b8b8" x="-1.00" y="-41.07" transform="translate(673.53,617.95) rotate(40.6)" width="2.00" height="82.14" rx="0.99"/>
<circle fill="#1e2c2c" cx="853.71" cy="594.18" r="7.49"/>
<path fill="#b8b8b8" d="
  M 528.00 588.29
  L 529.25 588.22
  Q 529.86 588.18 529.75 588.79
  Q 529.71 589.03 529.75 589.21
  C 528.42 590.09 528.13 591.48 527.29 592.48
  Q 499.98 624.82 472.84 657.31
  Q 469.70 661.07 466.25 664.54
  L 465.21 664.50
  Q 467.07 661.99 471.84 656.33
  Q 509.86 611.17 527.72 589.47
  Q 527.98 589.16 528.00 588.29
  Z"
/>
<circle fill="#1e2c2c" cx="594.85" cy="631.81" r="5.07"/>
<circle fill="#1e2c2c" cx="223.59" cy="635.11" r="5.08"/>
<path fill="#274442" fill-opacity="0.635" d="
  M 727.79 653.25
  Q 726.85 652.25 725.54 653.00
  L 743.68 631.12
  Q 744.21 630.48 744.75 631.11
  L 745.23 631.66
  A 0.56 0.55 -46.4 0 1 745.24 632.36
  Q 736.71 643.40 727.79 653.25
  Z"
/>
<circle fill="#3a4848" cx="916.83" cy="640.44" r="4.87"/>
<path fill="#1e2c2c" d="
  M 809.73 671.70
  C 800.80 682.26 780.39 681.64 779.85 664.92
  Q 781.56 649.13 797.21 643.73
  C 803.41 641.59 812.69 640.87 812.82 649.91
  Q 812.82 650.42 812.56 650.86
  Q 806.79 660.53 809.73 671.70
  Z
  M 807.53 672.74
  L 807.93 649.48
  A 2.35 2.35 0.0 0 0 805.62 647.09
  L 796.98 646.94
  A 12.77 11.96 1.0 0 0 784.01 658.67
  L 783.94 662.71
  A 12.77 11.96 1.0 0 0 796.50 674.89
  L 805.13 675.04
  A 2.35 2.35 0.0 0 0 807.53 672.74
  Z"
/>
<path fill="#b8d1cf" d="
  M 807.53 672.74
  A 2.35 2.35 0.0 0 1 805.13 675.04
  L 796.50 674.89
  A 12.77 11.96 1.0 0 1 783.94 662.71
  L 784.01 658.67
  A 12.77 11.96 1.0 0 1 796.98 646.94
  L 805.62 647.09
  A 2.35 2.35 0.0 0 1 807.93 649.48
  L 807.53 672.74
  Z"
/>
<path fill="#e3e4e4" d="
  M 461.00 667.24
  L 461.22 667.67
  Q 461.41 668.02 461.14 668.32
  C 457.65 672.28 404.01 732.86 407.08 735.05
  Q 407.50 735.35 407.83 734.95
  Q 434.38 703.44 460.97 671.97
  Q 462.14 670.59 463.21 670.50
  L 467.49 670.50
  Q 467.98 670.50 468.43 670.70
  Q 481.05 676.36 493.37 682.61
  C 494.56 683.22 495.95 683.01 497.23 682.83
  C 500.19 697.10 517.27 687.95 509.11 675.87
  Q 508.87 675.52 509.49 674.86
  Q 515.79 673.20 522.04 675.40
  C 530.82 678.49 538.38 683.96 548.01 683.25
  C 554.30 682.79 559.18 675.94 563.53 672.24
  C 570.93 665.96 573.27 674.59 578.71 677.25
  Q 575.31 687.13 582.50 694.54
  L 583.25 696.29
  Q 585.34 711.75 598.68 719.70
  Q 599.12 719.96 599.64 719.94
  C 613.72 719.49 623.72 707.75 632.00 699.04
  C 632.41 701.80 630.25 704.58 631.24 706.86
  Q 631.45 707.36 631.97 707.55
  Q 639.16 710.20 642.54 717.14
  Q 642.79 717.65 643.35 717.72
  C 651.21 718.66 657.12 718.94 665.20 723.21
  C 646.36 746.09 627.18 768.67 607.13 790.51
  Q 594.04 804.77 583.77 821.30
  A 0.48 0.47 38.6 0 0 583.84 821.89
  Q 584.17 822.21 584.53 821.79
  Q 655.66 738.32 726.96 655.00
  C 728.48 664.12 734.21 668.73 743.28 669.23
  Q 749.04 669.55 752.50 668.76
  Q 766.14 665.66 779.85 664.92
  C 780.39 681.64 800.80 682.26 809.73 671.70
  C 811.61 672.66 813.71 671.15 815.52 672.79
  Q 815.90 673.14 816.39 673.02
  Q 818.13 672.61 819.44 673.72
  Q 819.84 674.05 820.36 674.01
  C 822.45 673.84 824.17 674.68 826.03 674.69
  C 876.52 675.18 927.01 676.42 977.56 675.26
  C 1010.33 674.50 1043.21 675.02 1076.00 674.71
  Q 1082.27 674.65 1088.52 674.06
  Q 1089.05 674.01 1089.32 674.47
  C 1090.09 675.74 1089.97 678.87 1091.24 679.12
  Q 1091.75 679.23 1091.75 679.74
  L 1091.79 690.00
  L 1092.00 696.56
  L 1092.00 822.06
  Q 966.36 822.44 840.72 822.76
  Q 834.56 822.78 829.39 821.71
  C 817.89 819.34 801.36 811.35 791.00 819.29
  L 774.32 805.29
  A 1.44 1.43 -43.2 0 0 772.55 805.24
  L 762.75 812.54
  C 749.33 804.93 731.74 822.06 722.21 805.75
  Q 725.63 802.53 726.15 798.59
  A 0.61 0.60 -20.9 0 0 725.09 798.12
  L 692.54 835.54
  Q 684.60 835.07 675.76 837.29
  C 663.74 840.32 651.40 844.40 638.99 845.15
  C 627.69 845.84 620.03 842.09 609.27 836.73
  Q 602.15 833.19 594.29 832.25
  C 589.43 823.67 580.28 819.38 571.07 824.69
  A 1.86 1.81 84.5 0 0 570.24 825.72
  Q 567.50 834.55 561.21 841.25
  Q 544.49 838.08 527.74 841.23
  C 524.39 841.86 517.92 843.92 513.97 843.47
  C 509.06 842.91 505.11 839.06 501.22 835.45
  Q 500.77 835.04 500.16 835.10
  L 498.03 835.30
  Q 496.46 835.45 497.66 834.43
  L 499.79 832.63
  Q 500.19 832.29 500.32 831.78
  Q 500.69 830.24 500.21 828.75
  Q 515.55 810.13 531.09 791.68
  C 543.64 776.76 557.62 762.70 568.60 746.60
  Q 569.02 745.99 568.39 745.61
  L 567.91 745.32
  A 1.11 1.11 0.0 0 0 566.48 745.56
  L 523.65 797.13
  Q 503.41 791.76 483.29 796.25
  C 481.33 788.39 471.46 793.47 475.04 800.75
  C 453.50 800.97 434.89 799.78 410.05 799.72
  C 395.40 799.69 381.48 796.79 366.85 796.24
  C 364.80 796.16 363.51 796.99 361.76 797.80
  C 356.20 800.39 350.72 800.12 345.49 796.73
  Q 345.06 796.45 344.54 796.51
  C 325.21 798.83 303.82 799.89 290.42 784.58
  Q 288.99 782.94 290.70 780.96
  Q 317.68 749.71 384.42 670.88
  Q 391.95 660.70 400.33 651.24
  Q 400.59 650.95 400.89 651.20
  Q 402.96 652.94 405.24 651.25
  Q 405.62 650.97 405.94 651.31
  C 413.72 659.31 417.22 668.90 430.44 666.23
  Q 437.17 664.87 443.69 662.64
  C 451.17 660.08 455.07 664.03 461.00 667.24
  Z
  M 808.84 715.63
  A 7.61 7.61 0.0 0 0 801.23 708.02
  A 7.61 7.61 0.0 0 0 793.62 715.63
  A 7.61 7.61 0.0 0 0 801.23 723.24
  A 7.61 7.61 0.0 0 0 808.84 715.63
  Z
  M 382.50 763.54
  L 383.25 764.29
  C 385.85 772.86 399.70 770.80 405.91 768.37
  C 413.06 765.57 412.24 748.07 408.19 743.39
  C 403.61 738.10 397.34 743.01 391.44 742.70
  Q 384.93 742.36 378.41 742.29
  C 373.11 742.24 370.26 746.48 373.53 751.07
  Q 377.99 757.32 382.50 763.54
  Z
  M 718.82 756.27
  A 5.02 5.02 0.0 0 0 713.80 751.25
  A 5.02 5.02 0.0 0 0 708.78 756.27
  A 5.02 5.02 0.0 0 0 713.80 761.29
  A 5.02 5.02 0.0 0 0 718.82 756.27
  Z"
/>
<path fill="#95a3a2" d="
  M 727.79 653.25
  L 726.96 655.00
  Q 655.66 738.32 584.53 821.79
  Q 584.17 822.21 583.84 821.89
  A 0.48 0.47 38.6 0 1 583.77 821.30
  Q 594.04 804.77 607.13 790.51
  C 627.18 768.67 646.36 746.09 665.20 723.21
  L 715.29 665.25
  Q 717.60 664.81 717.46 662.50
  L 725.54 653.00
  Q 726.85 652.25 727.79 653.25
  Z"
/>
<path fill="#1e2c2c" d="
  M 632.00 699.04
  C 623.72 707.75 613.72 719.49 599.64 719.94
  Q 599.12 719.96 598.68 719.70
  Q 585.34 711.75 583.25 696.29
  C 585.77 702.05 596.70 719.45 604.74 716.24
  Q 616.24 711.65 627.60 701.86
  C 643.94 687.78 636.72 674.43 622.24 664.24
  Q 619.58 662.36 615.79 662.81
  Q 594.83 665.28 581.91 681.14
  C 579.06 684.63 581.35 691.04 582.50 694.54
  Q 575.31 687.13 578.71 677.25
  Q 597.54 663.49 618.25 658.99
  C 624.60 657.61 638.37 672.89 641.73 677.77
  C 645.03 682.56 635.44 695.75 632.00 699.04
  Z"
/>
<path fill="#1e2c2c" d="
  M 291.08 673.90
  C 293.43 682.53 297.07 704.95 289.33 710.32
  Q 287.34 711.70 282.69 712.54
  C 273.29 714.23 262.42 717.31 253.32 716.14
  C 234.07 713.65 225.23 685.87 245.00 675.79
  Q 245.02 675.90 245.04 676.00
  C 234.58 684.01 234.62 697.80 243.55 706.95
  C 256.42 720.13 273.84 712.26 288.70 705.65
  C 290.29 704.94 291.08 704.00 291.35 702.34
  Q 293.68 688.24 287.85 675.68
  C 284.31 668.07 281.02 663.12 271.54 666.53
  Q 259.14 670.99 246.75 675.21
  L 245.75 674.04
  L 246.24 674.00
  Q 246.68 673.95 247.05 673.71
  C 259.53 665.46 283.24 651.35 291.08 673.90
  Z"
/>
<path fill="#3a4848" d="
  M 717.46 662.50
  Q 717.60 664.81 715.29 665.25
  L 717.46 662.50
  Z"
/>
<path fill="#b8d1cf" d="
  M 583.25 696.29
  L 582.50 694.54
  C 581.35 691.04 579.06 684.63 581.91 681.14
  Q 594.83 665.28 615.79 662.81
  Q 619.58 662.36 622.24 664.24
  C 636.72 674.43 643.94 687.78 627.60 701.86
  Q 616.24 711.65 604.74 716.24
  C 596.70 719.45 585.77 702.05 583.25 696.29
  Z
  M 615.36 686.11
  C 607.81 683.31 598.93 681.49 591.06 682.53
  Q 590.46 682.61 590.25 683.18
  Q 589.57 684.98 590.52 686.53
  Q 590.82 687.03 591.40 687.02
  L 615.22 686.94
  A 0.43 0.43 0.0 0 0 615.36 686.11
  Z"
/>
<path fill="#e3e4e4" d="
  M 245.25 674.04
  L 245.61 674.49
  Q 246.05 675.02 245.49 675.43
  L 245.00 675.79
  C 225.23 685.87 234.07 713.65 253.32 716.14
  C 262.42 717.31 273.29 714.23 282.69 712.54
  Q 287.34 711.70 289.33 710.32
  C 297.07 704.95 293.43 682.53 291.08 673.90
  Q 308.88 672.48 326.67 672.31
  Q 330.47 672.27 336.82 672.58
  C 348.87 673.16 353.20 673.85 362.42 665.19
  Q 362.80 664.83 363.31 664.93
  C 367.95 665.77 372.53 665.65 375.56 670.20
  Q 375.86 670.66 376.42 670.71
  L 381.51 671.13
  Q 380.78 672.93 378.77 675.28
  Q 348.72 710.47 318.66 745.66
  Q 317.80 746.67 316.82 747.11
  Q 316.32 747.35 315.80 747.15
  L 308.58 744.44
  Q 308.02 744.22 307.46 744.45
  Q 292.16 750.51 282.75 751.72
  C 272.35 753.04 259.66 749.85 248.75 759.04
  L 247.75 758.96
  L 245.71 756.87
  Q 245.38 756.52 244.91 756.41
  C 230.72 753.03 221.48 757.46 207.20 759.97
  Q 202.21 760.85 199.50 760.80
  Q 152.66 759.85 105.81 758.90
  C 69.02 758.15 38.02 759.13 0.00 761.14
  L 0.00 683.42
  Q 11.07 682.91 51.19 681.91
  Q 110.27 680.44 135.25 681.01
  Q 175.82 681.94 191.00 682.05
  Q 199.12 682.12 208.41 680.24
  C 212.22 679.47 213.67 676.71 216.27 673.76
  Q 221.75 667.56 232.50 663.46
  Q 232.95 663.29 233.38 663.50
  C 237.05 665.24 240.72 674.27 245.25 674.04
  Z"
/>
<path fill="#95a3a2" d="
  M 465.21 664.50
  L 466.25 664.54
  Q 465.40 666.18 463.94 667.27
  Q 463.53 667.57 463.48 668.07
  L 463.21 670.50
  Q 462.14 670.59 460.97 671.97
  Q 434.38 703.44 407.83 734.95
  Q 407.50 735.35 407.08 735.05
  C 404.01 732.86 457.65 672.28 461.14 668.32
  Q 461.41 668.02 461.22 667.67
  L 461.00 667.24
  Q 463.66 666.70 465.21 664.50
  Z"
/>
<path fill="#b8d1cf" d="
  M 245.04 676.00
  L 246.75 675.21
  Q 259.14 670.99 271.54 666.53
  C 281.02 663.12 284.31 668.07 287.85 675.68
  Q 293.68 688.24 291.35 702.34
  C 291.08 704.00 290.29 704.94 288.70 705.65
  C 273.84 712.26 256.42 720.13 243.55 706.95
  C 234.62 697.80 234.58 684.01 245.04 676.00
  Z
  M 279.58 698.34
  Q 268.12 692.38 256.31 688.58
  A 0.40 0.40 0.0 0 0 255.98 689.31
  Q 268.46 696.50 282.15 701.02
  A 0.42 0.41 -14.7 0 0 282.56 700.32
  Q 281.43 699.30 279.58 698.34
  Z"
/>
<path fill="#cbcccc" d="
  M 384.42 670.88
  Q 317.68 749.71 290.70 780.96
  Q 288.99 782.94 290.42 784.58
  C 303.82 799.89 325.21 798.83 344.54 796.51
  Q 345.06 796.45 345.49 796.73
  C 350.72 800.12 356.20 800.39 361.76 797.80
  C 363.51 796.99 364.80 796.16 366.85 796.24
  C 381.48 796.79 395.40 799.69 410.05 799.72
  C 434.89 799.78 453.50 800.97 475.04 800.75
  C 479.56 804.09 483.03 801.15 483.29 796.25
  Q 503.41 791.76 523.65 797.13
  L 485.36 840.31
  Q 484.89 840.84 485.50 841.21
  L 486.62 841.87
  Q 487.04 842.12 487.38 841.78
  L 500.21 828.75
  Q 500.69 830.24 500.32 831.78
  Q 500.19 832.29 499.79 832.63
  L 497.66 834.43
  Q 496.46 835.45 498.03 835.30
  L 500.16 835.10
  Q 500.77 835.04 501.22 835.45
  C 505.11 839.06 509.06 842.91 513.97 843.47
  C 517.92 843.92 524.39 841.86 527.74 841.23
  Q 544.49 838.08 561.21 841.25
  C 554.91 857.85 568.56 859.24 580.00 855.96
  L 586.50 854.79
  Q 597.49 846.17 594.29 832.25
  Q 602.15 833.19 609.27 836.73
  C 620.03 842.09 627.69 845.84 638.99 845.15
  C 651.40 844.40 663.74 840.32 675.76 837.29
  Q 684.60 835.07 692.54 835.54
  Q 666.95 868.51 638.03 898.21
  Q 600.10 891.33 564.81 893.60
  C 557.86 894.04 549.97 897.11 543.58 897.66
  Q 538.01 898.15 531.69 897.85
  Q 513.12 896.97 499.25 895.29
  Q 490.21 869.56 467.42 854.95
  C 462.93 852.06 448.48 863.00 445.57 866.06
  Q 437.31 874.72 441.50 887.71
  Q 428.78 889.07 416.65 892.96
  C 415.24 893.41 410.76 895.51 409.23 895.05
  C 396.65 891.31 386.90 895.01 375.10 896.50
  Q 369.94 897.15 360.75 897.11
  Q 180.37 896.26 0.00 897.69
  L 0.00 761.14
  C 38.02 759.13 69.02 758.15 105.81 758.90
  Q 152.66 759.85 199.50 760.80
  Q 202.21 760.85 207.20 759.97
  C 221.48 757.46 230.72 753.03 244.91 756.41
  Q 245.38 756.52 245.71 756.87
  L 247.75 758.96
  C 245.60 758.98 243.15 758.75 241.29 759.62
  C 233.66 763.22 240.70 773.39 248.35 770.55
  C 254.03 768.44 252.43 762.15 248.75 759.04
  C 259.66 749.85 272.35 753.04 282.75 751.72
  Q 292.16 750.51 307.46 744.45
  Q 308.02 744.22 308.58 744.44
  L 315.80 747.15
  Q 316.32 747.35 316.82 747.11
  Q 317.80 746.67 318.66 745.66
  Q 348.72 710.47 378.77 675.28
  Q 380.78 672.93 381.51 671.13
  Q 382.15 670.67 384.42 670.88
  Z
  M 286.00 837.54
  L 287.46 832.75
  C 292.41 825.02 286.94 818.75 279.94 815.78
  Q 264.99 809.43 248.06 810.43
  Q 245.49 810.58 244.80 811.57
  C 234.85 825.85 242.21 843.81 255.55 852.72
  C 270.51 862.73 283.46 853.58 286.00 837.54
  Z
  M 407.96 825.61
  A 7.48 7.48 0.0 0 0 400.48 818.13
  A 7.48 7.48 0.0 0 0 393.00 825.61
  A 7.48 7.48 0.0 0 0 400.48 833.09
  A 7.48 7.48 0.0 0 0 407.96 825.61
  Z"
/>
<path fill="#95a3a2" d="
  M 245.25 674.04
  L 245.75 674.04
  L 246.75 675.21
  L 245.04 676.00
  Q 245.02 675.90 245.00 675.79
  L 245.49 675.43
  Q 246.05 675.02 245.61 674.49
  L 245.25 674.04
  Z"
/>
<path fill="#1e2c2c" d="
  M 509.49 674.86
  Q 508.87 675.52 509.11 675.87
  C 517.27 687.95 500.19 697.10 497.23 682.83
  C 496.77 676.53 504.25 672.77 509.49 674.86
  Z"
/>
<path fill="#95a3a2" d="
  M 591.06 682.53
  C 598.93 681.49 607.81 683.31 615.36 686.11
  A 0.43 0.43 0.0 0 1 615.22 686.94
  L 591.40 687.02
  Q 590.82 687.03 590.52 686.53
  Q 589.57 684.98 590.25 683.18
  Q 590.46 682.61 591.06 682.53
  Z"
/>
<path fill="#3a4848" d="
  M 279.58 698.34
  Q 281.43 699.30 282.56 700.32
  A 0.42 0.41 -14.7 0 1 282.15 701.02
  Q 268.46 696.50 255.98 689.31
  A 0.40 0.40 0.0 0 1 256.31 688.58
  Q 268.12 692.38 279.58 698.34
  Z"
/>
<path fill="#274442" fill-opacity="0.635" d="
  M 1091.79 690.00
  Q 1091.90 690.03 1092.00 690.06
  L 1092.00 696.56
  L 1091.79 690.00
  Z"
/>
<circle fill="#1e2c2c" cx="801.23" cy="715.63" r="7.61"/>
<path fill="#1e2c2c" d="
  M 383.25 764.29
  C 398.33 775.10 417.71 759.57 404.35 744.41
  C 402.86 742.70 401.81 742.87 399.75 743.24
  Q 389.62 745.02 379.54 746.99
  A 1.86 1.85 76.0 0 0 378.12 749.36
  L 382.50 763.54
  Q 377.99 757.32 373.53 751.07
  C 370.26 746.48 373.11 742.24 378.41 742.29
  Q 384.93 742.36 391.44 742.70
  C 397.34 743.01 403.61 738.10 408.19 743.39
  C 412.24 748.07 413.06 765.57 405.91 768.37
  C 399.70 770.80 385.85 772.86 383.25 764.29
  Z"
/>
<path fill="#b8d1cf" d="
  M 383.25 764.29
  L 382.50 763.54
  L 378.12 749.36
  A 1.86 1.85 76.0 0 1 379.54 746.99
  Q 389.62 745.02 399.75 743.24
  C 401.81 742.87 402.86 742.70 404.35 744.41
  C 417.71 759.57 398.33 775.10 383.25 764.29
  Z"
/>
<path fill="#95a3a2" d="
  M 500.21 828.75
  L 487.38 841.78
  Q 487.04 842.12 486.62 841.87
  L 485.50 841.21
  Q 484.89 840.84 485.36 840.31
  L 523.65 797.13
  L 566.48 745.56
  A 1.11 1.11 0.0 0 1 567.91 745.32
  L 568.39 745.61
  Q 569.02 745.99 568.60 746.60
  C 557.62 762.70 543.64 776.76 531.09 791.68
  Q 515.55 810.13 500.21 828.75
  Z"
/>
<circle fill="#1e2c2c" cx="713.80" cy="756.27" r="5.02"/>
<path fill="#1e2c2c" d="
  M 247.75 758.96
  L 248.75 759.04
  C 252.43 762.15 254.03 768.44 248.35 770.55
  C 240.70 773.39 233.66 763.22 241.29 759.62
  C 243.15 758.75 245.60 758.98 247.75 758.96
  Z"
/>
<path fill="#1e2c2c" d="
  M 483.29 796.25
  C 483.03 801.15 479.56 804.09 475.04 800.75
  C 471.46 793.47 481.33 788.39 483.29 796.25
  Z"
/>
<path fill="#3a4848" d="
  M 722.21 805.75
  Q 720.25 807.52 718.52 809.53
  Q 674.34 860.48 629.97 911.28
  C 629.31 912.04 628.24 912.37 627.51 911.61
  A 0.78 0.78 0.0 0 1 627.48 910.57
  L 638.03 898.21
  Q 666.95 868.51 692.54 835.54
  L 725.09 798.12
  A 0.61 0.60 -20.9 0 1 726.15 798.59
  Q 725.63 802.53 722.21 805.75
  Z"
/>
<path fill="#1e2c2c" d="
  M 791.00 819.29
  C 789.75 829.61 785.50 837.86 774.53 840.31
  C 749.85 845.84 751.50 825.09 762.75 812.54
  L 772.55 805.24
  A 1.44 1.43 -43.2 0 1 774.32 805.29
  L 791.00 819.29
  Z
  M 784.6687 828.5054
  A 9.40 9.40 0.0 0 0 784.0425 815.2265
  L 780.7290 812.2114
  A 9.40 9.40 0.0 0 0 767.4501 812.8376
  L 759.7913 821.2546
  A 9.40 9.40 0.0 0 0 760.4175 834.5335
  L 763.7310 837.5486
  A 9.40 9.40 0.0 0 0 777.0099 836.9224
  L 784.6687 828.5054
  Z"
/>
<path fill="#b8b8b8" d="
  M 722.21 805.75
  C 731.74 822.06 749.33 804.93 762.75 812.54
  C 751.50 825.09 749.85 845.84 774.53 840.31
  C 785.50 837.86 789.75 829.61 791.00 819.29
  C 801.36 811.35 817.89 819.34 829.39 821.71
  Q 834.56 822.78 840.72 822.76
  Q 966.36 822.44 1092.00 822.06
  L 1092.00 972.00
  L 633.94 972.00
  L 634.00 971.62
  Q 634.06 971.19 633.64 971.16
  C 630.40 970.94 601.52 969.71 601.69 972.00
  L 0.00 972.00
  L 0.00 897.69
  Q 180.37 896.26 360.75 897.11
  Q 369.94 897.15 375.10 896.50
  C 386.90 895.01 396.65 891.31 409.23 895.05
  C 410.76 895.51 415.24 893.41 416.65 892.96
  Q 428.78 889.07 441.50 887.71
  Q 445.40 898.60 448.94 909.65
  C 452.30 920.16 458.36 919.42 468.35 917.93
  C 480.11 916.18 499.69 910.79 499.25 895.29
  Q 513.12 896.97 531.69 897.85
  Q 538.01 898.15 543.58 897.66
  C 549.97 897.11 557.86 894.04 564.81 893.60
  Q 600.10 891.33 638.03 898.21
  L 627.48 910.57
  A 0.78 0.78 0.0 0 0 627.51 911.61
  C 628.24 912.37 629.31 912.04 629.97 911.28
  Q 674.34 860.48 718.52 809.53
  Q 720.25 807.52 722.21 805.75
  Z
  M 717.38 897.96
  A 4.71 4.71 0.0 0 0 712.67 893.25
  A 4.71 4.71 0.0 0 0 707.96 897.96
  A 4.71 4.71 0.0 0 0 712.67 902.67
  A 4.71 4.71 0.0 0 0 717.38 897.96
  Z
  M 597.75 946.29
  C 605.89 959.05 629.42 975.88 639.66 954.79
  Q 641.27 951.50 644.51 942.84
  C 647.78 934.12 644.78 928.96 636.81 925.10
  C 628.58 921.11 614.99 916.09 606.24 918.28
  C 593.26 921.53 592.01 936.43 597.75 946.29
  Z"
/>
<rect fill="#95a3a2" x="-11.64" y="-15.09" transform="translate(772.23,824.88) rotate(42.3)" width="23.28" height="30.18" rx="9.40"/>
<path fill="#1e2c2c" d="
  M 287.46 832.75
  C 288.07 815.91 261.65 813.26 250.25 813.56
  C 243.10 813.74 241.36 828.88 242.50 833.86
  C 244.98 844.69 258.06 851.22 268.27 852.48
  C 271.47 852.87 273.28 853.48 275.11 851.15
  Q 280.50 844.27 286.00 837.54
  C 283.46 853.58 270.51 862.73 255.55 852.72
  C 242.21 843.81 234.85 825.85 244.80 811.57
  Q 245.49 810.58 248.06 810.43
  Q 264.99 809.43 279.94 815.78
  C 286.94 818.75 292.41 825.02 287.46 832.75
  Z"
/>
<path fill="#95a3a2" d="
  M 287.46 832.75
  L 286.00 837.54
  Q 280.50 844.27 275.11 851.15
  C 273.28 853.48 271.47 852.87 268.27 852.48
  C 258.06 851.22 244.98 844.69 242.50 833.86
  C 241.36 828.88 243.10 813.74 250.25 813.56
  C 261.65 813.26 288.07 815.91 287.46 832.75
  Z"
/>
<circle fill="#1e2c2c" cx="400.48" cy="825.61" r="7.48"/>
<path fill="#1e2c2c" d="
  M 594.29 832.25
  Q 597.49 846.17 586.50 854.79
  C 587.47 851.63 592.76 838.44 591.57 836.19
  Q 586.25 826.21 575.05 825.98
  C 573.63 825.95 572.10 826.54 571.51 827.79
  Q 568.41 834.36 565.26 840.92
  C 562.77 846.12 561.07 851.68 568.52 853.28
  Q 577.41 855.19 580.00 855.96
  C 568.56 859.24 554.91 857.85 561.21 841.25
  Q 567.50 834.55 570.24 825.72
  A 1.86 1.81 84.5 0 1 571.07 824.69
  C 580.28 819.38 589.43 823.67 594.29 832.25
  Z"
/>
<path fill="#95a3a2" d="
  M 586.50 854.79
  L 580.00 855.96
  Q 577.41 855.19 568.52 853.28
  C 561.07 851.68 562.77 846.12 565.26 840.92
  Q 568.41 834.36 571.51 827.79
  C 572.10 826.54 573.63 825.95 575.05 825.98
  Q 586.25 826.21 591.57 836.19
  C 592.76 838.44 587.47 851.63 586.50 854.79
  Z"
/>
<path fill="#1e2c2c" d="
  M 499.25 895.29
  C 499.69 910.79 480.11 916.18 468.35 917.93
  C 458.36 919.42 452.30 920.16 448.94 909.65
  Q 445.40 898.60 441.50 887.71
  Q 437.31 874.72 445.57 866.06
  C 448.48 863.00 462.93 852.06 467.42 854.95
  Q 490.21 869.56 499.25 895.29
  Z
  M 481.8740 868.7931
  A 17.03 17.03 0.0 0 0 458.6885 862.2759
  L 449.9329 867.1893
  A 17.03 17.03 0.0 0 0 443.4158 890.3748
  L 453.0860 907.6069
  A 17.03 17.03 0.0 0 0 476.2715 914.1241
  L 485.0271 909.2107
  A 17.03 17.03 0.0 0 0 491.5442 886.0252
  L 481.8740 868.7931
  Z"
/>
<path fill="#95a3a2" d="
  M 491.5442 886.0252
  A 17.03 17.03 0.0 0 1 485.0271 909.2107
  L 476.2715 914.1241
  A 17.03 17.03 0.0 0 1 453.0860 907.6069
  L 443.4158 890.3748
  A 17.03 17.03 0.0 0 1 449.9329 867.1893
  L 458.6885 862.2759
  A 17.03 17.03 0.0 0 1 481.8740 868.7931
  L 491.5442 886.0252
  Z
  M 462.54 906.68
  L 470.58 880.26
  A 0.57 0.56 85.3 0 0 469.79 879.59
  C 465.31 881.79 459.42 902.46 461.54 906.76
  A 0.54 0.54 0.0 0 0 462.54 906.68
  Z"
/>
<path fill="#3a4848" d="
  M 470.58 880.26
  L 462.54 906.68
  A 0.54 0.54 0.0 0 1 461.54 906.76
  C 459.42 902.46 465.31 881.79 469.79 879.59
  A 0.57 0.56 85.3 0 1 470.58 880.26
  Z"
/>
<circle fill="#1e2c2c" cx="712.67" cy="897.96" r="4.71"/>
<path fill="#1e2c2c" d="
  M 639.66 954.79
  Q 638.57 953.36 638.21 951.50
  C 641.34 944.82 646.98 936.35 640.86 932.14
  Q 625.76 921.74 607.23 922.44
  C 598.15 922.78 597.09 939.64 598.54 945.50
  L 597.75 946.29
  C 592.01 936.43 593.26 921.53 606.24 918.28
  C 614.99 916.09 628.58 921.11 636.81 925.10
  C 644.78 928.96 647.78 934.12 644.51 942.84
  Q 641.27 951.50 639.66 954.79
  Z"
/>
<path fill="#95a3a2" d="
  M 638.21 951.50
  C 635.27 954.11 630.07 959.82 625.99 959.51
  Q 610.37 958.35 599.51 947.24
  Q 599.04 946.76 598.54 945.50
  C 597.09 939.64 598.15 922.78 607.23 922.44
  Q 625.76 921.74 640.86 932.14
  C 646.98 936.35 641.34 944.82 638.21 951.50
  Z"
/>
<path fill="#3a4848" d="
  M 598.54 945.50
  Q 599.04 946.76 599.51 947.24
  Q 610.37 958.35 625.99 959.51
  C 630.07 959.82 635.27 954.11 638.21 951.50
  Q 638.57 953.36 639.66 954.79
  C 629.42 975.88 605.89 959.05 597.75 946.29
  L 598.54 945.50
  Z"
/>
<path fill="#e3e4e4" d="
  M 633.94 972.00
  L 601.69 972.00
  C 601.52 969.71 630.40 970.94 633.64 971.16
  Q 634.06 971.19 634.00 971.62
  L 633.94 972.00
  Z"
/>
</svg>
