<?xml version="1.0" encoding="UTF-8" standalone="no"?>
<!DOCTYPE svg PUBLIC "-//W3C//DTD SVG 1.1//EN" "http://www.w3.org/Graphics/SVG/1.1/DTD/svg11.dtd">
<svg xmlns="http://www.w3.org/2000/svg" version="1.1" viewBox="0.00 0.00 1596.00 936.00">
<g stroke-width="2.00" fill="none" stroke-linecap="butt">
<path stroke="#7e7f7f" vector-effect="non-scaling-stroke" d="
  M 1405.49 740.47
  Q 1411.45 744.92 1416.46 750.77
  Q 1416.98 751.37 1416.26 751.05
  C 1411.09 748.71 1407.38 742.82 1402.37 739.55
  C 1331.84 693.51 1249.93 719.64 1175.47 735.56
  C 1087.34 754.41 999.11 748.91 915.75 713.79"
/>
<path stroke="#787878" vector-effect="non-scaling-stroke" d="
  M 915.75 713.79
  Q 1026.18 749.28 1140.75 729.46"
/>
<path stroke="#848484" vector-effect="non-scaling-stroke" d="
  M 1140.75 729.46
  Q 1152.19 727.66 1163.63 725.91
  C 1168.44 725.18 1170.76 725.20 1172.90 721.18
  Q 1188.17 692.41 1189.16 659.99
  A 1.95 1.94 8.9 0 1 1191.65 658.18
  C 1349.31 703.88 1475.15 529.52 1382.96 393.50"
/>
<path stroke="#787878" vector-effect="non-scaling-stroke" d="
  M 1382.96 393.50
  Q 1357.05 354.12 1313.75 335.29"
/>
<path stroke="#848484" vector-effect="non-scaling-stroke" d="
  M 1313.75 335.29
  Q 1266.42 312.51 1214.27 321.13
  C 1212.86 321.37 1210.86 321.64 1210.91 319.76
  Q 1211.75 293.25 1202.96 270.75"
/>
<path stroke="#787878" vector-effect="non-scaling-stroke" d="
  M 1202.96 270.75
  C 1178.41 210.74 1110.17 175.20 1048.98 205.60
  A 1.33 1.31 -22.2 0 0 1048.30 207.19
  L 1053.71 224.00"
/>
<path stroke="#848484" vector-effect="non-scaling-stroke" d="
  M 1053.71 224.00
  Q 1058.14 246.35 1057.99 269.14
  Q 1057.99 269.72 1057.42 269.82
  L 1056.22 270.02
  A 0.41 0.41 0.0 0 1 1055.75 269.66
  Q 1051.10 226.79 1029.75 189.46"
/>
<path stroke="#787878" vector-effect="non-scaling-stroke" d="
  M 1029.75 189.46
  C 995.29 123.70 916.07 91.61 844.91 106.62
  C 780.73 120.16 733.34 165.13 714.04 227.75"
/>
<path stroke="#848484" vector-effect="non-scaling-stroke" d="
  M 714.04 227.75
  Q 703.80 258.36 703.98 290.84
  A 0.25 0.25 0.0 0 1 703.48 290.90
  Q 695.74 258.05 704.93 225.08"
/>
<path stroke="#787878" vector-effect="non-scaling-stroke" d="
  M 704.93 225.08
  Q 706.67 218.57 708.19 212.24
  Q 708.69 210.13 706.58 209.16
  C 629.81 173.72 545.61 212.05 516.97 290.20
  C 516.34 291.91 515.40 293.28 513.51 292.99
  Q 480.21 287.92 447.57 291.33
  Q 445.36 291.56 444.12 292.26"
/>
<path stroke="#848484" vector-effect="non-scaling-stroke" d="
  M 444.12 292.26
  Q 412.54 296.49 384.46 312.25"
/>
<path stroke="#787878" vector-effect="non-scaling-stroke" d="
  M 384.46 312.25
  Q 313.91 347.44 287.23 421.89
  A 1.35 1.34 -66.4 0 0 287.87 423.53
  C 304.52 432.31 318.79 441.37 331.71 455.25"
/>
<path stroke="#848484" vector-effect="non-scaling-stroke" d="
  M 331.71 455.25
  Q 340.75 473.89 337.46 494.50"
/>
<path stroke="#787878" vector-effect="non-scaling-stroke" d="
  M 337.46 494.50
  Q 324.50 523.68 302.72 545.18"
/>
<path stroke="#848484" vector-effect="non-scaling-stroke" d="
  M 302.72 545.18
  C 293.61 551.94 287.43 560.22 292.99 572.01
  C 339.45 670.55 450.42 716.31 552.55 674.93
  Q 553.06 674.72 553.57 674.96
  C 556.86 676.47 556.08 679.08 556.27 682.04
  Q 557.73 705.23 566.93 725.67
  A 2.19 2.18 68.1 0 0 569.66 726.84
  L 581.12 722.73"
/>
<path stroke="#787878" vector-effect="non-scaling-stroke" d="
  M 581.12 722.73
  L 640.22 706.66"
/>
<path stroke="#848484" vector-effect="non-scaling-stroke" d="
  M 640.22 706.66
  C 723.77 683.48 809.13 677.83 892.88 704.71"
/>
<path stroke="#787878" vector-effect="non-scaling-stroke" d="
  M 892.88 704.71
  Q 897.66 705.62 901.19 708.75"
/>
<path stroke="#7e7f7f" vector-effect="non-scaling-stroke" d="
  M 901.19 708.75
  C 778.87 672.10 655.72 706.53 539.50 746.48
  Q 517.17 754.15 493.01 757.98
  C 472.65 761.20 430.21 760.88 419.26 738.35
  C 412.01 723.44 424.42 707.50 435.81 698.47
  A 1.00 1.00 0.0 0 0 435.62 696.78
  C 428.49 693.33 418.82 690.84 411.55 694.52
  C 390.62 705.11 358.59 732.51 362.84 759.49
  C 366.07 780.00 387.86 792.53 406.27 796.71
  C 435.15 803.27 466.94 800.83 497.53 795.67
  C 532.47 789.76 566.91 781.09 601.20 772.23
  C 629.36 764.95 656.05 761.42 685.05 765.05
  C 707.82 767.90 729.93 774.50 752.82 782.18
  C 788.63 794.21 826.26 807.92 861.18 816.60
  C 939.84 836.14 1025.04 837.76 1104.80 819.39
  C 1178.44 802.43 1241.57 755.59 1316.54 742.76
  Q 1369.50 733.69 1419.23 753.42
  Q 1419.43 753.50 1419.22 753.50
  L 1418.46 753.50
  Q 1418.04 753.50 1417.65 753.37
  C 1361.84 734.49 1309.01 741.68 1256.51 766.31
  C 1214.31 786.11 1172.29 805.39 1128.71 822.00"
/>
<path stroke="#787878" vector-effect="non-scaling-stroke" d="
  M 1128.71 822.00
  C 1032.32 849.89 932.42 847.48 836.31 819.69
  Q 822.07 815.57 769.76 799.46
  C 766.38 798.42 756.53 803.78 751.30 805.95
  C 697.65 828.22 647.80 819.37 601.42 786.03
  C 599.97 784.98 597.49 784.26 595.71 784.70
  Q 536.69 799.12 476.75 808.99
  C 433.08 816.18 377.25 815.31 355.15 768.43"
/>
<path stroke="#848484" vector-effect="non-scaling-stroke" d="
  M 355.15 768.43
  Q 350.04 749.68 358.03 732.10"
/>
<path stroke="#707070" vector-effect="non-scaling-stroke" d="
  M 689.76 776.95
  C 664.82 772.50 638.35 776.23 614.37 781.23
  Q 612.35 781.66 613.54 783.34
  Q 614.15 784.20 615.01 784.74
  Q 680.34 825.88 752.46 796.18
  A 1.44 1.43 -46.4 0 0 752.40 793.50
  Q 721.71 782.64 689.76 776.95"
/>
<path stroke="#d8d8d8" vector-effect="non-scaling-stroke" d="
  M 1029.75 189.46
  Q 1022.97 191.23 1018.65 186.58
  Q 1005.62 172.58 996.91 165.10
  Q 956.79 130.65 904.70 125.05
  C 833.43 117.39 769.60 153.94 730.76 211.77
  Q 727.00 217.37 723.33 223.04
  C 720.93 226.76 718.35 228.43 714.04 227.75"
/>
<path stroke="#d8d8d8" vector-effect="non-scaling-stroke" d="
  M 1053.71 224.00
  C 1097.44 213.24 1138.89 218.52 1173.42 249.08
  Q 1181.18 255.95 1192.60 269.17
  Q 1196.62 273.83 1202.96 270.75"
/>
<path stroke="#d8d8d8" vector-effect="non-scaling-stroke" d="
  M 1313.75 335.29
  C 1311.62 343.24 1322.01 357.17 1325.96 363.22
  Q 1347.85 396.70 1347.39 436.62
  C 1347.17 456.18 1347.77 473.86 1341.29 492.70
  C 1319.45 556.24 1263.46 599.09 1195.81 600.71
  C 1181.33 601.05 1167.53 599.22 1153.19 596.04
  C 1151.26 595.61 1150.23 597.07 1150.11 598.89
  C 1148.46 624.38 1139.30 648.65 1122.87 668.13
  C 1070.34 730.41 980.43 728.99 927.43 668.28
  C 926.37 667.07 925.23 665.69 923.82 667.31
  Q 913.24 679.43 892.88 704.71"
/>
<path stroke="#d8d8d8" vector-effect="non-scaling-stroke" d="
  M 640.22 706.66
  C 610.17 683.62 590.29 652.98 585.24 614.96
  Q 584.82 611.80 582.33 612.52
  Q 553.33 620.91 526.52 621.83
  C 448.40 624.49 383.45 581.74 351.95 511.27
  Q 349.16 505.03 346.43 498.66
  A 2.18 2.17 -6.4 0 0 344.82 497.38
  Q 341.04 496.69 337.46 494.50"
/>
<path stroke="#d8d8d8" vector-effect="non-scaling-stroke" d="
  M 331.71 455.25
  C 333.98 453.82 338.67 453.57 338.80 450.25
  C 339.38 434.53 339.70 418.67 341.89 403.07
  Q 342.82 396.47 345.11 390.15
  Q 358.14 354.05 381.58 324.32
  C 384.79 320.25 384.04 317.15 384.46 312.25"
/>
<path stroke="#d8d8d8" vector-effect="non-scaling-stroke" d="
  M 444.12 292.26
  Q 485.94 296.91 516.25 325.33
  A 1.75 1.75 0.0 0 0 519.12 324.58
  C 535.16 273.93 566.83 229.82 622.53 220.21
  C 650.37 215.40 677.61 218.94 704.93 225.08"
/>
<path stroke="#ebf0f1" vector-effect="non-scaling-stroke" d="
  M 973.2795 190.3456
  A 84.68 43.38 0.2 0 0 888.7514 146.6703
  A 84.68 43.38 0.2 0 0 803.9205 189.7544
  A 84.68 43.38 0.2 0 0 888.4486 233.4297
  A 84.68 43.38 0.2 0 0 973.2795 190.3456"
/>
<path stroke="#ebf0f1" vector-effect="non-scaling-stroke" d="
  M 646.67 271.20
  C 658.11 267.28 662.77 256.32 660.43 244.65
  A 2.01 2.01 0.0 0 0 659.32 243.23
  C 640.82 234.32 620.57 228.54 603.24 243.28
  C 593.76 251.34 597.11 259.90 606.59 265.66
  C 618.07 272.64 633.95 275.57 646.67 271.20"
/>
<path stroke="#848484" vector-effect="non-scaling-stroke" d="
  M 690.32 433.76
  C 699.11 426.26 708.75 423.19 720.08 420.90
  A 0.79 0.79 0.0 0 0 720.24 419.41
  C 712.23 415.93 689.74 422.07 689.42 433.32
  A 0.55 0.55 0.0 0 0 690.32 433.76"
/>
<path stroke="#848484" vector-effect="non-scaling-stroke" d="
  M 994.15 428.77
  C 986.27 421.08 977.54 417.42 966.48 419.39
  A 0.41 0.41 0.0 0 0 966.40 420.17
  L 993.07 430.72
  Q 993.67 430.96 994.00 430.41
  L 994.30 429.89
  Q 994.67 429.27 994.15 428.77"
/>
<path stroke="#848484" vector-effect="non-scaling-stroke" d="
  M 725.00 498.24
  C 711.48 503.95 703.64 493.41 701.77 481.18
  A 1.39 1.39 0.0 0 0 700.55 480.01
  C 693.68 479.21 694.64 487.16 696.73 491.22
  C 708.12 513.41 735.14 511.86 741.55 487.26
  Q 743.13 481.19 737.45 479.52
  A 1.02 1.02 0.0 0 0 736.15 480.33
  C 734.82 488.13 732.58 495.04 725.00 498.24"
/>
<path stroke="#848484" vector-effect="non-scaling-stroke" d="
  M 983.33 482.00
  C 982.89 506.77 950.98 505.05 949.80 480.82
  Q 949.77 480.23 949.19 480.11
  Q 946.53 479.57 944.57 481.36
  Q 944.24 481.67 944.23 482.13
  C 943.79 512.66 983.89 513.87 989.84 486.83
  C 990.39 484.33 990.59 481.28 987.73 480.21
  Q 985.60 479.41 983.72 481.12
  Q 983.33 481.47 983.33 482.00"
/>
<path stroke="#848484" vector-effect="non-scaling-stroke" d="
  M 689.01 529.40
  A 30.53 24.60 0.0 0 0 658.48 504.80
  A 30.53 24.60 0.0 0 0 627.95 529.40
  A 30.53 24.60 0.0 0 0 658.48 554.00
  A 30.53 24.60 0.0 0 0 689.01 529.40"
/>
<path stroke="#848484" vector-effect="non-scaling-stroke" d="
  M 1059.2700 529.2672
  A 30.27 24.28 -0.1 0 0 1028.9576 505.0400
  A 30.27 24.28 -0.1 0 0 998.7300 529.3728
  A 30.27 24.28 -0.1 0 0 1029.0424 553.6000
  A 30.27 24.28 -0.1 0 0 1059.2700 529.2672"
/>
<path stroke="#848484" vector-effect="non-scaling-stroke" d="
  M 878.18 553.73
  C 873.81 597.29 816.30 601.82 809.77 557.03
  Q 809.27 553.60 806.65 551.26
  A 2.16 2.16 0.0 0 0 803.53 551.50
  C 802.06 553.31 802.95 554.97 803.13 556.76
  C 808.71 609.55 885.77 607.92 884.00 553.77
  Q 883.99 553.27 883.61 552.93
  C 882.21 551.69 878.41 551.39 878.18 553.73"
/>
<path stroke="#d8d8d8" vector-effect="non-scaling-stroke" d="
  M 1382.96 393.50
  Q 1382.80 393.48 1382.65 393.49
  Q 1382.30 393.52 1382.16 393.83
  C 1378.58 401.70 1381.36 408.02 1384.75 415.16
  C 1406.24 460.34 1397.61 512.50 1375.04 555.06
  C 1338.10 624.70 1257.42 655.08 1182.24 637.26
  C 1180.60 636.87 1179.22 638.19 1179.01 639.86
  C 1174.91 673.10 1164.00 702.12 1142.20 726.97
  Q 1140.81 728.56 1140.75 729.46"
/>
<path stroke="#d2d2d2" vector-effect="non-scaling-stroke" d="
  M 915.75 713.79
  L 901.19 708.75"
/>
<path stroke="#d8d8d8" vector-effect="non-scaling-stroke" d="
  M 1384.5824 467.0122
  A 6.44 3.77 35.2 0 0 1381.4931 460.2194
  A 6.44 3.77 35.2 0 0 1374.0576 459.5878
  A 6.44 3.77 35.2 0 0 1377.1469 466.3806
  A 6.44 3.77 35.2 0 0 1384.5824 467.0122"
/>
<path stroke="#d8d8d8" vector-effect="non-scaling-stroke" d="
  M 581.12 722.73
  Q 564.83 691.07 558.97 655.73
  A 1.39 1.38 75.9 0 0 557.16 654.64
  C 491.45 676.47 419.83 668.22 365.55 624.19
  Q 326.69 592.65 302.72 545.18"
/>
<path stroke="#83463b" vector-effect="non-scaling-stroke" d="
  M 685.5196 529.3904
  A 26.82 20.44 0.3 0 0 658.8070 508.8103
  A 26.82 20.44 0.3 0 0 631.8804 529.1096
  A 26.82 20.44 0.3 0 0 658.5930 549.6897
  A 26.82 20.44 0.3 0 0 685.5196 529.3904"
/>
<path stroke="#83463b" vector-effect="non-scaling-stroke" d="
  M 1055.5594 529.1740
  A 26.64 20.84 -0.4 0 0 1028.7745 508.5205
  A 26.64 20.84 -0.4 0 0 1002.2806 529.5460
  A 26.64 20.84 -0.4 0 0 1029.0655 550.1995
  A 26.64 20.84 -0.4 0 0 1055.5594 529.1740"
/>
<path stroke="#cacbcb" vector-effect="non-scaling-stroke" d="
  M 1596.00 834.06
  Q 1529.81 835.26 1415.00 834.64
  Q 1403.51 834.57 1395.97 828.18
  C 1393.06 825.72 1390.74 824.91 1387.36 823.77
  Q 1386.53 823.49 1387.09 822.82
  L 1388.69 820.86
  Q 1389.01 820.48 1388.54 820.30
  C 1387.30 819.82 1385.41 820.68 1385.42 818.94"
/>
<path stroke="#7e7f7f" vector-effect="non-scaling-stroke" d="
  M 1385.42 818.94
  Q 1399.76 818.81 1413.99 817.95
  Q 1414.59 817.92 1414.93 817.78
  A 0.89 0.88 -45.1 0 0 1414.93 816.14
  C 1330.44 782.17 1238.18 814.62 1159.25 846.04"
/>
<path stroke="#d2d2d2" vector-effect="non-scaling-stroke" d="
  M 1159.25 846.04
  C 1148.91 841.78 1131.68 833.89 1128.71 822.00"
/>
<path stroke="#7e7f7f" vector-effect="non-scaling-stroke" d="
  M 637.00 753.52
  C 671.19 748.26 706.95 749.36 741.22 756.40
  Q 755.17 759.27 770.50 765.49
  C 827.41 788.59 889.18 804.75 951.09 809.93
  C 1019.72 815.67 1089.35 803.33 1155.21 785.47
  C 1159.07 784.42 1161.51 782.76 1164.05 779.96
  A 0.40 0.39 12.5 0 0 1163.64 779.32
  C 1044.59 815.29 920.73 814.43 803.93 771.45
  C 774.19 760.51 745.42 750.28 713.55 747.48
  Q 657.01 742.53 601.34 754.47
  Q 593.87 756.07 587.24 758.82
  A 0.67 0.67 0.0 0 0 587.57 760.10
  Q 612.57 757.29 637.00 753.52"
/>
<path stroke="#d8d8d8" vector-effect="non-scaling-stroke" d="
  M 355.15 768.43
  Q 345.24 774.79 336.10 782.26
  C 335.45 782.79 334.19 783.26 333.36 783.30
  C 311.44 784.19 289.48 785.54 267.57 786.22
  C 248.79 786.81 230.24 784.33 211.47 784.15
  Q 156.07 783.60 100.68 784.58
  C 83.33 784.88 65.45 788.19 48.20 786.06
  Q 26.80 783.41 5.25 784.80
  Q 2.58 784.97 0.00 785.69"
/>
<path stroke="#787878" vector-effect="non-scaling-stroke" d="
  M 1159.25 846.04
  C 1057.46 893.76 935.60 887.48 830.71 854.63
  Q 829.05 854.11 829.68 855.97
  A 1.28 1.28 0.0 0 0 830.18 856.62
  Q 857.69 875.01 887.54 887.44"
/>
<path stroke="#c4c4c4" vector-effect="non-scaling-stroke" d="
  M 887.54 887.44
  L 891.50 897.86
  A 1.89 1.88 62.9 0 1 890.78 900.11
  C 884.53 904.20 877.33 905.51 867.98 906.61
  C 833.80 910.62 799.56 909.10 765.25 909.05
  C 510.16 908.67 255.06 908.69 0.00 909.69"
/>
<path stroke="#707070" vector-effect="non-scaling-stroke" d="
  M 1385.42 818.94
  C 1335.71 824.78 1287.58 840.19 1241.97 860.42
  Q 1190.67 883.18 1174.19 889.93
  Q 1150.23 899.74 1135.44 904.16
  Q 1023.89 937.52 914.57 898.16
  Q 904.11 894.39 887.54 887.44"
/>
<path stroke="#707070" vector-effect="non-scaling-stroke" d="
  M 1001.00 888.99
  C 970.68 889.36 939.66 885.59 910.00 879.38
  C 902.82 877.87 897.04 874.80 889.38 873.70
  Q 875.08 871.64 861.51 866.53
  C 859.40 865.74 858.29 866.75 858.63 868.91
  Q 858.71 869.38 859.07 869.68
  Q 859.76 870.26 860.58 870.67
  Q 935.50 908.12 1019.50 909.94
  C 1061.51 910.86 1103.48 905.72 1142.51 892.42
  C 1176.42 880.88 1209.03 865.95 1241.89 851.77
  C 1292.47 829.94 1345.37 817.55 1400.59 815.12
  A 1.22 1.20 89.8 0 0 1401.74 813.95
  Q 1401.79 812.61 1400.49 812.28
  C 1366.93 803.59 1331.03 804.83 1297.23 811.41
  C 1248.29 820.95 1203.34 839.15 1157.36 857.67
  Q 1082.03 888.00 1001.00 888.99"
/>
<path stroke="#d7dcdd" vector-effect="non-scaling-stroke" d="
  M 1060.19 936.00
  Q 1060.28 935.80 1060.26 935.59
  Q 1060.21 935.14 1059.76 935.13
  Q 1035.51 934.78 1011.26 934.56
  C 998.03 934.44 982.04 935.50 968.75 934.94
  Q 966.97 934.87 966.69 936.00"
/>
</g>
<path fill="#242424" d="
  M 1405.49 740.47
  Q 1411.45 744.92 1416.46 750.77
  Q 1416.98 751.37 1416.26 751.05
  C 1411.09 748.71 1407.38 742.82 1402.37 739.55
  C 1331.84 693.51 1249.93 719.64 1175.47 735.56
  C 1087.34 754.41 999.11 748.91 915.75 713.79
  Q 1026.18 749.28 1140.75 729.46
  Q 1152.19 727.66 1163.63 725.91
  C 1168.44 725.18 1170.76 725.20 1172.90 721.18
  Q 1188.17 692.41 1189.16 659.99
  A 1.95 1.94 8.9 0 1 1191.65 658.18
  C 1349.31 703.88 1475.15 529.52 1382.96 393.50
  Q 1357.05 354.12 1313.75 335.29
  Q 1266.42 312.51 1214.27 321.13
  C 1212.86 321.37 1210.86 321.64 1210.91 319.76
  Q 1211.75 293.25 1202.96 270.75
  C 1178.41 210.74 1110.17 175.20 1048.98 205.60
  A 1.33 1.31 -22.2 0 0 1048.30 207.19
  L 1053.71 224.00
  Q 1058.14 246.35 1057.99 269.14
  Q 1057.99 269.72 1057.42 269.82
  L 1056.22 270.02
  A 0.41 0.41 0.0 0 1 1055.75 269.66
  Q 1051.10 226.79 1029.75 189.46
  C 995.29 123.70 916.07 91.61 844.91 106.62
  C 780.73 120.16 733.34 165.13 714.04 227.75
  Q 703.80 258.36 703.98 290.84
  A 0.25 0.25 0.0 0 1 703.48 290.90
  Q 695.74 258.05 704.93 225.08
  Q 706.67 218.57 708.19 212.24
  Q 708.69 210.13 706.58 209.16
  C 629.81 173.72 545.61 212.05 516.97 290.20
  C 516.34 291.91 515.40 293.28 513.51 292.99
  Q 480.21 287.92 447.57 291.33
  Q 445.36 291.56 444.12 292.26
  Q 412.54 296.49 384.46 312.25
  Q 313.91 347.44 287.23 421.89
  A 1.35 1.34 -66.4 0 0 287.87 423.53
  C 304.52 432.31 318.79 441.37 331.71 455.25
  Q 340.75 473.89 337.46 494.50
  Q 324.50 523.68 302.72 545.18
  C 293.61 551.94 287.43 560.22 292.99 572.01
  C 339.45 670.55 450.42 716.31 552.55 674.93
  Q 553.06 674.72 553.57 674.96
  C 556.86 676.47 556.08 679.08 556.27 682.04
  Q 557.73 705.23 566.93 725.67
  A 2.19 2.18 68.1 0 0 569.66 726.84
  L 581.12 722.73
  L 640.22 706.66
  C 723.77 683.48 809.13 677.83 892.88 704.71
  Q 897.66 705.62 901.19 708.75
  C 778.87 672.10 655.72 706.53 539.50 746.48
  Q 517.17 754.15 493.01 757.98
  C 472.65 761.20 430.21 760.88 419.26 738.35
  C 412.01 723.44 424.42 707.50 435.81 698.47
  A 1.00 1.00 0.0 0 0 435.62 696.78
  C 428.49 693.33 418.82 690.84 411.55 694.52
  C 390.62 705.11 358.59 732.51 362.84 759.49
  C 366.07 780.00 387.86 792.53 406.27 796.71
  C 435.15 803.27 466.94 800.83 497.53 795.67
  C 532.47 789.76 566.91 781.09 601.20 772.23
  C 629.36 764.95 656.05 761.42 685.05 765.05
  C 707.82 767.90 729.93 774.50 752.82 782.18
  C 788.63 794.21 826.26 807.92 861.18 816.60
  C 939.84 836.14 1025.04 837.76 1104.80 819.39
  C 1178.44 802.43 1241.57 755.59 1316.54 742.76
  Q 1369.50 733.69 1419.23 753.42
  Q 1419.43 753.50 1419.22 753.50
  L 1418.46 753.50
  Q 1418.04 753.50 1417.65 753.37
  C 1361.84 734.49 1309.01 741.68 1256.51 766.31
  C 1214.31 786.11 1172.29 805.39 1128.71 822.00
  C 1032.32 849.89 932.42 847.48 836.31 819.69
  Q 822.07 815.57 769.76 799.46
  C 766.38 798.42 756.53 803.78 751.30 805.95
  C 697.65 828.22 647.80 819.37 601.42 786.03
  C 599.97 784.98 597.49 784.26 595.71 784.70
  Q 536.69 799.12 476.75 808.99
  C 433.08 816.18 377.25 815.31 355.15 768.43
  Q 350.04 749.68 358.03 732.10
  Q 362.03 727.00 365.77 721.78
  C 366.44 720.84 368.19 719.56 368.85 718.10
  C 370.52 714.44 378.37 708.01 381.50 704.87
  C 383.30 703.07 385.89 702.00 387.65 699.61
  Q 387.96 699.19 388.46 699.06
  C 390.17 698.63 390.93 697.29 392.06 696.52
  Q 397.13 693.09 402.26 689.75
  C 405.67 687.52 403.97 686.05 401.21 685.01
  Q 376.31 675.66 351.96 658.27
  Q 351.54 657.97 351.03 657.97
  Q 340.85 658.00 330.71 658.24
  Q 329.91 658.26 325.41 658.95
  C 322.30 659.43 319.14 658.43 316.58 658.37
  C 305.31 658.11 293.35 657.99 282.21 656.21
  C 280.04 655.86 278.18 656.17 275.99 655.59
  C 271.76 654.46 266.64 654.67 262.30 653.69
  Q 260.09 653.18 256.77 652.66
  Q 235.25 649.26 215.09 639.55
  Q 213.88 638.97 211.96 637.74
  C 209.52 636.19 206.93 635.11 204.59 633.45
  Q 202.58 632.04 200.43 630.81
  C 198.64 629.79 197.04 627.45 194.90 626.06
  Q 191.19 623.68 189.82 621.41
  C 188.39 619.05 186.30 616.85 185.10 614.88
  Q 181.10 608.37 179.46 599.07
  C 177.86 590.02 182.76 580.65 186.93 572.96
  C 187.78 571.40 189.45 570.39 190.11 568.44
  Q 190.27 567.97 190.65 567.66
  C 194.97 564.03 197.87 558.93 202.47 554.86
  Q 208.77 549.28 209.49 548.58
  Q 219.24 539.09 228.79 529.40
  C 229.78 528.40 229.95 527.27 231.01 526.27
  C 233.41 523.99 235.40 520.80 236.84 518.82
  C 243.18 510.07 246.50 497.69 242.00 487.38
  Q 236.96 475.85 227.57 467.24
  Q 227.20 466.91 227.07 466.44
  Q 226.73 465.27 225.70 464.30
  Q 218.91 457.97 216.96 455.29
  Q 215.28 452.99 213.90 451.51
  C 210.24 447.58 207.29 443.09 203.97 438.87
  C 202.78 437.35 201.23 434.79 199.45 433.02
  C 197.91 431.49 197.42 429.58 195.50 428.22
  Q 195.08 427.92 194.95 427.41
  C 194.53 425.67 193.20 425.04 192.45 423.80
  C 184.24 410.34 178.92 390.95 190.84 377.63
  Q 201.45 365.77 217.73 362.93
  Q 218.54 362.79 217.91 363.30
  Q 207.94 371.55 198.03 379.71
  C 195.63 381.69 193.94 382.40 194.09 386.00
  C 195.13 409.37 205.61 427.55 221.48 444.02
  C 236.52 459.64 259.09 477.50 258.39 501.16
  C 257.93 516.76 246.37 530.29 235.90 540.65
  C 226.80 549.65 187.42 584.64 192.06 597.93
  C 208.70 645.58 295.88 648.30 335.83 649.27
  A 1.26 1.26 0.0 0 0 336.71 647.09
  Q 304.17 617.04 285.15 577.00
  A 1.75 1.73 81.9 0 0 283.87 576.03
  Q 281.99 575.71 281.28 577.49
  Q 274.86 593.58 281.26 609.71
  Q 281.74 610.94 281.05 609.81
  C 270.51 592.59 273.39 576.81 283.29 560.21
  C 294.03 542.20 309.93 527.80 321.20 509.97
  C 326.55 501.52 329.77 491.74 329.34 481.76
  C 327.56 440.92 269.92 423.13 238.97 411.60
  Q 229.94 408.24 222.80 402.04
  C 212.96 393.50 213.83 383.67 219.44 372.80
  Q 219.47 372.73 219.55 372.73
  Q 219.69 372.73 219.81 372.77
  Q 219.92 372.81 219.88 372.92
  C 211.81 397.31 234.89 406.87 252.78 412.14
  Q 263.11 415.19 273.43 418.29
  C 280.00 420.26 280.07 418.90 282.18 413.55
  Q 293.41 385.02 311.45 361.94
  Q 313.00 359.96 313.59 358.73
  Q 313.80 358.28 314.22 358.00
  C 316.65 356.35 317.75 353.75 319.38 352.07
  Q 329.07 342.07 339.09 332.37
  Q 339.86 331.62 342.21 330.03
  C 343.59 329.08 344.90 327.48 346.13 326.52
  Q 391.58 291.01 448.98 283.24
  C 450.16 283.08 453.27 283.09 455.17 282.56
  C 459.20 281.45 464.57 281.94 468.83 281.72
  C 471.40 281.58 475.89 280.51 479.64 281.13
  C 484.90 281.98 489.84 281.88 495.04 282.07
  C 497.74 282.17 501.16 283.33 504.51 282.94
  Q 505.00 282.88 505.44 283.11
  Q 510.12 285.52 512.00 280.73
  C 518.77 263.43 528.58 247.16 541.39 233.72
  Q 541.46 233.65 543.92 230.67
  C 545.27 229.03 547.24 227.90 548.55 226.61
  C 558.92 216.46 570.71 208.69 583.73 202.40
  Q 597.62 195.68 606.95 193.47
  Q 613.43 191.93 619.93 190.44
  C 622.19 189.92 625.25 190.12 627.89 189.06
  Q 628.36 188.87 628.87 188.94
  C 632.08 189.36 635.00 188.12 637.70 188.07
  Q 647.89 187.90 658.10 188.04
  Q 658.46 188.04 658.69 188.32
  Q 658.84 188.50 658.99 188.51
  Q 685.12 190.53 709.42 200.13
  C 712.23 201.24 714.05 200.79 715.32 198.06
  C 726.60 173.97 743.93 151.22 765.13 133.93
  Q 803.81 102.38 853.58 94.71
  Q 854.00 94.64 859.04 94.14
  C 861.46 93.90 864.05 93.17 866.28 93.12
  Q 879.08 92.83 891.90 93.08
  C 894.94 93.14 898.51 94.36 902.16 93.95
  Q 902.72 93.89 903.23 94.12
  Q 905.74 95.28 908.50 94.97
  Q 909.00 94.91 909.45 95.14
  C 911.23 96.07 913.47 96.01 914.83 96.30
  C 939.81 101.60 964.58 111.93 985.21 127.53
  C 988.56 130.06 991.17 131.86 994.29 134.73
  C 996.11 136.41 998.17 137.53 999.82 139.18
  C 1001.46 140.83 1013.08 151.88 1013.11 152.97
  Q 1013.12 153.48 1013.49 153.82
  Q 1016.19 156.32 1020.33 161.68
  Q 1033.33 178.50 1041.48 194.89
  C 1042.86 197.65 1044.31 199.07 1047.36 197.64
  C 1054.65 194.19 1063.44 192.06 1071.34 190.35
  C 1072.88 190.01 1075.61 190.12 1077.69 189.10
  Q 1078.13 188.88 1078.63 188.94
  C 1081.94 189.36 1085.03 188.15 1087.78 188.07
  Q 1096.66 187.85 1105.54 188.09
  C 1107.85 188.15 1110.42 189.23 1113.15 188.99
  Q 1113.63 188.94 1114.08 189.13
  C 1116.08 189.97 1118.57 189.97 1120.19 190.30
  C 1168.94 200.25 1205.05 237.10 1215.75 285.86
  C 1215.99 286.93 1215.90 288.82 1216.64 290.25
  Q 1216.85 290.65 1216.90 291.10
  L 1219.02 311.34
  Q 1219.08 311.90 1219.65 311.95
  C 1222.82 312.19 1225.96 311.13 1228.67 311.08
  C 1240.26 310.86 1251.88 310.64 1263.37 312.25
  Q 1313.84 319.28 1353.84 350.57
  Q 1353.85 350.58 1356.81 353.28
  C 1358.26 354.60 1359.84 355.21 1361.15 356.52
  C 1367.54 362.93 1374.55 369.24 1380.40 376.11
  Q 1391.85 389.55 1400.52 404.89
  C 1402.53 408.46 1404.44 410.13 1408.49 409.97
  Q 1408.98 409.95 1409.42 410.17
  Q 1410.35 410.63 1412.00 410.99
  C 1432.74 415.61 1454.79 422.62 1474.21 431.91
  Q 1474.33 431.97 1477.45 433.21
  C 1479.35 433.96 1480.91 435.38 1482.54 436.16
  Q 1497.52 443.37 1509.58 454.79
  C 1510.91 456.05 1513.45 456.93 1514.38 459.36
  Q 1514.55 459.80 1514.88 460.13
  C 1522.33 467.46 1527.78 478.14 1529.12 488.34
  Q 1529.14 488.49 1529.90 492.02
  C 1530.43 494.52 1529.48 497.16 1529.31 498.96
  C 1528.15 511.46 1521.43 523.75 1514.50 533.97
  C 1507.27 544.64 1499.42 555.42 1494.25 567.27
  C 1488.62 580.18 1486.90 598.44 1497.10 609.58
  C 1509.75 623.41 1529.69 628.41 1547.97 631.27
  C 1557.34 632.74 1568.72 634.38 1577.62 634.04
  Q 1578.10 634.02 1578.54 634.22
  C 1580.40 635.08 1584.45 634.12 1585.12 635.61
  Q 1585.36 636.14 1584.78 636.21
  C 1577.04 637.18 1570.39 638.40 1561.88 637.99
  Q 1561.34 637.96 1560.95 637.58
  L 1559.93 636.56
  Q 1559.55 636.18 1559.02 636.16
  Q 1541.60 635.70 1524.74 631.33
  Q 1523.77 631.08 1522.96 630.58
  Q 1522.54 630.32 1522.06 630.28
  Q 1519.31 630.06 1517.00 628.54
  C 1516.29 628.06 1515.92 628.43 1515.27 628.14
  C 1500.48 621.47 1486.33 612.12 1483.60 594.59
  Q 1483.54 594.23 1483.34 593.93
  C 1483.30 593.86 1483.12 593.49 1483.11 593.41
  C 1481.07 573.20 1491.21 556.32 1501.31 540.07
  C 1506.78 531.28 1511.78 523.99 1516.46 513.50
  C 1520.79 503.79 1521.53 495.27 1519.50 485.59
  C 1517.38 475.46 1509.05 464.37 1501.49 458.50
  C 1477.88 440.15 1448.39 429.01 1420.02 421.64
  C 1416.44 420.71 1413.50 419.82 1409.79 420.00
  A 0.98 0.97 77.8 0 0 1408.93 421.34
  L 1416.02 439.24
  Q 1416.23 439.78 1416.78 439.95
  C 1424.98 442.50 1433.23 444.90 1441.29 447.89
  Q 1454.76 452.89 1468.78 461.69
  Q 1476.12 466.31 1481.00 471.25
  Q 1481.33 471.58 1481.76 471.75
  Q 1483.65 472.48 1484.24 474.34
  Q 1484.39 474.83 1484.79 475.17
  Q 1486.53 476.66 1489.24 480.25
  Q 1499.85 494.32 1496.56 511.07
  Q 1495.67 515.60 1491.68 524.13
  Q 1491.55 524.43 1491.32 524.19
  Q 1491.23 524.10 1491.14 524.01
  Q 1490.96 523.83 1491.07 523.61
  C 1493.38 519.14 1494.16 513.35 1494.70 509.42
  C 1495.18 505.90 1494.21 503.06 1493.86 499.69
  C 1492.85 489.80 1484.06 479.70 1476.57 473.45
  Q 1469.09 467.21 1455.76 461.22
  Q 1443.60 455.76 1427.50 451.27
  Q 1423.03 450.02 1419.84 449.91
  Q 1419.27 449.89 1419.18 450.44
  Q 1418.82 452.65 1419.82 454.50
  Q 1420.06 454.94 1420.02 455.43
  C 1419.80 458.60 1420.91 461.21 1420.94 464.36
  C 1420.96 466.75 1421.83 469.05 1421.90 471.17
  C 1421.97 473.15 1421.77 482.00 1422.72 483.18
  Q 1423.00 483.53 1423.00 483.98
  L 1423.00 499.92
  Q 1423.00 500.38 1422.77 500.78
  Q 1422.64 501.01 1422.45 501.19
  Q 1422.29 501.35 1422.28 501.58
  L 1421.92 514.37
  Q 1421.91 514.67 1421.72 514.90
  Q 1421.62 515.02 1421.50 515.13
  Q 1421.22 515.40 1421.22 515.79
  Q 1421.16 522.08 1420.76 523.78
  Q 1419.73 528.15 1420.00 530.94
  Q 1420.05 531.45 1420.50 531.70
  C 1422.42 532.75 1424.51 532.89 1426.11 533.42
  Q 1434.99 536.33 1441.64 543.01
  Q 1441.99 543.37 1442.14 543.85
  Q 1442.41 544.71 1443.44 545.80
  C 1446.18 548.73 1444.36 552.06 1444.12 555.01
  Q 1443.78 559.11 1442.55 563.05
  Q 1438.56 575.85 1432.11 587.59
  Q 1426.45 597.90 1422.75 606.57
  Q 1419.84 613.39 1419.99 617.94
  Q 1420.32 627.55 1429.55 632.97
  C 1439.24 638.66 1451.34 640.67 1462.38 641.88
  C 1463.58 642.01 1466.80 641.70 1468.75 642.32
  Q 1470.34 642.82 1471.32 642.84
  Q 1492.91 643.23 1514.48 642.86
  C 1521.05 642.75 1529.16 641.86 1536.56 641.81
  C 1538.08 641.80 1539.63 641.17 1541.31 641.14
  Q 1547.72 641.00 1554.12 640.69
  Q 1554.64 640.66 1555.09 640.40
  Q 1556.51 639.60 1558.10 640.18
  A 0.48 0.47 -41.5 0 1 1558.04 641.09
  Q 1544.20 644.31 1530.02 645.37
  Q 1529.50 645.40 1529.05 645.65
  C 1527.44 646.51 1523.40 645.91 1521.19 646.32
  Q 1517.34 647.04 1515.74 647.13
  Q 1491.17 648.49 1466.57 647.83
  Q 1466.22 647.82 1465.92 647.58
  Q 1465.61 647.34 1465.23 647.33
  C 1450.86 646.75 1433.25 643.33 1421.43 634.59
  C 1411.53 627.28 1410.55 614.55 1415.83 604.07
  Q 1421.69 592.46 1428.23 581.21
  C 1429.64 578.80 1430.60 575.85 1431.67 573.65
  C 1437.48 561.61 1442.49 542.17 1422.91 540.15
  C 1418.13 539.65 1417.28 539.18 1415.77 543.59
  C 1411.39 556.41 1405.58 568.86 1398.48 581.62
  Q 1393.99 589.70 1384.98 601.73
  Q 1381.97 605.75 1380.80 607.02
  Q 1380.47 607.38 1380.25 607.82
  C 1379.12 610.12 1376.75 611.46 1375.27 613.67
  C 1371.56 619.21 1365.05 624.59 1360.26 629.35
  Q 1359.92 629.69 1359.46 629.84
  Q 1358.00 630.31 1356.84 631.84
  C 1354.87 634.41 1351.48 635.52 1349.42 638.33
  Q 1349.12 638.75 1348.62 638.87
  C 1347.00 639.27 1346.07 640.61 1345.10 641.31
  Q 1310.48 666.32 1268.16 672.71
  Q 1268.02 672.73 1264.34 673.00
  C 1262.56 673.13 1260.87 673.80 1259.26 673.88
  C 1248.51 674.38 1235.76 675.20 1225.18 673.25
  C 1223.12 672.87 1220.86 673.10 1218.94 672.79
  Q 1206.46 670.72 1200.99 669.32
  C 1198.40 668.65 1197.36 669.41 1196.94 672.03
  Q 1195.91 678.38 1194.75 684.71
  Q 1191.92 700.15 1188.54 708.05
  Q 1185.67 714.76 1182.97 721.53
  Q 1182.75 722.07 1183.19 722.46
  Q 1184.59 723.67 1186.77 723.08
  Q 1216.85 714.99 1247.47 709.29
  C 1249.06 708.99 1251.60 709.10 1253.65 708.12
  Q 1254.10 707.91 1254.59 707.97
  Q 1257.26 708.31 1259.63 707.10
  Q 1260.06 706.88 1260.53 706.93
  C 1264.59 707.34 1267.95 706.11 1271.94 706.05
  C 1274.48 706.00 1277.05 705.20 1279.29 705.11
  Q 1297.50 704.41 1315.72 705.09
  C 1318.10 705.17 1321.60 705.85 1324.23 706.22
  Q 1369.42 712.58 1405.49 740.47
  Z
  M 552.67 731.97
  C 554.00 731.50 556.05 731.19 557.21 730.31
  A 2.66 2.10 -32.5 0 0 558.21 727.44
  Q 550.21 710.43 548.23 691.86
  C 547.94 689.15 546.84 686.94 543.73 687.94
  Q 499.71 702.04 455.49 698.20
  Q 453.18 698.00 451.16 699.13
  C 434.74 708.32 407.81 736.22 443.99 746.03
  C 481.18 756.11 516.97 744.56 552.67 731.97
  Z
  M 689.76 776.95
  C 664.82 772.50 638.35 776.23 614.37 781.23
  Q 612.35 781.66 613.54 783.34
  Q 614.15 784.20 615.01 784.74
  Q 680.34 825.88 752.46 796.18
  A 1.44 1.43 -46.4 0 0 752.40 793.50
  Q 721.71 782.64 689.76 776.95
  Z"
/>
<path fill="#cbcbcb" d="
  M 1029.75 189.46
  Q 1022.97 191.23 1018.65 186.58
  Q 1005.62 172.58 996.91 165.10
  Q 956.79 130.65 904.70 125.05
  C 833.43 117.39 769.60 153.94 730.76 211.77
  Q 727.00 217.37 723.33 223.04
  C 720.93 226.76 718.35 228.43 714.04 227.75
  C 733.34 165.13 780.73 120.16 844.91 106.62
  C 916.07 91.61 995.29 123.70 1029.75 189.46
  Z"
/>
<path fill="#e4e4e4" d="
  M 1029.75 189.46
  Q 1051.10 226.79 1055.75 269.66
  A 0.41 0.41 0.0 0 0 1056.22 270.02
  L 1057.42 269.82
  Q 1057.99 269.72 1057.99 269.14
  Q 1058.14 246.35 1053.71 224.00
  C 1097.44 213.24 1138.89 218.52 1173.42 249.08
  Q 1181.18 255.95 1192.60 269.17
  Q 1196.62 273.83 1202.96 270.75
  Q 1211.75 293.25 1210.91 319.76
  C 1210.86 321.64 1212.86 321.37 1214.27 321.13
  Q 1266.42 312.51 1313.75 335.29
  C 1311.62 343.24 1322.01 357.17 1325.96 363.22
  Q 1347.85 396.70 1347.39 436.62
  C 1347.17 456.18 1347.77 473.86 1341.29 492.70
  C 1319.45 556.24 1263.46 599.09 1195.81 600.71
  C 1181.33 601.05 1167.53 599.22 1153.19 596.04
  C 1151.26 595.61 1150.23 597.07 1150.11 598.89
  C 1148.46 624.38 1139.30 648.65 1122.87 668.13
  C 1070.34 730.41 980.43 728.99 927.43 668.28
  C 926.37 667.07 925.23 665.69 923.82 667.31
  Q 913.24 679.43 892.88 704.71
  C 809.13 677.83 723.77 683.48 640.22 706.66
  C 610.17 683.62 590.29 652.98 585.24 614.96
  Q 584.82 611.80 582.33 612.52
  Q 553.33 620.91 526.52 621.83
  C 448.40 624.49 383.45 581.74 351.95 511.27
  Q 349.16 505.03 346.43 498.66
  A 2.18 2.17 -6.4 0 0 344.82 497.38
  Q 341.04 496.69 337.46 494.50
  Q 340.75 473.89 331.71 455.25
  C 333.98 453.82 338.67 453.57 338.80 450.25
  C 339.38 434.53 339.70 418.67 341.89 403.07
  Q 342.82 396.47 345.11 390.15
  Q 358.14 354.05 381.58 324.32
  C 384.79 320.25 384.04 317.15 384.46 312.25
  Q 412.54 296.49 444.12 292.26
  Q 485.94 296.91 516.25 325.33
  A 1.75 1.75 0.0 0 0 519.12 324.58
  C 535.16 273.93 566.83 229.82 622.53 220.21
  C 650.37 215.40 677.61 218.94 704.93 225.08
  Q 695.74 258.05 703.48 290.90
  A 0.25 0.25 0.0 0 0 703.98 290.84
  Q 703.80 258.36 714.04 227.75
  C 718.35 228.43 720.93 226.76 723.33 223.04
  Q 727.00 217.37 730.76 211.77
  C 769.60 153.94 833.43 117.39 904.70 125.05
  Q 956.79 130.65 996.91 165.10
  Q 1005.62 172.58 1018.65 186.58
  Q 1022.97 191.23 1029.75 189.46
  Z
  M 973.2795 190.3456
  A 84.68 43.38 0.2 0 0 888.7514 146.6703
  A 84.68 43.38 0.2 0 0 803.9205 189.7544
  A 84.68 43.38 0.2 0 0 888.4486 233.4297
  A 84.68 43.38 0.2 0 0 973.2795 190.3456
  Z
  M 646.67 271.20
  C 658.11 267.28 662.77 256.32 660.43 244.65
  A 2.01 2.01 0.0 0 0 659.32 243.23
  C 640.82 234.32 620.57 228.54 603.24 243.28
  C 593.76 251.34 597.11 259.90 606.59 265.66
  C 618.07 272.64 633.95 275.57 646.67 271.20
  Z
  M 690.32 433.76
  C 699.11 426.26 708.75 423.19 720.08 420.90
  A 0.79 0.79 0.0 0 0 720.24 419.41
  C 712.23 415.93 689.74 422.07 689.42 433.32
  A 0.55 0.55 0.0 0 0 690.32 433.76
  Z
  M 994.15 428.77
  C 986.27 421.08 977.54 417.42 966.48 419.39
  A 0.41 0.41 0.0 0 0 966.40 420.17
  L 993.07 430.72
  Q 993.67 430.96 994.00 430.41
  L 994.30 429.89
  Q 994.67 429.27 994.15 428.77
  Z
  M 725.00 498.24
  C 711.48 503.95 703.64 493.41 701.77 481.18
  A 1.39 1.39 0.0 0 0 700.55 480.01
  C 693.68 479.21 694.64 487.16 696.73 491.22
  C 708.12 513.41 735.14 511.86 741.55 487.26
  Q 743.13 481.19 737.45 479.52
  A 1.02 1.02 0.0 0 0 736.15 480.33
  C 734.82 488.13 732.58 495.04 725.00 498.24
  Z
  M 983.33 482.00
  C 982.89 506.77 950.98 505.05 949.80 480.82
  Q 949.77 480.23 949.19 480.11
  Q 946.53 479.57 944.57 481.36
  Q 944.24 481.67 944.23 482.13
  C 943.79 512.66 983.89 513.87 989.84 486.83
  C 990.39 484.33 990.59 481.28 987.73 480.21
  Q 985.60 479.41 983.72 481.12
  Q 983.33 481.47 983.33 482.00
  Z
  M 689.01 529.40
  A 30.53 24.60 0.0 0 0 658.48 504.80
  A 30.53 24.60 0.0 0 0 627.95 529.40
  A 30.53 24.60 0.0 0 0 658.48 554.00
  A 30.53 24.60 0.0 0 0 689.01 529.40
  Z
  M 1059.2700 529.2672
  A 30.27 24.28 -0.1 0 0 1028.9576 505.0400
  A 30.27 24.28 -0.1 0 0 998.7300 529.3728
  A 30.27 24.28 -0.1 0 0 1029.0424 553.6000
  A 30.27 24.28 -0.1 0 0 1059.2700 529.2672
  Z
  M 878.18 553.73
  C 873.81 597.29 816.30 601.82 809.77 557.03
  Q 809.27 553.60 806.65 551.26
  A 2.16 2.16 0.0 0 0 803.53 551.50
  C 802.06 553.31 802.95 554.97 803.13 556.76
  C 808.71 609.55 885.77 607.92 884.00 553.77
  Q 883.99 553.27 883.61 552.93
  C 882.21 551.69 878.41 551.39 878.18 553.73
  Z"
/>
<ellipse fill="#f1fcfe" cx="0.00" cy="0.00" transform="translate(888.60,190.05) rotate(0.2)" rx="84.68" ry="43.38"/>
<path fill="#cbcbcb" d="
  M 1202.96 270.75
  Q 1196.62 273.83 1192.60 269.17
  Q 1181.18 255.95 1173.42 249.08
  C 1138.89 218.52 1097.44 213.24 1053.71 224.00
  L 1048.30 207.19
  A 1.33 1.31 -22.2 0 1 1048.98 205.60
  C 1110.17 175.20 1178.41 210.74 1202.96 270.75
  Z"
/>
<path fill="#cbcbcb" d="
  M 704.93 225.08
  C 677.61 218.94 650.37 215.40 622.53 220.21
  C 566.83 229.82 535.16 273.93 519.12 324.58
  A 1.75 1.75 0.0 0 1 516.25 325.33
  Q 485.94 296.91 444.12 292.26
  Q 445.36 291.56 447.57 291.33
  Q 480.21 287.92 513.51 292.99
  C 515.40 293.28 516.34 291.91 516.97 290.20
  C 545.61 212.05 629.81 173.72 706.58 209.16
  Q 708.69 210.13 708.19 212.24
  Q 706.67 218.57 704.93 225.08
  Z"
/>
<path fill="#f1fcfe" d="
  M 660.43 244.65
  C 662.77 256.32 658.11 267.28 646.67 271.20
  C 633.95 275.57 618.07 272.64 606.59 265.66
  C 597.11 259.90 593.76 251.34 603.24 243.28
  C 620.57 228.54 640.82 234.32 659.32 243.23
  A 2.01 2.01 0.0 0 1 660.43 244.65
  Z"
/>
<path fill="#cbcbcb" d="
  M 384.46 312.25
  C 384.04 317.15 384.79 320.25 381.58 324.32
  Q 358.14 354.05 345.11 390.15
  Q 342.82 396.47 341.89 403.07
  C 339.70 418.67 339.38 434.53 338.80 450.25
  C 338.67 453.57 333.98 453.82 331.71 455.25
  C 318.79 441.37 304.52 432.31 287.87 423.53
  A 1.35 1.34 -66.4 0 1 287.23 421.89
  Q 313.91 347.44 384.46 312.25
  Z"
/>
<path fill="#cbcbcb" d="
  M 1313.75 335.29
  Q 1357.05 354.12 1382.96 393.50
  Q 1382.80 393.48 1382.65 393.49
  Q 1382.30 393.52 1382.16 393.83
  C 1378.58 401.70 1381.36 408.02 1384.75 415.16
  C 1406.24 460.34 1397.61 512.50 1375.04 555.06
  C 1338.10 624.70 1257.42 655.08 1182.24 637.26
  C 1180.60 636.87 1179.22 638.19 1179.01 639.86
  C 1174.91 673.10 1164.00 702.12 1142.20 726.97
  Q 1140.81 728.56 1140.75 729.46
  Q 1026.18 749.28 915.75 713.79
  L 901.19 708.75
  Q 897.66 705.62 892.88 704.71
  Q 913.24 679.43 923.82 667.31
  C 925.23 665.69 926.37 667.07 927.43 668.28
  C 980.43 728.99 1070.34 730.41 1122.87 668.13
  C 1139.30 648.65 1148.46 624.38 1150.11 598.89
  C 1150.23 597.07 1151.26 595.61 1153.19 596.04
  C 1167.53 599.22 1181.33 601.05 1195.81 600.71
  C 1263.46 599.09 1319.45 556.24 1341.29 492.70
  C 1347.77 473.86 1347.17 456.18 1347.39 436.62
  Q 1347.85 396.70 1325.96 363.22
  C 1322.01 357.17 1311.62 343.24 1313.75 335.29
  Z
  M 1384.5824 467.0122
  A 6.44 3.77 35.2 0 0 1381.4931 460.2194
  A 6.44 3.77 35.2 0 0 1374.0576 459.5878
  A 6.44 3.77 35.2 0 0 1377.1469 466.3806
  A 6.44 3.77 35.2 0 0 1384.5824 467.0122
  Z"
/>
<path fill="#242424" d="
  M 224.08 361.33
  Q 225.05 360.70 226.10 361.17
  Q 226.88 361.53 226.30 362.16
  L 224.14 364.54
  Q 223.71 365.01 223.37 364.48
  L 222.12 362.54
  Q 221.75 361.96 222.43 361.82
  L 223.28 361.66
  Q 223.72 361.57 224.08 361.33
  Z"
/>
<path fill="#e4e4e4" d="
  M 1382.96 393.50
  C 1475.15 529.52 1349.31 703.88 1191.65 658.18
  A 1.95 1.94 8.9 0 0 1189.16 659.99
  Q 1188.17 692.41 1172.90 721.18
  C 1170.76 725.20 1168.44 725.18 1163.63 725.91
  Q 1152.19 727.66 1140.75 729.46
  Q 1140.81 728.56 1142.20 726.97
  C 1164.00 702.12 1174.91 673.10 1179.01 639.86
  C 1179.22 638.19 1180.60 636.87 1182.24 637.26
  C 1257.42 655.08 1338.10 624.70 1375.04 555.06
  C 1397.61 512.50 1406.24 460.34 1384.75 415.16
  C 1381.36 408.02 1378.58 401.70 1382.16 393.83
  Q 1382.30 393.52 1382.65 393.49
  Q 1382.80 393.48 1382.96 393.50
  Z"
/>
<path fill="#242424" d="
  M 720.08 420.90
  C 708.75 423.19 699.11 426.26 690.32 433.76
  A 0.55 0.55 0.0 0 1 689.42 433.32
  C 689.74 422.07 712.23 415.93 720.24 419.41
  A 0.79 0.79 0.0 0 1 720.08 420.90
  Z"
/>
<path fill="#242424" d="
  M 966.48 419.39
  C 977.54 417.42 986.27 421.08 994.15 428.77
  Q 994.67 429.27 994.30 429.89
  L 994.00 430.41
  Q 993.67 430.96 993.07 430.72
  L 966.40 420.17
  A 0.41 0.41 0.0 0 1 966.48 419.39
  Z"
/>
<ellipse fill="#e4e4e4" cx="0.00" cy="0.00" transform="translate(1379.32,463.30) rotate(35.2)" rx="6.44" ry="3.77"/>
<path fill="#242424" d="
  M 725.00 498.24
  C 732.58 495.04 734.82 488.13 736.15 480.33
  A 1.02 1.02 0.0 0 1 737.45 479.52
  Q 743.13 481.19 741.55 487.26
  C 735.14 511.86 708.12 513.41 696.73 491.22
  C 694.64 487.16 693.68 479.21 700.55 480.01
  A 1.39 1.39 0.0 0 1 701.77 481.18
  C 703.64 493.41 711.48 503.95 725.00 498.24
  Z"
/>
<path fill="#242424" d="
  M 949.80 480.82
  C 950.98 505.05 982.89 506.77 983.33 482.00
  Q 983.33 481.47 983.72 481.12
  Q 985.60 479.41 987.73 480.21
  C 990.59 481.28 990.39 484.33 989.84 486.83
  C 983.89 513.87 943.79 512.66 944.23 482.13
  Q 944.24 481.67 944.57 481.36
  Q 946.53 479.57 949.19 480.11
  Q 949.77 480.23 949.80 480.82
  Z"
/>
<path fill="#cbcbcb" d="
  M 337.46 494.50
  Q 341.04 496.69 344.82 497.38
  A 2.18 2.17 -6.4 0 1 346.43 498.66
  Q 349.16 505.03 351.95 511.27
  C 383.45 581.74 448.40 624.49 526.52 621.83
  Q 553.33 620.91 582.33 612.52
  Q 584.82 611.80 585.24 614.96
  C 590.29 652.98 610.17 683.62 640.22 706.66
  L 581.12 722.73
  Q 564.83 691.07 558.97 655.73
  A 1.39 1.38 75.9 0 0 557.16 654.64
  C 491.45 676.47 419.83 668.22 365.55 624.19
  Q 326.69 592.65 302.72 545.18
  Q 324.50 523.68 337.46 494.50
  Z"
/>
<path fill="#242424" d="
  M 689.01 529.40
  A 30.53 24.60 0.0 0 1 658.48 554.00
  A 30.53 24.60 0.0 0 1 627.95 529.40
  A 30.53 24.60 0.0 0 1 658.48 504.80
  A 30.53 24.60 0.0 0 1 689.01 529.40
  Z
  M 685.5196 529.3904
  A 26.82 20.44 0.3 0 0 658.8070 508.8103
  A 26.82 20.44 0.3 0 0 631.8804 529.1096
  A 26.82 20.44 0.3 0 0 658.5930 549.6897
  A 26.82 20.44 0.3 0 0 685.5196 529.3904
  Z"
/>
<path fill="#242424" d="
  M 1059.2700 529.2672
  A 30.27 24.28 -0.1 0 1 1029.0424 553.6000
  A 30.27 24.28 -0.1 0 1 998.7300 529.3728
  A 30.27 24.28 -0.1 0 1 1028.9576 505.0400
  A 30.27 24.28 -0.1 0 1 1059.2700 529.2672
  Z
  M 1055.5594 529.1740
  A 26.64 20.84 -0.4 0 0 1028.7745 508.5205
  A 26.64 20.84 -0.4 0 0 1002.2806 529.5460
  A 26.64 20.84 -0.4 0 0 1029.0655 550.1995
  A 26.64 20.84 -0.4 0 0 1055.5594 529.1740
  Z"
/>
<ellipse fill="#e16852" cx="0.00" cy="0.00" transform="translate(1028.92,529.36) rotate(-0.4)" rx="26.64" ry="20.84"/>
<ellipse fill="#e16852" cx="0.00" cy="0.00" transform="translate(658.70,529.25) rotate(0.3)" rx="26.82" ry="20.44"/>
<path fill="#e4e4e4" d="
  M 302.72 545.18
  Q 326.69 592.65 365.55 624.19
  C 419.83 668.22 491.45 676.47 557.16 654.64
  A 1.39 1.38 75.9 0 1 558.97 655.73
  Q 564.83 691.07 581.12 722.73
  L 569.66 726.84
  A 2.19 2.18 68.1 0 1 566.93 725.67
  Q 557.73 705.23 556.27 682.04
  C 556.08 679.08 556.86 676.47 553.57 674.96
  Q 553.06 674.72 552.55 674.93
  C 450.42 716.31 339.45 670.55 292.99 572.01
  C 287.43 560.22 293.61 551.94 302.72 545.18
  Z"
/>
<path fill="#242424" d="
  M 809.77 557.03
  C 816.30 601.82 873.81 597.29 878.18 553.73
  C 878.41 551.39 882.21 551.69 883.61 552.93
  Q 883.99 553.27 884.00 553.77
  C 885.77 607.92 808.71 609.55 803.13 556.76
  C 802.95 554.97 802.06 553.31 803.53 551.50
  A 2.16 2.16 0.0 0 1 806.65 551.26
  Q 809.27 553.60 809.77 557.03
  Z"
/>
<path fill="#d8d9d9" d="
  M 901.19 708.75
  L 915.75 713.79
  C 999.11 748.91 1087.34 754.41 1175.47 735.56
  C 1249.93 719.64 1331.84 693.51 1402.37 739.55
  C 1407.38 742.82 1411.09 748.71 1416.26 751.05
  Q 1416.98 751.37 1416.46 750.77
  Q 1411.45 744.92 1405.49 740.47
  Q 1409.65 741.40 1413.05 743.70
  Q 1413.46 743.98 1413.96 743.99
  C 1418.66 744.09 1421.99 740.86 1426.00 741.00
  C 1482.56 742.95 1539.39 741.99 1596.00 742.06
  L 1596.00 834.06
  Q 1529.81 835.26 1415.00 834.64
  Q 1403.51 834.57 1395.97 828.18
  C 1393.06 825.72 1390.74 824.91 1387.36 823.77
  Q 1386.53 823.49 1387.09 822.82
  L 1388.69 820.86
  Q 1389.01 820.48 1388.54 820.30
  C 1387.30 819.82 1385.41 820.68 1385.42 818.94
  Q 1399.76 818.81 1413.99 817.95
  Q 1414.59 817.92 1414.93 817.78
  A 0.89 0.88 -45.1 0 0 1414.93 816.14
  C 1330.44 782.17 1238.18 814.62 1159.25 846.04
  C 1148.91 841.78 1131.68 833.89 1128.71 822.00
  C 1172.29 805.39 1214.31 786.11 1256.51 766.31
  C 1309.01 741.68 1361.84 734.49 1417.65 753.37
  Q 1418.04 753.50 1418.46 753.50
  L 1419.22 753.50
  Q 1419.43 753.50 1419.23 753.42
  Q 1369.50 733.69 1316.54 742.76
  C 1241.57 755.59 1178.44 802.43 1104.80 819.39
  C 1025.04 837.76 939.84 836.14 861.18 816.60
  C 826.26 807.92 788.63 794.21 752.82 782.18
  C 729.93 774.50 707.82 767.90 685.05 765.05
  C 656.05 761.42 629.36 764.95 601.20 772.23
  C 566.91 781.09 532.47 789.76 497.53 795.67
  C 466.94 800.83 435.15 803.27 406.27 796.71
  C 387.86 792.53 366.07 780.00 362.84 759.49
  C 358.59 732.51 390.62 705.11 411.55 694.52
  C 418.82 690.84 428.49 693.33 435.62 696.78
  A 1.00 1.00 0.0 0 1 435.81 698.47
  C 424.42 707.50 412.01 723.44 419.26 738.35
  C 430.21 760.88 472.65 761.20 493.01 757.98
  Q 517.17 754.15 539.50 746.48
  C 655.72 706.53 778.87 672.10 901.19 708.75
  Z
  M 637.00 753.52
  C 671.19 748.26 706.95 749.36 741.22 756.40
  Q 755.17 759.27 770.50 765.49
  C 827.41 788.59 889.18 804.75 951.09 809.93
  C 1019.72 815.67 1089.35 803.33 1155.21 785.47
  C 1159.07 784.42 1161.51 782.76 1164.05 779.96
  A 0.40 0.39 12.5 0 0 1163.64 779.32
  C 1044.59 815.29 920.73 814.43 803.93 771.45
  C 774.19 760.51 745.42 750.28 713.55 747.48
  Q 657.01 742.53 601.34 754.47
  Q 593.87 756.07 587.24 758.82
  A 0.67 0.67 0.0 0 0 587.57 760.10
  Q 612.57 757.29 637.00 753.52
  Z"
/>
<path fill="#e4e4e4" d="
  M 358.03 732.10
  Q 350.04 749.68 355.15 768.43
  Q 345.24 774.79 336.10 782.26
  C 335.45 782.79 334.19 783.26 333.36 783.30
  C 311.44 784.19 289.48 785.54 267.57 786.22
  C 248.79 786.81 230.24 784.33 211.47 784.15
  Q 156.07 783.60 100.68 784.58
  C 83.33 784.88 65.45 788.19 48.20 786.06
  Q 26.80 783.41 5.25 784.80
  Q 2.58 784.97 0.00 785.69
  L 0.00 739.94
  C 33.13 736.35 69.98 738.95 105.06 738.97
  Q 210.90 739.03 316.73 738.99
  Q 316.85 738.99 323.75 739.31
  C 334.43 739.80 339.92 735.17 348.02 729.93
  Q 348.45 729.65 348.95 729.78
  L 358.03 732.10
  Z"
/>
<path fill="#242424" d="
  M 741.22 756.40
  C 706.95 749.36 671.19 748.26 637.00 753.52
  Q 612.57 757.29 587.57 760.10
  A 0.67 0.67 0.0 0 1 587.24 758.82
  Q 593.87 756.07 601.34 754.47
  Q 657.01 742.53 713.55 747.48
  C 745.42 750.28 774.19 760.51 803.93 771.45
  C 920.73 814.43 1044.59 815.29 1163.64 779.32
  A 0.40 0.39 12.5 0 1 1164.05 779.96
  C 1161.51 782.76 1159.07 784.42 1155.21 785.47
  C 1089.35 803.33 1019.72 815.67 951.09 809.93
  C 889.18 804.75 827.41 788.59 770.50 765.49
  Q 755.17 759.27 741.22 756.40
  Z"
/>
<path fill="#cbcbcb" d="
  M 355.15 768.43
  C 377.25 815.31 433.08 816.18 476.75 808.99
  Q 536.69 799.12 595.71 784.70
  C 597.49 784.26 599.97 784.98 601.42 786.03
  C 647.80 819.37 697.65 828.22 751.30 805.95
  C 756.53 803.78 766.38 798.42 769.76 799.46
  Q 822.07 815.57 836.31 819.69
  C 932.42 847.48 1032.32 849.89 1128.71 822.00
  C 1131.68 833.89 1148.91 841.78 1159.25 846.04
  C 1057.46 893.76 935.60 887.48 830.71 854.63
  Q 829.05 854.11 829.68 855.97
  A 1.28 1.28 0.0 0 0 830.18 856.62
  Q 857.69 875.01 887.54 887.44
  L 891.50 897.86
  A 1.89 1.88 62.9 0 1 890.78 900.11
  C 884.53 904.20 877.33 905.51 867.98 906.61
  C 833.80 910.62 799.56 909.10 765.25 909.05
  C 510.16 908.67 255.06 908.69 0.00 909.69
  L 0.00 785.69
  Q 2.58 784.97 5.25 784.80
  Q 26.80 783.41 48.20 786.06
  C 65.45 788.19 83.33 784.88 100.68 784.58
  Q 156.07 783.60 211.47 784.15
  C 230.24 784.33 248.79 786.81 267.57 786.22
  C 289.48 785.54 311.44 784.19 333.36 783.30
  C 334.19 783.26 335.45 782.79 336.10 782.26
  Q 345.24 774.79 355.15 768.43
  Z"
/>
<path fill="#bcbcbc" d="
  M 614.37 781.23
  C 638.35 776.23 664.82 772.50 689.76 776.95
  Q 721.71 782.64 752.40 793.50
  A 1.44 1.43 -46.4 0 1 752.46 796.18
  Q 680.34 825.88 615.01 784.74
  Q 614.15 784.20 613.54 783.34
  Q 612.35 781.66 614.37 781.23
  Z"
/>
<path fill="#242424" d="
  M 1385.42 818.94
  C 1335.71 824.78 1287.58 840.19 1241.97 860.42
  Q 1190.67 883.18 1174.19 889.93
  Q 1150.23 899.74 1135.44 904.16
  Q 1023.89 937.52 914.57 898.16
  Q 904.11 894.39 887.54 887.44
  Q 857.69 875.01 830.18 856.62
  A 1.28 1.28 0.0 0 1 829.68 855.97
  Q 829.05 854.11 830.71 854.63
  C 935.60 887.48 1057.46 893.76 1159.25 846.04
  C 1238.18 814.62 1330.44 782.17 1414.93 816.14
  A 0.89 0.88 -45.1 0 1 1414.93 817.78
  Q 1414.59 817.92 1413.99 817.95
  Q 1399.76 818.81 1385.42 818.94
  Z
  M 1001.00 888.99
  C 970.68 889.36 939.66 885.59 910.00 879.38
  C 902.82 877.87 897.04 874.80 889.38 873.70
  Q 875.08 871.64 861.51 866.53
  C 859.40 865.74 858.29 866.75 858.63 868.91
  Q 858.71 869.38 859.07 869.68
  Q 859.76 870.26 860.58 870.67
  Q 935.50 908.12 1019.50 909.94
  C 1061.51 910.86 1103.48 905.72 1142.51 892.42
  C 1176.42 880.88 1209.03 865.95 1241.89 851.77
  C 1292.47 829.94 1345.37 817.55 1400.59 815.12
  A 1.22 1.20 89.8 0 0 1401.74 813.95
  Q 1401.79 812.61 1400.49 812.28
  C 1366.93 803.59 1331.03 804.83 1297.23 811.41
  C 1248.29 820.95 1203.34 839.15 1157.36 857.67
  Q 1082.03 888.00 1001.00 888.99
  Z"
/>
<path fill="#bcbcbc" d="
  M 1001.00 888.99
  Q 1082.03 888.00 1157.36 857.67
  C 1203.34 839.15 1248.29 820.95 1297.23 811.41
  C 1331.03 804.83 1366.93 803.59 1400.49 812.28
  Q 1401.79 812.61 1401.74 813.95
  A 1.22 1.20 89.8 0 1 1400.59 815.12
  C 1345.37 817.55 1292.47 829.94 1241.89 851.77
  C 1209.03 865.95 1176.42 880.88 1142.51 892.42
  C 1103.48 905.72 1061.51 910.86 1019.50 909.94
  Q 935.50 908.12 860.58 870.67
  Q 859.76 870.26 859.07 869.68
  Q 858.71 869.38 858.63 868.91
  C 858.29 866.75 859.40 865.74 861.51 866.53
  Q 875.08 871.64 889.38 873.70
  C 897.04 874.80 902.82 877.87 910.00 879.38
  C 939.66 885.59 970.68 889.36 1001.00 888.99
  Z"
/>
<path fill="#bcbcbc" d="
  M 1385.42 818.94
  C 1385.41 820.68 1387.30 819.82 1388.54 820.30
  Q 1389.01 820.48 1388.69 820.86
  L 1387.09 822.82
  Q 1386.53 823.49 1387.36 823.77
  C 1390.74 824.91 1393.06 825.72 1395.97 828.18
  Q 1403.51 834.57 1415.00 834.64
  Q 1529.81 835.26 1596.00 834.06
  L 1596.00 936.00
  L 1060.19 936.00
  Q 1060.28 935.80 1060.26 935.59
  Q 1060.21 935.14 1059.76 935.13
  Q 1035.51 934.78 1011.26 934.56
  C 998.03 934.44 982.04 935.50 968.75 934.94
  Q 966.97 934.87 966.69 936.00
  L 0.00 936.00
  L 0.00 909.69
  C 255.06 908.69 510.16 908.67 765.25 909.05
  C 799.56 909.10 833.80 910.62 867.98 906.61
  C 877.33 905.51 884.53 904.20 890.78 900.11
  A 1.89 1.88 62.9 0 0 891.50 897.86
  L 887.54 887.44
  Q 904.11 894.39 914.57 898.16
  Q 1023.89 937.52 1135.44 904.16
  Q 1150.23 899.74 1174.19 889.93
  Q 1190.67 883.18 1241.97 860.42
  C 1287.58 840.19 1335.71 824.78 1385.42 818.94
  Z"
/>
<path fill="#f1fcfe" d="
  M 1060.19 936.00
  L 966.69 936.00
  Q 966.97 934.87 968.75 934.94
  C 982.04 935.50 998.03 934.44 1011.26 934.56
  Q 1035.51 934.78 1059.76 935.13
  Q 1060.21 935.14 1060.26 935.59
  Q 1060.28 935.80 1060.19 936.00
  Z"
/>
</svg>
