<?xml version="1.0" standalone="no"?>
<!DOCTYPE svg PUBLIC "-//W3C//DTD SVG 20010904//EN"
 "http://www.w3.org/TR/2001/REC-SVG-20010904/DTD/svg10.dtd">
<svg version="1.0" xmlns="http://www.w3.org/2000/svg"
 width="1052.000000pt" height="1052.000000pt" viewBox="0 0 1052.000000 1052.000000"
 preserveAspectRatio="xMidYMid meet">

<g transform="translate(0.000000,1052.000000) scale(0.100000,-0.100000)"
fill="#000000" stroke="none">
<path d="M6220 8725 c-47 -8 -102 -14 -123 -15 -20 0 -63 -6 -95 -14 -31 -8
-95 -24 -142 -36 -193 -49 -384 -135 -570 -258 -87 -58 -150 -111 -258 -219
-78 -79 -148 -143 -155 -143 -7 0 -29 16 -48 36 -45 48 -147 129 -239 191
-225 150 -461 237 -722 264 -289 30 -623 -52 -861 -213 -211 -143 -434 -457
-602 -848 -15 -36 -33 -78 -40 -95 -20 -45 -105 -306 -105 -320 0 -26 -40 -61
-96 -84 -274 -108 -535 -295 -682 -489 -117 -154 -148 -219 -197 -417 -24 -94
-27 -122 -23 -214 6 -126 43 -291 92 -413 130 -323 379 -518 776 -609 79 -18
134 -22 325 -25 127 -2 233 -4 236 -4 4 0 28 -33 54 -73 120 -179 286 -366
410 -458 95 -71 207 -128 307 -157 87 -24 107 -26 313 -26 243 -1 289 6 483
70 140 47 249 101 347 173 28 21 56 41 63 45 9 5 44 -12 100 -51 407 -280 860
-453 1186 -453 211 0 572 78 761 165 216 99 407 255 523 426 39 59 112 198
112 216 0 18 52 17 125 -3 137 -36 460 -55 605 -35 650 89 1032 531 1095 1266
7 87 9 157 4 167 -5 9 -9 45 -9 80 0 35 -5 79 -10 98 -5 19 -16 64 -25 100
-106 434 -419 798 -895 1043 -74 38 -141 74 -147 79 -7 6 -17 29 -23 52 -53
214 -175 463 -310 631 -256 320 -594 504 -1040 565 -135 19 -402 21 -500 5z
m580 -144 c292 -60 475 -144 664 -305 237 -201 391 -452 486 -791 12 -44 30
-88 38 -98 9 -10 78 -49 153 -86 226 -113 357 -207 520 -371 229 -231 346
-477 379 -793 17 -160 -6 -337 -75 -592 -16 -56 -51 -129 -135 -280 -118 -214
-324 -369 -580 -439 -248 -67 -504 -62 -815 15 -148 36 -162 29 -221 -107 -88
-201 -228 -369 -393 -471 -310 -192 -787 -283 -1106 -213 -150 33 -303 89
-476 173 -133 64 -373 204 -389 227 -10 14 -136 91 -158 97 -31 7 -58 -6 -134
-65 -60 -46 -179 -122 -192 -122 -3 0 -29 -11 -58 -25 -156 -72 -490 -131
-606 -106 -29 6 -72 11 -95 11 -97 0 -264 71 -379 163 -72 56 -174 160 -235
238 -57 72 -163 225 -163 235 0 3 -14 24 -32 46 l-32 41 -95 -8 c-286 -25
-525 6 -732 92 -114 48 -183 93 -262 170 -186 182 -275 458 -247 764 13 140
37 228 85 317 128 231 370 424 703 558 48 19 97 44 109 56 14 13 37 65 58 132
176 547 395 930 651 1136 128 102 322 181 540 219 86 15 274 13 372 -4 138
-24 209 -47 340 -106 35 -16 65 -29 68 -29 2 0 45 -24 93 -54 118 -72 233
-160 325 -250 42 -41 85 -78 97 -81 36 -12 78 15 125 81 66 93 250 263 371
344 148 100 312 179 448 217 28 8 75 21 105 29 73 21 206 44 305 54 137 14
467 3 575 -19z"/>
<path d="M3751 7208 c-62 -28 -124 -96 -149 -163 -94 -246 148 -490 375 -378
61 29 119 91 145 156 24 60 23 172 -1 228 -66 149 -234 220 -370 157z"/>
<path d="M6415 7208 c-105 -54 -168 -155 -169 -273 -1 -86 26 -150 87 -213
138 -142 360 -96 449 93 48 103 23 242 -60 329 -79 83 -216 112 -307 64z"/>
<path d="M5822 6258 c-17 -13 -64 -49 -106 -81 -96 -73 -199 -128 -301 -161
-69 -23 -97 -26 -210 -26 -228 0 -388 62 -552 213 -73 69 -113 76 -133 27 -24
-58 -8 -98 69 -172 242 -232 625 -304 935 -177 141 59 360 209 391 269 21 40
19 86 -5 110 -26 26 -50 25 -88 -2z"/>
<path d="M6927 3689 c-64 -42 -229 -200 -292 -279 -66 -83 -132 -204 -152
-277 -9 -32 -18 -95 -20 -140 -4 -68 -1 -89 18 -132 23 -56 61 -93 116 -116
134 -56 298 76 379 305 15 43 39 142 50 205 11 64 5 417 -7 432 -28 33 -45 33
-92 2z m3 -274 c-2 -180 -24 -297 -77 -403 -57 -113 -101 -154 -182 -173 -47
-10 -69 3 -93 59 -17 38 -20 58 -15 116 10 114 47 200 141 326 39 52 209 221
219 217 5 -1 8 -66 7 -142z"/>
<path d="M3125 3453 c-35 -18 -157 -125 -228 -198 -171 -176 -258 -351 -260
-525 -1 -95 17 -144 71 -195 81 -76 185 -70 285 15 86 75 149 191 193 360 21
82 33 484 15 518 -18 35 -42 42 -76 25z m-17 -305 c-8 -220 -39 -341 -124
-468 -29 -43 -81 -79 -130 -90 -46 -11 -65 -1 -94 45 -49 80 -15 262 74 390
60 87 247 284 270 285 5 0 7 -70 4 -162z"/>
<path d="M5005 3453 c-69 -36 -267 -228 -340 -329 -53 -73 -110 -184 -126
-245 -20 -75 -23 -216 -5 -264 29 -74 112 -135 186 -135 116 0 266 158 317
335 11 39 26 88 33 110 17 56 26 475 11 503 -18 35 -42 42 -76 25z m-18 -305
c-7 -190 -30 -297 -84 -401 -52 -98 -105 -146 -179 -160 -100 -19 -140 140
-76 305 16 42 53 111 82 153 52 74 234 265 253 265 7 0 8 -58 4 -162z"/>
<path d="M3775 2418 c-11 -6 -51 -39 -89 -72 -267 -235 -386 -434 -390 -651
-1 -101 27 -164 92 -210 37 -25 53 -30 105 -30 100 0 164 43 245 165 97 144
137 337 130 617 -3 131 -6 155 -22 172 -21 23 -41 26 -71 9z m-8 -296 c-4
-101 -13 -186 -25 -237 -20 -83 -79 -225 -93 -225 -4 0 -11 -9 -14 -20 -13
-42 -131 -99 -175 -85 -39 12 -62 69 -62 151 1 165 86 313 292 511 36 34 69
63 74 63 5 0 7 -66 3 -158z"/>
<path d="M5845 2418 c-77 -44 -275 -241 -347 -346 -50 -74 -108 -186 -108
-210 0 -7 -7 -36 -16 -63 -20 -59 -15 -173 9 -229 42 -97 143 -140 251 -108
86 26 211 185 249 318 9 30 24 82 34 115 14 48 17 102 17 276 1 200 -1 219
-18 238 -21 23 -41 26 -71 9z m-5 -225 c-1 -185 -28 -346 -78 -453 -48 -101
-80 -138 -149 -174 -47 -24 -82 -20 -110 12 -75 86 -44 268 75 436 52 74 235
266 254 266 4 0 8 -39 8 -87z"/>
</g>
</svg>
