<?xml version="1.0" encoding="UTF-8" standalone="no"?>
<!DOCTYPE svg PUBLIC "-//W3C//DTD SVG 1.1//EN" "http://www.w3.org/Graphics/SVG/1.1/DTD/svg11.dtd">
<svg xmlns="http://www.w3.org/2000/svg" version="1.1" viewBox="0.00 0.00 1428.00 1076.00">
<g stroke-width="2.00" fill="none" stroke-linecap="butt">
<path stroke="#7e6118" vector-effect="non-scaling-stroke" d="
  M 549.78 765.98
  L 549.96 742.00"
/>
<path stroke="#817931" vector-effect="non-scaling-stroke" d="
  M 549.96 742.00
  Q 551.56 722.48 557.99 704.17
  A 2.05 2.04 28.0 0 0 557.28 701.85
  C 509.81 666.73 477.69 620.22 463.88 563.02
  C 451.01 509.68 457.97 453.06 481.00 403.89
  C 538.80 280.44 695.43 230.05 813.94 298.08
  C 888.01 340.59 932.82 416.47 937.21 501.09
  A 1.00 1.00 0.0 0 0 938.90 501.76
  Q 951.04 490.29 966.04 482.00"
/>
<path stroke="#7e6118" vector-effect="non-scaling-stroke" d="
  M 966.04 482.00
  Q 987.45 471.41 1011.00 467.29"
/>
<path stroke="#817931" vector-effect="non-scaling-stroke" d="
  M 1011.00 467.29
  Q 1036.94 465.80 1061.78 473.04
  C 1066.53 474.43 1071.77 473.12 1071.81 467.14
  C 1071.86 460.98 1067.07 460.92 1061.57 459.92
  Q 1017.73 451.97 973.85 444.19
  Q 963.40 442.33 960.19 440.34
  C 951.36 434.87 954.28 423.59 959.58 416.33
  Q 977.18 392.17 994.69 367.94
  C 998.17 363.12 995.05 359.24 989.92 358.71
  Q 955.77 355.17 921.67 351.23
  C 908.11 349.66 902.62 340.49 908.54 327.81
  Q 925.16 292.20 941.57 256.50
  C 945.06 248.90 939.69 245.19 932.64 247.36
  Q 872.65 265.76 855.52 270.56
  C 842.59 274.19 836.48 265.98 835.54 254.39
  C 832.94 222.12 830.68 189.57 826.19 157.51
  Q 825.61 153.43 824.58 149.37
  Q 824.45 148.87 824.03 148.56
  C 819.75 145.39 816.52 149.09 813.91 152.16
  Q 781.84 189.73 749.20 226.79
  Q 741.83 235.15 740.63 236.02
  C 731.95 242.37 722.62 234.11 718.04 226.46
  Q 701.70 199.17 684.72 172.27
  C 679.16 163.46 673.45 154.27 666.31 146.66
  Q 665.95 146.28 665.43 146.24
  C 660.01 145.80 659.42 149.41 657.87 154.24
  Q 643.86 198.01 629.60 241.70
  C 627.59 247.89 622.50 255.42 615.21 255.06
  Q 612.39 254.91 606.30 251.75
  Q 575.40 235.71 545.99 217.06
  C 539.51 212.95 535.74 215.80 534.79 222.93
  Q 530.76 253.29 525.51 283.46
  C 523.57 294.61 517.68 296.47 507.15 294.59
  Q 449.66 284.36 392.19 274.03
  C 386.83 273.06 383.07 278.38 386.04 282.95
  Q 415.74 328.72 444.97 374.79
  C 451.06 384.37 462.05 400.16 444.78 406.47
  Q 412.47 418.26 379.81 429.06
  C 375.23 430.58 374.78 436.15 378.32 439.18
  Q 397.43 455.49 416.48 471.86
  C 424.68 478.90 429.58 490.38 418.97 497.74
  Q 372.04 530.32 325.07 562.85
  C 317.42 568.15 333.23 572.95 336.20 573.38
  Q 385.37 580.68 434.21 589.94
  C 442.98 591.60 450.67 597.27 447.78 607.30
  Q 447.16 609.43 445.45 613.19
  Q 431.46 643.93 417.37 674.64
  C 414.51 680.86 418.97 683.08 424.54 683.04
  Q 461.96 682.71 481.94 683.31
  C 490.46 683.57 499.34 691.24 497.27 700.51
  Q 484.18 759.40 472.34 818.57
  Q 471.60 822.30 473.86 824.22
  C 477.52 827.33 480.34 825.21 483.67 823.03
  Q 516.34 801.66 548.85 780.06
  C 551.84 778.07 550.12 769.32 549.78 765.98"
/>
<path stroke="#f3b62c" vector-effect="non-scaling-stroke" d="
  M 1011.00 467.29
  Q 987.62 454.85 961.97 454.87
  A 2.45 2.45 0.0 0 0 959.54 457.04
  Q 957.94 471.06 966.04 482.00"
/>
<path stroke="#f3b62c" vector-effect="non-scaling-stroke" d="
  M 549.96 742.00
  Q 543.79 736.01 546.85 728.04
  C 547.42 726.54 547.53 725.51 546.28 724.48
  Q 529.53 710.84 512.85 697.43
  A 1.42 1.42 0.0 0 0 510.58 698.24
  Q 499.68 748.76 489.09 799.27
  Q 488.05 804.23 493.48 802.51
  A 2.73 2.57 -68.5 0 0 494.16 802.19
  L 549.78 765.98"
/>
<path stroke="#817931" vector-effect="non-scaling-stroke" d="
  M 504.75 379.21
  C 452.12 460.05 452.12 564.19 509.71 642.75"
/>
<path stroke="#818528" vector-effect="non-scaling-stroke" d="
  M 509.71 642.75
  Q 530.18 671.46 558.39 692.56
  C 560.57 694.19 561.88 695.69 563.50 692.25
  Q 575.10 667.58 592.95 646.38"
/>
<path stroke="#848c47" vector-effect="non-scaling-stroke" d="
  M 592.95 646.38
  Q 639.26 600.43 705.57 597.82
  A 1.36 1.36 0.0 0 0 706.82 596.85
  C 722.41 544.90 757.31 511.43 810.25 498.96"
/>
<path stroke="#724b31" vector-effect="non-scaling-stroke" d="
  M 810.25 498.96
  L 821.00 497.96"
/>
<path stroke="#848c47" vector-effect="non-scaling-stroke" d="
  M 821.00 497.96
  Q 859.76 491.75 894.71 509.00"
/>
<path stroke="#818528" vector-effect="non-scaling-stroke" d="
  M 894.71 509.00
  L 910.53 517.03"
/>
<path stroke="#817931" vector-effect="non-scaling-stroke" d="
  M 910.53 517.03
  L 918.73 522.78
  A 1.72 1.71 -50.1 0 0 920.93 522.58
  C 926.72 516.70 928.86 510.94 928.57 502.35
  Q 925.30 404.73 854.79 337.75"
/>
<path stroke="#818528" vector-effect="non-scaling-stroke" d="
  M 854.79 337.75
  C 747.69 239.91 586.23 261.20 504.75 379.21"
/>
<path stroke="#f6da3c" vector-effect="non-scaling-stroke" d="
  M 854.79 337.75
  C 852.69 338.87 845.66 342.67 848.68 345.82
  C 893.73 392.67 914.72 449.46 910.85 514.59
  Q 910.82 515.08 911.06 515.51
  Q 911.61 516.47 910.53 517.03"
/>
<path stroke="#f9ee52" vector-effect="non-scaling-stroke" d="
  M 894.71 509.00
  Q 895.63 507.76 897.78 506.32
  C 902.92 502.86 895.38 499.70 893.14 498.73
  A 2.42 2.42 0.0 0 1 891.68 496.62
  C 889.36 447.69 877.69 405.89 846.82 367.78
  C 808.12 320.01 745.87 294.07 685.25 299.24
  C 619.74 304.83 561.23 346.23 530.77 403.55
  C 503.43 454.98 504.61 517.89 530.28 569.98
  Q 552.42 614.89 592.95 646.38"
/>
<path stroke="#f6da3c" vector-effect="non-scaling-stroke" d="
  M 509.71 642.75
  Q 510.02 641.96 510.94 642.24
  Q 528.66 647.63 538.27 663.31
  C 540.16 666.39 541.20 668.20 544.41 670.59
  Q 552.93 676.94 557.99 680.29
  C 560.53 681.97 562.99 681.61 564.44 678.94
  Q 569.59 669.41 561.81 662.19
  C 555.99 656.78 549.56 651.15 544.45 645.87
  Q 490.47 589.99 484.53 512.23
  C 481.15 468.12 492.83 424.82 513.89 386.20
  Q 514.13 385.76 513.91 385.30
  Q 511.06 379.61 504.75 379.21"
/>
<path stroke="#eab45a" vector-effect="non-scaling-stroke" d="
  M 821.00 497.96
  L 822.04 494.25"
/>
<path stroke="#b9933f" vector-effect="non-scaling-stroke" d="
  M 822.04 494.25
  C 830.28 492.50 835.68 486.00 834.75 477.55
  C 832.80 459.85 800.74 457.79 796.84 476.57
  C 794.97 485.55 800.30 492.79 808.50 496.04"
/>
<path stroke="#eab45a" vector-effect="non-scaling-stroke" d="
  M 808.50 496.04
  L 810.25 498.96"
/>
<path stroke="#a65229" vector-effect="non-scaling-stroke" d="
  M 822.04 494.25
  C 819.37 488.12 826.67 487.23 828.69 483.94
  C 837.53 469.54 804.91 457.29 800.30 481.31
  Q 800.20 481.81 800.49 482.24
  C 803.58 486.78 806.93 490.18 808.50 496.04"
/>
<path stroke="#598083" vector-effect="non-scaling-stroke" d="
  M 67.46 448.25
  Q 38.33 466.74 26.50 499.21"
/>
<path stroke="#748b8b" vector-effect="non-scaling-stroke" d="
  M 26.50 499.21
  Q 10.47 541.45 27.69 581.47
  C 43.83 618.98 82.89 646.84 124.25 647.26
  Q 137.59 647.39 150.94 646.86
  Q 152.01 646.82 153.09 646.37
  Q 153.55 646.18 153.75 645.72
  Q 155.91 640.75 155.21 635.25"
/>
<path stroke="#598083" vector-effect="non-scaling-stroke" d="
  M 155.21 635.25
  L 157.96 622.25"
/>
<path stroke="#638589" vector-effect="non-scaling-stroke" d="
  M 157.96 622.25
  L 170.58 593.25
  A 0.28 0.28 0.0 0 1 171.11 593.44
  C 165.39 612.52 161.27 627.52 162.04 647.00"
/>
<path stroke="#598083" vector-effect="non-scaling-stroke" d="
  M 162.04 647.00
  Q 161.27 665.59 170.21 681.75"
/>
<path stroke="#748b8b" vector-effect="non-scaling-stroke" d="
  M 170.21 681.75
  C 202.21 744.74 284.05 747.14 323.33 690.23
  A 1.15 1.15 0.0 0 1 325.36 690.49
  C 337.79 724.46 372.93 737.01 401.03 711.49
  Q 403.96 708.83 407.00 706.21"
/>
<path stroke="#598083" vector-effect="non-scaling-stroke" d="
  M 407.00 706.21
  L 412.98 710.17"
/>
<path stroke="#748b8b" vector-effect="non-scaling-stroke" d="
  M 412.98 710.17
  Q 439.97 739.51 480.18 738.83
  A 1.32 1.31 -85.8 0 0 481.45 737.73
  L 483.25 726.79"
/>
<path stroke="#598083" vector-effect="non-scaling-stroke" d="
  M 483.25 726.79
  Q 486.14 712.92 488.96 699.03
  C 489.87 694.56 487.95 692.32 483.34 692.13
  Q 454.18 690.96 425.00 690.74
  C 413.57 690.65 407.01 685.95 408.71 673.50"
/>
<path stroke="#638589" vector-effect="non-scaling-stroke" d="
  M 408.71 673.50
  L 427.71 631.50"
/>
<path stroke="#748b8b" vector-effect="non-scaling-stroke" d="
  M 427.71 631.50
  Q 433.39 618.41 439.08 605.32
  Q 440.35 602.40 439.62 600.26
  Q 439.44 599.72 438.90 599.53
  Q 437.19 598.91 435.43 598.59
  Q 385.80 589.61 336.04 581.35
  C 328.69 580.13 323.94 579.61 319.80 574.74
  C 314.03 567.94 316.28 559.62 323.20 554.69
  Q 373.63 518.77 412.55 491.95
  C 418.70 487.71 417.74 484.11 412.19 479.83
  C 403.22 472.90 349.91 435.15 375.60 422.37
  Q 378.35 421.00 381.24 419.98
  Q 413.28 408.60 445.41 397.48
  C 447.45 396.77 448.83 394.92 447.58 392.93
  Q 433.90 371.03 398.22 316.14"
/>
<path stroke="#638589" vector-effect="non-scaling-stroke" d="
  M 398.22 316.14
  C 378.55 302.69 354.74 295.46 331.06 300.55
  C 299.70 307.30 272.18 329.83 259.54 359.56
  A 1.26 1.25 -65.4 0 1 257.83 360.20
  Q 252.54 357.59 246.82 355.44
  C 199.86 337.81 155.54 368.58 149.63 416.78
  Q 148.83 423.30 148.68 428.89
  A 1.76 1.75 -84.4 0 1 146.64 430.57
  Q 102.83 423.38 67.46 448.25"
/>
<path stroke="#cbedf7" vector-effect="non-scaling-stroke" d="
  M 398.22 316.14
  C 394.16 321.59 389.76 322.72 382.91 321.61
  C 348.13 316.00 315.86 323.65 291.07 349.55
  Q 281.33 359.74 272.07 376.04
  C 270.83 378.23 267.89 378.18 265.71 376.99
  C 243.95 365.07 217.23 362.40 195.11 375.30
  C 175.24 386.87 172.58 410.95 172.99 431.61
  C 173.09 436.42 170.54 438.13 165.94 438.83
  C 134.80 443.55 108.23 460.11 94.84 488.93
  C 85.86 508.25 89.86 531.71 102.25 548.27
  C 119.79 571.70 148.67 580.54 177.13 578.98
  C 181.63 578.73 183.99 581.10 184.72 585.55
  C 188.05 605.98 197.68 626.22 214.05 638.22
  C 229.66 649.67 251.32 656.12 270.75 653.76
  C 290.66 651.34 305.28 640.60 316.69 623.97
  C 318.04 622.02 320.49 621.82 322.27 623.41
  Q 328.03 628.54 331.09 630.66
  C 356.18 648.05 388.85 643.80 414.56 630.32
  C 416.89 629.10 424.97 630.96 427.71 631.50"
/>
<path stroke="#b0e2ee" vector-effect="non-scaling-stroke" d="
  M 408.71 673.50
  C 375.43 684.10 347.34 679.97 321.61 654.87
  C 320.11 653.41 318.48 652.81 317.19 654.89
  C 283.66 708.81 209.64 707.62 175.39 655.21
  C 171.69 649.55 168.67 646.79 162.04 647.00"
/>
<path stroke="#b0e2ee" vector-effect="non-scaling-stroke" d="
  M 157.96 622.25
  Q 155.29 622.11 152.79 623.04
  A 1.67 1.67 0.0 0 1 150.88 622.51
  C 148.06 618.91 145.12 617.61 140.29 616.45
  C 96.42 605.95 60.02 573.85 54.21 527.75
  C 51.22 504.04 57.90 482.00 68.51 461.15
  C 70.41 457.42 68.85 451.92 67.46 448.25"
/>
<path stroke="#c1e8f1" vector-effect="non-scaling-stroke" d="
  M 155.21 635.25
  C 101.71 634.32 49.15 612.68 35.48 555.54
  Q 29.64 531.09 31.89 506.00
  C 32.20 502.48 29.40 501.15 26.50 499.21"
/>
<path stroke="#c1e8f1" vector-effect="non-scaling-stroke" d="
  M 483.25 726.79
  C 471.20 724.73 458.31 725.49 447.06 720.70
  Q 433.64 714.97 419.78 710.43
  Q 416.31 709.29 412.98 710.17"
/>
<path stroke="#c1e8f1" vector-effect="non-scaling-stroke" d="
  M 407.00 706.21
  C 408.81 703.15 408.44 698.94 403.92 699.28
  Q 403.45 699.31 403.05 699.57
  C 382.75 713.08 358.41 716.68 339.22 698.39
  C 333.76 693.19 328.39 684.96 323.38 678.09
  Q 322.26 676.56 320.95 677.92
  C 320.45 678.45 319.65 679.14 319.14 679.81
  C 282.57 728.39 214.14 735.63 178.26 680.73
  C 175.54 676.56 172.78 680.36 170.21 681.75"
/>
<path stroke="#748b8b" vector-effect="non-scaling-stroke" d="
  M 938.96 541.25
  Q 949.88 555.51 957.21 572.61
  A 0.34 0.34 0.0 0 1 956.62 572.94
  Q 939.15 547.22 913.50 529.21"
/>
<path stroke="#598083" vector-effect="non-scaling-stroke" d="
  M 913.50 529.21
  C 840.03 477.00 745.00 514.26 716.42 596.54
  Q 715.86 598.14 717.51 598.50
  L 739.00 603.21"
/>
<path stroke="#748b8b" vector-effect="non-scaling-stroke" d="
  M 739.00 603.21
  Q 742.28 604.35 745.31 606.50
  A 0.93 0.92 44.8 0 1 745.32 608.00
  Q 743.07 609.64 740.25 608.46"
/>
<path stroke="#598083" vector-effect="non-scaling-stroke" d="
  M 740.25 608.46
  Q 717.12 604.47 696.18 606.39
  C 618.17 613.58 557.93 676.90 558.88 756.30
  C 559.21 783.47 565.72 810.29 581.00 833.04"
/>
<path stroke="#748b8b" vector-effect="non-scaling-stroke" d="
  M 581.00 833.04
  Q 624.45 900.57 705.46 906.38
  C 706.56 906.46 708.03 907.66 708.61 908.59
  Q 733.54 948.11 780.73 948.56
  Q 783.49 948.59 785.32 948.92
  Q 785.85 949.01 786.17 949.45
  C 821.11 996.80 883.12 1010.69 932.10 975.35
  Q 934.26 973.79 940.59 968.77
  Q 940.98 968.46 941.49 968.52
  Q 943.45 968.75 943.97 968.99
  C 979.22 985.64 1015.57 988.17 1050.39 968.71
  Q 1062.70 961.83 1066.92 957.89
  Q 1069.01 955.94 1071.16 957.81
  C 1125.24 1004.67 1204.51 989.33 1235.79 924.50"
/>
<path stroke="#598083" vector-effect="non-scaling-stroke" d="
  M 1235.79 924.50
  Q 1243.06 909.73 1243.71 893.25"
/>
<path stroke="#638589" vector-effect="non-scaling-stroke" d="
  M 1243.71 893.25
  L 1245.59 859.63
  Q 1245.65 858.42 1246.02 859.58
  L 1248.04 866.00"
/>
<path stroke="#598083" vector-effect="non-scaling-stroke" d="
  M 1248.04 866.00
  Q 1251.77 879.91 1251.11 894.65"
/>
<path stroke="#748b8b" vector-effect="non-scaling-stroke" d="
  M 1251.11 894.65
  L 1246.68 917.88
  A 1.47 1.47 0.0 0 0 1248.41 919.60
  Q 1271.26 915.07 1287.69 899.18
  C 1292.19 894.83 1299.57 886.51 1302.49 886.01
  C 1371.94 873.99 1417.39 815.02 1412.71 744.75"
/>
<path stroke="#598083" vector-effect="non-scaling-stroke" d="
  M 1412.71 744.75
  C 1403.17 674.33 1345.16 622.06 1272.58 629.11
  C 1269.30 629.43 1259.90 632.65 1259.94 627.02
  C 1260.51 558.14 1193.86 512.41 1130.90 546.37
  A 1.10 1.09 63.9 0 1 1129.38 545.85
  C 1091.54 461.03 981.43 451.12 928.22 526.56
  C 927.21 527.99 926.28 528.92 927.96 530.54
  Q 933.49 535.87 938.96 541.25"
/>
<path stroke="#c1e8f1" vector-effect="non-scaling-stroke" d="
  M 1412.71 744.75
  C 1407.92 743.44 1405.74 745.60 1405.29 750.31
  C 1399.91 807.31 1360.89 854.75 1305.27 869.24
  C 1301.77 870.15 1295.68 872.11 1294.04 874.04
  Q 1277.20 893.77 1251.11 894.65"
/>
<path stroke="#b0e2ee" vector-effect="non-scaling-stroke" d="
  M 1248.04 866.00
  Q 1263.78 859.33 1271.70 844.26
  C 1272.22 843.27 1273.71 842.23 1274.82 842.03
  C 1311.80 835.32 1345.93 820.68 1363.19 784.95
  Q 1374.71 761.10 1373.58 731.95
  C 1372.37 700.66 1353.89 668.02 1322.48 657.24"
/>
<path stroke="#c1e8f1" vector-effect="non-scaling-stroke" d="
  M 1322.48 657.24
  C 1304.20 639.89 1279.45 638.87 1255.50 642.05
  C 1251.13 642.63 1249.14 639.89 1248.55 635.76
  C 1243.04 597.35 1220.90 564.01 1180.69 557.37
  C 1156.92 553.45 1133.23 559.82 1111.65 569.56
  A 1.12 1.12 0.0 0 1 1110.15 568.97
  Q 1102.83 551.61 1094.28 534.78
  C 1079.58 505.85 1049.40 490.41 1017.45 491.66
  C 983.18 493.00 955.90 512.33 938.96 541.25"
/>
<path stroke="#cbedf7" vector-effect="non-scaling-stroke" d="
  M 1322.48 657.24
  Q 1336.12 675.10 1342.19 690.30
  C 1354.11 720.15 1349.67 753.32 1328.36 777.47
  C 1302.35 806.95 1258.36 813.28 1221.86 805.55
  A 1.16 1.15 -75.0 0 0 1220.52 806.33
  L 1211.95 833.52
  A 2.87 2.86 -54.5 0 0 1212.37 836.08
  C 1213.71 837.90 1222.76 847.38 1215.19 847.65
  C 1204.86 848.02 1203.74 855.03 1198.54 861.87
  C 1165.98 904.75 1099.88 881.98 1067.71 852.96
  A 1.85 1.85 0.0 0 0 1064.90 853.35
  C 1049.77 877.44 1025.93 899.64 995.19 896.85
  Q 974.48 894.98 953.83 887.89
  Q 945.28 884.96 938.45 879.12
  C 936.66 877.60 935.11 877.80 933.13 878.70
  Q 932.70 878.89 932.42 879.26
  C 914.77 901.71 885.80 913.34 857.99 905.73
  C 840.49 900.94 827.77 890.08 818.22 874.53
  C 814.82 868.99 805.14 873.39 800.98 874.01
  C 769.12 878.76 752.13 856.70 738.00 832.58
  C 735.79 828.79 710.78 822.35 705.41 820.82
  C 700.40 819.40 694.69 820.90 690.01 819.08
  Q 683.90 816.70 681.51 810.13
  Q 681.37 809.75 681.08 809.46
  L 679.77 808.15
  Q 679.42 807.79 678.97 807.56
  Q 660.39 797.67 652.33 778.22
  Q 652.13 777.74 651.66 777.50
  C 643.04 773.24 635.45 767.12 630.07 759.10
  A 0.58 0.58 0.0 0 1 630.72 758.22
  Q 637.58 760.21 642.04 765.79
  A 1.01 1.01 0.0 0 0 643.45 765.96
  C 645.51 764.36 645.34 762.45 644.39 760.07
  C 628.30 720.02 642.80 669.18 664.21 633.75"
/>
<path stroke="#c1e8f1" vector-effect="non-scaling-stroke" d="
  M 664.21 633.75
  C 673.79 622.82 689.64 618.68 704.20 618.20
  Q 723.05 617.56 730.19 618.07
  C 739.83 618.75 735.63 611.84 740.25 608.46"
/>
<path stroke="#c1e8f1" vector-effect="non-scaling-stroke" d="
  M 739.00 603.21
  C 754.41 544.43 803.84 513.44 863.81 520.02
  C 872.28 520.95 880.87 525.29 888.96 527.02
  Q 900.19 529.43 911.71 529.87
  Q 912.21 529.89 912.65 529.65
  L 913.50 529.21"
/>
<path stroke="#b0e2ee" vector-effect="non-scaling-stroke" d="
  M 664.21 633.75
  C 659.87 632.94 655.51 632.62 651.43 634.86
  C 620.01 652.05 598.72 680.25 593.76 716.25
  C 583.25 792.39 632.81 855.03 710.93 858.70
  C 714.84 858.88 717.88 856.15 721.61 856.98
  Q 725.95 857.96 728.57 861.95
  C 732.91 868.54 736.21 874.92 742.40 880.93
  C 754.46 892.61 769.37 901.39 781.95 912.75
  A 1.52 1.52 0.0 0 0 784.43 911.21
  C 783.85 909.19 779.67 899.18 783.06 899.05
  Q 787.02 898.89 799.53 899.02
  C 802.48 899.05 803.15 899.86 803.01 902.75
  Q 802.79 907.31 802.38 913.44
  A 1.56 1.56 0.0 0 0 804.19 915.08
  C 807.33 914.56 810.49 914.90 812.87 917.46
  C 848.75 956.18 899.85 953.33 933.86 914.40
  Q 934.19 914.01 934.70 914.02
  Q 936.26 914.05 937.52 914.71
  C 953.28 922.93 972.19 932.89 989.01 933.78
  C 1019.03 935.38 1042.89 918.28 1064.57 899.25
  A 1.35 1.35 0.0 0 1 1066.53 899.42
  Q 1069.38 902.98 1072.68 906.84
  C 1117.45 959.12 1193.14 946.50 1232.53 895.80
  C 1234.71 893.00 1240.38 894.25 1243.71 893.25"
/>
<path stroke="#c1e8f1" vector-effect="non-scaling-stroke" d="
  M 1235.79 924.50
  C 1233.08 920.85 1230.53 922.61 1228.20 925.40
  C 1195.30 964.69 1151.56 982.17 1101.91 960.54
  Q 1084.72 953.05 1069.69 941.78
  Q 1067.41 940.07 1064.81 941.78
  Q 1049.15 952.07 1030.22 958.38
  C 997.12 969.40 967.92 963.53 937.96 947.27
  C 936.25 946.34 934.22 946.82 932.69 948.16
  C 911.85 966.47 881.94 982.89 853.18 975.90
  Q 847.71 974.56 836.82 969.53
  C 819.41 961.49 804.84 956.19 795.70 937.81
  C 793.28 932.94 789.13 932.03 783.87 933.08
  C 752.87 939.28 726.65 918.51 711.63 893.38
  C 710.09 890.80 709.24 889.97 706.27 889.95
  Q 637.27 889.34 591.73 838.03
  C 588.94 834.89 585.81 829.60 581.00 833.04"
/>
<path stroke="#f3b62c" vector-effect="non-scaling-stroke" d="
  M 640.92 245.35
  A 1.33 1.33 0.0 0 0 642.32 247.10
  L 709.41 239.69
  A 1.33 1.33 0.0 0 0 710.40 237.68
  L 668.90 169.26
  A 1.33 1.33 0.0 0 0 666.50 169.53
  L 640.92 245.35"
/>
<path stroke="#f3b62c" vector-effect="non-scaling-stroke" d="
  M 826.28 265.92
  Q 821.56 220.62 816.65 175.34
  C 816.45 173.47 815.32 172.53 813.49 172.92
  Q 813.00 173.03 812.66 173.40
  Q 783.41 206.60 754.34 239.96
  C 751.31 243.43 753.52 247.43 757.64 248.47
  Q 793.30 257.41 825.69 274.80
  A 0.84 0.83 -77.3 0 0 826.92 274.02
  Q 826.70 269.92 826.28 265.92"
/>
<path stroke="#f3b62c" vector-effect="non-scaling-stroke" d="
  M 538.50 283.75
  C 538.34 286.19 537.00 296.91 543.35 292.10
  C 557.22 281.58 571.61 274.07 586.87 265.91
  C 591.47 263.45 592.50 258.18 587.49 255.26
  Q 576.38 248.79 565.24 242.39
  C 563.50 241.39 561.74 240.09 559.79 241.05
  C 543.22 249.22 539.64 266.58 538.50 283.75"
/>
<path stroke="#f3b62c" vector-effect="non-scaling-stroke" d="
  M 849.67 288.20
  L 893.61 326.59
  A 1.50 1.49 33.1 0 0 895.95 326.10
  Q 909.76 296.51 923.64 266.81
  Q 924.79 264.35 921.98 264.27
  A 1.54 1.20 30.4 0 0 921.60 264.32
  L 850.16 285.93
  A 1.33 1.33 0.0 0 0 849.67 288.20"
/>
<path stroke="#f3b62c" vector-effect="non-scaling-stroke" d="
  M 487.14 345.45
  L 518.46 311.42
  A 1.12 1.12 0.0 0 0 518.09 309.63
  Q 517.81 309.51 517.41 309.43
  Q 464.11 299.22 410.75 289.27
  C 408.45 288.85 405.05 289.66 406.97 292.83
  Q 421.12 316.22 437.46 338.11
  Q 441.66 343.74 444.79 349.40
  C 447.21 353.78 456.73 373.22 461.56 374.47
  Q 463.75 375.04 465.45 373.22
  C 472.28 365.93 484.54 357.15 486.62 346.47
  Q 486.74 345.89 487.14 345.45"
/>
<path stroke="#f3b62c" vector-effect="non-scaling-stroke" d="
  M 977.92 371.48
  A 1.75 1.75 0.0 0 0 976.61 368.75
  L 926.61 364.99
  A 1.75 1.75 0.0 0 0 924.90 367.49
  L 946.67 412.41
  A 1.75 1.75 0.0 0 0 949.69 412.64
  L 977.92 371.48"
/>
<path stroke="#f3b62c" vector-effect="non-scaling-stroke" d="
  M 446.56 422.34
  A 1.65 1.65 0.0 0 0 444.47 420.35
  L 396.43 435.32
  A 1.65 1.65 0.0 0 0 395.83 438.14
  L 431.99 469.62
  A 1.65 1.65 0.0 0 0 434.68 468.79
  L 446.56 422.34"
/>
<path stroke="#f3b62c" vector-effect="non-scaling-stroke" d="
  M 441.73 576.57
  C 437.11 553.20 434.79 530.49 432.55 506.46
  A 1.63 1.63 0.0 0 0 430.00 505.28
  Q 389.85 533.18 349.63 561.08
  Q 348.41 561.93 348.89 563.07
  A 1.19 1.17 83.5 0 0 349.78 563.79
  L 439.75 578.61
  A 1.73 1.73 0.0 0 0 441.73 576.57"
/>
<path stroke="#f3b62c" vector-effect="non-scaling-stroke" d="
  M 486.19 672.32
  A 1.49 1.49 0.0 0 0 487.49 670.05
  L 458.53 622.61
  A 1.49 1.49 0.0 0 0 455.92 622.73
  L 433.15 669.19
  A 1.49 1.49 0.0 0 0 434.46 671.34
  L 486.19 672.32"
/>
<path stroke="#b9933f" vector-effect="non-scaling-stroke" d="
  M 601.69 410.53
  L 625.38 400.86
  A 0.13 0.13 0.0 0 0 625.45 400.69
  L 625.42 400.63
  A 11.46 6.18 -22.2 0 0 612.48 399.23
  L 609.77 400.34
  A 11.46 6.18 -22.2 0 0 601.50 410.39
  L 601.52 410.45
  A 0.13 0.13 0.0 0 0 601.69 410.53"
/>
<path stroke="#b9933f" vector-effect="non-scaling-stroke" d="
  M 766.74 401.42
  L 790.31 410.71
  A 0.12 0.12 0.0 0 0 790.47 410.64
  L 790.50 410.56
  A 11.29 6.60 21.5 0 0 782.41 400.29
  L 779.62 399.19
  A 11.29 6.60 21.5 0 0 766.70 401.19
  L 766.67 401.26
  A 0.12 0.12 0.0 0 0 766.74 401.42"
/>
<path stroke="#b9933f" vector-effect="non-scaling-stroke" d="
  M 783.43 436.68
  A 14.59 14.59 0.0 0 0 768.84 422.09
  A 14.59 14.59 0.0 0 0 754.25 436.68
  A 14.59 14.59 0.0 0 0 768.84 451.27
  A 14.59 14.59 0.0 0 0 783.43 436.68"
/>
<path stroke="#b9933f" vector-effect="non-scaling-stroke" d="
  M 638.09 436.58
  A 14.45 14.45 0.0 0 0 623.64 422.13
  A 14.45 14.45 0.0 0 0 609.19 436.58
  A 14.45 14.45 0.0 0 0 623.64 451.03
  A 14.45 14.45 0.0 0 0 638.09 436.58"
/>
<path stroke="#b9933f" vector-effect="non-scaling-stroke" d="
  M 597.9899 479.2535
  A 19.05 15.70 -0.2 0 0 578.8852 463.6201
  A 19.05 15.70 -0.2 0 0 559.8901 479.3865
  A 19.05 15.70 -0.2 0 0 578.9948 495.0199
  A 19.05 15.70 -0.2 0 0 597.9899 479.2535"
/>
<path stroke="#b9933f" vector-effect="non-scaling-stroke" d="
  M 702.00 520.02
  C 685.37 523.37 674.75 510.72 672.25 495.86
  C 671.94 494.05 670.73 493.13 668.99 493.26
  C 660.76 493.87 670.32 511.78 672.18 514.70
  Q 675.02 519.17 678.95 522.15
  C 698.31 536.88 721.01 523.12 727.37 502.65
  C 728.83 497.96 730.41 494.44 724.34 492.87
  A 1.69 1.69 0.0 0 0 722.23 494.43
  C 721.70 506.46 714.15 517.56 702.00 520.02"
/>
<path stroke="#eef9fc" vector-effect="non-scaling-stroke" d="
  M 323.51 366.50
  C 334.98 376.40 350.10 381.58 365.19 379.66
  Q 379.40 377.86 393.54 376.90
  A 2.08 2.06 -89.2 0 0 395.45 375.03
  Q 396.56 362.96 397.79 351.00
  Q 397.97 349.23 396.62 348.13
  C 387.29 340.59 376.66 333.77 364.08 334.91
  C 353.76 335.85 342.24 336.99 332.69 341.17
  C 323.62 345.14 312.88 357.31 323.51 366.50"
/>
<path stroke="#eef9fc" vector-effect="non-scaling-stroke" d="
  M 254.2276 404.0534
  A 24.11 13.96 -0.8 0 0 229.9251 390.4314
  A 24.11 13.96 -0.8 0 0 206.0124 404.7266
  A 24.11 13.96 -0.8 0 0 230.3149 418.3486
  A 24.11 13.96 -0.8 0 0 254.2276 404.0534"
/>
<path stroke="#a65229" vector-effect="non-scaling-stroke" d="
  M 593.5000 479.1047
  A 14.50 11.50 -0.1 0 0 578.9799 467.6300
  A 14.50 11.50 -0.1 0 0 564.5000 479.1553
  A 14.50 11.50 -0.1 0 0 579.0201 490.6300
  A 14.50 11.50 -0.1 0 0 593.5000 479.1047"
/>
<path stroke="#eef9fc" vector-effect="non-scaling-stroke" d="
  M 1067.2886 543.6097
  A 31.92 21.40 2.1 0 0 1036.1742 521.0544
  A 31.92 21.40 2.1 0 0 1003.4914 541.2703
  A 31.92 21.40 2.1 0 0 1034.6058 563.8256
  A 31.92 21.40 2.1 0 0 1067.2886 543.6097"
/>
<path stroke="#eef9fc" vector-effect="non-scaling-stroke" d="
  M 900.6535 591.1261
  A 42.40 25.96 -1.6 0 0 857.5452 566.3601
  A 42.40 25.96 -1.6 0 0 815.8865 593.4939
  A 42.40 25.96 -1.6 0 0 858.9948 618.2599
  A 42.40 25.96 -1.6 0 0 900.6535 591.1261"
/>
</g>
<path fill="#0c231d" d="
  M 384.30 296.85
  A 1.13 1.13 0.0 0 0 384.53 295.33
  C 380.39 289.34 377.00 282.86 378.43 275.45
  C 379.85 268.04 389.46 265.44 395.75 266.51
  Q 449.79 275.71 509.75 288.52
  C 513.60 289.34 515.92 287.60 517.48 284.06
  Q 523.02 271.45 523.13 259.82
  C 523.24 249.39 523.05 219.52 533.54 211.28
  C 539.80 206.37 547.57 209.83 553.50 213.20
  Q 582.00 229.39 610.54 245.50
  C 614.90 247.96 619.05 249.07 620.95 243.19
  Q 636.44 195.41 651.93 147.62
  C 653.63 142.36 658.02 139.92 663.27 139.30
  C 672.59 138.21 676.31 144.80 680.50 151.50
  Q 702.58 186.79 724.65 222.08
  C 726.70 225.36 730.93 230.72 735.16 229.36
  C 737.38 228.65 739.13 226.18 740.77 224.27
  Q 768.41 192.05 807.00 147.99
  C 813.47 140.61 815.74 139.04 826.00 141.16
  C 833.49 142.70 834.33 151.23 834.85 157.75
  C 837.43 190.41 840.90 223.07 844.14 255.68
  C 844.43 258.50 844.40 265.60 849.43 264.16
  Q 868.67 258.68 919.41 243.13
  C 928.49 240.35 934.53 238.35 942.24 240.48
  C 951.83 243.13 951.03 254.49 947.80 261.52
  Q 931.38 297.28 914.84 332.98
  C 912.32 338.42 912.70 342.20 919.50 343.00
  Q 953.44 346.96 987.45 350.31
  C 1000.94 351.64 1008.53 361.67 1000.03 374.28
  Q 987.46 392.93 963.99 424.52
  C 960.74 428.89 962.25 433.97 968.00 435.00
  Q 1017.81 443.97 1067.62 452.91
  Q 1072.34 453.75 1074.80 455.49
  C 1078.99 458.44 1081.90 464.21 1080.55 469.33
  C 1079.72 472.45 1077.22 475.23 1075.12 477.77
  A 0.97 0.97 0.0 0 0 1075.45 479.27
  Q 1113.22 497.40 1132.78 534.44
  A 2.47 2.47 0.0 0 0 1135.89 535.57
  C 1166.58 523.05 1202.00 526.19 1229.11 545.70
  Q 1265.00 571.52 1268.03 618.49
  C 1268.16 620.45 1269.90 620.34 1271.50 620.29
  C 1341.96 618.06 1402.73 659.40 1417.50 730.00
  C 1426.67 773.87 1415.08 819.01 1384.51 851.62
  C 1363.70 873.81 1335.63 887.50 1306.18 893.91
  Q 1304.11 894.36 1302.10 896.61
  C 1285.73 914.93 1266.23 924.81 1242.25 929.65
  Q 1241.71 929.75 1241.40 930.21
  Q 1240.07 932.11 1238.15 935.67
  C 1204.28 998.31 1125.92 1012.75 1070.71 968.27
  C 1069.12 966.99 1067.64 967.59 1066.01 968.68
  Q 1008.51 1007.03 944.72 977.99
  Q 943.95 977.64 942.32 977.77
  Q 941.83 977.81 941.46 978.12
  C 919.90 996.27 893.51 1002.70 865.75 1001.75
  C 831.64 1000.59 803.44 984.42 782.51 958.26
  C 780.42 955.65 774.44 955.91 771.26 955.59
  Q 728.89 951.23 704.40 916.84
  Q 703.38 915.41 702.08 914.20
  Q 701.72 913.87 701.23 913.83
  Q 691.92 913.10 686.20 912.30
  C 619.38 902.92 568.13 855.42 553.16 789.74
  A 1.46 1.46 0.0 0 0 550.93 788.84
  Q 520.04 809.26 488.71 829.21
  C 480.85 834.21 467.14 834.99 464.58 823.28
  Q 463.89 820.10 465.15 813.75
  Q 473.36 772.61 478.51 750.25
  Q 478.91 748.50 478.32 747.41
  Q 478.06 746.93 477.52 746.93
  C 449.46 746.75 429.18 736.43 408.89 717.92
  A 1.04 1.03 46.6 0 0 407.54 717.88
  C 381.38 739.00 352.41 738.13 328.69 714.54
  C 326.22 712.08 325.67 707.50 321.35 707.84
  Q 320.89 707.88 320.55 708.19
  Q 317.31 711.13 314.05 714.03
  C 254.58 767.07 166.43 732.96 155.53 654.74
  Q 155.20 652.40 152.76 652.81
  C 120.99 658.14 89.66 653.45 62.83 635.17
  C -36.42 567.60 18.47 412.50 138.27 421.69
  C 140.45 421.85 141.02 421.54 141.18 419.28
  C 145.23 362.71 199.65 327.34 252.58 348.45
  C 254.21 349.11 255.29 348.91 256.21 347.29
  C 281.48 303.18 332.51 279.52 381.87 297.21
  Q 383.23 297.70 384.30 296.85
  Z
  M 549.78 765.98
  L 549.96 742.00
  Q 551.56 722.48 557.99 704.17
  A 2.05 2.04 28.0 0 0 557.28 701.85
  C 509.81 666.73 477.69 620.22 463.88 563.02
  C 451.01 509.68 457.97 453.06 481.00 403.89
  C 538.80 280.44 695.43 230.05 813.94 298.08
  C 888.01 340.59 932.82 416.47 937.21 501.09
  A 1.00 1.00 0.0 0 0 938.90 501.76
  Q 951.04 490.29 966.04 482.00
  Q 987.45 471.41 1011.00 467.29
  Q 1036.94 465.80 1061.78 473.04
  C 1066.53 474.43 1071.77 473.12 1071.81 467.14
  C 1071.86 460.98 1067.07 460.92 1061.57 459.92
  Q 1017.73 451.97 973.85 444.19
  Q 963.40 442.33 960.19 440.34
  C 951.36 434.87 954.28 423.59 959.58 416.33
  Q 977.18 392.17 994.69 367.94
  C 998.17 363.12 995.05 359.24 989.92 358.71
  Q 955.77 355.17 921.67 351.23
  C 908.11 349.66 902.62 340.49 908.54 327.81
  Q 925.16 292.20 941.57 256.50
  C 945.06 248.90 939.69 245.19 932.64 247.36
  Q 872.65 265.76 855.52 270.56
  C 842.59 274.19 836.48 265.98 835.54 254.39
  C 832.94 222.12 830.68 189.57 826.19 157.51
  Q 825.61 153.43 824.58 149.37
  Q 824.45 148.87 824.03 148.56
  C 819.75 145.39 816.52 149.09 813.91 152.16
  Q 781.84 189.73 749.20 226.79
  Q 741.83 235.15 740.63 236.02
  C 731.95 242.37 722.62 234.11 718.04 226.46
  Q 701.70 199.17 684.72 172.27
  C 679.16 163.46 673.45 154.27 666.31 146.66
  Q 665.95 146.28 665.43 146.24
  C 660.01 145.80 659.42 149.41 657.87 154.24
  Q 643.86 198.01 629.60 241.70
  C 627.59 247.89 622.50 255.42 615.21 255.06
  Q 612.39 254.91 606.30 251.75
  Q 575.40 235.71 545.99 217.06
  C 539.51 212.95 535.74 215.80 534.79 222.93
  Q 530.76 253.29 525.51 283.46
  C 523.57 294.61 517.68 296.47 507.15 294.59
  Q 449.66 284.36 392.19 274.03
  C 386.83 273.06 383.07 278.38 386.04 282.95
  Q 415.74 328.72 444.97 374.79
  C 451.06 384.37 462.05 400.16 444.78 406.47
  Q 412.47 418.26 379.81 429.06
  C 375.23 430.58 374.78 436.15 378.32 439.18
  Q 397.43 455.49 416.48 471.86
  C 424.68 478.90 429.58 490.38 418.97 497.74
  Q 372.04 530.32 325.07 562.85
  C 317.42 568.15 333.23 572.95 336.20 573.38
  Q 385.37 580.68 434.21 589.94
  C 442.98 591.60 450.67 597.27 447.78 607.30
  Q 447.16 609.43 445.45 613.19
  Q 431.46 643.93 417.37 674.64
  C 414.51 680.86 418.97 683.08 424.54 683.04
  Q 461.96 682.71 481.94 683.31
  C 490.46 683.57 499.34 691.24 497.27 700.51
  Q 484.18 759.40 472.34 818.57
  Q 471.60 822.30 473.86 824.22
  C 477.52 827.33 480.34 825.21 483.67 823.03
  Q 516.34 801.66 548.85 780.06
  C 551.84 778.07 550.12 769.32 549.78 765.98
  Z
  M 504.75 379.21
  C 452.12 460.05 452.12 564.19 509.71 642.75
  Q 530.18 671.46 558.39 692.56
  C 560.57 694.19 561.88 695.69 563.50 692.25
  Q 575.10 667.58 592.95 646.38
  Q 639.26 600.43 705.57 597.82
  A 1.36 1.36 0.0 0 0 706.82 596.85
  C 722.41 544.90 757.31 511.43 810.25 498.96
  L 821.00 497.96
  Q 859.76 491.75 894.71 509.00
  L 910.53 517.03
  L 918.73 522.78
  A 1.72 1.71 -50.1 0 0 920.93 522.58
  C 926.72 516.70 928.86 510.94 928.57 502.35
  Q 925.30 404.73 854.79 337.75
  C 747.69 239.91 586.23 261.20 504.75 379.21
  Z
  M 67.46 448.25
  Q 38.33 466.74 26.50 499.21
  Q 10.47 541.45 27.69 581.47
  C 43.83 618.98 82.89 646.84 124.25 647.26
  Q 137.59 647.39 150.94 646.86
  Q 152.01 646.82 153.09 646.37
  Q 153.55 646.18 153.75 645.72
  Q 155.91 640.75 155.21 635.25
  L 157.96 622.25
  L 170.58 593.25
  A 0.28 0.28 0.0 0 1 171.11 593.44
  C 165.39 612.52 161.27 627.52 162.04 647.00
  Q 161.27 665.59 170.21 681.75
  C 202.21 744.74 284.05 747.14 323.33 690.23
  A 1.15 1.15 0.0 0 1 325.36 690.49
  C 337.79 724.46 372.93 737.01 401.03 711.49
  Q 403.96 708.83 407.00 706.21
  L 412.98 710.17
  Q 439.97 739.51 480.18 738.83
  A 1.32 1.31 -85.8 0 0 481.45 737.73
  L 483.25 726.79
  Q 486.14 712.92 488.96 699.03
  C 489.87 694.56 487.95 692.32 483.34 692.13
  Q 454.18 690.96 425.00 690.74
  C 413.57 690.65 407.01 685.95 408.71 673.50
  L 427.71 631.50
  Q 433.39 618.41 439.08 605.32
  Q 440.35 602.40 439.62 600.26
  Q 439.44 599.72 438.90 599.53
  Q 437.19 598.91 435.43 598.59
  Q 385.80 589.61 336.04 581.35
  C 328.69 580.13 323.94 579.61 319.80 574.74
  C 314.03 567.94 316.28 559.62 323.20 554.69
  Q 373.63 518.77 412.55 491.95
  C 418.70 487.71 417.74 484.11 412.19 479.83
  C 403.22 472.90 349.91 435.15 375.60 422.37
  Q 378.35 421.00 381.24 419.98
  Q 413.28 408.60 445.41 397.48
  C 447.45 396.77 448.83 394.92 447.58 392.93
  Q 433.90 371.03 398.22 316.14
  C 378.55 302.69 354.74 295.46 331.06 300.55
  C 299.70 307.30 272.18 329.83 259.54 359.56
  A 1.26 1.25 -65.4 0 1 257.83 360.20
  Q 252.54 357.59 246.82 355.44
  C 199.86 337.81 155.54 368.58 149.63 416.78
  Q 148.83 423.30 148.68 428.89
  A 1.76 1.75 -84.4 0 1 146.64 430.57
  Q 102.83 423.38 67.46 448.25
  Z
  M 938.96 541.25
  Q 949.88 555.51 957.21 572.61
  A 0.34 0.34 0.0 0 1 956.62 572.94
  Q 939.15 547.22 913.50 529.21
  C 840.03 477.00 745.00 514.26 716.42 596.54
  Q 715.86 598.14 717.51 598.50
  L 739.00 603.21
  Q 742.28 604.35 745.31 606.50
  A 0.93 0.92 44.8 0 1 745.32 608.00
  Q 743.07 609.64 740.25 608.46
  Q 717.12 604.47 696.18 606.39
  C 618.17 613.58 557.93 676.90 558.88 756.30
  C 559.21 783.47 565.72 810.29 581.00 833.04
  Q 624.45 900.57 705.46 906.38
  C 706.56 906.46 708.03 907.66 708.61 908.59
  Q 733.54 948.11 780.73 948.56
  Q 783.49 948.59 785.32 948.92
  Q 785.85 949.01 786.17 949.45
  C 821.11 996.80 883.12 1010.69 932.10 975.35
  Q 934.26 973.79 940.59 968.77
  Q 940.98 968.46 941.49 968.52
  Q 943.45 968.75 943.97 968.99
  C 979.22 985.64 1015.57 988.17 1050.39 968.71
  Q 1062.70 961.83 1066.92 957.89
  Q 1069.01 955.94 1071.16 957.81
  C 1125.24 1004.67 1204.51 989.33 1235.79 924.50
  Q 1243.06 909.73 1243.71 893.25
  L 1245.59 859.63
  Q 1245.65 858.42 1246.02 859.58
  L 1248.04 866.00
  Q 1251.77 879.91 1251.11 894.65
  L 1246.68 917.88
  A 1.47 1.47 0.0 0 0 1248.41 919.60
  Q 1271.26 915.07 1287.69 899.18
  C 1292.19 894.83 1299.57 886.51 1302.49 886.01
  C 1371.94 873.99 1417.39 815.02 1412.71 744.75
  C 1403.17 674.33 1345.16 622.06 1272.58 629.11
  C 1269.30 629.43 1259.90 632.65 1259.94 627.02
  C 1260.51 558.14 1193.86 512.41 1130.90 546.37
  A 1.10 1.09 63.9 0 1 1129.38 545.85
  C 1091.54 461.03 981.43 451.12 928.22 526.56
  C 927.21 527.99 926.28 528.92 927.96 530.54
  Q 933.49 535.87 938.96 541.25
  Z"
/>
<path fill="#f6ce44" d="
  M 1011.00 467.29
  Q 987.62 454.85 961.97 454.87
  A 2.45 2.45 0.0 0 0 959.54 457.04
  Q 957.94 471.06 966.04 482.00
  Q 951.04 490.29 938.90 501.76
  A 1.00 1.00 0.0 0 1 937.21 501.09
  C 932.82 416.47 888.01 340.59 813.94 298.08
  C 695.43 230.05 538.80 280.44 481.00 403.89
  C 457.97 453.06 451.01 509.68 463.88 563.02
  C 477.69 620.22 509.81 666.73 557.28 701.85
  A 2.05 2.04 28.0 0 1 557.99 704.17
  Q 551.56 722.48 549.96 742.00
  Q 543.79 736.01 546.85 728.04
  C 547.42 726.54 547.53 725.51 546.28 724.48
  Q 529.53 710.84 512.85 697.43
  A 1.42 1.42 0.0 0 0 510.58 698.24
  Q 499.68 748.76 489.09 799.27
  Q 488.05 804.23 493.48 802.51
  A 2.73 2.57 -68.5 0 0 494.16 802.19
  L 549.78 765.98
  C 550.12 769.32 551.84 778.07 548.85 780.06
  Q 516.34 801.66 483.67 823.03
  C 480.34 825.21 477.52 827.33 473.86 824.22
  Q 471.60 822.30 472.34 818.57
  Q 484.18 759.40 497.27 700.51
  C 499.34 691.24 490.46 683.57 481.94 683.31
  Q 461.96 682.71 424.54 683.04
  C 418.97 683.08 414.51 680.86 417.37 674.64
  Q 431.46 643.93 445.45 613.19
  Q 447.16 609.43 447.78 607.30
  C 450.67 597.27 442.98 591.60 434.21 589.94
  Q 385.37 580.68 336.20 573.38
  C 333.23 572.95 317.42 568.15 325.07 562.85
  Q 372.04 530.32 418.97 497.74
  C 429.58 490.38 424.68 478.90 416.48 471.86
  Q 397.43 455.49 378.32 439.18
  C 374.78 436.15 375.23 430.58 379.81 429.06
  Q 412.47 418.26 444.78 406.47
  C 462.05 400.16 451.06 384.37 444.97 374.79
  Q 415.74 328.72 386.04 282.95
  C 383.07 278.38 386.83 273.06 392.19 274.03
  Q 449.66 284.36 507.15 294.59
  C 517.68 296.47 523.57 294.61 525.51 283.46
  Q 530.76 253.29 534.79 222.93
  C 535.74 215.80 539.51 212.95 545.99 217.06
  Q 575.40 235.71 606.30 251.75
  Q 612.39 254.91 615.21 255.06
  C 622.50 255.42 627.59 247.89 629.60 241.70
  Q 643.86 198.01 657.87 154.24
  C 659.42 149.41 660.01 145.80 665.43 146.24
  Q 665.95 146.28 666.31 146.66
  C 673.45 154.27 679.16 163.46 684.72 172.27
  Q 701.70 199.17 718.04 226.46
  C 722.62 234.11 731.95 242.37 740.63 236.02
  Q 741.83 235.15 749.20 226.79
  Q 781.84 189.73 813.91 152.16
  C 816.52 149.09 819.75 145.39 824.03 148.56
  Q 824.45 148.87 824.58 149.37
  Q 825.61 153.43 826.19 157.51
  C 830.68 189.57 832.94 222.12 835.54 254.39
  C 836.48 265.98 842.59 274.19 855.52 270.56
  Q 872.65 265.76 932.64 247.36
  C 939.69 245.19 945.06 248.90 941.57 256.50
  Q 925.16 292.20 908.54 327.81
  C 902.62 340.49 908.11 349.66 921.67 351.23
  Q 955.77 355.17 989.92 358.71
  C 995.05 359.24 998.17 363.12 994.69 367.94
  Q 977.18 392.17 959.58 416.33
  C 954.28 423.59 951.36 434.87 960.19 440.34
  Q 963.40 442.33 973.85 444.19
  Q 1017.73 451.97 1061.57 459.92
  C 1067.07 460.92 1071.86 460.98 1071.81 467.14
  C 1071.77 473.12 1066.53 474.43 1061.78 473.04
  Q 1036.94 465.80 1011.00 467.29
  Z
  M 640.92 245.35
  A 1.33 1.33 0.0 0 0 642.32 247.10
  L 709.41 239.69
  A 1.33 1.33 0.0 0 0 710.40 237.68
  L 668.90 169.26
  A 1.33 1.33 0.0 0 0 666.50 169.53
  L 640.92 245.35
  Z
  M 826.28 265.92
  Q 821.56 220.62 816.65 175.34
  C 816.45 173.47 815.32 172.53 813.49 172.92
  Q 813.00 173.03 812.66 173.40
  Q 783.41 206.60 754.34 239.96
  C 751.31 243.43 753.52 247.43 757.64 248.47
  Q 793.30 257.41 825.69 274.80
  A 0.84 0.83 -77.3 0 0 826.92 274.02
  Q 826.70 269.92 826.28 265.92
  Z
  M 538.50 283.75
  C 538.34 286.19 537.00 296.91 543.35 292.10
  C 557.22 281.58 571.61 274.07 586.87 265.91
  C 591.47 263.45 592.50 258.18 587.49 255.26
  Q 576.38 248.79 565.24 242.39
  C 563.50 241.39 561.74 240.09 559.79 241.05
  C 543.22 249.22 539.64 266.58 538.50 283.75
  Z
  M 849.67 288.20
  L 893.61 326.59
  A 1.50 1.49 33.1 0 0 895.95 326.10
  Q 909.76 296.51 923.64 266.81
  Q 924.79 264.35 921.98 264.27
  A 1.54 1.20 30.4 0 0 921.60 264.32
  L 850.16 285.93
  A 1.33 1.33 0.0 0 0 849.67 288.20
  Z
  M 487.14 345.45
  L 518.46 311.42
  A 1.12 1.12 0.0 0 0 518.09 309.63
  Q 517.81 309.51 517.41 309.43
  Q 464.11 299.22 410.75 289.27
  C 408.45 288.85 405.05 289.66 406.97 292.83
  Q 421.12 316.22 437.46 338.11
  Q 441.66 343.74 444.79 349.40
  C 447.21 353.78 456.73 373.22 461.56 374.47
  Q 463.75 375.04 465.45 373.22
  C 472.28 365.93 484.54 357.15 486.62 346.47
  Q 486.74 345.89 487.14 345.45
  Z
  M 977.92 371.48
  A 1.75 1.75 0.0 0 0 976.61 368.75
  L 926.61 364.99
  A 1.75 1.75 0.0 0 0 924.90 367.49
  L 946.67 412.41
  A 1.75 1.75 0.0 0 0 949.69 412.64
  L 977.92 371.48
  Z
  M 446.56 422.34
  A 1.65 1.65 0.0 0 0 444.47 420.35
  L 396.43 435.32
  A 1.65 1.65 0.0 0 0 395.83 438.14
  L 431.99 469.62
  A 1.65 1.65 0.0 0 0 434.68 468.79
  L 446.56 422.34
  Z
  M 441.73 576.57
  C 437.11 553.20 434.79 530.49 432.55 506.46
  A 1.63 1.63 0.0 0 0 430.00 505.28
  Q 389.85 533.18 349.63 561.08
  Q 348.41 561.93 348.89 563.07
  A 1.19 1.17 83.5 0 0 349.78 563.79
  L 439.75 578.61
  A 1.73 1.73 0.0 0 0 441.73 576.57
  Z
  M 486.19 672.32
  A 1.49 1.49 0.0 0 0 487.49 670.05
  L 458.53 622.61
  A 1.49 1.49 0.0 0 0 455.92 622.73
  L 433.15 669.19
  A 1.49 1.49 0.0 0 0 434.46 671.34
  L 486.19 672.32
  Z"
/>
<path fill="#ef9e13" d="
  M 640.92 245.35
  L 666.50 169.53
  A 1.33 1.33 0.0 0 1 668.90 169.26
  L 710.40 237.68
  A 1.33 1.33 0.0 0 1 709.41 239.69
  L 642.32 247.10
  A 1.33 1.33 0.0 0 1 640.92 245.35
  Z"
/>
<path fill="#ef9e13" d="
  M 826.28 265.92
  Q 826.70 269.92 826.92 274.02
  A 0.84 0.83 -77.3 0 1 825.69 274.80
  Q 793.30 257.41 757.64 248.47
  C 753.52 247.43 751.31 243.43 754.34 239.96
  Q 783.41 206.60 812.66 173.40
  Q 813.00 173.03 813.49 172.92
  C 815.32 172.53 816.45 173.47 816.65 175.34
  Q 821.56 220.62 826.28 265.92
  Z"
/>
<path fill="#ef9e13" d="
  M 538.50 283.75
  C 539.64 266.58 543.22 249.22 559.79 241.05
  C 561.74 240.09 563.50 241.39 565.24 242.39
  Q 576.38 248.79 587.49 255.26
  C 592.50 258.18 591.47 263.45 586.87 265.91
  C 571.61 274.07 557.22 281.58 543.35 292.10
  C 537.00 296.91 538.34 286.19 538.50 283.75
  Z"
/>
<path fill="#ef9e13" d="
  M 893.61 326.59
  L 849.67 288.20
  A 1.33 1.33 0.0 0 1 850.16 285.93
  L 921.60 264.32
  A 1.54 1.20 30.4 0 1 921.98 264.27
  Q 924.79 264.35 923.64 266.81
  Q 909.76 296.51 895.95 326.10
  A 1.50 1.49 33.1 0 1 893.61 326.59
  Z"
/>
<path fill="#f6e633" d="
  M 854.79 337.75
  C 852.69 338.87 845.66 342.67 848.68 345.82
  C 893.73 392.67 914.72 449.46 910.85 514.59
  Q 910.82 515.08 911.06 515.51
  Q 911.61 516.47 910.53 517.03
  L 894.71 509.00
  Q 895.63 507.76 897.78 506.32
  C 902.92 502.86 895.38 499.70 893.14 498.73
  A 2.42 2.42 0.0 0 1 891.68 496.62
  C 889.36 447.69 877.69 405.89 846.82 367.78
  C 808.12 320.01 745.87 294.07 685.25 299.24
  C 619.74 304.83 561.23 346.23 530.77 403.55
  C 503.43 454.98 504.61 517.89 530.28 569.98
  Q 552.42 614.89 592.95 646.38
  Q 575.10 667.58 563.50 692.25
  C 561.88 695.69 560.57 694.19 558.39 692.56
  Q 530.18 671.46 509.71 642.75
  Q 510.02 641.96 510.94 642.24
  Q 528.66 647.63 538.27 663.31
  C 540.16 666.39 541.20 668.20 544.41 670.59
  Q 552.93 676.94 557.99 680.29
  C 560.53 681.97 562.99 681.61 564.44 678.94
  Q 569.59 669.41 561.81 662.19
  C 555.99 656.78 549.56 651.15 544.45 645.87
  Q 490.47 589.99 484.53 512.23
  C 481.15 468.12 492.83 424.82 513.89 386.20
  Q 514.13 385.76 513.91 385.30
  Q 511.06 379.61 504.75 379.21
  C 586.23 261.20 747.69 239.91 854.79 337.75
  Z"
/>
<path fill="#ef9e13" d="
  M 486.62 346.47
  C 484.54 357.15 472.28 365.93 465.45 373.22
  Q 463.75 375.04 461.56 374.47
  C 456.73 373.22 447.21 353.78 444.79 349.40
  Q 441.66 343.74 437.46 338.11
  Q 421.12 316.22 406.97 292.83
  C 405.05 289.66 408.45 288.85 410.75 289.27
  Q 464.11 299.22 517.41 309.43
  Q 517.81 309.51 518.09 309.63
  A 1.12 1.12 0.0 0 1 518.46 311.42
  L 487.14 345.45
  Q 486.74 345.89 486.62 346.47
  Z"
/>
<path fill="#fcf570" d="
  M 894.71 509.00
  Q 859.76 491.75 821.00 497.96
  L 822.04 494.25
  C 830.28 492.50 835.68 486.00 834.75 477.55
  C 832.80 459.85 800.74 457.79 796.84 476.57
  C 794.97 485.55 800.30 492.79 808.50 496.04
  L 810.25 498.96
  C 757.31 511.43 722.41 544.90 706.82 596.85
  A 1.36 1.36 0.0 0 1 705.57 597.82
  Q 639.26 600.43 592.95 646.38
  Q 552.42 614.89 530.28 569.98
  C 504.61 517.89 503.43 454.98 530.77 403.55
  C 561.23 346.23 619.74 304.83 685.25 299.24
  C 745.87 294.07 808.12 320.01 846.82 367.78
  C 877.69 405.89 889.36 447.69 891.68 496.62
  A 2.42 2.42 0.0 0 0 893.14 498.73
  C 895.38 499.70 902.92 502.86 897.78 506.32
  Q 895.63 507.76 894.71 509.00
  Z
  M 601.69 410.53
  L 625.38 400.86
  A 0.13 0.13 0.0 0 0 625.45 400.69
  L 625.42 400.63
  A 11.46 6.18 -22.2 0 0 612.48 399.23
  L 609.77 400.34
  A 11.46 6.18 -22.2 0 0 601.50 410.39
  L 601.52 410.45
  A 0.13 0.13 0.0 0 0 601.69 410.53
  Z
  M 766.74 401.42
  L 790.31 410.71
  A 0.12 0.12 0.0 0 0 790.47 410.64
  L 790.50 410.56
  A 11.29 6.60 21.5 0 0 782.41 400.29
  L 779.62 399.19
  A 11.29 6.60 21.5 0 0 766.70 401.19
  L 766.67 401.26
  A 0.12 0.12 0.0 0 0 766.74 401.42
  Z
  M 783.43 436.68
  A 14.59 14.59 0.0 0 0 768.84 422.09
  A 14.59 14.59 0.0 0 0 754.25 436.68
  A 14.59 14.59 0.0 0 0 768.84 451.27
  A 14.59 14.59 0.0 0 0 783.43 436.68
  Z
  M 638.09 436.58
  A 14.45 14.45 0.0 0 0 623.64 422.13
  A 14.45 14.45 0.0 0 0 609.19 436.58
  A 14.45 14.45 0.0 0 0 623.64 451.03
  A 14.45 14.45 0.0 0 0 638.09 436.58
  Z
  M 597.9899 479.2535
  A 19.05 15.70 -0.2 0 0 578.8852 463.6201
  A 19.05 15.70 -0.2 0 0 559.8901 479.3865
  A 19.05 15.70 -0.2 0 0 578.9948 495.0199
  A 19.05 15.70 -0.2 0 0 597.9899 479.2535
  Z
  M 702.00 520.02
  C 685.37 523.37 674.75 510.72 672.25 495.86
  C 671.94 494.05 670.73 493.13 668.99 493.26
  C 660.76 493.87 670.32 511.78 672.18 514.70
  Q 675.02 519.17 678.95 522.15
  C 698.31 536.88 721.01 523.12 727.37 502.65
  C 728.83 497.96 730.41 494.44 724.34 492.87
  A 1.69 1.69 0.0 0 0 722.23 494.43
  C 721.70 506.46 714.15 517.56 702.00 520.02
  Z"
/>
<path fill="#bae7f4" d="
  M 398.22 316.14
  C 394.16 321.59 389.76 322.72 382.91 321.61
  C 348.13 316.00 315.86 323.65 291.07 349.55
  Q 281.33 359.74 272.07 376.04
  C 270.83 378.23 267.89 378.18 265.71 376.99
  C 243.95 365.07 217.23 362.40 195.11 375.30
  C 175.24 386.87 172.58 410.95 172.99 431.61
  C 173.09 436.42 170.54 438.13 165.94 438.83
  C 134.80 443.55 108.23 460.11 94.84 488.93
  C 85.86 508.25 89.86 531.71 102.25 548.27
  C 119.79 571.70 148.67 580.54 177.13 578.98
  C 181.63 578.73 183.99 581.10 184.72 585.55
  C 188.05 605.98 197.68 626.22 214.05 638.22
  C 229.66 649.67 251.32 656.12 270.75 653.76
  C 290.66 651.34 305.28 640.60 316.69 623.97
  C 318.04 622.02 320.49 621.82 322.27 623.41
  Q 328.03 628.54 331.09 630.66
  C 356.18 648.05 388.85 643.80 414.56 630.32
  C 416.89 629.10 424.97 630.96 427.71 631.50
  L 408.71 673.50
  C 375.43 684.10 347.34 679.97 321.61 654.87
  C 320.11 653.41 318.48 652.81 317.19 654.89
  C 283.66 708.81 209.64 707.62 175.39 655.21
  C 171.69 649.55 168.67 646.79 162.04 647.00
  C 161.27 627.52 165.39 612.52 171.11 593.44
  A 0.28 0.28 0.0 0 0 170.58 593.25
  L 157.96 622.25
  Q 155.29 622.11 152.79 623.04
  A 1.67 1.67 0.0 0 1 150.88 622.51
  C 148.06 618.91 145.12 617.61 140.29 616.45
  C 96.42 605.95 60.02 573.85 54.21 527.75
  C 51.22 504.04 57.90 482.00 68.51 461.15
  C 70.41 457.42 68.85 451.92 67.46 448.25
  Q 102.83 423.38 146.64 430.57
  A 1.76 1.75 -84.4 0 0 148.68 428.89
  Q 148.83 423.30 149.63 416.78
  C 155.54 368.58 199.86 337.81 246.82 355.44
  Q 252.54 357.59 257.83 360.20
  A 1.26 1.25 -65.4 0 0 259.54 359.56
  C 272.18 329.83 299.70 307.30 331.06 300.55
  C 354.74 295.46 378.55 302.69 398.22 316.14
  Z"
/>
<path fill="#dcf3f9" d="
  M 398.22 316.14
  Q 433.90 371.03 447.58 392.93
  C 448.83 394.92 447.45 396.77 445.41 397.48
  Q 413.28 408.60 381.24 419.98
  Q 378.35 421.00 375.60 422.37
  C 349.91 435.15 403.22 472.90 412.19 479.83
  C 417.74 484.11 418.70 487.71 412.55 491.95
  Q 373.63 518.77 323.20 554.69
  C 316.28 559.62 314.03 567.94 319.80 574.74
  C 323.94 579.61 328.69 580.13 336.04 581.35
  Q 385.80 589.61 435.43 598.59
  Q 437.19 598.91 438.90 599.53
  Q 439.44 599.72 439.62 600.26
  Q 440.35 602.40 439.08 605.32
  Q 433.39 618.41 427.71 631.50
  C 424.97 630.96 416.89 629.10 414.56 630.32
  C 388.85 643.80 356.18 648.05 331.09 630.66
  Q 328.03 628.54 322.27 623.41
  C 320.49 621.82 318.04 622.02 316.69 623.97
  C 305.28 640.60 290.66 651.34 270.75 653.76
  C 251.32 656.12 229.66 649.67 214.05 638.22
  C 197.68 626.22 188.05 605.98 184.72 585.55
  C 183.99 581.10 181.63 578.73 177.13 578.98
  C 148.67 580.54 119.79 571.70 102.25 548.27
  C 89.86 531.71 85.86 508.25 94.84 488.93
  C 108.23 460.11 134.80 443.55 165.94 438.83
  C 170.54 438.13 173.09 436.42 172.99 431.61
  C 172.58 410.95 175.24 386.87 195.11 375.30
  C 217.23 362.40 243.95 365.07 265.71 376.99
  C 267.89 378.18 270.83 378.23 272.07 376.04
  Q 281.33 359.74 291.07 349.55
  C 315.86 323.65 348.13 316.00 382.91 321.61
  C 389.76 322.72 394.16 321.59 398.22 316.14
  Z
  M 323.51 366.50
  C 334.98 376.40 350.10 381.58 365.19 379.66
  Q 379.40 377.86 393.54 376.90
  A 2.08 2.06 -89.2 0 0 395.45 375.03
  Q 396.56 362.96 397.79 351.00
  Q 397.97 349.23 396.62 348.13
  C 387.29 340.59 376.66 333.77 364.08 334.91
  C 353.76 335.85 342.24 336.99 332.69 341.17
  C 323.62 345.14 312.88 357.31 323.51 366.50
  Z
  M 254.2276 404.0534
  A 24.11 13.96 -0.8 0 0 229.9251 390.4314
  A 24.11 13.96 -0.8 0 0 206.0124 404.7266
  A 24.11 13.96 -0.8 0 0 230.3149 418.3486
  A 24.11 13.96 -0.8 0 0 254.2276 404.0534
  Z"
/>
<path fill="#ffffff" d="
  M 365.19 379.66
  C 350.10 381.58 334.98 376.40 323.51 366.50
  C 312.88 357.31 323.62 345.14 332.69 341.17
  C 342.24 336.99 353.76 335.85 364.08 334.91
  C 376.66 333.77 387.29 340.59 396.62 348.13
  Q 397.97 349.23 397.79 351.00
  Q 396.56 362.96 395.45 375.03
  A 2.08 2.06 -89.2 0 1 393.54 376.90
  Q 379.40 377.86 365.19 379.66
  Z"
/>
<path fill="#f6ce44" d="
  M 854.79 337.75
  Q 925.30 404.73 928.57 502.35
  C 928.86 510.94 926.72 516.70 920.93 522.58
  A 1.72 1.71 -50.1 0 1 918.73 522.78
  L 910.53 517.03
  Q 911.61 516.47 911.06 515.51
  Q 910.82 515.08 910.85 514.59
  C 914.72 449.46 893.73 392.67 848.68 345.82
  C 845.66 342.67 852.69 338.87 854.79 337.75
  Z"
/>
<path fill="#ef9e13" d="
  M 977.92 371.48
  L 949.69 412.64
  A 1.75 1.75 0.0 0 1 946.67 412.41
  L 924.90 367.49
  A 1.75 1.75 0.0 0 1 926.61 364.99
  L 976.61 368.75
  A 1.75 1.75 0.0 0 1 977.92 371.48
  Z"
/>
<path fill="#f6ce44" d="
  M 504.75 379.21
  Q 511.06 379.61 513.91 385.30
  Q 514.13 385.76 513.89 386.20
  C 492.83 424.82 481.15 468.12 484.53 512.23
  Q 490.47 589.99 544.45 645.87
  C 549.56 651.15 555.99 656.78 561.81 662.19
  Q 569.59 669.41 564.44 678.94
  C 562.99 681.61 560.53 681.97 557.99 680.29
  Q 552.93 676.94 544.41 670.59
  C 541.20 668.20 540.16 666.39 538.27 663.31
  Q 528.66 647.63 510.94 642.24
  Q 510.02 641.96 509.71 642.75
  C 452.12 564.19 452.12 460.05 504.75 379.21
  Z"
/>
<ellipse fill="#ffffff" cx="0.00" cy="0.00" transform="translate(230.12,404.39) rotate(-0.8)" rx="24.11" ry="13.96"/>
<path fill="#75300d" d="
  M 601.69 410.53
  A 0.13 0.13 0.0 0 1 601.52 410.45
  L 601.50 410.39
  A 11.46 6.18 -22.2 0 1 609.77 400.34
  L 612.48 399.23
  A 11.46 6.18 -22.2 0 1 625.42 400.63
  L 625.45 400.69
  A 0.13 0.13 0.0 0 1 625.38 400.86
  L 601.69 410.53
  Z"
/>
<path fill="#75300d" d="
  M 766.74 401.42
  A 0.12 0.12 0.0 0 1 766.67 401.26
  L 766.70 401.19
  A 11.29 6.60 21.5 0 1 779.62 399.19
  L 782.41 400.29
  A 11.29 6.60 21.5 0 1 790.50 410.56
  L 790.47 410.64
  A 0.12 0.12 0.0 0 1 790.31 410.71
  L 766.74 401.42
  Z"
/>
<path fill="#ef9e13" d="
  M 446.56 422.34
  L 434.68 468.79
  A 1.65 1.65 0.0 0 1 431.99 469.62
  L 395.83 438.14
  A 1.65 1.65 0.0 0 1 396.43 435.32
  L 444.47 420.35
  A 1.65 1.65 0.0 0 1 446.56 422.34
  Z"
/>
<circle fill="#75300d" cx="768.84" cy="436.68" r="14.59"/>
<circle fill="#75300d" cx="623.64" cy="436.58" r="14.45"/>
<path fill="#a5dce8" d="
  M 67.46 448.25
  C 68.85 451.92 70.41 457.42 68.51 461.15
  C 57.90 482.00 51.22 504.04 54.21 527.75
  C 60.02 573.85 96.42 605.95 140.29 616.45
  C 145.12 617.61 148.06 618.91 150.88 622.51
  A 1.67 1.67 0.0 0 0 152.79 623.04
  Q 155.29 622.11 157.96 622.25
  L 155.21 635.25
  C 101.71 634.32 49.15 612.68 35.48 555.54
  Q 29.64 531.09 31.89 506.00
  C 32.20 502.48 29.40 501.15 26.50 499.21
  Q 38.33 466.74 67.46 448.25
  Z"
/>
<path fill="#ef9e13" d="
  M 1011.00 467.29
  Q 987.45 471.41 966.04 482.00
  Q 957.94 471.06 959.54 457.04
  A 2.45 2.45 0.0 0 1 961.97 454.87
  Q 987.62 454.85 1011.00 467.29
  Z"
/>
<path fill="#75300d" d="
  M 822.04 494.25
  C 819.37 488.12 826.67 487.23 828.69 483.94
  C 837.53 469.54 804.91 457.29 800.30 481.31
  Q 800.20 481.81 800.49 482.24
  C 803.58 486.78 806.93 490.18 808.50 496.04
  C 800.30 492.79 794.97 485.55 796.84 476.57
  C 800.74 457.79 832.80 459.85 834.75 477.55
  C 835.68 486.00 830.28 492.50 822.04 494.25
  Z"
/>
<path fill="#75300d" d="
  M 597.9899 479.2535
  A 19.05 15.70 -0.2 0 1 578.9948 495.0199
  A 19.05 15.70 -0.2 0 1 559.8901 479.3865
  A 19.05 15.70 -0.2 0 1 578.8852 463.6201
  A 19.05 15.70 -0.2 0 1 597.9899 479.2535
  Z
  M 593.5000 479.1047
  A 14.50 11.50 -0.1 0 0 578.9799 467.6300
  A 14.50 11.50 -0.1 0 0 564.5000 479.1553
  A 14.50 11.50 -0.1 0 0 579.0201 490.6300
  A 14.50 11.50 -0.1 0 0 593.5000 479.1047
  Z"
/>
<ellipse fill="#d77344" cx="0.00" cy="0.00" transform="translate(579.00,479.13) rotate(-0.1)" rx="14.50" ry="11.50"/>
<path fill="#d77344" d="
  M 822.04 494.25
  L 821.00 497.96
  L 810.25 498.96
  L 808.50 496.04
  C 806.93 490.18 803.58 486.78 800.49 482.24
  Q 800.20 481.81 800.30 481.31
  C 804.91 457.29 837.53 469.54 828.69 483.94
  C 826.67 487.23 819.37 488.12 822.04 494.25
  Z"
/>
<path fill="#a5dce8" d="
  M 1412.71 744.75
  C 1407.92 743.44 1405.74 745.60 1405.29 750.31
  C 1399.91 807.31 1360.89 854.75 1305.27 869.24
  C 1301.77 870.15 1295.68 872.11 1294.04 874.04
  Q 1277.20 893.77 1251.11 894.65
  Q 1251.77 879.91 1248.04 866.00
  Q 1263.78 859.33 1271.70 844.26
  C 1272.22 843.27 1273.71 842.23 1274.82 842.03
  C 1311.80 835.32 1345.93 820.68 1363.19 784.95
  Q 1374.71 761.10 1373.58 731.95
  C 1372.37 700.66 1353.89 668.02 1322.48 657.24
  C 1304.20 639.89 1279.45 638.87 1255.50 642.05
  C 1251.13 642.63 1249.14 639.89 1248.55 635.76
  C 1243.04 597.35 1220.90 564.01 1180.69 557.37
  C 1156.92 553.45 1133.23 559.82 1111.65 569.56
  A 1.12 1.12 0.0 0 1 1110.15 568.97
  Q 1102.83 551.61 1094.28 534.78
  C 1079.58 505.85 1049.40 490.41 1017.45 491.66
  C 983.18 493.00 955.90 512.33 938.96 541.25
  Q 933.49 535.87 927.96 530.54
  C 926.28 528.92 927.21 527.99 928.22 526.56
  C 981.43 451.12 1091.54 461.03 1129.38 545.85
  A 1.10 1.09 63.9 0 0 1130.90 546.37
  C 1193.86 512.41 1260.51 558.14 1259.94 627.02
  C 1259.90 632.65 1269.30 629.43 1272.58 629.11
  C 1345.16 622.06 1403.17 674.33 1412.71 744.75
  Z"
/>
<path fill="#dcf3f9" d="
  M 1322.48 657.24
  Q 1336.12 675.10 1342.19 690.30
  C 1354.11 720.15 1349.67 753.32 1328.36 777.47
  C 1302.35 806.95 1258.36 813.28 1221.86 805.55
  A 1.16 1.15 -75.0 0 0 1220.52 806.33
  L 1211.95 833.52
  A 2.87 2.86 -54.5 0 0 1212.37 836.08
  C 1213.71 837.90 1222.76 847.38 1215.19 847.65
  C 1204.86 848.02 1203.74 855.03 1198.54 861.87
  C 1165.98 904.75 1099.88 881.98 1067.71 852.96
  A 1.85 1.85 0.0 0 0 1064.90 853.35
  C 1049.77 877.44 1025.93 899.64 995.19 896.85
  Q 974.48 894.98 953.83 887.89
  Q 945.28 884.96 938.45 879.12
  C 936.66 877.60 935.11 877.80 933.13 878.70
  Q 932.70 878.89 932.42 879.26
  C 914.77 901.71 885.80 913.34 857.99 905.73
  C 840.49 900.94 827.77 890.08 818.22 874.53
  C 814.82 868.99 805.14 873.39 800.98 874.01
  C 769.12 878.76 752.13 856.70 738.00 832.58
  C 735.79 828.79 710.78 822.35 705.41 820.82
  C 700.40 819.40 694.69 820.90 690.01 819.08
  Q 683.90 816.70 681.51 810.13
  Q 681.37 809.75 681.08 809.46
  L 679.77 808.15
  Q 679.42 807.79 678.97 807.56
  Q 660.39 797.67 652.33 778.22
  Q 652.13 777.74 651.66 777.50
  C 643.04 773.24 635.45 767.12 630.07 759.10
  A 0.58 0.58 0.0 0 1 630.72 758.22
  Q 637.58 760.21 642.04 765.79
  A 1.01 1.01 0.0 0 0 643.45 765.96
  C 645.51 764.36 645.34 762.45 644.39 760.07
  C 628.30 720.02 642.80 669.18 664.21 633.75
  C 673.79 622.82 689.64 618.68 704.20 618.20
  Q 723.05 617.56 730.19 618.07
  C 739.83 618.75 735.63 611.84 740.25 608.46
  Q 743.07 609.64 745.32 608.00
  A 0.93 0.92 44.8 0 0 745.31 606.50
  Q 742.28 604.35 739.00 603.21
  C 754.41 544.43 803.84 513.44 863.81 520.02
  C 872.28 520.95 880.87 525.29 888.96 527.02
  Q 900.19 529.43 911.71 529.87
  Q 912.21 529.89 912.65 529.65
  L 913.50 529.21
  Q 939.15 547.22 956.62 572.94
  A 0.34 0.34 0.0 0 0 957.21 572.61
  Q 949.88 555.51 938.96 541.25
  C 955.90 512.33 983.18 493.00 1017.45 491.66
  C 1049.40 490.41 1079.58 505.85 1094.28 534.78
  Q 1102.83 551.61 1110.15 568.97
  A 1.12 1.12 0.0 0 0 1111.65 569.56
  C 1133.23 559.82 1156.92 553.45 1180.69 557.37
  C 1220.90 564.01 1243.04 597.35 1248.55 635.76
  C 1249.14 639.89 1251.13 642.63 1255.50 642.05
  C 1279.45 638.87 1304.20 639.89 1322.48 657.24
  Z
  M 1067.2886 543.6097
  A 31.92 21.40 2.1 0 0 1036.1742 521.0544
  A 31.92 21.40 2.1 0 0 1003.4914 541.2703
  A 31.92 21.40 2.1 0 0 1034.6058 563.8256
  A 31.92 21.40 2.1 0 0 1067.2886 543.6097
  Z
  M 900.6535 591.1261
  A 42.40 25.96 -1.6 0 0 857.5452 566.3601
  A 42.40 25.96 -1.6 0 0 815.8865 593.4939
  A 42.40 25.96 -1.6 0 0 858.9948 618.2599
  A 42.40 25.96 -1.6 0 0 900.6535 591.1261
  Z"
/>
<path fill="#75300d" d="
  M 702.00 520.02
  C 714.15 517.56 721.70 506.46 722.23 494.43
  A 1.69 1.69 0.0 0 1 724.34 492.87
  C 730.41 494.44 728.83 497.96 727.37 502.65
  C 721.01 523.12 698.31 536.88 678.95 522.15
  Q 675.02 519.17 672.18 514.70
  C 670.32 511.78 660.76 493.87 668.99 493.26
  C 670.73 493.13 671.94 494.05 672.25 495.86
  C 674.75 510.72 685.37 523.37 702.00 520.02
  Z"
/>
<path fill="#dcf3f9" d="
  M 26.50 499.21
  C 29.40 501.15 32.20 502.48 31.89 506.00
  Q 29.64 531.09 35.48 555.54
  C 49.15 612.68 101.71 634.32 155.21 635.25
  Q 155.91 640.75 153.75 645.72
  Q 153.55 646.18 153.09 646.37
  Q 152.01 646.82 150.94 646.86
  Q 137.59 647.39 124.25 647.26
  C 82.89 646.84 43.83 618.98 27.69 581.47
  Q 10.47 541.45 26.50 499.21
  Z"
/>
<path fill="#ef9e13" d="
  M 432.55 506.46
  C 434.79 530.49 437.11 553.20 441.73 576.57
  A 1.73 1.73 0.0 0 1 439.75 578.61
  L 349.78 563.79
  A 1.19 1.17 83.5 0 1 348.89 563.07
  Q 348.41 561.93 349.63 561.08
  Q 389.85 533.18 430.00 505.28
  A 1.63 1.63 0.0 0 1 432.55 506.46
  Z"
/>
<path fill="#a5dce8" d="
  M 913.50 529.21
  L 912.65 529.65
  Q 912.21 529.89 911.71 529.87
  Q 900.19 529.43 888.96 527.02
  C 880.87 525.29 872.28 520.95 863.81 520.02
  C 803.84 513.44 754.41 544.43 739.00 603.21
  L 717.51 598.50
  Q 715.86 598.14 716.42 596.54
  C 745.00 514.26 840.03 477.00 913.50 529.21
  Z"
/>
<ellipse fill="#ffffff" cx="0.00" cy="0.00" transform="translate(1035.39,542.44) rotate(2.1)" rx="31.92" ry="21.40"/>
<ellipse fill="#ffffff" cx="0.00" cy="0.00" transform="translate(858.27,592.31) rotate(-1.6)" rx="42.40" ry="25.96"/>
<path fill="#a5dce8" d="
  M 740.25 608.46
  C 735.63 611.84 739.83 618.75 730.19 618.07
  Q 723.05 617.56 704.20 618.20
  C 689.64 618.68 673.79 622.82 664.21 633.75
  C 659.87 632.94 655.51 632.62 651.43 634.86
  C 620.01 652.05 598.72 680.25 593.76 716.25
  C 583.25 792.39 632.81 855.03 710.93 858.70
  C 714.84 858.88 717.88 856.15 721.61 856.98
  Q 725.95 857.96 728.57 861.95
  C 732.91 868.54 736.21 874.92 742.40 880.93
  C 754.46 892.61 769.37 901.39 781.95 912.75
  A 1.52 1.52 0.0 0 0 784.43 911.21
  C 783.85 909.19 779.67 899.18 783.06 899.05
  Q 787.02 898.89 799.53 899.02
  C 802.48 899.05 803.15 899.86 803.01 902.75
  Q 802.79 907.31 802.38 913.44
  A 1.56 1.56 0.0 0 0 804.19 915.08
  C 807.33 914.56 810.49 914.90 812.87 917.46
  C 848.75 956.18 899.85 953.33 933.86 914.40
  Q 934.19 914.01 934.70 914.02
  Q 936.26 914.05 937.52 914.71
  C 953.28 922.93 972.19 932.89 989.01 933.78
  C 1019.03 935.38 1042.89 918.28 1064.57 899.25
  A 1.35 1.35 0.0 0 1 1066.53 899.42
  Q 1069.38 902.98 1072.68 906.84
  C 1117.45 959.12 1193.14 946.50 1232.53 895.80
  C 1234.71 893.00 1240.38 894.25 1243.71 893.25
  Q 1243.06 909.73 1235.79 924.50
  C 1233.08 920.85 1230.53 922.61 1228.20 925.40
  C 1195.30 964.69 1151.56 982.17 1101.91 960.54
  Q 1084.72 953.05 1069.69 941.78
  Q 1067.41 940.07 1064.81 941.78
  Q 1049.15 952.07 1030.22 958.38
  C 997.12 969.40 967.92 963.53 937.96 947.27
  C 936.25 946.34 934.22 946.82 932.69 948.16
  C 911.85 966.47 881.94 982.89 853.18 975.90
  Q 847.71 974.56 836.82 969.53
  C 819.41 961.49 804.84 956.19 795.70 937.81
  C 793.28 932.94 789.13 932.03 783.87 933.08
  C 752.87 939.28 726.65 918.51 711.63 893.38
  C 710.09 890.80 709.24 889.97 706.27 889.95
  Q 637.27 889.34 591.73 838.03
  C 588.94 834.89 585.81 829.60 581.00 833.04
  C 565.72 810.29 559.21 783.47 558.88 756.30
  C 557.93 676.90 618.17 613.58 696.18 606.39
  Q 717.12 604.47 740.25 608.46
  Z"
/>
<path fill="#ef9e13" d="
  M 486.19 672.32
  L 434.46 671.34
  A 1.49 1.49 0.0 0 1 433.15 669.19
  L 455.92 622.73
  A 1.49 1.49 0.0 0 1 458.53 622.61
  L 487.49 670.05
  A 1.49 1.49 0.0 0 1 486.19 672.32
  Z"
/>
<path fill="#bae7f4" d="
  M 664.21 633.75
  C 642.80 669.18 628.30 720.02 644.39 760.07
  C 645.34 762.45 645.51 764.36 643.45 765.96
  A 1.01 1.01 0.0 0 1 642.04 765.79
  Q 637.58 760.21 630.72 758.22
  A 0.58 0.58 0.0 0 0 630.07 759.10
  C 635.45 767.12 643.04 773.24 651.66 777.50
  Q 652.13 777.74 652.33 778.22
  Q 660.39 797.67 678.97 807.56
  Q 679.42 807.79 679.77 808.15
  L 681.08 809.46
  Q 681.37 809.75 681.51 810.13
  Q 683.90 816.70 690.01 819.08
  C 694.69 820.90 700.40 819.40 705.41 820.82
  C 710.78 822.35 735.79 828.79 738.00 832.58
  C 752.13 856.70 769.12 878.76 800.98 874.01
  C 805.14 873.39 814.82 868.99 818.22 874.53
  C 827.77 890.08 840.49 900.94 857.99 905.73
  C 885.80 913.34 914.77 901.71 932.42 879.26
  Q 932.70 878.89 933.13 878.70
  C 935.11 877.80 936.66 877.60 938.45 879.12
  Q 945.28 884.96 953.83 887.89
  Q 974.48 894.98 995.19 896.85
  C 1025.93 899.64 1049.77 877.44 1064.90 853.35
  A 1.85 1.85 0.0 0 1 1067.71 852.96
  C 1099.88 881.98 1165.98 904.75 1198.54 861.87
  C 1203.74 855.03 1204.86 848.02 1215.19 847.65
  C 1222.76 847.38 1213.71 837.90 1212.37 836.08
  A 2.87 2.86 -54.5 0 1 1211.95 833.52
  L 1220.52 806.33
  A 1.16 1.15 -75.0 0 1 1221.86 805.55
  C 1258.36 813.28 1302.35 806.95 1328.36 777.47
  C 1349.67 753.32 1354.11 720.15 1342.19 690.30
  Q 1336.12 675.10 1322.48 657.24
  C 1353.89 668.02 1372.37 700.66 1373.58 731.95
  Q 1374.71 761.10 1363.19 784.95
  C 1345.93 820.68 1311.80 835.32 1274.82 842.03
  C 1273.71 842.23 1272.22 843.27 1271.70 844.26
  Q 1263.78 859.33 1248.04 866.00
  L 1246.02 859.58
  Q 1245.65 858.42 1245.59 859.63
  L 1243.71 893.25
  C 1240.38 894.25 1234.71 893.00 1232.53 895.80
  C 1193.14 946.50 1117.45 959.12 1072.68 906.84
  Q 1069.38 902.98 1066.53 899.42
  A 1.35 1.35 0.0 0 0 1064.57 899.25
  C 1042.89 918.28 1019.03 935.38 989.01 933.78
  C 972.19 932.89 953.28 922.93 937.52 914.71
  Q 936.26 914.05 934.70 914.02
  Q 934.19 914.01 933.86 914.40
  C 899.85 953.33 848.75 956.18 812.87 917.46
  C 810.49 914.90 807.33 914.56 804.19 915.08
  A 1.56 1.56 0.0 0 1 802.38 913.44
  Q 802.79 907.31 803.01 902.75
  C 803.15 899.86 802.48 899.05 799.53 899.02
  Q 787.02 898.89 783.06 899.05
  C 779.67 899.18 783.85 909.19 784.43 911.21
  A 1.52 1.52 0.0 0 1 781.95 912.75
  C 769.37 901.39 754.46 892.61 742.40 880.93
  C 736.21 874.92 732.91 868.54 728.57 861.95
  Q 725.95 857.96 721.61 856.98
  C 717.88 856.15 714.84 858.88 710.93 858.70
  C 632.81 855.03 583.25 792.39 593.76 716.25
  C 598.72 680.25 620.01 652.05 651.43 634.86
  C 655.51 632.62 659.87 632.94 664.21 633.75
  Z"
/>
<path fill="#a5dce8" d="
  M 162.04 647.00
  C 168.67 646.79 171.69 649.55 175.39 655.21
  C 209.64 707.62 283.66 708.81 317.19 654.89
  C 318.48 652.81 320.11 653.41 321.61 654.87
  C 347.34 679.97 375.43 684.10 408.71 673.50
  C 407.01 685.95 413.57 690.65 425.00 690.74
  Q 454.18 690.96 483.34 692.13
  C 487.95 692.32 489.87 694.56 488.96 699.03
  Q 486.14 712.92 483.25 726.79
  C 471.20 724.73 458.31 725.49 447.06 720.70
  Q 433.64 714.97 419.78 710.43
  Q 416.31 709.29 412.98 710.17
  L 407.00 706.21
  C 408.81 703.15 408.44 698.94 403.92 699.28
  Q 403.45 699.31 403.05 699.57
  C 382.75 713.08 358.41 716.68 339.22 698.39
  C 333.76 693.19 328.39 684.96 323.38 678.09
  Q 322.26 676.56 320.95 677.92
  C 320.45 678.45 319.65 679.14 319.14 679.81
  C 282.57 728.39 214.14 735.63 178.26 680.73
  C 175.54 676.56 172.78 680.36 170.21 681.75
  Q 161.27 665.59 162.04 647.00
  Z"
/>
<path fill="#dcf3f9" d="
  M 407.00 706.21
  Q 403.96 708.83 401.03 711.49
  C 372.93 737.01 337.79 724.46 325.36 690.49
  A 1.15 1.15 0.0 0 0 323.33 690.23
  C 284.05 747.14 202.21 744.74 170.21 681.75
  C 172.78 680.36 175.54 676.56 178.26 680.73
  C 214.14 735.63 282.57 728.39 319.14 679.81
  C 319.65 679.14 320.45 678.45 320.95 677.92
  Q 322.26 676.56 323.38 678.09
  C 328.39 684.96 333.76 693.19 339.22 698.39
  C 358.41 716.68 382.75 713.08 403.05 699.57
  Q 403.45 699.31 403.92 699.28
  C 408.44 698.94 408.81 703.15 407.00 706.21
  Z"
/>
<path fill="#ef9e13" d="
  M 549.96 742.00
  L 549.78 765.98
  L 494.16 802.19
  A 2.73 2.57 -68.5 0 1 493.48 802.51
  Q 488.05 804.23 489.09 799.27
  Q 499.68 748.76 510.58 698.24
  A 1.42 1.42 0.0 0 1 512.85 697.43
  Q 529.53 710.84 546.28 724.48
  C 547.53 725.51 547.42 726.54 546.85 728.04
  Q 543.79 736.01 549.96 742.00
  Z"
/>
<path fill="#dcf3f9" d="
  M 483.25 726.79
  L 481.45 737.73
  A 1.32 1.31 -85.8 0 1 480.18 738.83
  Q 439.97 739.51 412.98 710.17
  Q 416.31 709.29 419.78 710.43
  Q 433.64 714.97 447.06 720.70
  C 458.31 725.49 471.20 724.73 483.25 726.79
  Z"
/>
<path fill="#dcf3f9" d="
  M 1412.71 744.75
  C 1417.39 815.02 1371.94 873.99 1302.49 886.01
  C 1299.57 886.51 1292.19 894.83 1287.69 899.18
  Q 1271.26 915.07 1248.41 919.60
  A 1.47 1.47 0.0 0 1 1246.68 917.88
  L 1251.11 894.65
  Q 1277.20 893.77 1294.04 874.04
  C 1295.68 872.11 1301.77 870.15 1305.27 869.24
  C 1360.89 854.75 1399.91 807.31 1405.29 750.31
  C 1405.74 745.60 1407.92 743.44 1412.71 744.75
  Z"
/>
<path fill="#dcf3f9" d="
  M 1235.79 924.50
  C 1204.51 989.33 1125.24 1004.67 1071.16 957.81
  Q 1069.01 955.94 1066.92 957.89
  Q 1062.70 961.83 1050.39 968.71
  C 1015.57 988.17 979.22 985.64 943.97 968.99
  Q 943.45 968.75 941.49 968.52
  Q 940.98 968.46 940.59 968.77
  Q 934.26 973.79 932.10 975.35
  C 883.12 1010.69 821.11 996.80 786.17 949.45
  Q 785.85 949.01 785.32 948.92
  Q 783.49 948.59 780.73 948.56
  Q 733.54 948.11 708.61 908.59
  C 708.03 907.66 706.56 906.46 705.46 906.38
  Q 624.45 900.57 581.00 833.04
  C 585.81 829.60 588.94 834.89 591.73 838.03
  Q 637.27 889.34 706.27 889.95
  C 709.24 889.97 710.09 890.80 711.63 893.38
  C 726.65 918.51 752.87 939.28 783.87 933.08
  C 789.13 932.03 793.28 932.94 795.70 937.81
  C 804.84 956.19 819.41 961.49 836.82 969.53
  Q 847.71 974.56 853.18 975.90
  C 881.94 982.89 911.85 966.47 932.69 948.16
  C 934.22 946.82 936.25 946.34 937.96 947.27
  C 967.92 963.53 997.12 969.40 1030.22 958.38
  Q 1049.15 952.07 1064.81 941.78
  Q 1067.41 940.07 1069.69 941.78
  Q 1084.72 953.05 1101.91 960.54
  C 1151.56 982.17 1195.30 964.69 1228.20 925.40
  C 1230.53 922.61 1233.08 920.85 1235.79 924.50
  Z"
/>
<path fill="#bae7f4" d="
  M 693.68 1073.90
  C 692.63 1074.69 683.42 1074.25 681.52 1074.24
  Q 681.04 1074.24 680.62 1073.98
  C 680.11 1073.67 677.73 1072.93 677.77 1072.44
  Q 677.82 1071.82 678.43 1071.82
  Q 679.63 1071.81 680.56 1071.04
  Q 680.92 1070.75 681.39 1070.75
  Q 686.36 1070.76 691.30 1070.73
  C 693.12 1070.72 694.40 1071.43 696.03 1072.06
  Q 696.88 1072.39 696.15 1072.93
  Q 695.46 1073.44 694.56 1073.54
  Q 694.07 1073.60 693.68 1073.90
  Z"
/>
<path fill="#bae7f4" d="
  M 646.94 1073.67
  C 646.04 1074.57 636.13 1074.72 635.73 1073.39
  Q 635.25 1071.79 636.92 1071.78
  C 638.77 1071.76 648.98 1071.07 649.34 1072.80
  Q 649.43 1073.25 648.98 1073.25
  L 647.95 1073.25
  Q 647.36 1073.25 646.94 1073.67
  Z"
/>
</svg>
