<svg width="319" height="242" viewBox="0 0 319 242" fill="none" xmlns="http://www.w3.org/2000/svg">
<g clip-path="url(#clip0_39_82)">
<path d="M18.2106 3.18799L6.03665 15.5042" stroke="#EBC4C5" stroke-width="1.67454"/>
<path d="M6.03659 15.5042C4.94256 16.8829 3.62804 17.9992 2.09305 18.8532C1.32276 19.283 0.76458 20.5389 0.418508 22.6209C-0.1006 25.7468 1.16647 27.6474 4.21972 28.3228C7.95952 29.1489 11.7412 30.0392 15.5647 30.9937" stroke="#FEBFC0" stroke-width="1.67454"/>
<path d="M50.4454 112.175C50.6966 112.226 50.8891 112.312 51.0231 112.435C51.0995 112.504 51.1399 112.612 51.1368 112.742C51.1338 112.871 51.0875 113.011 51.0064 113.138C49.9012 114.908 48.7429 116.638 47.5317 118.329C45.7678 120.808 44.7436 122.602 44.4589 123.713C43.8449 126.152 44.6431 128.028 46.8535 129.339C47.9643 129.998 49.7365 130.439 52.1702 130.662C63.3896 131.706 74.5364 133.255 85.6107 135.309C86.7885 135.527 89.4203 136.118 93.5062 137.084C96.085 137.693 98.7308 138.206 101.444 138.625" stroke="#CDE6FB" stroke-width="1.67454"/>
<path d="M101.444 138.625C100.249 153.478 104.787 166.47 115.058 177.6C115.626 178.217 115.963 179.01 116.012 179.844L116.548 189.388" stroke="#C8DFF6" stroke-width="1.67454"/>
<path d="M116.548 189.388C117.341 194.591 119.571 199.441 123.238 203.94C127.525 209.204 131.982 213.401 136.609 216.533C144.976 222.182 153.907 226.728 163.402 230.172C172.12 233.331 180.998 235.907 190.035 237.9C194.573 238.899 199.083 239.65 203.565 240.152C208.913 240.755 213.482 241.017 217.272 240.939C243.863 240.37 267.603 232.441 288.49 217.152C293.659 213.368 297.951 209.804 301.367 206.46C306.564 201.364 310.75 195.816 313.926 189.815C321.221 176.028 320.175 162.805 310.786 150.146C308.559 147.148 305.45 144.759 301.459 142.979" stroke="#C1D7E7" stroke-width="1.67454"/>
<path d="M301.459 142.978C300.689 142.588 300.326 141.75 300.371 140.467C300.482 137.335 300.477 133.238 300.354 128.175C300.22 122.666 299.787 118.614 299.056 116.018C297.315 109.822 293.815 104.785 288.557 100.906C286.48 99.3705 284.306 98.2207 282.034 97.456C279.484 96.6075 277.014 96.2224 274.625 96.3005C266.257 96.5796 258.345 98.9854 250.888 103.518C250.804 103.567 250.711 103.6 250.615 103.613C250.518 103.627 250.42 103.621 250.326 103.596C250.233 103.571 250.145 103.527 250.069 103.468C249.993 103.408 249.93 103.334 249.883 103.25C248.728 101.19 247.483 99.337 246.149 97.6904C244.62 95.8038 242.959 94.3413 241.167 93.3031C236.06 90.3447 230.662 90.3699 224.974 93.3785C224.926 93.4047 224.872 93.4209 224.817 93.4262C224.762 93.4316 224.706 93.4259 224.653 93.4095C224.6 93.3932 224.551 93.3665 224.508 93.331C224.466 93.2954 224.431 93.2518 224.405 93.2026C220.755 86.0077 215.812 80.744 209.577 77.4117C204.883 74.8999 199.756 74.2719 194.196 75.5279C187.286 77.0796 181.473 80.1719 176.756 84.8048C176.728 84.8327 176.519 85.0839 176.128 85.5584C175.553 86.2561 174.953 86.1389 174.328 85.2067" stroke="#C8DFF6" stroke-width="1.67454"/>
<path d="M174.328 85.2067C174.741 83.2085 174.071 81.6567 172.318 80.5515C169.857 78.9942 167.331 76.6275 164.741 73.4515C164.579 73.2561 164.359 73.0914 164.08 72.9575C163.164 72.5165 162.179 71.6625 161.124 70.3954C160.041 69.0949 157.421 66.9291 153.262 63.8982C149.132 60.8785 146.921 59.2625 146.631 59.0504C138.498 53.0779 130.086 47.524 121.396 42.3887C121.122 42.2269 119.732 41.4957 117.226 40.1951C115.825 39.4695 114.485 38.6322 113.207 37.6833C113.021 37.5414 112.762 37.4481 112.462 37.4154C111.814 37.3428 111.449 37.0163 111.365 36.4357C111.347 36.2959 111.306 36.1651 111.245 36.0514C111.185 35.9376 111.106 35.8433 111.013 35.7743C109.864 34.9147 108.931 33.8653 108.217 32.6262C108.148 32.5075 108.058 32.4046 107.952 32.3239C107.845 32.2433 107.724 32.1865 107.597 32.1573C100.408 30.5386 93.5564 28.0435 87.0424 24.6721C85.647 23.952 84.0869 23.2543 82.3621 22.5789C80.7601 21.9538 79.1916 21.2532 77.6566 20.4774C76.3282 19.8076 75.0136 19.3024 73.7131 18.9619C71.5864 18.4037 70.2328 17.9656 69.6523 17.6474C66.5879 15.9952 63.3728 14.717 60.007 13.8127C59.6944 13.7234 59.1306 13.4527 58.3157 13.0006C57.7128 12.6656 57.057 12.5484 56.3481 12.6489C56.0661 12.6924 55.7923 12.6512 55.5694 12.5317C54.0121 11.7 52.4101 10.9688 50.7635 10.338C50.4677 10.2264 49.9625 10.1315 49.248 10.0534C48.701 9.99196 48.1987 9.81893 47.741 9.53425C46.7251 8.89793 46.086 8.53511 45.8236 8.4458C39.6166 6.37495 33.3539 4.47993 27.0353 2.76074C26.9906 2.74957 26.3989 2.6798 25.2602 2.55142C24.3727 2.45653 23.8118 1.93742 23.5773 0.994095C23.5449 0.87293 23.4795 0.764783 23.3898 0.684024C23.3001 0.603266 23.1903 0.55372 23.075 0.541969C19.4803 0.167989 16.4717 1.329 14.0492 4.02501C13.4185 4.72274 12.7598 5.57117 12.0732 6.57032C11.7216 7.07826 11.7774 7.1285 12.2407 6.72102C13.4017 5.70514 14.5013 4.60273 15.5395 3.41381C16.0363 2.85004 16.9266 2.77469 18.2104 3.18774" stroke="#FFF5F5" stroke-width="1.67454"/>
<path d="M174.328 85.2069L172.511 83.323" stroke="#C8D5EB" stroke-width="1.67454"/>
<path d="M172.511 83.3229C164.485 75.3018 155.456 67.6436 145.425 60.3482C134.407 52.3383 123.511 45.3806 112.738 39.475C83.8972 23.6729 53.5741 11.566 21.769 3.15422C20.3233 2.77466 19.1372 2.78583 18.2106 3.18772" stroke="#EBB9BB" stroke-width="1.67454"/>
<path d="M172.511 83.323C172.801 84.2831 173.016 85.2543 173.156 86.2367C173.306 87.2693 173.111 88.1931 172.57 89.0081C171.972 89.9123 171.088 91.0705 169.916 92.4827C168.308 94.4196 166.371 94.9945 164.105 94.2075C162.084 93.5098 159.572 93.3814 156.569 93.8224" stroke="#B3A4BC" stroke-width="1.67454"/>
<path d="M156.569 93.8224L155.941 93.7554" stroke="#E69E6A" stroke-width="1.67454"/>
<path d="M155.942 93.7553C158.537 92.7227 161.174 92.4548 163.854 92.9516C165.59 93.2697 166.742 93.3562 167.312 93.2111C168.59 92.8874 169.556 92.0892 170.209 90.8165C170.309 90.6211 170.354 90.3588 170.343 90.0295C170.326 89.4266 170.496 88.8126 170.853 88.1875C171.434 87.1716 171.59 86.0357 171.322 84.7798C171.296 84.6599 171.24 84.5456 171.157 84.4455C171.074 84.3454 170.968 84.2622 170.845 84.2021C169.952 83.7667 169.048 83.0383 168.132 82.0168C165.894 79.5106 163.136 76.9569 159.86 74.3558C158.984 73.6636 157.823 72.6031 156.377 71.1742C155.249 70.0522 154.027 69.0447 152.71 68.1516C150.242 66.4715 148.981 65.6119 148.925 65.5728C145.844 63.2787 142.732 61.0264 139.59 58.816C139.394 58.6765 139.14 58.59 138.828 58.5565C137.957 58.4616 137.343 58.0039 136.986 57.1834C136.863 56.8987 136.704 56.6838 136.508 56.5387C133.896 54.5627 131.111 52.8686 128.152 51.4564C127.488 51.1383 126.645 50.4992 125.624 49.5391C124.764 48.7297 123.933 48.0878 123.129 47.6134C108.588 39.0788 99.4313 33.9575 95.658 32.2495C92.1303 30.6531 89.6715 29.6232 88.2817 29.1599C86.8248 28.6799 85.5913 28.0687 84.5809 27.3263C84.0897 26.9635 83.6069 26.7151 83.1325 26.5811C82.6078 26.4304 82.0831 26.2769 81.5584 26.1206C80.8104 25.8974 80.0457 25.5959 79.2643 25.2164C73.0964 22.2357 67.188 19.7658 61.5393 17.8065C59.4126 17.0697 57.5762 16.2353 56.03 15.3031C55.8179 15.1747 55.5639 15.0938 55.2681 15.0603C54.5592 14.9821 53.5098 14.7114 52.12 14.2481C41.7546 10.7818 31.2971 7.64487 20.7475 4.83722C19.5418 4.51348 18.5426 4.83722 17.75 5.80846C15.9527 8.01885 13.9153 9.98086 11.638 11.6945C11.5605 11.752 11.4584 11.7774 11.3467 11.7669C11.235 11.7563 11.1199 11.7103 11.0184 11.6359C10.6332 11.3624 10.223 11.5884 9.78758 12.314C9.09544 13.4583 7.96512 14.9235 6.39664 16.7097C6.24035 16.8883 6.11755 17.1256 6.02824 17.4214C5.86078 18.0075 5.52588 18.468 5.02351 18.8029C4.76675 18.9703 4.72489 18.9229 4.89792 18.6606C5.52867 17.7005 5.90823 16.6483 6.03661 15.504" stroke="#EA8486" stroke-width="1.67454"/>
<path d="M301.459 142.979L303.753 147.793" stroke="#8AB7DD" stroke-width="1.67454"/>
<path d="M303.753 147.793C303.441 149.551 303.307 150.999 303.351 152.138C303.452 154.432 303.279 156.456 302.832 158.208C302.492 159.526 301.571 161.809 300.069 165.057C299.299 166.715 298.252 168.264 296.929 169.704C295.11 171.68 293.307 173.67 291.521 175.674C289.55 177.873 287.608 179.601 285.693 180.857C278.71 185.422 271.086 188.518 262.819 190.142C262.467 190.209 261.965 190.203 261.312 190.125C260.765 190.058 260.246 190.103 259.755 190.259C259.196 190.443 258.675 190.923 258.189 191.699C254.689 197.303 250.835 202.081 246.626 206.033C240.514 211.777 233.102 214.202 224.388 213.309C220.565 212.918 216.685 211.766 212.75 209.851C209.971 208.5 207.969 207.755 206.747 207.616C204.637 207.376 202.407 207.582 200.057 208.235C196.513 209.218 192.971 210.208 189.432 211.208C186.295 212.095 183.114 212.637 179.887 212.832C176.544 213.038 173.611 212.67 171.088 211.727C168.28 210.683 165.69 209.1 163.318 206.979C158.931 203.055 153.938 199.678 148.339 196.848C146.458 195.894 144.736 195.45 143.173 195.517C137.067 195.779 131.555 194.593 126.637 191.959C124.767 190.96 123.302 189.829 122.241 188.568C122.208 188.528 122.167 188.496 122.12 188.474C122.074 188.452 122.023 188.44 121.971 188.439C121.92 188.438 121.868 188.449 121.821 188.47C121.774 188.49 121.732 188.521 121.697 188.559L119.855 190.644C119.77 190.742 119.715 190.86 119.696 190.985C119.676 191.11 119.694 191.236 119.746 191.348C120.595 193.178 121.426 194.498 122.241 195.308C123.268 196.329 123.815 197.376 123.882 198.448" stroke="#88BAE5" stroke-width="1.67454"/>
<path d="M123.882 198.448C122.615 197.839 121.602 196.985 120.843 195.886C120.519 195.428 120.279 194.56 120.123 193.282C119.883 191.3 118.691 190.002 116.548 189.388" stroke="#8AB7DD" stroke-width="1.67454"/>
<path d="M101.444 138.625C102.571 135.393 103.364 132.049 103.821 128.594C103.849 128.354 103.953 128.1 104.131 127.832C104.494 127.291 104.575 126.758 104.374 126.233C104.333 126.125 104.258 126.025 104.156 125.942C104.054 125.859 103.928 125.795 103.788 125.756C95.8952 123.601 91.2149 122.172 89.7469 121.469C88.9598 121.095 88.2342 120.866 87.57 120.783C86.3755 120.637 85.6498 120.523 85.3931 120.439C84.0479 120.009 82.6859 119.647 81.3072 119.351C80.6485 119.206 79.3536 118.776 77.4223 118.061C76.1384 117.581 74.6816 117.305 73.0517 117.233C72.4879 117.205 72.3512 116.917 72.6414 116.37" stroke="#96C6F1" stroke-width="1.67454"/>
<path d="M72.6414 116.37C82.058 118.039 91.2651 120.501 100.263 123.755" stroke="#88CAAE" stroke-width="1.67454"/>
<path d="M100.263 123.755L105.077 124.567C105.185 124.585 105.308 124.567 105.433 124.514C105.559 124.461 105.684 124.376 105.797 124.266C108.75 121.374 110.952 118.89 112.403 116.814C113.715 114.938 115.32 113.694 117.218 113.08" stroke="#8AC6C4" stroke-width="1.67454"/>
<path d="M117.218 113.079C118.328 113.068 119.515 112.638 120.776 111.79C122.691 110.501 124.879 109.471 127.34 108.7C129.099 108.148 131.462 107.846 134.432 107.796C138.635 107.724 141.496 107.467 143.014 107.026C144.365 106.641 145.551 105.804 146.572 104.514C148.827 101.673 150.519 99.3147 151.646 97.4392" stroke="#9FBFC7" stroke-width="1.67454"/>
<path d="M151.646 97.4393L153.773 96.0829C154.219 95.7983 154.175 95.6587 153.639 95.6643C152.952 95.6755 152.383 95.5527 151.931 95.2959" stroke="#9FBFC7" stroke-width="1.67454"/>
<path d="M155.941 93.7555C154.68 93.5824 153.527 93.7834 152.484 94.3583C152.211 94.5055 151.939 94.5758 151.705 94.5593C150.505 94.4588 149.615 93.8643 149.034 92.7759" stroke="#F99964" stroke-width="1.67454"/>
<path d="M149.034 92.7758C150.558 91.7487 150.597 90.6547 149.151 89.4937C146.796 87.5903 144.412 85.7232 142.001 83.8923C140.304 82.6029 138.967 81.8382 137.99 81.5982C137.069 81.3694 136.386 80.9954 135.939 80.4763C135.721 80.2251 135.515 80.0548 135.319 79.9655C132.601 78.7264 130 77.2863 127.516 75.6452C126.802 75.1763 125.604 74.1912 123.924 72.6897C122.679 71.5789 121.404 70.6746 120.098 69.9769C117.592 68.6484 115.605 67.3507 114.136 66.0836C111.122 63.4881 107.745 61.5567 104.006 60.2897C102.683 59.8431 101.404 59.218 100.171 58.4142C98.2395 57.1527 96.1073 56.1061 93.7741 55.2744C92.4512 54.8 91.0809 54.1916 89.6631 53.4492C88.3848 52.7738 87.0117 52.1877 85.5437 51.6909C82.4235 50.6304 79.2781 49.073 76.1077 47.0189C75.4658 46.6003 74.7764 46.2766 74.0396 46.0477C68.7481 44.3899 63.5319 42.3833 58.391 40.0277C56.5267 39.1737 54.9443 38.6072 53.6437 38.3281C51.9915 37.9708 50.3142 37.742 48.6117 37.6415C46.859 37.5355 45.5864 37.1336 44.7938 36.4358L43.2197 35.046C43.0966 34.9411 42.9729 34.8561 42.8573 34.7969C42.7417 34.7376 42.6368 34.7055 42.5499 34.7027C38.6315 34.5855 34.8079 33.9157 31.0793 32.6932C29.1647 32.0625 26.4799 31.2866 23.0247 30.3656C21.0823 29.8465 20.3287 30.3461 20.7641 31.8643" stroke="#FA846F" stroke-width="1.67454"/>
<path d="M20.7643 31.8643L18.4199 31.655" stroke="#F99964" stroke-width="1.67454"/>
<path d="M18.4198 31.6551L15.5647 30.9937" stroke="#FABCAD" stroke-width="1.67454"/>
<path d="M156.57 93.8223L151.931 95.2959" stroke="#C3B99A" stroke-width="1.67454"/>
<path d="M151.931 95.2959L148.247 97.8161C147.387 98.4077 146.759 99.1055 146.363 99.9093C145.861 100.936 145.208 101.824 144.404 102.572C143.656 103.275 142.71 103.777 141.566 104.079C139.444 104.637 137.27 104.696 135.043 104.255" stroke="#D1B975" stroke-width="1.67454"/>
<path d="M135.043 104.255C134.496 104.082 134.041 103.66 133.678 102.99" stroke="#F3D661" stroke-width="1.67454"/>
<path d="M133.678 102.991C131.407 102.393 129.269 101.291 127.265 99.6833" stroke="#FAD455" stroke-width="1.67454"/>
<path d="M127.265 99.6833C128.085 99.8675 128.85 100.202 129.559 100.688C130.832 101.564 131.937 101.908 132.875 101.718C133.784 101.528 134.697 101.497 135.613 101.626C138.722 102.056 141.175 101.447 142.972 99.8005C143.19 99.5996 143.656 98.9996 144.37 98.0004C144.817 97.3808 145.325 96.8059 145.894 96.2756C146.028 96.1528 146.143 96.0077 146.238 95.8403C146.729 94.9974 146.966 95.0644 146.949 96.0412C146.949 96.2045 146.893 96.3688 146.79 96.5101C144.742 99.4628 144.876 99.5605 147.192 96.8031C147.259 96.7194 147.345 96.6385 147.452 96.5603C148.289 95.9017 148.512 95.1202 148.121 94.216C148.105 94.1772 148.079 94.1438 148.045 94.1185C148.01 94.0931 147.969 94.0765 147.925 94.07C147.88 94.0635 147.833 94.0673 147.787 94.081C147.741 94.0947 147.698 94.118 147.661 94.149C147.242 94.495 146.726 94.4364 146.112 93.9731" stroke="#F9B838" stroke-width="1.67454"/>
<path d="M146.112 93.973C145.492 92.3375 144.454 91.3133 142.997 90.9002C142.736 90.8293 142.505 90.6832 142.336 90.4816C141.158 89.1029 139.484 87.9726 137.312 87.0906C136.402 86.7222 135.378 86.0831 134.24 85.1733C133.397 84.5035 132.381 83.8811 131.192 83.3062C130.048 82.7536 128.984 82.0698 128.002 81.2549C127.745 81.0428 127.254 80.4176 126.528 79.3794C126.031 78.6817 125.39 78.1598 124.603 77.8137C122.883 77.0713 121.965 76.6638 121.848 76.5913C117.416 73.7501 112.939 70.976 108.418 68.2688C104.377 65.8519 100.252 63.5801 96.0433 61.4534C95.619 61.2413 94.6645 60.5743 93.1798 59.4523C92.1583 58.6821 90.8382 58.0402 89.2195 57.5266C87.5729 57.0019 86.2249 56.6028 85.1755 56.3293C83.5735 55.9163 82.273 55.4223 81.2738 54.8474C80.1128 54.1775 78.949 53.5133 77.7824 52.8547C76.6493 52.2183 75.4352 51.6713 74.1403 51.2136C67.4421 48.8692 61.5673 46.5947 56.5157 44.3899C55.2821 43.854 54.1351 43.4326 53.0745 43.1256C52.0028 42.8242 50.8474 42.4418 49.6082 41.9785C48.2742 41.4873 46.7392 41.105 45.0033 40.8315C43.9036 40.6584 42.7426 40.2733 41.5202 39.676C40.002 38.9281 38.8884 38.4648 38.1795 38.2862C36.6389 37.901 34.6937 37.5326 32.3437 37.181C32.0423 37.1363 31.7576 37.033 31.4897 36.8712C30.2003 36.0897 28.9332 35.5455 27.6885 35.2385C27.5824 35.2106 26.8429 34.9706 25.4697 34.5184C24.532 34.2114 23.5663 34.2393 22.5728 34.6022C22.3218 34.695 22.0483 34.7124 21.7857 34.6524C20.6694 34.3845 20.0442 34.6998 19.9103 35.5985C19.8919 35.7363 19.8498 35.8666 19.7865 35.9816C19.7232 36.0967 19.6401 36.1942 19.5419 36.2683C18.6376 36.9828 17.951 37.8703 17.4822 38.9308C17.3796 39.1577 17.1839 39.3504 16.9296 39.4751C16.0588 39.8937 15.5788 40.6138 15.4895 41.6352" stroke="#FAB440" stroke-width="1.67454"/>
<path d="M15.4894 41.6353C12.3469 45.2467 10.2537 47.4208 9.20988 48.1576C7.11671 49.6368 6.58643 51.5206 7.61907 53.8092C7.67064 53.9225 7.75198 54.0216 7.85576 54.0976C7.95953 54.1736 8.08249 54.2241 8.21353 54.2445C11.9087 54.8418 15.6234 55.2828 19.3576 55.5674C20.1335 55.6288 20.7419 55.8465 21.1829 56.2205C21.702 56.6615 22.1178 57.1973 22.4304 57.8281C22.5085 57.9844 22.6927 58.163 22.983 58.3639L23.7616 58.9165C24.1412 59.1844 24.1077 59.2291 23.6612 59.0505C22.0815 58.4142 21.9978 58.6207 23.41 59.6701" stroke="#F9B838" stroke-width="1.67454"/>
<path d="M23.4099 59.67C21.8693 59.5026 20.3678 59.1984 18.9054 58.7574C17.2811 58.2662 15.7991 57.9732 14.4595 57.8783C11.2722 57.6438 8.1269 57.1275 5.02341 56.3293C3.92938 56.0447 3.24282 55.3441 2.96373 54.2278" stroke="#F3D661" stroke-width="1.67454"/>
<path d="M123.882 198.448C125.501 200.156 126.489 202.162 126.846 204.468C126.89 204.752 127 205.007 127.165 205.204C128.845 207.169 130.706 208.922 132.749 210.462C133.966 211.378 136.112 212.525 139.188 213.904C141.917 215.126 144.53 216.572 147.025 218.241C149.001 219.558 150.315 220.339 150.968 220.585C151.973 220.959 152.799 221.372 153.446 221.824C154.529 222.578 155.3 223.038 155.757 223.206C160.597 224.986 164.775 226.362 168.291 227.333C169.676 227.713 170.915 228.162 172.009 228.681C173.611 229.441 174.819 229.932 175.634 230.155C178.207 230.842 180.789 231.497 183.379 232.123C184.054 232.284 185.26 232.689 186.996 233.337C188.218 233.8 189.466 234.096 190.738 234.224C191.051 234.258 191.336 234.361 191.592 234.534C194.484 236.527 196.831 237.632 198.634 237.85C204.21 238.519 209.786 238.511 215.363 237.824C219.739 237.289 223.236 237.28 225.854 237.799C227.21 238.067 228.432 238.168 229.521 238.101C231.078 238 232.275 237.939 233.113 237.917C234.117 237.889 235.091 237.702 236.035 237.356C237.486 236.825 238.407 236.51 238.798 236.409C240.779 235.907 242.412 235.341 243.696 234.71C244.695 234.224 245.677 234.026 246.643 234.115C248.161 234.255 249.107 234.291 249.481 234.224C252.551 233.699 254.809 232.954 256.255 231.989C258.543 230.47 260.131 229.686 261.019 229.636C262.571 229.552 264.298 229.047 266.202 228.12C272.001 225.29 277.033 222.407 281.298 219.471C281.314 219.46 281.9 219.167 283.056 218.592C283.899 218.168 284.923 217.342 286.129 216.114C286.671 215.555 287.357 215.156 288.113 214.959C288.894 214.752 289.517 214.283 289.98 213.552C290.683 212.447 291.577 211.523 292.659 210.781C296.539 208.135 299.815 205.137 302.489 201.788C302.936 201.236 303.6 200.264 304.482 198.875C305.118 197.875 305.793 196.904 306.508 195.961C307.63 194.476 308.59 193.003 309.388 191.54C310.024 190.374 310.697 189.226 311.406 188.099C311.925 187.278 312.352 186.293 312.687 185.143C312.999 184.077 313.404 183.05 313.901 182.062C314.548 180.767 314.917 179.609 315.006 178.588C315.458 173.503 315.271 168.44 314.445 163.399C314.306 162.551 313.971 161.429 313.44 160.034C313.022 158.934 312.695 157.801 312.461 156.634C312.31 155.914 311.838 155.141 311.046 154.315C310.337 153.578 309.748 152.903 309.279 152.289C307.811 150.38 305.969 148.881 303.753 147.793" stroke="#82B2D6" stroke-width="1.67454"/>
<path d="M151.646 97.4392C149.732 99.2812 148.018 101.268 146.505 103.401C145.629 104.634 144.516 105.382 143.165 105.644C143.12 105.656 141.878 105.801 139.439 106.08C138.177 106.231 136.91 106.169 135.638 105.896" stroke="#ADBFA1" stroke-width="1.67454"/>
<path d="M117.218 113.079L114.915 113.012" stroke="#99C69E" stroke-width="1.67454"/>
<path d="M39.3515 89.2173C39.1505 89.9876 38.7654 90.649 38.1961 91.2016C38 91.4031 37.8739 91.6463 37.836 91.8965C37.6239 93.4539 37.1048 94.8912 36.2787 96.2085C36.142 96.4325 36.0723 96.6969 36.0778 96.9704C36.1168 98.2821 35.7122 99.4404 34.8637 100.445C34.6745 100.667 34.5677 100.922 34.5623 101.165C34.5176 102.572 35.0368 103.529 36.1196 104.037C36.4713 104.199 37.3811 104.531 38.8491 105.033C39.6306 105.296 40.6353 105.525 41.8633 105.72C47.3111 106.585 52.7674 107.392 58.2319 108.14C59.6888 108.335 61.1568 108.698 62.636 109.228C64.8687 110.026 66.3172 110.462 66.9814 110.534C68.6783 110.724 71.3882 110.702 75.1113 110.467C78.3934 110.266 81.0922 110.314 83.2077 110.61C86.6908 111.101 89.5319 111.826 91.7311 112.786C95.4988 114.422 97.9241 115.346 99.007 115.558C100.86 115.921 102.641 115.321 104.349 113.758C104.511 113.613 104.751 113.487 105.069 113.381L109.816 111.865C110.112 111.774 110.397 111.777 110.612 111.874C112.107 112.549 113.612 112.859 115.124 112.803" stroke="#7ED869" stroke-width="1.67454"/>
<path d="M115.125 112.803C115.002 112.826 114.932 112.895 114.915 113.013" stroke="#96CA89" stroke-width="1.67454"/>
<path d="M114.915 113.012C112.604 113.615 110.768 114.838 109.406 116.68C108.719 117.601 108.27 118.181 108.058 118.421C107.567 118.968 107.07 119.515 106.568 120.062C106.545 120.09 106.046 120.771 105.069 122.105C103.992 123.584 102.39 124.134 100.263 123.755" stroke="#82D186" stroke-width="1.67454"/>
<path d="M72.6414 116.37L50.4454 112.033" stroke="#8DD1B3" stroke-width="1.67454"/>
<path d="M18.4199 31.655C18.3473 32.4811 18.0487 33.2179 17.524 33.8654C13.5274 38.85 9.47226 43.7871 5.35847 48.6767C5.33614 48.6991 4.98728 49.0647 4.31188 49.7736C3.13971 51.0016 2.69037 52.4863 2.96388 54.2278" stroke="#F6D691" stroke-width="1.67454"/>
<path d="M2.96376 54.2278C2.86329 54.9758 2.68746 54.6492 2.43628 53.2482C2.36372 52.824 2.26603 52.8184 2.14324 53.2314C1.786 54.4762 2.07904 55.3609 3.02237 55.8856C3.26605 56.0156 3.45482 56.2132 3.55822 56.4466C3.65869 56.6643 3.77312 56.8736 3.9015 57.0745C4.09686 57.3648 4.37874 57.5936 4.74714 57.7611C7.75573 59.1063 10.929 59.5305 14.2669 59.0337C16.5834 58.6877 19.1007 59.3268 21.8191 60.9511C21.9566 61.0334 22.0762 61.1425 22.1703 61.2713C22.2644 61.4002 22.3309 61.5461 22.3655 61.6996C22.4002 61.8532 22.4022 62.0111 22.3716 62.1633C22.3409 62.3155 22.2782 62.4587 22.1875 62.5838L17.8923 68.5033C17.6969 68.7712 17.6411 68.7433 17.7248 68.4195C17.9369 67.6102 18.3221 66.8817 18.8803 66.2342C18.9227 66.1867 18.9557 66.1354 18.9774 66.0835C18.999 66.0317 19.0087 65.9803 19.0059 65.9328C19.0003 65.7375 18.8886 65.757 18.6709 65.9914C17.1527 67.6381 15.7182 69.3517 14.3674 71.1323C13.145 72.7454 12.5924 74.4981 12.7096 76.3903C12.7877 77.6518 13.371 78.6789 14.4595 79.4715C16.4354 80.9004 18.7128 81.5758 21.2916 81.4977C21.4423 81.4921 21.5847 81.5005 21.7186 81.5228C23.5774 81.7963 23.3876 81.961 21.1493 82.0168C20.0217 82.0503 19.9938 82.134 21.0655 82.268C21.1158 82.2736 21.1688 82.2736 21.2246 82.268C22.3689 82.1563 23.4573 82.2791 24.49 82.6364C25.9468 83.1387 26.9683 83.4374 27.5544 83.5323C30.1778 83.9453 32.5027 84.71 34.5288 85.8264C35.4554 86.3343 35.6871 87.0627 35.2238 88.0116C34.6377 89.2229 34.3502 90.4509 34.3614 91.6956" stroke="#F3F9AA" stroke-width="1.67454"/>
<path d="M34.3615 91.6958C31.9614 94.8886 29.5612 98.0814 27.161 101.274C25.4809 103.501 25.5618 105.701 27.4038 107.872C27.5787 108.068 27.8177 108.211 28.0904 108.282C32.9019 109.471 37.2138 110.222 41.0262 110.534C44.6041 110.83 47.7439 111.33 50.4455 112.033" stroke="#BBE7A5" stroke-width="1.67454"/>
<path d="M50.4454 112.033V112.175" stroke="#C9E3E8" stroke-width="1.67454"/>
<path d="M149.034 92.7757C147.477 91.1346 145.668 89.8703 143.608 88.9828C143.352 88.8712 143.34 88.8879 143.575 89.0331C145.104 90.0043 146.422 91.2016 147.527 92.625C147.705 92.8482 147.678 92.8734 147.443 92.7003C145.439 91.2379 143.391 89.848 141.298 88.5307C141.013 88.3577 140.631 88.0395 140.15 87.5762C139.782 87.2246 139.372 86.9343 138.92 86.7055C137.614 86.0412 136.96 85.7091 136.96 85.7091C134.371 84.0346 131.797 82.3377 129.241 80.6185C129.196 80.585 128.448 79.9933 126.997 78.8435C125.964 78.0174 124.792 77.448 123.48 77.1355C123.212 77.0696 122.971 76.9363 122.786 76.7503C121.418 75.3995 119.903 74.2413 118.239 73.2756C113.98 70.7973 109.78 68.2241 105.638 65.556C102.021 63.2228 98.2842 61.1241 94.4272 59.2597C91.5302 57.8643 87.9216 56.0781 83.6013 53.9012C81.0001 52.5895 78.3432 51.4006 75.6304 50.3344C70.6571 48.3864 67.9527 47.3203 67.5173 47.1361C61.1596 44.4959 55.2066 42.238 49.6583 40.3625C40.9116 37.4042 31.2802 34.5714 20.7641 31.8643" stroke="#F69E53" stroke-width="1.67454"/>
<path d="M127.265 99.6833C123.587 97.8469 119.933 95.9658 116.305 94.0401C111.477 91.4781 107.824 89.6054 105.345 88.422C93.7016 82.8626 81.804 77.9003 69.6525 73.5354C63.1273 71.191 56.5827 68.9192 50.0185 66.72C49.103 66.413 48.1765 66.1339 47.2387 65.8827C46.5912 65.7097 45.6451 65.5757 44.4004 65.4808C42.804 65.3524 41.2606 65.012 39.7703 64.4594C37.4873 63.6053 36.0081 63.103 35.3327 62.9523C32.8321 62.3829 30.3203 61.8666 27.7973 61.4033" stroke="#FED944" stroke-width="1.67454"/>
<path d="M27.7973 61.4033L23.41 59.6702" stroke="#F7DB50" stroke-width="1.67454"/>
<path d="M27.7973 61.4034L25.1515 60.6833C25.1169 60.6729 25.0804 60.6726 25.0455 60.6826C25.0107 60.6925 24.9787 60.7123 24.9527 60.74C24.9266 60.7678 24.9073 60.8026 24.8967 60.841C24.8861 60.8795 24.8844 60.9203 24.892 60.9596L25.252 62.6341C25.3022 62.8853 25.252 62.9049 25.1013 62.6927C24.7887 62.2741 24.6324 62.3802 24.6324 63.0109C24.6324 63.2681 24.5716 63.5083 24.4566 63.7058C23.7142 64.9729 23.0248 66.2651 22.3885 67.5824C22.1262 68.1294 21.5233 68.989 20.58 70.1612C19.5641 71.4227 19.126 72.9326 19.2655 74.6908C19.2761 74.8236 19.3134 74.9533 19.3751 75.0726C19.4369 75.1918 19.522 75.2983 19.6255 75.3858C20.4963 76.1114 21.4564 76.6584 22.5057 77.0268C23.823 77.4845 24.945 77.9311 25.8716 78.3665C26.9265 78.8577 28.0345 79.173 29.1955 79.3126C30.2003 79.4354 31.0403 79.6251 31.7157 79.8819C32.5306 80.1889 33.354 80.4708 34.1857 80.7276C34.4927 80.8224 35.1569 80.8755 36.1784 80.8866C37.0045 80.8978 37.6436 81.2383 38.0957 81.9081C38.2648 82.1593 38.469 82.346 38.6818 82.444C39.3628 82.7454 40.041 83.0635 40.7164 83.3984C41.3806 83.7278 42.0811 83.9203 42.8179 83.9762C48.5727 84.445 54.1853 85.7651 59.6554 87.9365C60.8443 88.4109 62.0779 88.69 63.3562 88.7737C64.5507 88.8519 65.72 89.103 66.8643 89.5273C67.5899 89.7952 68.6868 90.0994 70.1548 90.4399C71.1763 90.6743 72.2647 91.1097 73.4201 91.746C74.8044 92.5107 76.8725 93.2252 79.6243 93.8894C80.3611 94.0681 81.243 94.3918 82.2701 94.8607C83.1464 95.257 84.0535 95.5612 84.9912 95.7733C86.7383 96.1696 88.0696 96.5827 88.985 97.0125C92.3955 98.6033 95.231 99.6387 97.4917 100.119C100.154 100.682 101.915 101.294 102.775 101.952C104.042 102.924 105.454 103.602 107.011 103.987C108.809 104.433 110.595 104.925 112.37 105.461C113.47 105.795 114.494 105.904 115.443 105.787C116.487 105.659 117.516 105.458 118.532 105.184C120.313 104.71 121.845 104.436 123.129 104.364C126.673 104.152 130.19 103.694 133.678 102.991" stroke="#F7F76D" stroke-width="1.67454"/>
<path d="M135.043 104.255C135.886 104.556 136.084 105.103 135.638 105.896" stroke="#CFDC8D" stroke-width="1.67454"/>
<path d="M135.638 105.896C129.581 106.443 124.086 108.145 119.152 111.003C118.192 111.561 117.268 111.625 116.38 111.196" stroke="#CFDC8D" stroke-width="1.67454"/>
<path d="M116.38 111.196L111.566 108.893" stroke="#B6EA6D" stroke-width="1.67454"/>
<path d="M111.566 108.893C88.2509 99.0747 64.2464 91.4192 39.5525 85.9267C39.4037 85.8917 39.2555 85.8897 39.1271 85.9211C38.9987 85.9524 38.8961 86.0157 38.8324 86.1026L37.6435 87.7185" stroke="#BEE565" stroke-width="1.67454"/>
<path d="M37.6435 87.7188L34.3614 91.6958" stroke="#B8E775" stroke-width="1.67454"/>
<path d="M146.112 93.9729C143.812 93.6882 141.845 92.8147 140.209 91.3522C138.546 89.8619 137.48 88.9688 137.011 88.673C135.509 87.7185 133.994 86.7863 132.465 85.8765C131.566 85.3406 130.466 84.442 129.166 83.1805C127.798 81.852 126.218 80.8082 124.427 80.0491C124.22 79.9598 123.726 79.8677 122.945 79.7728C122.353 79.7002 121.89 79.4183 121.555 78.9271C121.391 78.6811 121.187 78.4951 120.969 78.3913C119.97 77.928 118.597 77.0433 116.849 75.7371C116.118 75.1901 113.71 73.8337 109.624 71.668C108.837 71.2494 108.142 70.7358 107.539 70.1274C106.73 69.3125 106.068 68.7906 105.555 68.5617C104.678 68.1766 103.386 67.6714 101.678 67.0463C100.936 66.7783 99.384 65.8881 97.0229 64.3754C96.0349 63.7446 94.9576 63.2255 93.791 62.8181C92.6467 62.4273 91.5136 62.0059 90.3917 61.5538C90.3135 61.5203 89.6214 61.3221 88.3152 60.9593C87.545 60.7416 86.8751 60.3453 86.3058 59.7704C86.0993 59.5583 85.876 59.416 85.636 59.3434C83.0851 58.5619 80.6738 57.4623 78.402 56.0445C77.2354 55.3189 76.0548 54.624 74.8603 53.9597C73.9449 53.4462 72.6722 52.9634 71.0424 52.5113C69.2841 52.0312 67.6096 51.3447 66.0187 50.4516C64.9638 49.8599 63.8139 49.4245 62.5692 49.1454C60.9505 48.7882 59.4155 48.2244 57.9642 47.4542C56.6246 46.7508 55.6505 46.3099 55.0421 46.1313C54.0039 45.8354 52.9406 45.6261 51.8521 45.5033C51.5786 45.4698 51.3916 45.3889 51.2912 45.2605C51.189 45.1184 51.0886 44.9923 51.0043 44.9005C50.92 44.8086 50.8563 44.7559 50.8223 44.7498C48.1653 44.052 45.5726 43.1645 43.044 42.0872C42.6589 41.9254 41.6821 41.37 40.1136 40.4211C38.9749 39.7289 37.8837 39.3773 36.8399 39.3661C34.3504 39.3382 32.4554 38.9921 31.1548 38.3279C29.0002 37.2339 26.7117 36.7817 24.2892 36.9715C24.2501 36.9771 23.6863 36.9715 22.5979 36.9548C21.7271 36.9436 21.0378 37.2785 20.5298 37.9595C20.3611 38.1883 20.1417 38.355 19.9019 38.4367C18.6125 38.861 17.6859 39.6703 17.1221 40.8648C17.0803 40.9537 17.0067 41.0382 16.9068 41.112C16.8069 41.1859 16.6831 41.2473 16.5444 41.2918L15.4895 41.6351" stroke="#FEB930" stroke-width="1.67454"/>
<path d="M116.38 111.196C116.939 112.597 116.52 113.133 115.125 112.803" stroke="#95CD81" stroke-width="1.67454"/>
<path d="M111.566 108.893C111.304 109.217 111.287 109.538 111.516 109.856C111.543 109.894 111.553 109.939 111.545 109.989C111.537 110.038 111.512 110.09 111.472 110.14C111.431 110.191 111.376 110.238 111.311 110.279C111.246 110.32 111.173 110.353 111.097 110.375C110.45 110.571 109.853 110.52 109.306 110.224C108.68 109.884 108.354 109.708 108.326 109.697C105.915 108.77 103.433 108.095 100.883 107.671C100.643 107.627 100.403 107.493 100.196 107.286C99.6992 106.783 98.9708 106.314 98.0107 105.879C90.9665 102.658 84.0032 100.339 77.1208 98.9213C74.4862 98.3799 72.6331 97.9473 71.5614 97.6235C69.3454 96.9593 67.5564 96.2923 66.1945 95.6225C64.2967 94.6847 62.4714 94.0958 60.7187 93.8558C59.2451 93.6549 57.9027 93.4093 56.6914 93.119C55.3407 92.7897 53.9564 92.6557 52.5386 92.7171C51.6511 92.7506 50.8613 92.5636 50.1691 92.1562C49.0248 91.4919 48.3411 91.1235 48.1178 91.051C47.0963 90.7272 46.2925 90.5486 45.7065 90.5151C44.7576 90.4593 43.8784 90.1886 43.0691 89.703C41.4559 88.7317 40.2168 88.5699 39.3516 89.2174" stroke="#84D659" stroke-width="1.67454"/>
<path d="M39.3516 89.2175C38.3803 89.5859 37.5598 90.1636 36.89 90.9506C36.6444 91.2409 36.5746 91.2102 36.6807 90.8585L37.6435 87.7188" stroke="#86D361" stroke-width="1.67454"/>
<path d="M190.454 82.6698C188.601 84.3611 187.772 86.1836 187.967 88.1372C188.14 89.8341 188.927 91.2546 190.328 92.3989C190.925 92.8789 192.248 93.6967 194.297 94.8521C199.231 97.6263 204.587 98.818 210.364 98.4273C210.648 98.4055 210.913 98.3065 211.126 98.1426C212.672 96.9313 213.487 95.4354 213.571 93.6548C213.638 92.1812 213.113 90.5876 211.997 88.874C210.384 86.3901 208.251 84.5118 205.6 83.2392C203.418 82.1898 201.277 81.4418 199.178 80.9953C196.728 80.4706 194.403 80.6604 192.204 81.5646C191.556 81.8326 190.973 82.201 190.454 82.6698Z" stroke="#9AC9F2" stroke-width="1.67454"/>
<path d="M241.966 107.182C242.572 105.491 242.279 103.556 241.152 101.803C240.025 100.05 238.156 98.6233 235.957 97.8358C234.868 97.4459 233.731 97.2247 232.61 97.185C231.489 97.1452 230.407 97.2876 229.424 97.6041C228.442 97.9205 227.58 98.4049 226.886 99.0294C226.192 99.6538 225.681 100.406 225.381 101.244C224.776 102.935 225.068 104.87 226.195 106.623C227.322 108.375 229.191 109.802 231.39 110.59C232.479 110.98 233.617 111.201 234.738 111.241C235.858 111.281 236.941 111.138 237.923 110.822C238.905 110.505 239.767 110.021 240.461 109.396C241.155 108.772 241.666 108.019 241.966 107.182Z" stroke="#9AC9F2" stroke-width="1.67454"/>
<path d="M168.978 102.949C164.847 100.202 160.474 99.8257 155.858 101.818C153.541 102.818 152.023 104.436 151.303 106.675C150.918 107.875 150.968 109.038 151.454 110.166C152.001 111.422 152.816 112.365 153.898 112.996C156.862 114.715 160.265 115.215 164.105 114.495C169.262 113.523 171.356 110.386 170.384 105.084C170.217 104.174 169.748 103.462 168.978 102.949Z" stroke="#9AC9F2" stroke-width="1.67454"/>
<path d="M180.924 152.371C181.339 152.412 181.759 152.357 182.161 152.209C182.562 152.061 182.938 151.823 183.265 151.508C183.593 151.193 183.866 150.807 184.07 150.373C184.273 149.939 184.403 149.465 184.452 148.979C184.55 147.995 184.311 147.019 183.788 146.265C183.266 145.51 182.502 145.04 181.664 144.956C181.249 144.915 180.829 144.97 180.428 145.118C180.026 145.266 179.651 145.504 179.323 145.819C178.995 146.134 178.722 146.52 178.518 146.953C178.315 147.387 178.185 147.861 178.136 148.348C178.038 149.332 178.277 150.308 178.8 151.062C179.322 151.817 180.087 152.287 180.924 152.371Z" stroke="#4E7095" stroke-width="1.67454"/>
<path d="M234.375 154.377C235.204 154.468 236.043 154.17 236.706 153.548C237.368 152.926 237.801 152.031 237.908 151.06C237.961 150.579 237.933 150.094 237.824 149.633C237.716 149.171 237.53 148.742 237.277 148.37C237.024 147.998 236.709 147.69 236.35 147.464C235.99 147.238 235.594 147.098 235.183 147.053C234.353 146.962 233.515 147.259 232.852 147.881C232.189 148.503 231.757 149.398 231.65 150.369C231.597 150.85 231.625 151.335 231.733 151.797C231.841 152.259 232.027 152.688 232.28 153.06C232.533 153.432 232.849 153.74 233.208 153.966C233.567 154.192 233.964 154.331 234.375 154.377Z" stroke="#4E7095" stroke-width="1.67454"/>
<path d="M174.973 160.628C172.304 159.049 169.661 158.92 167.044 160.243C166.29 160.623 165.76 161.147 165.453 161.817C165.107 162.571 164.964 163.347 165.026 164.145C165.11 165.222 165.637 166.132 166.608 166.874C168.685 168.476 171.423 168.867 174.822 168.046C175.341 167.917 175.795 167.608 176.103 167.176C178.051 164.401 177.674 162.219 174.973 160.628Z" stroke="#B4BFF3" stroke-width="1.67454"/>
<path d="M240.774 162.37C240.16 163.134 239.989 163.991 240.263 164.94C240.525 165.828 241.075 166.609 241.912 167.284C242.577 167.815 243.417 168.169 244.433 168.348C246.336 168.677 248.239 168.627 250.143 168.197C250.408 168.138 250.647 167.987 250.821 167.77C253.137 164.801 253.07 162.453 250.62 160.729C249.012 159.595 247.338 159.146 245.596 159.381C243.766 159.626 242.158 160.623 240.774 162.37Z" stroke="#B4BFF3" stroke-width="1.67454"/>
<path d="M197.805 175.875C200.015 179.14 203.155 181.013 207.224 181.493C212.203 182.079 215.921 180.385 218.377 176.411" stroke="#ABA1C2" stroke-width="1.67454"/>
<path d="M218.377 176.411C220.007 173.899 220.808 171.242 220.78 168.44C220.774 168.131 220.666 167.833 220.472 167.594C220.278 167.354 220.009 167.186 219.708 167.117C217.799 166.676 216.15 166.735 214.76 167.293C213.621 167.75 212.44 168.018 211.218 168.097C206.736 168.381 202.332 167.963 198.006 166.841C196.571 166.467 195.807 167.022 195.712 168.507C195.544 171.214 196.242 173.67 197.805 175.875" stroke="#6790B1" stroke-width="1.67454"/>
<path d="M218.377 176.411L214.969 173.572" stroke="#817287" stroke-width="1.67454"/>
<path d="M214.969 173.572C215.644 173.321 216.214 172.947 216.677 172.45C217.179 171.914 217.378 171.317 217.272 170.659C217.132 169.793 216.577 169.297 215.605 169.168C215.527 169.157 215.382 169.165 215.17 169.193C214.991 169.216 214.846 169.19 214.735 169.118C214.582 169.017 214.436 168.93 214.319 168.87C214.202 168.81 214.119 168.779 214.082 168.783C209.449 168.85 204.925 169.556 200.509 170.901C200.386 170.94 200.279 171.014 200.205 171.111C200.131 171.208 200.094 171.323 200.099 171.437C200.133 172.369 200.554 173.081 201.363 173.572" stroke="#25415A" stroke-width="1.67454"/>
<path d="M201.363 173.572L197.805 175.875" stroke="#817287" stroke-width="1.67454"/>
<path d="M214.969 173.572C210.431 173.137 205.896 173.137 201.363 173.572" stroke="#69526A" stroke-width="1.67454"/>
<path d="M169.681 164.865L170.326 165.886C170.392 165.989 170.486 166.08 170.602 166.153C170.719 166.227 170.856 166.281 171.004 166.313C172.918 166.704 174.144 165.97 174.68 164.111C174.715 163.988 174.715 163.858 174.679 163.735C174.644 163.612 174.574 163.501 174.479 163.416C172.932 162.037 171.16 161.622 169.162 162.169C169.026 162.205 168.901 162.268 168.795 162.352C168.689 162.435 168.606 162.539 168.551 162.654C168.171 163.43 168.358 163.991 169.112 164.337C169.33 164.441 169.528 164.624 169.681 164.865Z" stroke="#DFBCF6" stroke-width="1.67454"/>
<path d="M249.79 164.522C249.874 163.87 249.622 163.202 249.089 162.664C248.555 162.126 247.784 161.762 246.945 161.654C246.106 161.545 245.268 161.699 244.615 162.083C243.962 162.467 243.547 163.048 243.463 163.7C243.378 164.352 243.63 165.021 244.164 165.558C244.697 166.096 245.468 166.46 246.307 166.569C247.146 166.678 247.984 166.523 248.637 166.139C249.291 165.756 249.705 165.174 249.79 164.522Z" stroke="#DFBCF6" stroke-width="1.67454"/>
<path d="M172.511 83.3229C172.801 84.2829 173.016 85.2542 173.156 86.2366C173.307 87.2692 173.111 88.193 172.57 89.0079C171.972 89.9122 171.088 91.0704 169.916 92.4826C168.308 94.4195 166.371 94.9944 164.105 94.2074C162.084 93.5096 159.572 93.3813 156.569 93.8222L155.942 93.7552C158.537 92.7226 161.174 92.4547 163.854 92.9515C165.59 93.2696 166.742 93.3561 167.312 93.211C168.59 92.8873 169.556 92.0891 170.209 90.8164C170.309 90.6211 170.354 90.3587 170.343 90.0294C170.326 89.4266 170.496 88.8126 170.853 88.1874C171.434 87.1715 171.59 86.0356 171.322 84.7797C171.296 84.6598 171.24 84.5455 171.157 84.4454C171.074 84.3454 170.968 84.2621 170.845 84.202C169.952 83.7666 169.048 83.0382 168.132 82.0167C165.894 79.5105 163.136 76.9568 159.86 74.3557C158.984 73.6636 157.823 72.603 156.377 71.1741C155.249 70.0521 154.027 69.0446 152.71 68.1515C150.243 66.4714 148.981 65.6118 148.925 65.5727C145.844 63.2786 142.732 61.0263 139.59 58.816C139.394 58.6764 139.14 58.5899 138.828 58.5564C137.957 58.4615 137.343 58.0038 136.986 57.1833C136.863 56.8986 136.704 56.6837 136.508 56.5386C133.896 54.5626 131.111 52.8685 128.153 51.4563C127.488 51.1382 126.645 50.4991 125.624 49.539C124.764 48.7296 123.933 48.0877 123.129 47.6133C108.588 39.0787 99.4314 33.9574 95.6581 32.2494C92.1304 30.653 89.6716 29.6231 88.2817 29.1598C86.8249 28.6798 85.5913 28.0686 84.581 27.3262C84.0898 26.9634 83.6069 26.715 83.1325 26.581C82.6078 26.4303 82.0831 26.2768 81.5584 26.1206C80.8105 25.8973 80.0458 25.5959 79.2643 25.2163C73.0964 22.2356 67.1881 19.7657 61.5393 17.8065C59.4126 17.0697 57.5762 16.2352 56.0301 15.303C55.8179 15.1746 55.564 15.0937 55.2681 15.0602C54.5593 14.9821 53.5099 14.7113 52.12 14.2481C41.7546 10.7818 31.2971 7.64478 20.7475 4.83714C19.5418 4.51339 18.5427 4.83714 17.7501 5.80837C15.9527 8.01876 13.9154 9.98077 11.638 11.6944C11.5606 11.7519 11.4584 11.7773 11.3467 11.7668C11.2351 11.7562 11.1199 11.7103 11.0184 11.6358C10.6333 11.3623 10.223 11.5883 9.78761 12.314C9.09547 13.4582 7.96515 14.9235 6.39667 16.7096C6.24038 16.8882 6.11758 17.1255 6.02827 17.4213C5.86082 18.0074 5.52591 18.4679 5.02354 18.8028C4.76678 18.9703 4.72492 18.9228 4.89795 18.6605C5.5287 17.7004 5.90826 16.6482 6.03664 15.504L18.2106 3.18772C19.1371 2.78583 20.3233 2.77466 21.769 3.15422C53.5741 11.566 83.8972 23.6729 112.738 39.475C123.511 45.3806 134.407 52.3383 145.425 60.3482C155.456 67.6436 164.484 75.3018 172.511 83.3229Z" fill="#D6888B"/>
<path d="M155.942 93.7553C154.68 93.5823 153.527 93.7832 152.484 94.3582C152.211 94.5054 151.939 94.5757 151.705 94.5591C150.505 94.4586 149.615 93.8642 149.034 92.7757C150.558 91.7487 150.597 90.6546 149.151 89.4936C146.796 87.5902 144.412 85.7231 142.001 83.8923C140.304 82.6029 138.967 81.8382 137.99 81.5982C137.069 81.3693 136.386 80.9953 135.939 80.4762C135.721 80.225 135.515 80.0548 135.32 79.9655C132.601 78.7263 130 77.2862 127.516 75.6452C126.802 75.1763 125.604 74.1911 123.924 72.6896C122.68 71.5788 121.404 70.6746 120.098 69.9769C117.592 68.6484 115.605 67.3506 114.137 66.0836C111.122 63.488 107.745 61.5567 104.006 60.2896C102.683 59.8431 101.405 59.2179 100.171 58.4142C98.2396 57.1527 96.1074 56.1061 93.7742 55.2744C92.4513 54.7999 91.081 54.1915 89.6632 53.4491C88.3849 52.7737 87.0118 52.1877 85.5438 51.6909C82.4236 50.6303 79.2782 49.073 76.1078 47.0189C75.4659 46.6003 74.7765 46.2765 74.0397 46.0477C68.7482 44.3899 63.532 42.3832 58.3911 40.0277C56.5268 39.1737 54.9444 38.6071 53.6438 38.328C51.9916 37.9708 50.3143 37.7419 48.6118 37.6415C46.8591 37.5354 45.5865 37.1335 44.7939 36.4358L43.2198 35.0459C43.0967 34.9411 42.973 34.8561 42.8574 34.7968C42.7418 34.7376 42.6369 34.7055 42.55 34.7027C38.6316 34.5854 34.808 33.9156 31.0794 32.6932C29.1648 32.0625 26.48 31.2866 23.0248 30.3656C21.0824 29.8465 20.3288 30.3461 20.7642 31.8643L18.4199 31.655L15.5648 30.9935C11.7412 30.0391 7.95955 29.1488 4.21975 28.3227C1.1665 27.6473 -0.100569 25.7467 0.418539 22.6208C0.76461 20.5388 1.32279 19.2829 2.09308 18.8531C3.62808 17.9991 4.94259 16.8828 6.03662 15.504C5.90824 16.6483 5.52868 17.7005 4.89793 18.6606C4.7249 18.9229 4.76676 18.9703 5.02353 18.8029C5.52589 18.468 5.8608 18.0075 6.02825 17.4214C6.11756 17.1256 6.24036 16.8883 6.39665 16.7097C7.96514 14.9235 9.09545 13.4583 9.78759 12.314C10.223 11.5884 10.6332 11.3624 11.0184 11.6359C11.1199 11.7103 11.2351 11.7563 11.3467 11.7669C11.4584 11.7774 11.5605 11.752 11.638 11.6945C13.9153 9.98086 15.9527 8.01885 17.75 5.80846C18.5427 4.83722 19.5418 4.51348 20.7475 4.83722C31.2971 7.64487 41.7546 10.7818 52.12 14.2481C53.5099 14.7114 54.5592 14.9821 55.2681 15.0603C55.564 15.0938 55.8179 15.1747 56.03 15.3031C57.5762 16.2353 59.4126 17.0697 61.5393 17.8065C67.1881 19.7658 73.0964 22.2357 79.2643 25.2164C80.0457 25.5959 80.8105 25.8974 81.5584 26.1206C82.0831 26.2769 82.6078 26.4304 83.1325 26.5811C83.6069 26.7151 84.0898 26.9635 84.581 27.3263C85.5913 28.0687 86.8248 28.6799 88.2817 29.1599C89.6716 29.6232 92.1303 30.6531 95.658 32.2495C99.4313 33.9575 108.588 39.0788 123.129 47.6134C123.933 48.0878 124.764 48.7297 125.624 49.5391C126.645 50.4992 127.488 51.1383 128.153 51.4564C131.111 52.8686 133.896 54.5627 136.508 56.5387C136.704 56.6838 136.863 56.8987 136.986 57.1834C137.343 58.0039 137.957 58.4616 138.828 58.5565C139.14 58.59 139.394 58.6765 139.59 58.816C142.732 61.0264 145.844 63.2787 148.925 65.5728C148.981 65.6119 150.242 66.4715 152.71 68.1516C154.027 69.0447 155.249 70.0522 156.377 71.1741C157.823 72.6031 158.984 73.6636 159.86 74.3558C163.136 76.9569 165.894 79.5106 168.132 82.0168C169.048 83.0383 169.952 83.7667 170.845 84.2021C170.968 84.2622 171.074 84.3454 171.157 84.4455C171.24 84.5456 171.296 84.6599 171.322 84.7798C171.59 86.0357 171.434 87.1716 170.853 88.1875C170.496 88.8126 170.326 89.4267 170.343 90.0295C170.354 90.3588 170.309 90.6211 170.209 90.8165C169.556 92.0892 168.59 92.8874 167.312 93.2111C166.742 93.3562 165.59 93.2697 163.854 92.9516C161.174 92.4548 158.537 92.7227 155.942 93.7553Z" fill="#FD7F80"/>
<path d="M149.034 92.7758C147.477 91.1347 145.668 89.8704 143.609 88.9829C143.352 88.8713 143.341 88.888 143.575 89.0332C145.105 90.0044 146.422 91.2017 147.527 92.6251C147.706 92.8483 147.678 92.8735 147.443 92.7004C145.439 91.238 143.391 89.8481 141.298 88.5308C141.013 88.3578 140.631 88.0396 140.151 87.5763C139.782 87.2247 139.372 86.9344 138.92 86.7056C137.614 86.0413 136.961 85.7092 136.961 85.7092C134.371 84.0347 131.798 82.3378 129.241 80.6186C129.196 80.5851 128.448 79.9934 126.997 78.8436C125.965 78.0175 124.792 77.4481 123.481 77.1356C123.212 77.0697 122.972 76.9364 122.786 76.7504C121.418 75.3996 119.903 74.2414 118.239 73.2757C113.98 70.7974 109.78 68.2242 105.638 65.5561C102.021 63.2229 98.2844 61.1242 94.4274 59.2598C91.5304 57.8644 87.9218 56.0782 83.6015 53.9013C81.0004 52.5896 78.3434 51.4007 75.6307 50.3345C70.6573 48.3865 67.9529 47.3204 67.5175 47.1362C61.1598 44.496 55.2068 42.2381 49.6585 40.3626C40.9118 37.4043 31.2805 34.5715 20.7643 31.8643C20.329 30.3461 21.0825 29.8465 23.025 30.3656C26.4801 31.2866 29.1649 32.0625 31.0795 32.6932C34.8082 33.9157 38.6317 34.5855 42.5501 34.7027C42.637 34.7055 42.7419 34.7376 42.8575 34.7969C42.9731 34.8561 43.0968 34.9411 43.2199 35.046L44.794 36.4358C45.5866 37.1336 46.8593 37.5355 48.6119 37.6415C50.3144 37.742 51.9917 37.9708 53.6439 38.3281C54.9445 38.6072 56.5269 39.1737 58.3913 40.0277C63.5321 42.3833 68.7483 44.3899 74.0398 46.0477C74.7766 46.2766 75.466 46.6003 76.1079 47.0189C79.2784 49.073 82.4237 50.6304 85.5439 51.6909C87.0119 52.1877 88.3851 52.7738 89.6633 53.4492C91.0811 54.1916 92.4514 54.8 93.7743 55.2744C96.1075 56.1061 98.2397 57.1527 100.171 58.4142C101.405 59.218 102.683 59.8431 104.006 60.2897C107.746 61.5567 111.123 63.4881 114.137 66.0836C115.605 67.3507 117.592 68.6484 120.098 69.9769C121.404 70.6746 122.68 71.5789 123.924 72.6897C125.605 74.1912 126.802 75.1763 127.516 75.6452C130 77.2863 132.601 78.7264 135.32 79.9655C135.515 80.0548 135.722 80.2251 135.939 80.4763C136.386 80.9954 137.07 81.3694 137.991 81.5982C138.967 81.8382 140.304 82.6029 142.001 83.8923C144.412 85.7232 146.796 87.5903 149.151 89.4937C150.597 90.6547 150.558 91.7487 149.034 92.7758Z" fill="#F7895E"/>
<path d="M18.4199 31.655L20.7643 31.8643C31.2804 34.5715 40.9118 37.4043 49.6585 40.3626C55.2068 42.2381 61.1598 44.496 67.5174 47.1362C67.9528 47.3204 70.6572 48.3865 75.6306 50.3345C78.3434 51.4007 81.0003 52.5896 83.6014 53.9013C87.9217 56.0782 91.5304 57.8644 94.4273 59.2598C98.2843 61.1242 102.021 63.2229 105.638 65.5561C109.78 68.2242 113.98 70.7974 118.239 73.2757C119.903 74.2414 121.418 75.3996 122.786 76.7504C122.972 76.9364 123.212 77.0697 123.481 77.1356C124.792 77.4481 125.964 78.0175 126.997 78.8436C128.448 79.9934 129.196 80.5851 129.241 80.6186C131.797 82.3378 134.371 84.0347 136.961 85.7092C136.961 85.7092 137.614 86.0413 138.92 86.7056C139.372 86.9344 139.782 87.2247 140.151 87.5763C140.631 88.0396 141.013 88.3578 141.298 88.5308C143.391 89.8481 145.439 91.238 147.443 92.7004C147.678 92.8734 147.706 92.8483 147.527 92.6251C146.422 91.2017 145.104 90.0044 143.575 89.0332C143.341 88.888 143.352 88.8713 143.609 88.9829C145.668 89.8704 147.477 91.1347 149.034 92.7758C149.615 93.8642 150.505 94.4587 151.705 94.5592C151.939 94.5757 152.211 94.5054 152.484 94.3582C153.527 93.7833 154.68 93.5823 155.942 93.7554L156.57 93.8224L151.931 95.296L148.247 97.8161C147.387 98.4078 146.76 99.1055 146.363 99.9093C145.861 100.936 145.208 101.824 144.404 102.572C143.656 103.275 142.71 103.777 141.566 104.079C139.445 104.637 137.27 104.696 135.043 104.255C134.496 104.082 134.041 103.66 133.679 102.99C131.407 102.393 129.269 101.291 127.265 99.6832C128.086 99.8674 128.85 100.202 129.559 100.688C130.832 101.564 131.937 101.908 132.875 101.718C133.785 101.528 134.697 101.497 135.613 101.626C138.722 102.056 141.175 101.447 142.972 99.8005C143.19 99.5995 143.656 98.9995 144.37 98.0003C144.817 97.3808 145.325 96.8058 145.894 96.2756C146.028 96.1528 146.143 96.0076 146.238 95.8402C146.729 94.9973 146.966 95.0643 146.949 96.0411C146.949 96.2045 146.894 96.3688 146.79 96.51C144.742 99.4628 144.876 99.5605 147.192 96.803C147.259 96.7193 147.346 96.6384 147.452 96.5602C148.289 95.9016 148.512 95.1201 148.121 94.2159C148.105 94.1771 148.079 94.1437 148.045 94.1184C148.011 94.0931 147.969 94.0765 147.925 94.07C147.88 94.0634 147.833 94.0672 147.787 94.0809C147.741 94.0946 147.698 94.1179 147.661 94.1489C147.242 94.495 146.726 94.4364 146.112 93.9731C145.492 92.3376 144.454 91.3133 142.997 90.9003C142.736 90.8293 142.505 90.6832 142.336 90.4816C141.158 89.1029 139.484 87.9726 137.312 87.0907C136.402 86.7223 135.378 86.0832 134.24 85.1734C133.397 84.5035 132.381 83.8812 131.192 83.3062C130.048 82.7536 128.984 82.0699 128.002 81.2549C127.745 81.0428 127.254 80.4177 126.528 79.3794C126.031 78.6817 125.39 78.1598 124.603 77.8137C122.883 77.0714 121.965 76.6639 121.848 76.5913C117.416 73.7502 112.939 70.976 108.418 68.2689C104.377 65.8519 100.252 63.5801 96.0433 61.4535C95.619 61.2414 94.6645 60.5743 93.1798 59.4524C92.1583 58.6821 90.8382 58.0402 89.2195 57.5267C87.5729 57.002 86.2249 56.6029 85.1755 56.3294C83.5735 55.9163 82.2729 55.4223 81.2738 54.8474C80.1128 54.1776 78.949 53.5134 77.7824 52.8547C76.6493 52.2184 75.4352 51.6714 74.1403 51.2137C67.4421 48.8693 61.5672 46.5947 56.5157 44.3899C55.2821 43.8541 54.1351 43.4326 53.0745 43.1256C52.0028 42.8242 50.8474 42.4419 49.6082 41.9786C48.2742 41.4874 46.7392 41.105 45.0033 40.8315C43.9036 40.6585 42.7426 40.2733 41.5202 39.6761C40.002 38.9281 38.8884 38.4648 38.1795 38.2862C36.6389 37.9011 34.6937 37.5327 32.3437 37.181C32.0423 37.1364 31.7576 37.0331 31.4897 36.8712C30.2003 36.0898 28.9332 35.5455 27.6885 35.2385C27.5824 35.2106 26.8429 34.9706 25.4697 34.5185C24.532 34.2115 23.5663 34.2394 22.5728 34.6022C22.3218 34.695 22.0483 34.7125 21.7857 34.6525C20.6694 34.3845 20.0442 34.6999 19.9103 35.5986C19.8919 35.7364 19.8498 35.8667 19.7865 35.9817C19.7232 36.0967 19.6401 36.1942 19.5419 36.2684C18.6376 36.9829 17.951 37.8704 17.4822 38.9309C17.3796 39.1577 17.1839 39.3505 16.9296 39.4751C16.0588 39.8938 15.5788 40.6138 15.4895 41.6353C12.3469 45.2467 10.2537 47.4208 9.20994 48.1576C7.11677 49.6368 6.5865 51.5207 7.61913 53.8092C7.6707 53.9225 7.75204 54.0216 7.85582 54.0976C7.9596 54.1737 8.08255 54.2241 8.21359 54.2446C11.9087 54.8418 15.6234 55.2828 19.3577 55.5675C20.1335 55.6289 20.742 55.8466 21.1829 56.2205C21.702 56.6615 22.1179 57.1974 22.4304 57.8281C22.5086 57.9844 22.6928 58.163 22.983 58.364L23.7617 58.9166C24.1413 59.1845 24.1078 59.2291 23.6612 59.0505C22.0816 58.4142 21.9979 58.6207 23.41 59.6701C21.8695 59.5026 20.368 59.1984 18.9055 58.7575C17.2812 58.2663 15.7993 57.9732 14.4596 57.8783C11.2724 57.6439 8.12707 57.1276 5.02359 56.3294C3.92956 56.0447 3.243 55.3442 2.96391 54.2278C2.6904 52.4863 3.13974 51.0016 4.31191 49.7736C4.98731 49.0647 5.33617 48.6991 5.3585 48.6767C9.47229 43.7871 13.5275 38.85 17.524 33.8654C18.0487 33.2179 18.3474 32.4811 18.4199 31.655Z" fill="#F5B348"/>
<path d="M146.112 93.9732C143.812 93.6886 141.845 92.815 140.209 91.3526C138.546 89.8622 137.48 88.9692 137.011 88.6733C135.509 87.7188 133.994 86.7867 132.465 85.8768C131.566 85.341 130.466 84.4423 129.166 83.1808C127.798 81.8524 126.219 80.8086 124.427 80.0494C124.22 79.9601 123.726 79.868 122.945 79.7731C122.353 79.7006 121.89 79.4187 121.555 78.9275C121.391 78.6815 121.187 78.4955 120.969 78.3916C119.97 77.9284 118.597 77.0436 116.849 75.7375C116.118 75.1905 113.71 73.8341 109.624 71.6684C108.837 71.2497 108.142 70.7362 107.539 70.1278C106.73 69.3128 106.068 68.7909 105.555 68.5621C104.678 68.1769 103.386 67.6718 101.678 67.0466C100.936 66.7787 99.384 65.8884 97.0229 64.3757C96.0349 63.745 94.9576 63.2259 93.791 62.8184C92.6468 62.4277 91.5137 62.0063 90.3917 61.5541C90.3136 61.5206 89.6214 61.3225 88.3153 60.9597C87.545 60.742 86.8752 60.3457 86.3058 59.7708C86.0993 59.5586 85.876 59.4163 85.636 59.3437C83.0851 58.5623 80.6738 57.4627 78.402 56.0449C77.2354 55.3193 76.0549 54.6243 74.8603 53.9601C73.9449 53.4466 72.6723 52.9637 71.0424 52.5116C69.2841 52.0316 67.6096 51.345 66.0188 50.4519C64.9638 49.8603 63.814 49.4249 62.5692 49.1458C60.9505 48.7886 59.4155 48.2248 57.9642 47.4545C56.6246 46.7512 55.6506 46.3102 55.0422 46.1316C54.0039 45.8358 52.9406 45.6265 51.8522 45.5037C51.5786 45.4702 51.3917 45.3892 51.2912 45.2609C51.1891 45.1187 51.0886 44.9926 51.0043 44.9008C50.92 44.809 50.8563 44.7562 50.8223 44.7501C48.1654 44.0524 45.5726 43.1649 43.0441 42.0876C42.6589 41.9257 41.6821 41.3703 40.1136 40.4214C38.9749 39.7293 37.8837 39.3776 36.8399 39.3665C34.3504 39.3386 32.4554 38.9925 31.1548 38.3283C29.0003 37.2342 26.7117 36.7821 24.2892 36.9719C24.2501 36.9775 23.6864 36.9719 22.5979 36.9551C21.7272 36.944 21.0378 37.2789 20.5299 37.9599C20.3611 38.1886 20.1417 38.3554 19.9019 38.4371C18.6125 38.8613 17.6859 39.6707 17.1222 40.8652C17.0803 40.9541 17.0067 41.0385 16.9068 41.1124C16.8069 41.1862 16.6831 41.2477 16.5445 41.2922L15.4895 41.6355C15.5788 40.614 16.0588 39.894 16.9296 39.4753C17.1839 39.3507 17.3796 39.1579 17.4822 38.9311C17.9511 37.8706 18.6376 36.983 19.5419 36.2686C19.6401 36.1944 19.7233 36.0969 19.7865 35.9819C19.8498 35.8669 19.8919 35.7366 19.9103 35.5988C20.0443 34.7001 20.6694 34.3847 21.7858 34.6526C22.0484 34.7127 22.3218 34.6952 22.5728 34.6024C23.5664 34.2396 24.532 34.2117 25.4698 34.5187C26.8429 34.9708 27.5825 35.2108 27.6885 35.2387C28.9333 35.5457 30.2003 36.09 31.4897 36.8714C31.7577 37.0333 32.0423 37.1365 32.3438 37.1812C34.6937 37.5329 36.639 37.9013 38.1795 38.2864C38.8884 38.465 40.002 38.9283 41.5202 39.6763C42.7426 40.2735 43.9037 40.6587 45.0033 40.8317C46.7392 41.1052 48.2742 41.4876 49.6083 41.9788C50.8474 42.442 52.0029 42.8244 53.0746 43.1258C54.1351 43.4328 55.2822 43.8542 56.5158 44.3901C61.5673 46.5949 67.4421 48.8695 74.1403 51.2139C75.4353 51.6716 76.6493 52.2186 77.7824 52.8549C78.949 53.5136 80.1128 54.1778 81.2738 54.8476C82.273 55.4225 83.5735 55.9165 85.1755 56.3296C86.2249 56.6031 87.5729 57.0022 89.2195 57.5269C90.8382 58.0404 92.1583 58.6823 93.1798 59.4526C94.6646 60.5745 95.6191 61.2416 96.0433 61.4537C100.252 63.5803 104.377 65.8521 108.418 68.269C112.939 70.9762 117.416 73.7504 121.848 76.5915C121.965 76.6641 122.883 77.0715 124.603 77.8139C125.39 78.16 126.032 78.6819 126.528 79.3796C127.254 80.4178 127.745 81.043 128.002 81.2551C128.984 82.07 130.048 82.7538 131.192 83.3064C132.381 83.8813 133.397 84.5037 134.24 85.1735C135.378 86.0834 136.403 86.7225 137.312 87.0909C139.484 87.9728 141.158 89.1031 142.336 90.4818C142.505 90.6834 142.736 90.8295 142.997 90.9005C144.454 91.3135 145.492 92.3378 146.112 93.9732Z" fill="#FEB438"/>
<path d="M146.112 93.9731C146.726 94.4364 147.242 94.495 147.661 94.149C147.698 94.118 147.741 94.0947 147.787 94.081C147.833 94.0673 147.88 94.0635 147.925 94.07C147.969 94.0765 148.011 94.0931 148.045 94.1185C148.079 94.1438 148.105 94.1772 148.121 94.2159C148.512 95.1202 148.289 95.9016 147.452 96.5603C147.346 96.6384 147.259 96.7194 147.192 96.8031C144.876 99.5605 144.742 99.4628 146.79 96.5101C146.894 96.3688 146.949 96.2045 146.949 96.0412C146.966 95.0644 146.729 94.9974 146.238 95.8402C146.143 96.0077 146.028 96.1528 145.894 96.2756C145.325 96.8059 144.817 97.3808 144.37 98.0004C143.656 98.9995 143.19 99.5996 142.972 99.8005C141.175 101.447 138.722 102.056 135.613 101.626C134.697 101.497 133.785 101.528 132.875 101.718C131.937 101.908 130.832 101.564 129.559 100.688C128.85 100.202 128.086 99.8675 127.265 99.6833C123.587 97.8469 119.933 95.9658 116.305 94.0401C111.477 91.4781 107.824 89.6054 105.345 88.422C93.7017 82.8626 81.804 77.9003 69.6525 73.5354C63.1273 71.191 56.5827 68.9192 50.0185 66.72C49.1031 66.413 48.1765 66.1339 47.2387 65.8827C46.5912 65.7097 45.6451 65.5757 44.4004 65.4808C42.804 65.3524 41.2606 65.012 39.7703 64.4594C37.4873 63.6053 36.0081 63.103 35.3327 62.9523C32.8321 62.3829 30.3203 61.8666 27.7973 61.4033L23.41 59.6702C21.9978 58.6208 22.0816 58.4143 23.6612 59.0506C24.1077 59.2292 24.1412 59.1845 23.7617 58.9166L22.983 58.364C22.6928 58.1631 22.5086 57.9845 22.4304 57.8282C22.1178 57.1974 21.702 56.6616 21.1829 56.2206C20.7419 55.8466 20.1335 55.6289 19.3576 55.5675C15.6234 55.2829 11.9087 54.8419 8.21356 54.2447C8.08252 54.2242 7.95957 54.1737 7.85579 54.0977C7.75201 54.0217 7.67067 53.9226 7.6191 53.8093C6.58646 51.5207 7.11674 49.6369 9.20991 48.1577C10.2537 47.4209 12.3469 45.2468 15.4894 41.6354L16.5444 41.2921C16.6831 41.2475 16.8069 41.1861 16.9068 41.1123C17.0067 41.0384 17.0802 40.954 17.1221 40.8651C17.6859 39.6706 18.6125 38.8612 19.9019 38.437C20.1416 38.3553 20.3611 38.1885 20.5298 37.9597C21.0377 37.2788 21.7271 36.9439 22.5979 36.955C23.6863 36.9718 24.2501 36.9774 24.2892 36.9718C26.7117 36.782 29.0002 37.2341 31.1548 38.3281C32.4553 38.9924 34.3504 39.3385 36.8398 39.3664C37.8836 39.3775 38.9749 39.7292 40.1136 40.4213C41.6821 41.3702 42.6589 41.9256 43.044 42.0875C45.5726 43.1648 48.1653 44.0523 50.8222 44.75C50.8562 44.7561 50.92 44.8089 51.0042 44.9007C51.0885 44.9925 51.189 45.1186 51.2911 45.2607C51.3916 45.3891 51.5786 45.4701 51.8521 45.5036C52.9405 45.6264 54.0039 45.8357 55.0421 46.1315C55.6505 46.3101 56.6245 46.7511 57.9642 47.4544C59.4154 48.2247 60.9504 48.7884 62.5692 49.1457C63.8139 49.4248 64.9637 49.8601 66.0187 50.4518C67.6095 51.3449 69.2841 52.0315 71.0423 52.5115C72.6722 52.9636 73.9449 53.4465 74.8603 53.96C76.0548 54.6242 77.2353 55.3192 78.4019 56.0448C80.6737 57.4626 83.0851 58.5622 85.6359 59.3436C85.876 59.4162 86.0992 59.5585 86.3058 59.7706C86.8751 60.3456 87.5449 60.7419 88.3152 60.9596C89.6214 61.3224 90.3135 61.5205 90.3917 61.554C91.5136 62.0062 92.6467 62.4276 93.791 62.8183C94.9576 63.2258 96.0349 63.7449 97.0228 64.3756C99.3839 65.8883 100.936 66.7786 101.678 67.0465C103.386 67.6717 104.678 68.1768 105.555 68.562C106.068 68.7908 106.73 69.3127 107.539 70.1277C108.142 70.7361 108.837 71.2496 109.624 71.6683C113.71 73.834 116.118 75.1904 116.849 75.7374C118.597 77.0435 119.97 77.9282 120.969 78.3915C121.187 78.4953 121.391 78.6813 121.555 78.9274C121.89 79.4186 122.353 79.7005 122.945 79.773C123.726 79.8679 124.22 79.96 124.427 80.0493C126.218 80.8085 127.798 81.8523 129.166 83.1807C130.466 84.4422 131.566 85.3409 132.465 85.8767C133.994 86.7866 135.509 87.7187 137.011 88.6732C137.48 88.969 138.546 89.8621 140.209 91.3525C141.845 92.8149 143.812 93.6885 146.112 93.9731Z" fill="#FDBD27"/>
<path d="M2.964 54.2278C3.24309 55.3442 3.92966 56.0447 5.02369 56.3293C8.12717 57.1275 11.2725 57.6439 14.4597 57.8783C15.7994 57.9732 17.2813 58.2662 18.9056 58.7574C20.3681 59.1984 21.8696 59.5026 23.4101 59.6701L27.7974 61.4032L25.1517 60.6831C25.117 60.6727 25.0805 60.6725 25.0457 60.6824C25.0109 60.6923 24.9789 60.7121 24.9528 60.7399C24.9268 60.7676 24.9075 60.8024 24.8969 60.8409C24.8862 60.8793 24.8846 60.9202 24.8921 60.9594L25.2521 62.634C25.3024 62.8852 25.2521 62.9047 25.1014 62.6926C24.7889 62.274 24.6326 62.38 24.6326 63.0108C24.6326 63.268 24.5718 63.5082 24.4567 63.7057C23.7144 64.9728 23.025 66.2649 22.3887 67.5823C22.1263 68.1293 21.5235 68.9889 20.5802 70.161C19.5643 71.4225 19.1261 72.9324 19.2657 74.6907C19.2763 74.8234 19.3135 74.9531 19.3753 75.0724C19.4371 75.1917 19.5222 75.2981 19.6257 75.3856C20.4964 76.1112 21.4565 76.6583 22.5059 77.0267C23.8232 77.4844 24.9451 77.9309 25.8717 78.3663C26.9267 78.8575 28.0347 79.1729 29.1957 79.3124C30.2004 79.4352 31.0405 79.625 31.7159 79.8818C32.5308 80.1888 33.3541 80.4706 34.1858 80.7274C34.4928 80.8223 35.157 80.8753 36.1785 80.8865C37.0046 80.8976 37.6437 81.2381 38.0959 81.9079C38.265 82.1591 38.4692 82.3458 38.682 82.4438C39.3629 82.7452 40.0411 83.0634 40.7165 83.3983C41.3808 83.7276 42.0813 83.9202 42.8181 83.976C48.5729 84.4449 54.1854 85.765 59.6556 87.9363C60.8445 88.4108 62.0781 88.6898 63.3563 88.7736C64.5508 88.8517 65.7202 89.1029 66.8645 89.5271C67.5901 89.795 68.6869 90.0992 70.155 90.4397C71.1764 90.6742 72.2649 91.1096 73.4203 91.7459C74.8046 92.5106 76.8727 93.2251 79.6245 93.8893C80.3613 94.0679 81.2432 94.3917 82.2702 94.8605C83.1466 95.2568 84.0536 95.561 84.9914 95.7731C86.7385 96.1695 88.0697 96.5825 88.9852 97.0123C92.3956 98.6031 95.2312 99.6385 97.4918 100.119C100.154 100.682 101.915 101.294 102.775 101.952C104.042 102.923 105.454 103.602 107.012 103.987C108.809 104.433 110.595 104.925 112.37 105.46C113.47 105.795 114.494 105.904 115.443 105.787C116.487 105.659 117.517 105.458 118.532 105.184C120.313 104.71 121.845 104.436 123.129 104.364C126.673 104.151 130.19 103.694 133.679 102.99C134.041 103.66 134.496 104.082 135.043 104.255C135.886 104.556 136.084 105.103 135.638 105.896C129.582 106.443 124.086 108.145 119.152 111.003C118.192 111.561 117.268 111.625 116.381 111.196L111.566 108.893C88.2512 99.0748 64.2466 91.4193 39.5527 85.9268C39.4039 85.8918 39.2557 85.8898 39.1274 85.9212C38.999 85.9525 38.8963 86.0158 38.8327 86.1027L37.6437 87.7186L34.3616 91.6956C34.3505 90.4509 34.6379 89.2229 35.224 88.0117C35.6873 87.0627 35.4557 86.3343 34.5291 85.8264C32.5029 84.71 30.1781 83.9453 27.5546 83.5323C26.9685 83.4374 25.9471 83.1387 24.4902 82.6364C23.4576 82.2791 22.3691 82.1563 21.2249 82.268C21.1691 82.2736 21.116 82.2736 21.0658 82.268C19.9941 82.134 20.022 82.0503 21.1495 82.0168C23.3878 81.961 23.5776 81.7963 21.7189 81.5228C21.5849 81.5005 21.4426 81.4921 21.2919 81.4977C18.7131 81.5758 16.4357 80.9004 14.4597 79.4715C13.3713 78.6789 12.788 77.6518 12.7098 76.3903C12.5926 74.4981 13.1452 72.7454 14.3676 71.1323C15.7184 69.3517 17.1529 67.6381 18.6712 65.9914C18.8889 65.757 19.0005 65.7375 19.0061 65.9328C19.0089 65.9803 18.9992 66.0317 18.9776 66.0835C18.956 66.1354 18.9229 66.1867 18.8805 66.2342C18.3223 66.8817 17.9372 67.6102 17.7251 68.4195C17.6414 68.7433 17.6972 68.7712 17.8925 68.5033L22.1877 62.5838C22.2785 62.4587 22.3412 62.3155 22.3718 62.1633C22.4025 62.0111 22.4004 61.8532 22.3658 61.6996C22.3311 61.5461 22.2646 61.4002 22.1706 61.2713C22.0765 61.1425 21.9569 61.0334 21.8193 60.9511C19.101 59.3268 16.5836 58.6877 14.2672 59.0337C10.9292 59.5305 7.75598 59.1063 4.74739 57.7611C4.37899 57.5936 4.09711 57.3648 3.90175 57.0745C3.77336 56.8736 3.65894 56.6643 3.55847 56.4466C3.45506 56.2132 3.26629 56.0156 3.02261 55.8856C2.07929 55.3609 1.78624 54.4762 2.14348 53.2314C2.26628 52.8184 2.36396 52.824 2.43652 53.2482C2.6877 54.6492 2.86353 54.9758 2.964 54.2278Z" fill="#F0F979"/>
<path d="M27.7973 61.4034C30.3203 61.8666 32.8321 62.383 35.3327 62.9523C36.0081 63.103 37.4873 63.6054 39.7703 64.4594C41.2606 65.012 42.804 65.3525 44.4004 65.4809C45.6451 65.5758 46.5912 65.7097 47.2387 65.8827C48.1765 66.1339 49.1031 66.413 50.0185 66.72C56.5827 68.9192 63.1273 71.191 69.6525 73.5354C81.804 77.9004 93.7017 82.8626 105.345 88.4221C107.824 89.6054 111.477 91.4781 116.305 94.0402C119.933 95.9659 123.587 97.8469 127.265 99.6833C129.269 101.291 131.407 102.393 133.679 102.991C130.19 103.694 126.673 104.152 123.129 104.364C121.845 104.436 120.313 104.71 118.532 105.184C117.516 105.458 116.487 105.659 115.443 105.787C114.494 105.904 113.47 105.795 112.37 105.461C110.595 104.925 108.809 104.433 107.011 103.987C105.454 103.602 104.042 102.924 102.775 101.952C101.915 101.294 100.154 100.682 97.4917 100.119C95.2311 99.6387 92.3955 98.6033 88.985 97.0125C88.0696 96.5827 86.7383 96.1696 84.9912 95.7733C84.0535 95.5612 83.1465 95.257 82.2701 94.8607C81.2431 94.3918 80.3611 94.0681 79.6243 93.8894C76.8725 93.2252 74.8045 92.5107 73.4202 91.746C72.2647 91.1097 71.1763 90.6743 70.1548 90.4399C68.6868 90.0994 67.59 89.7952 66.8643 89.5273C65.7201 89.1031 64.5507 88.8519 63.3562 88.7737C62.0779 88.69 60.8444 88.4109 59.6554 87.9365C54.1853 85.7651 48.5728 84.445 42.8179 83.9762C42.0811 83.9203 41.3806 83.7278 40.7164 83.3984C40.041 83.0635 39.3628 82.7454 38.6818 82.444C38.469 82.346 38.2648 82.1593 38.0957 81.9081C37.6436 81.2383 37.0045 80.8978 36.1784 80.8866C35.1569 80.8755 34.4927 80.8224 34.1857 80.7276C33.354 80.4708 32.5307 80.1889 31.7157 79.8819C31.0403 79.6251 30.2003 79.4354 29.1956 79.3126C28.0345 79.173 26.9266 78.8577 25.8716 78.3665C24.945 77.9311 23.8231 77.4845 22.5058 77.0268C21.4564 76.6584 20.4963 76.1114 19.6256 75.3858C19.5221 75.2983 19.437 75.1918 19.3752 75.0726C19.3134 74.9533 19.2761 74.8236 19.2655 74.6908C19.126 72.9326 19.5642 71.4227 20.58 70.1612C21.5234 68.989 22.1262 68.1294 22.3885 67.5824C23.0249 66.2651 23.7142 64.9729 24.4566 63.7058C24.5717 63.5083 24.6324 63.2681 24.6324 63.0109C24.6324 62.3802 24.7887 62.2741 25.1013 62.6927C25.252 62.9049 25.3022 62.8853 25.252 62.6341L24.892 60.9596C24.8845 60.9203 24.8861 60.8795 24.8967 60.841C24.9074 60.8026 24.9266 60.7678 24.9527 60.74C24.9788 60.7123 25.0107 60.6925 25.0456 60.6826C25.0804 60.6726 25.1169 60.6729 25.1515 60.6833L27.7973 61.4034Z" fill="#FEF461"/>
<path d="M301.459 142.978L303.753 147.793C303.441 149.551 303.307 150.999 303.351 152.138C303.452 154.432 303.279 156.456 302.832 158.208C302.492 159.526 301.571 161.809 300.069 165.057C299.299 166.715 298.252 168.264 296.93 169.704C295.11 171.68 293.307 173.67 291.521 175.674C289.55 177.873 287.608 179.601 285.693 180.856C278.711 185.422 271.086 188.517 262.819 190.142C262.467 190.209 261.965 190.203 261.312 190.125C260.765 190.058 260.246 190.103 259.755 190.259C259.197 190.443 258.675 190.923 258.189 191.699C254.689 197.303 250.835 202.081 246.626 206.033C240.514 211.777 233.102 214.202 224.388 213.309C220.565 212.918 216.686 211.766 212.75 209.851C209.971 208.5 207.97 207.755 206.747 207.616C204.637 207.376 202.407 207.582 200.057 208.235C196.513 209.218 192.971 210.208 189.432 211.208C186.295 212.095 183.114 212.636 179.888 212.832C176.544 213.038 173.611 212.67 171.088 211.727C168.28 210.683 165.69 209.1 163.318 206.979C158.931 203.055 153.938 199.678 148.339 196.848C146.458 195.894 144.736 195.45 143.173 195.517C137.067 195.779 131.555 194.593 126.637 191.959C124.767 190.96 123.302 189.829 122.241 188.568C122.208 188.528 122.167 188.496 122.12 188.474C122.074 188.452 122.023 188.44 121.971 188.439C121.92 188.438 121.868 188.449 121.821 188.469C121.774 188.49 121.732 188.521 121.697 188.559L119.855 190.644C119.771 190.742 119.715 190.86 119.696 190.985C119.677 191.11 119.694 191.236 119.746 191.347C120.595 193.178 121.427 194.498 122.241 195.308C123.269 196.329 123.816 197.376 123.883 198.448C122.615 197.839 121.602 196.985 120.843 195.885C120.519 195.428 120.279 194.56 120.123 193.282C119.883 191.3 118.691 190.002 116.548 189.388L116.012 179.843C115.964 179.01 115.626 178.217 115.058 177.599C104.787 166.469 100.249 153.478 101.444 138.625C102.571 135.393 103.364 132.049 103.822 128.594C103.849 128.354 103.953 128.1 104.131 127.832C104.494 127.291 104.575 126.758 104.374 126.233C104.333 126.124 104.258 126.025 104.156 125.941C104.054 125.858 103.928 125.795 103.788 125.756C95.8954 123.601 91.215 122.172 89.747 121.469C88.96 121.095 88.2343 120.866 87.5701 120.782C86.3756 120.637 85.65 120.523 85.3932 120.439C84.048 120.009 82.686 119.646 81.3073 119.351C80.6487 119.205 79.3537 118.776 77.4224 118.061C76.1386 117.581 74.6817 117.305 73.0518 117.232C72.4881 117.204 72.3513 116.917 72.6416 116.37C82.0581 118.039 91.2652 120.5 100.263 123.755L105.077 124.567C105.185 124.585 105.308 124.566 105.433 124.514C105.559 124.461 105.684 124.376 105.797 124.265C108.75 121.374 110.952 118.89 112.404 116.814C113.715 114.938 115.32 113.693 117.218 113.079C118.329 113.068 119.515 112.638 120.776 111.79C122.691 110.501 124.879 109.471 127.34 108.701C129.099 108.148 131.463 107.846 134.432 107.796C138.635 107.724 141.496 107.467 143.014 107.026C144.365 106.641 145.551 105.804 146.573 104.514C148.828 101.673 150.519 99.3147 151.646 97.4392L153.773 96.0828C154.22 95.7982 154.175 95.6586 153.639 95.6642C152.953 95.6754 152.383 95.5526 151.931 95.2958L156.57 93.8222C159.573 93.3812 162.084 93.5096 164.105 94.2074C166.371 94.9944 168.308 94.4195 169.916 92.4826C171.088 91.0704 171.973 89.9122 172.57 89.0079C173.111 88.193 173.307 87.2692 173.156 86.2365C173.016 85.2541 172.801 84.2829 172.511 83.3228L174.328 85.2067C174.953 86.1389 175.553 86.2561 176.128 85.5583C176.519 85.0839 176.728 84.8327 176.756 84.8048C181.473 80.1719 187.286 77.0796 194.196 75.5279C199.756 74.2719 204.883 74.8999 209.577 77.4117C215.812 80.744 220.755 86.0077 224.405 93.2026C224.431 93.2518 224.466 93.2954 224.508 93.331C224.551 93.3665 224.6 93.3932 224.653 93.4095C224.706 93.4259 224.762 93.4316 224.817 93.4262C224.872 93.4209 224.926 93.4047 224.975 93.3785C230.662 90.3699 236.06 90.3447 241.167 93.3031C242.959 94.3413 244.62 95.8038 246.149 97.6904C247.483 99.337 248.728 101.19 249.883 103.25C249.93 103.334 249.993 103.408 250.069 103.468C250.145 103.527 250.233 103.571 250.327 103.596C250.42 103.621 250.518 103.627 250.615 103.613C250.711 103.6 250.804 103.567 250.888 103.518C258.345 98.9854 266.258 96.5796 274.625 96.3005C277.014 96.2224 279.484 96.6075 282.035 97.456C284.306 98.2207 286.48 99.3705 288.557 100.906C293.815 104.785 297.315 109.822 299.056 116.018C299.787 118.614 300.22 122.666 300.354 128.175C300.477 133.238 300.482 137.335 300.371 140.467C300.326 141.75 300.689 142.588 301.459 142.978ZM190.454 82.6698C188.601 84.3611 187.772 86.1835 187.967 88.1371C188.14 89.834 188.927 91.2546 190.328 92.3988C190.926 92.8789 192.248 93.6966 194.297 94.852C199.231 97.6262 204.587 98.8179 210.364 98.4272C210.648 98.4054 210.913 98.3065 211.126 98.1425C212.672 96.9313 213.487 95.4353 213.571 93.6548C213.638 92.1812 213.113 90.5876 211.997 88.8739C210.384 86.39 208.251 84.5118 205.6 83.2391C203.418 82.1897 201.277 81.4418 199.178 80.9952C196.728 80.4705 194.403 80.6603 192.204 81.5646C191.556 81.8325 190.973 82.2009 190.454 82.6698ZM241.966 107.182C242.572 105.491 242.279 103.556 241.152 101.803C240.025 100.05 238.156 98.6231 235.957 97.8357C234.868 97.4457 233.731 97.2246 232.61 97.1848C231.489 97.1451 230.407 97.2875 229.425 97.6039C228.443 97.9204 227.58 98.4047 226.886 99.0292C226.192 99.6537 225.681 100.406 225.381 101.244C224.776 102.935 225.069 104.87 226.195 106.623C227.322 108.375 229.191 109.802 231.39 110.59C232.479 110.98 233.617 111.201 234.738 111.241C235.859 111.28 236.941 111.138 237.923 110.822C238.905 110.505 239.768 110.021 240.461 109.396C241.155 108.772 241.667 108.019 241.966 107.182ZM168.978 102.948C164.847 100.202 160.474 99.8254 155.858 101.818C153.541 102.817 152.023 104.436 151.303 106.674C150.918 107.874 150.968 109.038 151.454 110.166C152.001 111.422 152.816 112.365 153.899 112.996C156.863 114.715 160.265 115.214 164.105 114.494C169.263 113.523 171.356 110.386 170.385 105.083C170.217 104.174 169.748 103.462 168.978 102.948ZM180.924 152.371C181.339 152.412 181.759 152.357 182.161 152.209C182.562 152.061 182.938 151.823 183.265 151.508C183.593 151.193 183.866 150.807 184.07 150.373C184.273 149.939 184.403 149.465 184.452 148.979C184.55 147.995 184.311 147.019 183.789 146.265C183.266 145.51 182.502 145.04 181.664 144.956C181.25 144.915 180.829 144.969 180.428 145.118C180.026 145.266 179.651 145.504 179.323 145.819C178.995 146.134 178.722 146.519 178.519 146.953C178.315 147.387 178.185 147.861 178.137 148.348C178.038 149.332 178.277 150.308 178.8 151.062C179.322 151.816 180.087 152.287 180.924 152.371ZM234.375 154.376C235.205 154.468 236.043 154.17 236.706 153.548C237.368 152.926 237.801 152.031 237.908 151.06C237.961 150.579 237.933 150.094 237.825 149.633C237.716 149.171 237.53 148.742 237.277 148.37C237.024 147.998 236.709 147.69 236.35 147.464C235.991 147.238 235.594 147.098 235.183 147.053C234.353 146.961 233.515 147.259 232.852 147.881C232.19 148.503 231.757 149.398 231.65 150.369C231.597 150.85 231.625 151.335 231.733 151.797C231.842 152.258 232.027 152.688 232.281 153.06C232.534 153.432 232.849 153.74 233.208 153.966C233.567 154.191 233.964 154.331 234.375 154.376ZM174.973 160.628C172.305 159.048 169.662 158.92 167.044 160.243C166.29 160.622 165.76 161.147 165.453 161.817C165.107 162.57 164.965 163.346 165.026 164.145C165.11 165.222 165.637 166.132 166.608 166.874C168.685 168.476 171.423 168.867 174.822 168.046C175.341 167.916 175.795 167.608 176.103 167.175C178.051 164.401 177.674 162.219 174.973 160.628ZM240.774 162.37C240.16 163.134 239.99 163.991 240.263 164.94C240.525 165.827 241.075 166.609 241.913 167.284C242.577 167.815 243.417 168.169 244.433 168.348C246.336 168.677 248.24 168.627 250.143 168.197C250.408 168.137 250.647 167.987 250.821 167.77C253.138 164.8 253.071 162.453 250.62 160.728C249.013 159.595 247.338 159.146 245.596 159.38C243.766 159.626 242.158 160.622 240.774 162.37ZM197.805 175.875C200.016 179.14 203.155 181.013 207.224 181.493C212.203 182.079 215.921 180.385 218.377 176.411C220.007 173.899 220.808 171.242 220.78 168.44C220.775 168.131 220.666 167.833 220.472 167.594C220.278 167.354 220.009 167.186 219.708 167.117C217.799 166.676 216.15 166.734 214.76 167.293C213.621 167.75 212.441 168.018 211.218 168.096C206.736 168.381 202.332 167.962 198.006 166.841C196.572 166.467 195.807 167.022 195.712 168.507C195.544 171.214 196.242 173.67 197.805 175.875Z" fill="#90BFEC"/>
<path d="M190.454 82.6698C190.973 82.201 191.556 81.8326 192.204 81.5646C194.403 80.6604 196.728 80.4706 199.178 80.9953C201.277 81.4418 203.418 82.1898 205.6 83.2392C208.251 84.5118 210.384 86.3901 211.997 88.874C213.113 90.5876 213.638 92.1812 213.571 93.6548C213.487 95.4354 212.672 96.9313 211.126 98.1426C210.913 98.3065 210.648 98.4055 210.364 98.4272C204.587 98.818 199.231 97.6263 194.297 94.8521C192.248 93.6967 190.926 92.8789 190.328 92.3989C188.927 91.2546 188.14 89.8341 187.967 88.1372C187.772 86.1836 188.601 84.3611 190.454 82.6698Z" fill="#A3D2F8"/>
<path d="M111.566 108.893C111.304 109.217 111.287 109.538 111.516 109.856C111.543 109.894 111.553 109.939 111.545 109.989C111.537 110.038 111.512 110.09 111.472 110.14C111.431 110.191 111.376 110.238 111.311 110.279C111.246 110.32 111.173 110.353 111.097 110.375C110.45 110.57 109.853 110.52 109.306 110.224C108.68 109.884 108.354 109.708 108.326 109.697C105.915 108.77 103.434 108.095 100.883 107.671C100.644 107.627 100.403 107.492 100.196 107.286C99.6994 106.783 98.9709 106.314 98.0109 105.879C90.9666 102.658 84.0033 100.339 77.121 98.9212C74.4864 98.3798 72.6332 97.9472 71.5615 97.6234C69.3455 96.9592 67.5565 96.2922 66.1946 95.6223C64.2968 94.6846 62.4715 94.0957 60.7188 93.8557C59.2452 93.6548 57.9028 93.4092 56.6916 93.1189C55.3408 92.7896 53.9565 92.6556 52.5387 92.717C51.6512 92.7505 50.8614 92.5635 50.1692 92.156C49.025 91.4918 48.3412 91.1234 48.1179 91.0508C47.0965 90.7271 46.2927 90.5485 45.7066 90.515C44.7577 90.4592 43.8785 90.1885 43.0692 89.7028C41.456 88.7316 40.2169 88.5697 39.3517 89.2172C38.3805 89.5856 37.5599 90.1633 36.8901 90.9504C36.6445 91.2406 36.5748 91.2099 36.6808 90.8583L37.6437 87.7185L38.8326 86.1026C38.8962 86.0157 38.9989 85.9524 39.1273 85.9211C39.2557 85.8897 39.4039 85.8917 39.5526 85.9267C64.2465 91.4192 88.2511 99.0747 111.566 108.893Z" fill="#8CD151"/>
<path d="M37.6437 87.7188L36.6808 90.8585C36.5747 91.2102 36.6445 91.2409 36.8901 90.9506C37.5599 90.1636 38.3805 89.5859 39.3517 89.2175C39.1508 89.9878 38.7656 90.6492 38.1963 91.2018C38.0002 91.4032 37.8741 91.6465 37.8362 91.8967C37.6241 93.4541 37.105 94.8914 36.2789 96.2087C36.1422 96.4327 36.0725 96.6971 36.078 96.9706C36.117 98.2823 35.7124 99.4405 34.8639 100.445C34.6747 100.667 34.5679 100.922 34.5625 101.165C34.5179 102.572 35.037 103.529 36.1198 104.037C36.4715 104.199 37.3813 104.531 38.8493 105.033C39.6308 105.296 40.6355 105.525 41.8635 105.72C47.3113 106.585 52.7676 107.392 58.2321 108.14C59.689 108.335 61.157 108.698 62.6362 109.228C64.8689 110.026 66.3174 110.462 66.9816 110.534C68.6785 110.724 71.3885 110.702 75.1115 110.467C78.3936 110.266 81.0924 110.314 83.2079 110.61C86.691 111.101 89.5321 111.827 91.7313 112.787C95.499 114.422 97.9243 115.346 99.0072 115.558C100.86 115.921 102.641 115.321 104.349 113.758C104.511 113.613 104.751 113.487 105.069 113.381L109.816 111.866C110.112 111.774 110.397 111.777 110.612 111.874C112.108 112.549 113.612 112.859 115.125 112.803C115.002 112.826 114.932 112.895 114.915 113.013C112.604 113.616 110.768 114.838 109.406 116.68C108.72 117.601 108.27 118.181 108.058 118.421C107.567 118.968 107.07 119.515 106.568 120.063C106.545 120.09 106.046 120.771 105.069 122.105C103.992 123.585 102.39 124.134 100.263 123.755C91.2652 120.501 82.0581 118.039 72.6416 116.37L50.4455 112.033C47.7439 111.33 44.6042 110.83 41.0262 110.534C37.2139 110.222 32.9019 109.471 28.0904 108.282C27.8178 108.211 27.5787 108.068 27.4039 107.872C25.5619 105.701 25.4809 103.501 27.161 101.274C29.5612 98.0814 31.9614 94.8886 34.3616 91.6958L37.6437 87.7188Z" fill="#7FD570"/>
<path d="M111.566 108.893L116.381 111.196C116.939 112.597 116.52 113.133 115.125 112.803C113.612 112.859 112.108 112.549 110.612 111.874C110.397 111.777 110.112 111.774 109.816 111.866L105.069 113.381C104.751 113.487 104.511 113.613 104.349 113.758C102.641 115.321 100.86 115.921 99.0072 115.558C97.9244 115.346 95.4991 114.422 91.7314 112.787C89.5321 111.826 86.691 111.101 83.208 110.61C81.0925 110.314 78.3937 110.266 75.1116 110.467C71.3885 110.702 68.6785 110.724 66.9817 110.534C66.3174 110.462 64.8689 110.026 62.6362 109.228C61.157 108.698 59.689 108.335 58.2322 108.14C52.7676 107.392 47.3114 106.585 41.8635 105.72C40.6355 105.525 39.6308 105.296 38.8494 105.033C37.3814 104.531 36.4715 104.199 36.1199 104.037C35.037 103.529 34.5179 102.572 34.5625 101.165C34.5679 100.922 34.6747 100.667 34.864 100.445C35.7124 99.4404 36.1171 98.2822 36.078 96.9705C36.0725 96.6969 36.1423 96.4325 36.279 96.2086C37.1051 94.8913 37.6242 93.4539 37.8363 91.8966C37.8742 91.6464 38.0002 91.4031 38.1963 91.2017C38.7656 90.6491 39.1508 89.9876 39.3517 89.2174C40.2169 88.5699 41.4561 88.7317 43.0692 89.703C43.8786 90.1886 44.7577 90.4593 45.7066 90.5151C46.2927 90.5486 47.0965 90.7272 48.118 91.051C48.3412 91.1235 49.025 91.4919 50.1693 92.1562C50.8614 92.5636 51.6512 92.7506 52.5387 92.7171C53.9565 92.6557 55.3408 92.7897 56.6916 93.119C57.9028 93.4093 59.2453 93.6549 60.7189 93.8558C62.4716 94.0958 64.2968 94.6847 66.1946 95.6225C67.5566 96.2923 69.3455 96.9593 71.5615 97.6235C72.6332 97.9473 74.4864 98.3799 77.121 98.9213C84.0034 100.339 90.9667 102.658 98.0109 105.879C98.971 106.314 99.6994 106.783 100.196 107.286C100.403 107.493 100.644 107.627 100.883 107.671C103.434 108.095 105.915 108.77 108.326 109.697C108.354 109.708 108.681 109.884 109.306 110.224C109.853 110.52 110.45 110.571 111.097 110.375C111.173 110.353 111.246 110.32 111.311 110.279C111.376 110.238 111.431 110.191 111.472 110.14C111.512 110.09 111.537 110.038 111.545 109.989C111.553 109.939 111.543 109.894 111.516 109.856C111.287 109.538 111.304 109.217 111.566 108.893Z" fill="#7CDA61"/>
<path d="M151.931 95.2959C152.383 95.5527 152.953 95.6755 153.639 95.6643C154.175 95.6587 154.22 95.7983 153.773 96.0829L151.646 97.4393C149.732 99.2813 148.018 101.268 146.506 103.401C145.629 104.634 144.516 105.382 143.165 105.645C143.12 105.656 141.878 105.801 139.439 106.08C138.178 106.231 136.91 106.169 135.638 105.896C136.084 105.103 135.886 104.556 135.043 104.255C137.271 104.696 139.445 104.637 141.566 104.079C142.71 103.777 143.656 103.275 144.404 102.572C145.208 101.824 145.861 100.936 146.363 99.9093C146.76 99.1055 147.388 98.4077 148.247 97.8161L151.931 95.2959Z" fill="#ADBFA1"/>
<path d="M231.39 110.59C235.97 112.23 240.705 110.704 241.966 107.182C243.227 103.66 240.537 99.4757 235.957 97.8359C231.377 96.196 226.642 97.7218 225.381 101.244C224.12 104.766 226.811 108.95 231.39 110.59Z" fill="#A3D2F8"/>
<path d="M151.646 97.4395C150.519 99.3149 148.828 101.673 146.573 104.514C145.551 105.804 144.365 106.641 143.014 107.026C141.496 107.467 138.635 107.724 134.432 107.796C131.463 107.847 129.099 108.148 127.34 108.701C124.879 109.471 122.691 110.501 120.776 111.79C119.515 112.639 118.329 113.068 117.218 113.08L114.915 113.013C114.932 112.895 115.002 112.826 115.125 112.803C116.52 113.133 116.939 112.597 116.381 111.196C117.268 111.626 118.192 111.561 119.152 111.003C124.086 108.145 129.582 106.443 135.638 105.896C136.91 106.169 138.177 106.231 139.439 106.08C141.878 105.801 143.12 105.656 143.165 105.645C144.516 105.382 145.629 104.634 146.506 103.401C148.018 101.269 149.732 99.2814 151.646 97.4395Z" fill="#ADBFA1"/>
<path d="M168.978 102.949C169.748 103.462 170.217 104.174 170.384 105.084C171.356 110.386 169.263 113.523 164.105 114.495C160.265 115.215 156.863 114.715 153.899 112.996C152.816 112.365 152.001 111.422 151.454 110.166C150.968 109.038 150.918 107.875 151.303 106.675C152.023 104.436 153.541 102.818 155.858 101.818C160.474 99.8257 164.847 100.202 168.978 102.949Z" fill="#A3D2F8"/>
<path d="M50.4455 112.033L72.6416 116.37C72.3513 116.917 72.4881 117.205 73.0518 117.232C74.6817 117.305 76.1386 117.581 77.4224 118.061C79.3537 118.776 80.6487 119.206 81.3073 119.351C82.686 119.647 84.048 120.009 85.3932 120.439C85.65 120.523 86.3756 120.637 87.5701 120.782C88.2343 120.866 88.96 121.095 89.747 121.469C91.215 122.172 95.8953 123.601 103.788 125.756C103.928 125.795 104.054 125.859 104.156 125.942C104.258 126.025 104.333 126.125 104.374 126.233C104.575 126.758 104.494 127.291 104.131 127.832C103.953 128.1 103.849 128.354 103.822 128.594C103.364 132.049 102.571 135.393 101.444 138.625C98.7309 138.206 96.0851 137.693 93.5063 137.084C89.4204 136.118 86.7886 135.527 85.6109 135.309C74.5366 133.255 63.3897 131.706 52.1703 130.662C49.7366 130.439 47.9644 129.998 46.8536 129.339C44.6432 128.028 43.845 126.152 44.459 123.713C44.7437 122.602 45.768 120.808 47.5318 118.329C48.7431 116.638 49.9013 114.908 51.0065 113.138C51.0876 113.011 51.1339 112.871 51.137 112.742C51.14 112.612 51.0997 112.504 51.0232 112.435C50.8893 112.312 50.6967 112.226 50.4455 112.175V112.033Z" fill="#9BCCF6"/>
<path d="M114.915 113.012L117.218 113.079C115.32 113.693 113.715 114.938 112.404 116.814C110.952 118.89 108.75 121.374 105.797 124.265C105.684 124.376 105.559 124.461 105.433 124.514C105.308 124.566 105.185 124.585 105.077 124.567L100.263 123.755C102.39 124.134 103.992 123.584 105.069 122.105C106.046 120.771 106.545 120.09 106.568 120.062C107.07 119.515 107.567 118.968 108.058 118.421C108.27 118.181 108.72 117.601 109.406 116.68C110.768 114.838 112.604 113.615 114.915 113.012Z" fill="#84CD9B"/>
<path d="M301.459 142.979C305.45 144.759 308.559 147.148 310.786 150.146C320.175 162.805 321.221 176.028 313.926 189.815C310.75 195.816 306.564 201.364 301.367 206.46C297.951 209.804 293.659 213.368 288.49 217.152C267.603 232.441 243.863 240.37 217.272 240.939C213.482 241.017 208.913 240.755 203.565 240.152C199.083 239.65 194.573 238.899 190.035 237.9C180.998 235.907 172.12 233.331 163.402 230.172C153.907 226.728 144.976 222.182 136.609 216.533C131.982 213.401 127.525 209.204 123.238 203.94C119.571 199.441 117.341 194.591 116.548 189.388C118.691 190.002 119.883 191.3 120.123 193.282C120.279 194.56 120.519 195.428 120.843 195.886C121.602 196.985 122.615 197.839 123.882 198.448C125.501 200.156 126.489 202.162 126.846 204.468C126.89 204.752 127 205.007 127.165 205.204C128.845 207.169 130.706 208.922 132.749 210.463C133.966 211.378 136.112 212.525 139.188 213.904C141.917 215.126 144.53 216.572 147.025 218.241C149.001 219.558 150.315 220.34 150.968 220.585C151.973 220.959 152.799 221.372 153.446 221.824C154.529 222.578 155.3 223.038 155.757 223.206C160.597 224.986 164.775 226.362 168.291 227.334C169.676 227.713 170.915 228.162 172.009 228.681C173.611 229.441 174.819 229.932 175.634 230.155C178.207 230.842 180.789 231.498 183.379 232.123C184.054 232.285 185.26 232.689 186.996 233.337C188.218 233.8 189.466 234.096 190.738 234.224C191.051 234.258 191.336 234.361 191.593 234.534C194.484 236.527 196.831 237.632 198.634 237.85C204.21 238.519 209.786 238.511 215.363 237.824C219.739 237.289 223.236 237.28 225.854 237.799C227.21 238.067 228.432 238.168 229.521 238.101C231.078 238 232.275 237.939 233.113 237.917C234.117 237.889 235.091 237.702 236.035 237.356C237.486 236.825 238.407 236.51 238.798 236.41C240.779 235.907 242.412 235.341 243.696 234.71C244.695 234.224 245.677 234.026 246.643 234.115C248.161 234.255 249.107 234.291 249.481 234.224C252.551 233.7 254.809 232.954 256.255 231.989C258.543 230.47 260.131 229.686 261.019 229.636C262.571 229.552 264.298 229.047 266.202 228.121C272.001 225.291 277.033 222.408 281.298 219.472C281.314 219.46 281.9 219.167 283.056 218.592C283.899 218.168 284.923 217.342 286.129 216.114C286.671 215.555 287.357 215.156 288.113 214.959C288.894 214.752 289.517 214.283 289.98 213.552C290.683 212.447 291.577 211.523 292.659 210.781C296.539 208.135 299.815 205.137 302.489 201.788C302.936 201.236 303.6 200.265 304.482 198.875C305.118 197.876 305.793 196.904 306.508 195.961C307.63 194.476 308.59 193.003 309.388 191.54C310.024 190.374 310.697 189.227 311.406 188.099C311.925 187.278 312.352 186.293 312.687 185.143C312.999 184.077 313.404 183.05 313.901 182.062C314.548 180.767 314.917 179.609 315.006 178.588C315.458 173.503 315.271 168.44 314.445 163.4C314.306 162.551 313.971 161.429 313.44 160.034C313.022 158.934 312.695 157.801 312.461 156.634C312.31 155.914 311.838 155.141 311.046 154.315C310.337 153.578 309.748 152.903 309.279 152.289C307.811 150.38 305.969 148.881 303.753 147.793L301.459 142.979Z" fill="#83AFCE"/>
<path d="M178.137 148.349C177.932 150.396 179.18 152.197 180.924 152.371C182.668 152.545 184.247 151.026 184.452 148.979C184.656 146.931 183.408 145.13 181.664 144.956C179.92 144.782 178.341 146.301 178.137 148.349Z" fill="#0C213D"/>
<path d="M231.65 150.37C231.427 152.392 232.647 154.186 234.375 154.377C236.103 154.567 237.685 153.083 237.908 151.06C238.131 149.038 236.911 147.244 235.183 147.053C233.455 146.862 231.873 148.347 231.65 150.37Z" fill="#0C213D"/>
<path d="M303.753 147.793C305.969 148.881 307.811 150.38 309.279 152.289C309.748 152.903 310.337 153.578 311.046 154.315C311.839 155.141 312.31 155.914 312.461 156.634C312.695 157.801 313.022 158.934 313.441 160.034C313.971 161.429 314.306 162.551 314.445 163.399C315.271 168.44 315.458 173.503 315.006 178.588C314.917 179.609 314.549 180.767 313.901 182.062C313.404 183.05 313 184.077 312.687 185.143C312.352 186.293 311.925 187.278 311.406 188.099C310.697 189.226 310.024 190.374 309.388 191.54C308.59 193.003 307.63 194.476 306.508 195.961C305.793 196.904 305.118 197.875 304.482 198.875C303.6 200.264 302.936 201.236 302.489 201.788C299.815 205.137 296.539 208.135 292.659 210.781C291.577 211.523 290.684 212.447 289.98 213.552C289.517 214.283 288.895 214.752 288.113 214.959C287.357 215.156 286.671 215.555 286.129 216.114C284.923 217.342 283.899 218.168 283.056 218.592C281.901 219.167 281.314 219.46 281.298 219.471C277.033 222.407 272.001 225.29 266.202 228.12C264.298 229.047 262.571 229.552 261.019 229.636C260.132 229.686 258.543 230.47 256.255 231.989C254.809 232.954 252.551 233.699 249.481 234.224C249.107 234.291 248.161 234.255 246.643 234.115C245.677 234.026 244.695 234.224 243.696 234.71C242.412 235.341 240.779 235.907 238.798 236.409C238.407 236.51 237.486 236.825 236.035 237.356C235.092 237.702 234.118 237.889 233.113 237.917C232.276 237.939 231.078 238 229.521 238.101C228.432 238.168 227.21 238.067 225.854 237.799C223.236 237.28 219.739 237.289 215.363 237.824C209.786 238.511 204.21 238.519 198.634 237.85C196.831 237.632 194.484 236.527 191.593 234.534C191.336 234.361 191.051 234.258 190.739 234.224C189.466 234.096 188.218 233.8 186.996 233.337C185.26 232.689 184.054 232.284 183.379 232.123C180.789 231.497 178.207 230.842 175.634 230.155C174.819 229.932 173.611 229.441 172.009 228.681C170.915 228.162 169.676 227.713 168.291 227.333C164.775 226.362 160.597 224.986 155.757 223.206C155.3 223.038 154.529 222.578 153.447 221.824C152.799 221.372 151.973 220.959 150.968 220.585C150.315 220.339 149.001 219.558 147.025 218.241C144.53 216.572 141.917 215.126 139.188 213.904C136.112 212.525 133.966 211.378 132.749 210.462C130.706 208.922 128.845 207.169 127.165 205.204C127 205.007 126.89 204.752 126.846 204.468C126.489 202.162 125.501 200.156 123.883 198.448C123.816 197.376 123.269 196.329 122.241 195.308C121.427 194.498 120.595 193.178 119.746 191.348C119.694 191.236 119.677 191.11 119.696 190.985C119.715 190.86 119.771 190.742 119.855 190.644L121.697 188.559C121.732 188.521 121.774 188.49 121.821 188.47C121.868 188.449 121.92 188.438 121.971 188.439C122.023 188.44 122.074 188.452 122.12 188.474C122.167 188.496 122.208 188.528 122.241 188.568C123.302 189.829 124.767 190.96 126.637 191.959C131.555 194.593 137.067 195.779 143.173 195.517C144.736 195.45 146.458 195.894 148.339 196.848C153.938 199.678 158.931 203.055 163.318 206.979C165.69 209.1 168.28 210.683 171.088 211.727C173.611 212.67 176.544 213.038 179.888 212.832C183.114 212.637 186.295 212.095 189.432 211.208C192.971 210.208 196.513 209.218 200.057 208.235C202.407 207.582 204.637 207.376 206.747 207.616C207.97 207.755 209.971 208.5 212.75 209.851C216.686 211.766 220.565 212.918 224.388 213.309C233.102 214.202 240.514 211.777 246.626 206.033C250.835 202.081 254.689 197.303 258.189 191.699C258.675 190.923 259.197 190.443 259.755 190.259C260.246 190.103 260.765 190.058 261.312 190.125C261.965 190.203 262.467 190.209 262.819 190.142C271.086 188.518 278.711 185.422 285.693 180.857C287.608 179.601 289.55 177.873 291.521 175.674C293.307 173.67 295.11 171.68 296.93 169.704C298.252 168.264 299.299 166.715 300.069 165.057C301.571 161.809 302.492 159.526 302.832 158.208C303.279 156.456 303.452 154.432 303.351 152.138C303.307 150.999 303.441 149.551 303.753 147.793Z" fill="#80B5DE"/>
<path d="M174.973 160.628C177.674 162.219 178.051 164.401 176.103 167.176C175.795 167.608 175.341 167.917 174.822 168.046C171.423 168.867 168.685 168.476 166.608 166.874C165.637 166.132 165.11 165.222 165.026 164.145C164.965 163.347 165.107 162.571 165.453 161.817C165.76 161.147 166.29 160.623 167.044 160.243C169.662 158.92 172.305 159.049 174.973 160.628ZM169.681 164.865L170.326 165.886C170.392 165.989 170.486 166.08 170.603 166.154C170.719 166.227 170.856 166.281 171.004 166.313C172.919 166.704 174.144 165.97 174.68 164.111C174.715 163.988 174.715 163.858 174.68 163.735C174.644 163.612 174.574 163.501 174.479 163.416C172.933 162.038 171.16 161.622 169.162 162.169C169.026 162.205 168.901 162.268 168.795 162.352C168.69 162.436 168.606 162.539 168.551 162.654C168.171 163.43 168.358 163.991 169.112 164.337C169.33 164.441 169.528 164.625 169.681 164.865Z" fill="#D8BFF9"/>
<path d="M240.774 162.37C242.158 160.623 243.766 159.626 245.596 159.381C247.338 159.146 249.013 159.595 250.62 160.729C253.071 162.453 253.138 164.801 250.821 167.77C250.647 167.987 250.408 168.138 250.143 168.197C248.239 168.627 246.336 168.677 244.433 168.348C243.417 168.169 242.577 167.815 241.913 167.284C241.075 166.609 240.525 165.828 240.263 164.94C239.99 163.991 240.16 163.134 240.774 162.37ZM249.79 164.522C249.874 163.87 249.622 163.202 249.089 162.664C248.556 162.126 247.785 161.762 246.946 161.654C246.107 161.545 245.268 161.699 244.615 162.083C243.962 162.467 243.548 163.049 243.463 163.7C243.378 164.352 243.63 165.021 244.164 165.558C244.697 166.096 245.468 166.46 246.307 166.569C247.146 166.678 247.984 166.523 248.638 166.14C249.291 165.756 249.705 165.174 249.79 164.522Z" fill="#D8BFF9"/>
<path d="M246.307 166.569C248.054 166.796 249.613 165.879 249.79 164.522C249.966 163.165 248.693 161.88 246.946 161.654C245.198 161.427 243.639 162.343 243.463 163.7C243.287 165.058 244.56 166.342 246.307 166.569Z" fill="#E5B9F2"/>
<path d="M169.112 164.337C168.358 163.991 168.171 163.43 168.551 162.654C168.606 162.539 168.69 162.435 168.795 162.352C168.901 162.268 169.026 162.205 169.162 162.169C171.16 161.622 172.933 162.037 174.479 163.416C174.574 163.501 174.644 163.612 174.68 163.735C174.715 163.858 174.715 163.988 174.68 164.111C174.144 165.97 172.919 166.704 171.004 166.313C170.856 166.281 170.719 166.227 170.603 166.153C170.486 166.08 170.392 165.989 170.326 165.886L169.681 164.865C169.528 164.624 169.33 164.441 169.112 164.337Z" fill="#E5B9F2"/>
<path d="M218.377 176.411L214.969 173.572C215.645 173.321 216.214 172.947 216.677 172.45C217.18 171.915 217.378 171.317 217.272 170.659C217.132 169.793 216.577 169.297 215.605 169.168C215.527 169.157 215.382 169.165 215.17 169.193C214.991 169.216 214.846 169.191 214.735 169.118C214.582 169.017 214.436 168.93 214.319 168.87C214.202 168.81 214.119 168.779 214.082 168.783C209.449 168.85 204.925 169.556 200.509 170.901C200.386 170.94 200.279 171.014 200.205 171.111C200.131 171.208 200.094 171.323 200.099 171.437C200.133 172.369 200.554 173.081 201.364 173.572L197.805 175.875C196.242 173.67 195.544 171.214 195.712 168.507C195.807 167.022 196.572 166.467 198.006 166.841C202.332 167.963 206.736 168.381 211.218 168.097C212.441 168.018 213.621 167.75 214.76 167.293C216.15 166.735 217.799 166.676 219.708 167.117C220.009 167.186 220.278 167.354 220.472 167.594C220.666 167.833 220.775 168.131 220.78 168.44C220.808 171.242 220.007 173.899 218.377 176.411Z" fill="#3D6176"/>
<path d="M214.969 173.572C210.431 173.137 205.896 173.137 201.364 173.572C200.554 173.081 200.133 172.369 200.099 171.437C200.094 171.323 200.131 171.208 200.205 171.111C200.28 171.014 200.386 170.94 200.51 170.901C204.925 169.556 209.449 168.85 214.082 168.783C214.119 168.779 214.202 168.81 214.319 168.87C214.436 168.93 214.582 169.017 214.735 169.118C214.846 169.19 214.991 169.216 215.17 169.193C215.382 169.165 215.527 169.157 215.606 169.168C216.577 169.297 217.132 169.793 217.272 170.659C217.378 171.317 217.18 171.914 216.677 172.45C216.214 172.947 215.645 173.321 214.969 173.572Z" fill="#0C213D"/>
<path d="M214.969 173.572L218.377 176.41C215.921 180.385 212.203 182.079 207.224 181.493C203.155 181.013 200.016 179.14 197.805 175.875L201.364 173.572C205.896 173.137 210.431 173.137 214.969 173.572Z" fill="#C58297"/>
</g>
<defs>
<clipPath id="clip0_39_82">
<rect width="319" height="240.297" fill="white" transform="translate(0 0.851807)"/>
</clipPath>
</defs>
</svg>
