<svg width="271" height="198" viewBox="0 0 271 198" fill="none" xmlns="http://www.w3.org/2000/svg">
<g clip-path="url(#clip0_9_59)">
<path d="M218.37 48.2299C216.797 44.4566 215.38 40.6233 214.12 36.7299C213.547 34.9499 212.933 33.7333 212.28 33.0799C211.353 32.1533 210.113 31.4399 208.56 30.9399C207.733 30.6733 206.963 30.1033 206.25 29.2299C205.49 28.2966 204.807 27.6699 204.2 27.3499C200.493 25.3766 196.177 24.5099 191.25 24.7499C183.53 25.1299 176.827 28.4966 171.14 34.8499C169.713 36.4366 168.95 36.1633 168.85 34.0299C168.737 31.5899 168.227 28.9466 167.32 26.0999C166.307 22.9066 165.34 20.3999 164.42 18.5799C163.1 15.9799 161.323 13.6699 159.09 11.6499C153.343 6.4566 146.73 2.82326 139.25 0.749929C138.017 0.409929 135.623 0.336597 132.07 0.52993C131.715 0.549456 131.396 0.677204 131.17 0.889929L129.85 2.13993C129.737 2.24397 129.602 2.31792 129.456 2.35469C129.311 2.39146 129.161 2.38982 129.02 2.34993C126.447 1.60993 123.913 1.6266 121.42 2.39993C119.987 2.8466 118.883 3.66326 118.11 4.84993C117.417 5.9166 116.797 7.2166 116.25 8.74993C115.93 9.6566 115.317 10.5433 114.41 11.4099C113.41 12.3633 112.74 13.1699 112.4 13.8299C110.527 17.4233 109.8 21.2133 110.22 25.1999C110.233 25.311 110.217 25.4235 110.173 25.5265C110.13 25.6295 110.06 25.7195 109.972 25.7879C109.883 25.8563 109.779 25.9007 109.668 25.9168C109.557 25.9329 109.444 25.9202 109.34 25.8799C107.42 25.1599 105.67 24.3599 104.09 23.4799C99.7568 21.0599 95.1868 19.2799 90.3801 18.1399C88.3001 17.6533 86.1934 17.4766 84.0601 17.6099C81.9268 17.7433 79.8101 18.0033 77.7101 18.3899C75.2968 18.8299 73.3068 19.5733 71.7401 20.6199C70.0134 21.7733 68.4134 23.2366 66.9401 25.0099C66.8769 25.0847 66.8306 25.1722 66.8042 25.2666C66.7778 25.3611 66.772 25.4603 66.7871 25.5577C66.8023 25.6551 66.838 25.7485 66.892 25.8316C66.9459 25.9148 67.0169 25.9858 67.1001 26.0399C68.9134 27.2466 68.5334 27.9866 65.9601 28.2599C65.6231 28.2956 65.3023 28.4236 65.0325 28.6299C64.7627 28.8362 64.5543 29.113 64.4301 29.4299C63.2168 32.4699 62.6568 35.2433 62.7501 37.7499C62.8101 39.2899 62.6968 40.8133 62.4101 42.3199C62.3845 42.4635 62.3121 42.5949 62.2038 42.6942C62.0955 42.7934 61.9573 42.8551 61.8101 42.8699C60.0501 43.0433 58.2801 43.0966 56.5001 43.0299C52.0268 42.8699 47.6401 43.2699 43.3401 44.2299C38.6934 45.2699 34.6968 46.9466 31.3501 49.2599C26.8768 52.3599 23.4468 56.3766 21.0601 61.3099C19.9668 63.5833 19.4001 66.0899 19.3601 68.8299C19.3001 72.5833 19.2734 74.5266 19.2801 74.6599C19.4134 76.8266 20.2601 78.6733 21.8201 80.1999C22.8734 81.2399 22.6968 81.9766 21.2901 82.4099C19.0968 83.0833 17.0001 83.9199 15.0001 84.9199C13.2001 85.8266 11.4168 87.1599 9.6501 88.9199C8.2101 90.3599 6.79009 91.8233 5.39009 93.3099C3.89676 94.9033 2.83009 96.6066 2.19009 98.4199C0.876761 102.14 0.103428 105.973 -0.129905 109.92C-0.256572 112.167 0.110094 114.447 0.970094 116.76C2.16343 119.953 3.54343 123.067 5.1101 126.1C6.82343 129.413 9.35009 132.483 12.6901 135.31C17.9701 139.783 23.6001 143.317 29.5801 145.91C34.6068 148.09 40.8301 149.56 48.2501 150.32C56.4701 151.167 64.7234 151.393 73.0101 151C78.3634 150.747 82.9434 150.08 86.7501 149C96.0168 146.373 104.44 142.263 112.02 136.67C112.111 136.603 112.215 136.557 112.325 136.534C112.435 136.511 112.549 136.512 112.659 136.537C112.769 136.561 112.872 136.609 112.962 136.677C113.052 136.745 113.126 136.831 113.18 136.93C115.093 140.57 117.723 143.403 121.07 145.43C127.843 149.537 135.033 152.647 142.64 154.76C144.48 155.267 146.413 155.397 148.44 155.15C153.1 154.57 156.12 154.103 157.5 153.75C163.02 152.343 167.167 150.073 169.94 146.94C171.44 145.24 172.897 144.86 174.31 145.8C175.75 146.753 176.487 147.237 176.52 147.25C178.293 148.017 180.14 148.533 182.06 148.8C183.873 149.047 185.427 149.457 186.72 150.03C190.933 151.877 194.527 152.867 197.5 153C198.767 153.06 201.48 152.813 205.64 152.26C208.16 151.92 210.773 151.223 213.48 150.17C216.033 149.177 218.603 148.23 221.19 147.33C227.537 145.123 232.46 141.2 235.96 135.56C236.074 135.374 236.232 135.219 236.42 135.106C236.607 134.993 236.82 134.925 237.04 134.91C244.527 134.37 251.157 133.24 256.93 131.52C260.137 130.573 262.513 129.087 264.06 127.06C265.34 125.393 266.84 122.813 268.56 119.32C269.813 116.773 270.54 114.28 270.74 111.84C271.22 106.04 270.62 100.03 268.94 93.8099C268.513 92.2299 267.91 90.9099 267.13 89.8499C265.67 87.8633 264.917 86.8299 264.87 86.7499C263.15 84.0433 260.77 81.9466 257.73 80.4599C257.163 80.1866 256.683 79.8033 256.29 79.3099C254.757 77.4099 252.847 76.2699 250.56 75.8899C250.39 75.8591 250.236 75.7688 250.126 75.6351C250.016 75.5014 249.957 75.333 249.96 75.1599C250 72.6199 249.857 70.4333 249.53 68.5999C249.11 66.2799 248.577 64.3866 247.93 62.9199C247.223 61.3066 246.1 59.6466 244.56 57.9399C239.707 52.5466 234.103 49.5666 227.75 48.9999C226.69 48.9066 223.793 48.8066 219.06 48.6999C218.912 48.6975 218.767 48.6517 218.645 48.5682C218.522 48.4846 218.427 48.3671 218.37 48.2299Z" stroke="#DDDED2" stroke-width="2"/>
<path d="M243.09 167.1C240.95 171.973 239.707 176.943 239.36 182.01C239.1 185.883 239.833 189.443 241.56 192.69C242.373 194.217 243.543 195.253 245.07 195.8C246.403 196.287 247.853 196.25 249.42 195.69C252.52 194.57 254.023 192.407 253.93 189.2C253.89 187.827 253.26 185.547 252.04 182.36C250.873 179.313 249.713 176.27 248.56 173.23C247.567 170.597 245.983 168.487 243.81 166.9C243.752 166.858 243.685 166.83 243.614 166.818C243.544 166.805 243.471 166.809 243.402 166.828C243.333 166.847 243.269 166.881 243.215 166.928C243.161 166.976 243.119 167.034 243.09 167.1Z" stroke="#ECE0DE" stroke-width="2"/>
<path d="M37.9301 170.85C36.7368 170.123 35.8568 170.4 35.2901 171.68C34.8501 172.673 34.2368 173.683 33.4501 174.71C32.6168 175.79 32.0668 176.807 31.8001 177.76C30.9801 180.693 30.4668 183.69 30.2601 186.75C29.8934 192.023 32.2268 194.69 37.2601 194.75C37.5763 194.756 37.8882 194.646 38.1401 194.44C41.5534 191.72 43.2934 188.243 43.3601 184.01C43.3801 182.79 43.1568 181.307 42.6901 179.56C42.2968 178.093 41.8701 176.64 41.4101 175.2C40.8234 173.36 39.6634 171.91 37.9301 170.85Z" stroke="#ECE0DE" stroke-width="2"/>
<path d="M97.1401 172.76C97.0411 172.673 96.9232 172.611 96.7959 172.579C96.6685 172.546 96.5353 172.544 96.4069 172.572C96.2785 172.6 96.1585 172.658 96.0566 172.741C95.9547 172.824 95.8737 172.93 95.8201 173.05C95.3001 174.21 94.6801 175.303 93.9601 176.33C93.0534 177.623 92.4534 178.707 92.1601 179.58C90.7667 183.68 90.3167 187.633 90.8101 191.44C91.3434 195.533 93.4534 197.907 97.1401 198.56C98.7934 198.853 100.267 198.533 101.56 197.6C102.933 196.613 103.927 195.337 104.54 193.77C105.18 192.13 105.17 189.95 104.51 187.23C103.563 183.33 102.58 180.4 101.56 178.44C100.427 176.24 98.9534 174.347 97.1401 172.76Z" stroke="#ECE0DE" stroke-width="2"/>
<path d="M165.25 197.46C167.69 195.773 168.857 193.12 168.75 189.5C168.65 186.073 168.067 183.393 167 181.46" stroke="#F3EBE8" stroke-width="2"/>
<path d="M167 181.46C167.393 179.987 167.337 178.613 166.83 177.34C166.39 176.24 165.657 175.537 164.63 175.23C163.33 174.837 162.223 175.28 161.31 176.56C160.363 177.9 159.427 179.63 158.5 181.75C158.107 182.657 157.823 184.997 157.65 188.77C157.557 190.797 157.753 192.373 158.24 193.5C158.92 195.087 159.987 196.357 161.44 197.31C162.58 198.057 163.85 198.107 165.25 197.46" stroke="#ECE0DE" stroke-width="2"/>
<path d="M167 181.46C165.087 182.473 164.527 184.023 165.32 186.11C165.84 187.477 165.547 188.24 164.44 188.4C164.179 188.438 163.94 188.57 163.767 188.77C163.594 188.97 163.5 189.226 163.5 189.49C163.5 191.077 163.427 192.317 163.28 193.21C162.96 195.19 163.617 196.607 165.25 197.46" stroke="#E0CBC6" stroke-width="2"/>
<path d="M87.8201 33.1599C88.1134 34.0532 88.4334 34.0132 88.7801 33.0399C88.8402 32.8781 88.86 32.7093 88.8369 32.5533C88.8139 32.3973 88.749 32.2608 88.6501 32.1599C88.3768 31.8799 88.1301 31.9065 87.9101 32.2399C87.8291 32.3611 87.7789 32.5071 87.7633 32.6665C87.7477 32.826 87.7671 32.9947 87.8201 33.1599Z" stroke="#DCD3C2" stroke-width="2"/>
<path d="M178.578 43.329C178.807 43.2004 178.965 42.9688 179.019 42.685C179.072 42.4011 179.017 42.0884 178.863 41.8155C178.71 41.5425 178.472 41.3319 178.202 41.2297C177.932 41.1276 177.652 41.1425 177.423 41.271C177.194 41.3995 177.035 41.6311 176.981 41.9149C176.928 42.1988 176.984 42.5115 177.137 42.7845C177.29 43.0574 177.528 43.268 177.798 43.3702C178.068 43.4723 178.349 43.4574 178.578 43.329Z" stroke="#DDDED2" stroke-width="2"/>
<path d="M190.431 43.8371C190.37 43.6833 190.266 43.5485 190.124 43.4403C189.983 43.3321 189.807 43.2526 189.606 43.2063C189.406 43.1601 189.185 43.1481 188.957 43.1709C188.728 43.1937 188.496 43.2509 188.274 43.3393C187.826 43.5178 187.445 43.8123 187.215 44.158C186.985 44.5037 186.926 44.8724 187.049 45.1829C187.11 45.3366 187.215 45.4715 187.356 45.5797C187.498 45.6879 187.673 45.7674 187.874 45.8136C188.074 45.8599 188.295 45.8719 188.523 45.8491C188.752 45.8263 188.984 45.7691 189.206 45.6807C189.654 45.5022 190.035 45.2077 190.265 44.862C190.495 44.5162 190.555 44.1476 190.431 43.8371Z" stroke="#DDDED2" stroke-width="2"/>
<path d="M194.48 43.4799C193.568 43.2472 192.604 43.3355 191.75 43.7299C190.857 44.1432 190.857 44.6299 191.75 45.1899C191.869 45.2653 192.012 45.3123 192.169 45.3279C192.326 45.3434 192.493 45.327 192.66 45.2799C193.633 44.9999 194.593 45.0132 195.54 45.3199C195.698 45.3713 195.862 45.3806 196.005 45.3461C196.148 45.3117 196.263 45.2356 196.33 45.1299C196.783 44.4566 196.167 43.9066 194.48 43.4799Z" stroke="#C7C8B4" stroke-width="2"/>
<path d="M172.3 45.2399C171.84 46.0599 172.017 46.3799 172.83 46.1999C172.992 46.1641 173.14 46.0899 173.256 45.9857C173.373 45.8815 173.454 45.7514 173.49 45.6099C173.61 45.1632 173.467 44.9032 173.06 44.8299C172.921 44.8032 172.773 44.8285 172.636 44.9021C172.5 44.9757 172.382 45.0939 172.3 45.2399Z" stroke="#DDDED2" stroke-width="2"/>
<path d="M189.81 46.4399C188.937 46.2599 188.843 46.7766 189.53 47.9899C189.883 48.6232 190.213 48.6132 190.52 47.9599C190.92 47.1199 190.683 46.6132 189.81 46.4399Z" stroke="#C7C8B4" stroke-width="2"/>
<path d="M38.1227 52.2192C38.4022 51.8825 38.5131 51.429 38.4308 50.9586C38.3485 50.4881 38.0799 50.0392 37.6841 49.7105C37.2882 49.3818 36.7975 49.2004 36.3199 49.2061C35.8424 49.2117 35.417 49.4041 35.1375 49.7408C34.858 50.0775 34.7471 50.5309 34.8294 51.0014C34.9116 51.4719 35.1802 51.9208 35.5761 52.2495C35.972 52.5781 36.4627 52.7596 36.9402 52.7539C37.4178 52.7482 37.8432 52.5559 38.1227 52.2192Z" stroke="#DCD3C2" stroke-width="2"/>
<path d="M108.14 53.7699C110.053 54.5765 110.917 53.8132 110.73 51.4799C110.717 51.335 110.649 51.2008 110.541 51.1056C110.433 51.0104 110.293 50.9617 110.15 50.9699C107.983 51.0765 107.1 51.7832 107.5 53.0899C107.543 53.2363 107.623 53.3733 107.734 53.4909C107.845 53.6086 107.983 53.7039 108.14 53.7699Z" stroke="#C3C5AD" stroke-width="2"/>
<path d="M46.9001 53.23C48.0268 53.5966 48.1568 53.29 47.2901 52.31C47.2009 52.2085 47.0832 52.1392 46.9597 52.1152C46.8361 52.0912 46.7152 52.1143 46.6201 52.18C46.4734 52.2866 46.3868 52.4166 46.3601 52.57C46.3374 52.6975 46.3797 52.8349 46.4791 52.9564C46.5786 53.078 46.7283 53.1753 46.9001 53.23Z" stroke="#C7C8B4" stroke-width="2"/>
<path d="M163.93 57.3299C164.77 57.2899 165.05 56.8899 164.77 56.1299C164.718 55.9907 164.627 55.8673 164.506 55.7724C164.385 55.6775 164.238 55.6145 164.08 55.5899C162.967 55.4366 162.67 55.8666 163.19 56.8799C163.262 57.0202 163.37 57.137 163.501 57.2168C163.632 57.2965 163.781 57.3357 163.93 57.3299Z" stroke="#DCD3C2" stroke-width="2"/>
<path d="M220.1 59.5338C220.025 59.3729 219.889 59.2486 219.722 59.1881C219.555 59.1276 219.37 59.136 219.209 59.2113L213.848 61.7226C213.687 61.798 213.563 61.9342 213.503 62.1013C213.442 62.2684 213.451 62.4526 213.526 62.6135L213.56 62.686C213.635 62.8469 213.771 62.9713 213.939 63.0318C214.106 63.0923 214.29 63.0839 214.451 63.0085L219.812 60.4972C219.973 60.4218 220.097 60.2856 220.158 60.1186C220.218 59.9515 220.21 59.7672 220.134 59.6063L220.1 59.5338Z" stroke="#C7C8B4" stroke-width="2"/>
<path d="M35.9001 66.6599C35.2268 67.6666 34.8468 68.7265 34.7601 69.8399C34.7134 70.4399 34.8568 70.4866 35.1901 69.9799C35.9101 68.8732 36.3901 67.8699 36.6301 66.9699C37.0501 65.4032 36.8068 65.2999 35.9001 66.6599Z" stroke="#C3C5AD" stroke-width="2"/>
<path d="M90.1601 73.78C90.5734 74.1 91.2068 74.6533 92.0601 75.44C93.1401 76.4266 93.6901 76.3033 93.7101 75.07C93.71 74.9245 93.6753 74.7751 93.6083 74.6307C93.5412 74.4863 93.4432 74.3499 93.3201 74.23C91.7268 72.7033 91.3201 70.8466 92.1001 68.66C92.5534 67.3933 92.2901 66.7633 91.3101 66.7699C91.1707 66.7693 91.0307 66.8174 90.9079 66.9082C90.7852 66.999 90.685 67.1283 90.6201 67.28C89.4868 69.9533 87.5934 71.9266 84.9401 73.2C82.6734 74.2866 80.8601 73.8233 79.5001 71.81C78.6268 70.51 77.6201 69.3566 76.4801 68.35C75.9068 67.8433 75.5801 67.97 75.5001 68.73C75.2601 71.0833 76.0334 72.9866 77.8201 74.44C79.4868 75.7933 80.6801 77.47 81.4001 79.47C81.5226 79.8048 81.73 80.0658 81.9801 80.2C82.9334 80.7266 83.2168 80.1733 82.8301 78.54C82.5034 77.1733 82.9601 76.4333 84.2001 76.32C84.3677 76.3052 84.5323 76.3323 84.6742 76.398C84.8161 76.4636 84.9292 76.565 85.0001 76.69L86.6301 79.47C86.7364 79.6512 86.8485 79.8086 86.9577 79.93C87.067 80.0514 87.1704 80.1335 87.2601 80.17C88.1734 80.57 88.6501 80.2033 88.6901 79.07C88.7033 78.7792 88.5973 78.4579 88.3901 78.16C87.0501 76.2666 87.3568 74.7866 89.3101 73.72C89.4447 73.6478 89.5964 73.6152 89.747 73.6258C89.8977 73.6364 90.041 73.6899 90.1601 73.78Z" stroke="#69695D" stroke-width="2"/>
<path d="M203.339 69.8394C203.47 69.8355 203.599 69.7977 203.719 69.7283C203.838 69.6589 203.945 69.5592 204.034 69.4349C204.124 69.3105 204.193 69.164 204.238 69.0036C204.284 68.8433 204.305 68.6722 204.3 68.5003C204.295 68.3283 204.264 68.1588 204.209 68.0014C204.154 67.844 204.076 67.7019 203.979 67.583C203.883 67.4642 203.77 67.371 203.647 67.3088C203.523 67.2466 203.392 67.2166 203.261 67.2206C203.13 67.2244 203.001 67.2622 202.882 67.3316C202.762 67.401 202.655 67.5007 202.566 67.6251C202.477 67.7494 202.407 67.8959 202.362 68.0563C202.316 68.2167 202.295 68.3877 202.3 68.5597C202.306 68.7316 202.337 68.9011 202.391 69.0585C202.446 69.2159 202.524 69.358 202.621 69.4769C202.717 69.5957 202.83 69.6889 202.954 69.7511C203.077 69.8133 203.208 69.8433 203.339 69.8394Z" stroke="#DDDED2" stroke-width="2"/>
<path d="M189.78 79.1499L192.19 78.7899C192.306 78.7714 192.445 78.7965 192.593 78.8629C192.742 78.9292 192.895 79.0348 193.04 79.1699L195.93 81.8599C196.161 82.0779 196.477 82.1964 196.81 82.1899C198.87 82.1565 199.06 81.3899 197.38 79.8899C196.447 79.0565 195.423 78.2499 194.31 77.4699C194.255 77.4315 194.209 77.3827 194.173 77.3264C194.137 77.2702 194.113 77.2075 194.102 77.1423C194.09 77.077 194.092 77.0104 194.108 76.9464C194.123 76.8825 194.151 76.8224 194.19 76.7699C195.277 75.3032 195.987 73.8165 196.32 72.3099C196.687 70.6432 196.37 70.2565 195.37 71.1499C195.143 71.3432 194.967 71.6265 194.84 71.9999C194.22 73.7999 193.183 75.1899 191.73 76.1699C190.31 77.1299 188.733 77.4665 187 77.1799C184.967 76.8532 183.373 75.8099 182.22 74.0499C181.853 73.4965 181.477 72.5899 181.09 71.3299C180.803 70.3832 180.48 69.4499 180.12 68.5299C180.057 68.3704 179.968 68.2285 179.857 68.1145C179.746 68.0004 179.618 67.9169 179.48 67.8699C178.453 67.5032 177.98 67.9432 178.06 69.1899C178.253 72.1165 179.457 74.8465 181.67 77.3799C181.768 77.4939 181.832 77.633 181.853 77.7803C181.875 77.9276 181.853 78.0768 181.79 78.2099C181.323 79.2432 180.873 80.2832 180.44 81.3299C179.787 82.9165 180.04 83.5499 181.2 83.2299C181.53 83.1396 181.836 82.9758 182.094 82.7506C182.352 82.5255 182.556 82.2449 182.69 81.9299C183.737 79.4832 185.187 78.6065 187.04 79.2999C187.168 79.3491 187.276 79.4444 187.347 79.5711C187.417 79.6977 187.447 79.8485 187.43 79.9999C187.25 81.4532 187.383 82.8765 187.83 84.2699C187.88 84.4241 187.971 84.56 188.089 84.6612C188.208 84.7624 188.351 84.8245 188.5 84.8399C189.267 84.9199 189.623 84.6132 189.57 83.9199C189.537 83.4399 189.52 83.1565 189.52 83.0699C189.56 81.9765 189.513 80.8899 189.38 79.8099C189.361 79.6522 189.392 79.4951 189.467 79.3718C189.542 79.2486 189.654 79.169 189.78 79.1499Z" stroke="#69695D" stroke-width="2"/>
<path d="M214.23 70.4099C214.23 69.9431 214.045 69.4955 213.715 69.1654C213.385 68.8353 212.937 68.6499 212.47 68.6499C212.003 68.6499 211.556 68.8353 211.226 69.1654C210.896 69.4955 210.71 69.9431 210.71 70.4099C210.71 70.641 210.756 70.8699 210.844 71.0834C210.933 71.297 211.062 71.491 211.226 71.6544C211.389 71.8178 211.583 71.9475 211.797 72.0359C212.01 72.1244 212.239 72.1699 212.47 72.1699C212.701 72.1699 212.93 72.1244 213.144 72.0359C213.357 71.9475 213.551 71.8178 213.715 71.6544C213.878 71.491 214.008 71.297 214.096 71.0834C214.185 70.8699 214.23 70.641 214.23 70.4099Z" stroke="#DDDED2" stroke-width="2"/>
<path d="M66.0401 79.3899C66.2259 79.4914 66.4339 79.5455 66.6456 79.5475C66.8573 79.5495 67.0663 79.4994 67.2541 79.4016C67.4418 79.3037 67.6026 79.1612 67.7223 78.9865C67.8419 78.8118 67.9167 78.6104 67.9401 78.3999C68.1001 76.9999 68.5834 75.7299 69.3901 74.5899C69.6033 74.2862 69.7133 73.9669 69.7001 73.6899C69.6534 72.5299 69.0334 72.4266 67.8401 73.3799C66.9934 74.0599 65.9367 74.5099 64.6701 74.7299C63.3234 74.9699 62.9134 75.7199 63.4401 76.9799C63.7868 77.8266 64.6534 78.6299 66.0401 79.3899Z" stroke="#C3C5AD" stroke-width="2"/>
<path d="M148.782 78.0166C148.954 78.0313 149.127 77.9499 149.263 77.7903C149.399 77.6307 149.487 77.4059 149.508 77.1654C149.518 77.0464 149.511 76.927 149.488 76.8142C149.465 76.7014 149.426 76.5974 149.373 76.5081C149.32 76.4187 149.254 76.3458 149.18 76.2935C149.105 76.2412 149.023 76.2105 148.938 76.2032C148.766 76.1885 148.593 76.2699 148.457 76.4296C148.321 76.5892 148.233 76.814 148.212 77.0544C148.202 77.1735 148.209 77.2928 148.232 77.4056C148.255 77.5184 148.294 77.6225 148.347 77.7118C148.4 77.8012 148.466 77.8741 148.54 77.9264C148.615 77.9787 148.697 78.0093 148.782 78.0166Z" stroke="#D1CABB" stroke-width="2"/>
<path d="M139 82.29C142.84 83.47 146.353 85.28 149.54 87.72C150.68 88.6 151.323 88.5166 151.47 87.47C151.537 87.0166 151.437 86.56 151.17 86.1C150.403 84.7666 149.2 83.63 147.56 82.69C144.607 80.9966 142.003 79.8366 139.75 79.21" stroke="#69695D" stroke-width="2"/>
<path d="M139.75 79.21C133.843 76.8433 128.177 76.2733 122.75 77.5C117.11 78.7733 112.7 82.0566 109.52 87.35C109.133 87.9966 108.93 88.6433 108.91 89.29C108.843 91.2033 109.593 91.6133 111.16 90.5199C111.647 90.1866 112.157 89.6333 112.69 88.86C115.603 84.6333 119.207 82.0966 123.5 81.25C127.76 80.4033 132.927 80.75 139 82.29" stroke="#797869" stroke-width="2"/>
<path d="M139.75 79.21C138.663 79.9433 138.413 80.97 139 82.29" stroke="#262421" stroke-width="2"/>
<path d="M207.4 81.5999C206.733 82.6132 206.477 83.5299 206.63 84.3499C206.709 84.7818 206.876 85.1932 207.122 85.558C207.369 85.9229 207.688 86.2333 208.06 86.4699C210.98 88.3165 212.293 88.7065 212 87.6399C211.928 87.3648 211.782 87.1144 211.577 86.9154C211.373 86.7163 211.118 86.5762 210.84 86.5099C207.64 85.7499 206.687 84.3165 207.98 82.2099C208.52 81.3365 208.55 80.5565 208.07 79.8699C207.837 79.5365 207.657 79.5599 207.53 79.9399C207.443 80.1999 207.433 80.4632 207.5 80.7299C207.541 80.8935 207.553 81.0558 207.536 81.2059C207.519 81.3559 207.472 81.4903 207.4 81.5999Z" stroke="#D1CABB" stroke-width="2"/>
<path d="M70.1301 86.37C68.6034 86.7833 67.5834 87.91 67.0701 89.75C67.0298 89.8883 67.0267 90.0346 67.061 90.1746C67.0953 90.3145 67.1659 90.4433 67.2657 90.5482C67.3656 90.6531 67.4913 90.7305 67.6306 90.7729C67.7699 90.8153 67.9179 90.8212 68.0601 90.79C69.7468 90.4166 70.9168 89.5033 71.5701 88.05C72.2701 86.4833 71.7901 85.9233 70.1301 86.37Z" stroke="#C3C5AD" stroke-width="2"/>
<path d="M232.989 90.7453C233.241 90.5373 233.357 90.1878 233.314 89.7734C233.271 89.3591 233.071 88.9139 232.758 88.5359C232.445 88.1579 232.045 87.8779 231.646 87.7576C231.248 87.6373 230.882 87.6866 230.631 87.8945C230.38 88.1024 230.263 88.452 230.306 88.8664C230.35 89.2807 230.55 89.7258 230.862 90.1039C231.175 90.4819 231.575 90.7619 231.974 90.8821C232.373 91.0024 232.738 90.9532 232.989 90.7453Z" stroke="#C7C8B4" stroke-width="2"/>
<path d="M220.74 88.9952C220.668 88.7233 220.473 88.4957 220.198 88.3624C219.923 88.2292 219.589 88.2012 219.271 88.2846C219.114 88.326 218.965 88.3934 218.833 88.4831C218.701 88.5728 218.588 88.683 218.502 88.8075C218.415 88.9319 218.357 89.0681 218.329 89.2083C218.301 89.3485 218.305 89.49 218.341 89.6246C218.412 89.8966 218.607 90.1242 218.882 90.2574C219.158 90.3907 219.491 90.4187 219.809 90.3352C219.967 90.2939 220.116 90.2265 220.248 90.1368C220.38 90.0471 220.492 89.9368 220.578 89.8124C220.665 89.688 220.724 89.5518 220.751 89.4116C220.779 89.2713 220.775 89.1299 220.74 88.9952Z" stroke="#D1CABB" stroke-width="2"/>
<path d="M106.33 96.3799C106.498 96.5789 106.709 96.7365 106.947 96.8405C107.185 96.9446 107.442 96.9923 107.7 96.9799C108.3 96.9466 108.337 96.4132 107.81 95.3799C107.544 94.8474 107.018 94.3283 106.31 93.8999L101.65 91.0599C101.501 90.97 101.341 90.9155 101.19 90.9031C101.04 90.8907 100.904 90.9208 100.8 90.9899C100.233 91.3766 100.183 91.8466 100.65 92.3999C100.811 92.593 101.106 92.7566 101.48 92.8599C103.113 93.2999 104.73 94.4732 106.33 96.3799Z" stroke="#C3C5AD" stroke-width="2"/>
<path d="M35.0601 91.69C34.2334 91.27 32.9234 91.2266 31.1301 91.56C31.0767 91.5733 30.4801 91.63 29.3401 91.73C28.2801 91.8233 27.6167 92.3733 27.3501 93.38C27.0634 94.4466 27.3801 94.6767 28.3001 94.07C30.5201 92.6167 32.3801 93.05 33.8801 95.37C33.9508 95.4794 34.0478 95.5693 34.1622 95.6316C34.2766 95.6938 34.4048 95.7265 34.5351 95.7265C34.6653 95.7265 34.7935 95.6938 34.9079 95.6316C35.0224 95.5693 35.1194 95.4794 35.1901 95.37C36.3634 93.55 36.3201 92.3233 35.0601 91.69Z" stroke="#C3C5AD" stroke-width="2"/>
<path d="M70.1596 96.0683C70.3763 96.1476 70.6326 96.0911 70.8722 95.9111C71.1118 95.7312 71.315 95.4427 71.4371 95.1089C71.4976 94.9437 71.5363 94.7723 71.5512 94.6046C71.566 94.4369 71.5565 94.2761 71.5234 94.1315C71.4903 93.9869 71.4342 93.8612 71.3582 93.7617C71.2822 93.6622 71.1879 93.5908 71.0806 93.5515C70.8639 93.4722 70.6076 93.5288 70.368 93.7087C70.1284 93.8886 69.9252 94.1772 69.8031 94.5109C69.7426 94.6762 69.7039 94.8475 69.6891 95.0152C69.6742 95.1829 69.6837 95.3437 69.7168 95.4883C69.7499 95.6329 69.806 95.7586 69.882 95.8581C69.958 95.9576 70.0523 96.029 70.1596 96.0683Z" stroke="#797869" stroke-width="2"/>
<path d="M76.5086 97.5209C76.7459 97.4951 76.9557 97.3069 77.0919 96.9978C77.2281 96.6888 77.2795 96.2841 77.2348 95.8728C77.1901 95.4614 77.053 95.0772 76.8536 94.8046C76.6542 94.532 76.4089 94.3933 76.1716 94.4191C75.9343 94.4449 75.7245 94.633 75.5883 94.9421C75.4521 95.2511 75.4007 95.6559 75.4454 96.0672C75.4901 96.4785 75.6272 96.8627 75.8266 97.1353C76.026 97.408 76.2713 97.5466 76.5086 97.5209Z" stroke="#797869" stroke-width="2"/>
<path d="M81.8201 95.4999C81.2201 95.6532 81.1234 96.0765 81.5301 96.7699C81.6084 96.9044 81.724 97.0142 81.8636 97.0867C82.0033 97.1592 82.1615 97.1915 82.3201 97.1799C83.4068 97.0999 83.5268 96.6332 82.6801 95.7799C82.5613 95.6581 82.4192 95.5681 82.2681 95.5189C82.117 95.4697 81.9624 95.4631 81.8201 95.4999Z" stroke="#797869" stroke-width="2"/>
<path d="M18.2701 98.89C19.0301 98.2366 19.5634 97.4333 19.8701 96.48C19.8884 96.4204 19.8929 96.3574 19.8833 96.2959C19.8736 96.2343 19.8501 96.1758 19.8144 96.1247C19.7787 96.0736 19.7319 96.0313 19.6774 96.001C19.623 95.9707 19.5623 95.9533 19.5001 95.95C17.2734 95.8233 15.7201 96.8166 14.8401 98.93C14.4934 99.75 14.1368 100.563 13.7701 101.37C13.6955 101.532 13.6656 101.705 13.6858 101.857C13.706 102.01 13.775 102.131 13.8801 102.2C14.1268 102.367 14.4401 102.323 14.8201 102.07C15.4934 101.623 16.0868 101.103 16.6001 100.51C17.0134 100.03 17.5701 99.49 18.2701 98.89Z" stroke="#C7C8B4" stroke-width="2"/>
<path d="M46.9601 105.25L46.5501 109.85C46.5114 110.241 46.5616 110.578 46.6901 110.79C47.6767 112.497 48.8567 113.687 50.2301 114.36C50.3615 114.422 50.4725 114.521 50.5504 114.645C50.6283 114.769 50.6698 114.913 50.6701 115.06C50.6901 116.28 51.1001 116.733 51.9001 116.42C52.2334 116.293 52.4801 116.227 52.6401 116.22C53.4067 116.193 53.5934 116.423 53.2001 116.91C53.0801 117.057 52.8701 117.193 52.5701 117.32C51.8367 117.64 51.7601 118.027 52.3401 118.48C52.4291 118.551 52.5564 118.595 52.7102 118.609C52.864 118.623 53.0394 118.606 53.2201 118.56L56.7501 117.71" stroke="#D1CABB" stroke-width="2"/>
<path d="M56.7501 117.71C61.6034 118.87 65.3367 117.433 67.9501 113.4C69.4434 111.107 69.9601 109.057 69.5001 107.25C68.2534 102.37 65.3134 98.9866 60.6801 97.1C57.9201 95.9866 55.4234 95.76 53.1901 96.42C50.6168 97.18 48.5334 98.9366 46.9401 101.69C46.1534 103.043 46.1601 104.23 46.9601 105.25" stroke="#DCD3C2" stroke-width="2"/>
<path d="M56.7501 117.71L58.7501 115.79" stroke="#F2DFD8" stroke-width="2"/>
<path d="M58.7501 115.79C61.9901 115.15 63.9068 113.387 64.5001 110.5C64.8334 108.893 64.8101 107.147 64.4301 105.26C64.0568 103.387 63.3001 101.87 62.1601 100.71C59.7801 98.2965 56.7467 97.6632 53.0601 98.8099C51.2734 99.3699 50.0734 100.517 49.4601 102.25" stroke="#FBD4D0" stroke-width="2"/>
<path d="M49.4601 102.25L46.9601 105.25" stroke="#F2DFD8" stroke-width="2"/>
<path d="M58.7501 115.79C57.2901 115.523 55.8668 115.14 54.4801 114.64C53.0068 114.107 51.8934 113.24 51.1401 112.04C49.3201 109.127 48.7601 105.863 49.4601 102.25" stroke="#F0CBC8" stroke-width="2"/>
<path d="M201.081 97.1212C201.026 97.0528 200.958 96.9958 200.881 96.9537C200.803 96.9116 200.718 96.8851 200.631 96.8757C200.543 96.8664 200.455 96.8744 200.371 96.8992C200.286 96.9241 200.207 96.9653 200.139 97.0205L200.077 97.0707C200.008 97.126 199.951 97.1942 199.909 97.2714C199.867 97.3487 199.841 97.4335 199.831 97.521C199.822 97.6085 199.83 97.697 199.855 97.7814C199.88 97.8658 199.921 97.9445 199.976 98.0129L201.659 100.099C201.714 100.167 201.782 100.224 201.86 100.266C201.937 100.308 202.022 100.335 202.109 100.344C202.197 100.353 202.285 100.346 202.37 100.321C202.454 100.296 202.533 100.255 202.601 100.199L202.663 100.149C202.732 100.094 202.789 100.026 202.831 99.9484C202.873 99.8712 202.9 99.7864 202.909 99.6989C202.918 99.6114 202.91 99.5229 202.885 99.4385C202.861 99.3541 202.819 99.2754 202.764 99.2069L201.081 97.1212Z" stroke="#69695D" stroke-width="2"/>
<path d="M194.2 100.07C194.947 100.497 195.29 100.28 195.23 99.4199C195.163 98.5532 194.737 97.8999 193.95 97.4599C193.892 97.428 193.827 97.4089 193.761 97.4039C193.694 97.3989 193.628 97.4082 193.566 97.431C193.505 97.4538 193.449 97.4897 193.403 97.5361C193.357 97.5825 193.322 97.6384 193.3 97.6999C192.913 98.7199 193.213 99.5099 194.2 100.07Z" stroke="#69695D" stroke-width="2"/>
<path d="M188.19 100.03C188.843 100.79 189.253 100.677 189.42 99.69C189.667 98.2966 189.42 97.6 188.68 97.6C188.532 97.6028 188.385 97.6546 188.259 97.7488C188.133 97.8431 188.032 97.9757 187.97 98.13C187.67 98.87 187.743 99.5033 188.19 100.03Z" stroke="#69695D" stroke-width="2"/>
<path d="M208.54 105.5C209.04 105.973 209.18 106.557 208.96 107.25" stroke="#DABCAF" stroke-width="2"/>
<path d="M208.96 107.25C207.813 110.19 208.223 113.21 210.19 116.31C212.87 120.55 216.56 122.127 221.26 121.04C225.493 120.06 228.47 117.86 230.19 114.44C232.517 109.813 232.133 105.85 229.04 102.55C227.707 101.13 225.91 99.9366 223.65 98.9699C221.403 98.0099 219.27 97.5199 217.25 97.4999C212.71 97.4599 209.71 99.7099 208.25 104.25C208.117 104.67 208.213 105.087 208.54 105.5" stroke="#DCD3C2" stroke-width="2"/>
<path d="M208.96 107.25C209.073 107.483 209.233 107.643 209.44 107.73C209.585 107.793 209.71 107.881 209.799 107.984C209.887 108.087 209.937 108.2 209.94 108.31C210.013 111.197 210.933 113.583 212.7 115.47C214.387 117.27 216.55 118.123 219.19 118.03C223.777 117.857 226.463 115.013 227.25 109.5C227.557 107.333 227.293 105.45 226.46 103.85C225.693 102.37 224.307 101.293 222.3 100.62C217.24 98.9067 213.077 100.387 209.81 105.06C209.483 105.527 209.06 105.673 208.54 105.5" stroke="#FBD1CC" stroke-width="2"/>
<path d="M175.44 100.11C175.933 100.823 176.313 100.717 176.58 99.7899C176.62 99.637 176.609 99.477 176.548 99.3417C176.487 99.2065 176.38 99.1059 176.25 99.0599C175.95 98.9599 175.687 99.0266 175.46 99.2599C175.363 99.3681 175.309 99.5106 175.305 99.6646C175.302 99.8186 175.349 99.9753 175.44 100.11Z" stroke="#C3C5AD" stroke-width="2"/>
<path d="M252.684 102.84C252.894 102.993 253.173 103.033 253.459 102.952C253.746 102.871 254.017 102.675 254.212 102.407C254.407 102.139 254.511 101.822 254.501 101.524C254.49 101.226 254.367 100.973 254.157 100.82C253.947 100.667 253.668 100.626 253.381 100.707C253.094 100.789 252.824 100.985 252.628 101.252C252.433 101.52 252.329 101.838 252.339 102.136C252.35 102.433 252.474 102.687 252.684 102.84Z" stroke="#DCD3C2" stroke-width="2"/>
<path d="M154.12 111.69C151.333 110.157 148.567 108.587 145.82 106.98C145.767 106.947 144.987 106.553 143.48 105.8C142.453 105.287 141.603 104.637 140.93 103.85C140.796 103.691 140.625 103.567 140.432 103.488C140.239 103.409 140.03 103.378 139.823 103.398C139.615 103.418 139.416 103.487 139.241 103.601C139.067 103.714 138.922 103.868 138.82 104.05C137.913 105.663 138.213 106.5 139.72 106.56C140.693 106.593 141.37 106.673 141.75 106.8C143.963 107.513 146.233 108.643 148.56 110.19C150.173 111.257 152.25 112.3 154.79 113.32C154.93 113.376 155.084 113.381 155.22 113.334C155.356 113.288 155.463 113.193 155.52 113.07C155.733 112.597 155.58 112.26 155.06 112.06C154.507 111.853 154.193 111.73 154.12 111.69Z" stroke="#C3C5AD" stroke-width="2"/>
<path d="M31.7801 106.13C31.6928 106.054 31.5896 105.999 31.4782 105.969C31.3669 105.939 31.2504 105.934 31.1376 105.955C31.0248 105.976 30.9187 106.023 30.8272 106.091C30.7358 106.16 30.6616 106.248 30.6101 106.35C29.9434 107.65 29.3601 108.913 28.8601 110.14C28.7267 110.48 28.5301 111.463 28.2701 113.09C28.0967 114.157 27.6267 115.093 26.8601 115.9C26.7336 116.032 26.6366 116.179 26.5774 116.327C26.5182 116.475 26.4985 116.62 26.5201 116.75C26.6134 117.363 27.0034 117.51 27.6901 117.19C29.4034 116.39 30.6434 114.837 31.4101 112.53C31.5167 112.23 31.6901 111.967 31.9301 111.74C33.9501 109.873 33.9001 108.003 31.7801 106.13Z" stroke="#C7C8B4" stroke-width="2"/>
<path d="M81.7708 109.675C82.0667 109.649 82.3388 109.491 82.5273 109.236C82.7158 108.98 82.8052 108.648 82.7758 108.312C82.7613 108.146 82.718 107.984 82.6485 107.836C82.579 107.687 82.4846 107.555 82.3708 107.446C82.2569 107.338 82.1257 107.255 81.9848 107.204C81.8439 107.152 81.6959 107.132 81.5494 107.145C81.2535 107.171 80.9814 107.329 80.7929 107.584C80.6044 107.84 80.515 108.172 80.5444 108.508C80.5589 108.674 80.6022 108.836 80.6717 108.984C80.7412 109.133 80.8356 109.265 80.9494 109.374C81.0633 109.482 81.1945 109.564 81.3354 109.616C81.4763 109.668 81.6243 109.688 81.7708 109.675Z" stroke="#D1CABB" stroke-width="2"/>
<path d="M166.27 109.3C166.27 109.199 166.25 109.099 166.211 109.005C166.173 108.912 166.116 108.827 166.045 108.755C165.973 108.684 165.888 108.627 165.795 108.589C165.701 108.55 165.601 108.53 165.5 108.53C165.399 108.53 165.299 108.55 165.205 108.589C165.112 108.627 165.027 108.684 164.956 108.755C164.884 108.827 164.827 108.912 164.789 109.005C164.75 109.099 164.73 109.199 164.73 109.3C164.73 109.504 164.811 109.7 164.956 109.844C165.1 109.989 165.296 110.07 165.5 110.07C165.704 110.07 165.9 109.989 166.045 109.844C166.189 109.7 166.27 109.504 166.27 109.3Z" stroke="#D1CABB" stroke-width="2"/>
<path d="M188.346 114.752C188.517 114.77 188.69 114.749 188.856 114.69C189.022 114.631 189.177 114.536 189.312 114.41C189.448 114.284 189.561 114.13 189.645 113.955C189.729 113.781 189.783 113.591 189.803 113.395C189.823 113.199 189.81 113.001 189.763 112.813C189.716 112.626 189.637 112.451 189.531 112.3C189.424 112.149 189.292 112.024 189.141 111.933C188.991 111.842 188.825 111.785 188.654 111.768C188.483 111.75 188.31 111.771 188.144 111.83C187.978 111.888 187.823 111.984 187.688 112.11C187.552 112.236 187.439 112.39 187.355 112.564C187.271 112.739 187.217 112.929 187.197 113.125C187.177 113.321 187.19 113.519 187.237 113.706C187.284 113.894 187.363 114.069 187.47 114.22C187.576 114.371 187.709 114.496 187.859 114.587C188.009 114.678 188.175 114.734 188.346 114.752Z" stroke="#DDDED2" stroke-width="2"/>
<path d="M199.93 115.07C200.243 113.53 199.77 113.343 198.51 114.51C195.07 117.703 195.36 118.137 199.38 115.81C199.521 115.732 199.644 115.625 199.738 115.497C199.833 115.37 199.899 115.224 199.93 115.07Z" stroke="#DCD3C2" stroke-width="2"/>
<path d="M94.4101 116.83C94.5701 115.763 94.1101 115.44 93.0301 115.86C92.8865 115.916 92.7641 116.014 92.6798 116.139C92.5955 116.265 92.5537 116.412 92.5601 116.56C92.6068 117.76 93.0534 118.107 93.9001 117.6C94.0371 117.519 94.1541 117.407 94.2423 117.274C94.3306 117.141 94.388 116.989 94.4101 116.83Z" stroke="#D1CABB" stroke-width="2"/>
<path d="M101.58 119.11C102.113 119.417 102.537 119.48 102.85 119.3C102.966 119.23 103.052 119.109 103.097 118.954C103.142 118.799 103.143 118.619 103.1 118.44C102.84 117.413 102.29 117.36 101.45 118.28C101.396 118.34 101.356 118.411 101.333 118.488C101.31 118.565 101.304 118.646 101.317 118.726C101.329 118.806 101.359 118.881 101.405 118.948C101.451 119.014 101.51 119.07 101.58 119.11Z" stroke="#DCD3C2" stroke-width="2"/>
<path d="M104.35 127.11L100.8 130.69C99.9668 131.53 100.093 131.697 101.18 131.19L104.31 129.73C104.591 129.599 104.914 129.554 105.24 129.6C106.487 129.793 107.44 129.387 108.1 128.38C109.133 126.807 108.83 126.013 107.19 126C106.037 125.993 105.09 126.363 104.35 127.11Z" stroke="#C7C8B4" stroke-width="2"/>
<path d="M58.6501 129.5C59.7034 129.873 60.0401 129.623 59.6601 128.75C59.5948 128.604 59.4921 128.48 59.3643 128.393C59.2366 128.306 59.0892 128.26 58.9401 128.26C58.4801 128.267 58.2201 128.45 58.1601 128.81C58.1399 128.947 58.1777 129.091 58.267 129.217C58.3563 129.343 58.4917 129.443 58.6501 129.5Z" stroke="#D1CABB" stroke-width="2"/>
<path d="M135.392 132.015C135.503 132.094 135.633 132.144 135.775 132.163C135.916 132.181 136.067 132.167 136.217 132.122C136.367 132.077 136.514 132.002 136.65 131.901C136.786 131.799 136.908 131.673 137.009 131.531C137.11 131.388 137.188 131.232 137.238 131.07C137.289 130.908 137.311 130.744 137.304 130.587C137.296 130.431 137.259 130.284 137.195 130.157C137.131 130.03 137.04 129.923 136.929 129.844C136.817 129.765 136.687 129.715 136.545 129.697C136.404 129.679 136.254 129.692 136.103 129.737C135.953 129.782 135.806 129.858 135.67 129.959C135.534 130.061 135.412 130.186 135.311 130.329C135.21 130.471 135.132 130.628 135.082 130.79C135.031 130.952 135.009 131.116 135.016 131.272C135.024 131.429 135.061 131.575 135.125 131.703C135.19 131.83 135.28 131.936 135.392 132.015Z" stroke="#DCD3C2" stroke-width="2"/>
<path d="M144.77 140.64C143.037 140.153 141.46 139.747 140.04 139.42C139.487 139.3 138.957 139.303 138.45 139.43C136.11 140.03 136.213 140.71 138.76 141.47C139.2 141.597 139.707 141.82 140.28 142.14C141.94 143.067 143.51 143.03 144.99 142.03C145.917 141.403 145.843 140.94 144.77 140.64Z" stroke="#C7C8B4" stroke-width="2"/>
<path d="M99.8101 194.19C98.9301 194.243 98.7001 194.57 99.1201 195.17C99.208 195.303 99.3298 195.409 99.4725 195.478C99.6151 195.546 99.7733 195.575 99.9301 195.56C100.59 195.507 100.797 195.193 100.55 194.62C100.491 194.485 100.389 194.372 100.256 194.295C100.124 194.218 99.9684 194.181 99.8101 194.19Z" stroke="#EBD4CE" stroke-width="2"/>
<path d="M219.06 48.6999C223.793 48.8066 226.69 48.9066 227.75 48.9999C234.103 49.5666 239.707 52.5466 244.56 57.9399C246.1 59.6466 247.223 61.3066 247.93 62.9199C248.577 64.3866 249.11 66.2799 249.53 68.5999C249.857 70.4333 250 72.6199 249.96 75.1599C249.957 75.333 250.016 75.5014 250.126 75.6351C250.236 75.7688 250.39 75.8591 250.56 75.8899C252.847 76.2699 254.757 77.4099 256.29 79.3099C256.683 79.8033 257.163 80.1866 257.73 80.4599C260.77 81.9466 263.15 84.0433 264.87 86.7499C264.917 86.8299 265.67 87.8633 267.13 89.8499C267.91 90.9099 268.513 92.2299 268.94 93.8099C270.62 100.03 271.22 106.04 270.74 111.84C270.54 114.28 269.813 116.773 268.56 119.32C266.84 122.813 265.34 125.393 264.06 127.06C262.513 129.087 260.137 130.573 256.93 131.52C251.157 133.24 244.527 134.37 237.04 134.91C236.82 134.925 236.607 134.993 236.42 135.106C236.232 135.219 236.074 135.374 235.96 135.56C232.46 141.2 227.537 145.123 221.19 147.33C218.603 148.23 216.033 149.177 213.48 150.17C210.773 151.223 208.16 151.92 205.64 152.26C201.48 152.813 198.767 153.06 197.5 153C194.527 152.867 190.933 151.877 186.72 150.03C185.427 149.457 183.873 149.047 182.06 148.8C180.14 148.533 178.293 148.017 176.52 147.25C176.487 147.237 175.75 146.753 174.31 145.8C172.897 144.86 171.44 145.24 169.94 146.94C167.167 150.073 163.02 152.343 157.5 153.75C156.12 154.103 153.1 154.57 148.44 155.15C146.413 155.397 144.48 155.267 142.64 154.76C135.033 152.647 127.843 149.537 121.07 145.43C117.723 143.403 115.093 140.57 113.18 136.93C113.126 136.831 113.052 136.745 112.962 136.677C112.872 136.609 112.769 136.561 112.659 136.537C112.549 136.512 112.435 136.511 112.325 136.534C112.215 136.557 112.111 136.604 112.02 136.67C104.44 142.263 96.0168 146.373 86.7501 149C82.9434 150.08 78.3634 150.747 73.0101 151C64.7234 151.393 56.4701 151.167 48.2501 150.32C40.8301 149.56 34.6068 148.09 29.5801 145.91C23.6001 143.317 17.9701 139.783 12.6901 135.31C9.35009 132.483 6.82343 129.413 5.1101 126.1C3.54343 123.067 2.16343 119.953 0.970094 116.76C0.110094 114.447 -0.256572 112.167 -0.129905 109.92C0.103428 105.973 0.876761 102.14 2.19009 98.4199C2.83009 96.6066 3.89676 94.9033 5.39009 93.3099C6.79009 91.8233 8.2101 90.3599 9.6501 88.9199C11.4168 87.1599 13.2001 85.8266 15.0001 84.9199C17.0001 83.9199 19.0968 83.0833 21.2901 82.4099C22.6968 81.9766 22.8734 81.2399 21.8201 80.1999C20.2601 78.6733 19.4134 76.8266 19.2801 74.6599C19.2734 74.5266 19.3001 72.5833 19.3601 68.8299C19.4001 66.0899 19.9668 63.5833 21.0601 61.3099C23.4468 56.3766 26.8768 52.3599 31.3501 49.2599C34.6968 46.9466 38.6934 45.2699 43.3401 44.2299C47.6401 43.2699 52.0268 42.8699 56.5001 43.0299C58.2801 43.0966 60.0501 43.0433 61.8101 42.8699C61.9573 42.8551 62.0955 42.7934 62.2038 42.6942C62.3121 42.5949 62.3845 42.4635 62.4101 42.3199C62.6968 40.8133 62.8101 39.2899 62.7501 37.7499C62.6568 35.2433 63.2168 32.4699 64.4301 29.4299C64.5543 29.113 64.7627 28.8362 65.0325 28.6299C65.3023 28.4236 65.6231 28.2956 65.9601 28.2599C68.5334 27.9866 68.9134 27.2466 67.1001 26.0399C67.0169 25.9858 66.9459 25.9148 66.892 25.8316C66.838 25.7485 66.8023 25.6551 66.7871 25.5577C66.772 25.4603 66.7778 25.3611 66.8042 25.2666C66.8306 25.1722 66.8769 25.0847 66.9401 25.0099C68.4134 23.2366 70.0134 21.7733 71.7401 20.6199C73.3068 19.5733 75.2968 18.8299 77.7101 18.3899C79.8101 18.0033 81.9268 17.7433 84.0601 17.6099C86.1934 17.4766 88.3001 17.6533 90.3801 18.1399C95.1868 19.2799 99.7568 21.0599 104.09 23.4799C105.67 24.3599 107.42 25.1599 109.34 25.8799C109.444 25.9202 109.557 25.9329 109.668 25.9168C109.779 25.9007 109.883 25.8563 109.972 25.7879C110.06 25.7195 110.13 25.6295 110.173 25.5265C110.217 25.4235 110.233 25.311 110.22 25.1999C109.8 21.2133 110.527 17.4233 112.4 13.8299C112.74 13.1699 113.41 12.3633 114.41 11.4099C115.317 10.5433 115.93 9.6566 116.25 8.74993C116.797 7.2166 117.417 5.9166 118.11 4.84993C118.883 3.66326 119.987 2.8466 121.42 2.39993C123.913 1.6266 126.447 1.60993 129.02 2.34993C129.161 2.38982 129.311 2.39146 129.456 2.35469C129.602 2.31792 129.737 2.24397 129.85 2.13993L131.17 0.889929C131.396 0.677204 131.715 0.549456 132.07 0.52993C135.623 0.336597 138.017 0.409929 139.25 0.749929C146.73 2.82326 153.343 6.4566 159.09 11.6499C161.323 13.6699 163.1 15.9799 164.42 18.5799C165.34 20.3999 166.307 22.9066 167.32 26.0999C168.227 28.9466 168.737 31.5899 168.85 34.0299C168.95 36.1633 169.713 36.4366 171.14 34.8499C176.827 28.4966 183.53 25.1299 191.25 24.7499C196.177 24.5099 200.493 25.3766 204.2 27.3499C204.807 27.6699 205.49 28.2966 206.25 29.2299C206.963 30.1033 207.733 30.6733 208.56 30.9399C210.113 31.4399 211.353 32.1533 212.28 33.0799C212.933 33.7333 213.547 34.9499 214.12 36.7299C215.38 40.6233 216.797 44.4566 218.37 48.2299C218.427 48.3671 218.522 48.4846 218.645 48.5682C218.767 48.6517 218.912 48.6975 219.06 48.6999ZM87.8201 33.1599C88.1134 34.0533 88.4334 34.0133 88.7801 33.0399C88.8402 32.8782 88.86 32.7093 88.8369 32.5533C88.8139 32.3974 88.749 32.2608 88.6501 32.1599C88.3768 31.8799 88.1301 31.9066 87.9101 32.2399C87.8291 32.3612 87.7789 32.5071 87.7633 32.6666C87.7477 32.826 87.7671 32.9948 87.8201 33.1599ZM178.578 43.3289C178.807 43.2004 178.965 42.9688 179.019 42.6849C179.072 42.4011 179.017 42.0883 178.863 41.8154C178.71 41.5425 178.472 41.3318 178.202 41.2297C177.932 41.1276 177.652 41.1424 177.423 41.2709C177.194 41.3994 177.035 41.6311 176.981 41.9149C176.928 42.1988 176.984 42.5115 177.137 42.7844C177.29 43.0573 177.528 43.268 177.798 43.3701C178.068 43.4722 178.349 43.4574 178.578 43.3289ZM190.431 43.837C190.37 43.6833 190.266 43.5485 190.124 43.4402C189.983 43.332 189.807 43.2525 189.606 43.2063C189.406 43.1601 189.185 43.148 188.957 43.1708C188.728 43.1936 188.496 43.2509 188.274 43.3392C187.826 43.5177 187.445 43.8122 187.215 44.1579C186.985 44.5037 186.926 44.8723 187.049 45.1828C187.11 45.3366 187.215 45.4714 187.356 45.5796C187.498 45.6878 187.674 45.7673 187.874 45.8136C188.074 45.8598 188.295 45.8718 188.523 45.849C188.752 45.8262 188.984 45.769 189.206 45.6806C189.654 45.5022 190.035 45.2076 190.265 44.8619C190.495 44.5162 190.555 44.1475 190.431 43.837ZM194.48 43.4799C193.568 43.2472 192.604 43.3355 191.75 43.7299C190.857 44.1433 190.857 44.6299 191.75 45.1899C191.869 45.2653 192.012 45.3123 192.169 45.3279C192.326 45.3434 192.493 45.327 192.66 45.2799C193.633 44.9999 194.593 45.0133 195.54 45.3199C195.698 45.3713 195.862 45.3806 196.005 45.3461C196.148 45.3117 196.263 45.2356 196.33 45.1299C196.783 44.4566 196.167 43.9066 194.48 43.4799ZM172.3 45.2399C171.84 46.0599 172.017 46.3799 172.83 46.1999C172.992 46.1641 173.14 46.0899 173.256 45.9857C173.373 45.8815 173.454 45.7514 173.49 45.6099C173.61 45.1633 173.467 44.9033 173.06 44.8299C172.921 44.8033 172.773 44.8285 172.636 44.9021C172.5 44.9757 172.382 45.0939 172.3 45.2399ZM189.81 46.4399C188.937 46.2599 188.843 46.7766 189.53 47.9899C189.883 48.6233 190.213 48.6133 190.52 47.9599C190.92 47.1199 190.683 46.6133 189.81 46.4399ZM38.1227 52.2191C38.4022 51.8824 38.5131 51.429 38.4308 50.9585C38.3486 50.488 38.08 50.0391 37.6841 49.7104C37.2882 49.3818 36.7975 49.2003 36.3199 49.206C35.8424 49.2117 35.417 49.404 35.1375 49.7407C34.858 50.0774 34.7471 50.5309 34.8294 51.0013C34.9116 51.4718 35.1802 51.9208 35.5761 52.2494C35.972 52.5781 36.4627 52.7595 36.9402 52.7538C37.4178 52.7482 37.8432 52.5558 38.1227 52.2191ZM108.14 53.7699C110.053 54.5766 110.917 53.8133 110.73 51.4799C110.717 51.3351 110.649 51.2009 110.541 51.1057C110.433 51.0105 110.293 50.9618 110.15 50.9699C107.983 51.0766 107.1 51.7833 107.5 53.0899C107.543 53.2364 107.623 53.3734 107.734 53.491C107.845 53.6086 107.983 53.7039 108.14 53.7699ZM46.9001 53.2299C48.0268 53.5966 48.1568 53.2899 47.2901 52.3099C47.2009 52.2085 47.0832 52.1391 46.9597 52.1152C46.8361 52.0912 46.7152 52.1142 46.6201 52.1799C46.4734 52.2866 46.3868 52.4166 46.3601 52.5699C46.3374 52.6974 46.3797 52.8349 46.4791 52.9564C46.5786 53.0779 46.7283 53.1752 46.9001 53.2299ZM163.93 57.3299C164.77 57.2899 165.05 56.8899 164.77 56.1299C164.718 55.9907 164.627 55.8673 164.506 55.7724C164.385 55.6775 164.238 55.6145 164.08 55.5899C162.967 55.4366 162.67 55.8666 163.19 56.8799C163.262 57.0202 163.37 57.137 163.501 57.2168C163.632 57.2965 163.781 57.3357 163.93 57.3299ZM220.1 59.5338C220.025 59.3729 219.889 59.2486 219.722 59.1881C219.555 59.1276 219.37 59.136 219.209 59.2113L213.848 61.7226C213.687 61.798 213.563 61.9342 213.503 62.1013C213.442 62.2684 213.451 62.4526 213.526 62.6135L213.56 62.686C213.635 62.8469 213.771 62.9713 213.939 63.0318C214.106 63.0923 214.29 63.0839 214.451 63.0085L219.812 60.4972C219.973 60.4218 220.097 60.2856 220.158 60.1186C220.218 59.9515 220.21 59.7672 220.134 59.6063L220.1 59.5338ZM35.9001 66.6599C35.2268 67.6666 34.8468 68.7266 34.7601 69.8399C34.7134 70.4399 34.8568 70.4866 35.1901 69.9799C35.9101 68.8733 36.3901 67.8699 36.6301 66.9699C37.0501 65.4033 36.8068 65.2999 35.9001 66.6599ZM90.1601 73.7799C90.5734 74.0999 91.2068 74.6533 92.0601 75.4399C93.1401 76.4266 93.6901 76.3033 93.7101 75.0699C93.71 74.9245 93.6753 74.7751 93.6083 74.6307C93.5412 74.4862 93.4432 74.3499 93.3201 74.2299C91.7268 72.7033 91.3201 70.8466 92.1001 68.6599C92.5534 67.3933 92.2901 66.7633 91.3101 66.7699C91.1707 66.7693 91.0307 66.8174 90.908 66.9082C90.7852 66.9989 90.685 67.1283 90.6201 67.2799C89.4868 69.9533 87.5934 71.9266 84.9401 73.1999C82.6734 74.2866 80.8601 73.8233 79.5001 71.8099C78.6268 70.5099 77.6201 69.3566 76.4801 68.3499C75.9068 67.8433 75.5801 67.9699 75.5001 68.7299C75.2601 71.0833 76.0334 72.9866 77.8201 74.4399C79.4868 75.7933 80.6801 77.4699 81.4001 79.4699C81.5226 79.8047 81.73 80.0658 81.9801 80.1999C82.9334 80.7266 83.2168 80.1733 82.8301 78.5399C82.5034 77.1733 82.9601 76.4333 84.2001 76.3199C84.3677 76.3052 84.5323 76.3323 84.6742 76.3979C84.8161 76.4636 84.9292 76.565 85.0001 76.6899L86.6301 79.4699C86.7364 79.6512 86.8485 79.8086 86.9577 79.9299C87.067 80.0513 87.1704 80.1334 87.2601 80.1699C88.1734 80.5699 88.6501 80.2033 88.6901 79.0699C88.7033 78.7792 88.5973 78.4578 88.3901 78.1599C87.0501 76.2666 87.3568 74.7866 89.3101 73.7199C89.4447 73.6478 89.5964 73.6151 89.747 73.6258C89.8977 73.6364 90.041 73.6899 90.1601 73.7799ZM203.339 69.8393C203.47 69.8354 203.599 69.7977 203.719 69.7283C203.838 69.6589 203.945 69.5592 204.034 69.4348C204.124 69.3105 204.193 69.1639 204.238 69.0036C204.284 68.8432 204.305 68.6722 204.3 68.5002C204.295 68.3283 204.264 68.1588 204.209 68.0014C204.154 67.844 204.076 67.7019 203.979 67.583C203.883 67.4642 203.77 67.371 203.647 67.3088C203.523 67.2466 203.392 67.2166 203.261 67.2205C203.13 67.2244 203.001 67.2622 202.882 67.3316C202.762 67.401 202.655 67.5007 202.566 67.625C202.477 67.7494 202.407 67.8959 202.362 68.0563C202.316 68.2166 202.295 68.3877 202.3 68.5596C202.306 68.7316 202.337 68.9011 202.391 69.0585C202.446 69.2159 202.524 69.358 202.621 69.4768C202.717 69.5957 202.83 69.6889 202.954 69.751C203.077 69.8132 203.208 69.8432 203.339 69.8393ZM189.78 79.1499L192.19 78.7899C192.306 78.7714 192.445 78.7965 192.593 78.8629C192.742 78.9293 192.895 79.0349 193.04 79.1699L195.93 81.8599C196.161 82.078 196.478 82.1965 196.81 82.1899C198.87 82.1566 199.06 81.3899 197.38 79.8899C196.447 79.0566 195.423 78.2499 194.31 77.4699C194.255 77.4315 194.209 77.3828 194.173 77.3265C194.137 77.2702 194.113 77.2076 194.102 77.1423C194.09 77.077 194.092 77.0105 194.108 76.9465C194.123 76.8825 194.151 76.8225 194.19 76.7699C195.277 75.3033 195.987 73.8166 196.32 72.3099C196.687 70.6433 196.37 70.2566 195.37 71.1499C195.143 71.3433 194.967 71.6266 194.84 71.9999C194.22 73.7999 193.183 75.1899 191.73 76.1699C190.31 77.1299 188.733 77.4666 187 77.1799C184.967 76.8533 183.373 75.8099 182.22 74.0499C181.853 73.4966 181.477 72.5899 181.09 71.3299C180.803 70.3833 180.48 69.4499 180.12 68.5299C180.057 68.3704 179.968 68.2286 179.857 68.1145C179.746 68.0005 179.618 67.9169 179.48 67.8699C178.453 67.5033 177.98 67.9433 178.06 69.1899C178.253 72.1166 179.457 74.8466 181.67 77.3799C181.768 77.494 181.832 77.633 181.853 77.7804C181.875 77.9277 181.853 78.0769 181.79 78.2099C181.323 79.2433 180.873 80.2833 180.44 81.3299C179.787 82.9166 180.04 83.5499 181.2 83.2299C181.53 83.1397 181.836 82.9758 182.094 82.7507C182.352 82.5256 182.556 82.245 182.69 81.9299C183.737 79.4833 185.187 78.6066 187.04 79.2999C187.168 79.3491 187.276 79.4445 187.347 79.5711C187.417 79.6978 187.447 79.8486 187.43 79.9999C187.25 81.4533 187.383 82.8766 187.83 84.2699C187.88 84.4241 187.971 84.5601 188.089 84.6613C188.208 84.7625 188.351 84.8245 188.5 84.8399C189.267 84.9199 189.623 84.6133 189.57 83.9199C189.537 83.4399 189.52 83.1566 189.52 83.0699C189.56 81.9766 189.513 80.8899 189.38 79.8099C189.361 79.6523 189.392 79.4951 189.467 79.3719C189.542 79.2486 189.654 79.169 189.78 79.1499ZM214.23 70.4099C214.23 69.9432 214.045 69.4955 213.715 69.1654C213.385 68.8354 212.937 68.6499 212.47 68.6499C212.003 68.6499 211.556 68.8354 211.226 69.1654C210.896 69.4955 210.71 69.9432 210.71 70.4099C210.71 70.6411 210.756 70.8699 210.844 71.0835C210.933 71.297 211.062 71.491 211.226 71.6544C211.389 71.8179 211.583 71.9475 211.797 72.036C212.01 72.1244 212.239 72.1699 212.47 72.1699C212.701 72.1699 212.93 72.1244 213.144 72.036C213.357 71.9475 213.551 71.8179 213.715 71.6544C213.878 71.491 214.008 71.297 214.096 71.0835C214.185 70.8699 214.23 70.6411 214.23 70.4099ZM66.0401 79.3899C66.226 79.4913 66.4339 79.5454 66.6456 79.5475C66.8573 79.5495 67.0663 79.4994 67.2541 79.4016C67.4418 79.3037 67.6026 79.1612 67.7223 78.9865C67.8419 78.8118 67.9167 78.6104 67.9401 78.3999C68.1001 76.9999 68.5834 75.7299 69.3901 74.5899C69.6033 74.2862 69.7133 73.9669 69.7001 73.6899C69.6534 72.5299 69.0334 72.4266 67.8401 73.3799C66.9934 74.0599 65.9368 74.5099 64.6701 74.7299C63.3234 74.9699 62.9134 75.7199 63.4401 76.9799C63.7868 77.8266 64.6534 78.6299 66.0401 79.3899ZM148.782 78.0166C148.954 78.0313 149.127 77.9499 149.263 77.7903C149.399 77.6307 149.487 77.4059 149.508 77.1654C149.518 77.0464 149.511 76.927 149.488 76.8142C149.465 76.7014 149.426 76.5974 149.373 76.508C149.32 76.4187 149.254 76.3458 149.18 76.2935C149.105 76.2412 149.023 76.2105 148.938 76.2032C148.766 76.1885 148.593 76.2699 148.457 76.4296C148.321 76.5892 148.233 76.814 148.212 77.0544C148.202 77.1735 148.209 77.2928 148.232 77.4056C148.255 77.5184 148.294 77.6225 148.347 77.7118C148.4 77.8012 148.466 77.8741 148.54 77.9264C148.615 77.9787 148.697 78.0093 148.782 78.0166ZM139 82.2899C142.84 83.4699 146.353 85.2799 149.54 87.7199C150.68 88.5999 151.323 88.5166 151.47 87.4699C151.537 87.0166 151.437 86.5599 151.17 86.0999C150.403 84.7666 149.2 83.6299 147.56 82.6899C144.607 80.9966 142.003 79.8366 139.75 79.2099C133.843 76.8433 128.177 76.2733 122.75 77.4999C117.11 78.7733 112.7 82.0566 109.52 87.3499C109.133 87.9966 108.93 88.6433 108.91 89.2899C108.843 91.2033 109.593 91.6133 111.16 90.5199C111.647 90.1866 112.157 89.6333 112.69 88.8599C115.603 84.6333 119.207 82.0966 123.5 81.2499C127.76 80.4033 132.927 80.7499 139 82.2899ZM207.4 81.5999C206.733 82.6133 206.477 83.5299 206.63 84.3499C206.709 84.7819 206.876 85.1933 207.122 85.5581C207.369 85.9229 207.688 86.2334 208.06 86.4699C210.98 88.3166 212.293 88.7066 212 87.6399C211.928 87.3648 211.782 87.1144 211.577 86.9154C211.373 86.7164 211.118 86.5763 210.84 86.5099C207.64 85.7499 206.687 84.3166 207.98 82.2099C208.52 81.3366 208.55 80.5566 208.07 79.8699C207.837 79.5366 207.657 79.5599 207.53 79.9399C207.443 80.1999 207.433 80.4633 207.5 80.7299C207.541 80.8936 207.553 81.0559 207.536 81.2059C207.519 81.356 207.472 81.4903 207.4 81.5999ZM70.1301 86.3699C68.6034 86.7833 67.5834 87.9099 67.0701 89.7499C67.0298 89.8883 67.0267 90.0346 67.061 90.1746C67.0953 90.3145 67.1659 90.4432 67.2657 90.5481C67.3656 90.6531 67.4913 90.7305 67.6306 90.7729C67.7699 90.8153 67.9179 90.8212 68.0601 90.7899C69.7468 90.4166 70.9168 89.5033 71.5701 88.0499C72.2701 86.4833 71.7901 85.9233 70.1301 86.3699ZM232.989 90.7453C233.241 90.5374 233.357 90.1878 233.314 89.7735C233.271 89.3591 233.071 88.914 232.758 88.5359C232.445 88.1579 232.045 87.878 231.646 87.7577C231.248 87.6374 230.882 87.6866 230.631 87.8945C230.38 88.1025 230.263 88.4521 230.306 88.8664C230.35 89.2807 230.55 89.7259 230.862 90.1039C231.175 90.482 231.575 90.7619 231.974 90.8822C232.373 91.0025 232.738 90.9532 232.989 90.7453ZM220.739 88.9952C220.668 88.7233 220.473 88.4957 220.198 88.3624C219.923 88.2292 219.589 88.2012 219.271 88.2846C219.114 88.326 218.965 88.3934 218.833 88.4831C218.701 88.5728 218.588 88.683 218.502 88.8075C218.415 88.9319 218.357 89.0681 218.329 89.2083C218.301 89.3485 218.305 89.49 218.341 89.6246C218.412 89.8966 218.607 90.1242 218.882 90.2574C219.158 90.3907 219.491 90.4187 219.809 90.3352C219.967 90.2939 220.116 90.2265 220.248 90.1368C220.38 90.0471 220.492 89.9368 220.578 89.8124C220.665 89.688 220.724 89.5518 220.751 89.4116C220.779 89.2713 220.775 89.1299 220.739 88.9952ZM106.33 96.3799C106.498 96.5789 106.709 96.7365 106.947 96.8406C107.185 96.9446 107.442 96.9923 107.7 96.9799C108.3 96.9466 108.337 96.4133 107.81 95.3799C107.544 94.8474 107.018 94.3283 106.31 93.8999L101.65 91.0599C101.501 90.97 101.341 90.9156 101.19 90.9031C101.04 90.8907 100.904 90.9209 100.8 90.9899C100.233 91.3766 100.183 91.8466 100.65 92.3999C100.811 92.593 101.106 92.7566 101.48 92.8599C103.113 93.2999 104.73 94.4733 106.33 96.3799ZM35.0601 91.6899C34.2334 91.2699 32.9234 91.2266 31.1301 91.5599C31.0768 91.5733 30.4801 91.6299 29.3401 91.7299C28.2801 91.8233 27.6168 92.3733 27.3501 93.3799C27.0634 94.4466 27.3801 94.6766 28.3001 94.0699C30.5201 92.6166 32.3801 93.0499 33.8801 95.3699C33.9508 95.4793 34.0478 95.5692 34.1622 95.6315C34.2766 95.6938 34.4048 95.7264 34.5351 95.7264C34.6654 95.7264 34.7935 95.6938 34.908 95.6315C35.0224 95.5692 35.1194 95.4793 35.1901 95.3699C36.3634 93.5499 36.3201 92.3233 35.0601 91.6899ZM70.1596 96.0683C70.3763 96.1476 70.6326 96.0911 70.8722 95.9112C71.1118 95.7312 71.315 95.4427 71.4371 95.1089C71.4976 94.9437 71.5363 94.7723 71.5511 94.6046C71.566 94.4369 71.5565 94.2761 71.5234 94.1315C71.4903 93.9869 71.4342 93.8613 71.3582 93.7617C71.2822 93.6622 71.1879 93.5908 71.0806 93.5515C70.8639 93.4722 70.6076 93.5288 70.368 93.7087C70.1284 93.8886 69.9252 94.1772 69.8031 94.5109C69.7426 94.6762 69.7039 94.8476 69.689 95.0153C69.6742 95.183 69.6836 95.3437 69.7168 95.4883C69.7499 95.6329 69.806 95.7586 69.882 95.8581C69.958 95.9576 70.0523 96.0291 70.1596 96.0683ZM76.5086 97.5208C76.7459 97.495 76.9557 97.3069 77.0919 96.9978C77.2281 96.6887 77.2795 96.284 77.2348 95.8727C77.1901 95.4614 77.053 95.0772 76.8536 94.8046C76.6542 94.5319 76.4089 94.3933 76.1716 94.419C75.9343 94.4448 75.7245 94.633 75.5883 94.942C75.4521 95.2511 75.4007 95.6558 75.4454 96.0671C75.4901 96.4784 75.6272 96.8627 75.8266 97.1353C76.026 97.4079 76.2713 97.5466 76.5086 97.5208ZM81.8201 95.4999C81.2201 95.6533 81.1234 96.0766 81.5301 96.7699C81.6084 96.9045 81.724 97.0142 81.8636 97.0867C82.0033 97.1592 82.1615 97.1915 82.3201 97.1799C83.4068 97.0999 83.5268 96.6333 82.6801 95.7799C82.5613 95.6582 82.4192 95.5681 82.2681 95.5189C82.117 95.4697 81.9624 95.4632 81.8201 95.4999ZM18.2701 98.8899C19.0301 98.2366 19.5634 97.4333 19.8701 96.4799C19.8884 96.4204 19.8929 96.3574 19.8833 96.2959C19.8736 96.2343 19.8501 96.1758 19.8144 96.1247C19.7787 96.0736 19.7319 96.0313 19.6774 96.001C19.623 95.9707 19.5623 95.9533 19.5001 95.9499C17.2734 95.8233 15.7201 96.8166 14.8401 98.9299C14.4934 99.7499 14.1368 100.563 13.7701 101.37C13.6955 101.532 13.6656 101.705 13.6858 101.857C13.706 102.01 13.775 102.131 13.8801 102.2C14.1268 102.367 14.4401 102.323 14.8201 102.07C15.4934 101.623 16.0868 101.103 16.6001 100.51C17.0134 100.03 17.5701 99.4899 18.2701 98.8899ZM46.9601 105.25L46.5501 109.85C46.5114 110.241 46.5616 110.578 46.6901 110.79C47.6768 112.497 48.8568 113.687 50.2301 114.36C50.3615 114.422 50.4726 114.521 50.5504 114.645C50.6283 114.769 50.6698 114.913 50.6701 115.06C50.6901 116.28 51.1001 116.733 51.9001 116.42C52.2334 116.293 52.4801 116.227 52.6401 116.22C53.4068 116.193 53.5934 116.423 53.2001 116.91C53.0801 117.057 52.8701 117.193 52.5701 117.32C51.8368 117.64 51.7601 118.027 52.3401 118.48C52.4291 118.551 52.5564 118.595 52.7102 118.609C52.8641 118.623 53.0394 118.606 53.2201 118.56L56.7501 117.71C61.6034 118.87 65.3368 117.433 67.9501 113.4C69.4434 111.107 69.9601 109.057 69.5001 107.25C68.2534 102.37 65.3134 98.9866 60.6801 97.0999C57.9201 95.9866 55.4234 95.7599 53.1901 96.4199C50.6168 97.1799 48.5334 98.9366 46.9401 101.69C46.1534 103.043 46.1601 104.23 46.9601 105.25ZM201.081 97.1212C201.026 97.0527 200.958 96.9958 200.88 96.9537C200.803 96.9116 200.718 96.8851 200.631 96.8757C200.543 96.8664 200.455 96.8744 200.371 96.8992C200.286 96.924 200.207 96.9653 200.139 97.0205L200.077 97.0707C200.008 97.126 199.951 97.1942 199.909 97.2714C199.867 97.3487 199.841 97.4335 199.831 97.521C199.822 97.6085 199.83 97.6969 199.855 97.7814C199.88 97.8658 199.921 97.9445 199.976 98.0129L201.659 100.099C201.714 100.167 201.782 100.224 201.86 100.266C201.937 100.308 202.022 100.335 202.109 100.344C202.197 100.353 202.285 100.346 202.37 100.321C202.454 100.296 202.533 100.255 202.601 100.199L202.663 100.149C202.732 100.094 202.789 100.026 202.831 99.9484C202.873 99.8712 202.9 99.7864 202.909 99.6989C202.918 99.6114 202.91 99.5229 202.885 99.4385C202.861 99.3541 202.819 99.2754 202.764 99.2069L201.081 97.1212ZM194.2 100.07C194.947 100.497 195.29 100.28 195.23 99.4199C195.163 98.5533 194.737 97.8999 193.95 97.4599C193.892 97.428 193.827 97.4089 193.761 97.4039C193.695 97.3989 193.628 97.4082 193.566 97.431C193.505 97.4538 193.449 97.4897 193.403 97.5361C193.357 97.5826 193.322 97.6385 193.3 97.6999C192.913 98.7199 193.213 99.5099 194.2 100.07ZM188.19 100.03C188.843 100.79 189.253 100.677 189.42 99.6899C189.667 98.2966 189.42 97.5999 188.68 97.5999C188.532 97.6027 188.385 97.6545 188.259 97.7488C188.133 97.843 188.032 97.9756 187.97 98.1299C187.67 98.8699 187.743 99.5033 188.19 100.03ZM208.54 105.5C209.04 105.973 209.18 106.557 208.96 107.25C207.813 110.19 208.223 113.21 210.19 116.31C212.87 120.55 216.56 122.127 221.26 121.04C225.493 120.06 228.47 117.86 230.19 114.44C232.517 109.813 232.133 105.85 229.04 102.55C227.707 101.13 225.91 99.9366 223.65 98.9699C221.403 98.0099 219.27 97.5199 217.25 97.4999C212.71 97.4599 209.71 99.7099 208.25 104.25C208.117 104.67 208.213 105.087 208.54 105.5ZM175.44 100.11C175.933 100.823 176.313 100.717 176.58 99.7899C176.62 99.637 176.609 99.477 176.548 99.3418C176.487 99.2065 176.38 99.1059 176.25 99.0599C175.95 98.9599 175.687 99.0266 175.46 99.2599C175.363 99.3682 175.309 99.5106 175.305 99.6646C175.302 99.8186 175.349 99.9754 175.44 100.11ZM252.684 102.84C252.894 102.993 253.173 103.034 253.459 102.952C253.746 102.871 254.017 102.675 254.212 102.407C254.407 102.139 254.511 101.822 254.501 101.524C254.49 101.226 254.367 100.973 254.157 100.82C253.947 100.667 253.668 100.626 253.381 100.707C253.094 100.789 252.824 100.985 252.628 101.253C252.433 101.52 252.329 101.838 252.339 102.136C252.35 102.434 252.474 102.687 252.684 102.84ZM154.12 111.69C151.333 110.157 148.567 108.587 145.82 106.98C145.767 106.947 144.987 106.553 143.48 105.8C142.453 105.287 141.603 104.637 140.93 103.85C140.796 103.691 140.625 103.567 140.432 103.488C140.239 103.409 140.03 103.378 139.823 103.398C139.615 103.418 139.416 103.487 139.241 103.601C139.067 103.714 138.922 103.868 138.82 104.05C137.913 105.663 138.213 106.5 139.72 106.56C140.693 106.593 141.37 106.673 141.75 106.8C143.963 107.513 146.233 108.643 148.56 110.19C150.173 111.257 152.25 112.3 154.79 113.32C154.93 113.376 155.084 113.381 155.22 113.334C155.356 113.288 155.463 113.193 155.52 113.07C155.733 112.597 155.58 112.26 155.06 112.06C154.507 111.853 154.193 111.73 154.12 111.69ZM31.7801 106.13C31.6928 106.054 31.5896 105.999 31.4782 105.969C31.3669 105.939 31.2504 105.934 31.1376 105.955C31.0248 105.976 30.9187 106.023 30.8273 106.091C30.7358 106.16 30.6616 106.248 30.6101 106.35C29.9434 107.65 29.3601 108.913 28.8601 110.14C28.7268 110.48 28.5301 111.463 28.2701 113.09C28.0968 114.157 27.6268 115.093 26.8601 115.9C26.7337 116.032 26.6367 116.179 26.5774 116.327C26.5182 116.475 26.4985 116.62 26.5201 116.75C26.6134 117.363 27.0034 117.51 27.6901 117.19C29.4034 116.39 30.6434 114.837 31.4101 112.53C31.5168 112.23 31.6901 111.967 31.9301 111.74C33.9501 109.873 33.9001 108.003 31.7801 106.13ZM81.7708 109.675C82.0667 109.649 82.3388 109.491 82.5273 109.236C82.7158 108.98 82.8052 108.648 82.7758 108.312C82.7613 108.146 82.718 107.984 82.6485 107.836C82.579 107.687 82.4846 107.555 82.3708 107.446C82.2569 107.338 82.1257 107.255 81.9848 107.204C81.8439 107.152 81.6959 107.132 81.5494 107.145C81.2535 107.171 80.9814 107.329 80.7929 107.584C80.6044 107.84 80.515 108.172 80.5444 108.508C80.5589 108.674 80.6022 108.836 80.6717 108.984C80.7412 109.133 80.8355 109.265 80.9494 109.374C81.0633 109.482 81.1945 109.564 81.3354 109.616C81.4763 109.668 81.6243 109.688 81.7708 109.675ZM166.27 109.3C166.27 109.199 166.25 109.099 166.211 109.005C166.173 108.912 166.116 108.827 166.045 108.755C165.973 108.684 165.888 108.627 165.795 108.589C165.701 108.55 165.601 108.53 165.5 108.53C165.399 108.53 165.299 108.55 165.205 108.589C165.112 108.627 165.027 108.684 164.956 108.755C164.884 108.827 164.827 108.912 164.789 109.005C164.75 109.099 164.73 109.199 164.73 109.3C164.73 109.504 164.811 109.7 164.956 109.844C165.1 109.989 165.296 110.07 165.5 110.07C165.704 110.07 165.9 109.989 166.045 109.844C166.189 109.7 166.27 109.504 166.27 109.3ZM188.346 114.752C188.517 114.77 188.69 114.749 188.856 114.69C189.022 114.631 189.177 114.536 189.312 114.41C189.448 114.284 189.561 114.13 189.645 113.955C189.729 113.781 189.783 113.591 189.803 113.395C189.823 113.199 189.81 113.001 189.763 112.813C189.716 112.626 189.637 112.451 189.531 112.3C189.424 112.149 189.292 112.024 189.141 111.933C188.991 111.842 188.825 111.786 188.654 111.768C188.483 111.75 188.31 111.771 188.144 111.83C187.978 111.888 187.823 111.984 187.688 112.11C187.552 112.236 187.439 112.39 187.355 112.564C187.271 112.739 187.217 112.929 187.197 113.125C187.177 113.321 187.19 113.519 187.237 113.707C187.284 113.894 187.363 114.069 187.47 114.22C187.576 114.371 187.709 114.496 187.859 114.587C188.009 114.678 188.175 114.734 188.346 114.752ZM199.93 115.07C200.243 113.53 199.77 113.343 198.51 114.51C195.07 117.703 195.36 118.137 199.38 115.81C199.521 115.732 199.644 115.625 199.738 115.497C199.833 115.37 199.899 115.224 199.93 115.07ZM94.4101 116.83C94.5701 115.763 94.1101 115.44 93.0301 115.86C92.8866 115.916 92.7641 116.014 92.6798 116.139C92.5955 116.265 92.5537 116.412 92.5601 116.56C92.6068 117.76 93.0534 118.107 93.9001 117.6C94.0371 117.519 94.1541 117.407 94.2423 117.274C94.3306 117.141 94.388 116.989 94.4101 116.83ZM101.58 119.11C102.113 119.417 102.537 119.48 102.85 119.3C102.966 119.23 103.052 119.109 103.097 118.954C103.142 118.799 103.143 118.619 103.1 118.44C102.84 117.413 102.29 117.36 101.45 118.28C101.396 118.34 101.356 118.411 101.333 118.488C101.31 118.565 101.304 118.646 101.317 118.726C101.329 118.806 101.359 118.881 101.405 118.948C101.451 119.014 101.51 119.07 101.58 119.11ZM104.35 127.11L100.8 130.69C99.9668 131.53 100.093 131.697 101.18 131.19L104.31 129.73C104.591 129.599 104.914 129.554 105.24 129.6C106.487 129.793 107.44 129.387 108.1 128.38C109.133 126.807 108.83 126.013 107.19 126C106.037 125.993 105.09 126.363 104.35 127.11ZM58.6501 129.5C59.7034 129.873 60.0401 129.623 59.6601 128.75C59.5948 128.604 59.4921 128.48 59.3644 128.393C59.2366 128.306 59.0893 128.26 58.9401 128.26C58.4801 128.267 58.2201 128.45 58.1601 128.81C58.1399 128.947 58.1777 129.091 58.267 129.217C58.3563 129.343 58.4917 129.443 58.6501 129.5ZM135.391 132.015C135.503 132.094 135.633 132.144 135.775 132.163C135.916 132.181 136.067 132.167 136.217 132.122C136.367 132.077 136.514 132.002 136.65 131.901C136.786 131.799 136.908 131.673 137.009 131.531C137.11 131.388 137.188 131.232 137.238 131.07C137.289 130.908 137.311 130.744 137.304 130.587C137.296 130.431 137.259 130.285 137.195 130.157C137.131 130.03 137.04 129.923 136.929 129.844C136.817 129.765 136.687 129.715 136.545 129.697C136.404 129.679 136.254 129.692 136.103 129.737C135.953 129.782 135.806 129.858 135.67 129.959C135.534 130.061 135.412 130.186 135.311 130.329C135.21 130.471 135.132 130.628 135.082 130.79C135.031 130.952 135.009 131.116 135.016 131.273C135.024 131.429 135.061 131.575 135.125 131.703C135.19 131.83 135.28 131.937 135.391 132.015ZM144.77 140.64C143.037 140.153 141.46 139.747 140.04 139.42C139.487 139.3 138.957 139.303 138.45 139.43C136.11 140.03 136.213 140.71 138.76 141.47C139.2 141.597 139.707 141.82 140.28 142.14C141.94 143.067 143.51 143.03 144.99 142.03C145.917 141.403 145.843 140.94 144.77 140.64Z" fill="#BBBDA5"/>
<path d="M87.9101 32.2399C88.1301 31.9066 88.3768 31.8799 88.6501 32.1599C88.749 32.2608 88.8139 32.3974 88.8369 32.5533C88.86 32.7093 88.8402 32.8782 88.7801 33.0399C88.4334 34.0133 88.1134 34.0533 87.8201 33.1599C87.7671 32.9948 87.7477 32.826 87.7633 32.6666C87.7789 32.5071 87.8291 32.3612 87.9101 32.2399Z" fill="#FDE8DF"/>
<path d="M177.137 42.7844C177.456 43.3528 178.101 43.5965 178.578 43.3289C179.054 43.0614 179.182 42.3838 178.863 41.8154C178.544 41.2471 177.899 41.0034 177.423 41.2709C176.946 41.5385 176.818 42.2161 177.137 42.7844Z" fill="white"/>
<path d="M189.206 45.6806C190.14 45.309 190.688 44.4836 190.431 43.837C190.174 43.1905 189.208 42.9676 188.274 43.3392C187.34 43.7109 186.792 44.5363 187.049 45.1828C187.306 45.8294 188.272 46.0523 189.206 45.6806Z" fill="white"/>
<path d="M194.48 43.4799C196.167 43.9066 196.783 44.4566 196.33 45.1299C196.263 45.2356 196.148 45.3117 196.005 45.3461C195.862 45.3806 195.698 45.3713 195.54 45.3199C194.593 45.0133 193.633 44.9999 192.66 45.2799C192.493 45.327 192.326 45.3434 192.169 45.3279C192.012 45.3123 191.869 45.2653 191.75 45.1899C190.857 44.6299 190.857 44.1433 191.75 43.7299C192.604 43.3355 193.568 43.2472 194.48 43.4799Z" fill="#D2D3C3"/>
<path d="M173.06 44.8299C173.467 44.9033 173.61 45.1633 173.49 45.6099C173.454 45.7514 173.373 45.8815 173.256 45.9857C173.14 46.0899 172.992 46.1641 172.83 46.1999C172.017 46.3799 171.84 46.0599 172.3 45.2399C172.382 45.0939 172.5 44.9757 172.636 44.9021C172.773 44.8285 172.921 44.8033 173.06 44.8299Z" fill="white"/>
<path d="M189.81 46.4399C190.683 46.6133 190.92 47.1199 190.52 47.9599C190.213 48.6133 189.883 48.6233 189.53 47.9899C188.843 46.7766 188.937 46.2599 189.81 46.4399Z" fill="#D2D3C3"/>
<path d="M35.5761 52.2494C36.4005 52.9338 37.5406 52.9203 38.1227 52.2191C38.7048 51.518 38.5085 50.3948 37.6841 49.7104C36.8597 49.026 35.7196 49.0396 35.1375 49.7407C34.5554 50.4419 34.7517 51.565 35.5761 52.2494Z" fill="#FDE8DF"/>
<path d="M107.5 53.0899C107.1 51.7833 107.983 51.0766 110.15 50.9699C110.293 50.9618 110.433 51.0105 110.541 51.1057C110.649 51.2009 110.717 51.3351 110.73 51.4799C110.917 53.8133 110.053 54.5766 108.14 53.7699C107.983 53.7039 107.845 53.6086 107.734 53.491C107.623 53.3734 107.543 53.2364 107.5 53.0899Z" fill="#CACCB5"/>
<path d="M46.3601 52.5699C46.3868 52.4166 46.4734 52.2866 46.6201 52.1799C46.7152 52.1142 46.8361 52.0912 46.9597 52.1152C47.0832 52.1391 47.2009 52.2085 47.2901 52.3099C48.1568 53.2899 48.0268 53.5966 46.9001 53.2299C46.7283 53.1752 46.5786 53.0779 46.4791 52.9564C46.3797 52.8349 46.3374 52.6974 46.3601 52.5699Z" fill="#D2D3C3"/>
<path d="M163.19 56.8799C162.67 55.8666 162.967 55.4366 164.08 55.5899C164.238 55.6145 164.385 55.6775 164.506 55.7724C164.627 55.8673 164.718 55.9907 164.77 56.1299C165.05 56.8899 164.77 57.2899 163.93 57.3299C163.781 57.3357 163.632 57.2965 163.501 57.2168C163.37 57.137 163.262 57.0202 163.19 56.8799Z" fill="#FDE8DF"/>
<path d="M219.209 59.2113L213.848 61.7226C213.513 61.8796 213.369 62.2784 213.526 62.6135L213.56 62.686C213.717 63.0211 214.116 63.1655 214.451 63.0085L219.812 60.4972C220.147 60.3403 220.291 59.9414 220.134 59.6063L220.1 59.5338C219.943 59.1987 219.544 59.0544 219.209 59.2113Z" fill="#D2D3C3"/>
<path d="M35.9001 66.6599C36.8068 65.2999 37.0501 65.4033 36.6301 66.9699C36.3901 67.8699 35.9101 68.8733 35.1901 69.9799C34.8568 70.4866 34.7134 70.4399 34.7601 69.8399C34.8468 68.7266 35.2268 67.6666 35.9001 66.6599Z" fill="#CACCB5"/>
<path d="M89.3101 73.7199C87.3568 74.7866 87.0501 76.2666 88.3901 78.1599C88.5973 78.4578 88.7033 78.7792 88.6901 79.0699C88.6501 80.2033 88.1734 80.5699 87.2601 80.1699C87.1704 80.1334 87.067 80.0513 86.9577 79.9299C86.8485 79.8086 86.7364 79.6512 86.6301 79.4699L85.0001 76.6899C84.9292 76.565 84.8161 76.4636 84.6742 76.3979C84.5323 76.3323 84.3677 76.3052 84.2001 76.3199C82.9601 76.4333 82.5034 77.1733 82.8301 78.5399C83.2168 80.1733 82.9334 80.7266 81.9801 80.1999C81.73 80.0658 81.5226 79.8047 81.4001 79.4699C80.6801 77.4699 79.4868 75.7933 77.8201 74.4399C76.0334 72.9866 75.2601 71.0833 75.5001 68.7299C75.5801 67.9699 75.9068 67.8433 76.4801 68.3499C77.6201 69.3566 78.6268 70.5099 79.5001 71.8099C80.8601 73.8233 82.6734 74.2866 84.9401 73.1999C87.5934 71.9266 89.4868 69.9533 90.6201 67.2799C90.685 67.1283 90.7852 66.9989 90.908 66.9082C91.0307 66.8174 91.1707 66.7693 91.3101 66.7699C92.2901 66.7633 92.5534 67.3933 92.1001 68.6599C91.3201 70.8466 91.7268 72.7033 93.3201 74.2299C93.4432 74.3499 93.5412 74.4862 93.6083 74.6307C93.6753 74.7751 93.71 74.9245 93.7101 75.0699C93.6901 76.3033 93.1401 76.4266 92.0601 75.4399C91.2068 74.6533 90.5734 74.0999 90.1601 73.7799C90.041 73.6899 89.8977 73.6364 89.747 73.6258C89.5964 73.6151 89.4447 73.6478 89.3101 73.7199Z" fill="#161515"/>
<path d="M202.3 68.5596C202.322 69.2828 202.787 69.8557 203.339 69.8393C203.891 69.8229 204.321 69.2234 204.3 68.5002C204.278 67.7771 203.813 67.2041 203.261 67.2205C202.709 67.2369 202.279 67.8365 202.3 68.5596Z" fill="white"/>
<path d="M189.38 79.8099C189.513 80.8899 189.56 81.9766 189.52 83.0699C189.52 83.1566 189.537 83.4399 189.57 83.9199C189.623 84.6133 189.267 84.9199 188.5 84.8399C188.351 84.8245 188.208 84.7625 188.089 84.6613C187.971 84.5601 187.88 84.4241 187.83 84.2699C187.383 82.8766 187.25 81.4533 187.43 79.9999C187.447 79.8486 187.417 79.6978 187.347 79.5711C187.276 79.4445 187.168 79.3491 187.04 79.2999C185.187 78.6066 183.737 79.4833 182.69 81.9299C182.556 82.245 182.352 82.5256 182.094 82.7507C181.836 82.9758 181.53 83.1397 181.2 83.2299C180.04 83.5499 179.787 82.9166 180.44 81.3299C180.873 80.2833 181.323 79.2433 181.79 78.2099C181.853 78.0769 181.875 77.9277 181.853 77.7804C181.832 77.633 181.768 77.494 181.67 77.3799C179.457 74.8466 178.253 72.1166 178.06 69.1899C177.98 67.9433 178.453 67.5033 179.48 67.8699C179.618 67.9169 179.746 68.0005 179.857 68.1145C179.968 68.2286 180.057 68.3704 180.12 68.5299C180.48 69.4499 180.803 70.3833 181.09 71.3299C181.477 72.5899 181.853 73.4966 182.22 74.0499C183.373 75.8099 184.967 76.8533 187 77.1799C188.733 77.4666 190.31 77.1299 191.73 76.1699C193.183 75.1899 194.22 73.7999 194.84 71.9999C194.967 71.6266 195.143 71.3433 195.37 71.1499C196.37 70.2566 196.687 70.6433 196.32 72.3099C195.987 73.8166 195.277 75.3033 194.19 76.7699C194.151 76.8225 194.123 76.8825 194.108 76.9465C194.092 77.0105 194.09 77.077 194.102 77.1423C194.113 77.2076 194.137 77.2702 194.173 77.3265C194.209 77.3828 194.255 77.4315 194.31 77.4699C195.423 78.2499 196.447 79.0566 197.38 79.8899C199.06 81.3899 198.87 82.1566 196.81 82.1899C196.478 82.1965 196.161 82.078 195.93 81.8599L193.04 79.1699C192.895 79.0349 192.742 78.9293 192.593 78.8629C192.445 78.7965 192.306 78.7714 192.19 78.7899L189.78 79.1499C189.654 79.169 189.542 79.2486 189.467 79.3719C189.392 79.4951 189.361 79.6523 189.38 79.8099Z" fill="#161515"/>
<path d="M212.47 72.1699C213.442 72.1699 214.23 71.382 214.23 70.4099C214.23 69.4379 213.442 68.6499 212.47 68.6499C211.498 68.6499 210.71 69.4379 210.71 70.4099C210.71 71.382 211.498 72.1699 212.47 72.1699Z" fill="white"/>
<path d="M66.0401 79.3899C64.6534 78.6299 63.7868 77.8266 63.4401 76.9799C62.9134 75.7199 63.3234 74.9699 64.6701 74.7299C65.9368 74.5099 66.9934 74.0599 67.8401 73.3799C69.0334 72.4266 69.6534 72.5299 69.7001 73.6899C69.7133 73.9669 69.6033 74.2862 69.3901 74.5899C68.5834 75.7299 68.1001 76.9999 67.9401 78.3999C67.9167 78.6104 67.8419 78.8118 67.7223 78.9865C67.6026 79.1612 67.4418 79.3037 67.2541 79.4016C67.0663 79.4994 66.8573 79.5495 66.6456 79.5475C66.4339 79.5454 66.226 79.4913 66.0401 79.3899Z" fill="#CACCB5"/>
<path d="M148.212 77.0544C148.17 77.5552 148.425 77.986 148.782 78.0166C149.14 78.0473 149.465 77.6662 149.508 77.1654C149.551 76.6647 149.295 76.2339 148.938 76.2032C148.58 76.1726 148.255 76.5537 148.212 77.0544Z" fill="#E7D6D0"/>
<path d="M139.75 79.2099C138.663 79.9433 138.413 80.9699 139 82.2899C132.927 80.7499 127.76 80.4033 123.5 81.2499C119.207 82.0966 115.603 84.6333 112.69 88.8599C112.157 89.6333 111.647 90.1866 111.16 90.5199C109.593 91.6133 108.843 91.2033 108.91 89.2899C108.93 88.6433 109.133 87.9966 109.52 87.3499C112.7 82.0566 117.11 78.7733 122.75 77.4999C128.177 76.2733 133.843 76.8433 139.75 79.2099Z" fill="#36322C"/>
<path d="M139.75 79.2099C142.003 79.8366 144.607 80.9966 147.56 82.6899C149.2 83.6299 150.403 84.7666 151.17 86.0999C151.437 86.5599 151.537 87.0166 151.47 87.4699C151.323 88.5166 150.68 88.5999 149.54 87.7199C146.353 85.2799 142.84 83.4699 139 82.2899C138.413 80.9699 138.663 79.9433 139.75 79.2099Z" fill="#161515"/>
<path d="M207.5 80.7299C207.433 80.4633 207.443 80.1999 207.53 79.9399C207.657 79.5599 207.837 79.5366 208.07 79.8699C208.55 80.5566 208.52 81.3366 207.98 82.2099C206.687 84.3166 207.64 85.7499 210.84 86.5099C211.118 86.5763 211.373 86.7164 211.577 86.9154C211.782 87.1144 211.928 87.3648 212 87.6399C212.293 88.7066 210.98 88.3166 208.06 86.4699C207.688 86.2334 207.369 85.9229 207.122 85.5581C206.876 85.1933 206.709 84.7819 206.63 84.3499C206.477 83.5299 206.733 82.6133 207.4 81.5999C207.472 81.4903 207.519 81.356 207.536 81.2059C207.553 81.0559 207.541 80.8936 207.5 80.7299Z" fill="#E7D6D0"/>
<path d="M70.1301 86.3699C71.7901 85.9233 72.2701 86.4833 71.5701 88.0499C70.9168 89.5033 69.7468 90.4166 68.0601 90.7899C67.9179 90.8212 67.7699 90.8153 67.6306 90.7729C67.4913 90.7305 67.3656 90.6531 67.2657 90.5481C67.1659 90.4432 67.0953 90.3145 67.061 90.1746C67.0267 90.0346 67.0298 89.8883 67.0701 89.7499C67.5834 87.9099 68.6034 86.7833 70.1301 86.3699Z" fill="#CACCB5"/>
<path d="M230.862 90.1039C231.514 90.8912 232.466 91.1783 232.989 90.7453C233.513 90.3123 233.409 89.3232 232.758 88.5359C232.107 87.7487 231.154 87.4615 230.631 87.8945C230.107 88.3275 230.211 89.3167 230.862 90.1039Z" fill="#D2D3C3"/>
<path d="M219.809 90.3352C220.472 90.1614 220.888 89.5615 220.739 88.9952C220.591 88.429 219.934 88.1108 219.271 88.2846C218.609 88.4584 218.192 89.0584 218.341 89.6246C218.489 90.1909 219.147 90.509 219.809 90.3352Z" fill="#E7D6D0"/>
<path d="M106.33 96.3799C104.73 94.4733 103.113 93.2999 101.48 92.8599C101.106 92.7566 100.811 92.593 100.65 92.3999C100.183 91.8466 100.233 91.3766 100.8 90.9899C100.904 90.9209 101.04 90.8907 101.19 90.9031C101.341 90.9156 101.501 90.97 101.65 91.0599L106.31 93.8999C107.018 94.3283 107.544 94.8474 107.81 95.3799C108.337 96.4133 108.3 96.9466 107.7 96.9799C107.442 96.9923 107.185 96.9446 106.947 96.8406C106.709 96.7365 106.498 96.5789 106.33 96.3799Z" fill="#CACCB5"/>
<path d="M35.0601 91.6899C36.3201 92.3233 36.3634 93.5499 35.1901 95.3699C35.1194 95.4793 35.0224 95.5692 34.908 95.6315C34.7935 95.6938 34.6654 95.7264 34.5351 95.7264C34.4048 95.7264 34.2766 95.6938 34.1622 95.6315C34.0478 95.5692 33.9508 95.4793 33.8801 95.3699C32.3801 93.0499 30.5201 92.6166 28.3001 94.0699C27.3801 94.6766 27.0634 94.4466 27.3501 93.3799C27.6168 92.3733 28.2801 91.8233 29.3401 91.7299C30.4801 91.6299 31.0768 91.5733 31.1301 91.5599C32.9234 91.2266 34.2334 91.2699 35.0601 91.6899Z" fill="#CACCB5"/>
<path d="M69.8031 94.5109C69.5488 95.2059 69.7084 95.9032 70.1596 96.0683C70.6108 96.2335 71.1828 95.8039 71.4371 95.1089C71.6914 94.4139 71.5318 93.7167 71.0806 93.5515C70.6294 93.3864 70.0574 93.8159 69.8031 94.5109Z" fill="#36322C"/>
<path d="M75.4454 96.0671C75.5384 96.9237 76.0144 97.5745 76.5086 97.5208C77.0027 97.4671 77.3278 96.7293 77.2348 95.8727C77.1417 95.0162 76.6657 94.3653 76.1716 94.419C75.6774 94.4727 75.3523 95.2106 75.4454 96.0671Z" fill="#36322C"/>
<path d="M82.6801 95.7799C83.5268 96.6333 83.4068 97.0999 82.3201 97.1799C82.1615 97.1915 82.0033 97.1592 81.8636 97.0867C81.724 97.0142 81.6084 96.9045 81.5301 96.7699C81.1234 96.0766 81.2201 95.6533 81.8201 95.4999C81.9624 95.4632 82.117 95.4697 82.2681 95.5189C82.4192 95.5681 82.5613 95.6582 82.6801 95.7799Z" fill="#36322C"/>
<path d="M16.6001 100.51C16.0868 101.103 15.4934 101.623 14.8201 102.07C14.4401 102.323 14.1268 102.367 13.8801 102.2C13.775 102.131 13.706 102.01 13.6858 101.857C13.6656 101.705 13.6955 101.532 13.7701 101.37C14.1368 100.563 14.4934 99.7499 14.8401 98.9299C15.7201 96.8166 17.2734 95.8233 19.5001 95.9499C19.5623 95.9533 19.623 95.9707 19.6774 96.001C19.7319 96.0313 19.7787 96.0736 19.8144 96.1247C19.8501 96.1758 19.8736 96.2343 19.8833 96.2959C19.8929 96.3574 19.8884 96.4204 19.8701 96.4799C19.5634 97.4333 19.0301 98.2366 18.2701 98.8899C17.5701 99.4899 17.0134 100.03 16.6001 100.51Z" fill="#D2D3C3"/>
<path d="M56.7501 117.71L58.75 115.79C61.99 115.15 63.9067 113.387 64.5 110.5C64.8334 108.893 64.81 107.147 64.43 105.26C64.0567 103.387 63.3 101.87 62.16 100.71C59.78 98.2966 56.7467 97.6633 53.06 98.81C51.2734 99.37 50.0734 100.517 49.46 102.25L46.9601 105.25C46.1601 104.23 46.1534 103.043 46.9401 101.69C48.5334 98.9366 50.6168 97.1799 53.1901 96.4199C55.4234 95.7599 57.9201 95.9866 60.6801 97.0999C65.3134 98.9866 68.2534 102.37 69.5001 107.25C69.9601 109.057 69.4434 111.107 67.9501 113.4C65.3368 117.433 61.6034 118.87 56.7501 117.71Z" fill="#FDE8DF"/>
<path d="M200.139 97.0205L200.077 97.0707C199.789 97.3031 199.744 97.725 199.976 98.0129L201.659 100.099C201.891 100.387 202.313 100.432 202.601 100.199L202.663 100.149C202.951 99.9168 202.996 99.4949 202.764 99.2069L201.081 97.1212C200.849 96.8333 200.427 96.7882 200.139 97.0205Z" fill="#161515"/>
<path d="M194.2 100.07C193.213 99.5099 192.913 98.7199 193.3 97.6999C193.322 97.6385 193.357 97.5826 193.403 97.5361C193.449 97.4897 193.505 97.4538 193.566 97.431C193.628 97.4082 193.695 97.3989 193.761 97.4039C193.827 97.4089 193.892 97.428 193.95 97.4599C194.737 97.8999 195.163 98.5533 195.23 99.4199C195.29 100.28 194.947 100.497 194.2 100.07Z" fill="#161515"/>
<path d="M188.19 100.03C187.743 99.5033 187.67 98.8699 187.97 98.1299C188.032 97.9756 188.133 97.843 188.259 97.7488C188.385 97.6545 188.532 97.6027 188.68 97.5999C189.42 97.5999 189.667 98.2966 189.42 99.6899C189.253 100.677 188.843 100.79 188.19 100.03Z" fill="#161515"/>
<path d="M208.96 107.25C209.073 107.483 209.233 107.643 209.44 107.73C209.585 107.793 209.71 107.881 209.799 107.984C209.887 108.087 209.937 108.2 209.94 108.31C210.013 111.197 210.933 113.583 212.7 115.47C214.387 117.27 216.55 118.123 219.19 118.03C223.777 117.857 226.463 115.013 227.25 109.5C227.557 107.333 227.293 105.45 226.46 103.85C225.693 102.37 224.307 101.293 222.3 100.62C217.24 98.9067 213.077 100.387 209.81 105.06C209.483 105.527 209.06 105.673 208.54 105.5C208.213 105.087 208.117 104.67 208.25 104.25C209.71 99.7099 212.71 97.4599 217.25 97.4999C219.27 97.5199 221.403 98.0099 223.65 98.9699C225.91 99.9366 227.707 101.13 229.04 102.55C232.133 105.85 232.517 109.813 230.19 114.44C228.47 117.86 225.493 120.06 221.26 121.04C216.56 122.127 212.87 120.55 210.19 116.31C208.223 113.21 207.813 110.19 208.96 107.25Z" fill="#FDE8DF"/>
<path d="M58.75 115.79C57.29 115.523 55.8668 115.14 54.4801 114.64C53.0068 114.107 51.8935 113.24 51.1401 112.04C49.3201 109.127 48.76 105.863 49.46 102.25C50.0734 100.517 51.2734 99.37 53.06 98.81C56.7467 97.6633 59.78 98.2966 62.16 100.71C63.3 101.87 64.0567 103.387 64.43 105.26C64.81 107.147 64.8334 108.893 64.5 110.5C63.9067 113.387 61.99 115.15 58.75 115.79Z" fill="#F9C0C0"/>
<path d="M175.46 99.2599C175.687 99.0266 175.95 98.9599 176.25 99.0599C176.38 99.1059 176.487 99.2065 176.548 99.3418C176.609 99.477 176.62 99.637 176.58 99.7899C176.313 100.717 175.933 100.823 175.44 100.11C175.349 99.9754 175.302 99.8186 175.305 99.6646C175.309 99.5106 175.363 99.3682 175.46 99.2599Z" fill="#CACCB5"/>
<path d="M208.96 107.25C209.18 106.557 209.04 105.973 208.54 105.5C209.06 105.673 209.483 105.527 209.81 105.06C213.077 100.387 217.24 98.9067 222.3 100.62C224.307 101.293 225.693 102.37 226.46 103.85C227.293 105.45 227.557 107.333 227.25 109.5C226.463 115.013 223.777 117.857 219.19 118.03C216.55 118.123 214.387 117.27 212.7 115.47C210.933 113.583 210.013 111.197 209.94 108.31C209.937 108.2 209.887 108.087 209.799 107.984C209.71 107.881 209.585 107.793 209.44 107.73C209.233 107.643 209.073 107.483 208.96 107.25Z" fill="#F8BAB9"/>
<path d="M252.628 101.253C252.222 101.81 252.246 102.521 252.684 102.84C253.121 103.159 253.805 102.965 254.212 102.407C254.619 101.85 254.594 101.139 254.157 100.82C253.719 100.501 253.035 100.695 252.628 101.253Z" fill="#FDE8DF"/>
<path d="M49.46 102.25C48.76 105.863 49.3201 109.127 51.1401 112.04C51.8935 113.24 53.0068 114.107 54.4801 114.64C55.8668 115.14 57.29 115.523 58.75 115.79L56.7501 117.71L53.2201 118.56C53.0394 118.606 52.8641 118.623 52.7102 118.609C52.5564 118.595 52.4291 118.551 52.3401 118.48C51.7601 118.027 51.8368 117.64 52.5701 117.32C52.8701 117.193 53.0801 117.057 53.2001 116.91C53.5934 116.423 53.4068 116.193 52.6401 116.22C52.4801 116.227 52.2334 116.293 51.9001 116.42C51.1001 116.733 50.6901 116.28 50.6701 115.06C50.6698 114.913 50.6283 114.769 50.5504 114.645C50.4726 114.521 50.3615 114.422 50.2301 114.36C48.8568 113.687 47.6768 112.497 46.6901 110.79C46.5616 110.578 46.5114 110.241 46.5501 109.85L46.9601 105.25L49.46 102.25Z" fill="#E7D6D0"/>
<path d="M155.06 112.06C155.58 112.26 155.733 112.597 155.52 113.07C155.463 113.193 155.356 113.288 155.22 113.334C155.084 113.381 154.93 113.376 154.79 113.32C152.25 112.3 150.173 111.257 148.56 110.19C146.233 108.643 143.963 107.513 141.75 106.8C141.37 106.673 140.693 106.593 139.72 106.56C138.213 106.5 137.913 105.663 138.82 104.05C138.922 103.868 139.067 103.714 139.241 103.601C139.416 103.487 139.615 103.418 139.823 103.398C140.03 103.378 140.239 103.409 140.432 103.488C140.625 103.567 140.796 103.691 140.93 103.85C141.603 104.637 142.453 105.287 143.48 105.8C144.987 106.553 145.767 106.947 145.82 106.98C148.567 108.587 151.333 110.157 154.12 111.69C154.193 111.73 154.507 111.853 155.06 112.06Z" fill="#CACCB5"/>
<path d="M31.7801 106.13C33.9001 108.003 33.9501 109.873 31.9301 111.74C31.6901 111.967 31.5168 112.23 31.4101 112.53C30.6434 114.837 29.4034 116.39 27.6901 117.19C27.0034 117.51 26.6134 117.363 26.5201 116.75C26.4985 116.62 26.5182 116.475 26.5774 116.327C26.6367 116.179 26.7337 116.032 26.8601 115.9C27.6268 115.093 28.0968 114.157 28.2701 113.09C28.5301 111.463 28.7268 110.48 28.8601 110.14C29.3601 108.913 29.9434 107.65 30.6101 106.35C30.6616 106.248 30.7358 106.16 30.8273 106.091C30.9187 106.023 31.0248 105.976 31.1376 105.955C31.2504 105.934 31.3669 105.939 31.4782 105.969C31.5896 105.999 31.6928 106.054 31.7801 106.13Z" fill="#D2D3C3"/>
<path d="M80.5444 108.508C80.6055 109.206 81.1546 109.729 81.7708 109.675C82.387 109.621 82.8369 109.011 82.7758 108.312C82.7147 107.614 82.1656 107.091 81.5494 107.145C80.9332 107.199 80.4833 107.809 80.5444 108.508Z" fill="#E7D6D0"/>
<path d="M165.5 110.07C165.925 110.07 166.27 109.725 166.27 109.3C166.27 108.875 165.925 108.53 165.5 108.53C165.075 108.53 164.73 108.875 164.73 109.3C164.73 109.725 165.075 110.07 165.5 110.07Z" fill="#E7D6D0"/>
<path d="M187.197 113.125C187.112 113.949 187.626 114.678 188.346 114.752C189.066 114.826 189.718 114.219 189.803 113.395C189.888 112.571 189.374 111.842 188.654 111.768C187.935 111.693 187.282 112.301 187.197 113.125Z" fill="white"/>
<path d="M199.38 115.81C195.36 118.137 195.07 117.703 198.51 114.51C199.77 113.343 200.243 113.53 199.93 115.07C199.899 115.224 199.833 115.37 199.738 115.497C199.644 115.625 199.521 115.732 199.38 115.81Z" fill="#FDE8DF"/>
<path d="M93.9001 117.6C93.0534 118.107 92.6068 117.76 92.5601 116.56C92.5537 116.412 92.5955 116.265 92.6798 116.139C92.7641 116.014 92.8866 115.916 93.0301 115.86C94.1101 115.44 94.5701 115.763 94.4101 116.83C94.388 116.989 94.3306 117.141 94.2423 117.274C94.1541 117.407 94.0371 117.519 93.9001 117.6Z" fill="#E7D6D0"/>
<path d="M101.58 119.11C101.51 119.07 101.451 119.014 101.405 118.948C101.359 118.881 101.329 118.806 101.317 118.726C101.304 118.646 101.31 118.565 101.333 118.488C101.356 118.411 101.396 118.34 101.45 118.28C102.29 117.36 102.84 117.413 103.1 118.44C103.143 118.619 103.142 118.799 103.097 118.954C103.052 119.109 102.966 119.23 102.85 119.3C102.537 119.48 102.113 119.417 101.58 119.11Z" fill="#FDE8DF"/>
<path d="M104.35 127.11C105.09 126.363 106.037 125.993 107.19 126C108.83 126.013 109.133 126.807 108.1 128.38C107.44 129.387 106.487 129.793 105.24 129.6C104.914 129.554 104.591 129.599 104.31 129.73L101.18 131.19C100.093 131.697 99.9668 131.53 100.8 130.69L104.35 127.11Z" fill="#D2D3C3"/>
<path d="M58.1601 128.81C58.2201 128.45 58.4801 128.267 58.9401 128.26C59.0893 128.26 59.2366 128.306 59.3644 128.393C59.4921 128.48 59.5948 128.604 59.6601 128.75C60.0401 129.623 59.7034 129.873 58.6501 129.5C58.4917 129.443 58.3563 129.343 58.267 129.217C58.1777 129.091 58.1399 128.947 58.1601 128.81Z" fill="#E7D6D0"/>
<path d="M135.311 130.329C134.887 130.928 134.923 131.684 135.391 132.015C135.86 132.347 136.584 132.13 137.009 131.531C137.433 130.931 137.397 130.176 136.929 129.844C136.46 129.513 135.736 129.729 135.311 130.329Z" fill="#FDE8DF"/>
<path d="M144.77 140.64C145.843 140.94 145.917 141.403 144.99 142.03C143.51 143.03 141.94 143.067 140.28 142.14C139.707 141.82 139.2 141.597 138.76 141.47C136.213 140.71 136.11 140.03 138.45 139.43C138.957 139.303 139.487 139.3 140.04 139.42C141.46 139.747 143.037 140.153 144.77 140.64Z" fill="#D2D3C3"/>
<path d="M243.09 167.1C243.118 167.034 243.161 166.976 243.215 166.928C243.269 166.881 243.333 166.847 243.402 166.828C243.471 166.809 243.544 166.805 243.614 166.818C243.685 166.83 243.752 166.858 243.81 166.9C245.983 168.487 247.567 170.597 248.56 173.23C249.713 176.27 250.873 179.313 252.04 182.36C253.26 185.547 253.89 187.827 253.93 189.2C254.023 192.407 252.52 194.57 249.42 195.69C247.853 196.25 246.403 196.287 245.07 195.8C243.543 195.253 242.373 194.217 241.56 192.69C239.833 189.443 239.1 185.883 239.36 182.01C239.707 176.943 240.95 171.973 243.09 167.1Z" fill="#D9C0BC"/>
<path d="M37.93 170.85C39.6633 171.91 40.8233 173.36 41.41 175.2C41.87 176.64 42.2967 178.093 42.69 179.56C43.1567 181.307 43.38 182.79 43.36 184.01C43.2933 188.243 41.5533 191.72 38.14 194.44C37.8881 194.646 37.5762 194.756 37.26 194.75C32.2267 194.69 29.8933 192.023 30.26 186.75C30.4667 183.69 30.98 180.693 31.8 177.76C32.0667 176.807 32.6167 175.79 33.45 174.71C34.2367 173.683 34.85 172.673 35.29 171.68C35.8567 170.4 36.7367 170.123 37.93 170.85Z" fill="#D9C0BC"/>
<path d="M97.14 172.76C98.9533 174.347 100.427 176.24 101.56 178.44C102.58 180.4 103.563 183.33 104.51 187.23C105.17 189.95 105.18 192.13 104.54 193.77C103.927 195.337 102.933 196.613 101.56 197.6C100.267 198.533 98.7933 198.853 97.14 198.56C93.4533 197.907 91.3433 195.533 90.81 191.44C90.3166 187.633 90.7666 183.68 92.16 179.58C92.4533 178.707 93.0533 177.623 93.96 176.33C94.68 175.303 95.3 174.21 95.82 173.05C95.8735 172.93 95.9545 172.824 96.0565 172.741C96.1584 172.658 96.2784 172.6 96.4068 172.572C96.5352 172.544 96.6684 172.546 96.7958 172.579C96.9231 172.611 97.041 172.673 97.14 172.76ZM99.81 194.19C98.93 194.243 98.7 194.57 99.12 195.17C99.2079 195.303 99.3297 195.409 99.4723 195.477C99.615 195.546 99.7731 195.575 99.93 195.56C100.59 195.507 100.797 195.193 100.55 194.62C100.491 194.485 100.389 194.372 100.256 194.295C100.124 194.218 99.9683 194.181 99.81 194.19Z" fill="#D9C0BC"/>
<path d="M167 181.46C165.087 182.473 164.527 184.023 165.32 186.11C165.84 187.477 165.547 188.24 164.44 188.4C164.178 188.438 163.94 188.57 163.767 188.77C163.594 188.97 163.5 189.226 163.5 189.49C163.5 191.077 163.427 192.317 163.28 193.21C162.96 195.19 163.617 196.607 165.25 197.46C163.85 198.107 162.58 198.057 161.44 197.31C159.987 196.357 158.92 195.087 158.24 193.5C157.753 192.373 157.557 190.797 157.65 188.77C157.823 184.997 158.107 182.657 158.5 181.75C159.427 179.63 160.363 177.9 161.31 176.56C162.223 175.28 163.33 174.837 164.63 175.23C165.657 175.537 166.39 176.24 166.83 177.34C167.337 178.613 167.393 179.987 167 181.46Z" fill="#D9C0BC"/>
<path d="M167 181.46C168.067 183.393 168.65 186.073 168.75 189.5C168.857 193.12 167.69 195.773 165.25 197.46C163.617 196.607 162.96 195.19 163.28 193.21C163.427 192.317 163.5 191.077 163.5 189.49C163.5 189.226 163.594 188.97 163.767 188.77C163.94 188.57 164.178 188.438 164.44 188.4C165.547 188.24 165.84 187.477 165.32 186.11C164.527 184.023 165.087 182.473 167 181.46Z" fill="#E7D6D0"/>
<path d="M100.55 194.62C100.797 195.193 100.59 195.507 99.93 195.56C99.7731 195.575 99.615 195.546 99.4723 195.477C99.3297 195.409 99.2079 195.303 99.12 195.17C98.7 194.57 98.93 194.243 99.81 194.19C99.9683 194.181 100.124 194.218 100.256 194.295C100.389 194.372 100.491 194.485 100.55 194.62Z" fill="#FDE8DF"/>
</g>
<defs>
<clipPath id="clip0_9_59">
<rect width="271" height="198" fill="white"/>
</clipPath>
</defs>
</svg>
