<?xml version="1.0" encoding="UTF-8" standalone="no"?>
<!DOCTYPE svg PUBLIC "-//W3C//DTD SVG 1.1//EN" "http://www.w3.org/Graphics/SVG/1.1/DTD/svg11.dtd">
<svg xmlns="http://www.w3.org/2000/svg" version="1.1" viewBox="0.00 0.00 1364.00 1084.00">
<g stroke-width="2.00" fill="none" stroke-linecap="butt">
<path stroke="#696a70" vector-effect="non-scaling-stroke" d="
  M 567.54 226.87
  Q 583.33 245.46 593.74 267.76
  Q 593.79 267.87 593.62 268.00
  Q 593.42 268.14 593.28 267.93
  Q 556.56 208.13 487.75 192.96"
/>
<path stroke="#5f6066" vector-effect="non-scaling-stroke" d="
  M 487.75 192.96
  C 414.49 180.13 345.80 222.05 323.19 292.81
  A 2.10 2.10 0.0 0 0 324.16 295.28
  Q 329.50 298.29 335.75 297.46"
/>
<path stroke="#696a70" vector-effect="non-scaling-stroke" d="
  M 335.75 297.46
  L 358.44 305.72
  Q 359.51 306.10 358.38 306.04
  Q 356.42 305.93 352.82 305.41
  Q 330.08 302.12 304.00 302.79"
/>
<path stroke="#5f6066" vector-effect="non-scaling-stroke" d="
  M 304.00 302.79
  Q 239.51 306.99 195.46 353.50"
/>
<path stroke="#52535a" vector-effect="non-scaling-stroke" d="
  M 195.46 353.50
  Q 146.25 403.62 147.29 474.75"
/>
<path stroke="#5f6066" vector-effect="non-scaling-stroke" d="
  M 147.29 474.75
  C 148.59 509.01 163.22 551.63 186.34 577.93
  Q 235.88 634.28 311.24 639.47
  Q 313.73 639.64 314.57 640.94
  C 329.64 664.10 354.15 681.52 381.76 685.72
  Q 386.99 686.51 399.93 685.58
  Q 400.47 685.54 400.79 685.97
  Q 406.10 693.04 409.87 697.39
  C 452.88 747.20 525.71 751.20 574.87 708.43
  A 2.83 2.82 -51.6 0 1 578.04 708.06
  C 626.05 733.27 673.08 727.84 715.99 695.95
  A 1.23 1.22 -45.9 0 1 717.42 695.92
  C 750.73 718.97 784.27 734.96 825.96 724.43
  Q 884.57 709.62 905.71 653.25"
/>
<path stroke="#52535a" vector-effect="non-scaling-stroke" d="
  M 905.71 653.25
  C 916.73 628.34 917.24 604.95 911.84 578.47
  A 0.23 0.23 0.0 0 1 912.28 578.34
  Q 922.38 604.10 919.04 630.75"
/>
<path stroke="#5f6066" vector-effect="non-scaling-stroke" d="
  M 919.04 630.75
  L 913.92 652.56
  A 1.78 1.77 18.0 0 0 914.97 654.61
  Q 915.94 655.02 917.41 654.61
  Q 951.41 645.38 974.70 619.17
  C 975.66 618.09 977.29 616.98 978.73 616.68
  C 1048.39 602.50 1093.46 554.59 1102.96 484.00"
/>
<path stroke="#52535a" vector-effect="non-scaling-stroke" d="
  M 1102.96 484.00
  Q 1105.70 456.01 1096.00 429.71"
/>
<path stroke="#5f6066" vector-effect="non-scaling-stroke" d="
  M 1096.00 429.71
  C 1073.75 359.07 1007.00 318.69 933.86 328.84
  A 1.31 1.31 0.0 0 1 932.37 327.58
  C 931.28 285.38 913.33 248.67 872.82 231.87
  C 844.00 219.92 815.16 219.77 788.13 236.02
  Q 786.53 236.98 785.71 235.30
  C 765.98 194.73 731.60 165.79 686.50 158.24
  C 635.85 149.76 586.57 174.39 558.73 216.81
  Q 557.83 218.18 559.05 219.27
  L 567.54 226.87"
/>
<path stroke="#9da0ad" vector-effect="non-scaling-stroke" d="
  M 1096.00 429.71
  L 1089.08 431.31
  A 1.98 1.98 0.0 0 0 1087.55 433.21
  C 1087.40 444.01 1087.07 454.33 1084.30 465.57
  C 1079.24 486.17 1068.99 506.18 1056.62 523.35
  C 1051.74 530.14 1044.59 533.63 1039.65 540.20
  C 1032.04 550.32 1018.13 556.44 1006.52 560.57
  C 982.17 569.23 929.45 581.12 908.27 560.82
  A 1.63 1.62 23.6 0 0 905.52 561.89
  C 903.55 594.29 892.19 627.14 868.70 649.71
  C 824.99 691.70 758.35 690.04 713.67 650.50
  C 712.10 649.10 710.72 648.56 709.07 650.07
  C 673.61 682.65 630.08 691.17 585.53 670.92
  Q 580.13 668.47 574.91 666.03
  A 2.16 2.16 0.0 0 0 572.86 666.16
  C 524.03 696.85 461.53 693.21 424.66 645.68
  C 423.81 644.59 422.82 643.85 421.50 643.91
  C 386.54 645.50 353.91 636.10 337.65 602.44
  A 2.87 2.86 75.9 0 0 334.95 600.82
  Q 288.87 602.84 248.85 579.13
  C 237.97 572.68 229.63 562.59 220.55 554.08
  Q 210.70 544.85 206.46 539.91
  C 172.32 500.21 163.12 447.47 180.75 397.29
  C 183.52 389.42 187.57 380.99 191.21 372.91
  C 193.24 368.39 196.94 357.96 195.46 353.50"
/>
<path stroke="#b4b8c3" vector-effect="non-scaling-stroke" d="
  M 304.00 302.79
  C 303.89 303.53 303.73 304.06 303.02 304.45
  Q 282.92 315.69 264.54 329.48
  C 250.99 339.65 240.32 352.16 231.06 366.04
  C 207.33 401.62 203.03 442.51 214.44 483.40
  C 217.85 495.61 224.71 506.98 228.19 519.91
  C 230.16 527.24 231.84 531.53 236.81 536.21
  C 238.82 538.10 242.00 539.01 243.36 542.62
  C 246.41 550.68 251.08 555.09 260.29 554.88
  C 261.88 554.84 263.68 555.70 264.77 556.47
  Q 291.03 574.85 322.29 582.07
  Q 329.80 583.80 337.35 585.39
  C 346.95 587.41 354.75 596.53 363.63 600.82
  Q 403.22 619.94 447.06 610.23
  Q 447.94 610.04 448.93 609.96
  Q 449.46 609.93 449.84 610.29
  C 480.90 639.45 516.15 651.35 558.50 641.01
  Q 563.02 639.91 570.18 637.86
  C 579.27 635.27 585.32 639.19 593.91 642.29
  C 633.01 656.43 667.80 648.83 700.93 625.20
  A 2.36 2.34 45.7 0 1 703.71 625.24
  C 725.53 641.80 749.85 651.32 777.19 651.83
  C 816.71 652.57 852.49 632.38 872.09 598.31
  C 884.29 577.12 885.11 555.37 886.80 531.68
  A 0.78 0.78 0.0 0 1 887.98 531.06
  C 904.57 540.97 923.16 554.92 943.30 553.61
  Q 952.77 553.00 980.47 549.28
  C 990.90 547.88 1003.33 544.84 1011.39 538.39
  Q 1031.83 522.06 1044.43 497.25
  C 1077.10 433.00 1040.75 358.34 970.47 344.51
  Q 950.96 340.67 929.68 342.90
  C 926.14 343.27 922.82 341.79 923.74 337.75
  C 924.99 332.23 925.39 329.52 923.85 323.85
  C 918.53 304.35 910.14 285.94 896.67 270.84
  C 880.44 252.63 852.13 242.11 827.70 243.62
  Q 812.81 244.54 795.78 248.13
  C 793.08 248.70 782.05 251.58 780.53 248.21
  C 765.41 214.67 741.54 189.86 705.35 180.43
  C 680.01 173.82 648.90 173.64 624.30 183.79
  C 601.51 193.19 586.18 211.62 567.54 226.87"
/>
<path stroke="#b4b8c3" vector-effect="non-scaling-stroke" d="
  M 335.75 297.46
  C 357.31 244.99 399.51 217.82 451.52 201.06
  C 453.49 200.42 454.75 201.33 456.32 201.64
  Q 473.06 204.92 486.46 194.52
  Q 486.88 194.20 486.94 193.68
  Q 487.02 193.03 487.75 192.96"
/>
<path stroke="#9da0ad" vector-effect="non-scaling-stroke" d="
  M 1102.96 484.00
  C 1101.66 479.77 1104.57 474.12 1096.35 476.16
  A 2.40 2.39 -3.7 0 0 1094.54 478.21
  C 1092.13 499.76 1083.85 530.30 1068.08 546.04
  Q 1027.20 586.83 970.26 596.44
  A 2.30 2.27 -74.5 0 0 968.90 597.22
  C 955.40 613.35 942.31 630.16 919.04 630.75"
/>
<path stroke="#9da0ad" vector-effect="non-scaling-stroke" d="
  M 905.71 653.25
  L 904.74 653.53
  Q 904.30 653.65 904.02 654.01
  Q 888.32 673.51 866.78 687.52
  C 819.15 718.51 761.45 710.95 721.58 671.39
  A 2.37 2.36 46.4 0 0 718.33 671.31
  C 711.92 677.10 708.14 683.38 700.47 688.20
  Q 655.50 716.46 603.00 702.40
  C 592.79 699.66 583.08 693.23 573.66 688.41
  C 571.59 687.35 570.18 687.06 568.47 688.71
  C 521.23 734.01 448.85 729.41 410.66 674.68
  C 406.59 668.86 401.97 670.37 396.01 670.16
  C 368.97 669.21 345.80 658.11 328.34 637.40
  C 326.75 635.53 321.41 627.15 318.37 626.25
  Q 304.20 622.08 289.53 620.38
  C 285.21 619.88 280.02 618.46 276.80 616.97
  C 264.58 611.29 250.39 606.01 239.95 600.06
  C 218.14 587.63 197.69 570.55 181.64 552.12
  Q 173.09 542.30 169.03 534.20
  C 165.29 526.74 163.58 515.20 161.93 509.30
  Q 157.00 491.67 148.78 475.25
  Q 148.54 474.78 148.03 474.77
  L 147.29 474.75"
/>
<path stroke="#806215" vector-effect="non-scaling-stroke" d="
  M 712.29 837.00
  L 766.58 766.46
  A 0.68 0.68 0.0 0 0 766.01 765.37
  L 740.71 766.40"
/>
<path stroke="#877731" vector-effect="non-scaling-stroke" d="
  M 740.71 766.40
  L 729.25 765.54"
/>
<path stroke="#806215" vector-effect="non-scaling-stroke" d="
  M 729.25 765.54
  L 750.25 728.40
  A 2.12 2.12 0.0 0 0 749.52 725.55
  L 731.44 714.41"
/>
<path stroke="#877731" vector-effect="non-scaling-stroke" d="
  M 731.44 714.41
  L 718.11 704.85
  A 2.09 2.07 -44.2 0 0 715.72 704.83
  Q 706.88 710.89 698.27 717.20
  C 695.33 719.35 694.62 721.70 693.19 724.94
  Q 681.29 751.95 669.47 778.99
  C 668.81 780.52 668.37 783.00 670.74 783.00
  Q 693.09 782.99 714.97 783.00
  A 1.20 1.20 0.0 0 1 716.09 784.64
  C 701.33 822.00 683.47 858.84 669.08 895.26
  A 0.47 0.47 0.0 0 0 669.90 895.71
  L 712.29 837.00"
/>
<path stroke="#f2c633" vector-effect="non-scaling-stroke" d="
  M 731.44 714.41
  Q 713.37 737.85 701.99 765.77
  A 1.47 1.46 -79.8 0 0 703.39 767.79
  Q 716.20 767.40 729.25 765.54"
/>
<path stroke="#f2c633" vector-effect="non-scaling-stroke" d="
  M 740.71 766.40
  C 729.16 787.78 716.25 808.70 707.45 831.43
  A 1.57 1.57 0.0 0 0 708.42 833.49
  Q 710.91 834.32 712.29 837.00"
/>
<path stroke="#806215" vector-effect="non-scaling-stroke" d="
  M 408.58 935.55
  L 491.06 826.16
  A 0.59 0.59 0.0 0 0 490.57 825.21
  L 470.17 825.90"
/>
<path stroke="#877731" vector-effect="non-scaling-stroke" d="
  M 470.17 825.90
  L 441.46 825.75"
/>
<path stroke="#806215" vector-effect="non-scaling-stroke" d="
  M 441.46 825.75
  Q 471.41 773.28 486.70 747.19
  C 487.93 745.09 487.07 744.12 484.93 743.68
  Q 472.95 741.21 461.38 738.66"
/>
<path stroke="#877731" vector-effect="non-scaling-stroke" d="
  M 461.38 738.66
  Q 438.96 732.85 421.68 718.05
  C 420.12 716.71 418.15 716.17 417.16 718.42
  Q 388.35 783.70 359.62 849.01
  C 359.52 849.22 359.48 849.87 359.49 850.07
  A 0.99 0.99 0.0 0 0 360.48 851.00
  L 421.49 851.00
  A 0.65 0.65 0.0 0 1 422.08 851.92
  Q 394.15 914.49 367.29 977.46
  C 364.08 984.99 360.59 991.84 356.91 998.92
  Q 354.82 1002.93 354.26 1009.22
  Q 354.21 1009.78 354.70 1009.53
  C 357.75 1007.99 360.43 1006.77 362.06 1003.51
  C 374.48 978.64 391.71 957.43 408.58 935.55"
/>
<path stroke="#f2c633" vector-effect="non-scaling-stroke" d="
  M 461.38 738.66
  L 405.99 826.33
  A 1.34 1.33 -68.8 0 0 406.88 828.36
  Q 424.45 831.49 441.46 825.75"
/>
<path stroke="#f2c633" vector-effect="non-scaling-stroke" d="
  M 470.17 825.90
  Q 438.66 875.62 407.02 925.26
  C 406.44 926.18 405.91 927.82 406.00 928.75
  Q 406.33 932.47 408.58 935.55"
/>
<path stroke="#cacdd4" vector-effect="non-scaling-stroke" d="
  M 711.5773 212.4686
  A 48.57 23.28 0.6 0 0 663.2538 188.6813
  A 48.57 23.28 0.6 0 0 614.4427 211.4514
  A 48.57 23.28 0.6 0 0 662.7662 235.2387
  A 48.57 23.28 0.6 0 0 711.5773 212.4686"
/>
<path stroke="#cacdd4" vector-effect="non-scaling-stroke" d="
  M 547.1364 247.6414
  A 65.07 35.04 0.6 0 0 482.4369 211.9219
  A 65.07 35.04 0.6 0 0 417.0036 246.2786
  A 65.07 35.04 0.6 0 0 481.7031 281.9981
  A 65.07 35.04 0.6 0 0 547.1364 247.6414"
/>
<path stroke="#696a70" vector-effect="non-scaling-stroke" d="
  M 486.80 438.34
  C 497.92 446.44 514.98 454.03 529.27 458.87
  A 0.55 0.55 0.0 0 0 529.86 457.99
  Q 528.86 456.86 527.32 455.93
  Q 508.70 444.63 487.52 436.97
  A 0.78 0.78 0.0 0 0 486.80 438.34"
/>
<path stroke="#696a70" vector-effect="non-scaling-stroke" d="
  M 709.0432 437.7220
  A 23.27 2.42 -25.5 0 0 686.9982 445.5557
  A 23.27 2.42 -25.5 0 0 667.0368 457.7580
  A 23.27 2.42 -25.5 0 0 689.0818 449.9243
  A 23.27 2.42 -25.5 0 0 709.0432 437.7220"
/>
<path stroke="#696a70" vector-effect="non-scaling-stroke" d="
  M 510.65 488.53
  A 16.00 16.00 0.0 0 0 494.65 472.53
  A 16.00 16.00 0.0 0 0 478.65 488.53
  A 16.00 16.00 0.0 0 0 494.65 504.53
  A 16.00 16.00 0.0 0 0 510.65 488.53"
/>
<path stroke="#696a70" vector-effect="non-scaling-stroke" d="
  M 714.85 488.56
  A 16.05 16.05 0.0 0 0 698.80 472.51
  A 16.05 16.05 0.0 0 0 682.75 488.56
  A 16.05 16.05 0.0 0 0 698.80 504.61
  A 16.05 16.05 0.0 0 0 714.85 488.56"
/>
<path stroke="#696a70" vector-effect="non-scaling-stroke" d="
  M 471.74 521.25
  A 25.81 20.32 0.0 0 0 445.93 500.93
  A 25.81 20.32 0.0 0 0 420.12 521.25
  A 25.81 20.32 0.0 0 0 445.93 541.57
  A 25.81 20.32 0.0 0 0 471.74 521.25"
/>
<path stroke="#696a70" vector-effect="non-scaling-stroke" d="
  M 775.9694 521.1893
  A 25.89 20.44 -0.4 0 0 749.9373 500.9305
  A 25.89 20.44 -0.4 0 0 724.1906 521.5507
  A 25.89 20.44 -0.4 0 0 750.2227 541.8095
  A 25.89 20.44 -0.4 0 0 775.9694 521.1893"
/>
<path stroke="#696a70" vector-effect="non-scaling-stroke" d="
  M 571.23 569.18
  C 578.93 536.86 619.93 540.04 624.96 571.76
  Q 625.29 573.79 625.68 575.15
  Q 625.82 575.66 626.33 575.80
  Q 629.01 576.58 631.07 575.03
  Q 631.53 574.69 631.48 574.12
  C 628.08 529.84 568.52 527.79 564.26 572.77
  Q 564.12 574.27 566.26 575.65
  Q 566.69 575.92 567.19 575.87
  C 571.40 575.40 570.55 572.02 571.23 569.18"
/>
<path stroke="#773f36" vector-effect="non-scaling-stroke" d="
  M 467.0706 521.7937
  A 21.36 16.69 1.7 0 0 446.2151 504.4773
  A 21.36 16.69 1.7 0 0 424.3694 520.5263
  A 21.36 16.69 1.7 0 0 445.2249 537.8427
  A 21.36 16.69 1.7 0 0 467.0706 521.7937"
/>
<path stroke="#773f36" vector-effect="non-scaling-stroke" d="
  M 771.3384 521.5928
  A 21.51 16.17 0.7 0 0 750.0275 505.1612
  A 21.51 16.17 0.7 0 0 728.3216 521.0672
  A 21.51 16.17 0.7 0 0 749.6325 537.4988
  A 21.51 16.17 0.7 0 0 771.3384 521.5928"
/>
<path stroke="#757577" vector-effect="non-scaling-stroke" d="
  M 944.29 694.45
  C 934.20 698.95 925.22 709.49 921.58 719.87
  C 914.92 738.87 946.52 742.62 947.14 720.68
  Q 947.49 708.24 946.15 695.52
  Q 945.95 693.71 944.29 694.45"
/>
<path stroke="#757577" vector-effect="non-scaling-stroke" d="
  M 271.20 710.83
  Q 271.10 704.88 270.89 699.19
  A 0.86 0.85 -14.5 0 0 269.65 698.46
  Q 251.84 707.40 244.69 725.47
  Q 243.86 727.57 244.49 728.99
  C 247.49 735.85 255.89 742.01 263.61 738.42
  C 274.33 733.44 271.37 719.86 271.20 710.83"
/>
<path stroke="#757577" vector-effect="non-scaling-stroke" d="
  M 329.85 764.72
  L 339.33 768.80
  A 1.08 1.08 0.0 0 0 340.74 768.24
  L 340.79 768.13
  A 21.32 6.03 -66.7 0 0 343.69 746.16
  L 343.30 746.00
  A 21.32 6.03 -66.7 0 0 329.33 763.19
  L 329.28 763.30
  A 1.08 1.08 0.0 0 0 329.85 764.72"
/>
<path stroke="#757577" vector-effect="non-scaling-stroke" d="
  M 542.71 804.72
  C 550.17 798.85 547.27 779.98 546.32 773.05
  A 0.83 0.83 0.0 0 0 545.04 772.47
  C 538.17 776.95 523.42 792.17 525.99 801.40
  C 527.94 808.39 537.96 808.45 542.71 804.72"
/>
<path stroke="#757577" vector-effect="non-scaling-stroke" d="
  M 842.97 798.91
  C 843.36 790.32 843.32 781.29 842.45 772.71
  A 0.64 0.64 0.0 0 0 841.42 772.27
  C 832.89 779.03 807.99 797.66 818.31 810.81
  C 825.09 819.45 837.91 816.63 841.67 806.93
  Q 842.73 804.20 842.97 798.91"
/>
<path stroke="#757577" vector-effect="non-scaling-stroke" d="
  M 285.40 799.85
  C 277.86 804.50 265.91 814.93 262.59 822.89
  C 258.71 832.21 266.85 842.09 276.74 840.71
  C 293.81 838.32 289.56 810.92 286.58 800.31
  A 0.79 0.79 0.0 0 0 285.40 799.85"
/>
<path stroke="#757577" vector-effect="non-scaling-stroke" d="
  M 917.02 840.25
  C 934.32 842.54 932.03 815.99 929.59 806.39
  A 1.83 1.83 0.0 0 0 927.08 805.16
  C 917.44 809.42 900.64 820.82 908.26 833.82
  Q 911.62 839.54 917.02 840.25"
/>
<path stroke="#757577" vector-effect="non-scaling-stroke" d="
  M 620.75 808.32
  C 619.55 800.86 607.45 813.35 608.58 819.95
  C 609.33 824.34 614.60 827.12 617.71 822.43
  Q 621.99 816.00 620.75 808.32"
/>
<path stroke="#757577" vector-effect="non-scaling-stroke" d="
  M 560.70 856.83
  C 552.58 861.19 542.23 869.46 540.49 878.73
  C 539.75 882.72 541.80 890.53 546.86 891.56
  C 566.65 895.59 563.98 868.32 562.29 857.62
  A 1.09 1.09 0.0 0 0 560.70 856.83"
/>
<path stroke="#757577" vector-effect="non-scaling-stroke" d="
  M 784.70 907.29
  L 791.25 910.04
  A 3.27 3.27 0.0 0 0 795.53 908.30
  L 795.66 907.98
  A 20.53 6.57 -67.2 0 0 797.56 886.51
  L 797.10 886.32
  A 20.53 6.57 -67.2 0 0 783.08 902.70
  L 782.95 903.01
  A 3.27 3.27 0.0 0 0 784.70 907.29"
/>
</g>
<path fill="#141213" d="
  M 686.91 719.45
  Q 686.44 719.00 685.48 719.49
  C 651.29 737.17 611.75 733.80 578.12 716.66
  A 1.29 1.28 -51.4 0 0 576.72 716.82
  C 553.85 735.64 528.00 741.83 498.82 744.88
  C 496.79 745.09 495.58 746.32 494.50 748.15
  Q 474.14 782.86 453.73 817.62
  A 0.65 0.64 14.9 0 0 454.30 818.59
  L 504.61 817.88
  A 0.65 0.65 0.0 0 1 505.14 818.92
  C 459.03 880.51 413.47 942.27 365.27 1002.10
  C 362.42 1005.63 355.88 1011.19 354.68 1015.77
  C 353.20 1021.47 348.74 1028.10 344.94 1033.44
  Q 334.80 1047.71 324.09 1061.57
  Q 323.47 1062.38 323.75 1061.40
  C 328.32 1045.69 342.86 1032.12 344.35 1015.86
  Q 344.61 1013.02 345.53 1010.91
  Q 378.44 935.42 411.41 859.88
  A 1.53 1.52 11.8 0 0 410.01 857.75
  L 349.26 857.75
  A 0.84 0.84 0.0 0 1 348.49 856.57
  Q 380.26 784.76 412.00 713.00
  C 412.95 710.86 411.70 709.77 410.09 707.97
  C 407.77 705.36 398.19 693.52 395.36 693.40
  Q 352.05 691.65 322.31 661.67
  C 317.96 657.29 313.80 651.02 309.37 645.87
  Q 308.47 644.82 307.25 644.07
  Q 306.84 643.82 306.35 643.81
  C 201.73 642.17 122.21 540.57 142.15 438.66
  C 158.70 354.09 228.00 299.92 312.71 295.31
  Q 313.23 295.28 313.61 294.93
  Q 314.65 293.94 315.06 292.52
  C 332.46 233.25 382.35 187.69 444.96 183.22
  C 447.65 183.03 450.49 182.49 453.04 182.45
  Q 499.66 181.72 539.77 205.28
  C 543.69 207.59 551.64 214.54 555.31 209.32
  C 615.07 124.27 741.17 132.78 788.34 225.55
  A 2.17 2.17 0.0 0 0 791.15 226.56
  C 861.77 195.31 934.92 243.65 938.85 319.16
  A 1.85 1.84 -3.8 0 0 940.84 320.90
  C 1033.07 313.45 1114.31 386.14 1109.72 480.00
  Q 1108.29 509.20 1094.72 537.23
  C 1071.58 585.00 1032.10 612.43 980.60 623.58
  Q 980.10 623.69 979.76 624.06
  C 961.06 644.51 939.78 657.79 912.26 662.82
  C 911.04 663.04 909.90 663.66 909.30 664.86
  C 881.54 721.08 819.98 747.61 759.88 728.78
  A 2.11 2.11 0.0 0 0 757.42 729.73
  L 742.11 756.01
  A 1.24 1.23 -75.2 0 0 743.19 757.87
  L 780.89 757.38
  A 0.87 0.87 0.0 0 1 781.60 758.77
  L 636.03 952.51
  Q 635.05 953.82 635.70 952.32
  Q 670.11 872.89 704.89 793.71
  Q 705.40 792.55 705.72 791.43
  A 1.42 1.41 -82.6 0 0 704.34 789.63
  L 658.93 790.19
  A 1.27 1.26 -78.9 0 1 657.75 788.43
  L 687.04 720.07
  A 0.56 0.55 33.8 0 0 686.91 719.45
  Z
  M 567.54 226.87
  Q 583.33 245.46 593.74 267.76
  Q 593.79 267.87 593.62 268.00
  Q 593.42 268.14 593.28 267.93
  Q 556.56 208.13 487.75 192.96
  C 414.49 180.13 345.80 222.05 323.19 292.81
  A 2.10 2.10 0.0 0 0 324.16 295.28
  Q 329.50 298.29 335.75 297.46
  L 358.44 305.72
  Q 359.51 306.10 358.38 306.04
  Q 356.42 305.93 352.82 305.41
  Q 330.08 302.12 304.00 302.79
  Q 239.51 306.99 195.46 353.50
  Q 146.25 403.62 147.29 474.75
  C 148.59 509.01 163.22 551.63 186.34 577.93
  Q 235.88 634.28 311.24 639.47
  Q 313.73 639.64 314.57 640.94
  C 329.64 664.10 354.15 681.52 381.76 685.72
  Q 386.99 686.51 399.93 685.58
  Q 400.47 685.54 400.79 685.97
  Q 406.10 693.04 409.87 697.39
  C 452.88 747.20 525.71 751.20 574.87 708.43
  A 2.83 2.82 -51.6 0 1 578.04 708.06
  C 626.05 733.27 673.08 727.84 715.99 695.95
  A 1.23 1.22 -45.9 0 1 717.42 695.92
  C 750.73 718.97 784.27 734.96 825.96 724.43
  Q 884.57 709.62 905.71 653.25
  C 916.73 628.34 917.24 604.95 911.84 578.47
  A 0.23 0.23 0.0 0 1 912.28 578.34
  Q 922.38 604.10 919.04 630.75
  L 913.92 652.56
  A 1.78 1.77 18.0 0 0 914.97 654.61
  Q 915.94 655.02 917.41 654.61
  Q 951.41 645.38 974.70 619.17
  C 975.66 618.09 977.29 616.98 978.73 616.68
  C 1048.39 602.50 1093.46 554.59 1102.96 484.00
  Q 1105.70 456.01 1096.00 429.71
  C 1073.75 359.07 1007.00 318.69 933.86 328.84
  A 1.31 1.31 0.0 0 1 932.37 327.58
  C 931.28 285.38 913.33 248.67 872.82 231.87
  C 844.00 219.92 815.16 219.77 788.13 236.02
  Q 786.53 236.98 785.71 235.30
  C 765.98 194.73 731.60 165.79 686.50 158.24
  C 635.85 149.76 586.57 174.39 558.73 216.81
  Q 557.83 218.18 559.05 219.27
  L 567.54 226.87
  Z
  M 712.29 837.00
  L 766.58 766.46
  A 0.68 0.68 0.0 0 0 766.01 765.37
  L 740.71 766.40
  L 729.25 765.54
  L 750.25 728.40
  A 2.12 2.12 0.0 0 0 749.52 725.55
  L 731.44 714.41
  L 718.11 704.85
  A 2.09 2.07 -44.2 0 0 715.72 704.83
  Q 706.88 710.89 698.27 717.20
  C 695.33 719.35 694.62 721.70 693.19 724.94
  Q 681.29 751.95 669.47 778.99
  C 668.81 780.52 668.37 783.00 670.74 783.00
  Q 693.09 782.99 714.97 783.00
  A 1.20 1.20 0.0 0 1 716.09 784.64
  C 701.33 822.00 683.47 858.84 669.08 895.26
  A 0.47 0.47 0.0 0 0 669.90 895.71
  L 712.29 837.00
  Z
  M 408.58 935.55
  L 491.06 826.16
  A 0.59 0.59 0.0 0 0 490.57 825.21
  L 470.17 825.90
  L 441.46 825.75
  Q 471.41 773.28 486.70 747.19
  C 487.93 745.09 487.07 744.12 484.93 743.68
  Q 472.95 741.21 461.38 738.66
  Q 438.96 732.85 421.68 718.05
  C 420.12 716.71 418.15 716.17 417.16 718.42
  Q 388.35 783.70 359.62 849.01
  C 359.52 849.22 359.48 849.87 359.49 850.07
  A 0.99 0.99 0.0 0 0 360.48 851.00
  L 421.49 851.00
  A 0.65 0.65 0.0 0 1 422.08 851.92
  Q 394.15 914.49 367.29 977.46
  C 364.08 984.99 360.59 991.84 356.91 998.92
  Q 354.82 1002.93 354.26 1009.22
  Q 354.21 1009.78 354.70 1009.53
  C 357.75 1007.99 360.43 1006.77 362.06 1003.51
  C 374.48 978.64 391.71 957.43 408.58 935.55
  Z"
/>
<path fill="#a9adb9" d="
  M 1096.00 429.71
  L 1089.08 431.31
  A 1.98 1.98 0.0 0 0 1087.55 433.21
  C 1087.40 444.01 1087.07 454.33 1084.30 465.57
  C 1079.24 486.17 1068.99 506.18 1056.62 523.35
  C 1051.74 530.14 1044.59 533.63 1039.65 540.20
  C 1032.04 550.32 1018.13 556.44 1006.52 560.57
  C 982.17 569.23 929.45 581.12 908.27 560.82
  A 1.63 1.62 23.6 0 0 905.52 561.89
  C 903.55 594.29 892.19 627.14 868.70 649.71
  C 824.99 691.70 758.35 690.04 713.67 650.50
  C 712.10 649.10 710.72 648.56 709.07 650.07
  C 673.61 682.65 630.08 691.17 585.53 670.92
  Q 580.13 668.47 574.91 666.03
  A 2.16 2.16 0.0 0 0 572.86 666.16
  C 524.03 696.85 461.53 693.21 424.66 645.68
  C 423.81 644.59 422.82 643.85 421.50 643.91
  C 386.54 645.50 353.91 636.10 337.65 602.44
  A 2.87 2.86 75.9 0 0 334.95 600.82
  Q 288.87 602.84 248.85 579.13
  C 237.97 572.68 229.63 562.59 220.55 554.08
  Q 210.70 544.85 206.46 539.91
  C 172.32 500.21 163.12 447.47 180.75 397.29
  C 183.52 389.42 187.57 380.99 191.21 372.91
  C 193.24 368.39 196.94 357.96 195.46 353.50
  Q 239.51 306.99 304.00 302.79
  C 303.89 303.53 303.73 304.06 303.02 304.45
  Q 282.92 315.69 264.54 329.48
  C 250.99 339.65 240.32 352.16 231.06 366.04
  C 207.33 401.62 203.03 442.51 214.44 483.40
  C 217.85 495.61 224.71 506.98 228.19 519.91
  C 230.16 527.24 231.84 531.53 236.81 536.21
  C 238.82 538.10 242.00 539.01 243.36 542.62
  C 246.41 550.68 251.08 555.09 260.29 554.88
  C 261.88 554.84 263.68 555.70 264.77 556.47
  Q 291.03 574.85 322.29 582.07
  Q 329.80 583.80 337.35 585.39
  C 346.95 587.41 354.75 596.53 363.63 600.82
  Q 403.22 619.94 447.06 610.23
  Q 447.94 610.04 448.93 609.96
  Q 449.46 609.93 449.84 610.29
  C 480.90 639.45 516.15 651.35 558.50 641.01
  Q 563.02 639.91 570.18 637.86
  C 579.27 635.27 585.32 639.19 593.91 642.29
  C 633.01 656.43 667.80 648.83 700.93 625.20
  A 2.36 2.34 45.7 0 1 703.71 625.24
  C 725.53 641.80 749.85 651.32 777.19 651.83
  C 816.71 652.57 852.49 632.38 872.09 598.31
  C 884.29 577.12 885.11 555.37 886.80 531.68
  A 0.78 0.78 0.0 0 1 887.98 531.06
  C 904.57 540.97 923.16 554.92 943.30 553.61
  Q 952.77 553.00 980.47 549.28
  C 990.90 547.88 1003.33 544.84 1011.39 538.39
  Q 1031.83 522.06 1044.43 497.25
  C 1077.10 433.00 1040.75 358.34 970.47 344.51
  Q 950.96 340.67 929.68 342.90
  C 926.14 343.27 922.82 341.79 923.74 337.75
  C 924.99 332.23 925.39 329.52 923.85 323.85
  C 918.53 304.35 910.14 285.94 896.67 270.84
  C 880.44 252.63 852.13 242.11 827.70 243.62
  Q 812.81 244.54 795.78 248.13
  C 793.08 248.70 782.05 251.58 780.53 248.21
  C 765.41 214.67 741.54 189.86 705.35 180.43
  C 680.01 173.82 648.90 173.64 624.30 183.79
  C 601.51 193.19 586.18 211.62 567.54 226.87
  L 559.05 219.27
  Q 557.83 218.18 558.73 216.81
  C 586.57 174.39 635.85 149.76 686.50 158.24
  C 731.60 165.79 765.98 194.73 785.71 235.30
  Q 786.53 236.98 788.13 236.02
  C 815.16 219.77 844.00 219.92 872.82 231.87
  C 913.33 248.67 931.28 285.38 932.37 327.58
  A 1.31 1.31 0.0 0 0 933.86 328.84
  C 1007.00 318.69 1073.75 359.07 1096.00 429.71
  Z"
/>
<path fill="#bec2cd" d="
  M 304.00 302.79
  Q 330.08 302.12 352.82 305.41
  Q 356.42 305.93 358.38 306.04
  Q 359.51 306.10 358.44 305.72
  L 335.75 297.46
  C 357.31 244.99 399.51 217.82 451.52 201.06
  C 453.49 200.42 454.75 201.33 456.32 201.64
  Q 473.06 204.92 486.46 194.52
  Q 486.88 194.20 486.94 193.68
  Q 487.02 193.03 487.75 192.96
  Q 556.56 208.13 593.28 267.93
  Q 593.42 268.14 593.62 268.00
  Q 593.79 267.87 593.74 267.76
  Q 583.33 245.46 567.54 226.87
  C 586.18 211.62 601.51 193.19 624.30 183.79
  C 648.90 173.64 680.01 173.82 705.35 180.43
  C 741.54 189.86 765.41 214.67 780.53 248.21
  C 782.05 251.58 793.08 248.70 795.78 248.13
  Q 812.81 244.54 827.70 243.62
  C 852.13 242.11 880.44 252.63 896.67 270.84
  C 910.14 285.94 918.53 304.35 923.85 323.85
  C 925.39 329.52 924.99 332.23 923.74 337.75
  C 922.82 341.79 926.14 343.27 929.68 342.90
  Q 950.96 340.67 970.47 344.51
  C 1040.75 358.34 1077.10 433.00 1044.43 497.25
  Q 1031.83 522.06 1011.39 538.39
  C 1003.33 544.84 990.90 547.88 980.47 549.28
  Q 952.77 553.00 943.30 553.61
  C 923.16 554.92 904.57 540.97 887.98 531.06
  A 0.78 0.78 0.0 0 0 886.80 531.68
  C 885.11 555.37 884.29 577.12 872.09 598.31
  C 852.49 632.38 816.71 652.57 777.19 651.83
  C 749.85 651.32 725.53 641.80 703.71 625.24
  A 2.36 2.34 45.7 0 0 700.93 625.20
  C 667.80 648.83 633.01 656.43 593.91 642.29
  C 585.32 639.19 579.27 635.27 570.18 637.86
  Q 563.02 639.91 558.50 641.01
  C 516.15 651.35 480.90 639.45 449.84 610.29
  Q 449.46 609.93 448.93 609.96
  Q 447.94 610.04 447.06 610.23
  Q 403.22 619.94 363.63 600.82
  C 354.75 596.53 346.95 587.41 337.35 585.39
  Q 329.80 583.80 322.29 582.07
  Q 291.03 574.85 264.77 556.47
  C 263.68 555.70 261.88 554.84 260.29 554.88
  C 251.08 555.09 246.41 550.68 243.36 542.62
  C 242.00 539.01 238.82 538.10 236.81 536.21
  C 231.84 531.53 230.16 527.24 228.19 519.91
  C 224.71 506.98 217.85 495.61 214.44 483.40
  C 203.03 442.51 207.33 401.62 231.06 366.04
  C 240.32 352.16 250.99 339.65 264.54 329.48
  Q 282.92 315.69 303.02 304.45
  C 303.73 304.06 303.89 303.53 304.00 302.79
  Z
  M 711.5773 212.4686
  A 48.57 23.28 0.6 0 0 663.2538 188.6813
  A 48.57 23.28 0.6 0 0 614.4427 211.4514
  A 48.57 23.28 0.6 0 0 662.7662 235.2387
  A 48.57 23.28 0.6 0 0 711.5773 212.4686
  Z
  M 547.1364 247.6414
  A 65.07 35.04 0.6 0 0 482.4369 211.9219
  A 65.07 35.04 0.6 0 0 417.0036 246.2786
  A 65.07 35.04 0.6 0 0 481.7031 281.9981
  A 65.07 35.04 0.6 0 0 547.1364 247.6414
  Z
  M 486.80 438.34
  C 497.92 446.44 514.98 454.03 529.27 458.87
  A 0.55 0.55 0.0 0 0 529.86 457.99
  Q 528.86 456.86 527.32 455.93
  Q 508.70 444.63 487.52 436.97
  A 0.78 0.78 0.0 0 0 486.80 438.34
  Z
  M 709.0432 437.7220
  A 23.27 2.42 -25.5 0 0 686.9982 445.5557
  A 23.27 2.42 -25.5 0 0 667.0368 457.7580
  A 23.27 2.42 -25.5 0 0 689.0818 449.9243
  A 23.27 2.42 -25.5 0 0 709.0432 437.7220
  Z
  M 510.65 488.53
  A 16.00 16.00 0.0 0 0 494.65 472.53
  A 16.00 16.00 0.0 0 0 478.65 488.53
  A 16.00 16.00 0.0 0 0 494.65 504.53
  A 16.00 16.00 0.0 0 0 510.65 488.53
  Z
  M 714.85 488.56
  A 16.05 16.05 0.0 0 0 698.80 472.51
  A 16.05 16.05 0.0 0 0 682.75 488.56
  A 16.05 16.05 0.0 0 0 698.80 504.61
  A 16.05 16.05 0.0 0 0 714.85 488.56
  Z
  M 471.74 521.25
  A 25.81 20.32 0.0 0 0 445.93 500.93
  A 25.81 20.32 0.0 0 0 420.12 521.25
  A 25.81 20.32 0.0 0 0 445.93 541.57
  A 25.81 20.32 0.0 0 0 471.74 521.25
  Z
  M 775.9694 521.1893
  A 25.89 20.44 -0.4 0 0 749.9373 500.9305
  A 25.89 20.44 -0.4 0 0 724.1906 521.5507
  A 25.89 20.44 -0.4 0 0 750.2227 541.8095
  A 25.89 20.44 -0.4 0 0 775.9694 521.1893
  Z
  M 571.23 569.18
  C 578.93 536.86 619.93 540.04 624.96 571.76
  Q 625.29 573.79 625.68 575.15
  Q 625.82 575.66 626.33 575.80
  Q 629.01 576.58 631.07 575.03
  Q 631.53 574.69 631.48 574.12
  C 628.08 529.84 568.52 527.79 564.26 572.77
  Q 564.12 574.27 566.26 575.65
  Q 566.69 575.92 567.19 575.87
  C 571.40 575.40 570.55 572.02 571.23 569.18
  Z"
/>
<ellipse fill="#d5d7db" cx="0.00" cy="0.00" transform="translate(663.01,211.96) rotate(0.6)" rx="48.57" ry="23.28"/>
<path fill="#a9adb9" d="
  M 487.75 192.96
  Q 487.02 193.03 486.94 193.68
  Q 486.88 194.20 486.46 194.52
  Q 473.06 204.92 456.32 201.64
  C 454.75 201.33 453.49 200.42 451.52 201.06
  C 399.51 217.82 357.31 244.99 335.75 297.46
  Q 329.50 298.29 324.16 295.28
  A 2.10 2.10 0.0 0 1 323.19 292.81
  C 345.80 222.05 414.49 180.13 487.75 192.96
  Z"
/>
<ellipse fill="#d5d7db" cx="0.00" cy="0.00" transform="translate(482.07,246.96) rotate(0.6)" rx="65.07" ry="35.04"/>
<path fill="#9093a1" d="
  M 195.46 353.50
  C 196.94 357.96 193.24 368.39 191.21 372.91
  C 187.57 380.99 183.52 389.42 180.75 397.29
  C 163.12 447.47 172.32 500.21 206.46 539.91
  Q 210.70 544.85 220.55 554.08
  C 229.63 562.59 237.97 572.68 248.85 579.13
  Q 288.87 602.84 334.95 600.82
  A 2.87 2.86 75.9 0 1 337.65 602.44
  C 353.91 636.10 386.54 645.50 421.50 643.91
  C 422.82 643.85 423.81 644.59 424.66 645.68
  C 461.53 693.21 524.03 696.85 572.86 666.16
  A 2.16 2.16 0.0 0 1 574.91 666.03
  Q 580.13 668.47 585.53 670.92
  C 630.08 691.17 673.61 682.65 709.07 650.07
  C 710.72 648.56 712.10 649.10 713.67 650.50
  C 758.35 690.04 824.99 691.70 868.70 649.71
  C 892.19 627.14 903.55 594.29 905.52 561.89
  A 1.63 1.62 23.6 0 1 908.27 560.82
  C 929.45 581.12 982.17 569.23 1006.52 560.57
  C 1018.13 556.44 1032.04 550.32 1039.65 540.20
  C 1044.59 533.63 1051.74 530.14 1056.62 523.35
  C 1068.99 506.18 1079.24 486.17 1084.30 465.57
  C 1087.07 454.33 1087.40 444.01 1087.55 433.21
  A 1.98 1.98 0.0 0 1 1089.08 431.31
  L 1096.00 429.71
  Q 1105.70 456.01 1102.96 484.00
  C 1101.66 479.77 1104.57 474.12 1096.35 476.16
  A 2.40 2.39 -3.7 0 0 1094.54 478.21
  C 1092.13 499.76 1083.85 530.30 1068.08 546.04
  Q 1027.20 586.83 970.26 596.44
  A 2.30 2.27 -74.5 0 0 968.90 597.22
  C 955.40 613.35 942.31 630.16 919.04 630.75
  Q 922.38 604.10 912.28 578.34
  A 0.23 0.23 0.0 0 0 911.84 578.47
  C 917.24 604.95 916.73 628.34 905.71 653.25
  L 904.74 653.53
  Q 904.30 653.65 904.02 654.01
  Q 888.32 673.51 866.78 687.52
  C 819.15 718.51 761.45 710.95 721.58 671.39
  A 2.37 2.36 46.4 0 0 718.33 671.31
  C 711.92 677.10 708.14 683.38 700.47 688.20
  Q 655.50 716.46 603.00 702.40
  C 592.79 699.66 583.08 693.23 573.66 688.41
  C 571.59 687.35 570.18 687.06 568.47 688.71
  C 521.23 734.01 448.85 729.41 410.66 674.68
  C 406.59 668.86 401.97 670.37 396.01 670.16
  C 368.97 669.21 345.80 658.11 328.34 637.40
  C 326.75 635.53 321.41 627.15 318.37 626.25
  Q 304.20 622.08 289.53 620.38
  C 285.21 619.88 280.02 618.46 276.80 616.97
  C 264.58 611.29 250.39 606.01 239.95 600.06
  C 218.14 587.63 197.69 570.55 181.64 552.12
  Q 173.09 542.30 169.03 534.20
  C 165.29 526.74 163.58 515.20 161.93 509.30
  Q 157.00 491.67 148.78 475.25
  Q 148.54 474.78 148.03 474.77
  L 147.29 474.75
  Q 146.25 403.62 195.46 353.50
  Z"
/>
<path fill="#141213" d="
  M 529.27 458.87
  C 514.98 454.03 497.92 446.44 486.80 438.34
  A 0.78 0.78 0.0 0 1 487.52 436.97
  Q 508.70 444.63 527.32 455.93
  Q 528.86 456.86 529.86 457.99
  A 0.55 0.55 0.0 0 1 529.27 458.87
  Z"
/>
<ellipse fill="#141213" cx="0.00" cy="0.00" transform="translate(688.04,447.74) rotate(-25.5)" rx="23.27" ry="2.42"/>
<circle fill="#141213" cx="494.65" cy="488.53" r="16.00"/>
<circle fill="#141213" cx="698.80" cy="488.56" r="16.05"/>
<path fill="#a9adb9" d="
  M 147.29 474.75
  L 148.03 474.77
  Q 148.54 474.78 148.78 475.25
  Q 157.00 491.67 161.93 509.30
  C 163.58 515.20 165.29 526.74 169.03 534.20
  Q 173.09 542.30 181.64 552.12
  C 197.69 570.55 218.14 587.63 239.95 600.06
  C 250.39 606.01 264.58 611.29 276.80 616.97
  C 280.02 618.46 285.21 619.88 289.53 620.38
  Q 304.20 622.08 318.37 626.25
  C 321.41 627.15 326.75 635.53 328.34 637.40
  C 345.80 658.11 368.97 669.21 396.01 670.16
  C 401.97 670.37 406.59 668.86 410.66 674.68
  C 448.85 729.41 521.23 734.01 568.47 688.71
  C 570.18 687.06 571.59 687.35 573.66 688.41
  C 583.08 693.23 592.79 699.66 603.00 702.40
  Q 655.50 716.46 700.47 688.20
  C 708.14 683.38 711.92 677.10 718.33 671.31
  A 2.37 2.36 46.4 0 1 721.58 671.39
  C 761.45 710.95 819.15 718.51 866.78 687.52
  Q 888.32 673.51 904.02 654.01
  Q 904.30 653.65 904.74 653.53
  L 905.71 653.25
  Q 884.57 709.62 825.96 724.43
  C 784.27 734.96 750.73 718.97 717.42 695.92
  A 1.23 1.22 -45.9 0 0 715.99 695.95
  C 673.08 727.84 626.05 733.27 578.04 708.06
  A 2.83 2.82 -51.6 0 0 574.87 708.43
  C 525.71 751.20 452.88 747.20 409.87 697.39
  Q 406.10 693.04 400.79 685.97
  Q 400.47 685.54 399.93 685.58
  Q 386.99 686.51 381.76 685.72
  C 354.15 681.52 329.64 664.10 314.57 640.94
  Q 313.73 639.64 311.24 639.47
  Q 235.88 634.28 186.34 577.93
  C 163.22 551.63 148.59 509.01 147.29 474.75
  Z"
/>
<path fill="#a9adb9" d="
  M 1102.96 484.00
  C 1093.46 554.59 1048.39 602.50 978.73 616.68
  C 977.29 616.98 975.66 618.09 974.70 619.17
  Q 951.41 645.38 917.41 654.61
  Q 915.94 655.02 914.97 654.61
  A 1.78 1.77 18.0 0 1 913.92 652.56
  L 919.04 630.75
  C 942.31 630.16 955.40 613.35 968.90 597.22
  A 2.30 2.27 -74.5 0 1 970.26 596.44
  Q 1027.20 586.83 1068.08 546.04
  C 1083.85 530.30 1092.13 499.76 1094.54 478.21
  A 2.40 2.39 -3.7 0 1 1096.35 476.16
  C 1104.57 474.12 1101.66 479.77 1102.96 484.00
  Z"
/>
<path fill="#141213" d="
  M 471.74 521.25
  A 25.81 20.32 0.0 0 1 445.93 541.57
  A 25.81 20.32 0.0 0 1 420.12 521.25
  A 25.81 20.32 0.0 0 1 445.93 500.93
  A 25.81 20.32 0.0 0 1 471.74 521.25
  Z
  M 467.0706 521.7937
  A 21.36 16.69 1.7 0 0 446.2151 504.4773
  A 21.36 16.69 1.7 0 0 424.3694 520.5263
  A 21.36 16.69 1.7 0 0 445.2249 537.8427
  A 21.36 16.69 1.7 0 0 467.0706 521.7937
  Z"
/>
<path fill="#141213" d="
  M 775.9694 521.1893
  A 25.89 20.44 -0.4 0 1 750.2227 541.8095
  A 25.89 20.44 -0.4 0 1 724.1906 521.5507
  A 25.89 20.44 -0.4 0 1 749.9373 500.9305
  A 25.89 20.44 -0.4 0 1 775.9694 521.1893
  Z
  M 771.3384 521.5928
  A 21.51 16.17 0.7 0 0 750.0275 505.1612
  A 21.51 16.17 0.7 0 0 728.3216 521.0672
  A 21.51 16.17 0.7 0 0 749.6325 537.4988
  A 21.51 16.17 0.7 0 0 771.3384 521.5928
  Z"
/>
<ellipse fill="#da6b59" cx="0.00" cy="0.00" transform="translate(445.72,521.16) rotate(1.7)" rx="21.36" ry="16.69"/>
<ellipse fill="#da6b59" cx="0.00" cy="0.00" transform="translate(749.83,521.33) rotate(0.7)" rx="21.51" ry="16.17"/>
<path fill="#141213" d="
  M 624.96 571.76
  C 619.93 540.04 578.93 536.86 571.23 569.18
  C 570.55 572.02 571.40 575.40 567.19 575.87
  Q 566.69 575.92 566.26 575.65
  Q 564.12 574.27 564.26 572.77
  C 568.52 527.79 628.08 529.84 631.48 574.12
  Q 631.53 574.69 631.07 575.03
  Q 629.01 576.58 626.33 575.80
  Q 625.82 575.66 625.68 575.15
  Q 625.29 573.79 624.96 571.76
  Z"
/>
<path fill="#141213" d="
  M 949.55 686.10
  C 953.31 698.43 956.17 723.98 947.32 734.70
  C 937.89 746.13 918.43 741.70 915.74 725.99
  Q 913.71 714.18 922.60 705.35
  Q 933.86 694.18 947.06 685.23
  A 1.64 1.64 0.0 0 1 949.55 686.10
  Z
  M 944.29 694.45
  C 934.20 698.95 925.22 709.49 921.58 719.87
  C 914.92 738.87 946.52 742.62 947.14 720.68
  Q 947.49 708.24 946.15 695.52
  Q 945.95 693.71 944.29 694.45
  Z"
/>
<path fill="#141213" d="
  M 276.27 698.64
  C 278.21 709.96 279.34 723.87 274.68 734.71
  C 268.66 748.74 248.81 747.69 241.63 735.21
  C 230.60 716.04 259.72 696.46 273.63 689.50
  A 0.61 0.61 0.0 0 1 274.48 689.84
  C 275.49 692.75 275.84 696.13 276.27 698.64
  Z
  M 271.20 710.83
  Q 271.10 704.88 270.89 699.19
  A 0.86 0.85 -14.5 0 0 269.65 698.46
  Q 251.84 707.40 244.69 725.47
  Q 243.86 727.57 244.49 728.99
  C 247.49 735.85 255.89 742.01 263.61 738.42
  C 274.33 733.44 271.37 719.86 271.20 710.83
  Z"
/>
<path fill="#d5d7db" d="
  M 921.58 719.87
  C 925.22 709.49 934.20 698.95 944.29 694.45
  Q 945.95 693.71 946.15 695.52
  Q 947.49 708.24 947.14 720.68
  C 946.52 742.62 914.92 738.87 921.58 719.87
  Z"
/>
<path fill="#d5d7db" d="
  M 271.20 710.83
  C 271.37 719.86 274.33 733.44 263.61 738.42
  C 255.89 742.01 247.49 735.85 244.49 728.99
  Q 243.86 727.57 244.69 725.47
  Q 251.84 707.40 269.65 698.46
  A 0.86 0.85 -14.5 0 1 270.89 699.19
  Q 271.10 704.88 271.20 710.83
  Z"
/>
<path fill="#f9db4f" d="
  M 731.44 714.41
  Q 713.37 737.85 701.99 765.77
  A 1.47 1.46 -79.8 0 0 703.39 767.79
  Q 716.20 767.40 729.25 765.54
  L 740.71 766.40
  C 729.16 787.78 716.25 808.70 707.45 831.43
  A 1.57 1.57 0.0 0 0 708.42 833.49
  Q 710.91 834.32 712.29 837.00
  L 669.90 895.71
  A 0.47 0.47 0.0 0 1 669.08 895.26
  C 683.47 858.84 701.33 822.00 716.09 784.64
  A 1.20 1.20 0.0 0 0 714.97 783.00
  Q 693.09 782.99 670.74 783.00
  C 668.37 783.00 668.81 780.52 669.47 778.99
  Q 681.29 751.95 693.19 724.94
  C 694.62 721.70 695.33 719.35 698.27 717.20
  Q 706.88 710.89 715.72 704.83
  A 2.09 2.07 -44.2 0 1 718.11 704.85
  L 731.44 714.41
  Z"
/>
<path fill="#ebb116" d="
  M 731.44 714.41
  L 749.52 725.55
  A 2.12 2.12 0.0 0 1 750.25 728.40
  L 729.25 765.54
  Q 716.20 767.40 703.39 767.79
  A 1.47 1.46 -79.8 0 1 701.99 765.77
  Q 713.37 737.85 731.44 714.41
  Z"
/>
<path fill="#f9db4f" d="
  M 461.38 738.66
  L 405.99 826.33
  A 1.34 1.33 -68.8 0 0 406.88 828.36
  Q 424.45 831.49 441.46 825.75
  L 470.17 825.90
  Q 438.66 875.62 407.02 925.26
  C 406.44 926.18 405.91 927.82 406.00 928.75
  Q 406.33 932.47 408.58 935.55
  C 391.71 957.43 374.48 978.64 362.06 1003.51
  C 360.43 1006.77 357.75 1007.99 354.70 1009.53
  Q 354.21 1009.78 354.26 1009.22
  Q 354.82 1002.93 356.91 998.92
  C 360.59 991.84 364.08 984.99 367.29 977.46
  Q 394.15 914.49 422.08 851.92
  A 0.65 0.65 0.0 0 0 421.49 851.00
  L 360.48 851.00
  A 0.99 0.99 0.0 0 1 359.49 850.07
  C 359.48 849.87 359.52 849.22 359.62 849.01
  Q 388.35 783.70 417.16 718.42
  C 418.15 716.17 420.12 716.71 421.68 718.05
  Q 438.96 732.85 461.38 738.66
  Z"
/>
<path fill="#141213" d="
  M 322.78 766.80
  A 1.11 1.11 0.0 0 1 322.19 765.34
  L 322.60 764.40
  A 35.58 11.96 -67.1 0 1 347.46 736.27
  L 347.66 736.36
  A 35.58 11.96 -67.1 0 1 344.83 773.79
  L 344.43 774.74
  A 1.11 1.11 0.0 0 1 342.98 775.33
  L 322.78 766.80
  Z
  M 329.85 764.72
  L 339.33 768.80
  A 1.08 1.08 0.0 0 0 340.74 768.24
  L 340.79 768.13
  A 21.32 6.03 -66.7 0 0 343.69 746.16
  L 343.30 746.00
  A 21.32 6.03 -66.7 0 0 329.33 763.19
  L 329.28 763.30
  A 1.08 1.08 0.0 0 0 329.85 764.72
  Z"
/>
<path fill="#ebb116" d="
  M 461.38 738.66
  Q 472.95 741.21 484.93 743.68
  C 487.07 744.12 487.93 745.09 486.70 747.19
  Q 471.41 773.28 441.46 825.75
  Q 424.45 831.49 406.88 828.36
  A 1.34 1.33 -68.8 0 1 405.99 826.33
  L 461.38 738.66
  Z"
/>
<path fill="#d5d7db" d="
  M 329.85 764.72
  A 1.08 1.08 0.0 0 1 329.28 763.30
  L 329.33 763.19
  A 21.32 6.03 -66.7 0 1 343.30 746.00
  L 343.69 746.16
  A 21.32 6.03 -66.7 0 1 340.79 768.13
  L 340.74 768.24
  A 1.08 1.08 0.0 0 1 339.33 768.80
  L 329.85 764.72
  Z"
/>
<path fill="#141213" d="
  M 553.38 779.20
  C 554.58 787.20 555.20 798.56 551.12 805.24
  C 545.37 814.67 531.40 814.84 524.11 806.80
  C 509.99 791.24 537.80 770.12 549.04 763.55
  A 1.10 1.10 0.0 0 1 550.65 764.20
  C 552.12 769.27 552.77 775.10 553.38 779.20
  Z
  M 542.71 804.72
  C 550.17 798.85 547.27 779.98 546.32 773.05
  A 0.83 0.83 0.0 0 0 545.04 772.47
  C 538.17 776.95 523.42 792.17 525.99 801.40
  C 527.94 808.39 537.96 808.45 542.71 804.72
  Z"
/>
<path fill="#141213" d="
  M 847.96 798.42
  C 847.63 804.12 847.22 809.13 843.99 813.63
  C 836.64 823.83 820.86 824.84 813.55 813.80
  C 800.64 794.29 829.52 773.79 843.11 765.49
  A 1.25 1.25 0.0 0 1 844.98 766.26
  Q 848.90 782.46 847.96 798.42
  Z
  M 842.97 798.91
  C 843.36 790.32 843.32 781.29 842.45 772.71
  A 0.64 0.64 0.0 0 0 841.42 772.27
  C 832.89 779.03 807.99 797.66 818.31 810.81
  C 825.09 819.45 837.91 816.63 841.67 806.93
  Q 842.73 804.20 842.97 798.91
  Z"
/>
<path fill="#ebb116" d="
  M 712.29 837.00
  Q 710.91 834.32 708.42 833.49
  A 1.57 1.57 0.0 0 1 707.45 831.43
  C 716.25 808.70 729.16 787.78 740.71 766.40
  L 766.01 765.37
  A 0.68 0.68 0.0 0 1 766.58 766.46
  L 712.29 837.00
  Z"
/>
<path fill="#d5d7db" d="
  M 842.45 772.71
  C 843.32 781.29 843.36 790.32 842.97 798.91
  Q 842.73 804.20 841.67 806.93
  C 837.91 816.63 825.09 819.45 818.31 810.81
  C 807.99 797.66 832.89 779.03 841.42 772.27
  A 0.64 0.64 0.0 0 1 842.45 772.71
  Z"
/>
<path fill="#d5d7db" d="
  M 546.32 773.05
  C 547.27 779.98 550.17 798.85 542.71 804.72
  C 537.96 808.45 527.94 808.39 525.99 801.40
  C 523.42 792.17 538.17 776.95 545.04 772.47
  A 0.83 0.83 0.0 0 1 546.32 773.05
  Z"
/>
<path fill="#141213" d="
  M 290.46 790.90
  C 293.81 800.50 295.34 811.45 295.27 821.25
  C 295.17 833.83 288.80 844.80 275.52 846.50
  C 257.95 848.75 253.69 829.18 260.16 816.92
  C 266.03 805.79 278.77 796.92 289.41 790.52
  A 0.72 0.72 0.0 0 1 290.46 790.90
  Z
  M 285.40 799.85
  C 277.86 804.50 265.91 814.93 262.59 822.89
  C 258.71 832.21 266.85 842.09 276.74 840.71
  C 293.81 838.32 289.56 810.92 286.58 800.31
  A 0.79 0.79 0.0 0 0 285.40 799.85
  Z"
/>
<path fill="#141213" d="
  M 933.22 796.44
  C 936.47 808.37 938.35 824.20 934.05 835.04
  C 927.89 850.57 905.42 850.64 901.51 833.23
  C 897.96 817.41 919.03 802.56 930.82 795.47
  A 1.62 1.62 0.0 0 1 933.22 796.44
  Z
  M 917.02 840.25
  C 934.32 842.54 932.03 815.99 929.59 806.39
  A 1.83 1.83 0.0 0 0 927.08 805.16
  C 917.44 809.42 900.64 820.82 908.26 833.82
  Q 911.62 839.54 917.02 840.25
  Z"
/>
<path fill="#141213" d="
  M 624.58 799.28
  C 628.71 808.03 627.76 818.61 622.43 826.35
  C 618.64 831.84 608.49 830.44 605.27 824.97
  C 598.49 813.48 612.04 801.04 621.49 796.73
  C 623.51 795.81 623.98 798.01 624.58 799.28
  Z
  M 620.75 808.32
  C 619.55 800.86 607.45 813.35 608.58 819.95
  C 609.33 824.34 614.60 827.12 617.71 822.43
  Q 621.99 816.00 620.75 808.32
  Z"
/>
<path fill="#d5d7db" d="
  M 262.59 822.89
  C 265.91 814.93 277.86 804.50 285.40 799.85
  A 0.79 0.79 0.0 0 1 286.58 800.31
  C 289.56 810.92 293.81 838.32 276.74 840.71
  C 266.85 842.09 258.71 832.21 262.59 822.89
  Z"
/>
<path fill="#d5d7db" d="
  M 929.59 806.39
  C 932.03 815.99 934.32 842.54 917.02 840.25
  Q 911.62 839.54 908.26 833.82
  C 900.64 820.82 917.44 809.42 927.08 805.16
  A 1.83 1.83 0.0 0 1 929.59 806.39
  Z"
/>
<path fill="#d5d7db" d="
  M 608.58 819.95
  C 607.45 813.35 619.55 800.86 620.75 808.32
  Q 621.99 816.00 617.71 822.43
  C 614.60 827.12 609.33 824.34 608.58 819.95
  Z"
/>
<path fill="#ebb116" d="
  M 408.58 935.55
  Q 406.33 932.47 406.00 928.75
  C 405.91 927.82 406.44 926.18 407.02 925.26
  Q 438.66 875.62 470.17 825.90
  L 490.57 825.21
  A 0.59 0.59 0.0 0 1 491.06 826.16
  L 408.58 935.55
  Z"
/>
<path fill="#141213" d="
  M 567.18 855.06
  C 569.51 867.41 571.99 887.84 559.81 895.23
  C 552.69 899.55 543.52 898.24 538.29 891.69
  C 530.61 882.09 537.84 867.35 545.95 860.42
  Q 554.41 853.20 564.53 847.15
  A 0.90 0.89 62.2 0 1 565.80 847.55
  C 566.88 849.87 566.80 853.04 567.18 855.06
  Z
  M 560.70 856.83
  C 552.58 861.19 542.23 869.46 540.49 878.73
  C 539.75 882.72 541.80 890.53 546.86 891.56
  C 566.65 895.59 563.98 868.32 562.29 857.62
  A 1.09 1.09 0.0 0 0 560.70 856.83
  Z"
/>
<path fill="#d5d7db" d="
  M 540.49 878.73
  C 542.23 869.46 552.58 861.19 560.70 856.83
  A 1.09 1.09 0.0 0 1 562.29 857.62
  C 563.98 868.32 566.65 895.59 546.86 891.56
  C 541.80 890.53 539.75 882.72 540.49 878.73
  Z"
/>
<path fill="#141213" d="
  M 801.62 877.89
  C 805.67 889.24 807.71 919.02 786.73 913.62
  Q 782.17 912.44 779.79 909.24
  C 770.85 897.22 790.62 881.98 799.88 877.21
  A 1.24 1.24 0.0 0 1 801.62 877.89
  Z
  M 784.70 907.29
  L 791.25 910.04
  A 3.27 3.27 0.0 0 0 795.53 908.30
  L 795.66 907.98
  A 20.53 6.57 -67.2 0 0 797.56 886.51
  L 797.10 886.32
  A 20.53 6.57 -67.2 0 0 783.08 902.70
  L 782.95 903.01
  A 3.27 3.27 0.0 0 0 784.70 907.29
  Z"
/>
<path fill="#d5d7db" d="
  M 784.70 907.29
  A 3.27 3.27 0.0 0 1 782.95 903.01
  L 783.08 902.70
  A 20.53 6.57 -67.2 0 1 797.10 886.32
  L 797.56 886.51
  A 20.53 6.57 -67.2 0 1 795.66 907.98
  L 795.53 908.30
  A 3.27 3.27 0.0 0 1 791.25 910.04
  L 784.70 907.29
  Z"
/>
</svg>
