<?xml version="1.0" encoding="UTF-8" standalone="no"?>
<!DOCTYPE svg PUBLIC "-//W3C//DTD SVG 1.1//EN" "http://www.w3.org/Graphics/SVG/1.1/DTD/svg11.dtd">
<svg xmlns="http://www.w3.org/2000/svg" version="1.1" viewBox="0.00 0.00 900.00 996.00">
<g stroke-width="2.00" fill="none" stroke-linecap="butt">
<path stroke="#2c4751" vector-effect="non-scaling-stroke" d="
  M 182.46 692.50
  L 183.75 690.29"
/>
<path stroke="#2c4751" vector-effect="non-scaling-stroke" d="
  M 329.75 615.71
  Q 332.22 614.66 333.46 612.25"
/>
<path stroke="#2c4751" vector-effect="non-scaling-stroke" d="
  M 451.50 691.21
  Q 453.85 689.84 455.21 687.50"
/>
<path stroke="#2c4751" vector-effect="non-scaling-stroke" d="
  M 588.54 700.25
  Q 589.46 702.99 592.25 703.71"
/>
<path stroke="#5f7e87" vector-effect="non-scaling-stroke" d="
  M 439.25 890.71
  L 439.25 890.29"
/>
<path stroke="#5f7e87" vector-effect="non-scaling-stroke" d="
  M 438.00 889.71
  Q 436.04 889.82 434.76 891.12
  Q 434.29 891.59 434.88 891.89
  Q 435.92 892.43 437.00 891.54"
/>
<path stroke="#808e92" vector-effect="non-scaling-stroke" d="
  M 428.96 871.75
  C 420.26 864.31 413.24 882.56 423.44 883.00
  C 427.88 883.20 430.28 879.55 430.54 875.50"
/>
<path stroke="#808e92" vector-effect="non-scaling-stroke" d="
  M 131.67 230.86
  C 131.23 231.38 131.58 231.90 132.13 232.10
  C 134.94 233.16 157.78 244.37 156.24 247.50
  A 0.92 0.71 -62.9 0 1 155.17 248.00
  Q 129.10 233.96 99.50 236.29"
/>
<path stroke="#6c858d" vector-effect="non-scaling-stroke" d="
  M 99.50 236.29
  Q 60.69 239.38 40.71 272.25"
/>
<path stroke="#5f7e87" vector-effect="non-scaling-stroke" d="
  M 40.71 272.25
  C 5.28 325.03 43.27 387.05 101.36 394.85
  A 2.53 2.52 1.0 0 1 103.53 397.09
  Q 105.29 414.58 112.46 430.50"
/>
<path stroke="#6c858d" vector-effect="non-scaling-stroke" d="
  M 112.46 430.50
  C 136.42 484.48 203.30 504.56 252.90 470.66"
/>
<path stroke="#5f7e87" vector-effect="non-scaling-stroke" d="
  M 252.90 470.66
  C 260.02 463.10 260.93 451.75 256.00 442.71"
/>
<path stroke="#6c858d" vector-effect="non-scaling-stroke" d="
  M 256.00 442.71
  Q 256.43 436.60 257.86 431.15
  Q 258.08 430.28 258.30 431.15
  L 267.25 467.04"
/>
<path stroke="#5f7e87" vector-effect="non-scaling-stroke" d="
  M 267.25 467.04
  C 298.62 537.47 387.19 533.88 421.19 468.25
  Q 421.70 467.27 421.63 468.37
  C 421.24 474.98 416.15 484.49 413.26 489.30"
/>
<path stroke="#6c858d" vector-effect="non-scaling-stroke" d="
  M 413.26 489.30
  C 410.55 491.56 410.91 493.73 413.17 496.24
  C 463.42 551.87 553.98 543.36 586.54 473.75"
/>
<path stroke="#5f7e87" vector-effect="non-scaling-stroke" d="
  M 586.54 473.75
  C 591.26 468.55 591.46 463.69 589.31 456.89
  C 588.78 455.20 584.94 442.14 586.17 441.43
  A 0.87 0.63 -27.0 0 1 587.30 441.61
  C 596.62 464.87 616.13 485.66 643.86 476.47
  C 673.52 466.64 680.68 441.09 669.04 413.75"
/>
<path stroke="#6c858d" vector-effect="non-scaling-stroke" d="
  M 669.04 413.75
  Q 666.27 410.87 667.70 407.56
  A 0.61 0.60 -49.2 0 1 668.77 407.48
  L 678.04 422.50"
/>
<path stroke="#5f7e87" vector-effect="non-scaling-stroke" d="
  M 678.04 422.50
  Q 679.42 430.86 680.30 439.27
  Q 680.60 442.14 683.16 444.05
  C 741.59 487.55 817.50 439.94 812.32 369.92"
/>
<path stroke="#6c858d" vector-effect="non-scaling-stroke" d="
  M 812.32 369.92
  C 837.43 366.50 858.45 348.43 860.64 322.80
  C 863.03 294.92 843.75 273.70 818.30 265.80"
/>
<path stroke="#808e92" vector-effect="non-scaling-stroke" d="
  M 818.30 265.80
  Q 797.46 263.72 778.27 271.42
  A 0.57 0.57 0.0 0 1 777.64 270.50
  Q 785.54 262.16 796.75 259.71"
/>
<path stroke="#6c858d" vector-effect="non-scaling-stroke" d="
  M 796.75 259.71
  L 805.06 258.01
  A 1.53 1.52 -2.4 0 0 806.27 256.70
  C 810.07 224.24 791.20 194.56 758.59 187.51
  C 738.15 183.10 719.08 188.39 702.16 201.15
  Q 700.95 202.06 700.99 200.54
  C 701.87 167.87 691.28 139.64 661.46 123.51
  C 634.93 109.16 608.09 110.36 582.68 126.79
  A 0.81 0.80 62.4 0 1 581.49 126.41
  Q 579.62 121.73 577.78 116.99
  C 543.03 28.01 442.28 -15.09 356.80 33.39
  Q 324.98 51.44 304.50 78.50
  C 287.58 100.87 280.80 125.83 277.85 153.36
  A 1.19 1.19 0.0 0 1 276.12 154.30
  Q 272.13 152.24 267.54 150.00
  C 204.05 119.03 134.59 160.50 131.67 230.86"
/>
<path stroke="#ebf6fa" vector-effect="non-scaling-stroke" d="
  M 796.75 259.71
  C 793.46 249.64 791.34 243.08 786.59 235.38
  C 765.06 200.43 725.26 200.03 693.42 220.64
  A 0.99 0.98 71.0 0 1 691.91 219.90
  C 687.38 171.25 652.28 134.17 601.17 137.70
  C 593.81 138.21 585.12 140.75 577.01 142.04
  C 575.11 142.34 573.81 141.71 573.05 139.84
  C 559.86 107.44 542.27 76.12 513.21 55.78
  C 469.89 25.48 410.70 20.07 363.44 46.13
  C 346.62 55.41 330.29 67.71 318.72 83.19
  C 312.09 92.05 306.24 104.40 300.45 115.14
  Q 295.51 124.29 293.54 134.51
  Q 290.65 149.41 286.48 163.99
  Q 285.68 166.78 286.96 171.83
  C 287.71 174.76 285.96 176.89 283.08 174.90
  C 238.03 143.65 183.35 158.82 153.15 201.85
  C 149.68 206.79 146.99 212.83 144.19 218.47
  Q 140.01 226.90 131.67 230.86"
/>
<path stroke="#ebf6fa" vector-effect="non-scaling-stroke" d="
  M 818.30 265.80
  L 816.45 273.52
  Q 816.33 274.00 816.62 274.42
  Q 819.05 277.98 821.33 281.62
  C 843.23 316.53 811.19 358.42 771.93 343.56
  C 769.63 342.69 761.19 336.84 759.72 341.76
  C 744.23 393.54 686.39 410.83 646.54 372.58
  C 643.92 370.06 640.89 367.67 638.41 371.91
  C 623.12 398.07 601.77 401.25 573.76 394.92
  C 572.06 394.54 569.83 394.76 569.04 396.30
  C 560.41 412.94 548.72 426.46 532.47 435.51
  C 503.07 451.89 467.61 449.10 439.39 430.36
  C 434.48 427.09 430.01 422.30 425.29 418.20
  C 423.73 416.85 421.97 416.54 420.08 417.71
  C 366.58 451.02 301.05 438.01 273.17 379.65
  Q 271.12 375.36 269.08 371.23
  A 1.52 1.52 0.0 0 0 267.10 370.52
  Q 259.81 373.73 256.74 381.02
  Q 256.53 381.52 256.08 381.82
  Q 242.73 390.79 228.67 394.67
  C 199.63 402.68 172.80 389.16 154.78 366.71
  Q 153.16 364.69 150.66 358.19
  Q 150.46 357.67 149.92 357.56
  Q 146.90 356.90 143.43 357.35
  C 119.01 360.45 93.20 354.68 78.67 332.64
  C 57.38 300.33 68.54 264.61 100.45 244.84
  A 1.33 1.32 62.5 0 0 100.97 243.19
  Q 99.61 240.02 99.50 236.29"
/>
<path stroke="#cae6ee" vector-effect="non-scaling-stroke" d="
  M 812.32 369.92
  Q 807.98 364.65 800.78 362.75
  C 793.98 360.96 792.35 365.25 792.94 371.01
  C 793.34 374.96 795.08 381.26 792.71 384.73
  C 765.43 424.77 733.72 427.54 689.22 418.65
  C 686.16 418.04 681.49 421.68 678.04 422.50"
/>
<path stroke="#cae6ee" vector-effect="non-scaling-stroke" d="
  M 669.04 413.75
  C 655.28 433.99 633.69 452.44 607.82 440.50
  C 604.68 439.05 601.39 436.63 598.21 434.68
  C 595.87 433.24 594.08 433.73 591.46 434.00
  C 586.74 434.48 587.61 431.21 586.61 428.35
  Q 585.09 424.00 581.34 422.22
  A 2.36 2.36 0.0 0 0 578.32 423.11
  C 550.54 467.94 502.11 498.28 448.95 473.77
  C 443.65 471.33 438.14 467.78 432.95 464.54
  C 418.09 455.27 405.79 466.86 394.69 472.94
  C 357.67 493.22 310.60 487.01 276.87 463.03
  Q 276.44 462.72 275.93 462.88
  Q 271.20 464.43 267.25 467.04"
/>
<path stroke="#cae6ee" vector-effect="non-scaling-stroke" d="
  M 256.00 442.71
  Q 230.04 446.49 214.51 447.56
  C 188.04 449.38 155.86 438.66 144.03 412.45
  Q 138.28 399.71 133.93 384.18
  C 132.87 380.39 127.77 380.53 124.24 380.46
  Q 113.77 380.24 103.53 378.11
  C 59.89 369.04 43.51 326.41 47.58 286.01
  Q 47.86 283.20 46.58 281.43
  Q 42.53 275.81 40.71 272.25"
/>
<path stroke="#cae6ee" vector-effect="non-scaling-stroke" d="
  M 586.54 473.75
  C 583.57 470.42 580.43 468.27 577.29 472.52
  C 538.96 524.25 472.96 533.10 423.58 490.80
  Q 423.18 490.45 422.65 490.39
  L 413.26 489.30"
/>
<path stroke="#cae6ee" vector-effect="non-scaling-stroke" d="
  M 252.90 470.66
  C 250.97 467.71 250.36 461.93 244.76 464.06
  C 230.15 469.64 216.51 473.96 200.74 474.89
  C 168.13 476.81 141.62 459.84 123.95 432.93
  C 121.08 428.56 116.89 427.47 112.46 430.50"
/>
<path stroke="#8d9ca2" vector-effect="non-scaling-stroke" d="
  M 322.40 230.36
  L 323.70 234.00
  A 1.08 1.08 0.0 0 0 325.08 234.66
  L 326.77 234.05
  A 24.08 2.65 -19.6 0 0 348.57 223.48
  L 348.33 222.80
  A 24.08 2.65 -19.6 0 0 324.75 228.38
  L 323.06 228.98
  A 1.08 1.08 0.0 0 0 322.40 230.36"
/>
<path stroke="#8d9ca2" vector-effect="non-scaling-stroke" d="
  M 550.31 229.94
  Q 555.84 233.27 560.95 236.34
  A 0.74 0.73 88.1 0 0 561.93 235.29
  Q 553.44 223.09 539.71 223.08
  C 537.52 223.08 536.53 224.22 537.11 226.38
  Q 537.25 226.91 537.80 226.99
  Q 547.79 228.42 550.31 229.94"
/>
<path stroke="#8d9ca2" vector-effect="non-scaling-stroke" d="
  M 361.01 270.03
  C 356.65 286.50 338.94 291.95 334.89 271.39
  A 1.55 1.54 76.1 0 0 332.93 270.20
  C 317.22 274.89 336.99 287.77 342.47 289.28
  C 350.56 291.50 362.93 288.66 364.95 279.24
  C 365.38 277.25 364.75 270.16 362.15 269.39
  A 0.91 0.91 0.0 0 0 361.01 270.03"
/>
<path stroke="#8d9ca2" vector-effect="non-scaling-stroke" d="
  M 533.93 283.93
  C 528.62 282.24 527.02 277.18 525.49 272.15
  Q 525.35 271.69 524.92 271.48
  Q 522.67 270.36 520.61 271.55
  Q 520.05 271.88 520.08 272.53
  C 521.44 297.21 553.48 298.02 555.68 273.70
  C 555.92 271.02 552.88 270.02 550.97 271.14
  Q 550.52 271.41 550.37 271.90
  C 547.88 279.78 543.56 287.01 533.93 283.93"
/>
<path stroke="#8d9ca2" vector-effect="non-scaling-stroke" d="
  M 324.1931 309.0068
  A 23.20 19.46 1.4 0 0 301.4755 288.9858
  A 23.20 19.46 1.4 0 0 277.8069 307.8732
  A 23.20 19.46 1.4 0 0 300.5245 327.8942
  A 23.20 19.46 1.4 0 0 324.1931 309.0068"
/>
<path stroke="#8d9ca2" vector-effect="non-scaling-stroke" d="
  M 609.4708 309.3420
  A 23.71 19.55 1.6 0 0 586.3159 289.1376
  A 23.71 19.55 1.6 0 0 562.0692 308.0180
  A 23.71 19.55 1.6 0 0 585.2241 328.2224
  A 23.71 19.55 1.6 0 0 609.4708 309.3420"
/>
<path stroke="#8d9ca2" vector-effect="non-scaling-stroke" d="
  M 472.16 326.17
  C 452.65 333.18 432.62 333.46 413.38 325.50
  A 0.80 0.80 0.0 0 0 412.27 326.19
  Q 411.48 338.84 418.20 349.34
  C 425.98 361.53 441.32 367.05 454.76 361.26
  C 468.05 355.54 474.22 341.44 474.15 327.57
  A 1.49 1.49 0.0 0 0 472.16 326.17"
/>
<path stroke="#7a524f" vector-effect="non-scaling-stroke" d="
  M 320.7025 307.9363
  A 19.91 15.60 -2.4 0 0 300.1567 293.1837
  A 19.91 15.60 -2.4 0 0 280.9175 309.6037
  A 19.91 15.60 -2.4 0 0 301.4633 324.3563
  A 19.91 15.60 -2.4 0 0 320.7025 307.9363"
/>
<path stroke="#7a524f" vector-effect="non-scaling-stroke" d="
  M 605.0918 307.5860
  A 19.12 15.28 -2.5 0 0 585.3235 293.1545
  A 19.12 15.28 -2.5 0 0 566.8882 309.2540
  A 19.12 15.28 -2.5 0 0 586.6565 323.6855
  A 19.12 15.28 -2.5 0 0 605.0918 307.5860"
/>
<path stroke="#7a524f" vector-effect="non-scaling-stroke" d="
  M 458.1492 351.8850
  A 14.80 5.06 0.6 0 0 443.4030 346.6703
  A 14.80 5.06 0.6 0 0 428.5508 351.5750
  A 14.80 5.06 0.6 0 0 443.2970 356.7897
  A 14.80 5.06 0.6 0 0 458.1492 351.8850"
/>
<path stroke="#9fabaf" vector-effect="non-scaling-stroke" d="
  M 734.57 505.53
  A 10.49 10.49 0.0 0 0 724.08 495.04
  A 10.49 10.49 0.0 0 0 713.59 505.53
  A 10.49 10.49 0.0 0 0 724.08 516.02
  A 10.49 10.49 0.0 0 0 734.57 505.53"
/>
<path stroke="#9fabaf" vector-effect="non-scaling-stroke" d="
  M 176.68 539.63
  A 10.44 10.44 0.0 0 0 166.24 529.19
  A 10.44 10.44 0.0 0 0 155.80 539.63
  A 10.44 10.44 0.0 0 0 166.24 550.07
  A 10.44 10.44 0.0 0 0 176.68 539.63"
/>
<path stroke="#9fabaf" vector-effect="non-scaling-stroke" d="
  M 683.75 604.12
  L 685.29 609.58
  A 1.96 1.96 0.0 0 0 687.71 610.94
  L 688.36 610.75
  A 11.63 4.63 -15.8 0 0 698.29 603.13
  L 698.19 602.81
  A 11.63 4.63 -15.8 0 0 685.74 601.52
  L 685.10 601.70
  A 1.96 1.96 0.0 0 0 683.75 604.12"
/>
<path stroke="#9fabaf" vector-effect="non-scaling-stroke" d="
  M 505.65 587.47
  A 9.96 9.96 0.0 0 0 495.69 577.51
  A 9.96 9.96 0.0 0 0 485.73 587.47
  A 9.96 9.96 0.0 0 0 495.69 597.43
  A 9.96 9.96 0.0 0 0 505.65 587.47"
/>
<path stroke="#9fabaf" vector-effect="non-scaling-stroke" d="
  M 697.53 635.91
  Q 698.18 636.19 698.14 635.48
  Q 697.69 628.63 690.98 625.83
  Q 686.59 624.00 685.01 628.22
  A 2.23 2.22 -68.0 0 0 686.21 631.05
  L 697.53 635.91"
/>
<path stroke="#9fabaf" vector-effect="non-scaling-stroke" d="
  M 266.29 631.60
  L 255.63 636.43
  A 2.43 2.43 0.0 0 0 254.43 639.65
  L 254.47 639.74
  A 8.79 8.18 65.6 0 0 265.55 644.37
  L 265.73 644.28
  A 8.79 8.18 65.6 0 0 269.55 632.90
  L 269.51 632.81
  A 2.43 2.43 0.0 0 0 266.29 631.60"
/>
<path stroke="#9fabaf" vector-effect="non-scaling-stroke" d="
  M 215.8028 655.0706
  A 7.05 3.84 69.9 0 0 216.9861 647.1303
  A 7.05 3.84 69.9 0 0 210.9572 641.8294
  A 7.05 3.84 69.9 0 0 209.7739 649.7697
  A 7.05 3.84 69.9 0 0 215.8028 655.0706"
/>
<path stroke="#9fabaf" vector-effect="non-scaling-stroke" d="
  M 248.32 660.58
  Q 247.59 660.80 246.76 660.57
  Q 246.13 660.40 246.27 661.03
  C 249.17 674.57 255.86 663.79 261.81 662.96
  A 0.46 0.46 0.0 0 0 261.97 662.10
  Q 255.48 658.42 248.32 660.58"
/>
<path stroke="#9fabaf" vector-effect="non-scaling-stroke" d="
  M 205.82 687.16
  L 203.07 683.03
  A 1.55 1.55 0.0 0 0 200.92 682.60
  L 200.82 682.67
  A 14.06 3.70 -33.6 0 0 191.15 693.53
  L 191.52 694.08
  A 14.06 3.70 -33.6 0 0 205.28 689.38
  L 205.38 689.31
  A 1.55 1.55 0.0 0 0 205.82 687.16"
/>
<path stroke="#9fabaf" vector-effect="non-scaling-stroke" d="
  M 217.45 698.85
  L 212.35 697.11
  A 1.34 1.34 0.0 0 0 210.65 697.95
  L 210.60 698.09
  A 11.23 3.71 -71.2 0 0 210.50 709.92
  L 211.10 710.12
  A 11.23 3.71 -71.2 0 0 218.23 700.69
  L 218.28 700.55
  A 1.34 1.34 0.0 0 0 217.45 698.85"
/>
<path stroke="#9fabaf" vector-effect="non-scaling-stroke" d="
  M 194.8071 708.7309
  A 7.63 6.52 -35.3 0 0 184.8124 707.8188
  A 7.63 6.52 -35.3 0 0 182.3529 717.5491
  A 7.63 6.52 -35.3 0 0 192.3476 718.4612
  A 7.63 6.52 -35.3 0 0 194.8071 708.7309"
/>
<path stroke="#9fabaf" vector-effect="non-scaling-stroke" d="
  M 270.05 718.46
  L 269.91 708.14
  A 1.45 1.45 0.0 0 0 268.44 706.71
  L 260.54 706.82
  A 4.63 4.44 -0.8 0 0 255.97 711.33
  L 256.03 715.67
  A 4.63 4.44 -0.8 0 0 260.72 720.04
  L 268.62 719.93
  A 1.45 1.45 0.0 0 0 270.05 718.46"
/>
<path stroke="#9fabaf" vector-effect="non-scaling-stroke" d="
  M 673.88 616.68
  A 8.97 8.97 0.0 0 0 664.91 607.71
  A 8.97 8.97 0.0 0 0 655.94 616.68
  A 8.97 8.97 0.0 0 0 664.91 625.65
  A 8.97 8.97 0.0 0 0 673.88 616.68"
/>
<path stroke="#9fabaf" vector-effect="non-scaling-stroke" d="
  M 351.42 623.52
  A 10.32 10.32 0.0 0 0 341.10 613.20
  A 10.32 10.32 0.0 0 0 330.78 623.52
  A 10.32 10.32 0.0 0 0 341.10 633.84
  A 10.32 10.32 0.0 0 0 351.42 623.52"
/>
<path stroke="#8d9ca2" vector-effect="non-scaling-stroke" d="
  M 195.1196 642.7523
  A 7.49 6.17 29.8 0 0 191.6863 633.6759
  A 7.49 6.17 29.8 0 0 182.1204 635.3077
  A 7.49 6.17 29.8 0 0 185.5537 644.3841
  A 7.49 6.17 29.8 0 0 195.1196 642.7523"
/>
<path stroke="#8d9ca2" vector-effect="non-scaling-stroke" d="
  M 176.08 682.44
  C 178.42 680.37 180.95 679.31 180.19 675.61
  C 177.14 660.70 164.41 669.65 157.48 673.64
  C 155.40 674.84 154.33 676.82 156.84 678.42
  Q 160.23 680.57 168.40 685.19
  C 171.66 687.03 173.48 684.72 176.08 682.44"
/>
<path stroke="#9fabaf" vector-effect="non-scaling-stroke" d="
  M 671.66 641.68
  L 677.46 652.82
  A 1.04 1.04 0.0 0 0 678.86 653.26
  L 678.98 653.20
  A 6.65 6.18 62.5 0 0 681.39 644.45
  L 680.77 643.26
  A 6.65 6.18 62.5 0 0 672.22 640.21
  L 672.10 640.28
  A 1.04 1.04 0.0 0 0 671.66 641.68"
/>
<path stroke="#9fabaf" vector-effect="non-scaling-stroke" d="
  M 624.12 662.00
  L 630.98 661.98
  A 3.09 3.09 0.0 0 0 634.06 658.88
  L 634.05 655.02
  A 7.05 6.02 89.8 0 0 628.01 647.99
  L 627.01 647.99
  A 7.05 6.02 89.8 0 0 621.01 655.06
  L 621.02 658.92
  A 3.09 3.09 0.0 0 0 624.12 662.00"
/>
<path stroke="#9fabaf" vector-effect="non-scaling-stroke" d="
  M 234.73 676.03
  A 8.96 8.96 0.0 0 0 225.77 667.07
  A 8.96 8.96 0.0 0 0 216.81 676.03
  A 8.96 8.96 0.0 0 0 225.77 684.99
  A 8.96 8.96 0.0 0 0 234.73 676.03"
/>
<path stroke="#9fabaf" vector-effect="non-scaling-stroke" d="
  M 473.53 699.01
  A 10.11 10.11 0.0 0 0 463.42 688.90
  A 10.11 10.11 0.0 0 0 453.31 699.01
  A 10.11 10.11 0.0 0 0 463.42 709.12
  A 10.11 10.11 0.0 0 0 473.53 699.01"
/>
<path stroke="#9fabaf" vector-effect="non-scaling-stroke" d="
  M 591.16 711.07
  A 10.13 10.13 0.0 0 0 581.03 700.94
  A 10.13 10.13 0.0 0 0 570.90 711.07
  A 10.13 10.13 0.0 0 0 581.03 721.20
  A 10.13 10.13 0.0 0 0 591.16 711.07"
/>
<path stroke="#9fabaf" vector-effect="non-scaling-stroke" d="
  M 650.91 769.06
  A 9.76 9.76 0.0 0 0 641.15 759.30
  A 9.76 9.76 0.0 0 0 631.39 769.06
  A 9.76 9.76 0.0 0 0 641.15 778.82
  A 9.76 9.76 0.0 0 0 650.91 769.06"
/>
<path stroke="#9fabaf" vector-effect="non-scaling-stroke" d="
  M 381.86 771.60
  A 10.15 10.15 0.0 0 0 371.71 761.45
  A 10.15 10.15 0.0 0 0 361.56 771.60
  A 10.15 10.15 0.0 0 0 371.71 781.75
  A 10.15 10.15 0.0 0 0 381.86 771.60"
/>
<path stroke="#9fabaf" vector-effect="non-scaling-stroke" d="
  M 280.13 827.04
  A 10.20 10.20 0.0 0 0 269.93 816.84
  A 10.20 10.20 0.0 0 0 259.73 827.04
  A 10.20 10.20 0.0 0 0 269.93 837.24
  A 10.20 10.20 0.0 0 0 280.13 827.04"
/>
<path stroke="#9fabaf" vector-effect="non-scaling-stroke" d="
  M 563.93 846.24
  A 10.60 10.60 0.0 0 0 553.33 835.64
  A 10.60 10.60 0.0 0 0 542.73 846.24
  A 10.60 10.60 0.0 0 0 553.33 856.84
  A 10.60 10.60 0.0 0 0 563.93 846.24"
/>
</g>
<path fill="#011d25" d="
  M 707.37 186.43
  C 708.09 188.08 709.81 187.65 711.09 186.92
  C 761.54 157.98 815.96 201.22 813.72 254.76
  C 813.63 256.98 813.73 257.85 816.14 258.35
  C 844.51 264.22 866.47 286.11 868.66 315.05
  C 870.93 345.11 849.90 368.69 821.39 374.98
  A 1.92 1.91 -4.4 0 0 819.89 376.73
  Q 819.29 385.86 817.25 395.00
  C 803.91 454.68 741.94 484.86 687.20 455.03
  Q 683.72 453.13 680.19 451.23
  A 0.86 0.86 0.0 0 0 678.97 451.70
  C 666.59 486.67 625.20 498.23 598.20 470.68
  A 1.45 1.45 0.0 0 0 595.85 471.08
  C 560.42 546.78 465.35 562.96 408.28 500.72
  Q 407.12 499.46 405.51 499.63
  Q 405.01 499.68 404.65 500.03
  C 366.91 536.78 306.45 535.02 274.01 491.96
  C 269.89 486.50 266.28 479.23 262.60 472.80
  Q 262.33 472.33 261.80 472.27
  C 259.90 472.06 259.18 473.33 257.93 474.31
  C 221.43 502.88 172.20 498.63 136.37 471.33
  Q 102.97 445.87 98.37 403.68
  A 1.93 1.93 0.0 0 0 96.82 402.00
  C 62.20 395.26 32.54 373.21 23.63 337.89
  Q 15.28 304.77 30.37 274.49
  C 47.75 239.62 83.73 224.75 121.38 230.24
  A 1.62 1.62 0.0 0 0 123.23 228.82
  C 131.85 154.67 201.23 112.90 270.68 143.61
  A 1.85 1.85 0.0 0 0 273.27 142.13
  Q 275.41 123.68 282.83 107.16
  Q 284.26 103.98 290.29 93.24
  C 293.85 86.89 296.60 79.75 300.99 73.96
  C 380.31 -30.58 537.32 -9.10 584.09 114.19
  Q 584.99 116.56 587.49 115.55
  C 621.61 101.88 656.38 103.78 682.55 131.70
  C 697.03 147.15 707.46 164.48 707.26 185.91
  A 1.31 1.27 33.9 0 0 707.37 186.43
  Z
  M 131.67 230.86
  C 131.23 231.38 131.58 231.90 132.13 232.10
  C 134.94 233.16 157.78 244.37 156.24 247.50
  A 0.92 0.71 -62.9 0 1 155.17 248.00
  Q 129.10 233.96 99.50 236.29
  Q 60.69 239.38 40.71 272.25
  C 5.28 325.03 43.27 387.05 101.36 394.85
  A 2.53 2.52 1.0 0 1 103.53 397.09
  Q 105.29 414.58 112.46 430.50
  C 136.42 484.48 203.30 504.56 252.90 470.66
  C 260.02 463.10 260.93 451.75 256.00 442.71
  Q 256.43 436.60 257.86 431.15
  Q 258.08 430.28 258.30 431.15
  L 267.25 467.04
  C 298.62 537.47 387.19 533.88 421.19 468.25
  Q 421.70 467.27 421.63 468.37
  C 421.24 474.98 416.15 484.49 413.26 489.30
  C 410.55 491.56 410.91 493.73 413.17 496.24
  C 463.42 551.87 553.98 543.36 586.54 473.75
  C 591.26 468.55 591.46 463.69 589.31 456.89
  C 588.78 455.20 584.94 442.14 586.17 441.43
  A 0.87 0.63 -27.0 0 1 587.30 441.61
  C 596.62 464.87 616.13 485.66 643.86 476.47
  C 673.52 466.64 680.68 441.09 669.04 413.75
  Q 666.27 410.87 667.70 407.56
  A 0.61 0.60 -49.2 0 1 668.77 407.48
  L 678.04 422.50
  Q 679.42 430.86 680.30 439.27
  Q 680.60 442.14 683.16 444.05
  C 741.59 487.55 817.50 439.94 812.32 369.92
  C 837.43 366.50 858.45 348.43 860.64 322.80
  C 863.03 294.92 843.75 273.70 818.30 265.80
  Q 797.46 263.72 778.27 271.42
  A 0.57 0.57 0.0 0 1 777.64 270.50
  Q 785.54 262.16 796.75 259.71
  L 805.06 258.01
  A 1.53 1.52 -2.4 0 0 806.27 256.70
  C 810.07 224.24 791.20 194.56 758.59 187.51
  C 738.15 183.10 719.08 188.39 702.16 201.15
  Q 700.95 202.06 700.99 200.54
  C 701.87 167.87 691.28 139.64 661.46 123.51
  C 634.93 109.16 608.09 110.36 582.68 126.79
  A 0.81 0.80 62.4 0 1 581.49 126.41
  Q 579.62 121.73 577.78 116.99
  C 543.03 28.01 442.28 -15.09 356.80 33.39
  Q 324.98 51.44 304.50 78.50
  C 287.58 100.87 280.80 125.83 277.85 153.36
  A 1.19 1.19 0.0 0 1 276.12 154.30
  Q 272.13 152.24 267.54 150.00
  C 204.05 119.03 134.59 160.50 131.67 230.86
  Z"
/>
<path fill="#d7edf4" d="
  M 796.75 259.71
  C 793.46 249.64 791.34 243.08 786.59 235.38
  C 765.06 200.43 725.26 200.03 693.42 220.64
  A 0.99 0.98 71.0 0 1 691.91 219.90
  C 687.38 171.25 652.28 134.17 601.17 137.70
  C 593.81 138.21 585.12 140.75 577.01 142.04
  C 575.11 142.34 573.81 141.71 573.05 139.84
  C 559.86 107.44 542.27 76.12 513.21 55.78
  C 469.89 25.48 410.70 20.07 363.44 46.13
  C 346.62 55.41 330.29 67.71 318.72 83.19
  C 312.09 92.05 306.24 104.40 300.45 115.14
  Q 295.51 124.29 293.54 134.51
  Q 290.65 149.41 286.48 163.99
  Q 285.68 166.78 286.96 171.83
  C 287.71 174.76 285.96 176.89 283.08 174.90
  C 238.03 143.65 183.35 158.82 153.15 201.85
  C 149.68 206.79 146.99 212.83 144.19 218.47
  Q 140.01 226.90 131.67 230.86
  C 134.59 160.50 204.05 119.03 267.54 150.00
  Q 272.13 152.24 276.12 154.30
  A 1.19 1.19 0.0 0 0 277.85 153.36
  C 280.80 125.83 287.58 100.87 304.50 78.50
  Q 324.98 51.44 356.80 33.39
  C 442.28 -15.09 543.03 28.01 577.78 116.99
  Q 579.62 121.73 581.49 126.41
  A 0.81 0.80 62.4 0 0 582.68 126.79
  C 608.09 110.36 634.93 109.16 661.46 123.51
  C 691.28 139.64 701.87 167.87 700.99 200.54
  Q 700.95 202.06 702.16 201.15
  C 719.08 188.39 738.15 183.10 758.59 187.51
  C 791.20 194.56 810.07 224.24 806.27 256.70
  A 1.53 1.52 -2.4 0 1 805.06 258.01
  L 796.75 259.71
  Z"
/>
<path fill="#ffffff" d="
  M 796.75 259.71
  Q 785.54 262.16 777.64 270.50
  A 0.57 0.57 0.0 0 0 778.27 271.42
  Q 797.46 263.72 818.30 265.80
  L 816.45 273.52
  Q 816.33 274.00 816.62 274.42
  Q 819.05 277.98 821.33 281.62
  C 843.23 316.53 811.19 358.42 771.93 343.56
  C 769.63 342.69 761.19 336.84 759.72 341.76
  C 744.23 393.54 686.39 410.83 646.54 372.58
  C 643.92 370.06 640.89 367.67 638.41 371.91
  C 623.12 398.07 601.77 401.25 573.76 394.92
  C 572.06 394.54 569.83 394.76 569.04 396.30
  C 560.41 412.94 548.72 426.46 532.47 435.51
  C 503.07 451.89 467.61 449.10 439.39 430.36
  C 434.48 427.09 430.01 422.30 425.29 418.20
  C 423.73 416.85 421.97 416.54 420.08 417.71
  C 366.58 451.02 301.05 438.01 273.17 379.65
  Q 271.12 375.36 269.08 371.23
  A 1.52 1.52 0.0 0 0 267.10 370.52
  Q 259.81 373.73 256.74 381.02
  Q 256.53 381.52 256.08 381.82
  Q 242.73 390.79 228.67 394.67
  C 199.63 402.68 172.80 389.16 154.78 366.71
  Q 153.16 364.69 150.66 358.19
  Q 150.46 357.67 149.92 357.56
  Q 146.90 356.90 143.43 357.35
  C 119.01 360.45 93.20 354.68 78.67 332.64
  C 57.38 300.33 68.54 264.61 100.45 244.84
  A 1.33 1.32 62.5 0 0 100.97 243.19
  Q 99.61 240.02 99.50 236.29
  Q 129.10 233.96 155.17 248.00
  A 0.92 0.71 -62.9 0 0 156.24 247.50
  C 157.78 244.37 134.94 233.16 132.13 232.10
  C 131.58 231.90 131.23 231.38 131.67 230.86
  Q 140.01 226.90 144.19 218.47
  C 146.99 212.83 149.68 206.79 153.15 201.85
  C 183.35 158.82 238.03 143.65 283.08 174.90
  C 285.96 176.89 287.71 174.76 286.96 171.83
  Q 285.68 166.78 286.48 163.99
  Q 290.65 149.41 293.54 134.51
  Q 295.51 124.29 300.45 115.14
  C 306.24 104.40 312.09 92.05 318.72 83.19
  C 330.29 67.71 346.62 55.41 363.44 46.13
  C 410.70 20.07 469.89 25.48 513.21 55.78
  C 542.27 76.12 559.86 107.44 573.05 139.84
  C 573.81 141.71 575.11 142.34 577.01 142.04
  C 585.12 140.75 593.81 138.21 601.17 137.70
  C 652.28 134.17 687.38 171.25 691.91 219.90
  A 0.99 0.98 71.0 0 0 693.42 220.64
  C 725.26 200.03 765.06 200.43 786.59 235.38
  C 791.34 243.08 793.46 249.64 796.75 259.71
  Z
  M 322.40 230.36
  L 323.70 234.00
  A 1.08 1.08 0.0 0 0 325.08 234.66
  L 326.77 234.05
  A 24.08 2.65 -19.6 0 0 348.57 223.48
  L 348.33 222.80
  A 24.08 2.65 -19.6 0 0 324.75 228.38
  L 323.06 228.98
  A 1.08 1.08 0.0 0 0 322.40 230.36
  Z
  M 550.31 229.94
  Q 555.84 233.27 560.95 236.34
  A 0.74 0.73 88.1 0 0 561.93 235.29
  Q 553.44 223.09 539.71 223.08
  C 537.52 223.08 536.53 224.22 537.11 226.38
  Q 537.25 226.91 537.80 226.99
  Q 547.79 228.42 550.31 229.94
  Z
  M 361.01 270.03
  C 356.65 286.50 338.94 291.95 334.89 271.39
  A 1.55 1.54 76.1 0 0 332.93 270.20
  C 317.22 274.89 336.99 287.77 342.47 289.28
  C 350.56 291.50 362.93 288.66 364.95 279.24
  C 365.38 277.25 364.75 270.16 362.15 269.39
  A 0.91 0.91 0.0 0 0 361.01 270.03
  Z
  M 533.93 283.93
  C 528.62 282.24 527.02 277.18 525.49 272.15
  Q 525.35 271.69 524.92 271.48
  Q 522.67 270.36 520.61 271.55
  Q 520.05 271.88 520.08 272.53
  C 521.44 297.21 553.48 298.02 555.68 273.70
  C 555.92 271.02 552.88 270.02 550.97 271.14
  Q 550.52 271.41 550.37 271.90
  C 547.88 279.78 543.56 287.01 533.93 283.93
  Z
  M 324.1931 309.0068
  A 23.20 19.46 1.4 0 0 301.4755 288.9858
  A 23.20 19.46 1.4 0 0 277.8069 307.8732
  A 23.20 19.46 1.4 0 0 300.5245 327.8942
  A 23.20 19.46 1.4 0 0 324.1931 309.0068
  Z
  M 609.4708 309.3420
  A 23.71 19.55 1.6 0 0 586.3159 289.1376
  A 23.71 19.55 1.6 0 0 562.0692 308.0180
  A 23.71 19.55 1.6 0 0 585.2241 328.2224
  A 23.71 19.55 1.6 0 0 609.4708 309.3420
  Z
  M 472.16 326.17
  C 452.65 333.18 432.62 333.46 413.38 325.50
  A 0.80 0.80 0.0 0 0 412.27 326.19
  Q 411.48 338.84 418.20 349.34
  C 425.98 361.53 441.32 367.05 454.76 361.26
  C 468.05 355.54 474.22 341.44 474.15 327.57
  A 1.49 1.49 0.0 0 0 472.16 326.17
  Z"
/>
<path fill="#1a3844" d="
  M 322.40 230.36
  A 1.08 1.08 0.0 0 1 323.06 228.98
  L 324.75 228.38
  A 24.08 2.65 -19.6 0 1 348.33 222.80
  L 348.57 223.48
  A 24.08 2.65 -19.6 0 1 326.77 234.05
  L 325.08 234.66
  A 1.08 1.08 0.0 0 1 323.70 234.00
  L 322.40 230.36
  Z"
/>
<path fill="#1a3844" d="
  M 550.31 229.94
  Q 547.79 228.42 537.80 226.99
  Q 537.25 226.91 537.11 226.38
  C 536.53 224.22 537.52 223.08 539.71 223.08
  Q 553.44 223.09 561.93 235.29
  A 0.74 0.73 88.1 0 1 560.95 236.34
  Q 555.84 233.27 550.31 229.94
  Z"
/>
<path fill="#d7edf4" d="
  M 99.50 236.29
  Q 99.61 240.02 100.97 243.19
  A 1.33 1.32 62.5 0 1 100.45 244.84
  C 68.54 264.61 57.38 300.33 78.67 332.64
  C 93.20 354.68 119.01 360.45 143.43 357.35
  Q 146.90 356.90 149.92 357.56
  Q 150.46 357.67 150.66 358.19
  Q 153.16 364.69 154.78 366.71
  C 172.80 389.16 199.63 402.68 228.67 394.67
  Q 242.73 390.79 256.08 381.82
  Q 256.53 381.52 256.74 381.02
  Q 259.81 373.73 267.10 370.52
  A 1.52 1.52 0.0 0 1 269.08 371.23
  Q 271.12 375.36 273.17 379.65
  C 301.05 438.01 366.58 451.02 420.08 417.71
  C 421.97 416.54 423.73 416.85 425.29 418.20
  C 430.01 422.30 434.48 427.09 439.39 430.36
  C 467.61 449.10 503.07 451.89 532.47 435.51
  C 548.72 426.46 560.41 412.94 569.04 396.30
  C 569.83 394.76 572.06 394.54 573.76 394.92
  C 601.77 401.25 623.12 398.07 638.41 371.91
  C 640.89 367.67 643.92 370.06 646.54 372.58
  C 686.39 410.83 744.23 393.54 759.72 341.76
  C 761.19 336.84 769.63 342.69 771.93 343.56
  C 811.19 358.42 843.23 316.53 821.33 281.62
  Q 819.05 277.98 816.62 274.42
  Q 816.33 274.00 816.45 273.52
  L 818.30 265.80
  C 843.75 273.70 863.03 294.92 860.64 322.80
  C 858.45 348.43 837.43 366.50 812.32 369.92
  Q 807.98 364.65 800.78 362.75
  C 793.98 360.96 792.35 365.25 792.94 371.01
  C 793.34 374.96 795.08 381.26 792.71 384.73
  C 765.43 424.77 733.72 427.54 689.22 418.65
  C 686.16 418.04 681.49 421.68 678.04 422.50
  L 668.77 407.48
  A 0.61 0.60 -49.2 0 0 667.70 407.56
  Q 666.27 410.87 669.04 413.75
  C 655.28 433.99 633.69 452.44 607.82 440.50
  C 604.68 439.05 601.39 436.63 598.21 434.68
  C 595.87 433.24 594.08 433.73 591.46 434.00
  C 586.74 434.48 587.61 431.21 586.61 428.35
  Q 585.09 424.00 581.34 422.22
  A 2.36 2.36 0.0 0 0 578.32 423.11
  C 550.54 467.94 502.11 498.28 448.95 473.77
  C 443.65 471.33 438.14 467.78 432.95 464.54
  C 418.09 455.27 405.79 466.86 394.69 472.94
  C 357.67 493.22 310.60 487.01 276.87 463.03
  Q 276.44 462.72 275.93 462.88
  Q 271.20 464.43 267.25 467.04
  L 258.30 431.15
  Q 258.08 430.28 257.86 431.15
  Q 256.43 436.60 256.00 442.71
  Q 230.04 446.49 214.51 447.56
  C 188.04 449.38 155.86 438.66 144.03 412.45
  Q 138.28 399.71 133.93 384.18
  C 132.87 380.39 127.77 380.53 124.24 380.46
  Q 113.77 380.24 103.53 378.11
  C 59.89 369.04 43.51 326.41 47.58 286.01
  Q 47.86 283.20 46.58 281.43
  Q 42.53 275.81 40.71 272.25
  Q 60.69 239.38 99.50 236.29
  Z"
/>
<path fill="#1a3844" d="
  M 334.89 271.39
  C 338.94 291.95 356.65 286.50 361.01 270.03
  A 0.91 0.91 0.0 0 1 362.15 269.39
  C 364.75 270.16 365.38 277.25 364.95 279.24
  C 362.93 288.66 350.56 291.50 342.47 289.28
  C 336.99 287.77 317.22 274.89 332.93 270.20
  A 1.55 1.54 76.1 0 1 334.89 271.39
  Z"
/>
<path fill="#1a3844" d="
  M 533.93 283.93
  C 543.56 287.01 547.88 279.78 550.37 271.90
  Q 550.52 271.41 550.97 271.14
  C 552.88 270.02 555.92 271.02 555.68 273.70
  C 553.48 298.02 521.44 297.21 520.08 272.53
  Q 520.05 271.88 520.61 271.55
  Q 522.67 270.36 524.92 271.48
  Q 525.35 271.69 525.49 272.15
  C 527.02 277.18 528.62 282.24 533.93 283.93
  Z"
/>
<path fill="#bddfe8" d="
  M 40.71 272.25
  Q 42.53 275.81 46.58 281.43
  Q 47.86 283.20 47.58 286.01
  C 43.51 326.41 59.89 369.04 103.53 378.11
  Q 113.77 380.24 124.24 380.46
  C 127.77 380.53 132.87 380.39 133.93 384.18
  Q 138.28 399.71 144.03 412.45
  C 155.86 438.66 188.04 449.38 214.51 447.56
  Q 230.04 446.49 256.00 442.71
  C 260.93 451.75 260.02 463.10 252.90 470.66
  C 250.97 467.71 250.36 461.93 244.76 464.06
  C 230.15 469.64 216.51 473.96 200.74 474.89
  C 168.13 476.81 141.62 459.84 123.95 432.93
  C 121.08 428.56 116.89 427.47 112.46 430.50
  Q 105.29 414.58 103.53 397.09
  A 2.53 2.52 1.0 0 0 101.36 394.85
  C 43.27 387.05 5.28 325.03 40.71 272.25
  Z"
/>
<path fill="#1a3844" d="
  M 324.1931 309.0068
  A 23.20 19.46 1.4 0 1 300.5245 327.8942
  A 23.20 19.46 1.4 0 1 277.8069 307.8732
  A 23.20 19.46 1.4 0 1 301.4755 288.9858
  A 23.20 19.46 1.4 0 1 324.1931 309.0068
  Z
  M 320.7025 307.9363
  A 19.91 15.60 -2.4 0 0 300.1567 293.1837
  A 19.91 15.60 -2.4 0 0 280.9175 309.6037
  A 19.91 15.60 -2.4 0 0 301.4633 324.3563
  A 19.91 15.60 -2.4 0 0 320.7025 307.9363
  Z"
/>
<path fill="#1a3844" d="
  M 609.4708 309.3420
  A 23.71 19.55 1.6 0 1 585.2241 328.2224
  A 23.71 19.55 1.6 0 1 562.0692 308.0180
  A 23.71 19.55 1.6 0 1 586.3159 289.1376
  A 23.71 19.55 1.6 0 1 609.4708 309.3420
  Z
  M 605.0918 307.5860
  A 19.12 15.28 -2.5 0 0 585.3235 293.1545
  A 19.12 15.28 -2.5 0 0 566.8882 309.2540
  A 19.12 15.28 -2.5 0 0 586.6565 323.6855
  A 19.12 15.28 -2.5 0 0 605.0918 307.5860
  Z"
/>
<ellipse fill="#da6b5a" cx="0.00" cy="0.00" transform="translate(300.81,308.77) rotate(-2.4)" rx="19.91" ry="15.60"/>
<ellipse fill="#da6b5a" cx="0.00" cy="0.00" transform="translate(585.99,308.42) rotate(-2.5)" rx="19.12" ry="15.28"/>
<path fill="#1a3844" d="
  M 413.38 325.50
  C 432.62 333.46 452.65 333.18 472.16 326.17
  A 1.49 1.49 0.0 0 1 474.15 327.57
  C 474.22 341.44 468.05 355.54 454.76 361.26
  C 441.32 367.05 425.98 361.53 418.20 349.34
  Q 411.48 338.84 412.27 326.19
  A 0.80 0.80 0.0 0 1 413.38 325.50
  Z
  M 458.1492 351.8850
  A 14.80 5.06 0.6 0 0 443.4030 346.6703
  A 14.80 5.06 0.6 0 0 428.5508 351.5750
  A 14.80 5.06 0.6 0 0 443.2970 356.7897
  A 14.80 5.06 0.6 0 0 458.1492 351.8850
  Z"
/>
<ellipse fill="#da6b5a" cx="0.00" cy="0.00" transform="translate(443.35,351.73) rotate(0.6)" rx="14.80" ry="5.06"/>
<path fill="#bddfe8" d="
  M 812.32 369.92
  C 817.50 439.94 741.59 487.55 683.16 444.05
  Q 680.60 442.14 680.30 439.27
  Q 679.42 430.86 678.04 422.50
  C 681.49 421.68 686.16 418.04 689.22 418.65
  C 733.72 427.54 765.43 424.77 792.71 384.73
  C 795.08 381.26 793.34 374.96 792.94 371.01
  C 792.35 365.25 793.98 360.96 800.78 362.75
  Q 807.98 364.65 812.32 369.92
  Z"
/>
<path fill="#bddfe8" d="
  M 669.04 413.75
  C 680.68 441.09 673.52 466.64 643.86 476.47
  C 616.13 485.66 596.62 464.87 587.30 441.61
  A 0.87 0.63 -27.0 0 0 586.17 441.43
  C 584.94 442.14 588.78 455.20 589.31 456.89
  C 591.46 463.69 591.26 468.55 586.54 473.75
  C 583.57 470.42 580.43 468.27 577.29 472.52
  C 538.96 524.25 472.96 533.10 423.58 490.80
  Q 423.18 490.45 422.65 490.39
  L 413.26 489.30
  C 416.15 484.49 421.24 474.98 421.63 468.37
  Q 421.70 467.27 421.19 468.25
  C 387.19 533.88 298.62 537.47 267.25 467.04
  Q 271.20 464.43 275.93 462.88
  Q 276.44 462.72 276.87 463.03
  C 310.60 487.01 357.67 493.22 394.69 472.94
  C 405.79 466.86 418.09 455.27 432.95 464.54
  C 438.14 467.78 443.65 471.33 448.95 473.77
  C 502.11 498.28 550.54 467.94 578.32 423.11
  A 2.36 2.36 0.0 0 1 581.34 422.22
  Q 585.09 424.00 586.61 428.35
  C 587.61 431.21 586.74 434.48 591.46 434.00
  C 594.08 433.73 595.87 433.24 598.21 434.68
  C 601.39 436.63 604.68 439.05 607.82 440.50
  C 633.69 452.44 655.28 433.99 669.04 413.75
  Z"
/>
<path fill="#d7edf4" d="
  M 252.90 470.66
  C 203.30 504.56 136.42 484.48 112.46 430.50
  C 116.89 427.47 121.08 428.56 123.95 432.93
  C 141.62 459.84 168.13 476.81 200.74 474.89
  C 216.51 473.96 230.15 469.64 244.76 464.06
  C 250.36 461.93 250.97 467.71 252.90 470.66
  Z"
/>
<path fill="#d7edf4" d="
  M 586.54 473.75
  C 553.98 543.36 463.42 551.87 413.17 496.24
  C 410.91 493.73 410.55 491.56 413.26 489.30
  L 422.65 490.39
  Q 423.18 490.45 423.58 490.80
  C 472.96 533.10 538.96 524.25 577.29 472.52
  C 580.43 468.27 583.57 470.42 586.54 473.75
  Z"
/>
<path fill="#3e565e" d="
  M 738.03 505.62
  A 13.82 13.82 0.0 0 1 724.21 519.44
  A 13.82 13.82 0.0 0 1 710.39 505.62
  A 13.82 13.82 0.0 0 1 724.21 491.80
  A 13.82 13.82 0.0 0 1 738.03 505.62
  Z
  M 734.57 505.53
  A 10.49 10.49 0.0 0 0 724.08 495.04
  A 10.49 10.49 0.0 0 0 713.59 505.53
  A 10.49 10.49 0.0 0 0 724.08 516.02
  A 10.49 10.49 0.0 0 0 734.57 505.53
  Z"
/>
<circle fill="#ffffff" cx="724.08" cy="505.53" r="10.49"/>
<path fill="#3e565e" d="
  M 180.23 539.87
  A 13.72 13.72 0.0 0 1 166.51 553.59
  A 13.72 13.72 0.0 0 1 152.79 539.87
  A 13.72 13.72 0.0 0 1 166.51 526.15
  A 13.72 13.72 0.0 0 1 180.23 539.87
  Z
  M 176.68 539.63
  A 10.44 10.44 0.0 0 0 166.24 529.19
  A 10.44 10.44 0.0 0 0 155.80 539.63
  A 10.44 10.44 0.0 0 0 166.24 550.07
  A 10.44 10.44 0.0 0 0 176.68 539.63
  Z"
/>
<circle fill="#ffffff" cx="166.24" cy="539.63" r="10.44"/>
<path fill="#011d25" d="
  M 675.79 562.06
  C 674.61 558.36 667.94 551.77 665.27 548.47
  A 0.35 0.35 0.0 0 1 665.69 547.94
  C 672.04 551.05 677.08 555.94 677.08 563.41
  C 677.08 569.55 673.60 573.50 667.45 574.00
  A 0.63 0.62 83.7 0 1 666.78 573.46
  C 666.60 572.20 674.01 565.33 675.30 564.04
  A 1.98 1.95 -31.5 0 0 675.79 562.06
  Z"
/>
<path fill="#1a3844" d="
  M 642.11 624.38
  A 1.49 1.49 0.0 0 0 639.91 623.71
  C 636.26 626.16 630.72 628.38 630.74 633.37
  Q 630.74 633.88 630.50 634.32
  Q 629.20 636.69 626.65 637.68
  Q 626.09 637.90 625.62 637.54
  L 615.52 629.82
  Q 614.99 629.41 614.35 629.64
  L 608.48 631.69
  A 2.45 2.43 -34.7 0 1 606.11 631.27
  Q 598.65 625.12 591.42 618.83
  C 589.84 617.45 590.75 615.94 592.07 614.78
  Q 598.60 609.02 605.35 603.56
  Q 605.75 603.24 606.25 603.24
  C 608.59 603.22 610.65 604.39 612.66 604.32
  Q 621.94 604.02 625.51 595.23
  C 627.32 590.76 621.53 589.73 619.52 587.09
  Q 613.87 579.68 618.64 570.77
  Q 618.92 570.25 619.51 570.25
  L 622.26 570.25
  Q 623.16 570.25 622.69 571.02
  Q 617.23 579.80 623.97 586.81
  C 626.01 588.92 629.73 588.72 631.86 586.64
  Q 635.56 583.04 633.79 577.57
  A 0.91 0.91 0.0 0 1 635.11 576.50
  C 644.22 581.74 652.34 574.08 652.29 564.91
  C 652.27 562.66 651.05 560.39 651.27 557.64
  Q 651.31 557.10 651.72 556.74
  L 658.84 550.39
  A 0.56 0.56 0.0 0 1 659.67 551.14
  L 654.57 558.20
  Q 654.28 558.61 654.26 559.12
  C 654.12 562.67 657.14 568.07 658.61 571.51
  A 0.93 0.93 0.0 0 1 657.65 572.80
  C 654.48 572.45 650.56 571.86 650.20 576.39
  Q 650.16 576.91 650.49 577.32
  C 652.60 579.91 662.02 590.24 661.65 593.00
  C 659.77 607.22 639.38 597.52 645.50 583.89
  A 0.54 0.53 -30.0 0 1 646.52 584.16
  Q 645.54 593.49 652.89 596.66
  Q 654.71 597.45 656.11 596.73
  C 661.15 594.15 650.99 579.99 645.19 580.56
  C 637.06 581.36 630.53 589.16 628.47 596.52
  C 627.41 600.30 631.86 604.35 633.93 607.22
  C 639.23 614.56 649.92 605.14 640.79 601.40
  Q 637.73 600.14 634.70 598.81
  Q 634.03 598.52 634.74 598.38
  Q 639.08 597.52 643.00 599.50
  C 652.79 604.43 639.78 620.20 630.92 608.84
  Q 628.20 605.34 626.46 601.71
  A 1.52 1.52 0.0 0 0 624.04 601.28
  Q 619.17 605.95 622.68 611.97
  A 1.08 1.08 0.0 0 1 622.06 613.55
  C 613.35 616.17 615.21 603.16 605.99 609.27
  Q 600.73 612.77 595.45 616.16
  A 1.73 1.73 0.0 0 0 594.80 618.31
  Q 595.42 619.70 596.76 619.93
  Q 603.51 621.10 606.38 627.32
  Q 606.59 627.78 607.06 627.97
  C 608.67 628.60 610.02 628.25 611.03 626.74
  Q 614.91 620.92 622.02 619.63
  A 1.16 1.15 7.9 0 1 623.27 621.27
  L 620.12 627.70
  A 1.27 1.26 -59.1 0 0 620.51 629.28
  L 624.96 632.52
  A 1.41 1.40 -56.6 0 0 626.99 632.10
  C 630.67 625.93 633.90 621.33 641.78 621.14
  Q 642.29 621.13 642.69 621.45
  Q 645.94 624.09 646.15 627.71
  C 646.63 635.89 632.43 640.38 632.39 636.35
  Q 632.39 635.89 632.84 635.77
  C 637.18 634.71 644.04 634.73 643.44 629.75
  Q 643.09 626.73 642.11 624.38
  Z"
/>
<path fill="#3e565e" d="
  M 696.00 587.00
  Q 699.21 587.31 703.33 586.00
  C 711.38 583.44 711.00 574.90 704.53 570.89
  Q 704.01 570.57 704.58 570.35
  C 707.80 569.10 711.05 577.01 711.47 579.01
  C 712.57 584.19 708.62 588.71 704.84 591.19
  A 2.31 2.31 0.0 0 0 704.24 594.48
  L 711.40 604.34
  Q 711.45 604.41 711.54 605.24
  Q 711.57 605.48 711.49 605.73
  Q 711.41 606.00 711.27 605.76
  L 711.11 605.49
  Q 711.02 605.33 710.85 605.27
  Q 707.69 604.06 705.23 601.66
  A 1.05 1.04 35.6 0 0 703.57 601.93
  Q 699.47 609.97 690.98 612.59
  C 682.69 615.15 679.49 605.37 683.76 599.86
  Q 684.12 599.40 684.69 599.34
  L 700.56 597.58
  Q 702.20 597.39 701.35 595.97
  L 696.00 587.00
  Z
  M 683.75 604.12
  L 685.29 609.58
  A 1.96 1.96 0.0 0 0 687.71 610.94
  L 688.36 610.75
  A 11.63 4.63 -15.8 0 0 698.29 603.13
  L 698.19 602.81
  A 11.63 4.63 -15.8 0 0 685.74 601.52
  L 685.10 601.70
  A 1.96 1.96 0.0 0 0 683.75 604.12
  Z"
/>
<path fill="#1a3844" d="
  M 696.00 587.00
  C 691.45 585.38 688.26 579.96 683.35 580.96
  Q 672.78 583.11 671.60 594.06
  C 671.40 595.89 672.42 597.90 674.48 597.22
  Q 680.27 595.33 682.25 589.13
  C 682.65 587.86 682.52 585.71 683.01 584.14
  Q 683.27 583.28 683.56 584.13
  C 686.83 593.90 676.53 604.96 668.05 596.49
  C 666.80 595.24 667.19 593.80 668.12 592.39
  Q 674.71 582.45 676.79 579.51
  C 679.57 575.58 682.31 578.49 685.68 578.31
  C 690.96 578.04 693.27 574.23 696.69 571.16
  Q 697.16 570.74 697.72 571.02
  L 698.58 571.44
  Q 699.20 571.74 698.74 572.25
  Q 692.86 578.77 696.00 587.00
  Z"
/>
<path fill="#3e565e" d="
  M 509.87 587.48
  A 14.34 14.34 0.0 0 1 495.53 601.82
  A 14.34 14.34 0.0 0 1 481.19 587.48
  A 14.34 14.34 0.0 0 1 495.53 573.14
  A 14.34 14.34 0.0 0 1 509.87 587.48
  Z
  M 505.65 587.47
  A 9.96 9.96 0.0 0 0 495.69 577.51
  A 9.96 9.96 0.0 0 0 485.73 587.47
  A 9.96 9.96 0.0 0 0 495.69 597.43
  A 9.96 9.96 0.0 0 0 505.65 587.47
  Z"
/>
<circle fill="#ffffff" cx="495.69" cy="587.47" r="9.96"/>
<path fill="#ffffff" d="
  M 683.75 604.12
  A 1.96 1.96 0.0 0 1 685.10 601.70
  L 685.74 601.52
  A 11.63 4.63 -15.8 0 1 698.19 602.81
  L 698.29 603.13
  A 11.63 4.63 -15.8 0 1 688.36 610.75
  L 687.71 610.94
  A 1.96 1.96 0.0 0 1 685.29 609.58
  L 683.75 604.12
  Z"
/>
<path fill="#3e565e" d="
  M 698.21 637.67
  L 690.33 637.78
  A 2.10 2.09 -13.3 0 1 688.41 636.60
  Q 686.43 632.43 681.76 631.92
  Q 681.11 631.85 681.04 631.20
  C 680.32 625.27 681.88 617.87 690.09 621.58
  C 695.74 624.14 700.27 628.23 705.92 630.80
  A 2.01 2.00 -39.2 0 0 707.25 630.93
  Q 709.34 630.42 708.56 628.36
  Q 707.00 624.25 707.29 619.86
  A 0.85 0.85 0.0 0 1 708.67 619.26
  L 720.78 629.14
  A 1.46 1.46 0.0 0 0 723.09 628.46
  Q 725.72 620.36 734.07 618.83
  A 0.96 0.96 0.0 0 0 734.74 617.42
  C 732.98 614.23 724.70 608.98 721.52 606.51
  Q 721.11 606.19 720.60 606.29
  C 717.68 606.86 713.03 611.69 710.54 613.49
  A 2.12 2.10 -50.7 0 1 708.42 613.71
  C 704.42 611.88 707.11 608.41 709.82 607.46
  Q 715.10 605.63 719.71 602.44
  C 721.58 601.15 722.46 602.14 723.90 603.31
  Q 731.89 609.81 739.59 616.65
  Q 740.07 617.07 739.72 617.61
  Q 739.07 618.64 737.58 619.84
  Q 730.41 625.66 723.25 631.45
  A 1.98 1.97 35.4 0 1 721.32 631.77
  C 712.43 628.41 705.86 631.69 703.53 640.82
  Q 703.40 641.34 703.80 641.69
  C 710.51 647.76 714.60 653.47 712.36 663.03
  A 1.72 1.70 -2.2 0 1 711.19 664.28
  Q 694.91 669.28 688.80 653.96
  C 687.49 650.69 691.35 649.04 693.62 648.35
  Q 694.26 648.15 694.44 648.80
  Q 695.69 653.41 696.46 657.99
  C 696.90 660.58 704.29 661.15 706.47 661.60
  Q 709.04 662.12 709.10 659.75
  Q 709.39 648.90 698.85 647.35
  A 1.05 1.04 -83.3 0 1 697.96 646.22
  L 698.67 638.16
  Q 698.72 637.66 698.21 637.67
  Z
  M 697.53 635.91
  Q 698.18 636.19 698.14 635.48
  Q 697.69 628.63 690.98 625.83
  Q 686.59 624.00 685.01 628.22
  A 2.23 2.22 -68.0 0 0 686.21 631.05
  L 697.53 635.91
  Z"
/>
<path fill="#3e565e" d="
  M 182.46 692.50
  L 183.75 690.29
  Q 185.84 691.18 187.89 690.68
  Q 188.44 690.55 188.68 690.04
  Q 192.63 681.38 201.74 678.64
  Q 202.17 678.51 202.53 678.79
  C 204.86 680.62 210.97 685.06 208.96 688.48
  Q 202.51 699.51 189.38 694.96
  A 1.05 1.05 0.0 0 0 188.22 696.60
  Q 194.24 704.22 201.46 711.21
  C 203.15 712.85 205.28 713.02 207.12 711.72
  Q 207.38 711.53 207.70 711.51
  Q 207.89 711.50 208.07 711.50
  Q 208.55 711.49 208.53 711.02
  Q 208.47 709.80 207.47 708.79
  C 201.98 703.21 208.10 695.06 214.24 693.51
  C 215.85 693.11 217.61 693.91 219.23 694.67
  C 227.15 698.38 218.41 708.53 214.44 711.26
  C 211.84 713.04 210.89 714.65 212.01 717.62
  Q 212.25 718.25 212.93 718.25
  L 221.76 718.25
  A 1.32 1.32 0.0 0 1 222.89 720.26
  Q 219.76 725.36 216.57 730.07
  C 214.66 732.89 221.59 740.36 223.32 742.68
  C 226.31 746.71 232.87 736.19 234.43 734.19
  C 236.05 732.12 235.53 730.38 234.08 728.25
  Q 230.70 723.30 227.48 718.51
  A 0.85 0.85 0.0 0 1 228.48 717.24
  L 237.32 720.55
  A 1.28 1.27 17.9 0 0 238.99 719.70
  L 240.49 714.34
  Q 240.67 713.71 240.12 713.35
  C 234.43 709.67 229.96 707.01 229.31 699.58
  C 229.04 696.54 230.96 695.32 233.52 694.54
  C 242.56 691.79 247.89 700.65 246.62 708.50
  A 0.39 0.38 -55.0 0 1 245.90 708.63
  Q 243.80 704.82 241.95 700.75
  C 238.26 692.63 229.36 701.16 233.97 704.79
  C 236.03 706.41 242.08 711.88 244.51 711.48
  Q 256.70 709.44 260.88 697.68
  C 263.05 691.55 255.24 684.66 250.46 682.43
  A 1.98 1.98 0.0 0 0 247.70 683.73
  C 247.05 686.16 244.91 690.40 248.69 691.39
  Q 252.99 692.50 257.27 693.49
  Q 257.98 693.65 257.81 694.36
  L 257.43 695.91
  Q 257.29 696.49 256.70 696.49
  Q 247.92 696.55 243.45 689.69
  C 240.69 685.45 246.38 680.86 249.39 678.68
  Q 249.83 678.36 250.33 678.58
  C 255.02 680.57 258.61 683.21 262.07 686.87
  C 264.53 689.49 268.70 690.34 271.29 687.74
  A 2.02 2.01 45.3 0 0 271.30 684.92
  Q 268.43 681.99 267.13 678.10
  A 0.67 0.67 0.0 0 1 268.06 677.28
  Q 274.29 680.35 279.59 684.70
  C 280.95 685.82 282.97 686.32 284.11 684.87
  Q 287.35 680.76 292.19 678.65
  A 2.14 2.13 68.2 0 0 293.34 675.96
  Q 290.88 669.23 284.01 667.79
  C 278.10 666.56 274.85 670.38 270.93 673.68
  Q 270.43 674.10 269.87 673.76
  L 268.53 672.97
  Q 268.03 672.67 268.08 672.09
  Q 268.40 668.58 271.24 666.41
  A 1.38 1.37 36.7 0 0 270.89 664.03
  Q 266.86 662.52 262.54 662.52
  Q 262.08 662.52 262.32 662.92
  L 262.46 663.16
  Q 262.57 663.34 262.47 663.52
  C 258.00 671.57 249.06 673.24 240.77 670.88
  C 235.28 669.32 241.21 664.14 242.92 662.84
  Q 243.32 662.53 243.35 662.02
  L 243.55 657.15
  A 0.61 0.61 0.0 0 0 242.50 656.71
  C 240.61 658.74 238.20 660.70 235.23 659.81
  C 231.05 658.54 228.24 654.96 229.03 650.43
  C 229.91 645.36 236.13 640.51 239.74 637.01
  Q 241.33 635.46 239.48 633.81
  C 236.20 630.88 233.86 633.42 230.52 634.02
  Q 230.05 634.10 229.71 633.78
  C 226.24 630.54 237.61 622.13 235.61 618.09
  Q 235.38 617.64 234.96 617.38
  Q 228.62 613.41 226.68 606.10
  A 1.55 1.54 -44.5 0 0 223.70 606.08
  Q 221.53 613.71 215.37 618.64
  A 1.96 1.96 0.0 0 0 215.14 621.48
  L 223.81 631.08
  A 1.46 1.46 0.0 0 1 222.69 633.52
  Q 218.07 633.42 213.68 634.45
  Q 213.16 634.57 212.92 635.04
  L 211.73 637.27
  Q 211.48 637.73 211.50 638.25
  L 211.52 639.30
  Q 211.54 639.96 212.17 640.17
  C 219.17 642.48 223.35 645.92 221.51 654.25
  Q 220.21 660.14 215.35 659.98
  C 208.81 659.76 205.88 650.07 205.80 644.76
  Q 205.69 637.77 210.21 633.48
  C 216.18 627.83 214.08 625.40 212.16 618.59
  Q 212.01 618.08 212.30 617.63
  Q 216.46 611.11 221.00 604.93
  C 225.26 599.11 229.26 604.08 232.02 607.54
  Q 235.42 611.79 238.66 616.16
  C 241.14 619.52 238.42 623.60 237.46 626.55
  Q 237.26 627.13 237.70 627.57
  L 247.43 637.30
  Q 247.88 637.75 248.38 637.36
  C 250.18 635.95 251.76 634.04 253.22 632.91
  Q 259.28 628.23 267.06 628.25
  C 272.21 628.27 272.94 628.04 273.90 633.08
  C 275.54 641.67 270.49 649.34 262.83 652.75
  A 2.23 2.23 0.0 0 1 259.94 651.73
  Q 254.29 640.71 241.61 640.39
  Q 241.01 640.38 240.60 640.81
  L 231.44 650.35
  A 1.60 1.60 0.0 0 0 231.86 652.87
  C 233.79 653.88 238.45 656.17 240.43 655.16
  Q 240.92 654.90 241.07 654.37
  Q 242.67 648.62 245.98 643.70
  A 0.59 0.59 0.0 0 1 247.06 644.04
  Q 246.93 649.17 244.89 653.80
  Q 244.66 654.32 244.79 654.88
  L 245.68 658.55
  A 0.61 0.61 0.0 0 0 246.79 658.74
  C 250.12 653.63 261.35 656.74 266.69 657.53
  Q 267.22 657.61 267.54 658.03
  Q 273.60 665.87 283.58 662.77
  Q 284.10 662.61 284.54 662.92
  Q 291.68 668.00 298.56 673.29
  C 300.49 674.78 300.38 675.84 298.70 677.47
  Q 292.45 683.52 285.97 689.38
  Q 285.58 689.73 285.06 689.71
  C 281.91 689.63 278.72 688.13 275.82 688.75
  Q 267.47 690.56 264.89 698.87
  A 1.51 1.51 0.0 0 0 265.56 700.61
  Q 277.25 707.61 273.85 720.58
  C 273.27 722.80 271.88 723.82 269.63 723.49
  Q 269.14 723.41 268.69 723.63
  Q 267.08 724.43 264.97 724.27
  Q 253.72 723.40 248.62 713.60
  Q 248.28 712.97 247.58 713.07
  L 246.24 713.26
  Q 245.73 713.33 245.62 713.84
  Q 244.39 719.32 239.45 721.72
  A 2.28 2.28 0.0 0 0 238.19 724.02
  C 239.46 735.08 237.45 743.80 226.62 748.88
  Q 226.17 749.09 225.71 748.93
  C 215.82 745.50 212.07 734.62 214.04 725.01
  C 214.53 722.63 207.74 716.78 206.05 714.90
  Q 203.40 711.96 200.99 715.73
  Q 194.06 726.54 181.26 722.49
  C 179.63 721.97 178.69 721.48 178.35 719.64
  Q 176.15 707.70 185.73 701.48
  A 2.56 2.56 0.0 0 0 186.40 697.80
  L 182.46 692.50
  Z
  M 266.29 631.60
  L 255.63 636.43
  A 2.43 2.43 0.0 0 0 254.43 639.65
  L 254.47 639.74
  A 8.79 8.18 65.6 0 0 265.55 644.37
  L 265.73 644.28
  A 8.79 8.18 65.6 0 0 269.55 632.90
  L 269.51 632.81
  A 2.43 2.43 0.0 0 0 266.29 631.60
  Z
  M 215.8028 655.0706
  A 7.05 3.84 69.9 0 0 216.9861 647.1303
  A 7.05 3.84 69.9 0 0 210.9572 641.8294
  A 7.05 3.84 69.9 0 0 209.7739 649.7697
  A 7.05 3.84 69.9 0 0 215.8028 655.0706
  Z
  M 248.32 660.58
  Q 247.59 660.80 246.76 660.57
  Q 246.13 660.40 246.27 661.03
  C 249.17 674.57 255.86 663.79 261.81 662.96
  A 0.46 0.46 0.0 0 0 261.97 662.10
  Q 255.48 658.42 248.32 660.58
  Z
  M 205.82 687.16
  L 203.07 683.03
  A 1.55 1.55 0.0 0 0 200.92 682.60
  L 200.82 682.67
  A 14.06 3.70 -33.6 0 0 191.15 693.53
  L 191.52 694.08
  A 14.06 3.70 -33.6 0 0 205.28 689.38
  L 205.38 689.31
  A 1.55 1.55 0.0 0 0 205.82 687.16
  Z
  M 217.45 698.85
  L 212.35 697.11
  A 1.34 1.34 0.0 0 0 210.65 697.95
  L 210.60 698.09
  A 11.23 3.71 -71.2 0 0 210.50 709.92
  L 211.10 710.12
  A 11.23 3.71 -71.2 0 0 218.23 700.69
  L 218.28 700.55
  A 1.34 1.34 0.0 0 0 217.45 698.85
  Z
  M 194.8071 708.7309
  A 7.63 6.52 -35.3 0 0 184.8124 707.8188
  A 7.63 6.52 -35.3 0 0 182.3529 717.5491
  A 7.63 6.52 -35.3 0 0 192.3476 718.4612
  A 7.63 6.52 -35.3 0 0 194.8071 708.7309
  Z
  M 270.05 718.46
  L 269.91 708.14
  A 1.45 1.45 0.0 0 0 268.44 706.71
  L 260.54 706.82
  A 4.63 4.44 -0.8 0 0 255.97 711.33
  L 256.03 715.67
  A 4.63 4.44 -0.8 0 0 260.72 720.04
  L 268.62 719.93
  A 1.45 1.45 0.0 0 0 270.05 718.46
  Z"
/>
<path fill="#3e565e" d="
  M 676.57 617.82
  A 12.10 12.10 0.0 0 1 664.47 629.92
  A 12.10 12.10 0.0 0 1 652.37 617.82
  A 12.10 12.10 0.0 0 1 664.47 605.72
  A 12.10 12.10 0.0 0 1 676.57 617.82
  Z
  M 673.88 616.68
  A 8.97 8.97 0.0 0 0 664.91 607.71
  A 8.97 8.97 0.0 0 0 655.94 616.68
  A 8.97 8.97 0.0 0 0 664.91 625.65
  A 8.97 8.97 0.0 0 0 673.88 616.68
  Z"
/>
<circle fill="#ffffff" cx="664.91" cy="616.68" r="8.97"/>
<path fill="#3e565e" d="
  M 329.75 615.71
  Q 332.22 614.66 333.46 612.25
  C 346.83 601.87 363.13 622.67 350.10 633.83
  C 337.81 644.36 320.69 629.02 329.75 615.71
  Z
  M 351.42 623.52
  A 10.32 10.32 0.0 0 0 341.10 613.20
  A 10.32 10.32 0.0 0 0 330.78 623.52
  A 10.32 10.32 0.0 0 0 341.10 633.84
  A 10.32 10.32 0.0 0 0 351.42 623.52
  Z"
/>
<path fill="#1a3844" d="
  M 333.46 612.25
  Q 332.22 614.66 329.75 615.71
  Q 330.84 613.17 333.46 612.25
  Z"
/>
<circle fill="#ffffff" cx="341.10" cy="623.52" r="10.32"/>
<path fill="#ffffff" d="
  M 697.53 635.91
  L 686.21 631.05
  A 2.23 2.22 -68.0 0 1 685.01 628.22
  Q 686.59 624.00 690.98 625.83
  Q 697.69 628.63 698.14 635.48
  Q 698.18 636.19 697.53 635.91
  Z"
/>
<path fill="#1a3844" d="
  M 183.75 690.29
  L 182.46 692.50
  L 178.83 688.08
  Q 178.51 687.68 178.00 687.75
  C 173.85 688.28 169.04 691.36 165.43 688.48
  Q 158.46 682.92 151.88 677.51
  A 1.94 1.94 0.0 0 1 151.88 674.51
  Q 158.57 669.06 165.23 663.73
  C 168.36 661.23 170.24 663.20 173.09 663.49
  C 181.04 664.31 190.16 656.70 182.84 648.76
  Q 176.20 641.56 178.50 631.26
  C 178.72 630.25 180.07 629.32 181.19 629.11
  Q 194.10 626.71 202.71 636.70
  A 1.84 1.83 -43.6 0 1 202.65 639.15
  Q 196.23 645.97 189.56 652.81
  C 183.85 658.65 195.65 666.66 200.00 667.87
  Q 205.73 669.46 206.35 663.32
  A 0.97 0.96 -78.7 0 0 205.68 662.30
  L 192.14 658.13
  A 0.78 0.78 0.0 0 1 191.83 656.82
  C 195.74 652.99 204.84 658.28 207.84 661.16
  C 213.13 666.26 207.05 673.08 201.17 671.93
  Q 193.19 670.38 188.27 663.44
  A 2.26 2.26 0.0 0 0 185.34 662.76
  L 182.07 664.55
  Q 181.64 664.79 181.53 665.27
  Q 181.03 667.53 182.77 669.35
  Q 183.16 669.76 182.90 670.26
  L 180.72 674.43
  Q 180.45 674.93 180.77 675.41
  Q 183.21 679.07 182.05 683.12
  C 181.78 684.07 180.73 685.32 180.47 686.55
  Q 180.35 687.08 180.75 687.46
  L 183.75 690.29
  Z
  M 195.1196 642.7523
  A 7.49 6.17 29.8 0 0 191.6863 633.6759
  A 7.49 6.17 29.8 0 0 182.1204 635.3077
  A 7.49 6.17 29.8 0 0 185.5537 644.3841
  A 7.49 6.17 29.8 0 0 195.1196 642.7523
  Z
  M 176.08 682.44
  C 178.42 680.37 180.95 679.31 180.19 675.61
  C 177.14 660.70 164.41 669.65 157.48 673.64
  C 155.40 674.84 154.33 676.82 156.84 678.42
  Q 160.23 680.57 168.40 685.19
  C 171.66 687.03 173.48 684.72 176.08 682.44
  Z"
/>
<path fill="#ffffff" d="
  M 266.29 631.60
  A 2.43 2.43 0.0 0 1 269.51 632.81
  L 269.55 632.90
  A 8.79 8.18 65.6 0 1 265.73 644.28
  L 265.55 644.37
  A 8.79 8.18 65.6 0 1 254.47 639.74
  L 254.43 639.65
  A 2.43 2.43 0.0 0 1 255.63 636.43
  L 266.29 631.60
  Z"
/>
<ellipse fill="#ffffff" cx="0.00" cy="0.00" transform="translate(188.62,639.03) rotate(29.8)" rx="7.49" ry="6.17"/>
<path fill="#3e565e" d="
  M 652.70 665.69
  A 0.78 0.78 0.0 0 0 653.83 665.27
  L 655.41 660.66
  Q 655.63 660.01 656.27 659.76
  Q 658.89 658.71 661.49 660.00
  A 1.93 1.93 0.0 0 1 662.00 663.10
  Q 658.24 666.85 654.70 670.46
  Q 652.41 672.79 654.74 675.00
  Q 660.73 680.68 664.01 688.31
  A 1.14 1.14 0.0 0 0 666.17 688.12
  Q 667.27 683.47 669.76 679.54
  C 671.18 677.30 673.72 675.49 675.54 673.19
  A 0.94 0.93 -47.6 0 0 675.49 671.98
  L 666.91 662.69
  Q 666.04 661.74 666.69 660.63
  C 668.07 658.24 670.94 660.12 672.51 661.01
  C 677.08 663.58 676.73 656.63 675.52 654.47
  C 672.72 649.48 668.99 645.40 666.67 640.06
  Q 666.48 639.61 666.62 639.14
  C 667.40 636.60 675.23 634.21 676.69 633.64
  Q 677.16 633.45 677.62 633.67
  Q 678.97 634.29 679.64 635.09
  C 684.96 641.40 687.99 649.30 683.91 657.24
  C 682.74 659.53 680.46 661.89 678.67 664.21
  Q 678.35 664.62 678.34 665.15
  C 678.19 675.90 675.62 684.05 666.28 690.14
  A 2.09 2.07 42.6 0 1 664.16 690.22
  Q 650.44 682.76 651.63 667.02
  C 651.84 664.37 645.19 657.73 643.26 655.59
  A 1.58 1.57 -50.5 0 0 640.74 655.84
  Q 633.32 668.14 618.50 665.26
  Q 617.15 664.99 616.81 663.03
  Q 615.28 654.18 620.29 646.82
  C 622.96 642.90 630.33 637.65 632.66 645.78
  C 633.86 649.99 640.18 651.38 643.80 652.98
  C 648.28 654.95 654.72 647.09 656.18 643.93
  C 658.35 639.24 651.44 636.50 648.62 640.10
  C 647.23 641.88 646.77 645.92 645.78 648.52
  Q 645.58 649.04 645.04 648.90
  C 643.81 648.58 643.22 647.66 643.45 646.37
  Q 645.36 635.98 655.83 633.47
  Q 656.32 633.35 656.73 633.66
  C 665.85 640.41 659.57 649.15 652.52 653.41
  Q 652.11 653.66 651.88 654.07
  L 651.06 655.49
  Q 650.81 655.92 650.77 656.42
  C 650.63 658.05 650.90 664.62 652.70 665.69
  Z
  M 671.66 641.68
  L 677.46 652.82
  A 1.04 1.04 0.0 0 0 678.86 653.26
  L 678.98 653.20
  A 6.65 6.18 62.5 0 0 681.39 644.45
  L 680.77 643.26
  A 6.65 6.18 62.5 0 0 672.22 640.21
  L 672.10 640.28
  A 1.04 1.04 0.0 0 0 671.66 641.68
  Z
  M 624.12 662.00
  L 630.98 661.98
  A 3.09 3.09 0.0 0 0 634.06 658.88
  L 634.05 655.02
  A 7.05 6.02 89.8 0 0 628.01 647.99
  L 627.01 647.99
  A 7.05 6.02 89.8 0 0 621.01 655.06
  L 621.02 658.92
  A 3.09 3.09 0.0 0 0 624.12 662.00
  Z"
/>
<path fill="#ffffff" d="
  M 671.66 641.68
  A 1.04 1.04 0.0 0 1 672.10 640.28
  L 672.22 640.21
  A 6.65 6.18 62.5 0 1 680.77 643.26
  L 681.39 644.45
  A 6.65 6.18 62.5 0 1 678.98 653.20
  L 678.86 653.26
  A 1.04 1.04 0.0 0 1 677.46 652.82
  L 671.66 641.68
  Z"
/>
<ellipse fill="#ffffff" cx="0.00" cy="0.00" transform="translate(213.38,648.45) rotate(69.9)" rx="7.05" ry="3.84"/>
<path fill="#ffffff" d="
  M 624.12 662.00
  A 3.09 3.09 0.0 0 1 621.02 658.92
  L 621.01 655.06
  A 7.05 6.02 89.8 0 1 627.01 647.99
  L 628.01 647.99
  A 7.05 6.02 89.8 0 1 634.05 655.02
  L 634.06 658.88
  A 3.09 3.09 0.0 0 1 630.98 661.98
  L 624.12 662.00
  Z"
/>
<path fill="#ffffff" d="
  M 248.32 660.58
  Q 255.48 658.42 261.97 662.10
  A 0.46 0.46 0.0 0 1 261.81 662.96
  C 255.86 663.79 249.17 674.57 246.27 661.03
  Q 246.13 660.40 246.76 660.57
  Q 247.59 660.80 248.32 660.58
  Z"
/>
<path fill="#3e565e" d="
  M 238.35 676.23
  A 12.49 12.49 0.0 0 1 225.86 688.72
  A 12.49 12.49 0.0 0 1 213.37 676.23
  A 12.49 12.49 0.0 0 1 225.86 663.74
  A 12.49 12.49 0.0 0 1 238.35 676.23
  Z
  M 234.73 676.03
  A 8.96 8.96 0.0 0 0 225.77 667.07
  A 8.96 8.96 0.0 0 0 216.81 676.03
  A 8.96 8.96 0.0 0 0 225.77 684.99
  A 8.96 8.96 0.0 0 0 234.73 676.03
  Z"
/>
<path fill="#ffffff" d="
  M 176.08 682.44
  C 173.48 684.72 171.66 687.03 168.40 685.19
  Q 160.23 680.57 156.84 678.42
  C 154.33 676.82 155.40 674.84 157.48 673.64
  C 164.41 669.65 177.14 660.70 180.19 675.61
  C 180.95 679.31 178.42 680.37 176.08 682.44
  Z"
/>
<circle fill="#ffffff" cx="225.77" cy="676.03" r="8.96"/>
<path fill="#ffffff" d="
  M 205.82 687.16
  A 1.55 1.55 0.0 0 1 205.38 689.31
  L 205.28 689.38
  A 14.06 3.70 -33.6 0 1 191.52 694.08
  L 191.15 693.53
  A 14.06 3.70 -33.6 0 1 200.82 682.67
  L 200.92 682.60
  A 1.55 1.55 0.0 0 1 203.07 683.03
  L 205.82 687.16
  Z"
/>
<path fill="#3e565e" d="
  M 451.50 691.21
  Q 453.85 689.84 455.21 687.50
  C 462.82 681.88 473.59 685.78 476.40 694.39
  C 478.61 701.18 475.62 708.77 468.99 711.64
  C 456.36 717.13 443.03 703.10 451.50 691.21
  Z
  M 473.53 699.01
  A 10.11 10.11 0.0 0 0 463.42 688.90
  A 10.11 10.11 0.0 0 0 453.31 699.01
  A 10.11 10.11 0.0 0 0 463.42 709.12
  A 10.11 10.11 0.0 0 0 473.53 699.01
  Z"
/>
<path fill="#1a3844" d="
  M 455.21 687.50
  Q 453.85 689.84 451.50 691.21
  Q 452.56 688.55 455.21 687.50
  Z"
/>
<circle fill="#ffffff" cx="463.42" cy="699.01" r="10.11"/>
<path fill="#ffffff" d="
  M 217.45 698.85
  A 1.34 1.34 0.0 0 1 218.28 700.55
  L 218.23 700.69
  A 11.23 3.71 -71.2 0 1 211.10 710.12
  L 210.50 709.92
  A 11.23 3.71 -71.2 0 1 210.60 698.09
  L 210.65 697.95
  A 1.34 1.34 0.0 0 1 212.35 697.11
  L 217.45 698.85
  Z"
/>
<path fill="#3e565e" d="
  M 588.54 700.25
  Q 589.46 702.99 592.25 703.71
  C 597.52 711.38 593.86 722.07 585.19 724.51
  C 573.14 727.91 562.69 715.13 569.52 704.20
  C 573.36 698.05 582.40 695.54 588.54 700.25
  Z
  M 591.16 711.07
  A 10.13 10.13 0.0 0 0 581.03 700.94
  A 10.13 10.13 0.0 0 0 570.90 711.07
  A 10.13 10.13 0.0 0 0 581.03 721.20
  A 10.13 10.13 0.0 0 0 591.16 711.07
  Z"
/>
<path fill="#1a3844" d="
  M 588.54 700.25
  Q 591.17 701.12 592.25 703.71
  Q 589.46 702.99 588.54 700.25
  Z"
/>
<circle fill="#ffffff" cx="581.03" cy="711.07" r="10.13"/>
<ellipse fill="#ffffff" cx="0.00" cy="0.00" transform="translate(188.58,713.14) rotate(-35.3)" rx="7.63" ry="6.52"/>
<path fill="#ffffff" d="
  M 270.05 718.46
  A 1.45 1.45 0.0 0 1 268.62 719.93
  L 260.72 720.04
  A 4.63 4.44 -0.8 0 1 256.03 715.67
  L 255.97 711.33
  A 4.63 4.44 -0.8 0 1 260.54 706.82
  L 268.44 706.71
  A 1.45 1.45 0.0 0 1 269.91 708.14
  L 270.05 718.46
  Z"
/>
<path fill="#3e565e" d="
  M 654.63 769.01
  A 13.68 13.68 0.0 0 1 640.95 782.69
  A 13.68 13.68 0.0 0 1 627.27 769.01
  A 13.68 13.68 0.0 0 1 640.95 755.33
  A 13.68 13.68 0.0 0 1 654.63 769.01
  Z
  M 650.91 769.06
  A 9.76 9.76 0.0 0 0 641.15 759.30
  A 9.76 9.76 0.0 0 0 631.39 769.06
  A 9.76 9.76 0.0 0 0 641.15 778.82
  A 9.76 9.76 0.0 0 0 650.91 769.06
  Z"
/>
<path fill="#3e565e" d="
  M 385.42 771.39
  A 13.74 13.74 0.0 0 1 371.68 785.13
  A 13.74 13.74 0.0 0 1 357.94 771.39
  A 13.74 13.74 0.0 0 1 371.68 757.65
  A 13.74 13.74 0.0 0 1 385.42 771.39
  Z
  M 381.86 771.60
  A 10.15 10.15 0.0 0 0 371.71 761.45
  A 10.15 10.15 0.0 0 0 361.56 771.60
  A 10.15 10.15 0.0 0 0 371.71 781.75
  A 10.15 10.15 0.0 0 0 381.86 771.60
  Z"
/>
<circle fill="#ffffff" cx="641.15" cy="769.06" r="9.76"/>
<circle fill="#ffffff" cx="371.71" cy="771.60" r="10.15"/>
<path fill="#3e565e" d="
  M 283.05 827.09
  A 13.48 13.48 0.0 0 1 269.57 840.57
  A 13.48 13.48 0.0 0 1 256.09 827.09
  A 13.48 13.48 0.0 0 1 269.57 813.61
  A 13.48 13.48 0.0 0 1 283.05 827.09
  Z
  M 280.13 827.04
  A 10.20 10.20 0.0 0 0 269.93 816.84
  A 10.20 10.20 0.0 0 0 259.73 827.04
  A 10.20 10.20 0.0 0 0 269.93 837.24
  A 10.20 10.20 0.0 0 0 280.13 827.04
  Z"
/>
<circle fill="#ffffff" cx="269.93" cy="827.04" r="10.20"/>
<path fill="#011d25" d="
  M 439.25 890.71
  L 439.25 890.29
  L 443.48 889.27
  Q 443.97 889.15 444.42 889.35
  C 457.48 895.16 455.00 873.40 455.00 867.77
  Q 455.00 867.29 454.67 866.94
  Q 452.67 864.78 450.55 866.30
  Q 448.08 868.06 441.07 875.15
  Q 440.72 875.50 440.63 875.01
  L 439.97 871.48
  Q 439.88 871.01 440.36 871.00
  Q 448.76 870.75 447.63 862.19
  C 447.00 857.38 459.30 851.95 457.17 846.92
  C 455.57 843.14 450.07 844.02 447.30 845.69
  Q 446.86 845.96 446.64 846.43
  C 445.59 848.70 444.89 850.45 442.34 851.36
  Q 436.46 853.46 429.89 852.96
  A 0.52 0.51 -58.0 0 1 429.67 852.00
  L 433.53 849.77
  Q 434.09 849.44 433.90 848.82
  Q 432.46 844.29 428.19 843.98
  C 426.07 843.82 424.22 845.37 421.87 844.70
  C 417.70 843.52 413.66 845.44 414.16 850.30
  Q 414.21 850.81 413.75 851.02
  C 411.07 852.25 403.24 855.09 402.06 850.62
  Q 400.37 844.22 394.02 843.00
  C 388.84 842.00 391.00 850.08 392.55 852.22
  C 394.83 855.36 398.60 857.32 399.80 861.03
  Q 399.95 861.47 399.60 861.77
  Q 397.65 863.45 397.72 866.05
  Q 397.73 866.59 398.22 866.82
  L 408.59 871.53
  Q 409.00 871.71 409.00 872.16
  L 409.00 874.46
  A 0.55 0.55 0.0 0 1 408.13 874.91
  L 396.14 866.32
  Q 395.69 866.00 395.15 866.00
  L 394.00 866.00
  Q 393.22 866.00 393.85 865.53
  C 398.19 862.30 395.43 860.44 393.00 857.76
  C 389.74 854.18 386.58 845.62 391.02 841.76
  C 395.29 838.04 403.06 845.22 406.78 847.73
  C 408.57 848.93 409.71 847.89 411.17 847.42
  C 416.68 845.61 413.49 841.50 413.70 837.85
  Q 414.27 828.17 423.19 823.67
  Q 424.48 823.01 426.14 824.37
  Q 435.08 831.68 433.49 844.00
  Q 433.11 846.94 436.07 848.47
  C 438.27 849.60 440.70 847.88 442.67 846.12
  C 447.10 842.18 454.50 837.27 459.25 844.14
  Q 459.53 844.56 459.52 845.06
  C 459.39 852.13 456.35 856.59 451.41 861.22
  Q 451.03 861.57 450.98 862.08
  Q 450.77 864.41 453.02 864.90
  C 461.44 866.74 471.81 866.71 476.10 875.66
  Q 476.32 876.12 476.17 876.61
  Q 473.43 885.34 464.87 886.18
  C 462.55 886.42 459.66 885.44 456.87 885.66
  Q 456.33 885.70 455.96 886.09
  L 451.63 890.78
  A 1.56 1.55 -44.9 0 0 451.62 892.88
  C 453.88 895.33 457.25 898.54 458.30 901.50
  C 459.28 904.25 460.01 909.15 456.24 910.36
  Q 446.91 913.34 441.52 905.21
  Q 441.20 904.73 440.63 904.73
  Q 439.13 904.74 437.36 906.09
  Q 431.22 910.76 433.50 919.02
  Q 434.08 921.11 432.19 923.40
  C 422.97 934.58 411.66 922.88 414.74 911.51
  Q 414.90 910.93 414.54 910.45
  L 409.29 903.43
  A 1.54 1.54 0.0 0 0 406.72 903.59
  Q 400.84 913.92 389.34 909.84
  A 2.07 2.06 9.9 0 1 387.96 907.88
  C 387.99 901.56 390.73 899.00 394.66 894.55
  Q 395.01 894.16 395.03 893.64
  Q 395.26 887.12 388.82 886.16
  C 382.86 885.28 377.08 884.87 372.74 880.02
  C 371.53 878.67 370.83 877.50 371.72 875.66
  C 376.24 866.34 383.70 867.55 392.55 866.20
  Q 393.21 866.10 392.91 866.70
  L 392.26 867.96
  Q 392.01 868.45 392.01 869.01
  Q 391.97 876.15 392.02 883.29
  C 392.03 885.50 393.12 886.52 395.32 885.57
  Q 401.60 882.87 408.35 879.59
  A 1.05 1.05 0.0 0 1 409.86 880.45
  L 410.59 888.77
  A 1.34 1.33 -4.9 0 0 412.04 889.99
  C 415.87 889.66 420.69 891.38 422.68 894.88
  Q 423.01 895.47 422.38 895.68
  Q 417.05 897.46 415.21 902.46
  C 413.30 907.63 421.84 908.12 424.77 908.15
  C 430.33 908.21 434.20 905.39 435.82 900.14
  A 1.19 1.19 0.0 0 1 437.25 899.34
  Q 443.27 900.85 446.57 905.71
  Q 447.99 907.82 449.31 908.33
  C 458.42 911.84 459.39 898.33 449.23 896.96
  A 1.33 1.33 0.0 0 1 448.08 895.68
  Q 447.93 890.11 442.32 889.98
  Q 441.84 889.97 441.45 890.25
  Q 440.50 890.94 439.25 890.71
  Z
  M 430.85 835.70
  A 7.32 7.32 0.0 0 0 423.53 828.38
  A 7.32 7.32 0.0 0 0 416.21 835.70
  A 7.32 7.32 0.0 0 0 423.53 843.02
  A 7.32 7.32 0.0 0 0 430.85 835.70
  Z
  M 472.6956 874.6524
  A 8.24 6.92 -13.1 0 0 463.1016 869.7801
  A 8.24 6.92 -13.1 0 0 456.6444 878.3876
  A 8.24 6.92 -13.1 0 0 466.2384 883.2599
  A 8.24 6.92 -13.1 0 0 472.6956 874.6524
  Z
  M 391.2657 875.1172
  A 8.40 6.85 -11.0 0 0 381.7130 869.9959
  A 8.40 6.85 -11.0 0 0 374.7743 878.3228
  A 8.40 6.85 -11.0 0 0 384.3270 883.4441
  A 8.40 6.85 -11.0 0 0 391.2657 875.1172
  Z
  M 406.34 890.14
  L 408.40 889.04
  Q 408.81 888.82 408.92 888.37
  C 409.56 885.60 407.29 881.85 404.01 883.27
  Q 400.78 884.67 397.72 886.08
  A 1.78 1.77 -33.1 0 0 397.13 888.86
  L 400.60 892.81
  Q 401.16 893.44 400.51 893.99
  Q 398.33 895.85 391.75 901.52
  C 387.23 905.41 395.11 911.60 400.56 906.16
  Q 400.93 905.79 401.02 905.28
  Q 402.12 899.60 407.75 899.14
  Q 408.22 899.10 408.64 899.31
  Q 411.49 900.66 414.56 901.08
  Q 415.24 901.17 415.61 900.60
  Q 417.31 898.05 417.16 894.98
  A 1.51 1.50 5.9 0 0 416.04 893.61
  L 406.46 891.15
  Q 405.10 890.80 406.34 890.14
  Z
  M 425.5023 924.4371
  A 7.82 6.00 76.6 0 0 429.5267 915.4395
  A 7.82 6.00 76.6 0 0 421.8777 909.2229
  A 7.82 6.00 76.6 0 0 417.8533 918.2205
  A 7.82 6.00 76.6 0 0 425.5023 924.4371
  Z"
/>
<path fill="#3e565e" d="
  M 567.59 846.14
  A 13.85 13.85 0.0 0 1 553.74 859.99
  A 13.85 13.85 0.0 0 1 539.89 846.14
  A 13.85 13.85 0.0 0 1 553.74 832.29
  A 13.85 13.85 0.0 0 1 567.59 846.14
  Z
  M 563.93 846.24
  A 10.60 10.60 0.0 0 0 553.33 835.64
  A 10.60 10.60 0.0 0 0 542.73 846.24
  A 10.60 10.60 0.0 0 0 553.33 856.84
  A 10.60 10.60 0.0 0 0 563.93 846.24
  Z"
/>
<circle fill="#ffffff" cx="553.33" cy="846.24" r="10.60"/>
<path fill="#011d25" d="
  M 418.15 861.04
  A 2.43 2.42 -26.4 0 0 419.32 857.58
  L 416.78 853.22
  Q 416.38 852.52 417.10 852.87
  C 420.53 854.51 423.38 861.12 418.77 862.73
  C 414.91 864.07 412.81 862.58 410.04 866.89
  Q 409.59 867.58 409.33 866.79
  L 407.70 861.85
  A 0.74 0.74 0.0 0 1 408.70 860.94
  Q 413.37 863.04 418.15 861.04
  Z"
/>
<path fill="#011d25" d="
  M 436.54 865.70
  Q 434.59 863.82 432.72 861.80
  Q 432.41 861.45 432.83 861.25
  L 436.43 859.52
  Q 437.01 859.25 437.12 859.88
  L 438.71 868.63
  Q 438.84 869.35 438.43 868.74
  C 437.64 867.55 437.63 866.75 436.54 865.70
  Z"
/>
<path fill="#011d25" d="
  M 428.96 871.75
  C 420.26 864.31 413.24 882.56 423.44 883.00
  C 427.88 883.20 430.28 879.55 430.54 875.50
  C 433.17 884.40 423.44 890.24 418.20 882.06
  Q 414.39 876.13 417.87 871.27
  C 421.01 866.89 426.12 867.26 428.96 871.75
  Z"
/>
<path fill="#ffffff" d="
  M 428.96 871.75
  L 430.54 875.50
  C 430.28 879.55 427.88 883.20 423.44 883.00
  C 413.24 882.56 420.26 864.31 428.96 871.75
  Z"
/>
<path fill="#011d25" d="
  M 438.00 889.71
  Q 436.04 889.82 434.76 891.12
  Q 434.29 891.59 434.88 891.89
  Q 435.92 892.43 437.00 891.54
  Q 437.36 892.83 436.77 894.01
  Q 436.49 894.56 435.87 894.54
  L 432.33 894.40
  A 1.76 1.75 -88.8 0 0 430.50 896.16
  L 430.50 898.98
  Q 430.50 899.49 430.05 899.25
  Q 427.79 898.01 427.82 896.46
  Q 427.96 890.14 434.35 890.08
  A 1.87 1.84 16.4 0 0 435.87 889.27
  Q 439.13 884.41 440.60 878.78
  Q 440.77 878.15 440.97 878.77
  C 441.78 881.31 448.91 882.72 448.76 885.33
  A 0.67 0.67 0.0 0 1 447.61 885.76
  Q 444.78 882.78 440.71 882.94
  Q 440.08 882.97 439.90 883.57
  L 438.00 889.71
  Z"
/>
<path fill="#bddfe8" d="
  M 438.00 889.71
  L 439.25 890.29
  L 439.25 890.71
  L 437.00 891.54
  Q 435.92 892.43 434.88 891.89
  Q 434.29 891.59 434.76 891.12
  Q 436.04 889.82 438.00 889.71
  Z"
/>
</svg>
