<svg width="223" height="214" viewBox="0 0 223 214" fill="none" xmlns="http://www.w3.org/2000/svg">
<g opacity="0.9">
<path d="M113.363 0.449586C113.943 0.746394 114.391 1.25192 114.619 1.86616C116.215 6.15882 117.138 10.6089 117.389 15.2163C117.489 17.0765 117.274 18.4537 116.745 19.348C115.979 20.6501 114.716 21.3083 112.955 21.3226C112.616 21.3294 112.279 21.2031 112.01 20.9685C109.613 18.9152 108.475 16.5471 108.597 13.8641C108.904 7.21052 109.284 3.20762 109.735 1.85543C110.357 0.00958995 111.567 -0.459027 113.363 0.449586Z" fill="#F8DD4A"/>
<path d="M65.3441 17.8885C64.8646 17.8813 64.5389 18.0602 64.3672 18.4251C64.1167 18.976 63.9807 19.2621 63.9592 19.2836C63.1577 20.3353 62.2022 21.226 61.0929 21.9558C59.3037 19.3873 57.8866 16.6329 56.8417 13.6924C56.584 12.9698 56.5339 12.3545 56.6914 11.8466C57.0278 10.7877 57.8365 10.6911 59.1176 11.5568C61.6296 13.2381 63.7052 15.3486 65.3441 17.8885Z" fill="#F9E47A"/>
<path d="M163.658 24.3275C162.47 23.841 161.582 23.1935 160.996 22.385C160.638 21.8842 160.183 21.7268 159.632 21.9128C160.892 19.2514 162.688 17.148 165.021 15.6026C166.016 14.9516 166.353 15.1698 166.03 16.2573L163.658 24.3275Z" fill="#FAE789"/>
<path d="M65.3441 17.8885C67.5842 19.8273 69.6346 21.9343 71.4954 24.2094C72.8266 25.8335 73.4743 27.3788 73.4385 28.8455C73.3741 31.3925 71.7853 32.5622 68.672 32.3547C68.3315 32.3337 68.0047 32.1893 67.7488 31.9469C64.8073 29.1209 62.5887 25.7905 61.0929 21.9558C62.2022 21.226 63.1577 20.3353 63.9592 19.2836C63.9807 19.2621 64.1167 18.976 64.3672 18.4251C64.5389 18.0602 64.8646 17.8813 65.3441 17.8885Z" fill="#F8DD4A"/>
<path d="M159.632 21.9128C160.183 21.7268 160.638 21.8842 160.996 22.385C161.582 23.1935 162.47 23.841 163.658 24.3275C162.728 28.3769 161.121 32.0936 158.838 35.4776C157.893 36.8799 156.87 37.6884 155.768 37.903C154.222 38.2035 152.983 37.5059 152.053 35.8103C151.972 35.6653 151.922 35.5027 151.908 35.3328C151.893 35.1629 151.913 34.9893 151.967 34.823C153.527 29.9508 156.082 25.6474 159.632 21.9128Z" fill="#F8E065"/>
<path d="M202.294 37.3557C202.802 37.8279 202.856 38.5218 202.455 39.4376C198.913 47.5006 194.214 54.8339 188.36 61.4375C186.778 63.2118 184.971 63.4872 182.939 62.2638C180.541 60.8186 179.636 58.8261 180.223 56.2863C180.53 54.9627 181.496 53.6427 183.121 52.3263C185.912 50.0583 188.593 47.6723 191.162 45.1683C194.132 42.2708 197.331 39.6308 200.759 37.2483C200.987 37.0869 201.264 37.0094 201.543 37.0289C201.823 37.0485 202.088 37.1639 202.294 37.3557Z" fill="#F8DD4A"/>
<path d="M187.812 117.693C187.877 116.577 187.823 115.478 187.651 114.398C187.537 113.697 187.111 112.713 186.374 111.447C185.415 109.801 184.978 108.02 185.064 106.103C185.143 104.328 185.05 102.951 184.785 101.971C183.962 98.9947 183.207 96.0041 182.52 92.9992C182.486 92.8513 182.489 92.6913 182.527 92.5301C182.566 92.369 182.641 92.2105 182.745 92.0656C183.525 90.971 183.322 89.7654 182.133 88.449C180.996 87.1898 179.926 84.9899 178.924 81.8491C178.909 81.799 178.813 81.1766 178.634 79.9818C178.448 78.787 177.582 78.2146 176.036 78.2647C175.874 78.2672 175.715 78.2216 175.58 78.1337C175.444 78.0458 175.337 77.9196 175.274 77.771C173.971 74.7089 172.407 71.8329 170.582 69.1428C170.546 69.0927 170.346 68.7636 169.981 68.1555C169.172 66.8104 168.099 66.3669 166.761 66.8248C166.402 66.9495 166.013 66.9565 165.649 66.8447C165.284 66.7328 164.963 66.508 164.732 66.2023C162.506 63.2762 160.137 60.6111 157.625 58.2073C155.249 55.9393 152.364 53.9003 148.972 52.0902C143.368 49.0854 137.557 46.5598 131.538 44.5137C127.952 43.2974 123.68 42.3387 118.72 41.6376C114.361 41.0223 110.003 40.4249 105.644 39.8454C111.499 38.7293 116.33 38.3859 120.137 38.8152C145.2 41.6483 164.463 53.6069 177.925 74.691C178.483 75.5567 179.113 76.3688 179.815 77.1271C180.039 77.3727 180.192 77.6931 180.255 78.05C180.484 79.3522 181.121 80.411 182.166 81.2266C182.459 81.4575 182.672 81.7451 182.778 82.053C183.987 85.53 185.222 88.9999 186.481 92.4626C186.753 93.2139 186.861 94.0044 186.803 94.8343C186.768 95.3852 186.739 95.9325 186.717 96.4763C186.703 96.9986 186.785 97.5351 186.964 98.086C188.109 101.57 188.668 105.14 188.639 108.796C188.639 108.939 188.714 110.209 188.865 112.606C188.972 114.359 188.621 116.054 187.812 117.693Z" fill="#FAE789"/>
<path d="M105.644 39.8454C110.003 40.4249 114.361 41.0223 118.72 41.6376C123.68 42.3387 127.952 43.2974 131.538 44.5137C137.557 46.5598 143.368 49.0854 148.972 52.0902C152.364 53.9003 155.249 55.9393 157.625 58.2073C160.137 60.6111 162.506 63.2762 164.732 66.2023C164.963 66.508 165.284 66.7328 165.649 66.8447C166.013 66.9565 166.402 66.9495 166.761 66.8248C168.099 66.3669 169.172 66.8104 169.981 68.1555C170.346 68.7636 170.546 69.0927 170.582 69.1428C172.407 71.8329 173.971 74.7089 175.274 77.771C175.337 77.9196 175.444 78.0458 175.58 78.1337C175.715 78.2216 175.874 78.2672 176.036 78.2647C177.582 78.2146 178.448 78.787 178.634 79.9818C178.813 81.1766 178.909 81.799 178.924 81.8491C179.926 84.9899 180.996 87.1898 182.133 88.449C183.322 89.7654 183.525 90.971 182.745 92.0656C182.641 92.2105 182.566 92.369 182.527 92.5301C182.489 92.6913 182.486 92.8513 182.52 92.9992C183.207 96.0041 183.962 98.9947 184.785 101.971C185.05 102.951 185.143 104.328 185.064 106.103C184.978 108.02 185.415 109.801 186.374 111.447C187.111 112.713 187.537 113.697 187.651 114.398C187.823 115.478 187.877 116.577 187.812 117.693C188.149 120.218 188.134 122.454 187.769 124.4C185.859 134.538 181.711 143.903 175.327 152.495C168.149 162.175 159.321 169.609 148.843 174.796C142.774 177.794 135.95 179.811 128.371 180.848C103.143 184.29 81.014 177.69 61.9839 161.049C57.8186 157.407 54.4048 153.544 51.7424 149.458C49.0228 145.28 46.6145 140.662 44.5176 135.604C38.4414 120.909 37.3464 106.174 41.2326 91.4002C44.6321 78.465 51.5886 67.2648 62.102 57.7995C73.8464 47.2181 88.3606 41.2334 105.644 39.8454ZM99.7185 52.6912C99.7185 52.5192 99.6846 52.349 99.6188 52.1901C99.553 52.0313 99.4565 51.887 99.3349 51.7654C99.2133 51.6438 99.0689 51.5474 98.91 51.4816C98.7511 51.4158 98.5808 51.3819 98.4088 51.3819C98.0614 51.3819 97.7283 51.5199 97.4827 51.7654C97.2371 52.0109 97.0991 52.3439 97.0991 52.6912C97.0991 53.0384 97.2371 53.3714 97.4827 53.617C97.7283 53.8625 98.0614 54.0004 98.4088 54.0004C98.7561 54.0004 99.0893 53.8625 99.3349 53.617C99.5805 53.3714 99.7185 53.0384 99.7185 52.6912ZM96.0887 57.6229C95.9948 57.5032 95.8729 57.4072 95.7301 57.3404C95.5872 57.2737 95.4262 57.2375 95.2562 57.234C95.0862 57.2305 94.9106 57.2596 94.7393 57.3199C94.5681 57.3801 94.4046 57.4701 94.2581 57.5849C94.1117 57.6997 93.9852 57.837 93.8858 57.9889C93.7865 58.1408 93.7162 58.3043 93.6791 58.4701C93.642 58.636 93.6387 58.801 93.6695 58.9555C93.7002 59.1101 93.7644 59.2513 93.8583 59.3711C93.9523 59.4909 94.0742 59.5869 94.217 59.6536C94.3598 59.7204 94.5209 59.7565 94.6908 59.7601C94.8608 59.7636 95.0365 59.7344 95.2077 59.6742C95.379 59.614 95.5425 59.5239 95.6889 59.4091C95.8354 59.2943 95.9619 59.1571 96.0612 59.0052C96.1606 58.8533 96.2308 58.6898 96.268 58.5239C96.3051 58.358 96.3084 58.1931 96.2776 58.0385C96.2468 57.8839 96.1827 57.7427 96.0887 57.6229ZM86.7717 61.5555C86.7717 60.9948 86.5489 60.4571 86.1523 60.0606C85.7557 59.6641 85.2177 59.4414 84.6569 59.4414C84.096 59.4414 83.558 59.6641 83.1614 60.0606C82.7648 60.4571 82.542 60.9948 82.542 61.5555C82.542 62.1162 82.7648 62.654 83.1614 63.0505C83.558 63.4469 84.096 63.6697 84.6569 63.6697C85.2177 63.6697 85.7557 63.4469 86.1523 63.0505C86.5489 62.654 86.7717 62.1162 86.7717 61.5555ZM94.4585 64.1827C94.5008 63.9503 94.4055 63.7028 94.1937 63.4945C93.982 63.2863 93.671 63.1344 93.3293 63.0723C92.9875 63.0103 92.643 63.043 92.3715 63.1635C92.0999 63.2839 91.9237 63.4822 91.8814 63.7146C91.8392 63.947 91.9344 64.1946 92.1462 64.4028C92.358 64.6111 92.6689 64.7629 93.0107 64.825C93.3524 64.8871 93.697 64.8543 93.9685 64.7338C94.24 64.6134 94.4163 64.4152 94.4585 64.1827ZM57.9582 67.3077C56.2835 67.7799 55.0918 68.828 54.3833 70.4521C54.361 70.5047 54.3526 70.5622 54.359 70.619C54.3654 70.6758 54.3863 70.7301 54.4198 70.7764C54.4532 70.8228 54.4981 70.8598 54.55 70.8838C54.6019 70.9078 54.6591 70.9181 54.7161 70.9135C56.5626 70.7704 57.951 70.0657 58.8814 68.7994C59.2249 68.3272 59.2249 67.9015 58.8814 67.5223C58.7827 67.41 58.6436 67.3302 58.4803 67.2923C58.3169 67.2543 58.136 67.2596 57.9582 67.3077ZM79.7005 71.0849C79.6513 70.9897 79.579 70.9077 79.4876 70.8435C79.3961 70.7793 79.2874 70.7342 79.1676 70.7108C79.0478 70.6874 78.9193 70.6861 78.7894 70.707C78.6595 70.7279 78.5307 70.7707 78.4104 70.8327C78.1676 70.958 77.9741 71.1546 77.8725 71.3791C77.7709 71.6036 77.7696 71.8377 77.8688 72.0299C77.918 72.1251 77.9903 72.2071 78.0818 72.2713C78.1732 72.3355 78.2819 72.3806 78.4017 72.404C78.5215 72.4274 78.65 72.4287 78.7799 72.4078C78.9099 72.3869 79.0386 72.3442 79.1589 72.2821C79.4018 72.1568 79.5953 71.9603 79.6968 71.7358C79.7984 71.5112 79.7997 71.2771 79.7005 71.0849ZM108.897 73.414C107.881 75.174 109.033 75.5532 112.354 74.5515C112.453 74.5226 112.544 74.4698 112.618 74.3977C112.693 74.3256 112.748 74.2364 112.78 74.1379C112.812 74.0394 112.819 73.9347 112.801 73.8328C112.783 73.7309 112.74 73.635 112.676 73.5535C111.187 71.679 109.928 71.6325 108.897 73.414ZM49.5846 76.0218C49.3556 76.9375 49.6168 77.4813 50.3683 77.653C50.5175 77.6881 50.678 77.6722 50.8291 77.6071C50.9803 77.5421 51.1152 77.431 51.2164 77.2881C52.4331 75.5854 52.1217 74.945 50.2824 75.3671C50.1141 75.4062 49.9602 75.4878 49.8373 75.6031C49.7144 75.7185 49.627 75.8632 49.5846 76.0218ZM138.623 79.0374C138.623 78.7272 138.5 78.4296 138.281 78.2103C138.061 77.9909 137.763 77.8677 137.453 77.8677C137.143 77.8677 136.845 77.9909 136.626 78.2103C136.406 78.4296 136.283 78.7272 136.283 79.0374C136.283 79.3477 136.406 79.6452 136.626 79.8645C136.845 80.0839 137.143 80.2072 137.453 80.2072C137.763 80.2072 138.061 80.0839 138.281 79.8645C138.5 79.6452 138.623 79.3477 138.623 79.0374ZM59.6852 81.1207C59.8194 80.9879 59.9194 80.823 59.9793 80.6355C60.0393 80.448 60.058 80.2416 60.0344 80.0279C60.0109 79.8143 59.9455 79.5977 59.8421 79.3904C59.7387 79.1832 59.5992 78.9894 59.4316 78.8201C59.0931 78.4782 58.6608 78.2568 58.2298 78.2048C57.7987 78.1527 57.4041 78.2741 57.1329 78.5424C56.9987 78.6752 56.8987 78.84 56.8388 79.0275C56.7788 79.2151 56.7601 79.4215 56.7837 79.6352C56.8072 79.8488 56.8726 80.0654 56.976 80.2727C57.0794 80.4799 57.2189 80.6737 57.3865 80.843C57.7249 81.1849 58.1573 81.4062 58.5883 81.4583C59.0194 81.5104 59.414 81.389 59.6852 81.1207ZM82.5088 79.9314C82.6027 79.883 82.6847 79.8135 82.75 79.727C82.8153 79.6406 82.8626 79.5387 82.8893 79.4274C82.9159 79.3161 82.9214 79.1974 82.9054 79.0782C82.8894 78.959 82.8522 78.8416 82.7959 78.7326C82.7397 78.6237 82.6655 78.5253 82.5775 78.4432C82.4896 78.3611 82.3897 78.2968 82.2835 78.2541C82.1772 78.2113 82.0668 78.1909 81.9585 78.194C81.8502 78.1971 81.746 78.2236 81.6521 78.2721C81.5581 78.3206 81.4762 78.39 81.4109 78.4765C81.3456 78.563 81.2982 78.6648 81.2716 78.7761C81.2449 78.8875 81.2394 79.0061 81.2554 79.1253C81.2715 79.2446 81.3087 79.362 81.3649 79.471C81.4212 79.5799 81.4954 79.6783 81.5833 79.7604C81.6712 79.8425 81.7712 79.9067 81.8774 79.9495C81.9836 79.9922 82.094 80.0127 82.2024 80.0096C82.3107 80.0065 82.4148 79.9799 82.5088 79.9314ZM49.6671 81.4264C49.7363 81.4458 49.8097 81.448 49.8829 81.4327C49.9562 81.4175 50.028 81.3851 50.0943 81.3375C50.1605 81.2898 50.2198 81.2278 50.2688 81.1551C50.3179 81.0823 50.3557 81.0001 50.3801 80.9133C50.4294 80.7379 50.4212 80.5542 50.3572 80.4024C50.2932 80.2506 50.1787 80.1433 50.039 80.104C49.9697 80.0846 49.8964 80.0824 49.8231 80.0976C49.7498 80.1129 49.678 80.1453 49.6118 80.1929C49.5456 80.2406 49.4862 80.3025 49.4372 80.3753C49.3881 80.4481 49.3503 80.5303 49.3259 80.6171C49.2766 80.7925 49.2849 80.9762 49.3488 81.128C49.4128 81.2798 49.5273 81.3871 49.6671 81.4264ZM173.717 88.4061C173.896 88.957 174.311 89.5759 174.962 90.2627C175.156 90.4702 175.359 90.5989 175.574 90.649C175.932 90.7277 176.19 90.6669 176.347 90.4666C176.483 90.2877 176.49 90.0123 176.369 89.6403C175.481 86.9573 174.039 84.625 172.042 82.6432C171.926 82.5271 171.781 82.4446 171.624 82.4049C171.467 82.3652 171.303 82.3696 171.151 82.4179C170.357 82.6683 169.076 83.2263 167.308 84.092C165.168 85.1294 165.816 85.7804 169.251 86.0452C169.391 86.0553 169.526 86.0989 169.645 86.1723C169.764 86.2457 169.863 86.3467 169.935 86.4668C170.006 86.5869 170.048 86.7224 170.056 86.862C170.064 87.0016 170.038 87.141 169.981 87.2686C169.265 88.8998 169.97 89.0822 172.096 87.8159C172.239 87.7314 172.399 87.6796 172.564 87.6641C172.729 87.6486 172.895 87.67 173.051 87.7265C173.206 87.7831 173.346 87.8734 173.462 87.991C173.577 88.1085 173.664 88.2504 173.717 88.4061ZM162.799 85.0686C162.799 84.7384 162.668 84.4218 162.434 84.1883C162.201 83.9549 161.884 83.8237 161.554 83.8237C161.224 83.8237 160.907 83.9549 160.673 84.1883C160.44 84.4218 160.309 84.7384 160.309 85.0686C160.309 85.3987 160.44 85.7154 160.673 85.9488C160.907 86.1823 161.224 86.3134 161.554 86.3134C161.884 86.3134 162.201 86.1823 162.434 85.9488C162.668 85.7154 162.799 85.3987 162.799 85.0686ZM116.584 89.3505C115.188 87.197 114.251 88.0019 113.771 91.7651C113.678 92.5163 113.782 92.942 114.082 93.0422C114.44 93.1638 115.027 92.8955 115.843 92.2373C116.107 92.0217 116.423 91.8794 116.761 91.8248C117.098 91.7702 117.444 91.8051 117.765 91.9261C120.191 92.8418 122.524 93.314 124.764 93.3426C124.919 93.3467 125.07 93.2946 125.186 93.197C125.301 93.0993 125.373 92.9634 125.387 92.8168C125.508 91.436 124.682 91.0103 122.907 91.5397C121.296 92.0262 119.794 91.9261 118.398 91.2392C117.825 90.9602 117.221 90.3306 116.584 89.3505ZM130.761 89.7091C130.871 89.4967 130.828 89.2167 130.643 88.9308C130.457 88.6449 130.144 88.3765 129.772 88.1846C129.588 88.0896 129.395 88.0162 129.204 87.9687C129.013 87.9211 128.828 87.9004 128.66 87.9076C128.491 87.9147 128.342 87.9498 128.221 88.0106C128.101 88.0714 128.011 88.1569 127.956 88.2621C127.847 88.4745 127.889 88.7545 128.075 89.0404C128.26 89.3263 128.573 89.5947 128.945 89.7866C129.129 89.8816 129.322 89.955 129.513 90.0025C129.704 90.0501 129.889 90.0708 130.058 90.0636C130.226 90.0564 130.375 90.0214 130.496 89.9606C130.617 89.8998 130.707 89.8143 130.761 89.7091ZM150.379 102.32C151.133 102.291 151.83 101.585 152.317 100.355C152.803 99.1263 153.04 97.4755 152.974 95.7662C152.909 94.0569 152.546 92.4291 151.966 91.2409C151.387 90.0527 150.638 89.4014 149.884 89.4303C149.13 89.4593 148.433 90.1661 147.946 91.3952C147.46 92.6244 147.223 94.2752 147.289 95.9845C147.354 97.6938 147.717 99.3216 148.297 100.51C148.876 101.698 149.625 102.349 150.379 102.32ZM88.4601 103.163C89.2195 103.044 89.8469 102.285 90.2042 101.054C90.5615 99.8225 90.6195 98.2193 90.3654 96.5968C90.2395 95.7934 90.0408 95.0095 89.7806 94.2898C89.5204 93.5701 89.2039 92.9287 88.849 92.4023C88.4941 91.8758 88.1078 91.4746 87.7122 91.2216C87.3166 90.9686 86.9194 90.8686 86.5434 90.9275C85.7839 91.0464 85.1565 91.8049 84.7992 93.0363C84.4419 94.2676 84.3839 95.8709 84.6381 97.4933C84.7639 98.2967 84.9626 99.0806 85.2228 99.8003C85.483 100.52 85.7995 101.161 86.1544 101.688C86.5094 102.214 86.8956 102.615 87.2912 102.869C87.6868 103.122 88.084 103.222 88.4601 103.163ZM81.3152 93.9091C81.3347 93.5995 81.1953 93.2927 80.9278 93.0561C80.6603 92.8194 80.2865 92.6725 79.8887 92.6474C79.4909 92.6224 79.1017 92.7214 78.8066 92.9227C78.5115 93.1239 78.3348 93.4109 78.3153 93.7205C78.2959 94.0301 78.4352 94.337 78.7027 94.5736C78.9703 94.8102 79.344 94.9572 79.7418 94.9822C80.1396 95.0072 80.5289 94.9082 80.8239 94.707C81.119 94.5057 81.2957 94.2188 81.3152 93.9091ZM116.809 94.1905C115.127 93.8685 114.859 94.1404 116.004 95.0061C116.211 95.1563 116.444 95.2422 116.702 95.2636C117.868 95.3709 118.165 95.142 117.593 94.5768C117.392 94.3836 117.131 94.2549 116.809 94.1905ZM137.249 99.3201C136.848 99.2701 136.419 99.3738 135.961 99.6313C135.617 99.8174 135.632 99.9819 136.004 100.125C139.11 101.341 140.219 100.536 139.332 97.7104C139.11 97.0021 138.845 96.7517 138.537 96.9592C138.28 97.138 138.104 97.7175 138.011 98.6977C138.003 98.789 137.977 98.8779 137.934 98.9589C137.891 99.04 137.833 99.1116 137.762 99.1696C137.691 99.2276 137.609 99.2708 137.521 99.2967C137.433 99.3225 137.34 99.3305 137.249 99.3201ZM158.816 98.2792C159.346 98.594 159.575 98.5511 159.503 98.1504C159.484 98.0392 159.427 97.9356 159.341 97.8533C159.255 97.771 159.143 97.7137 159.02 97.6889C157.746 97.4028 157.678 97.5995 158.816 98.2792ZM166.761 101.048C167.591 100.862 167.73 100.379 167.179 99.5992C167.085 99.4656 166.954 99.3602 166.799 99.2941C166.644 99.2279 166.471 99.2036 166.299 99.2236C164.631 99.4096 164.456 99.9462 165.773 100.833C165.925 100.938 166.092 101.011 166.262 101.048C166.433 101.085 166.602 101.085 166.761 101.048ZM79.1161 101.952C79.1251 101.736 78.9643 101.522 78.6689 101.356C78.3736 101.191 77.968 101.088 77.5413 101.07C77.1146 101.052 76.7018 101.121 76.3937 101.261C76.0855 101.401 75.9073 101.601 75.8983 101.818C75.8892 102.034 76.0501 102.248 76.3454 102.414C76.6407 102.579 77.0463 102.682 77.473 102.7C77.8997 102.718 78.3125 102.649 78.6207 102.509C78.9288 102.369 79.107 102.168 79.1161 101.952ZM114.276 106.435C112.858 105.87 111.509 105.151 110.228 104.278C108.933 103.391 108.249 103.438 108.178 104.418C108.145 104.822 108.227 105.228 108.413 105.586C108.599 105.945 108.882 106.243 109.23 106.446C116.616 110.76 123.579 110.678 130.121 106.199C131.28 105.398 132.225 104.4 132.955 103.205C133.038 103.067 133.073 102.907 133.054 102.752C133.034 102.597 132.961 102.457 132.848 102.357C132.196 101.785 131.595 101.799 131.044 102.4C130.243 103.266 129.838 103.702 129.831 103.709C126.546 106.228 122.846 107.44 118.731 107.347C117.199 107.312 115.714 107.008 114.276 106.435ZM82.8426 103.785C83.2792 102.676 82.8283 102.304 81.49 102.668C79.9011 103.105 79.5648 103.709 80.4809 104.482C81.5257 105.355 82.313 105.122 82.8426 103.785ZM177.545 105.92C177.585 105.664 177.496 105.399 177.296 105.181C177.096 104.964 176.802 104.814 176.479 104.762C176.318 104.737 176.156 104.737 176 104.762C175.845 104.787 175.699 104.837 175.572 104.908C175.444 104.98 175.337 105.072 175.258 105.179C175.178 105.287 175.126 105.407 175.106 105.534C175.066 105.79 175.155 106.055 175.355 106.272C175.555 106.49 175.849 106.64 176.173 106.692C176.333 106.717 176.495 106.717 176.651 106.692C176.807 106.667 176.952 106.617 177.08 106.546C177.207 106.474 177.314 106.382 177.394 106.274C177.473 106.167 177.525 106.047 177.545 105.92ZM61.0518 108.089C61.1454 108.179 61.2594 108.246 61.3873 108.285C61.5153 108.325 61.6546 108.337 61.7974 108.321C61.9402 108.304 62.0836 108.26 62.2195 108.19C62.3554 108.12 62.4811 108.026 62.5894 107.913C62.6977 107.8 62.7865 107.67 62.8508 107.532C62.915 107.393 62.9534 107.248 62.9638 107.105C62.9742 106.961 62.9564 106.823 62.9114 106.697C62.8663 106.57 62.795 106.459 62.7013 106.37C62.6077 106.28 62.4937 106.213 62.3658 106.174C62.2378 106.134 62.0985 106.122 61.9557 106.138C61.8129 106.155 61.6695 106.199 61.5336 106.269C61.3977 106.339 61.272 106.433 61.1637 106.546C61.0554 106.659 60.9666 106.788 60.9023 106.927C60.8381 107.066 60.7996 107.211 60.7893 107.354C60.7789 107.497 60.7967 107.636 60.8417 107.762C60.8868 107.888 60.9581 107.999 61.0518 108.089ZM67.8669 110.642C67.9599 110.971 68.0923 111.29 68.2641 111.597C68.944 112.821 69.3913 112.792 69.606 111.511C69.6324 111.364 69.6201 111.205 69.57 111.047C69.5198 110.889 69.433 110.736 69.3161 110.599C68.6434 109.805 68.2927 108.878 68.2641 107.82C68.2577 107.63 68.2146 107.452 68.1391 107.303C68.0636 107.154 67.9586 107.04 67.8347 106.972C67.0045 106.528 67.0152 107.752 67.8669 110.642ZM157.337 107.198C157.264 107.066 157.142 106.969 156.997 106.927C156.852 106.885 156.696 106.903 156.564 106.975L153.763 108.521C153.631 108.594 153.534 108.716 153.492 108.861C153.45 109.006 153.467 109.162 153.54 109.294L153.769 109.707C153.841 109.839 153.964 109.937 154.109 109.979C154.254 110.021 154.409 110.003 154.542 109.93L157.342 108.385C157.474 108.312 157.572 108.189 157.614 108.044C157.656 107.9 157.638 107.744 157.565 107.612L157.337 107.198ZM52.9619 110.213C53.1 110.163 53.2255 110.083 53.3312 109.976C53.4369 109.869 53.5208 109.738 53.578 109.59C53.6352 109.441 53.6646 109.279 53.6646 109.112C53.6645 108.944 53.6351 108.776 53.5779 108.615C53.4623 108.291 53.2407 108.019 52.9617 107.86C52.6827 107.7 52.3693 107.667 52.0904 107.766C51.9523 107.815 51.8268 107.896 51.7211 108.002C51.6153 108.109 51.5315 108.241 51.4743 108.389C51.4171 108.537 51.3877 108.7 51.3877 108.867C51.3877 109.034 51.4172 109.203 51.4744 109.364C51.59 109.688 51.8116 109.96 52.0905 110.119C52.3695 110.278 52.6829 110.312 52.9619 110.213ZM150.377 110.638C150.478 110.664 150.586 110.66 150.694 110.627C150.802 110.594 150.908 110.532 151.007 110.445C151.105 110.359 151.194 110.248 151.268 110.121C151.342 109.993 151.4 109.851 151.438 109.702C151.476 109.553 151.494 109.401 151.491 109.253C151.487 109.106 151.463 108.967 151.418 108.843C151.374 108.719 151.31 108.614 151.232 108.533C151.153 108.452 151.06 108.397 150.959 108.371C150.858 108.346 150.751 108.349 150.643 108.382C150.535 108.415 150.428 108.477 150.33 108.564C150.231 108.651 150.143 108.761 150.069 108.888C149.995 109.016 149.937 109.158 149.899 109.307C149.861 109.456 149.843 109.608 149.846 109.756C149.849 109.903 149.874 110.043 149.918 110.166C149.963 110.29 150.026 110.395 150.105 110.476C150.184 110.557 150.276 110.612 150.377 110.638ZM80.9854 111.876C80.9731 111.925 80.9711 111.977 80.9797 112.027C80.9883 112.077 81.0072 112.125 81.0352 112.168C81.0633 112.211 81.1 112.249 81.1431 112.278C81.1862 112.307 81.2348 112.327 81.286 112.338C82.4025 112.545 82.8712 112.227 82.6923 111.383C82.5706 110.817 82.3166 110.535 81.9301 110.535C81.5222 110.528 81.2073 110.975 80.9854 111.876ZM99.1817 111.307C98.2943 113.947 99.103 114.699 101.608 113.561C101.744 113.5 101.85 113.389 101.906 113.251C101.962 113.113 101.963 112.959 101.909 112.821C101.551 111.948 101.017 111.304 100.309 110.889C100.208 110.831 100.097 110.797 99.9814 110.787C99.8662 110.778 99.7505 110.793 99.6428 110.833C99.535 110.873 99.4378 110.937 99.358 111.019C99.2783 111.101 99.2181 111.199 99.1817 111.307ZM84.8931 113.346C85.8163 113.075 85.8914 112.581 85.1185 111.865C84.9923 111.749 84.8385 111.668 84.6739 111.632C84.5092 111.596 84.34 111.606 84.1845 111.662C83.3758 111.955 83.3042 112.438 83.9698 113.11C84.0896 113.23 84.2389 113.316 84.4016 113.357C84.5643 113.399 84.7342 113.395 84.8931 113.346ZM180.869 115.293C180.999 115.282 181.123 115.229 181.235 115.138C181.347 115.048 181.445 114.921 181.523 114.765C181.601 114.609 181.658 114.427 181.69 114.229C181.723 114.031 181.73 113.822 181.711 113.613C181.692 113.404 181.648 113.199 181.582 113.01C181.515 112.821 181.427 112.652 181.322 112.512C181.218 112.373 181.099 112.265 180.972 112.195C180.846 112.126 180.714 112.096 180.585 112.108C180.456 112.119 180.331 112.172 180.219 112.263C180.107 112.353 180.009 112.48 179.931 112.636C179.853 112.792 179.796 112.975 179.764 113.172C179.732 113.37 179.725 113.579 179.743 113.788C179.762 113.998 179.806 114.202 179.873 114.391C179.939 114.58 180.027 114.749 180.132 114.889C180.237 115.029 180.356 115.136 180.482 115.206C180.609 115.275 180.74 115.305 180.869 115.293ZM62.4851 114.991C62.4763 114.855 62.4258 114.722 62.3363 114.602C62.2469 114.481 62.1203 114.374 61.9639 114.287C61.8074 114.2 61.6241 114.135 61.4245 114.096C61.2248 114.056 61.0127 114.043 60.8002 114.057C60.5878 114.071 60.3792 114.111 60.1863 114.176C59.9934 114.241 59.82 114.329 59.6761 114.435C59.5321 114.541 59.4203 114.663 59.3472 114.795C59.274 114.926 59.2409 115.064 59.2497 115.2C59.2585 115.337 59.3091 115.469 59.3986 115.59C59.488 115.711 59.6146 115.817 59.771 115.904C59.9275 115.991 60.1108 116.056 60.3104 116.095C60.5101 116.135 60.7222 116.148 60.9346 116.135C61.1471 116.121 61.3557 116.08 61.5486 116.015C61.7415 115.951 61.9149 115.863 62.0588 115.756C62.2028 115.65 62.3146 115.528 62.3877 115.397C62.4609 115.265 62.494 115.128 62.4851 114.991ZM160.663 136.248L163.078 136.516C165.547 137.382 167.673 137.257 169.455 136.14C172.754 134.066 175.116 130.871 176.54 126.557C177.328 124.189 177.142 121.935 175.982 119.796C174.229 116.555 171.781 114.674 168.639 114.151C165.869 113.693 163.068 113.933 160.233 114.87C157.163 115.893 155.048 118.065 153.889 121.384C151.413 128.474 153.671 133.429 160.663 136.248ZM55.4139 121.191C55.3027 121.133 55.2051 121.052 55.1272 120.954C55.0493 120.855 54.9929 120.741 54.9615 120.619C54.9302 120.497 54.9247 120.369 54.9453 120.244C54.9659 120.119 55.0121 119.999 55.0811 119.893C55.854 118.741 56.2334 117.897 56.219 117.36C56.1904 116.194 55.761 116.069 54.9308 116.984L51.7532 120.451C51.6531 120.562 51.5761 120.696 51.5299 120.838C51.4836 120.98 51.4694 121.126 51.4889 121.262C51.5083 121.397 51.5606 121.519 51.6408 121.614C51.7209 121.708 51.8262 121.774 51.9464 121.803L54.9093 122.501C55.0759 122.54 55.2514 122.52 55.406 122.444C55.5606 122.368 55.6848 122.24 55.7574 122.082C55.9363 121.71 55.8218 121.413 55.4139 121.191ZM84.0879 119.957C82.1412 118.376 80.2912 117.711 78.5378 117.961C76.9346 118.19 75.0488 118.272 72.8802 118.208C72.5925 118.198 72.3036 118.25 72.032 118.361C71.7603 118.472 71.5118 118.639 71.3022 118.852L66.643 123.552C66.5357 123.667 66.4069 123.971 66.2566 124.464L64.818 129.251C64.6169 129.915 64.5674 130.509 64.6785 130.925C65.7806 135.16 68.214 138.147 71.9785 139.886C74.1756 140.902 76.3263 141.324 78.4304 141.152C81.0498 140.952 83.0895 139.796 84.5495 137.686C85.7519 135.947 86.8254 133.765 87.7701 131.139C89.2945 126.911 88.0671 123.184 84.0879 119.957ZM93.4546 119.101C93.4006 118.988 93.3175 118.89 93.2101 118.812C93.1028 118.735 92.9732 118.68 92.8288 118.651C92.6844 118.621 92.5281 118.618 92.3687 118.641C92.2093 118.664 92.0499 118.712 91.8998 118.784C91.5965 118.928 91.3491 119.158 91.2118 119.422C91.0745 119.686 91.0586 119.962 91.1677 120.191C91.2217 120.304 91.3048 120.402 91.4122 120.48C91.5196 120.557 91.6491 120.612 91.7935 120.641C91.9379 120.67 92.0942 120.674 92.2536 120.651C92.413 120.628 92.5724 120.58 92.7225 120.508C93.0258 120.363 93.2733 120.134 93.4105 119.87C93.5478 119.606 93.5637 119.329 93.4546 119.101ZM122.553 122.833C123.24 124.221 124.159 125.434 125.311 126.471C125.741 126.865 126.034 126.886 126.192 126.536C126.253 126.404 126.266 126.244 126.23 126.075C126.194 125.906 126.11 125.734 125.988 125.58L123.401 122.254C122.971 120.744 122.442 119.828 121.812 119.506C121.096 119.134 120.667 119.227 120.524 119.785C120.452 120.086 120.52 120.411 120.728 120.762C121.2 121.563 121.808 122.254 122.553 122.833ZM180.76 123.153C180.995 123.109 181.193 122.921 181.311 122.629C181.429 122.337 181.457 121.965 181.388 121.596C181.354 121.413 181.298 121.236 181.222 121.075C181.146 120.914 181.052 120.773 180.946 120.659C180.84 120.545 180.723 120.46 180.602 120.41C180.482 120.36 180.36 120.346 180.243 120.367C180.008 120.411 179.81 120.599 179.692 120.891C179.574 121.183 179.547 121.555 179.615 121.924C179.649 122.107 179.706 122.284 179.781 122.445C179.857 122.606 179.951 122.747 180.057 122.861C180.164 122.975 180.28 123.06 180.401 123.11C180.522 123.16 180.644 123.174 180.76 123.153ZM98.0079 129.81C98.0821 129.883 98.175 129.936 98.2815 129.965C98.388 129.995 98.5058 130 98.6284 129.981C98.7509 129.962 98.8758 129.919 98.9958 129.855C99.1158 129.79 99.2286 129.706 99.3277 129.605C99.528 129.403 99.6606 129.15 99.6963 128.902C99.732 128.655 99.6679 128.432 99.5182 128.284C99.444 128.211 99.351 128.158 99.2446 128.128C99.1381 128.099 99.0203 128.094 98.8977 128.112C98.7751 128.131 98.6503 128.174 98.5303 128.239C98.4103 128.303 98.2975 128.388 98.1984 128.488C97.9981 128.691 97.8655 128.943 97.8298 129.191C97.7941 129.439 97.8582 129.661 98.0079 129.81ZM142.016 136.205C144.284 138.48 146.521 138.687 148.725 136.827C148.969 136.627 149.273 136.462 149.638 136.334C150.718 135.962 151.048 135.21 150.625 134.08C150.572 133.946 150.467 133.839 150.331 133.779C150.196 133.719 150.04 133.712 149.895 133.758C147.405 134.595 144.921 135.049 142.445 135.121C141.465 135.15 141.321 135.511 142.016 136.205ZM54.0581 141.698C54.096 141.519 54.0162 141.324 53.8362 141.154C53.6562 140.984 53.3908 140.854 53.0984 140.792C52.9536 140.761 52.8065 140.748 52.6655 140.753C52.5246 140.758 52.3925 140.782 52.2768 140.823C52.1612 140.863 52.0642 140.92 51.9915 140.99C51.9187 141.06 51.8716 141.141 51.8529 141.229C51.815 141.407 51.8948 141.603 52.0748 141.773C52.2548 141.943 52.5202 142.073 52.8126 142.135C52.9574 142.166 53.1045 142.179 53.2454 142.174C53.3864 142.168 53.5185 142.145 53.6341 142.104C53.7498 142.063 53.8468 142.007 53.9195 141.937C53.9923 141.867 54.0394 141.786 54.0581 141.698ZM167.974 145.799C164.875 145.87 163.994 147.405 165.333 150.403C165.4 150.559 165.511 150.689 165.647 150.773C165.783 150.856 165.937 150.888 166.084 150.864C166.714 150.764 167.115 150.431 167.286 149.866C167.323 149.735 167.306 149.589 167.239 149.45C167.171 149.31 167.056 149.185 166.911 149.093C165.945 148.485 166.188 148.035 167.641 147.741C169.444 147.376 169.96 146.682 169.187 145.659C168.908 145.302 168.689 145.223 168.532 145.423C168.446 145.535 168.35 145.628 168.253 145.694C168.156 145.759 168.06 145.795 167.974 145.799ZM111.882 150.875C112.175 151.769 112.579 151.801 113.095 150.972C113.188 150.825 113.232 150.655 113.218 150.492C113.205 150.329 113.134 150.183 113.02 150.081C112.726 149.816 112.429 149.784 112.128 149.984C112.002 150.068 111.909 150.2 111.864 150.361C111.82 150.522 111.826 150.703 111.882 150.875ZM161.411 155.342C161.318 155.191 161.17 155.083 160.998 155.042C160.827 155.001 160.646 155.03 160.495 155.122L156.578 157.522C156.503 157.567 156.438 157.627 156.387 157.698C156.336 157.769 156.299 157.849 156.278 157.934C156.258 158.019 156.254 158.107 156.268 158.193C156.282 158.28 156.312 158.362 156.358 158.437L156.695 158.986C156.787 159.136 156.935 159.244 157.107 159.285C157.278 159.326 157.459 159.298 157.61 159.206L161.527 156.806C161.602 156.76 161.667 156.7 161.718 156.629C161.769 156.559 161.806 156.479 161.827 156.394C161.847 156.309 161.851 156.22 161.837 156.134C161.823 156.048 161.793 155.965 161.747 155.891L161.411 155.342ZM163.272 160.748C163.737 161.471 164.037 161.317 164.173 160.287C164.195 160.113 164.163 159.94 164.084 159.799C164.006 159.657 163.885 159.556 163.744 159.514C163.458 159.435 163.254 159.518 163.132 159.761C163.067 159.891 163.046 160.051 163.07 160.225C163.095 160.398 163.164 160.579 163.272 160.748ZM70.2051 162.792C70.2743 162.706 70.3145 162.599 70.3235 162.476C70.3326 162.352 70.3102 162.215 70.2576 162.073C70.205 161.93 70.1234 161.785 70.0173 161.645C69.9111 161.505 69.7826 161.373 69.6391 161.257C69.4956 161.14 69.3398 161.042 69.1807 160.967C69.0216 160.893 68.8623 160.843 68.7119 160.821C68.5615 160.8 68.4229 160.806 68.304 160.841C68.1851 160.875 68.0883 160.937 68.0191 161.022C67.95 161.108 67.9097 161.215 67.9007 161.339C67.8917 161.462 67.9141 161.599 67.9666 161.742C68.0192 161.884 68.1009 162.03 68.207 162.17C68.3131 162.31 68.4416 162.441 68.5851 162.558C68.7287 162.674 68.8844 162.772 69.0435 162.847C69.2026 162.921 69.3619 162.971 69.5123 162.993C69.6628 163.014 69.8014 163.008 69.9202 162.973C70.0391 162.939 70.1359 162.877 70.2051 162.792ZM142.281 171.374C142.194 171.195 142.006 171.074 141.758 171.037C141.51 171 141.223 171.051 140.959 171.179C140.695 171.307 140.476 171.5 140.35 171.717C140.225 171.934 140.203 172.157 140.29 172.336C140.377 172.516 140.565 172.637 140.813 172.674C141.061 172.71 141.349 172.659 141.613 172.532C141.877 172.404 142.096 172.21 142.221 171.993C142.346 171.776 142.368 171.554 142.281 171.374Z" fill="#F9D915"/>
<path d="M33.7178 57.5527C31.4777 57.4024 29.3307 57.6993 27.2766 58.4434C24.2063 56.3185 21.4796 53.8252 19.0964 50.9634C18.9778 50.8244 18.8872 50.6701 18.83 50.5097C18.7728 50.3493 18.7502 50.186 18.7636 50.0297C18.8566 48.7133 19.6582 48.4415 21.1683 49.2141C26.1352 51.7325 30.3183 54.512 33.7178 57.5527Z" fill="#FBEC9F"/>
<path d="M98.4088 54.0004C99.1321 54.0004 99.7185 53.4143 99.7185 52.6912C99.7185 51.9681 99.1321 51.3819 98.4088 51.3819C97.6854 51.3819 97.0991 51.9681 97.0991 52.6912C97.0991 53.4143 97.6854 54.0004 98.4088 54.0004Z" fill="#F8DD4A"/>
<path d="M95.6889 59.4091C96.3048 58.9264 96.4838 58.1267 96.0887 57.6229C95.6936 57.1192 94.874 57.1022 94.2581 57.5849C93.6423 58.0677 93.4632 58.8674 93.8583 59.3711C94.2534 59.8748 95.0731 59.8919 95.6889 59.4091Z" fill="#FBEC9F"/>
<path d="M33.7178 57.5527C36.4017 59.7491 38.0334 61.2622 38.6131 62.0922C39.7582 63.7091 39.6187 64.7929 38.1944 65.3438C37.4716 65.6229 36.6414 65.5728 35.7039 65.1936C32.2614 63.8056 29.4523 61.5556 27.2766 58.4434C29.3307 57.6993 31.4777 57.4024 33.7178 57.5527Z" fill="#F8E065"/>
<path d="M84.6569 63.6697C85.8249 63.6697 86.7717 62.7231 86.7717 61.5555C86.7717 60.3879 85.8249 59.4414 84.6569 59.4414C83.4888 59.4414 82.542 60.3879 82.542 61.5555C82.542 62.7231 83.4888 63.6697 84.6569 63.6697Z" fill="#FFE9DF"/>
<path d="M93.0107 64.825C93.7223 64.9543 94.3706 64.6667 94.4585 64.1827C94.5465 63.6987 94.041 63.2016 93.3293 63.0723C92.6176 62.943 91.9694 63.2306 91.8814 63.7146C91.7934 64.1986 92.299 64.6957 93.0107 64.825Z" fill="#F8DD4A"/>
<path d="M58.8814 67.5223C59.2249 67.9015 59.2249 68.3272 58.8814 68.7994C57.951 70.0657 56.5626 70.7704 54.7161 70.9135C54.6591 70.9181 54.6019 70.9078 54.55 70.8838C54.4981 70.8598 54.4532 70.8228 54.4198 70.7764C54.3863 70.7301 54.3654 70.6758 54.359 70.619C54.3526 70.5622 54.361 70.5047 54.3833 70.4521C55.0918 68.828 56.2835 67.7799 57.9582 67.3077C58.136 67.2596 58.3169 67.2543 58.4803 67.2923C58.6436 67.3302 58.7827 67.41 58.8814 67.5223Z" fill="#FFE9DF"/>
<path d="M79.1589 72.2821C79.6647 72.0212 79.9072 71.4852 79.7005 71.0849C79.4938 70.6846 78.9162 70.5717 78.4104 70.8327C77.9046 71.0937 77.6622 71.6297 77.8688 72.0299C78.0755 72.4302 78.6531 72.5431 79.1589 72.2821Z" fill="#F8DD4A"/>
<path d="M108.897 73.414C109.928 71.6325 111.187 71.679 112.676 73.5535C112.74 73.635 112.783 73.7309 112.801 73.8328C112.819 73.9347 112.812 74.0394 112.78 74.1379C112.748 74.2364 112.693 74.3256 112.618 74.3977C112.544 74.4698 112.453 74.5226 112.354 74.5515C109.033 75.5532 107.881 75.174 108.897 73.414Z" fill="#F8E065"/>
<path d="M50.2824 75.3671C52.1217 74.945 52.4331 75.5854 51.2164 77.2881C51.1152 77.431 50.9803 77.5421 50.8291 77.6071C50.678 77.6722 50.5175 77.6881 50.3683 77.653C49.6168 77.4813 49.3556 76.9375 49.5846 76.0218C49.627 75.8632 49.7144 75.7185 49.8373 75.6031C49.9602 75.4878 50.1141 75.4062 50.2824 75.3671Z" fill="#FFE9DF"/>
<path d="M200.791 89.3505C199.009 88.0484 198.766 86.6747 200.061 85.2295C200.562 84.6786 201.525 84.0204 202.949 83.2549C204.273 82.5395 205.597 81.8276 206.921 81.1193C207.83 80.6328 209.05 79.7814 210.582 78.5652C212.579 76.9697 214.84 75.8143 217.367 75.0988C219.134 74.598 219.467 75.081 218.365 76.5476C214.479 81.7346 209.419 86.0523 203.185 89.5007C202.813 89.706 202.391 89.8008 201.966 89.7742C201.542 89.7476 201.135 89.6006 200.791 89.3505Z" fill="#F9E47A"/>
<path d="M137.453 80.2072C138.099 80.2072 138.623 79.6834 138.623 79.0374C138.623 78.3914 138.099 77.8677 137.453 77.8677C136.807 77.8677 136.283 78.3914 136.283 79.0374C136.283 79.6834 136.807 80.2072 137.453 80.2072Z" fill="#FAE789"/>
<path d="M57.3865 80.843C58.0913 81.555 59.1204 81.6794 59.6852 81.1207C60.2499 80.5621 60.1364 79.5321 59.4316 78.8201C58.7268 78.1081 57.6977 77.9837 57.1329 78.5424C56.5682 79.101 56.6817 80.131 57.3865 80.843Z" fill="#FBEC9F"/>
<path d="M81.3649 79.471C81.6015 79.9292 82.1136 80.1353 82.5088 79.9314C82.9039 79.7276 83.0325 79.1908 82.7959 78.7326C82.5593 78.2744 82.0472 78.0682 81.6521 78.2721C81.2569 78.476 81.1283 79.0127 81.3649 79.471Z" fill="#F8DD4A"/>
<path d="M49.3259 80.6171C49.2232 80.9823 49.376 81.3446 49.6671 81.4264C49.9582 81.5082 50.2774 81.2785 50.3801 80.9133C50.4828 80.5481 50.3301 80.1858 50.039 80.104C49.7479 80.0222 49.4286 80.2519 49.3259 80.6171Z" fill="#F8DD4A"/>
<path d="M173.717 88.4061C173.664 88.2504 173.577 88.1085 173.462 87.991C173.346 87.8734 173.206 87.7831 173.051 87.7265C172.895 87.67 172.729 87.6486 172.564 87.6641C172.399 87.6796 172.239 87.7314 172.096 87.8159C169.97 89.0822 169.265 88.8998 169.981 87.2686C170.038 87.141 170.064 87.0016 170.056 86.862C170.048 86.7224 170.006 86.5869 169.935 86.4668C169.863 86.3467 169.764 86.2457 169.645 86.1723C169.526 86.0989 169.391 86.0553 169.251 86.0452C165.816 85.7804 165.168 85.1294 167.308 84.092C169.076 83.2263 170.357 82.6683 171.151 82.4179C171.303 82.3696 171.467 82.3652 171.624 82.4049C171.781 82.4446 171.926 82.5271 172.042 82.6432C174.039 84.625 175.481 86.9573 176.369 89.6403C176.49 90.0123 176.483 90.2877 176.347 90.4666C176.19 90.6669 175.932 90.7277 175.574 90.649C175.359 90.5989 175.156 90.4702 174.962 90.2627C174.311 89.5759 173.896 88.957 173.717 88.4061Z" fill="#F8DD4A"/>
<path d="M7.10502 89.2003C3.87012 90.0803 1.6157 89.05 0.341782 86.1096C-0.452631 84.2852 0.137813 83.4982 2.11311 83.7486C6.214 84.278 10.5475 85.4514 15.1136 87.2686C15.7291 87.519 16.3696 87.6442 17.0352 87.6442C20.4275 87.6656 22.8609 88.9463 24.3352 91.4861C25.3944 93.3105 25.4696 95.0633 24.5606 96.7446C23.3511 98.9768 21.1182 99.3596 17.8618 97.8929C15.1565 96.6767 12.5979 95.1993 10.1861 93.4607C8.82625 92.4877 7.99605 91.1964 7.69546 89.5866C7.68232 89.5203 7.65627 89.4572 7.61893 89.4013C7.58159 89.3454 7.53376 89.2979 7.4784 89.2617C7.42304 89.2254 7.36133 89.2013 7.2971 89.1907C7.23288 89.1802 7.1675 89.1834 7.10502 89.2003Z" fill="#F8DD4A"/>
<path d="M161.554 86.3134C162.242 86.3134 162.799 85.7561 162.799 85.0686C162.799 84.3811 162.242 83.8237 161.554 83.8237C160.866 83.8237 160.309 84.3811 160.309 85.0686C160.309 85.7561 160.866 86.3134 161.554 86.3134Z" fill="#F8DD4A"/>
<path d="M118.398 91.2392C119.794 91.9261 121.296 92.0262 122.907 91.5397C124.682 91.0103 125.508 91.436 125.387 92.8168C125.373 92.9634 125.301 93.0993 125.186 93.197C125.07 93.2946 124.919 93.3467 124.764 93.3426C122.524 93.314 120.191 92.8418 117.765 91.9261C117.444 91.8051 117.098 91.7702 116.761 91.8248C116.423 91.8794 116.107 92.0217 115.843 92.2373C115.027 92.8955 114.44 93.1638 114.082 93.0422C113.782 92.942 113.678 92.5163 113.771 91.7651C114.251 88.0019 115.188 87.197 116.584 89.3505C117.221 90.3306 117.825 90.9602 118.398 91.2392Z" fill="#F8E065"/>
<path d="M128.945 89.7866C129.72 90.1862 130.533 90.1515 130.761 89.7091C130.989 89.2667 130.547 88.5842 129.772 88.1846C128.998 87.785 128.185 87.8197 127.956 88.2621C127.728 88.7045 128.171 89.387 128.945 89.7866Z" fill="#F8DD4A"/>
<path d="M150.379 102.32C149.625 102.349 148.876 101.698 148.297 100.51C147.717 99.3216 147.354 97.6938 147.289 95.9845C147.223 94.2752 147.46 92.6244 147.946 91.3952C148.433 90.1661 149.13 89.4593 149.884 89.4303C150.638 89.4014 151.387 90.0527 151.966 91.2409C152.546 92.4291 152.909 94.0569 152.974 95.7662C153.04 97.4755 152.803 99.1263 152.317 100.355C151.83 101.585 151.133 102.291 150.379 102.32ZM150 100.651C150.219 100.652 150.432 100.162 150.591 99.2897C150.751 98.4171 150.844 97.2329 150.851 95.9977C150.854 95.3861 150.836 94.7803 150.797 94.215C150.759 93.6497 150.7 93.136 150.626 92.7031C150.551 92.2702 150.462 91.9267 150.363 91.6921C150.264 91.4576 150.157 91.3365 150.049 91.336C149.829 91.3349 149.616 91.8245 149.457 92.6971C149.297 93.5697 149.204 94.7539 149.198 95.9891C149.194 96.6008 149.213 97.2065 149.251 97.7718C149.29 98.3371 149.348 98.8509 149.422 99.2838C149.497 99.7166 149.586 100.06 149.685 100.295C149.784 100.529 149.891 100.65 150 100.651Z" fill="#2F2219"/>
<path d="M88.4601 103.163C88.084 103.222 87.6868 103.122 87.2912 102.869C86.8956 102.615 86.5094 102.214 86.1544 101.688C85.7995 101.161 85.483 100.52 85.2228 99.8003C84.9626 99.0806 84.7639 98.2967 84.6381 97.4933C84.3839 95.8709 84.4419 94.2676 84.7992 93.0363C85.1565 91.8049 85.7839 91.0464 86.5434 90.9275C86.9194 90.8686 87.3166 90.9686 87.7122 91.2216C88.1078 91.4746 88.4941 91.8758 88.849 92.4023C89.2039 92.9287 89.5204 93.5701 89.7806 94.2898C90.0408 95.0095 90.2395 95.7934 90.3654 96.5968C90.6195 98.2193 90.5615 99.8225 90.2042 101.054C89.8469 102.285 89.2195 103.044 88.4601 103.163ZM87.3407 100.866C87.4345 100.951 87.5487 101.011 87.6723 101.039C87.7959 101.068 87.9247 101.064 88.0465 101.028C88.1683 100.993 88.2788 100.927 88.3677 100.836C88.4565 100.746 88.5206 100.634 88.5538 100.511C89.4627 97.1416 89.0082 96.4477 87.1904 98.4294C86.4174 99.2665 86.4675 100.079 87.3407 100.866Z" fill="#2F2219"/>
<path d="M149.198 95.9891C149.184 98.5614 149.543 100.648 150 100.651C150.456 100.653 150.837 98.57 150.851 95.9977C150.864 93.4255 150.505 91.3384 150.049 91.336C149.592 91.3336 149.211 93.4169 149.198 95.9891Z" fill="#2F2219"/>
<path d="M79.7418 94.9822C80.5702 95.0343 81.2746 94.5539 81.3152 93.9091C81.3558 93.2644 80.7171 92.6995 79.8887 92.6474C79.0603 92.5953 78.3559 93.0757 78.3153 93.7205C78.2747 94.3652 78.9134 94.9301 79.7418 94.9822Z" fill="#F8DD4A"/>
<path d="M117.593 94.5768C118.165 95.142 117.868 95.3709 116.702 95.2636C116.444 95.2422 116.211 95.1563 116.004 95.0061C114.859 94.1404 115.127 93.8685 116.809 94.1905C117.131 94.2549 117.392 94.3836 117.593 94.5768Z" fill="#F8DD4A"/>
<path d="M137.249 99.3201C137.34 99.3305 137.433 99.3225 137.521 99.2967C137.609 99.2708 137.691 99.2276 137.762 99.1696C137.833 99.1116 137.891 99.04 137.934 98.9589C137.977 98.8779 138.003 98.789 138.011 98.6977C138.104 97.7175 138.28 97.138 138.537 96.9592C138.845 96.7517 139.11 97.0021 139.332 97.7104C140.219 100.536 139.11 101.341 136.004 100.125C135.632 99.9819 135.617 99.8174 135.961 99.6313C136.419 99.3738 136.848 99.2701 137.249 99.3201Z" fill="#F8E065"/>
<path d="M87.3407 100.866C86.4675 100.079 86.4174 99.2665 87.1904 98.4294C89.0082 96.4477 89.4627 97.1416 88.5538 100.511C88.5206 100.634 88.4565 100.746 88.3677 100.836C88.2788 100.927 88.1683 100.993 88.0465 101.028C87.9247 101.064 87.7959 101.068 87.6723 101.039C87.5487 101.011 87.4345 100.951 87.3407 100.866Z" fill="#2F2219"/>
<path d="M158.816 98.2792C157.678 97.5995 157.746 97.4028 159.02 97.6889C159.143 97.7137 159.255 97.771 159.341 97.8533C159.427 97.9356 159.484 98.0392 159.503 98.1504C159.575 98.5511 159.346 98.594 158.816 98.2792Z" fill="#F8DD4A"/>
<path d="M165.773 100.833C164.456 99.9462 164.631 99.4096 166.299 99.2236C166.471 99.2036 166.644 99.2279 166.799 99.2941C166.954 99.3602 167.085 99.4656 167.179 99.5992C167.73 100.379 167.591 100.862 166.761 101.048C166.602 101.085 166.433 101.085 166.262 101.048C166.092 101.011 165.925 100.938 165.773 100.833Z" fill="#F9E47A"/>
<path d="M77.473 102.7C78.3616 102.737 79.0972 102.402 79.1161 101.952C79.1349 101.502 78.4299 101.107 77.5413 101.07C76.6527 101.033 75.9171 101.368 75.8983 101.818C75.8794 102.268 76.5845 102.663 77.473 102.7Z" fill="#F8DD4A"/>
<path d="M118.731 107.347C122.846 107.44 126.546 106.228 129.831 103.709C129.838 103.702 130.243 103.266 131.044 102.4C131.595 101.799 132.196 101.785 132.848 102.357C132.961 102.457 133.034 102.597 133.054 102.752C133.073 102.907 133.038 103.067 132.955 103.205C132.225 104.4 131.28 105.398 130.121 106.199C123.579 110.678 116.616 110.76 109.23 106.446C108.882 106.243 108.599 105.945 108.413 105.586C108.227 105.228 108.145 104.822 108.178 104.418C108.249 103.438 108.933 103.391 110.228 104.278C111.509 105.151 112.858 105.87 114.276 106.435C115.714 107.008 117.199 107.312 118.731 107.347Z" fill="#2F2219"/>
<path d="M82.8426 103.785C82.313 105.122 81.5257 105.355 80.4809 104.482C79.5648 103.709 79.9011 103.105 81.49 102.668C82.8283 102.304 83.2792 102.676 82.8426 103.785Z" fill="#F9E47A"/>
<path d="M176.173 106.692C176.846 106.798 177.461 106.453 177.545 105.92C177.629 105.387 177.152 104.869 176.479 104.762C175.805 104.656 175.191 105.001 175.106 105.534C175.022 106.067 175.499 106.585 176.173 106.692Z" fill="#FAE789"/>
<path d="M61.1637 106.546C60.7082 107.021 60.6581 107.712 61.0518 108.089C61.4454 108.467 62.1339 108.388 62.5894 107.913C63.0449 107.438 63.095 106.747 62.7013 106.37C62.3076 105.992 61.6192 106.071 61.1637 106.546Z" fill="#F8DD4A"/>
<path d="M67.8669 110.642C67.0152 107.752 67.0045 106.528 67.8347 106.972C67.9586 107.04 68.0636 107.154 68.1391 107.303C68.2146 107.452 68.2577 107.63 68.2641 107.82C68.2927 108.878 68.6434 109.805 69.3161 110.599C69.433 110.736 69.5198 110.889 69.57 111.047C69.6201 111.205 69.6324 111.364 69.606 111.511C69.3913 112.792 68.944 112.821 68.2641 111.597C68.0923 111.29 67.9599 110.971 67.8669 110.642Z" fill="#F8DD4A"/>
<path d="M156.564 106.975L153.763 108.521C153.488 108.673 153.388 109.019 153.54 109.294L153.769 109.707C153.92 109.982 154.266 110.082 154.542 109.93L157.342 108.385C157.617 108.233 157.717 107.887 157.565 107.612L157.337 107.198C157.185 106.923 156.839 106.824 156.564 106.975Z" fill="#2F2219"/>
<path d="M51.4744 109.364C51.715 110.039 52.381 110.419 52.9619 110.213C53.5428 110.006 53.8185 109.291 53.5779 108.615C53.3372 107.939 52.6713 107.559 52.0904 107.766C51.5095 107.973 51.2337 108.688 51.4744 109.364Z" fill="#FBEC9F"/>
<path d="M149.899 109.307C149.738 109.933 149.952 110.528 150.377 110.638C150.802 110.747 151.277 110.328 151.438 109.702C151.599 109.076 151.384 108.481 150.959 108.371C150.534 108.262 150.06 108.681 149.899 109.307Z" fill="#2F2219"/>
<path d="M80.9854 111.876C81.2073 110.975 81.5222 110.528 81.9301 110.535C82.3166 110.535 82.5706 110.817 82.6923 111.383C82.8712 112.227 82.4025 112.545 81.286 112.338C81.2348 112.327 81.1862 112.307 81.1431 112.278C81.1 112.249 81.0633 112.211 81.0352 112.168C81.0072 112.125 80.9883 112.077 80.9797 112.027C80.9711 111.977 80.9731 111.925 80.9854 111.876Z" fill="#2F2219"/>
<path d="M99.1817 111.307C99.2181 111.199 99.2783 111.101 99.358 111.019C99.4378 110.937 99.535 110.873 99.6428 110.833C99.7505 110.793 99.8662 110.778 99.9814 110.787C100.097 110.797 100.208 110.831 100.309 110.889C101.017 111.304 101.551 111.948 101.909 112.821C101.963 112.959 101.962 113.113 101.906 113.251C101.85 113.389 101.744 113.5 101.608 113.561C99.103 114.699 98.2943 113.947 99.1817 111.307Z" fill="#FAE789"/>
<path d="M83.9698 113.11C83.3042 112.438 83.3758 111.955 84.1845 111.662C84.34 111.606 84.5092 111.596 84.6739 111.632C84.8385 111.668 84.9923 111.749 85.1185 111.865C85.8914 112.581 85.8163 113.075 84.8931 113.346C84.7342 113.395 84.5643 113.399 84.4016 113.357C84.2389 113.316 84.0896 113.23 83.9698 113.11Z" fill="#2F2219"/>
<path d="M179.743 113.788C179.822 114.668 180.326 115.342 180.869 115.293C181.413 115.245 181.789 114.492 181.711 113.613C181.632 112.733 181.128 112.059 180.585 112.108C180.042 112.156 179.665 112.909 179.743 113.788Z" fill="#F8DD4A"/>
<path d="M60.9346 116.135C61.8281 116.077 62.5223 115.565 62.4851 114.991C62.448 114.417 61.6936 113.999 60.8002 114.057C59.9068 114.115 59.2126 114.627 59.2497 115.2C59.2869 115.774 60.0412 116.192 60.9346 116.135Z" fill="#F8E065"/>
<path d="M163.078 136.516C163.293 135.858 163.561 135.486 163.883 135.4C167.691 134.363 170.328 132.313 171.795 129.251C173.227 126.253 173.162 123.398 171.602 120.687C170.242 118.326 168.074 117.153 165.097 117.167C162.449 117.181 160.309 117.904 158.677 119.335C156.415 121.316 155.621 124.382 156.294 128.532C156.487 129.741 157.024 130.8 157.904 131.708L161.092 135.014C161.244 135.168 161.361 135.337 161.429 135.5C161.498 135.664 161.515 135.815 161.479 135.937C161.393 136.216 161.121 136.319 160.663 136.248C153.671 133.429 151.413 128.474 153.889 121.384C155.048 118.065 157.163 115.893 160.233 114.87C163.068 113.933 165.869 113.693 168.639 114.151C171.781 114.674 174.229 116.555 175.982 119.796C177.142 121.935 177.328 124.189 176.54 126.557C175.116 130.871 172.754 134.066 169.455 136.14C167.673 137.257 165.547 137.382 163.078 136.516Z" fill="#FFE9DF"/>
<path d="M55.4139 121.191C55.8218 121.413 55.9363 121.71 55.7574 122.082C55.6848 122.24 55.5606 122.368 55.406 122.444C55.2514 122.52 55.0759 122.54 54.9093 122.501L51.9464 121.803C51.8262 121.774 51.7209 121.708 51.6408 121.614C51.5606 121.519 51.5083 121.397 51.4889 121.262C51.4694 121.126 51.4836 120.98 51.5299 120.838C51.5761 120.696 51.6531 120.562 51.7532 120.451L54.9308 116.984C55.761 116.069 56.1904 116.194 56.219 117.36C56.2334 117.897 55.854 118.741 55.0811 119.893C55.0121 119.999 54.9659 120.119 54.9453 120.244C54.9247 120.369 54.9302 120.497 54.9615 120.619C54.9929 120.741 55.0493 120.855 55.1272 120.954C55.2051 121.052 55.3027 121.133 55.4139 121.191Z" fill="#F8DD4A"/>
<path d="M163.078 136.516L160.663 136.248C161.121 136.319 161.393 136.216 161.479 135.937C161.515 135.815 161.498 135.664 161.429 135.5C161.361 135.337 161.244 135.168 161.092 135.014L157.904 131.708C157.024 130.8 156.487 129.741 156.294 128.532C155.621 124.382 156.415 121.316 158.677 119.335C160.309 117.904 162.449 117.181 165.097 117.167C168.074 117.153 170.242 118.326 171.602 120.687C173.162 123.398 173.227 126.253 171.795 129.251C170.328 132.313 167.691 134.363 163.883 135.4C163.561 135.486 163.293 135.858 163.078 136.516Z" fill="#F9BAB9"/>
<path d="M84.0879 119.957C88.0671 123.184 89.2945 126.911 87.7701 131.139C86.8254 133.765 85.7519 135.947 84.5495 137.686C83.0895 139.796 81.0498 140.952 78.4304 141.152C76.3263 141.324 74.1756 140.902 71.9785 139.886C68.214 138.147 65.7806 135.16 64.6785 130.925C64.5674 130.509 64.6169 129.915 64.818 129.251L66.2566 124.464C66.4069 123.971 66.5357 123.667 66.643 123.552L71.3022 118.852C71.5118 118.639 71.7603 118.472 72.032 118.361C72.3036 118.25 72.5925 118.198 72.8802 118.208C75.0488 118.272 76.9346 118.19 78.5378 117.961C80.2912 117.711 82.1412 118.376 84.0879 119.957ZM74.6194 119.7C73.3812 119.628 72.322 120.093 71.4417 121.095L67.1905 125.956C66.9906 126.183 66.8449 126.449 66.7648 126.734C66.6847 127.019 66.6724 127.314 66.7289 127.598C67.1941 129.966 68.0493 132.177 69.2946 134.23C72.229 139.045 75.8002 140.229 80.0085 137.782C81.2824 137.045 82.3023 136.03 83.068 134.735C83.8267 133.447 84.3813 132.077 84.732 130.624C85.3046 128.292 85.0433 126.224 83.9483 124.421C82.1806 121.531 79.0709 119.957 74.6194 119.7Z" fill="#FFE9DF"/>
<path d="M92.7225 120.508C93.354 120.207 93.6817 119.577 93.4546 119.101C93.2274 118.625 92.5312 118.483 91.8998 118.784C91.2683 119.085 90.9406 119.715 91.1677 120.191C91.3949 120.667 92.0911 120.809 92.7225 120.508Z" fill="#FAE789"/>
<path d="M123.401 122.254L122.553 122.833C121.808 122.254 121.2 121.563 120.728 120.762C120.52 120.411 120.452 120.086 120.524 119.785C120.667 119.227 121.096 119.134 121.812 119.506C122.442 119.828 122.971 120.744 123.401 122.254Z" fill="#FBEC9F"/>
<path d="M74.6194 119.7C79.0709 119.957 82.1806 121.531 83.9483 124.421C85.0433 126.224 85.3046 128.292 84.732 130.624C84.3813 132.077 83.8267 133.447 83.068 134.735C82.3023 136.03 81.2824 137.045 80.0085 137.782C75.8002 140.229 72.229 139.045 69.2946 134.23C68.0493 132.177 67.1941 129.966 66.7289 127.598C66.6724 127.314 66.6847 127.019 66.7648 126.734C66.8449 126.449 66.9906 126.183 67.1905 125.956L71.4417 121.095C72.322 120.093 73.3812 119.628 74.6194 119.7Z" fill="#F9BAB9"/>
<path d="M179.615 121.924C179.758 122.694 180.27 123.244 180.76 123.153C181.25 123.062 181.531 122.365 181.388 121.596C181.246 120.826 180.733 120.276 180.243 120.367C179.754 120.458 179.472 121.155 179.615 121.924Z" fill="#F9E47A"/>
<path d="M123.401 122.254L125.988 125.58C126.11 125.734 126.194 125.906 126.23 126.075C126.266 126.244 126.253 126.404 126.192 126.536C126.034 126.886 125.741 126.865 125.311 126.471C124.159 125.434 123.24 124.221 122.553 122.833L123.401 122.254Z" fill="#F9E47A"/>
<path d="M98.1984 128.488C97.7813 128.91 97.6961 129.501 98.0079 129.81C98.3198 130.118 98.9107 130.027 99.3277 129.605C99.7448 129.184 99.83 128.593 99.5182 128.284C99.2063 127.976 98.6154 128.067 98.1984 128.488Z" fill="#F8DD4A"/>
<path d="M218.011 138.147C219.678 139.535 221.163 141.106 222.466 142.858C223.404 144.118 223.107 144.583 221.575 144.254C214.905 142.823 208.374 140.916 201.983 138.534C200.187 137.868 199.009 137.056 198.451 136.098C197.771 134.924 197.796 133.712 198.526 132.459C199.077 131.522 199.943 130.828 201.124 130.378C203.049 129.648 204.889 129.612 206.642 130.27C207.265 130.506 209.122 131.676 212.214 133.779C214.218 135.139 216.15 136.595 218.011 138.147Z" fill="#F8DD4A"/>
<path d="M142.016 136.205C141.321 135.511 141.465 135.15 142.445 135.121C144.921 135.049 147.405 134.595 149.895 133.758C150.04 133.712 150.196 133.719 150.331 133.779C150.467 133.839 150.572 133.946 150.625 134.08C151.048 135.21 150.718 135.962 149.638 136.334C149.273 136.462 148.969 136.627 148.725 136.827C146.521 138.687 144.284 138.48 142.016 136.205Z" fill="#FBEC9F"/>
<path d="M30.5402 135.099C32.859 136.981 33.3099 138.737 31.8929 140.369C31.1271 141.249 29.8209 141.875 27.9745 142.247C21.655 143.52 15.2674 143.899 8.81195 143.384C6.73645 143.213 6.40008 142.361 7.80283 140.83C8.39685 140.186 9.54195 139.56 11.2381 138.952C15.5823 137.392 19.9087 135.793 24.2171 134.155C26.5574 133.261 28.6651 133.576 30.5402 135.099Z" fill="#F8DD4A"/>
<path d="M52.8126 142.135C53.4215 142.264 53.9792 142.069 54.0581 141.698C54.137 141.327 53.7073 140.921 53.0984 140.792C52.4894 140.662 51.9318 140.858 51.8529 141.229C51.774 141.6 52.2037 142.006 52.8126 142.135Z" fill="#F8DD4A"/>
<path d="M168.532 145.423C168.689 145.223 168.908 145.302 169.187 145.659C169.96 146.682 169.444 147.376 167.641 147.741C166.188 148.035 165.945 148.485 166.911 149.093C167.056 149.185 167.171 149.31 167.239 149.45C167.306 149.589 167.323 149.735 167.286 149.866C167.115 150.431 166.714 150.764 166.084 150.864C165.937 150.888 165.783 150.856 165.647 150.773C165.511 150.689 165.4 150.559 165.333 150.403C163.994 147.405 164.875 145.87 167.974 145.799C168.06 145.795 168.156 145.759 168.253 145.694C168.35 145.628 168.446 145.535 168.532 145.423Z" fill="#F8DD4A"/>
<path d="M112.128 149.984C112.429 149.784 112.726 149.816 113.02 150.081C113.134 150.183 113.205 150.329 113.218 150.492C113.232 150.655 113.188 150.825 113.095 150.972C112.579 151.801 112.175 151.769 111.882 150.875C111.826 150.703 111.82 150.522 111.864 150.361C111.909 150.2 112.002 150.068 112.128 149.984Z" fill="#F9E47A"/>
<path d="M160.495 155.122L156.578 157.522C156.264 157.714 156.166 158.123 156.358 158.437L156.695 158.986C156.887 159.299 157.296 159.398 157.61 159.206L161.527 156.806C161.841 156.614 161.939 156.204 161.747 155.891L161.411 155.342C161.219 155.028 160.809 154.93 160.495 155.122Z" fill="#FBEC9F"/>
<path d="M163.132 159.761C163.254 159.518 163.458 159.435 163.744 159.514C163.885 159.556 164.006 159.657 164.084 159.799C164.163 159.94 164.195 160.113 164.173 160.287C164.037 161.317 163.737 161.471 163.272 160.748C163.164 160.579 163.095 160.398 163.07 160.225C163.046 160.051 163.067 159.891 163.132 159.761Z" fill="#F8DD4A"/>
<path d="M68.5851 162.558C69.1887 163.046 69.914 163.151 70.2051 162.792C70.4961 162.433 70.2427 161.745 69.6391 161.257C69.0355 160.768 68.3102 160.663 68.0191 161.022C67.7281 161.382 67.9815 162.069 68.5851 162.558Z" fill="#F8DD4A"/>
<path d="M141.613 172.532C142.163 172.266 142.462 171.748 142.281 171.374C142.1 171.001 141.508 170.913 140.959 171.179C140.409 171.445 140.11 171.963 140.29 172.336C140.471 172.71 141.063 172.797 141.613 172.532Z" fill="#F9E47A"/>
<path d="M177.346 171.544C177.724 171.548 178.096 171.642 178.431 171.82C178.765 171.997 179.052 172.252 179.267 172.564C183.389 178.509 186.821 184.326 189.562 190.013C190.149 191.215 189.934 191.866 188.918 191.966C188.446 192.009 187.948 191.863 187.426 191.526C185.873 190.518 184.524 189.276 183.379 187.803C180.967 184.676 178.19 181.185 175.048 177.328C174.459 176.601 174.144 175.689 174.157 174.753C174.2 172.599 175.263 171.53 177.346 171.544Z" fill="#FAE789"/>
<path d="M52.3114 192.578C50.9301 194.381 49.8101 195.422 48.9512 195.701C47.9278 196.03 47.3481 195.866 47.2121 195.207C47.1406 194.878 47.2229 194.42 47.459 193.834C49.4987 188.675 52.2112 183.893 55.5964 179.486C56.8274 177.883 58.1836 177.701 59.6651 178.938C60.7529 179.847 60.9104 180.895 60.1374 182.083C58.5558 184.486 56.8739 186.79 55.0918 188.994C54.8414 189.301 53.9145 190.496 52.3114 192.578Z" fill="#F8E065"/>
<path d="M149.852 188.736C150.847 187.541 151.896 187.166 152.998 187.609C154.544 188.239 155.578 189.348 156.1 190.936C158.541 198.32 160.384 205.374 161.629 212.099C161.708 212.521 161.701 212.893 161.608 213.215C161.286 214.338 160.77 214.256 160.062 212.968C158.323 209.813 156.49 206.712 154.565 203.664C152.261 200.001 150.471 196.105 149.198 191.977C148.833 190.775 149.051 189.695 149.852 188.736Z" fill="#F8E065"/>
<path d="M109.638 195.959C110.59 197.103 110.622 198.617 109.735 200.498C108.031 204.125 106.424 207.796 104.914 211.509C104.671 212.117 104.438 212.553 104.217 212.818C103.615 213.526 103.1 213.419 102.671 212.496C102.499 212.138 102.424 211.706 102.445 211.198C102.653 205.989 103.923 201.042 106.256 196.356C107.18 194.496 108.307 194.363 109.638 195.959Z" fill="#F9E47A"/>
</g>
</svg>
