<svg width="248" height="267" viewBox="0 0 248 267" fill="none" xmlns="http://www.w3.org/2000/svg">
<g clip-path="url(#clip0_41_374)">
<path d="M214.606 0.0205078C212.208 2.46995 209.877 4.96171 207.614 7.49581C205.83 9.48809 203.968 11.4804 202.026 13.4727C200.113 15.4311 198.242 17.4262 196.413 19.458C195.076 20.5021 194.017 21.772 193.239 23.2676L190.758 19.1955C190.699 19.0982 190.598 19.0315 190.475 19.0094C190.352 18.9873 190.216 19.0115 190.098 19.077C186.954 20.8323 184.397 23.6514 182.428 27.5343C182.242 27.8956 182.349 28.062 182.749 28.0338C185.402 27.8532 187.499 27.8843 189.04 28.127C193.905 28.9002 198.772 29.6677 203.643 30.4296C198.439 30.4466 198.228 31.5754 203.008 33.816L180.845 30.7006C180.015 30.5651 179.208 30.6272 178.423 30.8868L175.105 28.4233C175.709 28.4966 176.061 28.1185 176.163 27.2888L210.839 2.13696C211.81 1.26216 213.065 0.556675 214.606 0.0205078Z" fill="#DCAB5E"/>
<path d="M175.105 28.423L178.423 30.8865C180.986 33.477 183.006 36.584 184.485 40.2073C184.529 40.32 184.613 40.4125 184.72 40.4671C184.828 40.5218 184.952 40.5348 185.069 40.5037C191.356 38.9234 197.505 38.3533 203.516 38.7936C202.884 40.2327 201.944 41.2797 200.697 41.9344C198.343 43.1704 196.01 44.4431 193.696 45.7524C193.482 45.8779 193.306 46.096 193.196 46.3704C192.965 46.98 192.573 47.4287 192.019 47.7165C191.162 48.1624 190.721 48.391 190.699 48.4022C187.482 50.6767 184.491 53.208 181.725 55.9961C180.811 56.9217 179.552 58.0222 177.949 59.2977C176.629 60.3418 175.41 61.5045 174.292 62.7856C174.27 62.8082 173.874 63.2061 173.107 63.9793C171.916 65.1645 171.958 66.4005 173.234 67.6873C173.42 67.8793 173.537 68.1299 173.564 68.3984C173.722 70.0916 174.49 71.2204 175.867 71.7848C176.871 72.2024 178.511 72.589 180.785 72.9446C180.825 72.9502 182.103 73.0292 184.62 73.1816C186.263 73.2776 187.823 73.715 189.302 74.4938C189.422 74.5578 189.528 74.6458 189.612 74.7521C189.697 74.8585 189.758 74.9809 189.793 75.1118C190.222 76.7034 190.041 77.9761 189.251 78.9299C185.284 83.7103 181.429 88.5866 177.687 93.5588C174.859 96.0252 172.17 99.1378 169.619 102.897C169.055 103.732 169.049 104.491 169.602 105.174L167.308 107.4C167.247 107.459 167.189 107.519 167.137 107.578C167.085 107.637 167.04 107.693 167.005 107.742C166.97 107.791 166.946 107.833 166.934 107.865C166.922 107.896 166.922 107.917 166.935 107.925L167.494 108.323C165.632 108.667 165.488 109.187 167.062 109.881C167.181 109.934 167.311 109.958 167.443 109.952C167.575 109.946 167.705 109.91 167.824 109.847C171.278 108.058 174.354 105.781 177.052 103.015C178.096 101.943 179.29 100.992 180.633 100.162C183.032 98.6778 185.19 96.883 187.109 94.7779C189.09 92.6163 192.017 90.2741 195.888 87.7513C196.154 87.5763 196.396 87.3703 196.616 87.1333C198.739 84.8588 201.081 83.0415 203.643 81.6813C205.325 80.7896 206.99 79.4266 208.638 77.5923C209.315 76.8417 210.057 76.1757 210.864 75.5944C211.683 75.0018 212.467 74.3753 213.218 73.715C214.115 72.9248 215.326 72.0529 216.85 71.099C219.689 69.3156 221.67 66.773 222.793 63.4714C223.701 62.7207 223.905 61.7923 223.402 60.6861C217.832 58.8462 212.566 57.9996 207.605 58.1464C205.827 58.1972 205.652 57.692 207.08 56.631C211.838 53.0754 215.704 49.0005 218.678 44.4064L219.483 44.8551C225.036 49.6016 228.152 55.4571 228.829 62.4216C229.41 68.3985 229.235 74.9425 228.304 82.0538C228.294 82.1353 228.325 82.2226 228.391 82.3012C228.457 82.3799 228.555 82.4449 228.668 82.4855L229.252 82.7057C228.168 83.0499 227.9 83.651 228.448 84.5089C228.576 84.7141 228.636 84.9541 228.621 85.1955C228.606 85.4368 228.516 85.6674 228.363 85.8549C226.247 88.3947 224.026 90.8328 221.701 93.1694C220.843 94.0272 219.911 94.7751 218.907 95.4128C217.406 96.3666 216.356 96.9564 215.758 97.1822C214.262 97.7578 213.17 98.8527 212.481 100.467C211.793 102.075 211.381 103.659 211.245 105.216C211.116 106.667 210.856 107.818 210.466 108.67C209.75 110.251 209.01 111.82 208.248 113.377C204.089 121.866 197.474 127.526 188.405 130.36C184.014 131.731 179.973 132.386 176.282 132.324C174.983 132.301 174.044 132.366 173.462 132.518C172.424 132.784 171.566 133.21 170.889 133.797C169.421 135.067 167.584 137.039 165.378 139.714C159.818 146.442 152.961 151.369 144.806 154.496C142.052 155.551 138.736 156.113 134.858 156.18C124.496 156.361 114.972 154.386 106.286 150.254C105.355 149.808 104.472 149.292 103.637 148.705C102.57 147.949 101.675 147.497 100.953 147.35C99.1187 146.972 97.0163 147.023 94.6459 147.503C91.079 148.225 88.5392 148.507 87.0267 148.349C83.804 148.011 80.5729 147.785 77.3334 147.672C77.2861 147.671 77.24 147.659 77.1985 147.636C77.157 147.613 77.1213 147.58 77.0942 147.54C77.0671 147.5 77.0494 147.453 77.0424 147.404C77.0354 147.355 77.0394 147.305 77.054 147.257C77.7256 145.079 78.0078 142.849 77.9006 140.569C77.8952 140.459 77.8539 140.348 77.781 140.249C77.7081 140.149 77.6062 140.064 77.4857 140.002C77.0399 139.776 76.8423 139.384 76.8931 138.825C76.9552 138.126 76.6758 137.773 76.055 137.767C76.0663 136.012 75.3495 135.529 73.9047 136.32L72.2115 135.896C72.1065 135.867 71.9821 135.87 71.8484 135.906C71.7146 135.941 71.5751 136.007 71.4412 136.099C70.905 136.466 70.3632 136.825 69.8157 137.175C69.3981 137.451 68.797 137.685 68.0125 137.877C66.3701 138.289 64.7504 139.353 63.1531 141.069C62.5154 141.752 61.7535 142.234 60.8674 142.517C60.2522 142.714 59.4705 143.053 58.5224 143.532C57.8789 143.854 57.2102 144.356 56.516 145.039C54.6535 146.885 52.4862 148.307 50.0142 149.306C49.7602 149.408 49.5401 149.569 49.3539 149.789C48.0276 151.391 46.3175 152.201 44.2236 152.218C44.1097 152.218 44.0003 152.174 43.9182 152.095C43.8361 152.016 43.7878 151.909 43.7834 151.795C43.6084 146.445 43.933 140.998 44.757 135.456C44.8021 135.168 44.836 134.88 44.8586 134.593C45.3496 128.412 46.0014 122.698 46.8141 117.449C47.3221 114.165 47.3531 109.054 46.9073 102.118C46.7944 100.312 46.7323 99.3889 46.721 99.3494C46.4163 98.1021 45.4596 97.5744 43.8511 97.7663C42.4232 97.9413 40.9925 98.6862 39.559 100.001C38.2439 101.486 36.5536 102.699 34.4879 103.642C33.3648 104.15 32.0583 104.945 30.5683 106.029C30.5118 106.068 30.509 106.063 30.5598 106.012C30.7799 105.798 30.7037 105.679 30.3312 105.656C30.2184 105.651 30.097 105.676 29.9672 105.733C26.2197 107.471 23.9875 108.749 23.2708 109.568C21.8654 111.165 20.1356 112.133 18.0812 112.471C18.0279 112.48 17.9733 112.477 17.9212 112.463C17.8691 112.448 17.8206 112.423 17.779 112.389C17.7374 112.354 17.7035 112.311 17.6797 112.263C17.656 112.214 17.6427 112.161 17.641 112.107C17.4773 107.959 17.4519 103.808 17.5648 99.6542C17.5648 99.6147 17.7059 98.6552 17.9881 96.7758C18.2759 94.8851 17.4858 93.4318 15.6177 92.4159L16.2696 72.7753C16.2747 72.6369 16.2605 72.5071 16.2281 72.3966C16.1957 72.2861 16.1461 72.1983 16.0833 72.1403C15.914 71.9879 15.7531 72.0529 15.6008 72.3351C15.533 72.4649 15.4851 72.6342 15.4568 72.843C14.2942 82.7254 12.9538 92.5852 11.4356 102.422C10.6172 105.95 10.129 109.681 9.971 113.614C9.93714 114.094 9.70292 114.715 9.26834 115.477C4.38075 110.414 1.53342 104.847 0.726346 98.7737C-0.532236 89.23 1.34435 80.4622 6.3561 72.4705C8.89584 68.4238 11.9351 65.1335 15.4738 62.5994C19.4583 59.7549 23.7138 58.0194 28.2402 57.3929C33.4946 56.6649 39.0002 56.14 44.757 55.8183C44.9112 55.811 45.0598 55.757 45.1836 55.6634C45.3074 55.5698 45.4006 55.4409 45.4512 55.2934C49.5712 43.2042 58.068 37.3628 70.9417 37.7692C74.0289 37.8651 77.2177 38.3646 80.508 39.2676C80.6197 39.298 80.7381 39.2893 80.8431 39.243C80.9481 39.1967 81.0332 39.1156 81.0837 39.0137C85.136 30.9655 90.8024 24.2521 98.083 18.8735C101.469 16.3733 105.31 14.5193 109.605 13.3115C113.584 12.1884 117.76 11.7453 122.134 11.9824C134.957 12.6879 145.401 18.6111 153.466 29.7521C153.578 29.9041 153.744 30.0073 153.93 30.0404C154.116 30.0735 154.308 30.0339 154.465 29.9299C160.843 25.68 167.723 25.1777 175.105 28.423ZM134.13 20.8122C132.437 19.3279 131.04 18.47 129.94 18.2386C123.167 16.822 117.258 16.8756 112.212 18.3995C107.246 19.9007 103.137 22.9174 99.8862 27.4494C98.8591 28.8773 98.4273 30.3024 98.591 31.7246C98.7208 32.8703 99.4432 33.8636 100.758 34.7046C103.168 36.2454 105.759 37.3233 108.53 37.9385C111.199 38.5311 113.931 38.9488 116.725 39.1914C119.693 39.4398 122.758 39.1943 125.919 38.4549C128.447 37.8567 130.705 36.9311 132.691 35.6781C134.983 34.2333 136.512 32.4499 137.28 30.3278C138.521 26.8963 137.472 23.7244 134.13 20.8122ZM156.607 50.197C161.675 54.6669 167.266 56.9866 173.378 57.1559C175.703 57.2236 177.255 56.8624 178.034 56.0723C181.048 53.0246 182.304 49.452 181.801 45.3545C181.666 44.2145 181.161 43.1365 180.286 42.1206C179.484 41.1837 178.663 40.2638 177.822 39.3608C175.328 36.6799 172.407 35.0404 169.06 34.4421C165.612 33.827 162.429 33.937 159.511 34.7723C155.865 35.8164 153.712 38.4549 153.051 42.6878C152.797 44.302 153.018 45.6904 153.712 46.853C154.372 47.9648 155.337 49.0795 156.607 50.197ZM80.3048 46.2858C78.7076 45.2699 76.7915 44.6632 74.5566 44.4656C72.7336 44.3076 70.7498 44.223 68.6051 44.2117C62.9048 44.1834 58.6917 46.6724 55.9657 51.6785C54.4588 54.4496 54.4531 56.8991 55.9487 59.0268C57.0662 60.6184 58.8723 61.7782 61.3669 62.5063C63.5002 63.1214 65.6929 63.3359 67.9448 63.1497C69.3332 63.0311 70.7724 62.8618 72.2623 62.6417C73.6225 62.4442 75.0335 62.1055 76.4952 61.6258C79.9888 60.4858 82.1927 58.1887 83.107 54.7347C84.1173 50.925 83.1832 48.1088 80.3048 46.2858ZM149.775 92.5175C151.276 90.6437 152.86 88.8405 154.524 87.1079C154.841 86.7805 155.013 86.4673 155.041 86.1682C155.092 85.6376 154.852 85.2962 154.321 85.1438C154.196 85.1084 154.062 85.1095 153.935 85.1468C153.808 85.1842 153.693 85.2564 153.602 85.3554L144.916 94.634C144.713 94.8541 144.763 94.9585 145.068 94.9472C150.452 94.7609 155.831 94.4449 161.204 93.999C161.639 93.9652 161.963 93.8466 162.178 93.6435C162.561 93.2653 162.564 92.8505 162.186 92.399C162.11 92.3075 162.007 92.2352 161.883 92.1881C161.759 92.141 161.619 92.1204 161.475 92.1281L149.936 92.8223C149.654 92.8392 149.6 92.7376 149.775 92.5175ZM91.649 93.017C92.0667 93.5419 91.9453 93.7479 91.285 93.635C87.5995 93.0142 83.9931 92.5683 80.4657 92.2974C78.9983 92.1845 78.5778 92.605 79.2043 93.5588C79.2759 93.6678 79.3726 93.7605 79.488 93.8306C79.6034 93.9007 79.7348 93.9466 79.8731 93.9652L96.0851 96.1832C96.8075 96.2792 96.926 96.0506 96.4407 95.4975C94.0081 92.7263 91.601 89.7294 89.2193 86.5068C88.4687 85.4796 87.8225 85.3159 87.2807 86.0158C87.1068 86.2374 87.013 86.5117 87.0146 86.7943C87.0161 87.0769 87.1128 87.3514 87.2891 87.5735L91.649 93.017ZM129.195 110.203C126.508 108.216 123.562 107.361 120.357 107.637C117.303 107.897 114.634 108.998 112.348 110.939C109.052 113.744 107.734 117.658 108.394 122.681C108.412 122.82 108.464 122.949 108.544 123.053C108.624 123.157 108.727 123.231 108.843 123.265C109.622 123.519 110.023 123.186 110.045 122.266C110.107 119.49 110.734 117.08 111.925 115.037C113.166 112.903 114.984 111.408 117.377 110.55C119.459 109.799 121.598 109.664 123.794 110.143C126 110.623 127.778 111.636 129.127 113.183C130.803 115.101 131.884 117.669 132.369 120.886C132.474 121.577 132.777 122.226 133.241 122.757C133.411 122.949 133.642 122.91 133.936 122.639C134.12 122.464 134.236 122.198 134.257 121.894C134.652 116.882 132.965 112.985 129.195 110.203Z" fill="#739EBC"/>
<path d="M134.13 20.8122C137.472 23.7244 138.521 26.8962 137.28 30.3277C136.512 32.4498 134.983 34.2333 132.691 35.6781C130.705 36.931 128.447 37.8566 125.919 38.4549C122.758 39.1942 119.693 39.4397 116.725 39.1914C113.931 38.9487 111.199 38.5311 108.53 37.9385C105.759 37.3233 103.168 36.2453 100.758 34.7045C99.4432 33.8636 98.7208 32.8703 98.591 31.7246C98.4274 30.3023 98.8591 28.8772 99.8863 27.4493C103.137 22.9173 107.246 19.9007 112.212 18.3994C117.258 16.8756 123.167 16.8219 129.94 18.2386C131.04 18.47 132.437 19.3278 134.13 20.8122Z" fill="#7EABCA"/>
<path d="M193.239 23.2676C193.222 23.5047 193.303 23.6571 193.484 23.7248C194.24 24.5036 195.07 24.9326 195.973 25.0116C199.021 25.2881 201.792 25.7481 204.286 26.3915C205.218 26.6286 206.355 26.7104 207.698 26.637C209.414 26.5467 211.079 26.8515 212.693 27.5513C213.703 27.9915 216.658 28.1214 221.557 27.9408C221.613 27.9408 221.943 27.9097 222.547 27.8476C223.857 27.7122 224.949 28.1891 225.823 29.2783C225.887 29.3589 225.931 29.453 225.952 29.5531C225.973 29.6532 225.971 29.7566 225.945 29.8551C225.92 29.9537 225.872 30.0447 225.805 30.1209C225.738 30.1971 225.655 30.2564 225.561 30.2942C224.997 30.52 224.539 30.9123 224.19 31.471C222.378 34.3437 220.044 36.6887 217.188 38.5061C216.669 38.8334 215.938 39.9594 214.996 41.8839C214.88 42.121 214.685 42.3245 214.437 42.4681C212.828 43.3937 211.77 44.7425 211.262 46.5147C208.26 49.2463 205.449 52.1614 202.83 55.2599C201.718 56.5805 201.247 58.0677 201.417 59.7214C201.429 59.8474 201.479 59.9674 201.56 60.0666C201.641 60.1658 201.75 60.24 201.874 60.2801C205.39 61.454 209.013 61.962 212.744 61.8039C213.007 61.793 213.277 61.8731 213.514 62.0325C213.847 62.2413 214.189 62.4219 214.539 62.5743C214.872 62.7211 215.379 62.7747 216.062 62.7352C217.14 62.6731 217.668 63.1331 217.645 64.1151C217.64 64.3779 217.532 64.6419 217.341 64.8601C216.161 66.2203 214.736 67.1374 213.065 67.6115C212.321 67.8253 211.675 68.289 211.237 68.9237C209.99 70.7241 208.539 72.0955 206.885 73.0381C205.525 74.2063 204.038 74.7538 202.424 74.6804C202.193 74.6691 202.156 74.5619 202.314 74.3587C202.427 74.212 202.506 74.0427 202.551 73.8508C204.143 71.7174 205.926 70.1089 207.901 69.0253C209.408 68.1956 209.335 67.5466 207.681 67.0781C206.558 66.7621 205.421 66.6012 204.27 66.5956C202.638 66.5899 201.798 66.5871 201.747 66.5871C197.39 66.3275 192.92 65.9268 188.337 65.385C188.224 65.3713 188.116 65.3331 188.02 65.2732C187.924 65.2134 187.842 65.1333 187.78 65.0386C187.719 64.944 187.679 64.8372 187.664 64.7258C187.649 64.6145 187.659 64.5013 187.693 64.3945C188.19 62.8086 188.862 61.66 189.708 60.9489C192.367 58.7252 194.98 56.4536 197.548 54.1339C199.754 52.1473 202.176 49.6837 204.811 46.7433C207.154 44.1245 209.53 41.534 211.94 38.9717C212.831 38.0235 213.861 37.081 215.03 36.1441C216.757 34.767 217.812 33.8442 218.196 33.3758C219.223 32.1229 218.958 31.646 217.4 31.9451C216.187 32.1821 215.078 32.2047 214.073 32.0128C212.453 31.708 211.398 31.5528 210.907 31.5472C208.435 31.519 206.013 31.1465 203.643 30.4297C198.772 29.6678 193.905 28.9002 189.04 28.127C187.499 27.8843 185.402 27.8533 182.749 28.0339C182.349 28.0621 182.242 27.8956 182.428 27.5344C184.397 23.6514 186.954 20.8323 190.098 19.0771C190.216 19.0116 190.352 18.9873 190.475 19.0094C190.598 19.0315 190.699 19.0982 190.758 19.1956L193.239 23.2676Z" fill="#FABA36"/>
<path d="M193.484 23.7246L201.315 23.8685C213.895 24.574 223.066 25.1497 228.829 25.5955C229.608 25.6576 230.389 25.9455 231.174 26.4591C231.271 26.524 231.338 26.6241 231.364 26.739C231.389 26.8538 231.369 26.9747 231.309 27.0771C231.061 27.5229 230.821 27.9773 230.59 28.4401C230.353 28.9254 230.068 29.3431 229.735 29.693C225.643 34.0162 221.672 38.4466 217.823 42.9843C216.604 42.386 215.498 42.4679 214.505 43.2298C213.274 44.1723 212.193 45.2672 211.262 46.5145C211.77 44.7424 212.828 43.3935 214.437 42.4679C214.685 42.3243 214.88 42.1208 214.996 41.8837C215.938 39.9592 216.669 38.8332 217.188 38.5059C220.044 36.6886 222.378 34.3435 224.19 31.4708C224.539 30.9121 224.997 30.5198 225.561 30.2941C225.655 30.2563 225.738 30.1969 225.805 30.1207C225.872 30.0445 225.92 29.9535 225.945 29.855C225.971 29.7564 225.973 29.653 225.952 29.5529C225.931 29.4528 225.887 29.3587 225.823 29.2782C224.949 28.1889 223.857 27.712 222.547 27.8475C221.943 27.9095 221.613 27.9406 221.557 27.9406C216.658 28.1212 213.703 27.9914 212.693 27.5511C211.079 26.8513 209.414 26.5465 207.698 26.6368C206.355 26.7102 205.218 26.6284 204.286 26.3913C201.792 25.7479 199.021 25.288 195.973 25.0114C195.07 24.9324 194.24 24.5035 193.484 23.7246Z" fill="#EDBE4D"/>
<path d="M203.643 30.4297C206.014 31.1465 208.435 31.519 210.907 31.5472C211.398 31.5528 212.453 31.708 214.073 32.0128C215.078 32.2047 216.187 32.1821 217.4 31.9451C218.958 31.6459 219.223 32.1228 218.196 33.3758C217.812 33.8442 216.757 34.767 215.03 36.1441C213.861 37.081 212.831 38.0235 211.94 38.9717C209.53 41.534 207.154 44.1245 204.811 46.7433C202.176 49.6837 199.754 52.1473 197.548 54.1339C194.98 56.4536 192.367 58.7252 189.708 60.9489C188.862 61.66 188.19 62.8085 187.694 64.3945C187.659 64.5013 187.649 64.6145 187.664 64.7258C187.679 64.8372 187.719 64.944 187.78 65.0386C187.842 65.1332 187.924 65.2134 188.02 65.2732C188.116 65.3331 188.224 65.3713 188.337 65.385C192.92 65.9268 197.39 66.3275 201.747 66.5871C201.798 66.5871 202.638 66.5899 204.27 66.5956C205.421 66.6012 206.558 66.7621 207.681 67.0781C209.335 67.5466 209.408 68.1956 207.901 69.0253C205.926 70.1089 204.143 71.7174 202.551 73.8508C201.366 74.0709 200.483 73.2807 199.901 71.4803C199.778 71.1055 199.557 70.7704 199.261 70.5099C198.965 70.2493 198.604 70.0729 198.217 69.9988C196.574 69.6884 194.847 69.3498 193.035 68.9829C192.979 68.9716 191.605 68.6302 188.913 67.9586C186.051 67.2418 183.13 67.0697 180.151 67.4421C180.011 67.4601 179.873 67.4462 179.75 67.4016C179.627 67.3571 179.523 67.2835 179.448 67.1882C179.053 66.6746 178.912 66.113 179.025 65.5035C179.115 64.9955 179.487 64.4961 180.142 64.005C184.386 60.8388 187.758 58.1072 190.259 55.8102C191.715 54.4669 193.171 53.3156 194.627 52.3561C196.642 51.0242 198.126 49.9264 199.08 49.0629C201.089 47.2287 203.121 45.4198 205.175 43.6363C206.541 42.4568 207.501 40.8172 208.054 38.7177L208.088 38.5399L211.973 35.5684C212.182 35.4104 212.16 35.3088 211.906 35.2637L203.008 33.816C198.228 31.5754 198.439 30.4466 203.643 30.4297Z" fill="#EFA538"/>
<path d="M156.607 50.1975C155.337 49.08 154.372 47.9653 153.712 46.8535C153.018 45.6909 152.797 44.3025 153.051 42.6883C153.712 38.4554 155.865 35.8169 159.511 34.7728C162.429 33.9375 165.612 33.8275 169.06 34.4426C172.407 35.0409 175.328 36.6804 177.822 39.3613C178.663 40.2643 179.484 41.1842 180.286 42.1211C181.161 43.137 181.666 44.215 181.801 45.3551C182.304 49.4525 181.048 53.0251 178.034 56.0728C177.255 56.8629 175.703 57.2241 173.378 57.1564C167.266 56.9871 161.675 54.6674 156.607 50.1975Z" fill="#7EABCA"/>
<path d="M208.054 38.7178C207.501 40.8173 206.541 42.4568 205.175 43.6364C203.121 45.4199 201.089 47.2287 199.08 49.063C198.126 49.9265 196.642 51.0242 194.627 52.3562C193.171 53.3156 191.715 54.467 190.259 55.8102C187.758 58.1073 184.386 60.8389 180.142 64.0051C179.487 64.4961 179.115 64.9956 179.024 65.5036C178.912 66.1131 179.053 66.6747 179.448 67.1883C179.523 67.2836 179.627 67.3571 179.75 67.4017C179.873 67.4462 180.011 67.4602 180.15 67.4422C183.13 67.0697 186.051 67.2419 188.913 67.9586C191.605 68.6303 192.979 68.9717 193.035 68.983C194.847 69.3499 196.574 69.6885 198.216 69.9989C198.604 70.073 198.965 70.2494 199.261 70.5099C199.557 70.7705 199.778 71.1056 199.901 71.4804C200.482 73.2808 201.366 74.0709 202.551 73.8508C202.506 74.0427 202.427 74.212 202.314 74.3588C202.156 74.562 202.193 74.6692 202.424 74.6805C204.038 74.7538 205.525 74.2064 206.885 73.0381C203.719 76.2382 201.211 78.397 199.359 79.5145C197.615 80.5586 196.309 81.5942 195.44 82.6214C195.253 82.8415 195.036 83.0052 194.788 83.1124C193.174 83.8235 191.797 84.8535 190.656 86.2024C193.287 82.7653 195.375 79.0404 196.921 75.0276C197.435 74.4971 197.819 73.8706 198.073 73.1482C198.09 73.098 198.096 73.0446 198.09 72.9915C198.084 72.9384 198.067 72.8869 198.039 72.8404C198.011 72.7939 197.973 72.7535 197.927 72.7219C197.882 72.6903 197.831 72.6682 197.776 72.6572C191.839 71.4719 185.856 70.6141 179.829 70.0836C179.513 70.0553 179.177 69.965 178.821 69.8126C178.5 69.6715 178.167 69.5474 177.822 69.4401C179.38 69.3555 179.874 69.1156 179.304 68.7206C179.072 68.5569 178.864 68.3706 178.677 68.1618C178.254 67.6877 177.69 67.4366 176.984 67.4084C176.104 67.3689 175.901 67.1205 176.375 66.6634C176.462 66.5802 176.524 66.4739 176.551 66.3578C176.578 66.2418 176.57 66.1212 176.527 66.0115C176.375 65.5995 176.372 65.179 176.519 64.7501C184.189 58.1411 191.943 51.6338 199.783 45.228C203.084 42.5302 205.147 40.9245 205.971 40.4109C206.276 40.219 206.488 39.807 206.606 39.1749C207.137 39.1862 207.619 39.0338 208.054 38.7178Z" fill="#DCAB5E"/>
<path d="M203.516 38.7939L206.606 39.1749C206.488 39.807 206.276 40.219 205.971 40.4109C205.147 40.9245 203.084 42.5302 199.783 45.228C191.943 51.6337 184.189 58.1411 176.519 64.7501C175.288 64.9476 174.436 66.0115 173.962 67.9417C173.929 68.0728 173.924 68.2092 173.946 68.342C173.969 68.4747 174.018 68.6009 174.092 68.712C174.165 68.8232 174.261 68.9169 174.373 68.9869C174.485 69.057 174.61 69.1018 174.741 69.1184L177.399 69.4401C177.89 70.5181 178.596 71.0712 179.516 71.0994C182.608 71.1897 185.193 71.4296 187.27 71.819C187.682 71.8924 188.698 72.1943 190.318 72.7249C191.413 73.0804 192.46 73.2864 193.459 73.3429C193.582 73.3514 193.701 73.3918 193.803 73.46C193.906 73.5283 193.989 73.6222 194.045 73.7323C194.1 73.8425 194.126 73.9652 194.12 74.0883C194.114 74.2115 194.075 74.331 194.009 74.435C189.279 81.7833 183.839 88.158 177.687 93.5592C181.429 88.5869 185.284 83.7106 189.251 78.9303C190.041 77.9765 190.222 76.7038 189.793 75.1122C189.758 74.9813 189.697 74.8589 189.612 74.7525C189.528 74.6462 189.422 74.5582 189.302 74.4942C187.823 73.7154 186.263 73.278 184.62 73.182C182.103 73.0296 180.825 72.9506 180.785 72.945C178.511 72.5894 176.871 72.2028 175.867 71.7852C174.49 71.2208 173.722 70.092 173.564 68.3988C173.537 68.1303 173.42 67.8797 173.234 67.6877C171.958 66.4009 171.916 65.1649 173.107 63.9797C173.874 63.2065 174.27 62.8086 174.292 62.786C175.41 61.5049 176.629 60.3422 177.949 59.2981C179.552 58.0226 180.811 56.922 181.725 55.9965C184.491 53.2084 187.482 50.6771 190.699 48.4026C190.721 48.3913 191.162 48.1628 192.02 47.7169C192.573 47.4291 192.965 46.9804 193.196 46.3708C193.306 46.0964 193.482 45.8783 193.696 45.7528C196.01 44.4435 198.343 43.1708 200.697 41.9348C201.944 41.2801 202.884 40.2331 203.516 38.7939Z" fill="#8E9791"/>
<path d="M217.823 42.9845V43.7634C217.473 43.4473 217.174 43.4417 216.926 43.7465C212.744 48.7864 208.322 53.6289 203.66 58.2738C203.141 58.793 203.245 59.0808 203.973 59.1373L223.402 60.6865C223.905 61.7927 223.701 62.7211 222.793 63.4718C216.658 68.5964 210.503 73.6166 204.329 78.5324C202.246 80.1861 200.271 81.9582 198.403 83.8489C197.432 84.831 196.348 85.6296 195.152 86.2448C193.572 87.0688 192.463 87.7686 191.825 88.3443C190.645 89.411 189.505 90.5172 188.405 91.6629C188.438 90.8219 188.103 90.5454 187.397 90.8332C186.105 91.3694 185.1 91.6234 184.383 91.5952C186.071 89.394 188.162 87.5965 190.657 86.2024C191.797 84.8535 193.174 83.8235 194.788 83.1124C195.036 83.0052 195.253 82.8415 195.44 82.6214C196.309 81.5942 197.615 80.5586 199.359 79.5145C201.211 78.397 203.719 76.2382 206.885 73.0381C208.539 72.0956 209.99 70.7241 211.237 68.9237C211.675 68.2891 212.321 67.8254 213.065 67.6115C214.736 67.1375 216.161 66.2203 217.341 64.8602C217.532 64.6419 217.64 64.3779 217.645 64.1152C217.668 63.1331 217.14 62.6732 216.062 62.7352C215.379 62.7747 214.872 62.7211 214.539 62.5744C214.189 62.422 213.847 62.2414 213.514 62.0326C213.277 61.8732 213.007 61.7931 212.744 61.804C209.013 61.962 205.39 61.4541 201.874 60.2802C201.75 60.24 201.641 60.1658 201.56 60.0666C201.479 59.9674 201.429 59.8475 201.417 59.7214C201.247 58.0678 201.719 56.5806 202.83 55.2599C205.449 52.1615 208.26 49.2464 211.262 46.5148C212.194 45.2675 213.274 44.1726 214.505 43.23C215.498 42.4681 216.604 42.3863 217.823 42.9845Z" fill="#DDC06E"/>
<path d="M217.823 43.7628L218.678 44.4062C215.704 49.0003 211.838 53.0752 207.08 56.6309C205.652 57.6919 205.827 58.197 207.605 58.1462C212.566 57.9995 217.832 58.8461 223.402 60.686L203.973 59.1367C203.245 59.0803 203.141 58.7925 203.66 58.2732C208.322 53.6283 212.744 48.7859 216.926 43.7459C217.174 43.4411 217.473 43.4468 217.823 43.7628Z" fill="#859179"/>
<path d="M80.3048 46.2858C83.1832 48.1088 84.1172 50.925 83.107 54.7346C82.1927 58.1887 79.9888 60.4857 76.4952 61.6258C75.0334 62.1055 73.6225 62.4442 72.2623 62.6417C70.7723 62.8618 69.3331 63.0311 67.9448 63.1497C65.6929 63.3359 63.5002 63.1214 61.3668 62.5063C58.8722 61.7782 57.0662 60.6184 55.9487 59.0268C54.4531 56.8991 54.4587 54.4496 55.9656 51.6785C58.6916 46.6724 62.9048 44.1834 68.6051 44.2117C70.7498 44.223 72.7336 44.3076 74.5565 44.4656C76.7915 44.6632 78.7076 45.2699 80.3048 46.2858Z" fill="#7EABCA"/>
<path d="M222.793 63.4717C221.67 66.7733 219.689 69.3159 216.85 71.0994C215.326 72.0532 214.115 72.9251 213.218 73.7153C212.467 74.3756 211.683 75.0021 210.864 75.5947C210.057 76.176 209.315 76.842 208.638 77.5926C206.99 79.4269 205.325 80.7899 203.643 81.6816C201.081 83.0418 198.739 84.8591 196.616 87.1336C196.396 87.3706 196.154 87.5766 195.888 87.7516C192.017 90.2744 189.09 92.6166 187.109 94.7782C185.19 96.8834 183.032 98.6781 180.633 100.162C179.29 100.992 178.096 101.943 177.052 103.015C174.354 105.781 171.278 108.058 167.824 109.847C167.705 109.911 167.575 109.947 167.443 109.953C167.311 109.958 167.181 109.934 167.062 109.881C165.488 109.187 165.632 108.668 167.494 108.323C174.667 103.024 181.638 97.4703 188.405 91.6628C189.505 90.5171 190.645 89.4109 191.825 88.3442C192.463 87.7685 193.572 87.0687 195.152 86.2447C196.348 85.6295 197.432 84.8309 198.403 83.8488C200.271 81.9582 202.246 80.186 204.329 78.5323C210.503 73.6165 216.658 68.5963 222.793 63.4717Z" fill="#91987D"/>
<path d="M176.519 64.75C176.372 65.1789 176.375 65.5994 176.527 66.0114C176.57 66.1211 176.578 66.2416 176.551 66.3577C176.524 66.4738 176.462 66.5801 176.375 66.6633C175.901 67.1204 176.104 67.3688 176.984 67.4083C177.69 67.4365 178.254 67.6876 178.677 68.1617C178.864 68.3705 179.073 68.5568 179.304 68.7205C179.874 69.1155 179.38 69.3554 177.822 69.44C177.681 69.3949 177.54 69.3949 177.399 69.44L174.741 69.1184C174.61 69.1017 174.485 69.0569 174.373 68.9869C174.261 68.9168 174.165 68.8231 174.092 68.7119C174.018 68.6008 173.969 68.4747 173.946 68.3419C173.924 68.2091 173.929 68.0727 173.962 67.9416C174.436 66.0114 175.288 64.9475 176.519 64.75Z" fill="#C9C897"/>
<path d="M177.399 69.4401C177.54 69.395 177.681 69.395 177.822 69.4401C178.167 69.5473 178.5 69.6715 178.821 69.8126C179.177 69.965 179.513 70.0553 179.829 70.0835C185.856 70.614 191.839 71.4719 197.776 72.6571C197.831 72.6682 197.882 72.6902 197.928 72.7218C197.973 72.7534 198.011 72.7938 198.039 72.8403C198.067 72.8868 198.084 72.9384 198.09 72.9915C198.096 73.0445 198.09 73.098 198.073 73.1481C197.819 73.8706 197.435 74.497 196.921 75.0275C194.274 77.4996 192.722 79.0996 192.265 79.8277C190.798 82.1811 189.065 84.2807 187.067 86.1262C184.556 88.4458 182.927 90.0289 182.182 90.8755C179.253 94.2223 176.299 97.555 173.319 100.874L169.602 105.174C169.049 104.491 169.055 103.732 169.619 102.897C172.17 99.1381 174.859 96.0255 177.687 93.5592C183.839 88.158 189.279 81.7833 194.009 74.4349C194.075 74.331 194.114 74.2115 194.12 74.0883C194.126 73.9651 194.1 73.8424 194.045 73.7323C193.989 73.6221 193.906 73.5283 193.803 73.46C193.701 73.3917 193.582 73.3514 193.459 73.3428C192.46 73.2864 191.413 73.0804 190.318 72.7248C188.698 72.1943 187.682 71.8924 187.27 71.819C185.193 71.4296 182.608 71.1897 179.516 71.0994C178.596 71.0712 177.89 70.5181 177.399 69.4401Z" fill="#91987D"/>
<path d="M15.6177 92.4163L15.1013 113.217C15.4794 111.298 14.7119 109.983 12.7986 109.272C12.6858 109.228 12.5856 109.15 12.5083 109.046C12.431 108.942 12.3793 108.815 12.3584 108.679L11.4356 102.423C12.9538 92.5856 14.2942 82.7258 15.4569 72.8434C15.4851 72.6345 15.5331 72.4652 15.6008 72.3354C15.7532 72.0532 15.914 71.9883 16.0833 72.1407C16.1461 72.1986 16.1957 72.2865 16.2282 72.397C16.2606 72.5074 16.2748 72.6373 16.2696 72.7756L15.6177 92.4163Z" fill="#C9C897"/>
<path d="M196.921 75.0269C195.375 79.0396 193.287 82.7646 190.657 86.2017C188.162 87.5957 186.071 89.3933 184.383 91.5944C182.476 93.3102 180.729 95.1726 179.143 97.1818C178.415 98.1074 176.474 99.3378 173.319 100.873C176.299 97.5543 179.253 94.2216 182.182 90.8748C182.927 90.0282 184.556 88.4451 187.067 86.1255C189.065 84.28 190.798 82.1805 192.265 79.827C192.722 79.0989 194.274 77.4989 196.921 75.0269Z" fill="#C2AC74"/>
<path d="M229.252 82.7056C231.436 82.9257 233.556 83.4223 235.61 84.1955C242.648 86.8425 246.604 91.9305 247.479 99.4594C247.835 102.53 247.595 105.484 246.759 108.323C246.071 110.654 244.863 113.301 243.136 116.264C240.715 120.418 237.611 123.934 233.824 126.812C233.521 127.041 233.275 127.337 233.106 127.676C232.938 128.016 232.85 128.389 232.85 128.768C232.844 140.727 229.131 150.505 221.709 158.102C218.554 161.325 213.949 164.542 207.893 167.753C195.059 174.559 181.226 178.956 166.394 180.943C160.225 181.767 154.296 182.356 148.607 182.712C143.245 183.039 137.604 183.085 131.684 182.847C109.041 181.933 86.8178 178.253 65.0156 171.808C64.6939 171.199 64.6798 170.682 64.9733 170.259C66.6946 170.665 67.7839 169.994 68.2411 168.244C68.5232 167.172 68.67 166.619 68.6813 166.585C69.3416 164.638 69.9822 162.688 70.603 160.735C70.9586 159.606 71.5484 158.014 72.3724 155.96C73.0101 154.374 73.5604 152.757 74.0232 151.109C74.2377 150.353 74.3957 149.159 74.4973 147.528C74.5932 146.021 74.9065 144.83 75.437 143.956C76.3061 142.539 76.3485 141.323 75.564 140.307C75.4793 139.398 75.643 138.552 76.055 137.767C76.6758 137.773 76.9552 138.125 76.8931 138.825C76.8423 139.384 77.0398 139.776 77.4857 140.002C77.6061 140.064 77.7081 140.149 77.781 140.249C77.8539 140.348 77.8952 140.459 77.9005 140.569C78.0078 142.849 77.7256 145.079 77.054 147.257C77.0394 147.305 77.0354 147.355 77.0424 147.404C77.0494 147.453 77.0671 147.5 77.0942 147.54C77.1213 147.58 77.157 147.613 77.1985 147.636C77.2399 147.659 77.2861 147.671 77.3333 147.672C80.5729 147.785 83.804 148.011 87.0267 148.349C88.5392 148.507 91.079 148.225 94.6459 147.503C97.0163 147.023 99.1186 146.972 100.953 147.35C101.675 147.497 102.57 147.949 103.637 148.705C104.472 149.292 105.355 149.808 106.286 150.254C114.972 154.385 124.496 156.361 134.858 156.18C138.736 156.112 142.052 155.551 144.806 154.496C152.961 151.369 159.818 146.442 165.378 139.714C167.584 137.039 169.421 135.067 170.889 133.797C171.566 133.21 172.424 132.784 173.462 132.518C174.044 132.366 174.983 132.301 176.282 132.324C179.973 132.386 184.014 131.731 188.405 130.36C197.474 127.526 204.089 121.866 208.248 113.377C209.01 111.819 209.75 110.25 210.466 108.67C210.856 107.818 211.116 106.667 211.245 105.216C211.381 103.658 211.793 102.075 212.481 100.467C213.17 98.8527 214.262 97.7577 215.758 97.1821C216.356 96.9563 217.406 96.3665 218.907 95.4127C219.911 94.775 220.843 94.0272 221.701 93.1693C224.026 90.8327 226.247 88.3946 228.363 85.8548C228.516 85.6673 228.606 85.4367 228.621 85.1954C228.636 84.954 228.576 84.714 228.448 84.5088C227.9 83.6509 228.168 83.0498 229.252 82.7056Z" fill="#6194B2"/>
<path d="M149.936 92.8224L161.475 92.1282C161.62 92.1206 161.759 92.1411 161.883 92.1882C162.007 92.2353 162.111 92.3076 162.186 92.3992C162.564 92.8507 162.561 93.2655 162.178 93.6436C161.963 93.8468 161.639 93.9653 161.204 93.9992C155.831 94.4451 150.452 94.7611 145.068 94.9474C144.763 94.9586 144.713 94.8542 144.916 94.6341L153.602 85.3556C153.693 85.2566 153.808 85.1843 153.935 85.147C154.062 85.1096 154.196 85.1086 154.321 85.144C154.852 85.2963 155.092 85.6378 155.041 86.1683C155.013 86.4674 154.841 86.7807 154.525 87.108C152.86 88.8407 151.276 90.6439 149.775 92.5177C149.6 92.7378 149.654 92.8394 149.936 92.8224Z" fill="#0D111F"/>
<path d="M91.649 93.0169L87.2891 87.5734C87.1128 87.3514 87.0161 87.0769 87.0145 86.7942C87.013 86.5116 87.1067 86.2373 87.2806 86.0157C87.8224 85.3159 88.4687 85.4796 89.2193 86.5067C91.601 89.7294 94.0081 92.7263 96.4406 95.4974C96.926 96.0505 96.8075 96.2791 96.085 96.1832L79.8731 93.9651C79.7347 93.9465 79.6034 93.9006 79.488 93.8305C79.3726 93.7604 79.2758 93.6677 79.2042 93.5588C78.5778 92.6049 78.9982 92.1845 80.4657 92.2973C83.9931 92.5682 87.5995 93.0141 91.2849 93.6349C91.9453 93.7478 92.0666 93.5418 91.649 93.0169Z" fill="#0D111F"/>
<path d="M188.405 91.6624C181.638 97.4699 174.668 103.024 167.494 108.323L166.935 107.925C166.922 107.917 166.922 107.896 166.934 107.865C166.946 107.833 166.97 107.791 167.005 107.742C167.04 107.693 167.085 107.637 167.137 107.578C167.189 107.519 167.247 107.459 167.308 107.4L169.602 105.174L173.319 100.873C176.474 99.3381 178.415 98.1077 179.143 97.1821C180.729 95.1729 182.476 93.3104 184.383 91.5947C185.1 91.6229 186.105 91.3689 187.397 90.8328C188.103 90.5449 188.439 90.8215 188.405 91.6624Z" fill="#C9C897"/>
<path d="M15.6177 92.4155C17.4859 93.4314 18.276 94.8847 17.9882 96.7754C17.706 98.6548 17.5649 99.6143 17.5649 99.6538C17.452 103.808 17.4774 107.959 17.6411 112.107C17.6428 112.161 17.656 112.214 17.6798 112.262C17.7036 112.311 17.7374 112.354 17.7791 112.388C17.8207 112.423 17.8692 112.448 17.9213 112.462C17.9734 112.476 18.0279 112.479 18.0813 112.471C20.1357 112.132 21.8655 111.164 23.2708 109.567C23.9876 108.749 26.2197 107.471 29.9673 105.732C30.0971 105.676 30.2184 105.65 30.3313 105.656C30.7038 105.679 30.78 105.797 30.5599 106.012C30.5091 106.062 30.5119 106.068 30.5683 106.029C32.0583 104.945 33.3649 104.149 34.488 103.641C36.5537 102.699 38.244 101.485 39.559 100.001C40.637 99.967 41.5739 100.221 42.3697 100.763C42.206 100.994 41.9943 101.183 41.7347 101.33L15.9818 118.516C15.9153 118.561 15.838 118.588 15.7576 118.594C15.6772 118.6 15.5964 118.585 15.523 118.55C15.4497 118.515 15.3863 118.462 15.3391 118.395C15.2919 118.328 15.2625 118.25 15.2537 118.168L15.0336 115.967L15.1013 113.216L15.6177 92.4155Z" fill="#91987D"/>
<path d="M73.9047 136.32L71.1533 138.368C68.9071 139.65 66.7399 141.046 64.6516 142.559C61.3105 144.975 59.2138 146.467 58.3615 147.037C52.9039 150.683 47.5056 154.448 42.1665 158.331C41.7883 158.579 41.3791 158.703 40.9389 158.703C40.8872 158.703 40.8362 158.691 40.7894 158.668C40.7425 158.644 40.7009 158.61 40.6672 158.568C40.6336 158.525 40.6087 158.476 40.5943 158.422C40.5798 158.367 40.5761 158.311 40.5834 158.255L41.0659 154.699C42.855 132.479 43.9951 119.357 44.4861 115.333C45.1069 110.203 45.3891 105.064 45.3327 99.9167C45.3321 99.8295 45.3078 99.7446 45.2622 99.6703C45.2166 99.596 45.1513 99.5349 45.0726 99.493C44.994 99.4511 44.9047 99.4299 44.8138 99.4314C44.7228 99.433 44.6332 99.4573 44.5538 99.5019L42.3696 100.763C41.5739 100.221 40.637 99.9675 39.559 100.001C40.9925 98.6864 42.4233 97.9414 43.8511 97.7664C45.4597 97.5745 46.4163 98.1022 46.7211 99.3495C46.7323 99.389 46.7944 100.312 46.9073 102.118C47.3532 109.054 47.3221 114.165 46.8142 117.449C46.0015 122.698 45.3496 128.413 44.8586 134.593C44.836 134.88 44.8021 135.168 44.757 135.456C43.933 140.998 43.6085 146.445 43.7834 151.795C43.7878 151.909 43.8361 152.017 43.9182 152.096C44.0003 152.174 44.1098 152.219 44.2236 152.218C46.3175 152.201 48.0276 151.392 49.3539 149.789C49.5402 149.569 49.7603 149.408 50.0142 149.306C52.4863 148.307 54.6535 146.885 56.516 145.039C57.2102 144.357 57.879 143.854 58.5224 143.533C59.4705 143.053 60.2522 142.714 60.8674 142.517C61.7535 142.234 62.5154 141.752 63.1532 141.069C64.7504 139.353 66.3702 138.289 68.0125 137.877C68.797 137.685 69.3981 137.451 69.8158 137.175C70.3632 136.825 70.905 136.466 71.4412 136.1C71.5751 136.007 71.7146 135.941 71.8484 135.906C71.9822 135.871 72.1065 135.867 72.2116 135.896L73.9047 136.32Z" fill="#859179"/>
<path d="M41.0658 154.699C39.3557 154.818 38.7265 154.217 39.178 152.896C39.494 151.97 39.669 151.31 39.7028 150.915C40.0471 146.501 40.2305 142.082 40.2531 137.658C40.2588 136.715 40.3575 135.527 40.5494 134.093C40.7074 132.903 40.7893 131.706 40.7949 130.504C40.8062 128.173 40.8824 126.392 41.0235 125.162C41.3621 122.272 41.5738 119.371 41.6584 116.459C41.6754 115.917 41.8136 115.302 42.0733 114.614C42.3047 114.004 42.4599 113.375 42.5389 112.726C42.7026 111.32 42.8352 110.386 42.9368 109.924C43.456 107.593 43.5802 105.205 43.3093 102.761C42.6715 102.4 42.1466 101.923 41.7346 101.331C41.9943 101.184 42.2059 100.995 42.3696 100.764L44.5537 99.5022C44.6331 99.4576 44.7227 99.4333 44.8137 99.4317C44.9047 99.4302 44.9939 99.4514 45.0725 99.4933C45.1512 99.5352 45.2165 99.5963 45.2621 99.6706C45.3078 99.7449 45.332 99.8298 45.3326 99.917C45.389 105.064 45.1068 110.203 44.486 115.333C43.995 119.357 42.8549 132.479 41.0658 154.699Z" fill="#DDC06E"/>
<path d="M41.7347 101.331C42.1467 101.924 42.6716 102.401 43.3093 102.762C40.9445 103.574 38.8394 104.709 36.9938 106.165C36.3279 106.69 35.501 107.226 34.5134 107.774C33.6442 108.259 32.8371 108.846 32.0921 109.534C31.9228 109.692 31.7846 109.929 31.6773 110.246C31.2879 111.414 30.1732 112.184 28.3333 112.557C27.6178 112.7 26.9637 113.064 26.4624 113.598C24.0581 116.16 21.0273 118.102 17.3701 119.422C17.1272 119.511 16.8494 119.519 16.5743 119.448C15.3553 119.132 14.2575 119.248 13.2811 119.795C12.4289 120.269 11.8532 121.195 11.5541 122.572C11.08 124.728 10.716 126.901 10.462 129.09C10.4485 129.213 10.4771 129.336 10.5425 129.435C10.608 129.535 10.7057 129.605 10.8176 129.632C11.9972 129.914 13.1062 129.706 14.1447 129.006C15.5613 128.046 16.8706 126.963 18.0728 125.755C18.9589 124.863 20.0622 124.564 21.3829 124.858C18.5836 128.515 14.8868 131.091 10.2927 132.587C8.9269 133.027 8.22988 132.615 8.20166 131.351L8.117 127.609L9.26835 115.477C9.70293 114.715 9.93715 114.095 9.97102 113.615C11.2917 112.909 12.3555 113.003 13.1626 113.894C13.3383 114.087 13.5784 114.22 13.8483 114.275C14.6611 114.445 15.0561 115.009 15.0336 115.968L15.2537 118.17C15.2624 118.251 15.2918 118.329 15.3391 118.396C15.3863 118.463 15.4496 118.516 15.523 118.551C15.5963 118.586 15.6772 118.601 15.7576 118.595C15.838 118.589 15.9152 118.562 15.9817 118.517L41.7347 101.331Z" fill="#E3BF5E"/>
<path d="M11.4356 102.423L12.3584 108.679C12.3793 108.815 12.431 108.942 12.5084 109.046C12.5857 109.15 12.6858 109.228 12.7986 109.272C14.7119 109.983 15.4795 111.298 15.1013 113.217L15.0336 115.968C15.0562 115.009 14.6611 114.444 13.8484 114.275C13.5785 114.22 13.3383 114.087 13.1627 113.894C12.3556 113.002 11.2917 112.909 9.97107 113.615C10.1291 109.681 10.6173 105.95 11.4356 102.423Z" fill="#DDC06E"/>
<path d="M43.3093 102.761C43.5802 105.205 43.4561 107.592 42.9368 109.923C42.8352 110.386 42.7026 111.32 42.5389 112.725C42.4599 113.375 42.3047 114.004 42.0733 114.613C41.8137 115.302 41.6754 115.917 41.6585 116.459C41.5738 119.371 41.3622 122.272 41.0236 125.162C40.8825 126.392 40.8063 128.173 40.795 130.504C40.7893 131.706 40.7075 132.902 40.5495 134.093C40.3576 135.527 40.2588 136.715 40.2532 137.657C40.2306 142.082 40.0472 146.501 39.7029 150.915C39.669 151.31 39.4941 151.97 39.178 152.896C38.7265 154.216 39.3558 154.817 41.0659 154.699L40.5833 158.255C40.5761 158.311 40.5798 158.368 40.5942 158.422C40.6087 158.476 40.6336 158.525 40.6672 158.568C40.7009 158.61 40.7425 158.644 40.7893 158.668C40.8362 158.691 40.8872 158.703 40.9389 158.703C41.3791 158.703 41.7883 158.579 42.1664 158.331C46.642 157.924 50.5673 156.197 53.9424 153.15C54.7099 152.461 55.6158 152.052 56.6599 151.922C60.2437 149.495 64.0223 147.455 67.9956 145.801C69.1695 145.316 69.5843 145.686 69.2401 146.91C68.0323 151.205 66.7031 155.478 65.2527 159.728C65.2357 159.79 64.8463 160.622 64.0844 162.225C63.4015 163.659 63.314 165.261 63.8219 167.034C62.727 168.608 61.9482 170.287 61.4854 172.071C61.175 173.256 60.4638 174.749 59.352 176.549C58.6635 177.672 57.9777 179.425 57.2948 181.806C57.2631 181.923 57.2021 182.034 57.1159 182.132C57.0297 182.23 56.9204 182.312 56.7953 182.374C55.6666 182.944 55.0852 184.115 55.0514 185.887C55.0466 186.17 54.9612 186.446 54.8051 186.682C54.649 186.917 54.429 187.103 54.1709 187.216C53.2058 187.639 52.8418 188.517 53.0788 189.849C53.1332 190.176 53.109 190.463 53.0111 190.653L50.2259 195.834C50.0838 196.102 50.0267 196.369 50.065 196.588C50.3416 198.185 50.1582 199.726 49.5148 201.21C49.2156 201.904 48.6089 203.826 47.6946 206.975C47.6946 204.091 48.1207 201.283 48.9729 198.552C49.1987 197.829 49.4103 196.749 49.6079 195.309C49.7659 194.192 50.1074 193.125 50.6322 192.109C50.7592 191.867 50.8094 191.589 50.7762 191.313C50.5956 189.654 50.9568 187.888 51.8598 186.014C51.9839 185.749 52.0658 185.472 52.1053 185.184C52.8277 179.693 54.25 174.399 56.372 169.302C57.2638 167.908 57.9806 166.432 58.5224 164.875C58.9061 163.769 59.4734 162.581 60.224 161.311C61.0649 159.877 61.635 158.322 61.9341 156.646C61.9555 156.527 61.9341 156.403 61.8737 156.298C61.8133 156.193 61.7178 156.112 61.6039 156.07C59.9728 155.483 58.5873 155.819 57.4472 157.078C55.9403 158.743 54.1681 159.68 52.1307 159.888C46.9835 163.873 41.2973 166.808 35.0721 168.693C34.1126 168.902 33.2209 169.322 32.3969 169.954C31.4092 170.716 30.9493 170.474 31.017 169.226C31.3443 163.351 31.872 157.391 32.6001 151.346C32.6622 150.81 32.8484 148.378 33.1588 144.049C33.3281 141.611 33.7176 139.195 34.3271 136.802C34.6488 135.527 34.7899 133.732 34.7504 131.418C34.7391 130.741 34.8351 128.844 35.0382 125.729C35.1229 124.414 35.4023 122.549 35.8764 120.133C36.3222 117.87 36.5649 115.576 36.6044 113.25C36.6326 111.557 36.057 111.329 34.8774 112.565L29.036 118.685C26.2987 120.514 23.7477 122.571 21.3829 124.857C20.0622 124.563 18.9589 124.863 18.0728 125.754C16.8706 126.962 15.5613 128.046 14.1447 129.005C13.1062 129.705 11.9972 129.914 10.8176 129.632C10.7057 129.604 10.608 129.534 10.5425 129.435C10.4771 129.335 10.4485 129.212 10.462 129.09C10.716 126.9 11.08 124.727 11.5541 122.571C11.8532 121.194 12.4289 120.269 13.2811 119.794C14.2575 119.247 15.3553 119.131 16.5743 119.447C16.8494 119.519 17.1272 119.51 17.3701 119.422C21.0273 118.101 24.0581 116.16 26.4624 113.597C26.9637 113.063 27.6178 112.699 28.3333 112.556C30.1732 112.184 31.2879 111.413 31.6773 110.245C31.7846 109.929 31.9228 109.692 32.0921 109.534C32.8371 108.845 33.6442 108.258 34.5134 107.773C35.501 107.226 36.3279 106.689 36.9938 106.164C38.8394 104.708 40.9445 103.574 43.3093 102.761Z" fill="#FABA36"/>
<path d="M129.195 110.203C132.965 112.985 134.652 116.882 134.257 121.894C134.236 122.198 134.12 122.465 133.936 122.639C133.642 122.91 133.411 122.949 133.242 122.758C132.777 122.226 132.474 121.577 132.37 120.887C131.884 117.67 130.803 115.102 129.127 113.183C127.778 111.636 126 110.623 123.794 110.143C121.598 109.664 119.459 109.799 117.377 110.55C114.984 111.408 113.166 112.903 111.925 115.037C110.734 117.08 110.107 119.49 110.045 122.267C110.023 123.186 109.622 123.519 108.843 123.265C108.728 123.231 108.624 123.157 108.544 123.053C108.464 122.95 108.412 122.82 108.394 122.681C107.734 117.658 109.052 113.744 112.348 110.939C114.634 108.998 117.303 107.897 120.357 107.638C123.562 107.361 126.508 108.216 129.195 110.203Z" fill="#0D111F"/>
<path d="M35.072 168.693C33.3055 172.514 30.5118 174.941 26.6909 175.973C26.6412 175.987 26.589 175.99 26.5381 175.98C26.4873 175.971 26.439 175.95 26.3968 175.919C26.3547 175.888 26.3197 175.848 26.2944 175.802C26.2691 175.756 26.2542 175.704 26.2507 175.652C26.0814 173.106 26.4002 170.626 27.2073 168.21C27.2382 168.119 27.3046 168.031 27.4007 167.954C27.4968 167.878 27.6194 167.814 27.7576 167.77C28.0341 167.68 28.1781 167.485 28.1893 167.186C28.3474 163.139 28.7114 159.457 29.2814 156.138C29.5241 154.71 29.637 153.313 29.6201 151.947C29.5975 149.696 29.685 148.285 29.8825 147.715C30.4695 146.027 30.7799 144.3 30.8137 142.533C30.8476 140.626 30.9831 139.308 31.2201 138.58C31.6434 137.293 32.2445 136.08 33.0233 134.94C33.0977 134.831 33.1476 134.706 33.1695 134.575C33.1914 134.443 33.1849 134.308 33.1503 134.178C32.6198 132.118 32.7468 130.086 33.5313 128.082C33.7062 127.642 33.4776 126.496 32.8455 124.645C32.6141 123.962 32.5323 123.257 32.6 122.529C32.617 121.852 32.7157 121.188 32.8963 120.539C33.1221 119.698 32.823 119.526 31.999 120.023C31.1072 119.301 30.1195 118.855 29.0359 118.685L34.8773 112.565C36.0569 111.329 36.6326 111.557 36.6043 113.25C36.5648 115.576 36.3222 117.87 35.8763 120.133C35.4022 122.549 35.1228 124.414 35.0382 125.729C34.835 128.844 34.739 130.741 34.7503 131.418C34.7898 133.732 34.6487 135.527 34.327 136.802C33.7175 139.195 33.3281 141.611 33.1588 144.049C32.8484 148.378 32.6621 150.81 32.6 151.346C31.872 157.391 31.3443 163.351 31.0169 169.226C30.9492 170.473 31.4092 170.716 32.3968 169.954C33.2209 169.322 34.1126 168.902 35.072 168.693Z" fill="#EFA538"/>
<path d="M29.036 118.686C30.1196 118.855 31.1073 119.301 31.999 120.023L28.1894 123.553C23.5163 126.15 19.1536 129.194 15.1013 132.688C14.9376 132.869 14.8445 133.08 14.8219 133.323C13.6311 133.611 12.5672 134.155 11.6303 134.957C10.637 135.803 9.53361 136.06 8.32018 135.727C8.20306 135.695 8.09811 135.625 8.01941 135.525C7.94072 135.425 7.89205 135.301 7.87997 135.168C7.6655 132.871 7.61188 130.56 7.71911 128.235C7.83763 125.571 7.97027 125.362 8.11701 127.608L8.20166 131.35C8.22988 132.615 8.9269 133.027 10.2927 132.586C14.8868 131.091 18.5836 128.514 21.3829 124.857C23.7477 122.571 26.2987 120.514 29.036 118.686Z" fill="#DCAB5E"/>
<path d="M32.6 122.529L32.2445 124.857C31.5221 124.039 30.5936 123.827 29.4592 124.222C28.9513 124.397 28.528 124.174 28.1894 123.553L31.999 120.023C32.823 119.527 33.1221 119.699 32.8963 120.54C32.7157 121.189 32.617 121.852 32.6 122.529Z" fill="#C2AC74"/>
<path d="M32.6001 122.529C32.5324 123.257 32.6142 123.962 32.8456 124.645C33.4777 126.496 33.7063 127.642 33.5314 128.082C32.7469 130.086 32.6199 132.118 33.1504 134.178C33.185 134.308 33.1915 134.443 33.1696 134.575C33.1477 134.706 33.0978 134.831 33.0234 134.94C32.2446 136.08 31.6435 137.293 31.2202 138.58C30.9832 139.308 30.8477 140.626 30.8138 142.533C30.78 144.3 30.4696 146.027 29.8826 147.715C29.6851 148.285 29.5976 149.696 29.6202 151.947C29.6371 153.313 29.5242 154.71 29.2815 156.138C28.7115 159.457 28.3475 163.139 28.1894 167.186C28.1782 167.485 28.0342 167.68 27.7577 167.77C27.6195 167.814 27.4969 167.878 27.4008 167.954C27.3047 168.031 27.2383 168.119 27.2074 168.21C26.4003 170.626 26.0815 173.106 26.2508 175.652C26.2543 175.704 26.2692 175.756 26.2945 175.802C26.3198 175.848 26.3548 175.888 26.3969 175.919C26.4391 175.95 26.4874 175.971 26.5382 175.98C26.5891 175.99 26.6413 175.987 26.691 175.973C30.5119 174.941 33.3056 172.514 35.0721 168.693C41.2973 166.808 46.9835 163.873 52.1307 159.888C53.1635 160.458 53.9763 161.082 54.5689 161.759C55.3308 162.628 55.8726 163.365 56.1943 163.969C56.674 164.866 56.6402 165.868 56.0927 166.974C54.7946 167.42 54.1512 168.312 54.1625 169.649C54.1624 169.808 54.1078 169.953 54.0101 170.056C53.5925 170.502 53.5022 170.378 53.7392 169.683C53.7787 169.565 53.7957 169.449 53.79 169.336C53.7392 167.79 53.6884 167.652 53.6376 168.921C53.1579 168.126 53.0704 167.395 53.3752 166.729C54.4814 166.526 54.8228 166.035 54.3996 165.256C54.3383 165.144 54.2489 165.046 54.1378 164.969C54.0266 164.891 53.8964 164.836 53.7562 164.807C52.4524 164.519 51.9727 164.948 52.317 166.094C50.1102 166.133 48.1349 166.839 46.3909 168.21L45.2988 168.879L25.6412 179.673C23.886 180.644 23.0563 180.127 23.1523 178.124C23.2482 176.222 23.5445 174.035 24.0412 171.563C25.486 164.35 26.8434 157.123 28.1133 149.882L32.2446 124.857L32.6001 122.529Z" fill="#E4A54C"/>
<path d="M28.1894 123.553C28.528 124.174 28.9513 124.397 29.4593 124.222C30.5937 123.827 31.5221 124.039 32.2445 124.857L28.1132 149.882L26.4624 148.35C26.7389 147.785 26.8038 146.885 26.6571 145.649C26.2564 142.336 26.8518 138.851 28.4434 135.194C28.5468 134.953 28.5559 134.673 28.4688 134.406C28.0229 132.99 28.0963 131.568 28.6889 130.14C28.8005 129.87 28.8195 129.57 28.7429 129.289C28.6663 129.007 28.4985 128.758 28.2656 128.582C26.7305 127.419 25.3336 127.419 24.075 128.582C22.1843 130.337 20.0453 131.723 17.658 132.739C17.0823 132.987 16.5376 133.407 16.0241 134C15.9905 134.039 15.9482 134.069 15.9013 134.09C15.8545 134.11 15.8047 134.119 15.7568 134.115C15.7089 134.112 15.6647 134.096 15.6284 134.07C15.5922 134.044 15.5651 134.008 15.55 133.966L15.1013 132.688C19.1536 129.194 23.5163 126.149 28.1894 123.553Z" fill="#859179"/>
<path d="M26.4624 148.35C26.0335 147.797 25.4917 147.444 24.837 147.292C20.8976 143.059 17.5592 138.403 14.822 133.323C14.8445 133.081 14.9377 132.869 15.1013 132.688L15.55 133.967C15.5652 134.009 15.5922 134.044 15.6285 134.071C15.6647 134.097 15.709 134.112 15.7568 134.116C15.8047 134.119 15.8545 134.11 15.9014 134.09C15.9483 134.07 15.9906 134.039 16.0241 134.001C16.5377 133.408 17.0823 132.987 17.658 132.739C20.0454 131.723 22.1844 130.338 24.0751 128.582C25.3337 127.42 26.7305 127.42 28.2656 128.582C28.4985 128.759 28.6664 129.007 28.743 129.289C28.8196 129.571 28.8006 129.87 28.6889 130.14C28.0963 131.568 28.023 132.99 28.4688 134.407C28.5559 134.674 28.5469 134.954 28.4434 135.194C26.8519 138.851 26.2564 142.337 26.6571 145.649C26.8039 146.885 26.739 147.786 26.4624 148.35Z" fill="#6E91A0"/>
<path d="M76.055 137.768C75.643 138.552 75.4793 139.399 75.564 140.307L74.7851 141.789C75.0786 138.899 73.868 137.759 71.1533 138.369L73.9047 136.32C75.3495 135.53 76.0663 136.012 76.055 137.768Z" fill="#C9C897"/>
<path d="M74.7851 141.788L64.9733 170.259C64.6798 170.682 64.6939 171.199 65.0156 171.808C63.9094 173.033 63.2745 173.891 63.1108 174.382C61.6942 178.575 60.1788 182.729 58.5647 186.843C56.4651 192.182 54.8905 196.286 53.8407 199.153C52.3282 203.284 50.7761 207.401 49.1846 211.504C49.1733 211.532 48.5863 213.152 47.4237 216.364C46.3175 219.428 44.9263 222.366 43.25 225.177C43.4814 223.974 43.4532 222.789 43.1654 221.621C43.0991 221.35 43.1109 221.068 43.1992 220.808L47.6946 206.975C48.6089 203.826 49.2156 201.904 49.5147 201.21C50.1581 199.726 50.3415 198.185 50.065 196.588C50.0266 196.369 50.0838 196.102 50.2258 195.834L53.0111 190.653C53.109 190.463 53.1331 190.176 53.0788 189.849C52.8418 188.517 53.2058 187.639 54.1709 187.216C54.4289 187.102 54.649 186.917 54.8051 186.681C54.9611 186.446 55.0466 186.17 55.0514 185.887C55.0852 184.115 55.6665 182.943 56.7953 182.373C56.9203 182.312 57.0297 182.23 57.1159 182.132C57.202 182.034 57.2631 181.923 57.2948 181.806C57.9777 179.425 58.6634 177.672 59.352 176.549C60.4638 174.749 61.1749 173.256 61.4854 172.071C61.9482 170.287 62.727 168.608 63.8219 167.033C65.3401 161.565 67.0925 156.175 69.0792 150.864C69.0848 150.847 69.7734 149.402 71.1448 146.529C71.7995 145.152 72.3667 143.501 72.8465 141.577C73.1061 140.527 72.8436 139.977 72.0591 139.926C71.9412 139.918 71.8163 139.943 71.6944 140.001C71.5725 140.058 71.4568 140.145 71.3565 140.256C70.5212 141.204 69.6605 141.839 68.7744 142.161C67.6287 142.573 66.6862 143.092 65.9468 143.719C64.8745 144.616 64.3186 145.082 64.2791 145.115C61.5305 147.08 58.9908 149.348 56.6599 151.922C55.6157 152.052 54.7099 152.461 53.9423 153.15C50.5673 156.197 46.642 157.924 42.1664 158.331C47.5055 154.448 52.9039 150.683 58.3615 147.037C59.2137 146.467 61.3104 144.974 64.6516 142.559C66.7398 141.046 68.907 139.649 71.1533 138.368C73.868 137.759 75.0786 138.899 74.7851 141.788Z" fill="#E3BF5E"/>
<path d="M63.8219 167.034C63.314 165.262 63.4014 163.659 64.0843 162.225C64.8463 160.622 65.2357 159.79 65.2526 159.728C66.7031 155.478 68.0322 151.206 69.24 146.911C69.5843 145.686 69.1695 145.316 67.9956 145.802C64.0223 147.455 60.2437 149.495 56.6599 151.922C58.9908 149.349 61.5305 147.08 64.2791 145.116C64.3186 145.082 64.8745 144.616 65.9468 143.719C66.6862 143.092 67.6287 142.573 68.7744 142.161C69.6605 141.84 70.5212 141.205 71.3565 140.256C71.4568 140.146 71.5725 140.058 71.6944 140.001C71.8163 139.944 71.9412 139.918 72.0591 139.926C72.8436 139.977 73.1061 140.527 72.8465 141.577C72.3667 143.502 71.7995 145.153 71.1448 146.53C69.7734 149.402 69.0848 150.847 69.0792 150.864C67.0925 156.175 65.3401 161.565 63.8219 167.034Z" fill="#EDBE4D"/>
<path d="M75.564 140.307C76.3485 141.323 76.3062 142.539 75.4371 143.956C74.9065 144.831 74.5933 146.022 74.4974 147.528C74.3958 149.16 74.2377 150.353 74.0233 151.109C73.5605 152.757 73.0102 154.374 72.3724 155.96C71.5484 158.015 70.9587 159.606 70.6031 160.735C69.9823 162.688 69.3417 164.638 68.6814 166.585C68.6701 166.619 68.5233 167.172 68.2411 168.244C67.784 169.994 66.6947 170.665 64.9733 170.259L74.7852 141.789L75.564 140.307Z" fill="#859179"/>
<path d="M56.372 169.303L56.0927 166.974C56.6401 165.868 56.674 164.867 56.1943 163.969C55.8726 163.365 55.3308 162.629 54.5688 161.76C53.9762 161.082 53.1635 160.459 52.1307 159.889C54.1681 159.68 55.9403 158.743 57.4472 157.078C58.5873 155.819 59.9728 155.484 61.6039 156.071C61.7178 156.112 61.8133 156.193 61.8737 156.298C61.9341 156.404 61.9554 156.527 61.9341 156.646C61.6349 158.322 61.0649 159.877 60.224 161.311C59.4733 162.581 58.9061 163.769 58.5224 164.875C57.9805 166.433 57.2638 167.909 56.372 169.303Z" fill="#EFA538"/>
<path d="M53.3751 166.729C53.0703 166.43 52.7176 166.218 52.3169 166.094C51.9726 164.948 52.4523 164.52 53.756 164.807C53.8963 164.836 54.0265 164.892 54.1377 164.969C54.2488 165.047 54.3382 165.145 54.3995 165.256C54.8227 166.035 54.4813 166.526 53.3751 166.729Z" fill="#C2AC74"/>
<path d="M56.0926 166.975L56.372 169.303C54.2499 174.399 52.8277 179.693 52.1053 185.185C52.0657 185.472 51.9839 185.749 51.8597 186.014C50.9567 187.888 50.5955 189.654 50.7761 191.314C50.8094 191.589 50.7592 191.867 50.6322 192.11C50.1073 193.125 49.7659 194.192 49.6078 195.31C49.4103 196.749 49.1987 197.83 48.9729 198.552C48.1207 201.284 47.6946 204.091 47.6946 206.976L43.1992 220.809C43.1109 221.069 43.0991 221.35 43.1654 221.621C43.4532 222.79 43.4814 223.975 43.25 225.177C42.014 230.556 40.7159 234.63 39.3558 237.402C38.7406 238.649 38.3088 238.762 38.0605 237.74C37.9984 237.475 38.0012 237.176 38.069 236.843C39.8298 228.259 41.8757 219.742 44.2067 211.293C44.692 209.543 45.1943 207.342 45.7136 204.69C46.1482 202.472 46.6674 200.271 47.2713 198.086L53.6376 168.922C53.6884 167.652 53.7392 167.79 53.79 169.337C53.7956 169.449 53.7787 169.565 53.7391 169.684C53.5021 170.378 53.5924 170.502 54.0101 170.056C54.1077 169.954 54.1623 169.808 54.1624 169.65C54.1511 168.312 54.7946 167.42 56.0926 166.975Z" fill="#DCAB5E"/>
<path d="M71.6359 209.252C70.7667 208.389 70.2136 207.353 69.9766 206.145C69.2485 202.494 69.7113 198.777 71.365 194.996C72.6574 192.033 74.3223 189.239 76.3598 186.615C76.3906 186.575 76.431 186.544 76.4771 186.524C76.5233 186.505 76.5736 186.497 76.6236 186.502C76.6735 186.507 76.7213 186.525 76.7625 186.553C76.8038 186.582 76.837 186.621 76.8593 186.666C79.3651 191.965 80.7789 197.324 81.1006 202.742C81.2812 205.773 80.4318 208.138 78.5524 209.836C77.4914 210.802 76.3598 211.222 75.1576 211.098C73.9103 210.968 72.7364 210.353 71.6359 209.252Z" fill="#608398"/>
<path d="M190.936 209.938C188.718 208.042 187.716 205.573 187.931 202.531C188.348 196.627 190.27 191.308 193.696 186.573C193.726 186.531 193.766 186.497 193.812 186.476C193.859 186.454 193.911 186.445 193.962 186.449C194.013 186.454 194.062 186.471 194.105 186.5C194.147 186.529 194.181 186.569 194.204 186.615C196.286 190.707 197.881 194.883 198.987 199.144C199.235 200.093 199.331 201.927 199.275 204.647C199.213 207.531 198.112 209.56 195.973 210.734C194.302 211.648 192.623 211.383 190.936 209.938Z" fill="#608398"/>
<path d="M117.876 211.682C116.99 211.191 116.251 210.486 115.658 209.566C115.167 208.81 114.854 207.876 114.718 206.764C114.318 203.569 114.806 200.166 116.183 196.554C117.408 193.326 119.047 190.428 121.102 187.86C121.146 187.804 121.204 187.761 121.27 187.735C121.336 187.709 121.408 187.701 121.478 187.711C121.548 187.722 121.614 187.75 121.67 187.794C121.726 187.838 121.769 187.895 121.796 187.961C123.76 192.742 125.151 197.598 125.969 202.531C126.398 205.133 125.91 207.52 124.505 209.693C123.715 210.901 122.809 211.697 121.787 212.08C120.512 212.56 119.208 212.427 117.876 211.682Z" fill="#608398"/>
<path d="M153.094 220.258C151.914 219.316 151.178 218.099 150.884 216.609C150.326 213.765 150.503 210.853 151.418 207.873C152.405 204.65 153.89 201.597 155.871 198.713C156.108 198.374 156.314 198.391 156.489 198.763C158.063 202.2 159.359 205.595 160.374 208.948C160.973 210.923 161.238 212.946 161.17 215.018C161.086 217.795 160.146 219.699 158.351 220.732C156.539 221.776 154.787 221.618 153.094 220.258Z" fill="#608398"/>
<path d="M178.83 251.26C177.024 250.019 176.013 248.323 175.799 246.172C175.669 244.925 175.841 243.071 176.315 240.61C177.089 236.547 178.691 232.802 181.124 229.376C181.151 229.34 181.186 229.312 181.227 229.293C181.268 229.275 181.313 229.267 181.358 229.27C181.403 229.274 181.447 229.288 181.486 229.313C181.525 229.337 181.558 229.37 181.581 229.41C184.364 234.382 186.003 239.391 186.5 244.437C186.641 245.893 186.384 247.343 185.729 248.788C185.092 250.199 184.245 251.178 183.19 251.726C181.79 252.454 180.337 252.299 178.83 251.26Z" fill="#608398"/>
<path d="M102.164 253.808C100.928 252.228 100.397 250.233 100.572 247.823C100.939 242.783 102.643 238.037 105.685 233.584C105.726 233.522 105.783 233.473 105.849 233.44C105.915 233.407 105.988 233.392 106.061 233.397C106.135 233.401 106.206 233.424 106.268 233.465C106.33 233.505 106.38 233.56 106.413 233.626C108.366 237.328 109.87 241.338 110.926 245.656C111.676 248.715 111.329 251.413 109.884 253.749C108.829 255.454 107.435 256.182 105.702 255.933C104.303 255.736 103.123 255.027 102.164 253.808Z" fill="#608398"/>
<path d="M139.676 263.222C138.231 261.331 137.616 259.09 137.83 256.5C138.315 250.551 140.158 245.164 143.358 240.339C143.407 240.264 143.475 240.203 143.555 240.163C143.635 240.122 143.724 240.104 143.813 240.109C143.902 240.114 143.989 240.143 144.064 240.192C144.138 240.241 144.199 240.309 144.239 240.39C146.75 245.435 148.421 250.594 149.25 255.865C149.476 257.315 149.358 258.932 148.895 260.716C148.387 262.64 147.602 264.001 146.541 264.796C145.407 265.643 144.103 265.835 142.63 265.372C141.484 265.011 140.5 264.294 139.676 263.222Z" fill="#608398"/>
</g>
<defs>
<clipPath id="clip0_41_374">
<rect width="248" height="266.119" fill="white" transform="translate(0 0.44043)"/>
</clipPath>
</defs>
</svg>
