<?xml version="1.0" encoding="UTF-8" standalone="no"?>
<!DOCTYPE svg PUBLIC "-//W3C//DTD SVG 1.1//EN" "http://www.w3.org/Graphics/SVG/1.1/DTD/svg11.dtd">
<svg xmlns="http://www.w3.org/2000/svg" version="1.1" viewBox="0.00 0.00 1012.00 1012.00">
<g stroke-width="2.00" fill="none" stroke-linecap="butt">
<path stroke="#5a6c63" vector-effect="non-scaling-stroke" d="
  M 205.00 469.29
  Q 204.24 470.57 204.08 471.32
  Q 201.65 482.66 199.28 494.01
  C 198.30 498.69 202.61 501.69 206.09 498.09
  Q 220.57 483.11 235.06 468.14
  Q 236.86 466.28 237.13 464.83
  C 237.62 462.13 235.00 459.94 232.31 460.56
  Q 223.40 462.61 208.25 466.52
  Q 207.61 466.68 206.79 467.50"
/>
<path stroke="#7c808b" vector-effect="non-scaling-stroke" d="
  M 544.42 65.26
  C 602.26 58.29 655.68 55.04 711.56 59.66
  C 748.98 62.75 819.04 72.69 830.41 117.75
  A 0.70 0.70 0.0 0 0 831.54 118.11
  C 844.39 107.22 848.13 88.58 838.50 74.26
  C 820.36 47.32 768.30 39.92 738.74 37.30
  C 701.62 34.01 663.45 33.47 626.36 37.30
  Q 476.72 52.75 333.83 99.95
  C 332.78 100.30 330.01 100.74 329.41 102.14
  A 0.72 0.72 0.0 0 0 330.24 103.12
  Q 437.19 78.19 544.42 65.26"
/>
<path stroke="#606773" vector-effect="non-scaling-stroke" d="
  M 183.25 336.04
  L 134.45 327.72
  A 1.72 1.71 4.5 0 0 132.45 329.42
  C 132.66 359.45 169.91 375.90 194.25 379.96"
/>
<path stroke="#6e737f" vector-effect="non-scaling-stroke" d="
  M 194.25 379.96
  Q 245.22 393.59 298.00 394.79
  C 320.63 395.30 339.04 394.90 355.43 394.98
  Q 357.40 394.99 355.45 395.24
  Q 318.31 399.85 280.91 400.68
  C 279.23 400.71 277.35 400.25 275.54 400.31"
/>
<path stroke="#606773" vector-effect="non-scaling-stroke" d="
  M 275.54 400.31
  L 206.83 392.72
  A 0.47 0.47 0.0 0 0 206.42 393.49
  Q 225.72 416.04 253.58 427.72"
/>
<path stroke="#6e737f" vector-effect="non-scaling-stroke" d="
  M 253.58 427.72
  C 296.95 448.47 344.46 455.19 392.36 455.47
  Q 392.67 455.48 392.49 455.73
  Q 392.34 455.94 392.19 455.95
  Q 356.60 458.38 321.04 455.75"
/>
<path stroke="#606773" vector-effect="non-scaling-stroke" d="
  M 321.04 455.75
  Q 308.27 452.35 295.48 448.94
  C 287.98 446.94 288.39 455.12 289.21 460.02
  C 291.63 474.27 308.00 487.90 320.11 494.29
  C 359.45 515.04 406.03 520.76 449.74 517.17"
/>
<path stroke="#6e737f" vector-effect="non-scaling-stroke" d="
  M 449.74 517.17
  L 505.36 514.82
  Q 507.71 514.72 505.41 515.25
  Q 439.02 530.56 372.04 519.75"
/>
<path stroke="#606773" vector-effect="non-scaling-stroke" d="
  M 372.04 519.75
  L 343.62 512.32
  A 1.72 1.71 11.7 0 0 341.49 513.71
  C 338.55 532.30 371.86 545.26 385.75 548.96"
/>
<path stroke="#6e737f" vector-effect="non-scaling-stroke" d="
  M 385.75 548.96
  Q 429.08 565.02 474.76 561.79
  A 2.04 2.04 0.0 0 1 476.90 563.44
  C 477.36 565.93 476.95 567.30 474.12 567.05
  Q 439.54 563.99 405.00 560.71"
/>
<path stroke="#606773" vector-effect="non-scaling-stroke" d="
  M 405.00 560.71
  Q 393.44 557.55 381.88 554.35
  C 379.48 553.68 377.59 553.72 377.08 556.53
  C 371.00 589.78 406.65 607.38 432.86 614.67"
/>
<path stroke="#6e737f" vector-effect="non-scaling-stroke" d="
  M 432.86 614.67
  L 476.08 626.41"
/>
<path stroke="#606773" vector-effect="non-scaling-stroke" d="
  M 476.08 626.41
  C 473.30 630.17 461.34 627.44 456.51 626.20
  Q 433.53 620.28 411.27 611.94
  Q 410.76 611.75 410.30 612.05
  Q 409.05 612.87 407.95 614.49
  C 381.29 653.75 432.40 680.90 461.75 688.96"
/>
<path stroke="#6e737f" vector-effect="non-scaling-stroke" d="
  M 461.75 688.96
  L 475.75 694.29"
/>
<path stroke="#1f3347" vector-effect="non-scaling-stroke" d="
  M 475.75 694.29
  L 475.46 695.25"
/>
<path stroke="#6e737f" vector-effect="non-scaling-stroke" d="
  M 475.46 695.25
  Q 454.26 691.37 434.03 683.98
  C 428.52 681.96 418.71 692.00 416.79 695.79
  C 403.76 721.40 439.27 742.59 456.72 754.01
  Q 458.69 755.31 457.67 756.89
  A 1.17 1.17 0.0 0 1 456.06 757.24
  L 425.27 737.69
  A 1.45 1.44 43.6 0 0 423.68 737.72
  C 404.21 751.32 418.72 769.00 431.28 779.62"
/>
<path stroke="#7c808b" vector-effect="non-scaling-stroke" d="
  M 431.28 779.62
  L 450.29 791.75"
/>
<path stroke="#6e737f" vector-effect="non-scaling-stroke" d="
  M 450.29 791.75
  L 452.09 793.60
  Q 453.03 794.57 451.78 794.06
  L 436.37 787.80"
/>
<path stroke="#606773" vector-effect="non-scaling-stroke" d="
  M 436.37 787.80
  L 423.20 780.19
  A 1.81 1.81 0.0 0 0 421.08 780.41
  Q 408.49 791.60 414.79 807.75"
/>
<path stroke="#6e737f" vector-effect="non-scaling-stroke" d="
  M 414.79 807.75
  Q 420.49 824.65 436.05 832.77
  A 0.49 0.48 55.2 0 1 435.89 833.68
  Q 432.38 834.13 429.29 832.75"
/>
<path stroke="#606773" vector-effect="non-scaling-stroke" d="
  M 429.29 832.75
  C 426.73 830.35 421.26 825.13 417.54 828.09
  Q 410.09 834.02 409.39 844.15"
/>
<path stroke="#6e737f" vector-effect="non-scaling-stroke" d="
  M 409.39 844.15
  C 405.97 860.72 422.27 870.62 433.32 878.93
  Q 434.15 879.56 434.54 880.50"
/>
<path stroke="#606773" vector-effect="non-scaling-stroke" d="
  M 434.54 880.50
  L 433.75 880.79"
/>
<path stroke="#6e737f" vector-effect="non-scaling-stroke" d="
  M 433.75 880.79
  Q 423.37 876.82 416.13 868.39
  Q 415.80 868.00 415.29 868.00
  L 413.29 868.00
  A 0.37 0.37 0.0 0 0 412.96 868.53
  C 419.00 881.16 417.06 893.99 417.02 907.29
  Q 416.96 933.05 435.91 949.99
  A 1.13 1.13 0.0 0 0 437.65 949.69
  Q 439.73 945.88 440.29 941.25"
/>
<path stroke="#606773" vector-effect="non-scaling-stroke" d="
  M 440.29 941.25
  Q 456.11 904.23 487.95 880.37
  C 499.74 871.54 502.67 865.37 500.42 850.32
  Q 500.09 848.11 498.01 848.08
  Q 486.98 847.89 475.59 848.15"
/>
<path stroke="#6e737f" vector-effect="non-scaling-stroke" d="
  M 475.59 848.15
  Q 467.32 846.44 459.63 842.68
  A 0.25 0.25 0.0 0 1 459.77 842.21
  C 478.14 844.68 498.11 844.24 514.52 836.01
  C 526.35 830.06 535.99 817.83 523.70 805.80
  Q 521.97 804.11 520.24 804.47
  Q 509.16 806.80 499.72 805.25
  Q 498.13 804.99 497.51 804.22
  A 0.63 0.63 0.0 0 1 497.90 803.19
  C 513.37 800.73 563.81 798.80 554.46 769.85
  A 1.76 1.76 0.0 0 0 552.41 768.67
  Q 527.74 774.15 503.30 767.76
  A 0.32 0.31 -37.9 0 1 503.38 767.14
  Q 525.80 766.86 548.00 764.56
  C 578.74 761.37 611.00 733.17 588.74 700.27
  C 588.07 699.29 586.54 698.64 585.56 698.79
  Q 566.78 701.78 542.25 703.04
  Q 540.41 703.13 539.17 702.93
  Q 537.56 702.66 539.16 702.32
  L 589.70 691.78"
/>
<path stroke="#606773" vector-effect="non-scaling-stroke" d="
  M 589.70 691.78
  C 620.90 684.55 650.42 655.72 634.94 621.16
  C 633.98 619.01 631.94 618.25 629.81 618.81
  Q 608.52 624.40 587.25 630.04"
/>
<path stroke="#6e737f" vector-effect="non-scaling-stroke" d="
  M 587.25 630.04
  Q 565.17 630.53 543.28 627.49
  Q 540.52 627.11 543.30 627.25
  Q 577.43 629.03 610.43 620.43
  C 643.34 611.85 682.59 588.28 673.08 547.71
  C 671.31 540.15 666.74 530.69 661.97 524.78
  C 660.71 523.22 657.89 523.65 656.23 524.79
  Q 625.44 545.96 587.80 546.99
  Q 587.01 547.01 587.79 546.87
  Q 595.88 545.38 603.94 543.74
  Q 626.15 539.20 645.04 526.75"
/>
<path stroke="#606773" vector-effect="non-scaling-stroke" d="
  M 645.04 526.75
  Q 680.22 507.09 682.74 466.98
  C 683.01 462.71 678.84 462.89 676.14 464.62
  Q 663.80 472.50 651.50 480.46"
/>
<path stroke="#6e737f" vector-effect="non-scaling-stroke" d="
  M 651.50 480.46
  L 633.44 487.14"
/>
<path stroke="#606773" vector-effect="non-scaling-stroke" d="
  M 633.44 487.14
  Q 647.35 477.89 661.33 468.78
  C 692.20 448.68 715.64 416.72 698.45 378.28
  A 1.28 1.28 0.0 0 0 696.60 377.72
  Q 672.12 393.25 645.62 405.59"
/>
<path stroke="#6e737f" vector-effect="non-scaling-stroke" d="
  M 645.62 405.59
  C 635.28 410.13 621.12 415.62 608.74 417.01
  Q 607.00 417.21 608.58 416.45
  L 670.00 386.96"
/>
<path stroke="#606773" vector-effect="non-scaling-stroke" d="
  M 670.00 386.96
  C 708.51 367.81 755.85 327.03 742.57 277.69
  A 0.95 0.94 -25.7 0 0 741.10 277.18
  L 710.25 299.71"
/>
<path stroke="#6e737f" vector-effect="non-scaling-stroke" d="
  M 710.25 299.71
  Q 637.15 342.52 554.36 360.74
  Q 553.86 360.85 554.04 360.38
  C 554.24 359.83 604.89 342.69 610.03 340.85
  Q 654.18 324.98 694.28 300.76"
/>
<path stroke="#606773" vector-effect="non-scaling-stroke" d="
  M 694.28 300.76
  C 727.93 282.30 778.21 240.64 763.24 195.82
  A 1.79 1.79 0.0 0 0 760.55 194.90
  Q 715.45 225.19 665.19 247.30"
/>
<path stroke="#6e737f" vector-effect="non-scaling-stroke" d="
  M 665.19 247.30
  Q 635.51 258.10 603.13 267.41
  A 0.30 0.30 0.0 0 1 602.94 266.84
  Q 671.17 239.66 735.54 202.75"
/>
<path stroke="#606773" vector-effect="non-scaling-stroke" d="
  M 735.54 202.75
  C 756.65 191.07 797.61 161.50 784.26 132.01
  Q 777.71 117.53 761.63 111.85"
/>
<path stroke="#6e737f" vector-effect="non-scaling-stroke" d="
  M 761.63 111.85
  C 743.65 101.59 722.69 97.34 702.24 95.34
  C 666.49 91.84 630.80 93.80 595.17 97.55
  C 473.96 110.32 354.07 137.72 238.25 175.39
  C 192.77 190.19 145.89 210.04 111.88 244.61
  C 97.39 259.33 87.02 286.68 104.10 302.84
  Q 108.90 307.38 119.87 312.03
  C 160.34 329.20 209.70 332.46 253.94 330.66
  Q 342.89 327.03 430.52 311.39
  Q 431.46 311.22 432.28 311.24
  A 0.19 0.19 0.0 0 1 432.32 311.61
  C 351.94 334.27 266.69 340.73 183.25 336.04"
/>
<path stroke="#b7c0d1" vector-effect="non-scaling-stroke" d="
  M 761.63 111.85
  C 784.23 147.56 764.14 168.46 738.79 191.85
  C 735.08 195.27 733.65 197.95 735.54 202.75"
/>
<path stroke="#b7c0d1" vector-effect="non-scaling-stroke" d="
  M 665.19 247.30
  Q 673.99 249.52 682.62 247.38
  C 690.39 245.46 696.96 244.93 704.66 244.81
  C 710.45 244.72 710.62 248.17 711.34 253.21
  C 713.17 266.13 709.16 276.48 700.78 286.22
  C 697.21 290.36 695.54 295.59 694.28 300.76"
/>
<path stroke="#b7c0d1" vector-effect="non-scaling-stroke" d="
  M 710.25 299.71
  C 724.58 331.89 694.27 361.11 670.38 377.16
  C 667.05 379.39 669.21 383.85 670.00 386.96"
/>
<path stroke="#b7c0d1" vector-effect="non-scaling-stroke" d="
  M 645.62 405.59
  Q 656.38 410.81 667.92 408.49
  C 673.07 407.46 677.36 406.93 679.42 412.23
  Q 680.24 414.34 679.39 417.30
  C 672.84 440.35 658.39 458.68 638.44 471.94
  Q 621.41 483.24 603.99 494.11
  A 0.39 0.39 0.0 0 0 604.28 494.82
  Q 619.07 491.60 633.44 487.14"
/>
<path stroke="#b7c0d1" vector-effect="non-scaling-stroke" d="
  M 651.50 480.46
  Q 653.75 481.44 655.99 482.48
  C 671.39 489.66 651.06 511.95 644.77 518.10
  Q 644.41 518.46 644.36 518.97
  Q 643.97 522.97 645.04 526.75"
/>
<path stroke="#b7c0d1" vector-effect="non-scaling-stroke" d="
  M 587.25 630.04
  Q 594.67 640.07 598.29 652.00"
/>
<path stroke="#768ca5" vector-effect="non-scaling-stroke" d="
  M 598.29 652.00
  Q 542.55 670.60 485.72 655.03
  Q 484.37 654.66 484.20 655.37
  Q 484.02 656.10 484.74 656.32
  Q 540.50 673.25 595.00 656.79"
/>
<path stroke="#b7c0d1" vector-effect="non-scaling-stroke" d="
  M 595.00 656.79
  Q 596.62 666.55 598.48 676.25
  Q 598.92 678.55 597.48 679.72
  Q 591.35 684.70 589.70 691.78"
/>
<path stroke="#b7c0d1" vector-effect="non-scaling-stroke" d="
  M 475.59 848.15
  Q 481.11 855.59 482.04 862.01
  C 482.48 865.07 480.54 869.58 478.21 872.05
  Q 463.04 888.13 440.92 882.46
  C 439.08 881.99 437.05 880.48 434.54 880.50"
/>
<path stroke="#b7c0d1" vector-effect="non-scaling-stroke" d="
  M 409.39 844.15
  Q 421.08 841.59 429.29 832.75"
/>
<path stroke="#b7c0d1" vector-effect="non-scaling-stroke" d="
  M 414.79 807.75
  L 436.37 787.80"
/>
<path stroke="#d3d9e8" vector-effect="non-scaling-stroke" d="
  M 450.29 791.75
  C 453.26 788.46 456.60 788.65 460.85 790.10
  Q 483.62 797.87 505.99 788.77
  C 507.71 788.08 508.57 787.93 508.90 786.22
  A 1.70 1.69 -80.3 0 0 507.50 784.23
  Q 471.78 778.53 438.37 764.72
  A 1.65 1.65 0.0 0 0 436.13 765.88
  Q 434.52 772.94 431.28 779.62"
/>
<path stroke="#768ca5" vector-effect="non-scaling-stroke" d="
  M 475.46 695.25
  Q 481.38 698.69 487.89 697.50
  A 0.27 0.26 46.2 0 0 487.90 696.98
  L 475.75 694.29"
/>
<path stroke="#b7c0d1" vector-effect="non-scaling-stroke" d="
  M 461.75 688.96
  Q 462.80 686.09 464.06 683.31
  C 464.98 681.29 468.73 680.71 469.70 678.55
  C 470.56 676.63 469.34 675.07 467.52 674.23
  C 456.19 669.00 436.93 661.19 446.40 644.66
  C 448.96 640.20 453.26 640.49 457.94 642.07
  C 466.01 644.81 473.86 643.49 479.02 636.00
  C 480.78 633.45 481.50 631.86 485.07 631.78
  A 0.53 0.53 0.0 0 0 485.45 630.90
  Q 481.74 626.64 476.08 626.41"
/>
<path stroke="#b7c0d1" vector-effect="non-scaling-stroke" d="
  M 432.86 614.67
  Q 430.20 605.62 423.15 599.88
  C 419.44 596.86 413.51 594.16 408.73 591.69
  Q 397.30 585.78 392.87 573.88
  A 2.16 2.15 49.6 0 1 393.01 572.07
  Q 397.26 564.52 405.00 560.71"
/>
<path stroke="#b7c0d1" vector-effect="non-scaling-stroke" d="
  M 385.75 548.96
  C 386.25 536.22 368.74 535.60 372.04 519.75"
/>
<path stroke="#b7c0d1" vector-effect="non-scaling-stroke" d="
  M 449.74 517.17
  Q 435.24 515.27 421.24 511.25
  C 407.41 507.29 392.22 504.65 380.19 502.56
  Q 360.07 499.07 342.37 492.80
  C 331.40 488.91 306.12 475.68 317.61 460.05
  Q 319.22 457.85 321.04 455.75"
/>
<path stroke="#b7c0d1" vector-effect="non-scaling-stroke" d="
  M 253.58 427.72
  Q 257.77 415.59 267.95 408.16
  Q 269.50 407.02 270.80 405.15
  Q 272.72 402.38 275.54 400.31"
/>
<path stroke="#b7c0d1" vector-effect="non-scaling-stroke" d="
  M 194.25 379.96
  L 194.36 379.28
  Q 194.42 378.84 194.19 378.47
  C 188.14 368.65 181.29 365.17 173.97 359.80
  C 165.33 353.45 173.84 345.02 179.73 339.62
  C 180.87 338.58 182.59 338.04 183.25 336.04"
/>
<path stroke="#b7c0d1" vector-effect="non-scaling-stroke" d="
  M 440.29 941.25
  Q 432.64 921.88 441.74 903.24
  A 0.65 0.65 0.0 0 1 442.64 902.96
  C 444.85 904.19 451.93 904.29 450.40 900.07
  Q 445.85 887.51 433.75 880.79"
/>
<path stroke="#687f99" vector-effect="non-scaling-stroke" d="
  M 595.00 656.79
  L 609.12 648.06
  A 0.33 0.33 0.0 0 0 608.81 647.48
  L 598.29 652.00"
/>
<path stroke="#7c808b" vector-effect="non-scaling-stroke" d="
  M 267.68 532.93
  C 264.37 527.20 274.59 516.19 278.76 513.00
  C 287.90 506.00 297.30 502.09 307.63 497.36
  A 1.27 1.27 0.0 0 0 307.92 495.23
  Q 301.24 489.62 294.83 484.40
  Q 293.17 483.04 290.78 484.06
  C 266.75 494.30 242.35 503.85 227.53 524.79
  C 225.80 527.23 224.49 529.45 225.49 532.54
  C 232.01 552.78 275.32 555.53 292.66 555.70
  A 1.16 1.16 0.0 0 0 293.76 554.14
  Q 293.31 552.92 291.40 552.27
  Q 275.80 547.00 267.68 532.93"
/>
<path stroke="#7c808b" vector-effect="non-scaling-stroke" d="
  M 601.20 740.82
  C 609.87 743.13 640.69 750.18 629.97 765.73
  C 628.07 768.49 623.36 772.32 622.93 773.63
  Q 622.42 775.15 623.99 774.82
  C 634.91 772.55 670.29 764.31 655.75 745.58
  C 646.00 733.04 620.95 724.22 605.79 721.18
  A 1.78 1.78 0.0 0 0 603.72 722.47
  C 602.36 727.61 601.35 733.00 599.75 738.03
  Q 599.04 740.25 601.20 740.82"
/>
<path stroke="#6e737f" vector-effect="non-scaling-stroke" d="
  M 725.26 117.92
  C 691.07 109.06 655.40 113.69 620.83 117.05
  C 612.19 117.89 597.07 118.82 585.25 120.48
  C 455.06 138.72 326.30 167.63 202.53 212.32
  C 190.04 216.83 121.53 242.03 127.56 260.46
  C 131.70 273.10 165.77 272.32 176.81 272.10
  Q 226.54 271.11 271.47 264.54
  C 403.83 245.19 535.13 215.66 661.99 172.96
  C 683.31 165.78 705.42 156.63 723.92 143.68
  C 733.15 137.22 744.52 122.91 725.26 117.92"
/>
<path stroke="#d3d9e8" vector-effect="non-scaling-stroke" d="
  M 248.75 286.00
  Q 235.55 287.31 184.54 291.06
  C 182.96 291.18 181.15 291.90 179.60 292.30
  Q 179.06 292.44 178.78 292.92
  Q 178.14 294.01 178.89 295.00
  Q 179.29 295.52 179.95 295.51
  Q 317.25 292.87 452.66 270.01
  Q 462.51 268.35 472.26 266.12
  Q 512.04 257.04 551.38 246.23
  C 573.18 240.23 594.73 232.05 616.25 225.01
  C 620.30 223.68 658.41 208.95 655.00 202.19
  A 1.73 1.73 0.0 0 0 652.82 201.36
  Q 609.00 218.58 563.45 229.87
  C 537.65 236.26 512.85 246.10 486.17 249.61
  C 460.70 252.95 435.90 258.72 410.66 263.29
  Q 330.17 277.89 248.75 286.00"
/>
<path stroke="#6e737f" vector-effect="non-scaling-stroke" d="
  M 324.47 359.84
  L 324.36 360.30
  Q 324.24 360.77 324.73 360.80
  C 337.98 361.44 351.37 360.83 364.57 359.75
  C 471.84 351.01 580.89 326.87 676.13 275.00
  Q 677.21 274.41 676.01 274.66
  Q 670.20 275.90 665.00 278.46"
/>
<path stroke="#d3d9e8" vector-effect="non-scaling-stroke" d="
  M 665.00 278.46
  C 664.27 275.74 666.23 274.30 664.11 271.56
  A 1.70 1.70 0.0 0 0 662.09 271.03
  C 635.22 282.60 608.32 292.90 579.94 300.19
  Q 535.69 311.54 469.43 323.63
  Q 412.06 334.09 383.49 337.96
  C 372.86 339.40 357.79 339.51 345.23 341.24
  Q 308.99 346.23 272.74 351.19
  C 270.40 351.51 271.22 354.95 274.57 354.93
  Q 297.95 354.78 323.02 358.44
  Q 323.48 358.50 323.65 358.94
  Q 323.92 359.61 324.47 359.84"
/>
<path stroke="#7c808b" vector-effect="non-scaling-stroke" d="
  M 665.00 278.46
  C 570.21 320.62 467.77 342.84 364.99 354.92
  Q 344.72 357.30 324.47 359.84"
/>
<path stroke="#d3d9e8" vector-effect="non-scaling-stroke" d="
  M 438.04 358.59
  Q 418.26 360.88 398.82 365.12
  Q 390.19 367.00 381.39 367.06
  C 376.29 367.10 367.46 367.46 364.61 372.60
  C 363.14 375.25 363.87 377.05 367.01 377.44
  Q 375.79 378.54 381.01 378.24
  Q 412.71 376.42 444.31 373.34
  C 502.15 367.69 558.91 350.77 611.09 325.38
  C 612.60 324.65 613.07 323.76 612.68 322.13
  A 0.90 0.90 0.0 0 0 611.59 321.46
  C 589.15 327.03 567.24 334.43 544.80 339.92
  C 521.53 345.62 501.15 350.41 479.50 352.28
  Q 461.95 353.80 445.96 357.59
  C 443.39 358.20 440.66 358.29 438.04 358.59"
/>
<path stroke="#6e737f" vector-effect="non-scaling-stroke" d="
  M 478.00 414.54
  C 440.56 419.68 402.64 421.91 364.85 421.75
  Q 333.71 421.62 301.17 421.41
  A 0.24 0.24 0.0 0 0 301.07 421.87
  Q 302.12 422.37 303.57 422.64
  Q 324.50 426.39 345.75 426.65
  Q 381.54 427.09 417.20 426.30"
/>
<path stroke="#d3d9e8" vector-effect="non-scaling-stroke" d="
  M 417.20 426.30
  Q 418.89 430.56 424.01 430.77
  Q 437.33 431.32 449.33 429.65
  C 475.59 425.97 501.50 420.21 528.20 413.50
  Q 610.18 392.88 678.42 343.16
  Q 678.79 342.89 678.89 342.43
  Q 679.49 339.59 677.48 337.66
  Q 677.04 337.24 676.54 337.57
  C 618.77 375.35 550.51 396.35 483.05 407.79
  Q 479.49 408.40 476.79 410.77
  Q 476.38 411.13 476.62 411.62
  L 478.00 414.54"
/>
<path stroke="#7c808b" vector-effect="non-scaling-stroke" d="
  M 417.20 426.30
  Q 452.26 423.77 486.73 415.53
  Q 489.86 414.78 486.71 414.12
  Q 483.31 413.41 478.00 414.54"
/>
<path stroke="#b7c0d1" vector-effect="non-scaling-stroke" d="
  M 485.50 471.54
  C 485.43 471.86 485.65 472.08 485.96 472.08
  Q 537.50 473.16 585.75 455.29
  Q 586.23 455.12 586.50 454.68
  Q 587.56 452.96 586.75 451.04"
/>
<path stroke="#d3d9e8" vector-effect="non-scaling-stroke" d="
  M 586.75 451.04
  C 594.46 448.73 633.02 435.01 634.66 427.47
  C 634.99 425.93 634.00 425.12 632.62 424.98
  Q 632.11 424.93 631.68 425.22
  Q 622.81 431.01 617.03 432.61
  Q 563.33 447.42 508.00 454.02
  C 475.47 457.90 442.93 462.32 410.25 464.69
  Q 408.54 464.81 408.10 466.05
  A 1.14 1.14 0.0 0 0 409.11 467.57
  Q 445.84 469.83 482.49 471.98
  C 483.49 472.04 484.52 471.73 485.50 471.54"
/>
<path stroke="#c4cddd" vector-effect="non-scaling-stroke" d="
  M 586.75 451.04
  L 485.50 471.54"
/>
<path stroke="#6e737f" vector-effect="non-scaling-stroke" d="
  M 418.96 491.73
  C 456.25 494.73 494.98 492.37 531.44 486.24
  C 572.06 479.40 611.21 466.10 646.32 444.34
  Q 652.34 440.62 656.21 437.57
  Q 658.10 436.09 655.98 437.21
  C 583.37 475.66 501.82 489.10 420.25 490.24
  Q 419.08 490.25 418.63 491.13
  Q 418.35 491.68 418.96 491.73"
/>
<path stroke="#6e737f" vector-effect="non-scaling-stroke" d="
  M 448.96 591.30
  C 463.65 597.75 476.34 599.09 494.21 600.73
  C 539.25 604.85 586.09 602.33 627.62 582.71
  Q 627.75 582.64 627.75 582.50
  Q 627.75 582.34 627.76 582.17
  Q 627.78 581.78 627.42 581.90
  Q 601.52 589.99 574.50 592.46"
/>
<path stroke="#d3d9e8" vector-effect="non-scaling-stroke" d="
  M 574.50 592.46
  C 576.44 588.67 576.03 585.87 571.13 586.25
  C 522.90 590.07 476.45 588.27 430.10 578.21
  A 0.69 0.69 0.0 0 0 429.58 579.46
  L 447.86 591.13
  Q 448.13 591.30 448.37 591.09
  Q 448.78 590.74 448.96 591.30"
/>
<path stroke="#7c808b" vector-effect="non-scaling-stroke" d="
  M 574.50 592.46
  Q 511.70 600.17 448.96 591.30"
/>
<path stroke="#768ca5" vector-effect="non-scaling-stroke" d="
  M 573.3881 673.3432
  A 1.13 1.13 0.0 0 0 572.1585 672.3224
  L 506.5203 678.4115
  A 1.13 1.13 0.0 0 0 505.4996 679.6411
  L 505.5919 680.6368
  A 1.13 1.13 0.0 0 0 506.8215 681.6576
  L 572.4597 675.5685
  A 1.13 1.13 0.0 0 0 573.4804 674.3389
  L 573.3881 673.3432"
/>
<path stroke="#d3d9e8" vector-effect="non-scaling-stroke" d="
  M 474.14 717.24
  C 479.10 734.89 543.09 741.15 550.56 725.13
  A 0.78 0.77 15.6 0 0 549.94 724.04
  L 475.25 715.93
  A 1.04 1.03 85.4 0 0 474.14 717.24"
/>
<path stroke="#6e737f" vector-effect="non-scaling-stroke" d="
  M 434.17 719.70
  C 458.20 741.73 490.59 753.77 523.48 750.99
  A 0.41 0.41 0.0 0 0 523.54 750.19
  C 512.12 747.43 500.39 745.75 488.90 743.23
  Q 465.28 738.05 444.67 725.53
  Q 439.51 722.40 434.40 719.38
  A 0.20 0.20 0.0 0 0 434.17 719.70"
/>
<path stroke="#d3d9e8" vector-effect="non-scaling-stroke" d="
  M 490.66 823.20
  L 438.96 807.59
  A 0.11 0.11 0.0 0 0 438.83 807.67
  L 438.81 807.70
  A 27.00 13.69 16.8 0 0 460.70 828.61
  L 460.92 828.68
  A 27.00 13.69 16.8 0 0 490.72 823.37
  L 490.73 823.34
  A 0.11 0.11 0.0 0 0 490.66 823.20"
/>
<path stroke="#606773" vector-effect="non-scaling-stroke" d="
  M 305.01 215.88
  C 261.32 230.29 217.84 243.01 176.19 262.96
  C 174.85 263.60 174.25 264.89 175.57 265.93
  Q 175.97 266.25 176.47 266.19
  C 195.20 264.01 214.19 263.57 232.68 261.36
  C 387.90 242.83 542.62 209.52 689.33 154.79
  A 1.57 1.57 0.0 0 0 689.20 151.80
  Q 677.96 148.69 666.50 148.23
  C 640.35 147.20 613.93 150.53 588.26 155.27
  Q 587.73 155.37 587.26 155.22
  Q 586.66 155.02 587.27 154.87
  Q 620.53 146.28 654.82 144.01
  C 669.73 143.03 684.52 143.29 698.66 148.64
  C 699.88 149.10 701.29 149.19 702.32 148.59
  Q 710.98 143.54 728.56 132.69
  C 732.06 130.53 730.70 127.01 727.20 125.89
  C 699.89 117.17 668.93 118.80 640.78 121.48
  Q 429.07 141.67 227.79 210.00
  C 195.19 221.07 162.25 233.09 134.82 254.56
  Q 132.93 256.04 133.26 257.96
  Q 133.34 258.48 133.80 258.75
  C 148.77 267.37 159.79 264.30 174.72 257.08
  C 215.44 237.36 260.91 226.60 304.94 215.64
  Q 308.22 214.82 305.01 215.88"
/>
<path stroke="#606773" vector-effect="non-scaling-stroke" d="
  M 524.87 164.01
  C 490.99 168.72 457.58 175.84 424.58 184.15
  Q 420.13 185.27 415.74 186.77
  A 0.40 0.40 0.0 0 0 415.90 187.55
  Q 421.74 187.22 427.83 186.19
  Q 474.44 178.33 520.25 166.66
  C 521.92 166.24 523.58 165.45 525.09 164.72
  A 0.38 0.38 0.0 0 0 524.87 164.01"
/>
<path stroke="#5a6c63" vector-effect="non-scaling-stroke" d="
  M 684.95 710.29
  A 3.84 3.84 0.0 0 0 679.47 715.36
  L 700.35 752.42
  A 3.84 3.84 0.0 0 0 707.53 750.36
  L 706.41 726.57
  A 3.84 3.84 0.0 0 0 704.72 723.57
  L 684.95 710.29"
/>
</g>
<path fill="#171a21" d="
  M 795.55 42.09
  C 814.24 47.45 835.97 58.61 845.27 76.21
  C 857.84 99.98 836.40 126.80 817.87 139.55
  A 0.47 0.47 0.0 0 1 817.19 138.95
  C 835.56 103.79 805.06 87.66 777.73 79.19
  Q 730.52 64.56 682.74 62.76
  Q 635.61 60.99 584.98 66.59
  Q 411.81 85.71 243.26 129.74
  Q 242.97 129.82 242.99 129.52
  Q 243.00 129.37 243.00 129.22
  Q 243.00 129.08 243.13 129.02
  C 378.42 70.17 524.02 35.05 671.75 30.18
  C 714.46 28.77 755.30 30.54 795.55 42.09
  Z
  M 544.42 65.26
  C 602.26 58.29 655.68 55.04 711.56 59.66
  C 748.98 62.75 819.04 72.69 830.41 117.75
  A 0.70 0.70 0.0 0 0 831.54 118.11
  C 844.39 107.22 848.13 88.58 838.50 74.26
  C 820.36 47.32 768.30 39.92 738.74 37.30
  C 701.62 34.01 663.45 33.47 626.36 37.30
  Q 476.72 52.75 333.83 99.95
  C 332.78 100.30 330.01 100.74 329.41 102.14
  A 0.72 0.72 0.0 0 0 330.24 103.12
  Q 437.19 78.19 544.42 65.26
  Z"
/>
<path fill="#e0e6f4" d="
  M 711.56 59.66
  C 655.68 55.04 602.26 58.29 544.42 65.26
  Q 437.19 78.19 330.24 103.12
  A 0.72 0.72 0.0 0 1 329.41 102.14
  C 330.01 100.74 332.78 100.30 333.83 99.95
  Q 476.72 52.75 626.36 37.30
  C 663.45 33.47 701.62 34.01 738.74 37.30
  C 768.30 39.92 820.36 47.32 838.50 74.26
  C 848.13 88.58 844.39 107.22 831.54 118.11
  A 0.70 0.70 0.0 0 1 830.41 117.75
  C 819.04 72.69 748.98 62.75 711.56 59.66
  Z"
/>
<path fill="#171a21" d="
  M 596.33 696.59
  Q 595.22 697.03 595.73 698.10
  C 597.55 701.91 601.62 713.27 605.45 714.26
  C 621.55 718.44 663.82 730.65 664.94 751.32
  C 665.48 761.33 659.81 765.83 651.09 770.38
  Q 617.53 787.88 579.53 790.11
  A 0.26 0.26 0.0 0 1 579.45 789.60
  Q 604.98 782.83 623.56 764.30
  C 629.09 758.79 624.66 754.72 619.16 752.89
  Q 608.08 749.19 596.93 745.48
  A 2.51 2.50 -57.7 0 0 594.38 746.06
  C 584.73 755.41 577.00 761.99 563.70 766.03
  A 2.04 2.03 77.3 0 0 562.28 768.28
  C 565.45 789.67 550.56 797.00 533.44 803.65
  A 1.39 1.38 68.2 0 0 532.66 805.47
  C 536.00 813.51 537.30 821.60 531.54 829.33
  C 525.62 837.26 516.29 841.74 507.16 844.46
  A 2.33 2.33 0.0 0 0 505.53 847.10
  Q 509.80 871.27 493.54 886.81
  C 489.10 891.06 481.88 894.65 476.32 898.96
  Q 472.33 902.05 468.91 906.27
  Q 450.47 929.06 441.92 957.31
  C 441.49 958.73 441.45 960.28 439.79 960.79
  Q 439.27 960.95 438.83 960.63
  C 409.92 939.88 407.24 906.22 411.72 873.74
  Q 412.24 869.95 412.33 868.00
  Q 412.35 867.47 411.98 867.09
  C 410.52 865.60 408.44 864.62 407.17 863.44
  C 397.07 853.93 401.96 837.62 409.13 828.05
  C 410.65 826.01 412.93 824.04 414.80 822.02
  A 1.48 1.48 0.0 0 0 415.05 820.37
  C 407.08 804.15 400.83 789.28 417.35 775.21
  Q 417.79 774.84 417.75 774.27
  Q 417.66 772.97 416.49 771.79
  C 403.59 758.79 406.10 744.18 418.61 732.20
  A 1.64 1.63 48.9 0 0 418.76 730.00
  C 408.49 717.07 403.89 703.62 414.00 689.46
  C 416.52 685.94 420.32 682.49 423.72 679.46
  A 1.54 1.53 41.4 0 0 423.57 677.05
  Q 411.51 668.74 402.45 657.35
  C 390.15 641.88 393.00 626.16 402.56 610.30
  Q 402.83 609.86 402.73 609.35
  Q 402.45 607.92 401.18 607.07
  C 384.61 595.94 365.89 583.39 369.79 560.21
  Q 370.55 555.69 371.51 551.16
  A 0.97 0.96 -73.2 0 0 370.93 550.06
  Q 357.09 544.58 345.00 535.77
  Q 332.25 526.48 334.24 511.06
  Q 334.51 508.96 333.14 508.30
  Q 324.94 504.38 316.76 500.49
  C 315.76 500.02 313.99 500.18 312.81 500.60
  Q 292.73 507.65 277.21 522.01
  C 270.74 528.00 270.64 533.65 278.15 538.46
  C 296.76 550.38 317.24 555.80 338.46 559.36
  A 0.57 0.56 -42.5 0 1 338.41 560.48
  C 320.35 561.87 216.16 565.55 220.52 530.27
  C 223.48 506.27 270.24 485.99 289.79 478.48
  A 1.38 1.37 57.5 0 0 290.28 476.24
  Q 279.31 464.95 283.10 449.23
  A 2.12 2.11 15.8 0 0 281.70 446.73
  C 250.93 436.62 221.10 422.76 200.62 398.64
  Q 198.66 396.33 191.85 387.55
  Q 191.53 387.15 191.03 387.02
  C 173.55 382.47 157.00 375.84 142.77 364.50
  C 130.94 355.07 123.26 340.61 126.17 325.87
  A 2.43 2.42 12.8 0 0 124.39 323.05
  C 107.22 318.70 90.55 306.90 88.24 288.26
  C 74.60 178.52 420.06 116.14 492.66 103.88
  C 558.97 92.68 624.79 84.43 692.24 88.35
  C 723.44 90.16 793.62 97.63 794.25 142.44
  C 794.54 163.55 783.14 175.45 767.75 187.59
  A 1.77 1.76 57.5 0 0 767.27 189.77
  C 781.81 218.21 768.08 245.56 748.39 266.64
  C 747.49 267.61 746.96 269.29 747.45 270.53
  C 763.03 310.15 736.84 350.38 704.04 371.28
  A 2.50 2.50 0.0 0 0 703.11 374.43
  C 717.23 404.98 710.00 432.87 685.95 455.10
  A 0.90 0.89 -31.8 0 0 685.72 456.07
  C 694.32 479.44 681.64 502.10 665.12 518.27
  A 1.90 1.89 44.1 0 0 665.17 521.03
  C 668.65 524.21 672.65 527.51 674.51 532.21
  C 688.79 568.19 674.19 596.59 640.92 613.11
  A 2.65 2.64 66.0 0 0 639.64 616.45
  C 652.03 647.85 640.64 676.28 610.36 690.53
  Q 603.18 693.91 596.33 696.59
  Z
  M 183.25 336.04
  L 134.45 327.72
  A 1.72 1.71 4.5 0 0 132.45 329.42
  C 132.66 359.45 169.91 375.90 194.25 379.96
  Q 245.22 393.59 298.00 394.79
  C 320.63 395.30 339.04 394.90 355.43 394.98
  Q 357.40 394.99 355.45 395.24
  Q 318.31 399.85 280.91 400.68
  C 279.23 400.71 277.35 400.25 275.54 400.31
  L 206.83 392.72
  A 0.47 0.47 0.0 0 0 206.42 393.49
  Q 225.72 416.04 253.58 427.72
  C 296.95 448.47 344.46 455.19 392.36 455.47
  Q 392.67 455.48 392.49 455.73
  Q 392.34 455.94 392.19 455.95
  Q 356.60 458.38 321.04 455.75
  Q 308.27 452.35 295.48 448.94
  C 287.98 446.94 288.39 455.12 289.21 460.02
  C 291.63 474.27 308.00 487.90 320.11 494.29
  C 359.45 515.04 406.03 520.76 449.74 517.17
  L 505.36 514.82
  Q 507.71 514.72 505.41 515.25
  Q 439.02 530.56 372.04 519.75
  L 343.62 512.32
  A 1.72 1.71 11.7 0 0 341.49 513.71
  C 338.55 532.30 371.86 545.26 385.75 548.96
  Q 429.08 565.02 474.76 561.79
  A 2.04 2.04 0.0 0 1 476.90 563.44
  C 477.36 565.93 476.95 567.30 474.12 567.05
  Q 439.54 563.99 405.00 560.71
  Q 393.44 557.55 381.88 554.35
  C 379.48 553.68 377.59 553.72 377.08 556.53
  C 371.00 589.78 406.65 607.38 432.86 614.67
  L 476.08 626.41
  C 473.30 630.17 461.34 627.44 456.51 626.20
  Q 433.53 620.28 411.27 611.94
  Q 410.76 611.75 410.30 612.05
  Q 409.05 612.87 407.95 614.49
  C 381.29 653.75 432.40 680.90 461.75 688.96
  L 475.75 694.29
  L 475.46 695.25
  Q 454.26 691.37 434.03 683.98
  C 428.52 681.96 418.71 692.00 416.79 695.79
  C 403.76 721.40 439.27 742.59 456.72 754.01
  Q 458.69 755.31 457.67 756.89
  A 1.17 1.17 0.0 0 1 456.06 757.24
  L 425.27 737.69
  A 1.45 1.44 43.6 0 0 423.68 737.72
  C 404.21 751.32 418.72 769.00 431.28 779.62
  L 450.29 791.75
  L 452.09 793.60
  Q 453.03 794.57 451.78 794.06
  L 436.37 787.80
  L 423.20 780.19
  A 1.81 1.81 0.0 0 0 421.08 780.41
  Q 408.49 791.60 414.79 807.75
  Q 420.49 824.65 436.05 832.77
  A 0.49 0.48 55.2 0 1 435.89 833.68
  Q 432.38 834.13 429.29 832.75
  C 426.73 830.35 421.26 825.13 417.54 828.09
  Q 410.09 834.02 409.39 844.15
  C 405.97 860.72 422.27 870.62 433.32 878.93
  Q 434.15 879.56 434.54 880.50
  L 433.75 880.79
  Q 423.37 876.82 416.13 868.39
  Q 415.80 868.00 415.29 868.00
  L 413.29 868.00
  A 0.37 0.37 0.0 0 0 412.96 868.53
  C 419.00 881.16 417.06 893.99 417.02 907.29
  Q 416.96 933.05 435.91 949.99
  A 1.13 1.13 0.0 0 0 437.65 949.69
  Q 439.73 945.88 440.29 941.25
  Q 456.11 904.23 487.95 880.37
  C 499.74 871.54 502.67 865.37 500.42 850.32
  Q 500.09 848.11 498.01 848.08
  Q 486.98 847.89 475.59 848.15
  Q 467.32 846.44 459.63 842.68
  A 0.25 0.25 0.0 0 1 459.77 842.21
  C 478.14 844.68 498.11 844.24 514.52 836.01
  C 526.35 830.06 535.99 817.83 523.70 805.80
  Q 521.97 804.11 520.24 804.47
  Q 509.16 806.80 499.72 805.25
  Q 498.13 804.99 497.51 804.22
  A 0.63 0.63 0.0 0 1 497.90 803.19
  C 513.37 800.73 563.81 798.80 554.46 769.85
  A 1.76 1.76 0.0 0 0 552.41 768.67
  Q 527.74 774.15 503.30 767.76
  A 0.32 0.31 -37.9 0 1 503.38 767.14
  Q 525.80 766.86 548.00 764.56
  C 578.74 761.37 611.00 733.17 588.74 700.27
  C 588.07 699.29 586.54 698.64 585.56 698.79
  Q 566.78 701.78 542.25 703.04
  Q 540.41 703.13 539.17 702.93
  Q 537.56 702.66 539.16 702.32
  L 589.70 691.78
  C 620.90 684.55 650.42 655.72 634.94 621.16
  C 633.98 619.01 631.94 618.25 629.81 618.81
  Q 608.52 624.40 587.25 630.04
  Q 565.17 630.53 543.28 627.49
  Q 540.52 627.11 543.30 627.25
  Q 577.43 629.03 610.43 620.43
  C 643.34 611.85 682.59 588.28 673.08 547.71
  C 671.31 540.15 666.74 530.69 661.97 524.78
  C 660.71 523.22 657.89 523.65 656.23 524.79
  Q 625.44 545.96 587.80 546.99
  Q 587.01 547.01 587.79 546.87
  Q 595.88 545.38 603.94 543.74
  Q 626.15 539.20 645.04 526.75
  Q 680.22 507.09 682.74 466.98
  C 683.01 462.71 678.84 462.89 676.14 464.62
  Q 663.80 472.50 651.50 480.46
  L 633.44 487.14
  Q 647.35 477.89 661.33 468.78
  C 692.20 448.68 715.64 416.72 698.45 378.28
  A 1.28 1.28 0.0 0 0 696.60 377.72
  Q 672.12 393.25 645.62 405.59
  C 635.28 410.13 621.12 415.62 608.74 417.01
  Q 607.00 417.21 608.58 416.45
  L 670.00 386.96
  C 708.51 367.81 755.85 327.03 742.57 277.69
  A 0.95 0.94 -25.7 0 0 741.10 277.18
  L 710.25 299.71
  Q 637.15 342.52 554.36 360.74
  Q 553.86 360.85 554.04 360.38
  C 554.24 359.83 604.89 342.69 610.03 340.85
  Q 654.18 324.98 694.28 300.76
  C 727.93 282.30 778.21 240.64 763.24 195.82
  A 1.79 1.79 0.0 0 0 760.55 194.90
  Q 715.45 225.19 665.19 247.30
  Q 635.51 258.10 603.13 267.41
  A 0.30 0.30 0.0 0 1 602.94 266.84
  Q 671.17 239.66 735.54 202.75
  C 756.65 191.07 797.61 161.50 784.26 132.01
  Q 777.71 117.53 761.63 111.85
  C 743.65 101.59 722.69 97.34 702.24 95.34
  C 666.49 91.84 630.80 93.80 595.17 97.55
  C 473.96 110.32 354.07 137.72 238.25 175.39
  C 192.77 190.19 145.89 210.04 111.88 244.61
  C 97.39 259.33 87.02 286.68 104.10 302.84
  Q 108.90 307.38 119.87 312.03
  C 160.34 329.20 209.70 332.46 253.94 330.66
  Q 342.89 327.03 430.52 311.39
  Q 431.46 311.22 432.28 311.24
  A 0.19 0.19 0.0 0 1 432.32 311.61
  C 351.94 334.27 266.69 340.73 183.25 336.04
  Z
  M 267.68 532.93
  C 264.37 527.20 274.59 516.19 278.76 513.00
  C 287.90 506.00 297.30 502.09 307.63 497.36
  A 1.27 1.27 0.0 0 0 307.92 495.23
  Q 301.24 489.62 294.83 484.40
  Q 293.17 483.04 290.78 484.06
  C 266.75 494.30 242.35 503.85 227.53 524.79
  C 225.80 527.23 224.49 529.45 225.49 532.54
  C 232.01 552.78 275.32 555.53 292.66 555.70
  A 1.16 1.16 0.0 0 0 293.76 554.14
  Q 293.31 552.92 291.40 552.27
  Q 275.80 547.00 267.68 532.93
  Z
  M 601.20 740.82
  C 609.87 743.13 640.69 750.18 629.97 765.73
  C 628.07 768.49 623.36 772.32 622.93 773.63
  Q 622.42 775.15 623.99 774.82
  C 634.91 772.55 670.29 764.31 655.75 745.58
  C 646.00 733.04 620.95 724.22 605.79 721.18
  A 1.78 1.78 0.0 0 0 603.72 722.47
  C 602.36 727.61 601.35 733.00 599.75 738.03
  Q 599.04 740.25 601.20 740.82
  Z"
/>
<path fill="#c5ccdc" d="
  M 761.63 111.85
  C 784.23 147.56 764.14 168.46 738.79 191.85
  C 735.08 195.27 733.65 197.95 735.54 202.75
  Q 671.17 239.66 602.94 266.84
  A 0.30 0.30 0.0 0 0 603.13 267.41
  Q 635.51 258.10 665.19 247.30
  Q 673.99 249.52 682.62 247.38
  C 690.39 245.46 696.96 244.93 704.66 244.81
  C 710.45 244.72 710.62 248.17 711.34 253.21
  C 713.17 266.13 709.16 276.48 700.78 286.22
  C 697.21 290.36 695.54 295.59 694.28 300.76
  Q 654.18 324.98 610.03 340.85
  C 604.89 342.69 554.24 359.83 554.04 360.38
  Q 553.86 360.85 554.36 360.74
  Q 637.15 342.52 710.25 299.71
  C 724.58 331.89 694.27 361.11 670.38 377.16
  C 667.05 379.39 669.21 383.85 670.00 386.96
  L 608.58 416.45
  Q 607.00 417.21 608.74 417.01
  C 621.12 415.62 635.28 410.13 645.62 405.59
  Q 656.38 410.81 667.92 408.49
  C 673.07 407.46 677.36 406.93 679.42 412.23
  Q 680.24 414.34 679.39 417.30
  C 672.84 440.35 658.39 458.68 638.44 471.94
  Q 621.41 483.24 603.99 494.11
  A 0.39 0.39 0.0 0 0 604.28 494.82
  Q 619.07 491.60 633.44 487.14
  L 651.50 480.46
  Q 653.75 481.44 655.99 482.48
  C 671.39 489.66 651.06 511.95 644.77 518.10
  Q 644.41 518.46 644.36 518.97
  Q 643.97 522.97 645.04 526.75
  Q 626.15 539.20 603.94 543.74
  Q 595.88 545.38 587.79 546.87
  Q 587.01 547.01 587.80 546.99
  Q 625.44 545.96 656.23 524.79
  C 657.89 523.65 660.71 523.22 661.97 524.78
  C 666.74 530.69 671.31 540.15 673.08 547.71
  C 682.59 588.28 643.34 611.85 610.43 620.43
  Q 577.43 629.03 543.30 627.25
  Q 540.52 627.11 543.28 627.49
  Q 565.17 630.53 587.25 630.04
  Q 594.67 640.07 598.29 652.00
  Q 542.55 670.60 485.72 655.03
  Q 484.37 654.66 484.20 655.37
  Q 484.02 656.10 484.74 656.32
  Q 540.50 673.25 595.00 656.79
  Q 596.62 666.55 598.48 676.25
  Q 598.92 678.55 597.48 679.72
  Q 591.35 684.70 589.70 691.78
  L 539.16 702.32
  Q 537.56 702.66 539.17 702.93
  Q 540.41 703.13 542.25 703.04
  Q 566.78 701.78 585.56 698.79
  C 586.54 698.64 588.07 699.29 588.74 700.27
  C 611.00 733.17 578.74 761.37 548.00 764.56
  Q 525.80 766.86 503.38 767.14
  A 0.32 0.31 -37.9 0 0 503.30 767.76
  Q 527.74 774.15 552.41 768.67
  A 1.76 1.76 0.0 0 1 554.46 769.85
  C 563.81 798.80 513.37 800.73 497.90 803.19
  A 0.63 0.63 0.0 0 0 497.51 804.22
  Q 498.13 804.99 499.72 805.25
  Q 509.16 806.80 520.24 804.47
  Q 521.97 804.11 523.70 805.80
  C 535.99 817.83 526.35 830.06 514.52 836.01
  C 498.11 844.24 478.14 844.68 459.77 842.21
  A 0.25 0.25 0.0 0 0 459.63 842.68
  Q 467.32 846.44 475.59 848.15
  Q 481.11 855.59 482.04 862.01
  C 482.48 865.07 480.54 869.58 478.21 872.05
  Q 463.04 888.13 440.92 882.46
  C 439.08 881.99 437.05 880.48 434.54 880.50
  Q 434.15 879.56 433.32 878.93
  C 422.27 870.62 405.97 860.72 409.39 844.15
  Q 421.08 841.59 429.29 832.75
  Q 432.38 834.13 435.89 833.68
  A 0.49 0.48 55.2 0 0 436.05 832.77
  Q 420.49 824.65 414.79 807.75
  L 436.37 787.80
  L 451.78 794.06
  Q 453.03 794.57 452.09 793.60
  L 450.29 791.75
  C 453.26 788.46 456.60 788.65 460.85 790.10
  Q 483.62 797.87 505.99 788.77
  C 507.71 788.08 508.57 787.93 508.90 786.22
  A 1.70 1.69 -80.3 0 0 507.50 784.23
  Q 471.78 778.53 438.37 764.72
  A 1.65 1.65 0.0 0 0 436.13 765.88
  Q 434.52 772.94 431.28 779.62
  C 418.72 769.00 404.21 751.32 423.68 737.72
  A 1.45 1.44 43.6 0 1 425.27 737.69
  L 456.06 757.24
  A 1.17 1.17 0.0 0 0 457.67 756.89
  Q 458.69 755.31 456.72 754.01
  C 439.27 742.59 403.76 721.40 416.79 695.79
  C 418.71 692.00 428.52 681.96 434.03 683.98
  Q 454.26 691.37 475.46 695.25
  Q 481.38 698.69 487.89 697.50
  A 0.27 0.26 46.2 0 0 487.90 696.98
  L 475.75 694.29
  L 461.75 688.96
  Q 462.80 686.09 464.06 683.31
  C 464.98 681.29 468.73 680.71 469.70 678.55
  C 470.56 676.63 469.34 675.07 467.52 674.23
  C 456.19 669.00 436.93 661.19 446.40 644.66
  C 448.96 640.20 453.26 640.49 457.94 642.07
  C 466.01 644.81 473.86 643.49 479.02 636.00
  C 480.78 633.45 481.50 631.86 485.07 631.78
  A 0.53 0.53 0.0 0 0 485.45 630.90
  Q 481.74 626.64 476.08 626.41
  L 432.86 614.67
  Q 430.20 605.62 423.15 599.88
  C 419.44 596.86 413.51 594.16 408.73 591.69
  Q 397.30 585.78 392.87 573.88
  A 2.16 2.15 49.6 0 1 393.01 572.07
  Q 397.26 564.52 405.00 560.71
  Q 439.54 563.99 474.12 567.05
  C 476.95 567.30 477.36 565.93 476.90 563.44
  A 2.04 2.04 0.0 0 0 474.76 561.79
  Q 429.08 565.02 385.75 548.96
  C 386.25 536.22 368.74 535.60 372.04 519.75
  Q 439.02 530.56 505.41 515.25
  Q 507.71 514.72 505.36 514.82
  L 449.74 517.17
  Q 435.24 515.27 421.24 511.25
  C 407.41 507.29 392.22 504.65 380.19 502.56
  Q 360.07 499.07 342.37 492.80
  C 331.40 488.91 306.12 475.68 317.61 460.05
  Q 319.22 457.85 321.04 455.75
  Q 356.60 458.38 392.19 455.95
  Q 392.34 455.94 392.49 455.73
  Q 392.67 455.48 392.36 455.47
  C 344.46 455.19 296.95 448.47 253.58 427.72
  Q 257.77 415.59 267.95 408.16
  Q 269.50 407.02 270.80 405.15
  Q 272.72 402.38 275.54 400.31
  C 277.35 400.25 279.23 400.71 280.91 400.68
  Q 318.31 399.85 355.45 395.24
  Q 357.40 394.99 355.43 394.98
  C 339.04 394.90 320.63 395.30 298.00 394.79
  Q 245.22 393.59 194.25 379.96
  L 194.36 379.28
  Q 194.42 378.84 194.19 378.47
  C 188.14 368.65 181.29 365.17 173.97 359.80
  C 165.33 353.45 173.84 345.02 179.73 339.62
  C 180.87 338.58 182.59 338.04 183.25 336.04
  C 266.69 340.73 351.94 334.27 432.32 311.61
  A 0.19 0.19 0.0 0 0 432.28 311.24
  Q 431.46 311.22 430.52 311.39
  Q 342.89 327.03 253.94 330.66
  C 209.70 332.46 160.34 329.20 119.87 312.03
  Q 108.90 307.38 104.10 302.84
  C 87.02 286.68 97.39 259.33 111.88 244.61
  C 145.89 210.04 192.77 190.19 238.25 175.39
  C 354.07 137.72 473.96 110.32 595.17 97.55
  C 630.80 93.80 666.49 91.84 702.24 95.34
  C 722.69 97.34 743.65 101.59 761.63 111.85
  Z
  M 725.26 117.92
  C 691.07 109.06 655.40 113.69 620.83 117.05
  C 612.19 117.89 597.07 118.82 585.25 120.48
  C 455.06 138.72 326.30 167.63 202.53 212.32
  C 190.04 216.83 121.53 242.03 127.56 260.46
  C 131.70 273.10 165.77 272.32 176.81 272.10
  Q 226.54 271.11 271.47 264.54
  C 403.83 245.19 535.13 215.66 661.99 172.96
  C 683.31 165.78 705.42 156.63 723.92 143.68
  C 733.15 137.22 744.52 122.91 725.26 117.92
  Z
  M 248.75 286.00
  Q 235.55 287.31 184.54 291.06
  C 182.96 291.18 181.15 291.90 179.60 292.30
  Q 179.06 292.44 178.78 292.92
  Q 178.14 294.01 178.89 295.00
  Q 179.29 295.52 179.95 295.51
  Q 317.25 292.87 452.66 270.01
  Q 462.51 268.35 472.26 266.12
  Q 512.04 257.04 551.38 246.23
  C 573.18 240.23 594.73 232.05 616.25 225.01
  C 620.30 223.68 658.41 208.95 655.00 202.19
  A 1.73 1.73 0.0 0 0 652.82 201.36
  Q 609.00 218.58 563.45 229.87
  C 537.65 236.26 512.85 246.10 486.17 249.61
  C 460.70 252.95 435.90 258.72 410.66 263.29
  Q 330.17 277.89 248.75 286.00
  Z
  M 324.47 359.84
  L 324.36 360.30
  Q 324.24 360.77 324.73 360.80
  C 337.98 361.44 351.37 360.83 364.57 359.75
  C 471.84 351.01 580.89 326.87 676.13 275.00
  Q 677.21 274.41 676.01 274.66
  Q 670.20 275.90 665.00 278.46
  C 664.27 275.74 666.23 274.30 664.11 271.56
  A 1.70 1.70 0.0 0 0 662.09 271.03
  C 635.22 282.60 608.32 292.90 579.94 300.19
  Q 535.69 311.54 469.43 323.63
  Q 412.06 334.09 383.49 337.96
  C 372.86 339.40 357.79 339.51 345.23 341.24
  Q 308.99 346.23 272.74 351.19
  C 270.40 351.51 271.22 354.95 274.57 354.93
  Q 297.95 354.78 323.02 358.44
  Q 323.48 358.50 323.65 358.94
  Q 323.92 359.61 324.47 359.84
  Z
  M 438.04 358.59
  Q 418.26 360.88 398.82 365.12
  Q 390.19 367.00 381.39 367.06
  C 376.29 367.10 367.46 367.46 364.61 372.60
  C 363.14 375.25 363.87 377.05 367.01 377.44
  Q 375.79 378.54 381.01 378.24
  Q 412.71 376.42 444.31 373.34
  C 502.15 367.69 558.91 350.77 611.09 325.38
  C 612.60 324.65 613.07 323.76 612.68 322.13
  A 0.90 0.90 0.0 0 0 611.59 321.46
  C 589.15 327.03 567.24 334.43 544.80 339.92
  C 521.53 345.62 501.15 350.41 479.50 352.28
  Q 461.95 353.80 445.96 357.59
  C 443.39 358.20 440.66 358.29 438.04 358.59
  Z
  M 478.00 414.54
  C 440.56 419.68 402.64 421.91 364.85 421.75
  Q 333.71 421.62 301.17 421.41
  A 0.24 0.24 0.0 0 0 301.07 421.87
  Q 302.12 422.37 303.57 422.64
  Q 324.50 426.39 345.75 426.65
  Q 381.54 427.09 417.20 426.30
  Q 418.89 430.56 424.01 430.77
  Q 437.33 431.32 449.33 429.65
  C 475.59 425.97 501.50 420.21 528.20 413.50
  Q 610.18 392.88 678.42 343.16
  Q 678.79 342.89 678.89 342.43
  Q 679.49 339.59 677.48 337.66
  Q 677.04 337.24 676.54 337.57
  C 618.77 375.35 550.51 396.35 483.05 407.79
  Q 479.49 408.40 476.79 410.77
  Q 476.38 411.13 476.62 411.62
  L 478.00 414.54
  Z
  M 485.50 471.54
  C 485.43 471.86 485.65 472.08 485.96 472.08
  Q 537.50 473.16 585.75 455.29
  Q 586.23 455.12 586.50 454.68
  Q 587.56 452.96 586.75 451.04
  C 594.46 448.73 633.02 435.01 634.66 427.47
  C 634.99 425.93 634.00 425.12 632.62 424.98
  Q 632.11 424.93 631.68 425.22
  Q 622.81 431.01 617.03 432.61
  Q 563.33 447.42 508.00 454.02
  C 475.47 457.90 442.93 462.32 410.25 464.69
  Q 408.54 464.81 408.10 466.05
  A 1.14 1.14 0.0 0 0 409.11 467.57
  Q 445.84 469.83 482.49 471.98
  C 483.49 472.04 484.52 471.73 485.50 471.54
  Z
  M 418.96 491.73
  C 456.25 494.73 494.98 492.37 531.44 486.24
  C 572.06 479.40 611.21 466.10 646.32 444.34
  Q 652.34 440.62 656.21 437.57
  Q 658.10 436.09 655.98 437.21
  C 583.37 475.66 501.82 489.10 420.25 490.24
  Q 419.08 490.25 418.63 491.13
  Q 418.35 491.68 418.96 491.73
  Z
  M 448.96 591.30
  C 463.65 597.75 476.34 599.09 494.21 600.73
  C 539.25 604.85 586.09 602.33 627.62 582.71
  Q 627.75 582.64 627.75 582.50
  Q 627.75 582.34 627.76 582.17
  Q 627.78 581.78 627.42 581.90
  Q 601.52 589.99 574.50 592.46
  C 576.44 588.67 576.03 585.87 571.13 586.25
  C 522.90 590.07 476.45 588.27 430.10 578.21
  A 0.69 0.69 0.0 0 0 429.58 579.46
  L 447.86 591.13
  Q 448.13 591.30 448.37 591.09
  Q 448.78 590.74 448.96 591.30
  Z
  M 573.3881 673.3432
  A 1.13 1.13 0.0 0 0 572.1585 672.3224
  L 506.5203 678.4115
  A 1.13 1.13 0.0 0 0 505.4996 679.6411
  L 505.5919 680.6368
  A 1.13 1.13 0.0 0 0 506.8215 681.6576
  L 572.4597 675.5685
  A 1.13 1.13 0.0 0 0 573.4804 674.3389
  L 573.3881 673.3432
  Z
  M 474.14 717.24
  C 479.10 734.89 543.09 741.15 550.56 725.13
  A 0.78 0.77 15.6 0 0 549.94 724.04
  L 475.25 715.93
  A 1.04 1.03 85.4 0 0 474.14 717.24
  Z
  M 434.17 719.70
  C 458.20 741.73 490.59 753.77 523.48 750.99
  A 0.41 0.41 0.0 0 0 523.54 750.19
  C 512.12 747.43 500.39 745.75 488.90 743.23
  Q 465.28 738.05 444.67 725.53
  Q 439.51 722.40 434.40 719.38
  A 0.20 0.20 0.0 0 0 434.17 719.70
  Z
  M 490.66 823.20
  L 438.96 807.59
  A 0.11 0.11 0.0 0 0 438.83 807.67
  L 438.81 807.70
  A 27.00 13.69 16.8 0 0 460.70 828.61
  L 460.92 828.68
  A 27.00 13.69 16.8 0 0 490.72 823.37
  L 490.73 823.34
  A 0.11 0.11 0.0 0 0 490.66 823.20
  Z"
/>
<path fill="#a8b3c5" d="
  M 761.63 111.85
  Q 777.71 117.53 784.26 132.01
  C 797.61 161.50 756.65 191.07 735.54 202.75
  C 733.65 197.95 735.08 195.27 738.79 191.85
  C 764.14 168.46 784.23 147.56 761.63 111.85
  Z"
/>
<path fill="#171a21" d="
  M 620.83 117.05
  C 655.40 113.69 691.07 109.06 725.26 117.92
  C 744.52 122.91 733.15 137.22 723.92 143.68
  C 705.42 156.63 683.31 165.78 661.99 172.96
  C 535.13 215.66 403.83 245.19 271.47 264.54
  Q 226.54 271.11 176.81 272.10
  C 165.77 272.32 131.70 273.10 127.56 260.46
  C 121.53 242.03 190.04 216.83 202.53 212.32
  C 326.30 167.63 455.06 138.72 585.25 120.48
  C 597.07 118.82 612.19 117.89 620.83 117.05
  Z
  M 305.01 215.88
  C 261.32 230.29 217.84 243.01 176.19 262.96
  C 174.85 263.60 174.25 264.89 175.57 265.93
  Q 175.97 266.25 176.47 266.19
  C 195.20 264.01 214.19 263.57 232.68 261.36
  C 387.90 242.83 542.62 209.52 689.33 154.79
  A 1.57 1.57 0.0 0 0 689.20 151.80
  Q 677.96 148.69 666.50 148.23
  C 640.35 147.20 613.93 150.53 588.26 155.27
  Q 587.73 155.37 587.26 155.22
  Q 586.66 155.02 587.27 154.87
  Q 620.53 146.28 654.82 144.01
  C 669.73 143.03 684.52 143.29 698.66 148.64
  C 699.88 149.10 701.29 149.19 702.32 148.59
  Q 710.98 143.54 728.56 132.69
  C 732.06 130.53 730.70 127.01 727.20 125.89
  C 699.89 117.17 668.93 118.80 640.78 121.48
  Q 429.07 141.67 227.79 210.00
  C 195.19 221.07 162.25 233.09 134.82 254.56
  Q 132.93 256.04 133.26 257.96
  Q 133.34 258.48 133.80 258.75
  C 148.77 267.37 159.79 264.30 174.72 257.08
  C 215.44 237.36 260.91 226.60 304.94 215.64
  Q 308.22 214.82 305.01 215.88
  Z"
/>
<path fill="#a8b3c5" d="
  M 304.94 215.64
  C 260.91 226.60 215.44 237.36 174.72 257.08
  C 159.79 264.30 148.77 267.37 133.80 258.75
  Q 133.34 258.48 133.26 257.96
  Q 132.93 256.04 134.82 254.56
  C 162.25 233.09 195.19 221.07 227.79 210.00
  Q 429.07 141.67 640.78 121.48
  C 668.93 118.80 699.89 117.17 727.20 125.89
  C 730.70 127.01 732.06 130.53 728.56 132.69
  Q 710.98 143.54 702.32 148.59
  C 701.29 149.19 699.88 149.10 698.66 148.64
  C 684.52 143.29 669.73 143.03 654.82 144.01
  Q 620.53 146.28 587.27 154.87
  Q 586.66 155.02 587.26 155.22
  Q 587.73 155.37 588.26 155.27
  C 613.93 150.53 640.35 147.20 666.50 148.23
  Q 677.96 148.69 689.20 151.80
  A 1.57 1.57 0.0 0 1 689.33 154.79
  C 542.62 209.52 387.90 242.83 232.68 261.36
  C 214.19 263.57 195.20 264.01 176.47 266.19
  Q 175.97 266.25 175.57 265.93
  C 174.25 264.89 174.85 263.60 176.19 262.96
  C 217.84 243.01 261.32 230.29 305.01 215.88
  Q 308.22 214.82 304.94 215.64
  Z
  M 524.87 164.01
  C 490.99 168.72 457.58 175.84 424.58 184.15
  Q 420.13 185.27 415.74 186.77
  A 0.40 0.40 0.0 0 0 415.90 187.55
  Q 421.74 187.22 427.83 186.19
  Q 474.44 178.33 520.25 166.66
  C 521.92 166.24 523.58 165.45 525.09 164.72
  A 0.38 0.38 0.0 0 0 524.87 164.01
  Z"
/>
<circle fill="#171a21" cx="181.74" cy="130.72" r="4.27"/>
<circle fill="#171a21" cx="210.21" cy="151.20" r="5.61"/>
<path fill="#171a21" d="
  M 424.58 184.15
  C 457.58 175.84 490.99 168.72 524.87 164.01
  A 0.38 0.38 0.0 0 1 525.09 164.72
  C 523.58 165.45 521.92 166.24 520.25 166.66
  Q 474.44 178.33 427.83 186.19
  Q 421.74 187.22 415.90 187.55
  A 0.40 0.40 0.0 0 1 415.74 186.77
  Q 420.13 185.27 424.58 184.15
  Z"
/>
<circle fill="#171a21" cx="156.43" cy="169.43" r="3.70"/>
<path fill="#a8b3c5" d="
  M 694.28 300.76
  C 695.54 295.59 697.21 290.36 700.78 286.22
  C 709.16 276.48 713.17 266.13 711.34 253.21
  C 710.62 248.17 710.45 244.72 704.66 244.81
  C 696.96 244.93 690.39 245.46 682.62 247.38
  Q 673.99 249.52 665.19 247.30
  Q 715.45 225.19 760.55 194.90
  A 1.79 1.79 0.0 0 1 763.24 195.82
  C 778.21 240.64 727.93 282.30 694.28 300.76
  Z"
/>
<path fill="#e0e6f4" d="
  M 248.75 286.00
  Q 330.17 277.89 410.66 263.29
  C 435.90 258.72 460.70 252.95 486.17 249.61
  C 512.85 246.10 537.65 236.26 563.45 229.87
  Q 609.00 218.58 652.82 201.36
  A 1.73 1.73 0.0 0 1 655.00 202.19
  C 658.41 208.95 620.30 223.68 616.25 225.01
  C 594.73 232.05 573.18 240.23 551.38 246.23
  Q 512.04 257.04 472.26 266.12
  Q 462.51 268.35 452.66 270.01
  Q 317.25 292.87 179.95 295.51
  Q 179.29 295.52 178.89 295.00
  Q 178.14 294.01 178.78 292.92
  Q 179.06 292.44 179.60 292.30
  C 181.15 291.90 182.96 291.18 184.54 291.06
  Q 235.55 287.31 248.75 286.00
  Z"
/>
<circle fill="#171a21" cx="814.23" cy="221.41" r="4.47"/>
<circle fill="#171a21" cx="800.75" cy="260.16" r="7.01"/>
<path fill="#e0e6f4" d="
  M 665.00 278.46
  C 570.21 320.62 467.77 342.84 364.99 354.92
  Q 344.72 357.30 324.47 359.84
  Q 323.92 359.61 323.65 358.94
  Q 323.48 358.50 323.02 358.44
  Q 297.95 354.78 274.57 354.93
  C 271.22 354.95 270.40 351.51 272.74 351.19
  Q 308.99 346.23 345.23 341.24
  C 357.79 339.51 372.86 339.40 383.49 337.96
  Q 412.06 334.09 469.43 323.63
  Q 535.69 311.54 579.94 300.19
  C 608.32 292.90 635.22 282.60 662.09 271.03
  A 1.70 1.70 0.0 0 1 664.11 271.56
  C 666.23 274.30 664.27 275.74 665.00 278.46
  Z"
/>
<path fill="#171a21" d="
  M 324.47 359.84
  Q 344.72 357.30 364.99 354.92
  C 467.77 342.84 570.21 320.62 665.00 278.46
  Q 670.20 275.90 676.01 274.66
  Q 677.21 274.41 676.13 275.00
  C 580.89 326.87 471.84 351.01 364.57 359.75
  C 351.37 360.83 337.98 361.44 324.73 360.80
  Q 324.24 360.77 324.36 360.30
  L 324.47 359.84
  Z"
/>
<path fill="#a8b3c5" d="
  M 670.00 386.96
  C 669.21 383.85 667.05 379.39 670.38 377.16
  C 694.27 361.11 724.58 331.89 710.25 299.71
  L 741.10 277.18
  A 0.95 0.94 -25.7 0 1 742.57 277.69
  C 755.85 327.03 708.51 367.81 670.00 386.96
  Z"
/>
<path fill="#e0e6f4" d="
  M 438.04 358.59
  C 440.66 358.29 443.39 358.20 445.96 357.59
  Q 461.95 353.80 479.50 352.28
  C 501.15 350.41 521.53 345.62 544.80 339.92
  C 567.24 334.43 589.15 327.03 611.59 321.46
  A 0.90 0.90 0.0 0 1 612.68 322.13
  C 613.07 323.76 612.60 324.65 611.09 325.38
  C 558.91 350.77 502.15 367.69 444.31 373.34
  Q 412.71 376.42 381.01 378.24
  Q 375.79 378.54 367.01 377.44
  C 363.87 377.05 363.14 375.25 364.61 372.60
  C 367.46 367.46 376.29 367.10 381.39 367.06
  Q 390.19 367.00 398.82 365.12
  Q 418.26 360.88 438.04 358.59
  Z"
/>
<path fill="#a8b3c5" d="
  M 183.25 336.04
  C 182.59 338.04 180.87 338.58 179.73 339.62
  C 173.84 345.02 165.33 353.45 173.97 359.80
  C 181.29 365.17 188.14 368.65 194.19 378.47
  Q 194.42 378.84 194.36 379.28
  L 194.25 379.96
  C 169.91 375.90 132.66 359.45 132.45 329.42
  A 1.72 1.71 4.5 0 1 134.45 327.72
  L 183.25 336.04
  Z"
/>
<path fill="#e0e6f4" d="
  M 417.20 426.30
  Q 452.26 423.77 486.73 415.53
  Q 489.86 414.78 486.71 414.12
  Q 483.31 413.41 478.00 414.54
  L 476.62 411.62
  Q 476.38 411.13 476.79 410.77
  Q 479.49 408.40 483.05 407.79
  C 550.51 396.35 618.77 375.35 676.54 337.57
  Q 677.04 337.24 677.48 337.66
  Q 679.49 339.59 678.89 342.43
  Q 678.79 342.89 678.42 343.16
  Q 610.18 392.88 528.20 413.50
  C 501.50 420.21 475.59 425.97 449.33 429.65
  Q 437.33 431.32 424.01 430.77
  Q 418.89 430.56 417.20 426.30
  Z"
/>
<circle fill="#171a21" cx="768.08" cy="354.51" r="4.17"/>
<path fill="#a8b3c5" d="
  M 633.44 487.14
  Q 619.07 491.60 604.28 494.82
  A 0.39 0.39 0.0 0 1 603.99 494.11
  Q 621.41 483.24 638.44 471.94
  C 658.39 458.68 672.84 440.35 679.39 417.30
  Q 680.24 414.34 679.42 412.23
  C 677.36 406.93 673.07 407.46 667.92 408.49
  Q 656.38 410.81 645.62 405.59
  Q 672.12 393.25 696.60 377.72
  A 1.28 1.28 0.0 0 1 698.45 378.28
  C 715.64 416.72 692.20 448.68 661.33 468.78
  Q 647.35 477.89 633.44 487.14
  Z"
/>
<path fill="#a8b3c5" d="
  M 275.54 400.31
  Q 272.72 402.38 270.80 405.15
  Q 269.50 407.02 267.95 408.16
  Q 257.77 415.59 253.58 427.72
  Q 225.72 416.04 206.42 393.49
  A 0.47 0.47 0.0 0 1 206.83 392.72
  L 275.54 400.31
  Z"
/>
<path fill="#171a21" d="
  M 417.20 426.30
  Q 381.54 427.09 345.75 426.65
  Q 324.50 426.39 303.57 422.64
  Q 302.12 422.37 301.07 421.87
  A 0.24 0.24 0.0 0 1 301.17 421.41
  Q 333.71 421.62 364.85 421.75
  C 402.64 421.91 440.56 419.68 478.00 414.54
  Q 483.31 413.41 486.71 414.12
  Q 489.86 414.78 486.73 415.53
  Q 452.26 423.77 417.20 426.30
  Z"
/>
<path fill="#e0e6f4" d="
  M 586.75 451.04
  L 485.50 471.54
  C 484.52 471.73 483.49 472.04 482.49 471.98
  Q 445.84 469.83 409.11 467.57
  A 1.14 1.14 0.0 0 1 408.10 466.05
  Q 408.54 464.81 410.25 464.69
  C 442.93 462.32 475.47 457.90 508.00 454.02
  Q 563.33 447.42 617.03 432.61
  Q 622.81 431.01 631.68 425.22
  Q 632.11 424.93 632.62 424.98
  C 634.00 425.12 634.99 425.93 634.66 427.47
  C 633.02 435.01 594.46 448.73 586.75 451.04
  Z"
/>
<path fill="#171a21" d="
  M 531.44 486.24
  C 494.98 492.37 456.25 494.73 418.96 491.73
  Q 418.35 491.68 418.63 491.13
  Q 419.08 490.25 420.25 490.24
  C 501.82 489.10 583.37 475.66 655.98 437.21
  Q 658.10 436.09 656.21 437.57
  Q 652.34 440.62 646.32 444.34
  C 611.21 466.10 572.06 479.40 531.44 486.24
  Z"
/>
<path fill="#a8b3c5" d="
  M 321.04 455.75
  Q 319.22 457.85 317.61 460.05
  C 306.12 475.68 331.40 488.91 342.37 492.80
  Q 360.07 499.07 380.19 502.56
  C 392.22 504.65 407.41 507.29 421.24 511.25
  Q 435.24 515.27 449.74 517.17
  C 406.03 520.76 359.45 515.04 320.11 494.29
  C 308.00 487.90 291.63 474.27 289.21 460.02
  C 288.39 455.12 287.98 446.94 295.48 448.94
  Q 308.27 452.35 321.04 455.75
  Z"
/>
<path fill="#a8b3c5" d="
  M 586.75 451.04
  Q 587.56 452.96 586.50 454.68
  Q 586.23 455.12 585.75 455.29
  Q 537.50 473.16 485.96 472.08
  C 485.65 472.08 485.43 471.86 485.50 471.54
  L 586.75 451.04
  Z"
/>
<path fill="#171a21" d="
  M 205.00 469.29
  Q 204.24 470.57 204.08 471.32
  Q 201.65 482.66 199.28 494.01
  C 198.30 498.69 202.61 501.69 206.09 498.09
  Q 220.57 483.11 235.06 468.14
  Q 236.86 466.28 237.13 464.83
  C 237.62 462.13 235.00 459.94 232.31 460.56
  Q 223.40 462.61 208.25 466.52
  Q 207.61 466.68 206.79 467.50
  L 206.61 466.86
  Q 206.54 466.62 206.73 466.46
  Q 217.58 457.27 230.75 456.22
  C 236.98 455.72 244.54 461.11 239.20 467.70
  C 230.85 478.00 214.82 492.28 204.74 505.97
  A 1.33 1.33 0.0 0 1 202.59 505.96
  Q 188.71 486.56 204.10 468.63
  Q 204.42 468.26 204.66 468.69
  L 205.00 469.29
  Z"
/>
<path fill="#9dbda4" d="
  M 205.00 469.29
  L 206.79 467.50
  Q 207.61 466.68 208.25 466.52
  Q 223.40 462.61 232.31 460.56
  C 235.00 459.94 237.62 462.13 237.13 464.83
  Q 236.86 466.28 235.06 468.14
  Q 220.57 483.11 206.09 498.09
  C 202.61 501.69 198.30 498.69 199.28 494.01
  Q 201.65 482.66 204.08 471.32
  Q 204.24 470.57 205.00 469.29
  Z"
/>
<path fill="#a8b3c5" d="
  M 645.04 526.75
  Q 643.97 522.97 644.36 518.97
  Q 644.41 518.46 644.77 518.10
  C 651.06 511.95 671.39 489.66 655.99 482.48
  Q 653.75 481.44 651.50 480.46
  Q 663.80 472.50 676.14 464.62
  C 678.84 462.89 683.01 462.71 682.74 466.98
  Q 680.22 507.09 645.04 526.75
  Z"
/>
<path fill="#e0e6f4" d="
  M 267.68 532.93
  Q 275.80 547.00 291.40 552.27
  Q 293.31 552.92 293.76 554.14
  A 1.16 1.16 0.0 0 1 292.66 555.70
  C 275.32 555.53 232.01 552.78 225.49 532.54
  C 224.49 529.45 225.80 527.23 227.53 524.79
  C 242.35 503.85 266.75 494.30 290.78 484.06
  Q 293.17 483.04 294.83 484.40
  Q 301.24 489.62 307.92 495.23
  A 1.27 1.27 0.0 0 1 307.63 497.36
  C 297.30 502.09 287.90 506.00 278.76 513.00
  C 274.59 516.19 264.37 527.20 267.68 532.93
  Z"
/>
<path fill="#a8b3c5" d="
  M 372.04 519.75
  C 368.74 535.60 386.25 536.22 385.75 548.96
  C 371.86 545.26 338.55 532.30 341.49 513.71
  A 1.72 1.71 11.7 0 1 343.62 512.32
  L 372.04 519.75
  Z"
/>
<path fill="#a8b3c5" d="
  M 405.00 560.71
  Q 397.26 564.52 393.01 572.07
  A 2.16 2.15 49.6 0 0 392.87 573.88
  Q 397.30 585.78 408.73 591.69
  C 413.51 594.16 419.44 596.86 423.15 599.88
  Q 430.20 605.62 432.86 614.67
  C 406.65 607.38 371.00 589.78 377.08 556.53
  C 377.59 553.72 379.48 553.68 381.88 554.35
  Q 393.44 557.55 405.00 560.71
  Z"
/>
<path fill="#e0e6f4" d="
  M 574.50 592.46
  Q 511.70 600.17 448.96 591.30
  Q 448.78 590.74 448.37 591.09
  Q 448.13 591.30 447.86 591.13
  L 429.58 579.46
  A 0.69 0.69 0.0 0 1 430.10 578.21
  C 476.45 588.27 522.90 590.07 571.13 586.25
  C 576.03 585.87 576.44 588.67 574.50 592.46
  Z"
/>
<path fill="#171a21" d="
  M 448.96 591.30
  Q 511.70 600.17 574.50 592.46
  Q 601.52 589.99 627.42 581.90
  Q 627.78 581.78 627.76 582.17
  Q 627.75 582.34 627.75 582.50
  Q 627.75 582.64 627.62 582.71
  C 586.09 602.33 539.25 604.85 494.21 600.73
  C 476.34 599.09 463.65 597.75 448.96 591.30
  Z"
/>
<circle fill="#171a21" cx="295.83" cy="593.52" r="6.41"/>
<circle fill="#171a21" cx="334.52" cy="615.90" r="4.77"/>
<path fill="#a8b3c5" d="
  M 476.08 626.41
  Q 481.74 626.64 485.45 630.90
  A 0.53 0.53 0.0 0 1 485.07 631.78
  C 481.50 631.86 480.78 633.45 479.02 636.00
  C 473.86 643.49 466.01 644.81 457.94 642.07
  C 453.26 640.49 448.96 640.20 446.40 644.66
  C 436.93 661.19 456.19 669.00 467.52 674.23
  C 469.34 675.07 470.56 676.63 469.70 678.55
  C 468.73 680.71 464.98 681.29 464.06 683.31
  Q 462.80 686.09 461.75 688.96
  C 432.40 680.90 381.29 653.75 407.95 614.49
  Q 409.05 612.87 410.30 612.05
  Q 410.76 611.75 411.27 611.94
  Q 433.53 620.28 456.51 626.20
  C 461.34 627.44 473.30 630.17 476.08 626.41
  Z"
/>
<path fill="#a8b3c5" d="
  M 589.70 691.78
  Q 591.35 684.70 597.48 679.72
  Q 598.92 678.55 598.48 676.25
  Q 596.62 666.55 595.00 656.79
  L 609.12 648.06
  A 0.33 0.33 0.0 0 0 608.81 647.48
  L 598.29 652.00
  Q 594.67 640.07 587.25 630.04
  Q 608.52 624.40 629.81 618.81
  C 631.94 618.25 633.98 619.01 634.94 621.16
  C 650.42 655.72 620.90 684.55 589.70 691.78
  Z"
/>
<ellipse fill="#171a21" cx="0.00" cy="0.00" transform="translate(697.73,635.03) rotate(-11.8)" rx="4.67" ry="4.18"/>
<ellipse fill="#171a21" cx="0.00" cy="0.00" transform="translate(669.65,646.75) rotate(75.5)" rx="4.48" ry="3.91"/>
<path fill="#274b6d" d="
  M 595.00 656.79
  Q 540.50 673.25 484.74 656.32
  Q 484.02 656.10 484.20 655.37
  Q 484.37 654.66 485.72 655.03
  Q 542.55 670.60 598.29 652.00
  L 608.81 647.48
  A 0.33 0.33 0.0 0 1 609.12 648.06
  L 595.00 656.79
  Z"
/>
<ellipse fill="#171a21" cx="0.00" cy="0.00" transform="translate(366.37,655.21) rotate(97.8)" rx="5.34" ry="4.56"/>
<circle fill="#171a21" cx="690.00" cy="669.43" r="6.53"/>
<rect fill="#274b6d" x="-34.09" y="-1.63" transform="translate(539.49,676.99) rotate(-5.3)" width="68.18" height="3.26" rx="1.13"/>
<path fill="#274b6d" d="
  M 475.75 694.29
  L 487.90 696.98
  A 0.27 0.26 46.2 0 1 487.89 697.50
  Q 481.38 698.69 475.46 695.25
  L 475.75 694.29
  Z"
/>
<circle fill="#171a21" cx="356.15" cy="699.77" r="3.97"/>
<path fill="#171a21" d="
  M 695.47 753.28
  C 688.95 739.16 673.40 723.47 677.93 706.23
  Q 678.30 704.79 679.77 705.09
  C 694.88 708.18 709.19 719.06 711.38 734.83
  C 712.89 745.60 707.92 756.77 699.48 763.34
  A 1.21 1.21 0.0 0 1 697.56 762.66
  C 696.86 759.71 696.66 755.87 695.47 753.28
  Z
  M 684.95 710.29
  A 3.84 3.84 0.0 0 0 679.47 715.36
  L 700.35 752.42
  A 3.84 3.84 0.0 0 0 707.53 750.36
  L 706.41 726.57
  A 3.84 3.84 0.0 0 0 704.72 723.57
  L 684.95 710.29
  Z"
/>
<path fill="#9dbda4" d="
  M 684.95 710.29
  L 704.72 723.57
  A 3.84 3.84 0.0 0 1 706.41 726.57
  L 707.53 750.36
  A 3.84 3.84 0.0 0 1 700.35 752.42
  L 679.47 715.36
  A 3.84 3.84 0.0 0 1 684.95 710.29
  Z"
/>
<path fill="#e0e6f4" d="
  M 550.56 725.13
  C 543.09 741.15 479.10 734.89 474.14 717.24
  A 1.04 1.03 85.4 0 1 475.25 715.93
  L 549.94 724.04
  A 0.78 0.77 15.6 0 1 550.56 725.13
  Z"
/>
<path fill="#171a21" d="
  M 523.48 750.99
  C 490.59 753.77 458.20 741.73 434.17 719.70
  A 0.20 0.20 0.0 0 1 434.40 719.38
  Q 439.51 722.40 444.67 725.53
  Q 465.28 738.05 488.90 743.23
  C 500.39 745.75 512.12 747.43 523.54 750.19
  A 0.41 0.41 0.0 0 1 523.48 750.99
  Z"
/>
<path fill="#e0e6f4" d="
  M 629.97 765.73
  C 640.69 750.18 609.87 743.13 601.20 740.82
  Q 599.04 740.25 599.75 738.03
  C 601.35 733.00 602.36 727.61 603.72 722.47
  A 1.78 1.78 0.0 0 1 605.79 721.18
  C 620.95 724.22 646.00 733.04 655.75 745.58
  C 670.29 764.31 634.91 772.55 623.99 774.82
  Q 622.42 775.15 622.93 773.63
  C 623.36 772.32 628.07 768.49 629.97 765.73
  Z"
/>
<path fill="#e0e6f4" d="
  M 450.29 791.75
  L 431.28 779.62
  Q 434.52 772.94 436.13 765.88
  A 1.65 1.65 0.0 0 1 438.37 764.72
  Q 471.78 778.53 507.50 784.23
  A 1.70 1.69 -80.3 0 1 508.90 786.22
  C 508.57 787.93 507.71 788.08 505.99 788.77
  Q 483.62 797.87 460.85 790.10
  C 456.60 788.65 453.26 788.46 450.29 791.75
  Z"
/>
<path fill="#a8b3c5" d="
  M 436.37 787.80
  L 414.79 807.75
  Q 408.49 791.60 421.08 780.41
  A 1.81 1.81 0.0 0 1 423.20 780.19
  L 436.37 787.80
  Z"
/>
<path fill="#e0e6f4" d="
  M 490.66 823.20
  A 0.11 0.11 0.0 0 1 490.73 823.34
  L 490.72 823.37
  A 27.00 13.69 16.8 0 1 460.92 828.68
  L 460.70 828.61
  A 27.00 13.69 16.8 0 1 438.81 807.70
  L 438.83 807.67
  A 0.11 0.11 0.0 0 1 438.96 807.59
  L 490.66 823.20
  Z"
/>
<path fill="#a8b3c5" d="
  M 429.29 832.75
  Q 421.08 841.59 409.39 844.15
  Q 410.09 834.02 417.54 828.09
  C 421.26 825.13 426.73 830.35 429.29 832.75
  Z"
/>
<circle fill="#171a21" cx="549.20" cy="846.50" r="5.40"/>
<path fill="#a8b3c5" d="
  M 475.59 848.15
  Q 486.98 847.89 498.01 848.08
  Q 500.09 848.11 500.42 850.32
  C 502.67 865.37 499.74 871.54 487.95 880.37
  Q 456.11 904.23 440.29 941.25
  Q 432.64 921.88 441.74 903.24
  A 0.65 0.65 0.0 0 1 442.64 902.96
  C 444.85 904.19 451.93 904.29 450.40 900.07
  Q 445.85 887.51 433.75 880.79
  L 434.54 880.50
  C 437.05 880.48 439.08 881.99 440.92 882.46
  Q 463.04 888.13 478.21 872.05
  C 480.54 869.58 482.48 865.07 482.04 862.01
  Q 481.11 855.59 475.59 848.15
  Z"
/>
<path fill="#c5ccdc" d="
  M 433.75 880.79
  Q 445.85 887.51 450.40 900.07
  C 451.93 904.29 444.85 904.19 442.64 902.96
  A 0.65 0.65 0.0 0 0 441.74 903.24
  Q 432.64 921.88 440.29 941.25
  Q 439.73 945.88 437.65 949.69
  A 1.13 1.13 0.0 0 1 435.91 949.99
  Q 416.96 933.05 417.02 907.29
  C 417.06 893.99 419.00 881.16 412.96 868.53
  A 0.37 0.37 0.0 0 1 413.29 868.00
  L 415.29 868.00
  Q 415.80 868.00 416.13 868.39
  Q 423.37 876.82 433.75 880.79
  Z"
/>
<ellipse fill="#171a21" cx="0.00" cy="0.00" transform="translate(536.19,873.63) rotate(105.4)" rx="4.37" ry="3.61"/>
</svg>
