<svg width="289" height="195" viewBox="0 0 289 195" fill="none" xmlns="http://www.w3.org/2000/svg">
<g clip-path="url(#clip0_39_296)">
<path d="M16.3209 134.443C10.6829 139.758 6.93856 143.722 5.08795 146.333C0.671825 152.548 -1.02415 159.181 2.81804e-05 166.234C0.552677 170.028 1.92163 173.645 4.10687 177.085C6.29719 180.521 8.99959 183.406 12.2141 185.74C20.2554 191.57 29.2499 194.422 39.1976 194.295C42.5895 194.25 46.235 193.901 50.1339 193.25C53.5259 192.684 57.0953 191.838 60.8421 190.711C67.1393 188.816 73.5024 186.472 79.9313 183.678C80.191 183.565 80.4755 183.521 80.7568 183.55C81.0382 183.58 81.3067 183.681 81.5361 183.845C91.433 190.863 102.24 192.813 113.957 189.695C123.139 187.25 130.359 182.107 135.617 174.266C135.684 174.166 135.785 174.094 135.903 174.063C136.021 174.032 136.146 174.045 136.256 174.1C150.828 181.183 165.924 182.312 181.545 177.487" stroke="#C3D5E7" stroke-width="2"/>
<path d="M181.545 177.487C192.781 174.042 202.239 167.719 209.92 158.519C210.091 158.313 210.32 158.161 210.577 158.083C210.834 158.004 211.108 158.003 211.366 158.079C225.745 162.399 238.78 160.737 250.472 153.093C262.848 145.01 268.876 133.435 268.557 118.37" stroke="#C0D6EF" stroke-width="2"/>
<path d="M268.557 118.37C268.755 117.799 269.313 117.375 270.23 117.097C273.495 116.107 276.218 114.321 278.398 111.739C279.28 110.693 280.675 108.867 282.581 106.26C286.891 100.369 289.013 93.9885 288.947 87.1177C288.916 83.6772 288.589 80.7596 287.966 78.3649C287.185 75.3741 285.74 72.7369 283.631 70.4534C276.71 62.9712 268.042 58.4092 257.628 56.7673C249.775 55.5295 242.803 56.545 236.714 59.8137" stroke="#DAE9FD" stroke-width="2"/>
<path d="M236.714 59.8139C235.898 56.1259 234.425 52.4101 232.295 48.6665C229.157 43.1597 225.035 38.9564 219.929 36.0565C215.797 33.7124 210.975 32.2851 205.464 31.7749C193.742 30.6836 183.54 34.5485 174.86 43.3694C174.678 43.5563 174.556 43.5286 174.495 43.2861C172.452 35.6827 169.093 29.0139 164.418 23.2798C156.803 13.9486 147.073 7.35058 135.229 3.48574C131.553 2.28334 128.052 1.55079 124.726 1.28809" stroke="#CEDAED" stroke-width="2"/>
<path d="M124.726 1.28801C121.578 0.752487 118.409 0.611027 115.22 0.863632C104.05 1.74775 94.2571 5.82225 85.8406 13.0871C73.0689 24.1209 65.1492 37.9358 62.0818 54.5319C62.026 54.835 62.0108 55.1887 62.0362 55.5929C62.1224 56.8104 61.8232 57.0908 61.1387 56.434C60.8244 56.1309 60.5607 55.9162 60.3478 55.7899C57.6251 54.2136 54.8112 53.2765 51.9059 52.9784C47.8752 52.5641 43.857 52.7536 39.8516 53.5468C35.8918 54.3298 32.2032 55.7722 28.7859 57.8739C23.082 61.3699 18.4707 66.0961 14.952 72.0525C11.4282 78.019 9.58265 84.4807 9.41534 91.4374C9.26323 97.9748 9.68913 104.022 10.693 109.579C11.991 116.723 14.052 124.268 16.8761 132.215C17.2057 133.145 17.0206 133.888 16.3209 134.443" stroke="#CCDCF7" stroke-width="2"/>
<path d="M124.726 1.28809C124.802 2.77845 125.492 3.58931 126.795 3.72066C127.779 3.81665 128.296 3.8697 128.346 3.8798C133.949 5.11251 139.128 7.26217 143.884 10.3288C144.482 10.7178 146.513 11.9859 149.976 14.133C152.029 15.4112 153.936 16.8813 155.695 18.5435C156.44 19.2457 157.731 20.3269 159.566 21.7869C161.259 23.1358 162.497 24.6439 163.277 26.3111C164.16 28.2056 165.217 29.9965 166.449 31.6839C167.975 33.7705 169.177 36.0237 170.054 38.4436C170.064 38.4739 170.188 39.0852 170.426 40.2775C170.619 41.2324 171.182 42.167 172.115 43.0814C173.098 44.0363 174.115 44.4657 175.164 44.3697C175.385 44.3503 175.617 44.2348 175.819 44.0439C177.446 42.5333 179.314 41.4143 181.424 40.6868C183.746 39.8835 185.809 38.6609 187.614 37.0189C188.481 36.2258 189.556 35.6827 190.839 35.3896C192.603 34.9804 193.511 34.7682 193.562 34.7531C198.206 33.4042 202.962 32.9924 207.829 33.5179C209.771 33.725 211.492 34.2605 212.993 35.1244C219.817 39.0297 225.438 44.2611 229.854 50.8187C231.705 53.567 232.767 55.2216 233.041 55.7824C233.908 57.586 234.273 59.5639 234.136 61.7161" stroke="#9BB7E5" stroke-width="2"/>
<path d="M234.136 61.7158C231.499 63.8276 229.491 65.7625 228.112 67.5207C226.348 69.7587 225.347 72.2999 225.108 75.1443C224.789 78.9535 225.194 82.6416 226.325 86.2083C226.883 87.9766 227.806 89.4795 229.093 90.7173C232.343 93.8547 236.278 95.8528 240.897 96.7116" stroke="#A7C6F5" stroke-width="2"/>
<path d="M240.897 96.7119C240.922 99.2784 240.605 101.804 239.946 104.29" stroke="#8DB3E7" stroke-width="2"/>
<path d="M239.946 104.29C239.069 103.724 238.412 103.795 237.976 104.502C237.952 104.542 237.92 104.577 237.882 104.605C237.845 104.632 237.803 104.652 237.758 104.663C237.714 104.674 237.669 104.675 237.625 104.667C237.581 104.659 237.54 104.641 237.505 104.616C236.521 103.913 235.434 103.532 234.242 103.471C232.28 103.375 231.271 103.322 231.215 103.312C227.854 102.762 224.49 102.213 221.123 101.668C219.348 101.38 217.876 100.935 216.704 100.334C216.661 100.311 216.623 100.28 216.592 100.242C216.561 100.204 216.538 100.16 216.525 100.113C216.511 100.065 216.508 100.016 216.514 99.9665C216.52 99.9173 216.535 99.8696 216.56 99.8263C219.531 94.7742 220.352 89.7701 219.024 84.814C217.838 80.3833 215.196 76.4882 211.099 73.1285C204.635 67.8339 196.741 66.528 187.417 69.2106C176.754 72.2773 167.853 78.0114 160.714 86.413C160.639 86.4999 160.585 86.6048 160.558 86.7192C160.53 86.8337 160.529 86.9545 160.555 87.0723C160.97 89.0578 161.087 91.0407 160.905 93.0211C160.869 93.4354 161.024 93.5238 161.368 93.2863C163.914 91.5686 166.355 89.7196 168.692 87.7392C171.734 85.1626 174.034 83.4272 175.59 82.533C179.555 80.2596 183.784 78.5646 188.276 77.4481C193.929 76.0436 199.286 76.3012 204.346 78.221C206.343 78.9788 207.986 80.204 209.274 81.8964C210.476 83.4676 211.112 85.3142 211.183 87.436C211.295 90.7502 210.283 93.5844 208.148 95.9387C205.847 98.4748 202.772 99.3236 198.923 98.4849C198.67 98.4305 198.443 98.3066 198.269 98.1288C197.017 96.8354 196.226 95.2971 195.896 93.5137C195.623 92.0334 196.221 91.0104 197.691 90.4446C200.738 89.2725 202.021 90.2955 201.539 93.5137C201.521 93.6334 201.534 93.7557 201.577 93.8689C201.62 93.982 201.692 94.0823 201.786 94.16C201.88 94.2376 201.993 94.2901 202.114 94.3123C202.234 94.3344 202.359 94.3256 202.475 94.2867C203.301 93.9987 203.801 93.4379 203.973 92.6043C204.252 91.2857 204.391 89.9393 204.391 88.5652C204.391 88.3546 204.349 88.1466 204.266 87.9538C204.184 87.761 204.064 87.5875 203.912 87.4436C202.944 86.509 201.955 85.7587 200.946 85.1929C199.882 84.5968 198.708 84.4023 197.425 84.6094C193.323 85.2763 190.621 87.6078 189.318 91.604C189.252 91.801 188.991 92.5563 188.534 93.8699C188.19 94.8702 188.01 95.8781 187.995 96.8935C187.994 96.9707 187.977 97.0468 187.945 97.117C187.913 97.1871 187.866 97.2497 187.808 97.3005C187.75 97.3514 187.681 97.3894 187.607 97.412C187.533 97.4345 187.455 97.4412 187.378 97.4316C185.533 97.2143 184.042 97.2901 182.907 97.6589" stroke="#A7C6F5" stroke-width="2"/>
<path d="M182.907 97.6588C182.354 94.8751 180.706 93.3014 177.963 92.9377C172.934 92.2758 169.501 94.2386 167.666 98.8259" stroke="#B8BCF3" stroke-width="2"/>
<path d="M167.666 98.8262C167.661 100.498 166.974 101.509 165.605 101.857C163.759 102.327 162.717 103.411 162.479 105.108" stroke="#A7C6F5" stroke-width="2"/>
<path d="M162.479 105.108C158.844 105.856 154.99 107.157 150.919 109.011C150.706 109.107 150.607 109.198 150.622 109.284C150.626 109.309 150.639 109.33 150.661 109.348C150.682 109.365 150.711 109.377 150.746 109.384C150.781 109.39 150.821 109.391 150.862 109.385C150.904 109.38 150.947 109.368 150.987 109.352C156.483 107.281 162.058 107.104 167.711 108.822C173.476 110.57 178.716 113.316 183.431 117.059C186.747 119.696 191.374 124.054 197.311 130.131C198.67 131.526 201.357 133.784 205.373 136.906" stroke="#7EA9DA" stroke-width="2"/>
<path d="M205.373 136.906C205.302 137.376 205.122 137.79 204.833 138.149C204.695 138.32 204.473 138.441 204.209 138.49C192.963 140.435 181.756 140.266 170.586 137.982C170.478 137.958 170.365 137.97 170.263 138.015C170.162 138.06 170.078 138.136 170.023 138.232C167.904 141.87 165.592 144.444 163.087 145.955C149.864 153.907 136.618 153.987 123.35 146.197C123.258 146.143 123.15 146.124 123.048 146.143C122.945 146.163 122.855 146.22 122.795 146.303C119.732 150.466 115.988 153.571 111.562 155.617C101.376 160.32 91.0376 160.391 80.5474 155.829C78.7728 155.056 76.9678 154.361 75.1324 153.745C75.0249 153.708 74.9087 153.702 74.7961 153.728C74.6836 153.753 74.579 153.809 74.4936 153.889C71.4616 156.824 67.2914 159.689 61.9829 162.482C52.3851 167.535 42.8303 168.025 33.3187 163.953C26.8846 161.194 22.1313 156.268 19.0588 149.175C18.3389 147.508 17.6797 143.671 17.0815 137.664" stroke="#8DB3E7" stroke-width="2"/>
<path d="M17.0814 137.664L16.3209 134.443" stroke="#90B1DF" stroke-width="2"/>
<path d="M268.557 118.37C264.1 120.164 259.634 121.363 255.157 121.97" stroke="#9BC0ED" stroke-width="2"/>
<path d="M255.157 121.97C252.485 114.588 247.508 109.392 240.227 106.381C237.074 105.073 233.494 104.638 229.489 105.078C223.136 105.77 218.162 108.748 214.567 114.012" stroke="#8CB6E0" stroke-width="2"/>
<path d="M214.567 114.013C206.009 109.986 197.975 106.96 190.466 104.934C186.522 103.873 181.926 103.247 176.678 103.055C176.414 103.045 176.169 103.123 175.993 103.274C175.623 103.608 175.329 104.03 175.111 104.54" stroke="#A5C7F4" stroke-width="2"/>
<path d="M175.111 104.54C170.949 103.909 166.738 104.098 162.479 105.108" stroke="#8CB6E0" stroke-width="2"/>
<path d="M167.666 98.8262C169.917 99.9932 172.224 100.281 174.586 99.6901C176.544 99.195 177.55 98.9424 177.606 98.9323C179.396 98.5938 181.162 98.1694 182.907 97.6592" stroke="#C6C9F9" stroke-width="2"/>
<path d="M239.946 104.29C241.868 105.492 244.403 106.008 247.551 105.836C253.823 105.492 259.119 103.866 263.439 100.956" stroke="#9BC0ED" stroke-width="2"/>
<path d="M263.439 100.955C267.201 98.217 269.434 94.5998 270.139 90.1034C270.646 86.8802 270.073 83.9929 268.42 81.4416C267.244 79.633 265.733 78.1603 263.887 77.0236C262.037 75.8868 260.136 75.0785 258.183 74.5986C255.349 73.9014 252.454 74.1616 249.498 75.3791C246.253 76.7179 244.671 79.052 244.753 82.3813" stroke="#DAE9FD" stroke-width="2"/>
<path d="M244.753 82.3813C244.606 84.4527 245.044 86.2462 246.068 87.7618C246.93 89.04 248.013 89.8029 249.316 90.0504C250.913 90.3485 252.302 89.722 253.483 88.171" stroke="#9DBFE5" stroke-width="2"/>
<path d="M253.483 88.1714C253.762 88.0956 253.99 87.9643 254.168 87.7773C254.3 87.6359 254.396 87.4035 254.457 87.0802C254.568 86.4588 254.733 85.9738 254.951 85.6252C255.545 84.6905 255.806 84.7714 255.735 85.8677L255.468 90.0053" stroke="#DAE9FD" stroke-width="2"/>
<path d="M255.468 90.0049C254.718 92.0409 253.205 93.6399 250.928 94.8018C247.485 96.56 244.142 97.1965 240.897 96.7115" stroke="#9BC0ED" stroke-width="2"/>
<path d="M218.294 132.655C222.867 133.721 225.902 134.254 227.397 134.254C236.052 134.259 239.837 130.003 238.752 121.485" stroke="#70A5D1" stroke-width="2"/>
<path d="M238.752 121.485C236.369 117.281 232.967 115.488 228.546 116.104C227.217 116.291 226.173 117.011 225.412 118.264" stroke="#8CB6E0" stroke-width="2"/>
<path d="M225.412 118.264C224.809 118.795 224.583 119.515 224.736 120.424C224.883 121.313 225.23 122.384 225.777 123.637C225.818 123.73 225.891 123.809 225.986 123.862C226.082 123.915 226.195 123.939 226.31 123.933L229.443 123.789C230.361 123.743 230.741 123.112 230.584 121.894C230.478 121.086 230.81 120.649 231.58 120.583" stroke="#7CAAD8" stroke-width="2"/>
<path d="M231.58 120.583L231.77 120.644" stroke="#8CB6E0" stroke-width="2"/>
<path d="M231.77 120.644C232.627 121.012 233.008 121.634 232.911 122.508C232.805 123.478 232.554 124.46 232.158 125.456C231.819 126.315 231.225 127.093 230.379 127.79C228.538 129.305 227.291 130.134 226.637 130.275C224.269 130.791 221.924 130.674 219.602 129.927" stroke="#70A5D1" stroke-width="2"/>
<path d="M255.157 121.97C255.557 124.455 255.494 127.161 254.966 130.086C254.546 132.43 253.707 134.484 252.449 136.247C251.516 137.55 249.995 139.101 247.886 140.9C241.411 146.417 233.9 148.165 225.352 146.144C218.73 144.578 212.07 141.499 205.373 136.906" stroke="#72A3D2" stroke-width="2"/>
<path d="M181.545 177.487C181.586 175.689 182.405 174.633 184.002 174.319C185.416 174.047 186.296 173.827 186.641 173.66C188.015 173.008 189.331 172.256 190.588 171.402C190.907 171.185 192.177 170.374 194.398 168.969C195.858 168.045 197.098 166.956 198.117 165.703C198.908 164.733 199.75 164.006 200.642 163.521C200.845 163.415 201.015 163.293 201.152 163.157C202.896 161.469 202.721 161.237 200.627 162.46C200.439 162.571 200.252 162.664 200.064 162.74C196.652 164.15 194.687 165.089 194.17 165.559C192.791 166.827 191.305 167.949 189.713 168.924C189.272 169.202 188.352 169.548 186.953 169.962C185.979 170.255 185.089 170.745 184.283 171.432C183.903 171.761 182.881 172.235 181.218 172.857C180.29 173.2 179.205 173.493 177.963 173.736C175.6 174.196 173.253 174.729 170.921 175.335C167.534 176.219 164.114 176.355 160.661 175.744C158.577 175.375 155.87 175.1 152.539 174.918C150.84 174.822 149.187 174.554 147.58 174.115C145.958 173.675 144.33 173.256 142.698 172.857C142.074 172.705 141.075 172.329 139.701 171.728C138.702 171.298 137.653 171.023 136.553 170.902C136.438 170.89 136.321 170.903 136.209 170.941C136.098 170.979 135.995 171.04 135.906 171.121C134.943 172.036 133.962 172.925 132.963 173.789C132.943 173.804 132.461 174.145 131.518 174.812C130.889 175.262 130.195 175.936 129.434 176.835C128.445 178.002 125.467 180.402 120.498 184.035C118.982 185.141 117.111 185.896 114.885 186.3C112.279 186.77 110.659 187.086 110.025 187.248C108.413 187.647 106.786 187.98 105.143 188.248C105.035 188.267 104.855 188.242 104.621 188.175C104.388 188.109 104.109 188.003 103.812 187.869C101.601 186.874 99.3096 186.308 96.9367 186.172C95.0405 186.061 93.5701 185.851 92.5257 185.543C90.5382 184.967 88.5583 184.36 86.586 183.724C86.2361 183.608 85.795 183.56 85.2626 183.58C84.7911 183.6 84.3323 183.552 83.8861 183.436C83.6376 183.375 83.0774 183.032 82.2053 182.405C81.0949 181.617 79.8325 181.653 78.4179 182.511C78.0317 182.748 77.5806 182.862 77.125 182.837C75.2997 182.741 73.7685 183.055 72.5314 183.777C71.0053 184.676 70.2245 185.133 70.189 185.149C68.4499 185.866 66.6602 186.429 64.8197 186.839C64.6169 186.884 64.4065 187.003 64.1884 187.195C63.7575 187.569 63.0223 187.983 61.9829 188.438C56.4818 190.847 51.0922 191.971 45.8141 191.81C45.6316 191.805 44.1156 191.827 41.2662 191.878C39.7046 191.903 38.1835 191.673 36.703 191.188C34.0818 190.324 32.7407 189.885 32.6799 189.87C29.8456 189.137 27.9367 188.485 26.9531 187.915C25.8833 187.298 24.1873 186.778 21.8652 186.354C19.0715 185.843 15.8038 184.232 12.062 181.519C10.328 180.256 8.92861 178.717 7.86387 176.904C7.57994 176.419 7.00448 175.643 6.13748 174.577C5.52399 173.824 5.07782 172.935 4.79896 171.91C4.32236 170.141 3.56183 167.994 2.51738 165.468C2.04585 164.326 1.85065 162.528 1.93177 160.073C1.94164 159.824 2.01768 159.581 2.15233 159.368C3.2779 157.584 4.20828 155.713 4.94346 153.752C5.40991 152.505 6.0234 151.396 6.78393 150.426C8.523 148.218 10.0567 145.874 11.3851 143.393C11.8769 142.479 12.5513 141.691 13.4081 141.029C14.7213 140.003 15.9457 138.882 17.0815 137.664" stroke="#84ACD7" stroke-width="2"/>
<path d="M236.714 59.814L234.136 61.7161" stroke="#A8C4EB" stroke-width="2"/>
<path d="M214.567 114.013C213.264 116.761 212.724 119.277 212.947 121.561C213.323 125.43 215.541 128.219 219.602 129.927" stroke="#7CAAD8" stroke-width="2"/>
<path d="M219.602 129.927C219.972 130.861 219.536 131.771 218.294 132.655" stroke="#89B6E5" stroke-width="2"/>
<path d="M218.294 132.655C210.349 127.759 201.58 121.361 191.987 113.459C187.434 109.711 181.809 106.738 175.111 104.54" stroke="#7CAAD8" stroke-width="2"/>
<path d="M263.439 100.955C261.243 96.8328 258.587 93.1826 255.468 90.0049" stroke="#C0D6EF" stroke-width="2"/>
<path d="M253.483 88.171C250.994 85.938 248.084 84.0081 244.753 82.3813" stroke="#C3D5E7" stroke-width="2"/>
<path d="M238.752 121.485L231.77 120.644" stroke="#99C2EC" stroke-width="2"/>
<path d="M231.58 120.583C229.643 119.547 227.588 118.774 225.412 118.264" stroke="#A5C7F4" stroke-width="2"/>
<path d="M126.825 8.19169C124.671 7.04487 122.196 6.43862 119.403 6.37294C114.87 6.2719 110.819 6.89078 107.249 8.22958C103.563 9.6189 100.886 12.4531 99.2183 16.7322C99.0246 17.2227 98.9719 17.758 99.0662 18.2782C99.2639 19.4098 99.6594 20.5036 100.253 21.5595C100.78 22.4992 101.591 23.2696 102.686 23.8708C105.901 25.6239 109.31 26.6924 112.915 27.0764C116.277 27.43 119.078 27.4578 121.319 27.1597C124.26 26.7657 126.899 25.5961 129.236 23.6511C130.271 22.7973 131.029 21.8753 131.51 20.8851C132.027 19.8191 132.365 18.6445 132.522 17.3612C132.801 15.0777 132.357 13.1629 131.191 11.617C130.258 10.3893 128.803 9.24758 126.825 8.19169Z" stroke="#A0C2F4" stroke-width="2"/>
<path d="M93.5144 22.8479C91.5978 22.3932 89.6382 22.2947 87.6355 22.5524C85.8761 22.7747 84.312 23.6487 82.943 25.1744C81.0265 27.3165 79.5841 29.5369 78.6156 31.8356C78.0731 33.1188 77.9895 34.3541 78.3647 35.5413C79.0796 37.845 80.517 39.4541 82.6769 40.3686C84.2588 41.0455 85.8178 41.1365 87.3541 40.6414C88.8752 40.1564 90.2568 39.2318 91.499 37.8678C93.9022 35.2407 95.55 32.5252 96.4424 29.7213C97.0305 27.8773 97.0052 26.2707 96.3663 24.9016C95.8796 23.8659 94.9289 23.1814 93.5144 22.8479Z" stroke="#A0C2F4" stroke-width="2"/>
<path d="M44.5973 59.3138C40.9721 58.5964 37.6207 59.43 34.5431 61.8146C31.5112 64.1588 30.1853 67.1294 30.5656 70.7265C30.601 71.0706 30.7162 71.4021 30.9022 71.6952C31.0883 71.9884 31.34 72.2352 31.6379 72.4164C36.4444 75.3617 41.2763 75.4148 46.1336 72.5755C46.9093 72.1208 47.4695 71.4792 47.8143 70.6507C48.0932 69.9687 48.4734 69.226 48.9551 68.4227C49.4773 67.5639 49.7739 66.8086 49.8449 66.1569C50.0477 64.3179 49.6168 62.7518 48.552 61.4584C47.6546 60.3773 46.3364 59.6624 44.5973 59.3138Z" stroke="#A0C2F4" stroke-width="2"/>
<path d="M152.884 87.3913C153.474 87.3462 154.047 87.173 154.573 86.8818C155.098 86.5906 155.565 86.187 155.946 85.694C156.327 85.2011 156.616 84.6285 156.795 84.0089C156.974 83.3894 157.04 82.7349 156.99 82.083C156.888 80.7665 156.318 79.5401 155.404 78.6737C154.49 77.8073 153.308 77.3718 152.117 77.4631C151.528 77.5083 150.954 77.6814 150.429 77.9727C149.903 78.2639 149.437 78.6675 149.055 79.1604C148.674 79.6533 148.386 80.2259 148.207 80.8455C148.028 81.4651 147.961 82.1195 148.012 82.7714C148.113 84.088 148.684 85.3144 149.598 86.1808C150.511 87.0472 151.694 87.4826 152.884 87.3913Z" stroke="#52688F" stroke-width="2"/>
<path d="M98.1104 99.8858C99.2337 99.4107 100.106 98.4729 100.534 97.2788C100.963 96.0846 100.913 94.732 100.396 93.5183C100.14 92.9174 99.7774 92.3687 99.328 91.9035C98.8787 91.4383 98.3518 91.0658 97.7775 90.8072C97.2032 90.5487 96.5927 90.4091 95.9808 90.3964C95.369 90.3838 94.7678 90.4984 94.2116 90.7337C93.0883 91.2088 92.2164 92.1465 91.7877 93.3407C91.3589 94.5348 91.4085 95.8875 91.9255 97.1011C92.1815 97.7021 92.5446 98.2508 92.9939 98.7159C93.4433 99.1811 93.9702 99.5536 94.5445 99.8122C95.1188 100.071 95.7293 100.21 96.3411 100.223C96.953 100.236 97.5542 100.121 98.1104 99.8858Z" stroke="#52688F" stroke-width="2"/>
<path d="M131.256 113.383C132.031 114.134 133.185 114.434 134.464 114.216C135.743 113.998 137.042 113.281 138.076 112.222C139.109 111.163 139.792 109.849 139.975 108.569C140.158 107.289 139.825 106.148 139.05 105.397C138.275 104.646 137.121 104.346 135.842 104.564C134.563 104.782 133.264 105.499 132.231 106.558C131.197 107.617 130.514 108.931 130.331 110.211C130.148 111.491 130.481 112.632 131.256 113.383Z" stroke="#6E8AB2" stroke-width="2"/>
<path d="M101.006 116.589C94.8909 113.391 90.4292 114.745 87.6203 120.651C87.5127 120.871 87.4937 121.123 87.567 121.356C88.3681 123.948 89.9272 125.443 92.2443 125.842C93.8819 126.12 95.5602 125.842 97.279 125.009C98.8811 124.236 100.235 123.099 101.34 121.598C102.025 120.669 102.215 119.646 101.911 118.529C101.775 118.027 101.615 117.572 101.453 117.225C101.291 116.878 101.135 116.656 101.006 116.589Z" stroke="#BEB9F2" stroke-width="2"/>
<path d="M124.726 1.28801C124.802 2.77837 125.492 3.58923 126.795 3.72059C127.779 3.81657 128.296 3.86962 128.346 3.87972C133.949 5.11243 139.128 7.2621 143.884 10.3287C144.482 10.7177 146.513 11.9858 149.976 14.1329C152.029 15.4111 153.936 16.8813 155.695 18.5434C156.44 19.2456 157.731 20.3268 159.566 21.7868C161.259 23.1357 162.497 24.6438 163.277 26.311C164.16 28.2055 165.217 29.9965 166.449 31.6839C167.975 33.7704 169.177 36.0236 170.054 38.4436C170.064 38.4739 170.188 39.0852 170.426 40.2775C170.619 41.2323 171.182 42.1669 172.115 43.0814C173.098 44.0362 174.115 44.4656 175.164 44.3696C175.385 44.3502 175.617 44.2348 175.818 44.0438C177.446 42.5332 179.314 41.4142 181.424 40.6867C183.746 39.8834 185.809 38.6608 187.614 37.0189C188.481 36.2257 189.556 35.6826 190.839 35.3896C192.603 34.9804 193.511 34.7682 193.562 34.753C198.206 33.4041 202.962 32.9924 207.829 33.5178C209.771 33.7249 211.492 34.2604 212.993 35.1243C219.817 39.0296 225.438 44.261 229.854 50.8186C231.704 53.567 232.767 55.2215 233.04 55.7823C233.907 57.5859 234.273 59.5638 234.136 61.716C231.499 63.8277 229.491 65.7627 228.112 67.5208C226.348 69.7589 225.346 72.3001 225.108 75.1444C224.789 78.9537 225.194 82.6417 226.325 86.2085C226.883 87.9767 227.806 89.4797 229.093 90.7175C232.343 93.8548 236.278 95.8529 240.897 96.7118C240.922 99.2782 240.605 101.804 239.946 104.29C239.069 103.724 238.412 103.795 237.976 104.502C237.952 104.542 237.92 104.577 237.882 104.605C237.845 104.632 237.803 104.652 237.758 104.663C237.714 104.674 237.669 104.675 237.625 104.667C237.581 104.659 237.54 104.641 237.505 104.616C236.521 103.913 235.434 103.532 234.242 103.471C232.28 103.375 231.271 103.322 231.215 103.312C227.854 102.762 224.49 102.213 221.123 101.668C219.348 101.38 217.876 100.935 216.704 100.334C216.661 100.311 216.623 100.28 216.592 100.242C216.561 100.204 216.538 100.16 216.525 100.113C216.511 100.066 216.508 100.016 216.514 99.9666C216.52 99.9174 216.535 99.8697 216.56 99.8264C219.531 94.7743 220.352 89.7702 219.024 84.8141C217.838 80.3834 215.196 76.4883 211.099 73.1286C204.635 67.834 196.741 66.5281 187.416 69.2107C176.754 72.2774 167.853 78.0115 160.714 86.4131C160.639 86.5 160.585 86.6049 160.558 86.7193C160.53 86.8337 160.529 86.9546 160.555 87.0724C160.97 89.0579 161.087 91.0408 160.905 93.0212C160.869 93.4355 161.024 93.5239 161.368 93.2864C163.914 91.5687 166.355 89.7197 168.692 87.7393C171.734 85.1627 174.034 83.4273 175.59 82.5331C179.555 80.2597 183.784 78.5647 188.276 77.4482C193.929 76.0437 199.286 76.3013 204.346 78.2211C206.343 78.9789 207.986 80.2041 209.274 81.8965C210.476 83.4677 211.112 85.3143 211.183 87.4361C211.294 90.7503 210.283 93.5845 208.148 95.9388C205.847 98.4749 202.771 99.3237 198.923 98.485C198.67 98.4306 198.443 98.3067 198.269 98.1289C197.017 96.8355 196.226 95.2972 195.896 93.5138C195.623 92.0335 196.221 91.0105 197.691 90.4446C200.738 89.2726 202.021 90.2956 201.539 93.5138C201.521 93.6335 201.534 93.7558 201.577 93.8689C201.62 93.9821 201.692 94.0824 201.786 94.1601C201.88 94.2377 201.993 94.2902 202.114 94.3124C202.234 94.3345 202.359 94.3257 202.475 94.2868C203.301 93.9988 203.801 93.438 203.973 92.6044C204.252 91.2858 204.391 89.9394 204.391 88.5653C204.391 88.3547 204.349 88.1467 204.266 87.9539C204.184 87.7611 204.064 87.5876 203.912 87.4437C202.944 86.5091 201.955 85.7588 200.946 85.193C199.882 84.5969 198.708 84.4024 197.425 84.6095C193.323 85.2764 190.621 87.6079 189.318 91.6041C189.252 91.8011 188.991 92.5564 188.534 93.87C188.19 94.8703 188.01 95.8782 187.994 96.8936C187.994 96.9708 187.977 97.0469 187.945 97.1171C187.913 97.1872 187.866 97.2498 187.808 97.3007C187.75 97.3515 187.681 97.3895 187.607 97.412C187.533 97.4346 187.455 97.4413 187.378 97.4317C185.533 97.2144 184.042 97.2902 182.907 97.659C182.354 94.8753 180.706 93.3016 177.963 92.9379C172.934 92.276 169.501 94.2388 167.666 98.826C167.661 100.498 166.974 101.509 165.605 101.857C163.759 102.327 162.717 103.411 162.479 105.108C158.844 105.856 154.99 107.157 150.919 109.011C150.706 109.107 150.607 109.198 150.622 109.284C150.626 109.308 150.639 109.33 150.661 109.347C150.682 109.365 150.711 109.377 150.746 109.383C150.781 109.39 150.821 109.391 150.862 109.385C150.904 109.38 150.947 109.368 150.987 109.352C156.483 107.281 162.058 107.104 167.711 108.822C173.476 110.57 178.716 113.315 183.431 117.059C186.747 119.696 191.374 124.054 197.311 130.131C198.67 131.526 201.357 133.784 205.373 136.906C205.302 137.376 205.122 137.79 204.833 138.149C204.695 138.32 204.473 138.441 204.209 138.49C192.963 140.435 181.756 140.266 170.586 137.982C170.478 137.958 170.365 137.97 170.263 138.015C170.162 138.06 170.078 138.136 170.023 138.232C167.904 141.87 165.592 144.444 163.087 145.954C149.864 153.906 136.618 153.987 123.35 146.197C123.258 146.143 123.15 146.124 123.048 146.143C122.945 146.163 122.854 146.22 122.795 146.303C119.732 150.466 115.988 153.57 111.562 155.617C101.376 160.32 91.0375 160.391 80.5473 155.829C78.7728 155.056 76.9678 154.361 75.1324 153.745C75.0249 153.708 74.9087 153.702 74.7961 153.728C74.6835 153.753 74.5789 153.809 74.4935 153.889C71.4616 156.824 67.2914 159.688 61.9829 162.482C52.385 167.534 42.8303 168.024 33.3186 163.952C26.8846 161.194 22.1313 156.268 19.0588 149.175C18.3388 147.508 17.6797 143.671 17.0814 137.664L16.3209 134.443C17.0206 133.888 17.2056 133.145 16.8761 132.215C14.052 124.268 11.991 116.723 10.693 109.579C9.68909 104.022 9.2632 97.9748 9.41531 91.4374C9.58262 84.4807 11.4282 78.0191 14.9519 72.0525C18.4706 66.0961 23.082 61.3699 28.7859 57.8739C32.2032 55.7722 35.8918 54.3298 39.8516 53.5468C43.857 52.7536 47.8751 52.5641 51.9059 52.9784C54.8111 53.2765 57.6251 54.2136 60.3478 55.7899C60.5607 55.9162 60.8243 56.1309 61.1387 56.434C61.8232 57.0908 62.1223 56.8104 62.0361 55.5928C62.0108 55.1887 62.026 54.835 62.0818 54.5319C65.1492 37.9358 73.0688 24.1209 85.8406 13.0871C94.2571 5.82225 104.05 1.74775 115.22 0.863632C118.409 0.611027 121.578 0.752487 124.726 1.28801ZM126.825 8.19168C124.671 7.04486 122.196 6.43861 119.403 6.37293C114.87 6.27189 110.819 6.89077 107.249 8.22957C103.563 9.61889 100.886 12.4531 99.2183 16.7322C99.0245 17.2227 98.9719 17.758 99.0661 18.2782C99.2639 19.4098 99.6594 20.5036 100.253 21.5595C100.78 22.4992 101.591 23.2696 102.686 23.8708C105.901 25.6239 109.31 26.6924 112.915 27.0764C116.277 27.43 119.078 27.4578 121.319 27.1597C124.26 26.7657 126.899 25.5961 129.236 23.6511C130.271 22.7973 131.029 21.8752 131.51 20.885C132.027 19.819 132.365 18.6444 132.522 17.3612C132.801 15.0777 132.357 13.1629 131.191 11.617C130.258 10.3893 128.803 9.24757 126.825 8.19168ZM93.5143 22.8478C91.5978 22.3931 89.6382 22.2946 87.6354 22.5522C85.8761 22.7745 84.3119 23.6485 82.943 25.1743C81.0265 27.3163 79.584 29.5367 78.6156 31.8354C78.0731 33.1187 77.9894 34.3539 78.3646 35.5411C79.0795 37.8449 80.5169 39.454 82.6768 40.3684C84.2587 41.0454 85.8178 41.1363 87.354 40.6412C88.8751 40.1562 90.2567 39.2317 91.4989 37.8676C93.9022 35.2405 95.55 32.525 96.4423 29.7211C97.0305 27.8771 97.0051 26.2706 96.3663 24.9014C95.8795 23.8658 94.9289 23.1812 93.5143 22.8478ZM44.5973 59.3137C40.9721 58.5963 37.6207 59.4299 34.5431 61.8145C31.5111 64.1587 30.1853 67.1293 30.5655 70.7264C30.601 71.0705 30.7162 71.402 30.9022 71.6952C31.0882 71.9883 31.34 72.2351 31.6379 72.4163C36.4444 75.3616 41.2763 75.4147 46.1335 72.5754C46.9093 72.1207 47.4695 71.4791 47.8143 70.6506C48.0931 69.9686 48.4734 69.2259 48.9551 68.4226C49.4773 67.5638 49.7739 66.8085 49.8449 66.1568C50.0477 64.3178 49.6167 62.7517 48.552 61.4583C47.6546 60.3772 46.3363 59.6623 44.5973 59.3137ZM152.884 87.3911C153.474 87.3459 154.047 87.1728 154.573 86.8816C155.098 86.5903 155.565 86.1867 155.946 85.6938C156.327 85.2009 156.616 84.6283 156.795 84.0087C156.974 83.3891 157.04 82.7347 156.99 82.0828C156.888 80.7662 156.318 79.5398 155.404 78.6734C154.49 77.807 153.308 77.3716 152.117 77.4629C151.528 77.5081 150.954 77.6812 150.429 77.9724C149.903 78.2637 149.437 78.6673 149.055 79.1602C148.674 79.6531 148.386 80.2257 148.207 80.8453C148.028 81.4649 147.961 82.1193 148.012 82.7712C148.113 84.0878 148.684 85.3141 149.598 86.1805C150.511 87.047 151.693 87.4824 152.884 87.3911ZM98.1103 99.8858C99.2336 99.4107 100.106 98.473 100.534 97.2789C100.963 96.0847 100.913 94.7321 100.396 93.5184C100.14 92.9175 99.7773 92.3688 99.328 91.9036C98.8786 91.4384 98.3517 91.0659 97.7774 90.8073C97.2031 90.5487 96.5926 90.4092 95.9808 90.3965C95.3689 90.3839 94.7678 90.4985 94.2116 90.7338C93.0883 91.2089 92.2163 92.1466 91.7876 93.3408C91.3589 94.5349 91.4085 95.8876 91.9255 97.1012C92.1815 97.7021 92.5445 98.2509 92.9939 98.716C93.4432 99.1812 93.9701 99.5537 94.5444 99.8123C95.1188 100.071 95.7293 100.21 96.3411 100.223C96.9529 100.236 97.5541 100.121 98.1103 99.8858ZM131.256 113.383C132.031 114.134 133.185 114.434 134.464 114.216C135.743 113.998 137.042 113.281 138.076 112.222C139.109 111.163 139.792 109.849 139.975 108.569C140.158 107.289 139.825 106.148 139.05 105.397C138.275 104.646 137.121 104.346 135.842 104.564C134.563 104.782 133.264 105.499 132.231 106.558C131.197 107.617 130.514 108.931 130.331 110.211C130.148 111.491 130.481 112.632 131.256 113.383ZM101.005 116.589C94.8909 113.391 90.4291 114.745 87.6202 120.651C87.5127 120.871 87.4936 121.123 87.567 121.356C88.3681 123.948 89.9272 125.443 92.2442 125.842C93.8819 126.12 95.5601 125.842 97.2789 125.008C98.8811 124.236 100.235 123.099 101.34 121.598C102.025 120.669 102.215 119.646 101.911 118.529C101.774 118.027 101.615 117.571 101.453 117.225C101.291 116.878 101.135 116.656 101.005 116.589Z" fill="#99B8EF"/>
<path d="M124.726 1.28809C128.052 1.55079 131.553 2.28334 135.229 3.48574C147.073 7.35058 156.803 13.9486 164.418 23.2798C169.093 29.0139 172.452 35.6827 174.495 43.2861C174.556 43.5286 174.678 43.5563 174.86 43.3694C183.54 34.5485 193.742 30.6836 205.464 31.7749C210.975 32.2851 215.797 33.7124 219.929 36.0565C225.035 38.9564 229.157 43.1597 232.295 48.6665C234.425 52.4101 235.898 56.1259 236.714 59.8139L234.136 61.7161C234.273 59.5639 233.907 57.586 233.04 55.7824C232.767 55.2216 231.704 53.567 229.854 50.8187C225.438 44.2611 219.817 39.0297 212.993 35.1244C211.492 34.2605 209.771 33.725 207.829 33.5178C202.962 32.9924 198.206 33.4042 193.562 34.7531C193.511 34.7682 192.603 34.9804 190.839 35.3896C189.556 35.6827 188.481 36.2258 187.614 37.0189C185.809 38.6609 183.746 39.8835 181.424 40.6868C179.314 41.4143 177.446 42.5333 175.818 44.0439C175.617 44.2348 175.385 44.3503 175.164 44.3697C174.115 44.4657 173.098 44.0363 172.115 43.0814C171.182 42.167 170.619 41.2324 170.426 40.2775C170.188 39.0852 170.064 38.4739 170.054 38.4436C169.177 36.0237 167.975 33.7705 166.449 31.6839C165.217 29.9965 164.16 28.2056 163.277 26.3111C162.497 24.6439 161.259 23.1358 159.566 21.7869C157.731 20.3269 156.44 19.2457 155.695 18.5435C153.936 16.8813 152.029 15.4112 149.976 14.133C146.513 11.9859 144.482 10.7178 143.884 10.3288C139.128 7.26217 133.949 5.11251 128.346 3.8798C128.296 3.8697 127.779 3.81665 126.795 3.72066C125.492 3.58931 124.802 2.77845 124.726 1.28809Z" fill="#9CB5DB"/>
<path d="M131.191 11.617C132.357 13.1629 132.801 15.0777 132.522 17.3612C132.365 18.6445 132.027 19.8191 131.51 20.8851C131.029 21.8753 130.271 22.7973 129.236 23.6511C126.899 25.5961 124.26 26.7657 121.319 27.1597C119.078 27.4578 116.277 27.43 112.915 27.0764C109.31 26.6924 105.901 25.6239 102.686 23.8708C101.591 23.2696 100.78 22.4992 100.253 21.5595C99.6594 20.5036 99.2639 19.4098 99.0661 18.2782C98.9718 17.758 99.0245 17.2227 99.2182 16.7322C100.886 12.4531 103.563 9.6189 107.249 8.22958C110.819 6.89078 114.87 6.2719 119.403 6.37294C122.196 6.43862 124.671 7.04487 126.825 8.19169C128.803 9.24758 130.258 10.3893 131.191 11.617Z" fill="#A6CCF9"/>
<path d="M96.3663 24.9016C97.0051 26.2707 97.0305 27.8773 96.4423 29.7213C95.55 32.5252 93.9022 35.2407 91.4989 37.8678C90.2567 39.2318 88.8751 40.1564 87.354 40.6414C85.8178 41.1365 84.2587 41.0455 82.6768 40.3686C80.5169 39.4541 79.0795 37.845 78.3646 35.5413C77.9894 34.3541 78.0731 33.1188 78.6156 31.8356C79.584 29.5369 81.0265 27.3165 82.943 25.1744C84.3119 23.6487 85.8761 22.7747 87.6354 22.5524C89.6381 22.2947 91.5978 22.3932 93.5143 22.8479C94.9289 23.1814 95.8795 23.8659 96.3663 24.9016Z" fill="#A6CCF9"/>
<path d="M268.557 118.37C264.1 120.164 259.634 121.364 255.157 121.97C252.485 114.589 247.508 109.393 240.227 106.382C237.074 105.073 233.494 104.639 229.489 105.078C223.136 105.77 218.162 108.749 214.567 114.013C206.009 109.986 197.975 106.96 190.466 104.934C186.522 103.873 181.925 103.247 176.678 103.055C176.414 103.045 176.169 103.124 175.993 103.275C175.623 103.608 175.329 104.03 175.111 104.54C170.949 103.909 166.738 104.098 162.479 105.109C162.717 103.411 163.759 102.327 165.605 101.858C166.974 101.509 167.661 100.499 167.666 98.8264C169.917 99.9934 172.224 100.281 174.586 99.6903C176.543 99.1952 177.55 98.9426 177.606 98.9324C179.395 98.594 181.162 98.1696 182.907 97.6593C184.042 97.2905 185.533 97.2147 187.378 97.432C187.455 97.4416 187.533 97.4349 187.607 97.4123C187.681 97.3898 187.75 97.3518 187.808 97.3009C187.866 97.2501 187.913 97.1875 187.945 97.1174C187.977 97.0472 187.994 96.9711 187.994 96.8939C188.01 95.8785 188.19 94.8706 188.534 93.8703C188.991 92.5567 189.252 91.8014 189.318 91.6044C190.621 87.6082 193.323 85.2767 197.425 84.6098C198.708 84.4027 199.882 84.5972 200.946 85.1933C201.955 85.7591 202.944 86.5094 203.912 87.444C204.064 87.5879 204.184 87.7614 204.266 87.9542C204.349 88.147 204.391 88.355 204.391 88.5656C204.391 89.9397 204.252 91.2861 203.973 92.6047C203.801 93.4383 203.301 93.9991 202.475 94.2871C202.359 94.326 202.234 94.3348 202.114 94.3127C201.993 94.2905 201.88 94.238 201.786 94.1604C201.692 94.0827 201.62 93.9824 201.577 93.8693C201.534 93.7561 201.521 93.6338 201.539 93.5141C202.021 90.2959 200.738 89.2729 197.691 90.445C196.221 91.0108 195.623 92.0338 195.896 93.5141C196.226 95.2975 197.017 96.8358 198.269 98.1292C198.443 98.307 198.67 98.4309 198.923 98.4853C202.772 99.324 205.847 98.4752 208.148 95.9391C210.283 93.5848 211.294 90.7506 211.183 87.4364C211.112 85.3146 210.476 83.468 209.274 81.8968C207.986 80.2044 206.343 78.9792 204.346 78.2214C199.286 76.3016 193.929 76.044 188.276 77.4485C183.784 78.565 179.555 80.26 175.59 82.5334C174.034 83.4276 171.734 85.163 168.692 87.7396C166.355 89.72 163.914 91.569 161.368 93.2868C161.024 93.5242 160.869 93.4358 160.905 93.0215C161.087 91.0411 160.97 89.0582 160.555 87.0727C160.529 86.9549 160.53 86.8341 160.558 86.7196C160.585 86.6052 160.639 86.5003 160.714 86.4134C167.853 78.0118 176.754 72.2777 187.416 69.211C196.741 66.5284 204.635 67.8343 211.099 73.1289C215.196 76.4886 217.838 80.3837 219.024 84.8144C220.352 89.7705 219.531 94.7746 216.56 99.8267C216.535 99.87 216.52 99.9177 216.514 99.9669C216.508 100.016 216.511 100.066 216.525 100.113C216.538 100.161 216.561 100.205 216.592 100.243C216.623 100.281 216.661 100.312 216.704 100.334C217.876 100.936 219.348 101.38 221.123 101.668C224.49 102.214 227.854 102.762 231.215 103.313C231.271 103.323 232.28 103.376 234.242 103.472C235.434 103.532 236.521 103.914 237.505 104.616C237.54 104.642 237.581 104.659 237.625 104.667C237.669 104.675 237.714 104.674 237.758 104.663C237.803 104.653 237.845 104.633 237.882 104.605C237.92 104.577 237.952 104.542 237.976 104.502C238.412 103.795 239.069 103.724 239.946 104.29C241.868 105.493 244.403 106.008 247.551 105.836C253.823 105.493 259.119 103.866 263.439 100.956C267.201 98.2176 269.434 94.6003 270.139 90.1039C270.646 86.8807 270.073 83.9934 268.42 81.4421C267.244 79.6335 265.733 78.1608 263.887 77.0241C262.037 75.8874 260.135 75.079 258.183 74.5991C255.349 73.9019 252.454 74.1621 249.498 75.3796C246.253 76.7184 244.671 79.0525 244.753 82.3818C244.606 84.4532 245.044 86.2467 246.068 87.7623C246.93 89.0405 248.013 89.8033 249.316 90.0509C250.913 90.349 252.302 89.7225 253.483 88.1715C253.762 88.0957 253.99 87.9644 254.168 87.7774C254.3 87.636 254.396 87.4036 254.457 87.0803C254.568 86.4589 254.733 85.9739 254.951 85.6253C255.544 84.6906 255.806 84.7715 255.735 85.8678L255.468 90.0054C254.718 92.0414 253.205 93.6404 250.928 94.8024C247.485 96.5605 244.142 97.1971 240.897 96.7121C236.278 95.8532 232.343 93.8551 229.093 90.7178C227.806 89.48 226.883 87.977 226.325 86.2088C225.194 82.642 224.789 78.954 225.108 75.1447C225.346 72.3004 226.348 69.7592 228.112 67.5211C229.491 65.763 231.499 63.828 234.136 61.7163L236.714 59.8142C242.803 56.5455 249.775 55.53 257.628 56.7678C268.042 58.4097 276.71 62.9717 283.631 70.4539C285.74 72.7374 287.185 75.3746 287.966 78.3654C288.589 80.7601 288.916 83.6777 288.947 87.1182C289.013 93.989 286.891 100.37 282.581 106.26C280.675 108.867 279.28 110.694 278.398 111.739C276.218 114.321 273.495 116.107 270.23 117.097C269.313 117.375 268.755 117.799 268.557 118.37Z" fill="#B4D3FB"/>
<path d="M48.552 61.4584C49.6167 62.7518 50.0477 64.3179 49.8449 66.1569C49.7739 66.8086 49.4773 67.5639 48.9551 68.4227C48.4734 69.226 48.0931 69.9687 47.8143 70.6507C47.4695 71.4792 46.9093 72.1208 46.1335 72.5755C41.2763 75.4148 36.4444 75.3617 31.6379 72.4164C31.34 72.2352 31.0882 71.9884 30.9022 71.6952C30.7162 71.4021 30.601 71.0706 30.5655 70.7265C30.1853 67.1294 31.5111 64.1588 34.5431 61.8146C37.6207 59.43 40.9721 58.5964 44.5973 59.3138C46.3363 59.6624 47.6546 60.3773 48.552 61.4584Z" fill="#A6CCF9"/>
<path d="M148.012 82.7712C148.223 85.5128 150.405 87.5812 152.884 87.3911C155.363 87.2011 157.201 84.8244 156.99 82.0828C156.778 79.3412 154.597 77.2727 152.117 77.4628C149.638 77.6529 147.8 80.0295 148.012 82.7712Z" fill="#0A182F"/>
<path d="M244.753 82.3818C248.084 84.0086 250.994 85.9385 253.483 88.1715C252.302 89.7225 250.913 90.349 249.316 90.0509C248.013 89.8033 246.93 89.0405 246.068 87.7623C245.044 86.2467 244.606 84.4532 244.753 82.3818Z" fill="#86AACE"/>
<path d="M255.468 90.0054C258.587 93.1831 261.243 96.8333 263.439 100.956C259.119 103.866 253.823 105.493 247.551 105.836C244.403 106.008 241.868 105.493 239.946 104.29C240.605 101.805 240.922 99.2785 240.897 96.712C244.142 97.197 247.485 96.5605 250.928 94.8023C253.205 93.6403 254.718 92.0414 255.468 90.0054Z" fill="#81ADDF"/>
<path d="M91.9255 97.1013C93.0022 99.6286 95.7712 100.875 98.1103 99.8859C100.449 98.8965 101.473 96.0457 100.396 93.5184C99.3198 90.9912 96.5507 89.7444 94.2116 90.7338C91.8724 91.7232 90.8489 94.574 91.9255 97.1013Z" fill="#0A182F"/>
<path d="M182.907 97.6593C181.162 98.1696 179.395 98.594 177.606 98.9325C177.55 98.9426 176.544 99.1952 174.586 99.6903C172.224 100.281 169.917 99.9934 167.666 98.8264C169.501 94.2391 172.934 92.2763 177.963 92.9382C180.706 93.3019 182.354 94.8756 182.907 97.6593Z" fill="#D7BFF6"/>
<path d="M214.567 114.013C213.264 116.761 212.724 119.277 212.947 121.56C213.323 125.43 215.541 128.219 219.602 129.927C219.972 130.861 219.536 131.771 218.294 132.655C210.349 127.759 201.58 121.361 191.987 113.459C187.434 109.711 181.809 106.738 175.111 104.54C175.329 104.03 175.623 103.608 175.993 103.274C176.169 103.123 176.414 103.045 176.678 103.055C181.926 103.247 186.522 103.873 190.466 104.934C197.975 106.96 206.009 109.986 214.567 114.013Z" fill="#95BBEC"/>
<path d="M175.111 104.54C181.809 106.738 187.434 109.711 191.987 113.46C201.58 121.361 210.349 127.759 218.294 132.655C222.867 133.721 225.902 134.254 227.397 134.254C236.052 134.259 239.837 130.003 238.752 121.485C236.369 117.281 232.967 115.488 228.546 116.104C227.217 116.291 226.173 117.011 225.412 118.264C224.809 118.795 224.583 119.514 224.736 120.424C224.883 121.313 225.23 122.384 225.777 123.637C225.818 123.73 225.891 123.809 225.986 123.862C226.082 123.915 226.195 123.939 226.31 123.933L229.443 123.789C230.361 123.743 230.741 123.112 230.584 121.894C230.478 121.086 230.81 120.649 231.58 120.583L231.77 120.644C232.627 121.012 233.008 121.634 232.911 122.508C232.805 123.478 232.554 124.46 232.158 125.456C231.819 126.315 231.225 127.093 230.379 127.79C228.538 129.305 227.291 130.134 226.637 130.275C224.269 130.791 221.924 130.675 219.602 129.927C215.541 128.219 213.323 125.43 212.947 121.561C212.724 119.277 213.264 116.761 214.567 114.013C218.162 108.748 223.136 105.77 229.489 105.078C233.494 104.639 237.074 105.073 240.227 106.382C247.508 109.393 252.485 114.589 255.157 121.97C255.557 124.455 255.494 127.161 254.966 130.086C254.546 132.43 253.707 134.484 252.449 136.247C251.516 137.55 249.995 139.101 247.886 140.9C241.411 146.417 233.9 148.165 225.352 146.144C218.73 144.578 212.07 141.499 205.373 136.906C201.357 133.784 198.67 131.526 197.311 130.131C191.374 124.054 186.747 119.696 183.431 117.059C178.716 113.316 173.476 110.57 167.711 108.822C162.058 107.104 156.483 107.281 150.987 109.352C150.947 109.369 150.904 109.38 150.862 109.385C150.821 109.391 150.781 109.39 150.746 109.384C150.711 109.377 150.682 109.365 150.661 109.348C150.639 109.33 150.626 109.309 150.622 109.284C150.607 109.198 150.706 109.107 150.919 109.011C154.99 107.157 158.844 105.856 162.479 105.108C166.738 104.098 170.949 103.909 175.111 104.54Z" fill="#6399C4"/>
<path d="M132.231 106.558C130.078 108.763 129.642 111.819 131.256 113.383C132.87 114.947 135.923 114.427 138.076 112.222C140.228 110.016 140.664 106.961 139.05 105.397C137.436 103.833 134.383 104.353 132.231 106.558Z" fill="#425B75"/>
<path d="M101.006 116.589C101.135 116.656 101.291 116.878 101.453 117.225C101.615 117.572 101.774 118.027 101.911 118.529C102.215 119.646 102.025 120.669 101.34 121.598C100.235 123.099 98.8811 124.236 97.2789 125.009C95.5601 125.842 93.8819 126.12 92.2442 125.842C89.9272 125.443 88.3681 123.948 87.567 121.356C87.4936 121.123 87.5127 120.871 87.6202 120.651C90.4291 114.745 94.8909 113.391 101.006 116.589Z" fill="#E3BAF5"/>
<path d="M238.752 121.485L231.77 120.644L231.58 120.583C229.643 119.548 227.588 118.775 225.412 118.264C226.173 117.011 227.217 116.291 228.546 116.105C232.967 115.488 236.369 117.282 238.752 121.485Z" fill="#B4D3FB"/>
<path d="M225.412 118.264C227.587 118.774 229.643 119.547 231.58 120.583C230.81 120.649 230.477 121.086 230.584 121.894C230.741 123.112 230.361 123.743 229.443 123.789L226.31 123.933C226.195 123.939 226.082 123.915 225.986 123.862C225.891 123.809 225.818 123.73 225.777 123.637C225.23 122.384 224.883 121.313 224.736 120.424C224.583 119.515 224.809 118.795 225.412 118.264Z" fill="#95BBEC"/>
<path d="M268.557 118.37C268.876 133.435 262.848 145.01 250.472 153.093C238.78 160.737 225.745 162.399 211.366 158.079C211.108 158.003 210.834 158.004 210.577 158.083C210.32 158.161 210.091 158.313 209.92 158.519C202.239 167.719 192.781 174.042 181.545 177.487C181.586 175.689 182.405 174.633 184.002 174.319C185.416 174.047 186.296 173.827 186.641 173.66C188.015 173.008 189.331 172.256 190.588 171.402C190.907 171.185 192.177 170.374 194.398 168.969C195.858 168.045 197.098 166.956 198.117 165.703C198.908 164.733 199.75 164.006 200.642 163.521C200.845 163.414 201.015 163.293 201.152 163.157C202.896 161.469 202.721 161.237 200.627 162.46C200.439 162.571 200.252 162.664 200.064 162.74C196.652 164.15 194.687 165.089 194.17 165.559C192.791 166.827 191.305 167.949 189.713 168.924C189.272 169.202 188.352 169.548 186.953 169.962C185.979 170.255 185.089 170.745 184.283 171.432C183.903 171.761 182.881 172.235 181.218 172.857C180.29 173.2 179.205 173.493 177.963 173.736C175.6 174.196 173.253 174.729 170.921 175.335C167.534 176.219 164.114 176.355 160.661 175.744C158.577 175.375 155.87 175.1 152.539 174.918C150.84 174.822 149.187 174.554 147.58 174.115C145.958 173.675 144.33 173.256 142.698 172.857C142.074 172.705 141.075 172.329 139.701 171.728C138.702 171.298 137.653 171.023 136.553 170.902C136.438 170.89 136.321 170.903 136.209 170.941C136.098 170.979 135.995 171.04 135.906 171.121C134.943 172.036 133.962 172.925 132.963 173.789C132.943 173.804 132.461 174.145 131.518 174.812C130.889 175.262 130.195 175.936 129.434 176.835C128.445 178.002 125.467 180.402 120.498 184.035C118.982 185.141 117.111 185.896 114.885 186.3C112.279 186.77 110.659 187.086 110.025 187.248C108.413 187.647 106.786 187.98 105.143 188.248C105.035 188.267 104.855 188.242 104.621 188.175C104.388 188.109 104.109 188.003 103.812 187.869C101.601 186.874 99.3095 186.308 96.9367 186.172C95.0405 186.06 93.5701 185.851 92.5257 185.543C90.5381 184.967 88.5582 184.36 86.5859 183.724C86.2361 183.608 85.795 183.56 85.2626 183.58C84.7911 183.6 84.3322 183.552 83.8861 183.436C83.6376 183.375 83.0774 183.032 82.2053 182.405C81.0949 181.617 79.8325 181.653 78.4179 182.511C78.0317 182.748 77.5806 182.862 77.125 182.837C75.2997 182.741 73.7685 183.054 72.5314 183.777C71.0053 184.676 70.2245 185.133 70.189 185.149C68.4499 185.866 66.6601 186.429 64.8197 186.838C64.6169 186.884 64.4064 187.003 64.1884 187.195C63.7575 187.568 63.0223 187.983 61.9829 188.437C56.4818 190.847 51.0922 191.971 45.8141 191.81C45.6316 191.805 44.1156 191.827 41.2662 191.878C39.7046 191.903 38.1835 191.673 36.703 191.188C34.0817 190.324 32.7407 189.885 32.6798 189.87C29.8456 189.137 27.9367 188.485 26.9531 187.915C25.8833 187.298 24.1873 186.778 21.8652 186.353C19.0715 185.843 15.8038 184.232 12.062 181.519C10.328 180.256 8.9286 178.717 7.86386 176.904C7.57993 176.419 7.00447 175.643 6.13747 174.577C5.52397 173.824 5.0778 172.935 4.79894 171.91C4.32234 170.141 3.56182 167.994 2.51736 165.468C2.04584 164.326 1.85063 162.528 1.93176 160.073C1.94163 159.824 2.01767 159.581 2.15231 159.368C3.27789 157.584 4.20826 155.713 4.94344 153.752C5.4099 152.505 6.02339 151.396 6.78391 150.426C8.52298 148.218 10.0567 145.874 11.3851 143.393C11.8769 142.479 12.5512 141.691 13.4081 141.029C14.7213 140.003 15.9457 138.882 17.0814 137.664C17.6797 143.671 18.3388 147.508 19.0588 149.175C22.1313 156.268 26.8846 161.194 33.3187 163.953C42.8303 168.025 52.3851 167.534 61.9829 162.482C67.2914 159.689 71.4616 156.824 74.4936 153.889C74.579 153.809 74.6836 153.753 74.7961 153.728C74.9087 153.702 75.0249 153.708 75.1324 153.745C76.9678 154.361 78.7728 155.056 80.5474 155.829C91.0376 160.391 101.376 160.32 111.562 155.617C115.988 153.571 119.732 150.466 122.795 146.303C122.855 146.22 122.945 146.163 123.048 146.143C123.15 146.124 123.258 146.143 123.35 146.197C136.618 153.987 149.864 153.906 163.087 145.954C165.592 144.444 167.904 141.87 170.023 138.232C170.078 138.136 170.162 138.06 170.263 138.015C170.365 137.97 170.478 137.958 170.586 137.982C181.756 140.266 192.963 140.435 204.209 138.49C204.473 138.441 204.695 138.32 204.833 138.149C205.122 137.79 205.302 137.376 205.373 136.906C212.07 141.499 218.73 144.578 225.352 146.144C233.9 148.165 241.411 146.417 247.886 140.9C249.995 139.101 251.516 137.55 252.449 136.247C253.707 134.484 254.546 132.43 254.966 130.086C255.494 127.161 255.557 124.455 255.157 121.97C259.634 121.363 264.1 120.164 268.557 118.37Z" fill="#81ADDF"/>
<path d="M231.77 120.644L238.752 121.485C239.837 130.003 236.052 134.259 227.397 134.254C225.902 134.254 222.867 133.721 218.294 132.655C219.536 131.771 219.972 130.861 219.602 129.927C221.924 130.674 224.269 130.791 226.637 130.275C227.291 130.134 228.538 129.305 230.379 127.79C231.225 127.093 231.819 126.315 232.158 125.456C232.554 124.46 232.805 123.478 232.911 122.508C233.008 121.634 232.627 121.012 231.77 120.644Z" fill="#7DB1DD"/>
<path d="M16.3209 134.443L17.0814 137.664C15.9457 138.882 14.7213 140.003 13.4081 141.029C12.5512 141.691 11.8769 142.479 11.3851 143.393C10.0567 145.874 8.52299 148.218 6.78392 150.426C6.0234 151.396 5.4099 152.505 4.94345 153.752C4.20827 155.713 3.2779 157.584 2.15232 159.368C2.01768 159.581 1.94163 159.824 1.93177 160.073C1.85064 162.528 2.04585 164.326 2.51737 165.468C3.56183 167.994 4.32235 170.141 4.79895 171.91C5.07781 172.935 5.52398 173.824 6.13748 174.577C7.00448 175.643 7.57994 176.419 7.86387 176.904C8.9286 178.717 10.328 180.256 12.062 181.519C15.8038 184.232 19.0715 185.843 21.8652 186.354C24.1873 186.778 25.8833 187.298 26.9531 187.915C27.9367 188.485 29.8456 189.137 32.6798 189.87C32.7407 189.885 34.0817 190.324 36.703 191.188C38.1835 191.673 39.7046 191.903 41.2662 191.878C44.1156 191.827 45.6316 191.805 45.8141 191.81C51.0922 191.971 56.4818 190.847 61.9829 188.438C63.0223 187.983 63.7575 187.569 64.1884 187.195C64.4065 187.003 64.6169 186.884 64.8197 186.839C66.6602 186.429 68.4499 185.866 70.189 185.149C70.2245 185.133 71.0053 184.676 72.5314 183.777C73.7685 183.055 75.2997 182.741 77.125 182.837C77.5806 182.862 78.0317 182.748 78.4179 182.511C79.8325 181.653 81.0949 181.617 82.2053 182.405C83.0774 183.032 83.6376 183.375 83.8861 183.436C84.3323 183.552 84.7911 183.6 85.2626 183.58C85.795 183.56 86.2361 183.608 86.586 183.724C88.5583 184.36 90.5382 184.967 92.5257 185.543C93.5701 185.851 95.0405 186.061 96.9367 186.172C99.3096 186.308 101.601 186.874 103.812 187.869C104.109 188.003 104.388 188.109 104.621 188.175C104.855 188.242 105.035 188.267 105.143 188.248C106.786 187.98 108.413 187.647 110.025 187.248C110.659 187.086 112.279 186.77 114.885 186.3C117.111 185.896 118.982 185.141 120.498 184.035C125.467 180.402 128.445 178.002 129.434 176.835C130.195 175.936 130.889 175.262 131.518 174.812C132.461 174.145 132.943 173.804 132.963 173.789C133.962 172.925 134.943 172.036 135.906 171.121C135.995 171.04 136.098 170.979 136.209 170.941C136.321 170.903 136.438 170.89 136.553 170.902C137.653 171.023 138.702 171.298 139.701 171.728C141.075 172.329 142.074 172.705 142.698 172.857C144.33 173.256 145.958 173.675 147.58 174.115C149.187 174.554 150.84 174.822 152.539 174.918C155.87 175.1 158.577 175.375 160.661 175.744C164.114 176.355 167.534 176.219 170.921 175.335C173.253 174.729 175.6 174.196 177.963 173.736C179.205 173.493 180.29 173.2 181.218 172.857C182.881 172.235 183.903 171.761 184.283 171.432C185.089 170.745 185.979 170.255 186.953 169.962C188.352 169.548 189.272 169.202 189.713 168.924C191.305 167.949 192.791 166.827 194.17 165.559C194.687 165.089 196.652 164.15 200.064 162.74C200.252 162.664 200.439 162.571 200.627 162.46C202.721 161.237 202.896 161.469 201.152 163.157C201.015 163.293 200.845 163.415 200.642 163.521C199.75 164.006 198.908 164.733 198.117 165.703C197.098 166.956 195.858 168.045 194.398 168.969C192.177 170.374 190.907 171.185 190.588 171.402C189.331 172.256 188.015 173.008 186.641 173.66C186.296 173.827 185.416 174.047 184.002 174.319C182.405 174.633 181.586 175.689 181.545 177.487C165.924 182.312 150.828 181.183 136.256 174.1C136.146 174.045 136.021 174.032 135.903 174.063C135.785 174.094 135.684 174.166 135.617 174.266C130.359 182.107 123.139 187.25 113.957 189.695C102.24 192.813 91.433 190.863 81.5361 183.845C81.3067 183.681 81.0382 183.58 80.7568 183.55C80.4755 183.521 80.191 183.565 79.9313 183.678C73.5024 186.472 67.1393 188.816 60.8421 190.711C57.0953 191.838 53.5259 192.684 50.1339 193.25C46.235 193.901 42.5895 194.25 39.1976 194.295C29.2499 194.422 20.2554 191.57 12.2141 185.74C8.99959 183.406 6.29719 180.521 4.10687 177.085C1.92163 173.645 0.552677 170.028 2.8193e-05 166.234C-1.02415 159.181 0.671825 152.548 5.08795 146.333C6.93856 143.722 10.6829 139.758 16.3209 134.443Z" fill="#86AACE"/>
</g>
<defs>
<clipPath id="clip0_39_296">
<rect width="289" height="194" fill="white" transform="translate(0 0.5)"/>
</clipPath>
</defs>
</svg>
