<svg width="37" height="20" viewBox="0 0 37 20" fill="none" xmlns="http://www.w3.org/2000/svg">
<g clip-path="url(#clip0_0_325)">
<path d="M18.575 0.931843C18.67 0.980451 18.7433 1.06324 18.7806 1.16383C19.0419 1.86683 19.193 2.59561 19.234 3.35016C19.2505 3.6548 19.2153 3.88034 19.1286 4.0268C19.0032 4.24004 18.7964 4.34784 18.5082 4.35018C18.4527 4.35129 18.3976 4.33061 18.3535 4.29218C17.961 3.95591 17.7747 3.56809 17.7947 3.12872C17.845 2.03907 17.9071 1.38352 17.981 1.16208C18.0829 0.859786 18.2809 0.783041 18.575 0.931843Z" fill="#F8DD4A"/>
<path d="M10.7137 3.78779C10.6352 3.78662 10.5819 3.81591 10.5538 3.87567C10.5128 3.96589 10.4905 4.01275 10.487 4.01627C10.3558 4.1885 10.1994 4.33438 10.0178 4.45389C9.72486 4.03326 9.49287 3.58217 9.3218 3.10061C9.27962 2.98227 9.27142 2.88151 9.2972 2.79832C9.35227 2.62491 9.48466 2.6091 9.69439 2.75087C10.1056 3.02621 10.4454 3.37185 10.7137 3.78779Z" fill="#F9E47A"/>
<path d="M26.8089 4.84229C26.6144 4.76261 26.4691 4.65658 26.373 4.52418C26.3145 4.44216 26.2401 4.41639 26.1498 4.44685C26.3561 4.01099 26.6501 3.66652 27.0321 3.41344C27.195 3.30682 27.25 3.34255 27.1973 3.52065L26.8089 4.84229Z" fill="#FAE789"/>
<path d="M10.7137 3.78781C11.0805 4.10534 11.4161 4.45039 11.7208 4.82298C11.9387 5.08895 12.0447 5.34203 12.0389 5.58222C12.0283 5.99934 11.7682 6.1909 11.2586 6.15693C11.2028 6.15348 11.1493 6.12983 11.1074 6.09014C10.6259 5.62733 10.2626 5.08192 10.0178 4.45391C10.1994 4.3344 10.3558 4.18852 10.487 4.01629C10.4905 4.01277 10.5128 3.96591 10.5538 3.87569C10.5819 3.81593 10.6352 3.78664 10.7137 3.78781Z" fill="#F8DD4A"/>
<path d="M26.1498 4.44685C26.2401 4.41639 26.3145 4.44217 26.3731 4.52418C26.4691 4.65658 26.6144 4.76262 26.8089 4.84229C26.6566 5.50546 26.3936 6.11414 26.0198 6.66833C25.8651 6.89798 25.6976 7.03038 25.5172 7.06553C25.2641 7.11474 25.0614 7.0005 24.9091 6.72282C24.8958 6.69907 24.8876 6.67245 24.8852 6.64462C24.8828 6.61679 24.8861 6.58836 24.895 6.56113C25.1504 5.76322 25.5687 5.05846 26.1498 4.44685Z" fill="#F8E065"/>
<path d="M33.1341 6.97587C33.2173 7.0532 33.2261 7.16685 33.1605 7.31682C32.5805 8.63729 31.8113 9.83825 30.8529 10.9197C30.594 11.2103 30.2981 11.2554 29.9654 11.055C29.5728 10.8184 29.4246 10.492 29.5207 10.0761C29.5711 9.85934 29.7293 9.64317 29.9952 9.42758C30.4522 9.05616 30.891 8.66541 31.3116 8.25533C31.7978 7.7808 32.3216 7.34846 32.8828 6.95829C32.9201 6.93185 32.9654 6.91916 33.0112 6.92236C33.057 6.92556 33.1004 6.94446 33.1341 6.97587Z" fill="#F8DD4A"/>
<path d="M30.7633 20.1326C30.7739 19.9498 30.7651 19.7699 30.7369 19.593C30.7182 19.4782 30.6485 19.3171 30.5278 19.1097C30.3708 18.8402 30.2993 18.5485 30.3134 18.2345C30.3263 17.9439 30.311 17.7183 30.2677 17.5578C30.1329 17.0704 30.0093 16.5806 29.8969 16.0885C29.8913 16.0643 29.8917 16.0381 29.8981 16.0117C29.9045 15.9853 29.9166 15.9594 29.9338 15.9356C30.0615 15.7564 30.0281 15.559 29.8336 15.3434C29.6473 15.1372 29.4721 14.7769 29.3081 14.2625C29.3058 14.2543 29.2899 14.1524 29.2606 13.9567C29.2302 13.761 29.0884 13.6673 28.8353 13.6755C28.8089 13.6759 28.7829 13.6684 28.7606 13.654C28.7384 13.6397 28.721 13.619 28.7105 13.5947C28.4973 13.0932 28.2413 12.6222 27.9425 12.1816C27.9367 12.1734 27.9039 12.1195 27.8441 12.0199C27.7117 11.7997 27.5359 11.727 27.3168 11.802C27.2582 11.8224 27.1945 11.8236 27.1348 11.8053C27.0751 11.787 27.0226 11.7501 26.9847 11.7001C26.6203 11.2209 26.2325 10.7844 25.8212 10.3907C25.4322 10.0193 24.96 9.68539 24.4047 9.38896C23.4873 8.89686 22.5359 8.48326 21.5505 8.14816C20.9635 7.94898 20.264 7.79198 19.452 7.67715C18.7385 7.57639 18.0249 7.47855 17.3114 7.38365C18.2698 7.20087 19.0607 7.14463 19.684 7.21493C23.7872 7.67891 26.9407 9.63735 29.1446 13.0903C29.236 13.232 29.3391 13.365 29.454 13.4892C29.4907 13.5294 29.5157 13.5819 29.526 13.6403C29.5635 13.8536 29.6678 14.027 29.8389 14.1606C29.8869 14.1984 29.9218 14.2455 29.939 14.2959C30.1371 14.8653 30.3392 15.4336 30.5454 16.0007C30.5899 16.1237 30.6075 16.2532 30.5981 16.3891C30.5922 16.4793 30.5876 16.5689 30.584 16.658C30.5817 16.7435 30.5952 16.8314 30.6245 16.9216C30.8119 17.4922 30.9033 18.0769 30.8986 18.6756C30.8986 18.699 30.9109 18.907 30.9355 19.2995C30.9531 19.5866 30.8957 19.8642 30.7633 20.1326Z" fill="#FAE789"/>
<path d="M17.3114 7.38364C18.0249 7.47854 18.7385 7.57638 19.452 7.67714C20.264 7.79196 20.9635 7.94897 21.5505 8.14815C22.5358 8.48325 23.4872 8.89684 24.4046 9.38894C24.96 9.68538 25.4322 10.0193 25.8212 10.3907C26.2324 10.7844 26.6203 11.2208 26.9847 11.7001C27.0226 11.7501 27.0751 11.7869 27.1348 11.8053C27.1945 11.8236 27.2582 11.8224 27.3168 11.802C27.5359 11.727 27.7117 11.7996 27.8441 12.0199C27.9038 12.1195 27.9366 12.1734 27.9425 12.1816C28.2413 12.6222 28.4973 13.0932 28.7105 13.5946C28.721 13.619 28.7384 13.6396 28.7606 13.654C28.7828 13.6684 28.8088 13.6759 28.8353 13.6755C29.0884 13.6673 29.2302 13.761 29.2606 13.9567C29.2899 14.1524 29.3057 14.2543 29.3081 14.2625C29.4721 14.7769 29.6473 15.1371 29.8336 15.3434C30.0281 15.5589 30.0614 15.7564 29.9337 15.9356C29.9166 15.9594 29.9044 15.9853 29.8981 16.0117C29.8917 16.0381 29.8913 16.0643 29.8968 16.0885C30.0093 16.5806 30.1329 17.0704 30.2677 17.5578C30.311 17.7183 30.3262 17.9439 30.3134 18.2344C30.2993 18.5484 30.3708 18.8402 30.5278 19.1097C30.6485 19.3171 30.7182 19.4782 30.7369 19.593C30.765 19.7699 30.7738 19.9498 30.7633 20.1325C30.8183 20.5461 30.816 20.9123 30.7562 21.231C30.4434 22.8912 29.7644 24.4249 28.7193 25.8321C27.5441 27.4174 26.0989 28.6347 24.3836 29.4842C23.39 29.9751 22.2728 30.3055 21.032 30.4754C16.9019 31.039 13.2791 29.9581 10.1636 27.2328C9.48171 26.6365 8.92282 26.0038 8.48696 25.3347C8.04173 24.6505 7.64747 23.8942 7.30417 23.0658C6.30942 20.6592 6.13016 18.2462 6.76637 15.8267C7.32291 13.7083 8.46177 11.874 10.183 10.3239C12.1057 8.59104 14.4818 7.61094 17.3114 7.38364ZM16.3412 9.48736C16.3412 9.45921 16.3357 9.43133 16.3249 9.40531C16.3141 9.3793 16.2983 9.35566 16.2784 9.33575C16.2585 9.31584 16.2349 9.30005 16.2089 9.28927C16.1829 9.27849 16.155 9.27295 16.1268 9.27295C16.07 9.27295 16.0154 9.29554 15.9752 9.33575C15.935 9.37596 15.9124 9.4305 15.9124 9.48736C15.9124 9.54423 15.935 9.59877 15.9752 9.63898C16.0154 9.67919 16.07 9.70178 16.1268 9.70178C16.1837 9.70178 16.2382 9.67919 16.2784 9.63898C16.3186 9.59877 16.3412 9.54423 16.3412 9.48736ZM15.747 10.295C15.7316 10.2754 15.7117 10.2597 15.6883 10.2488C15.6649 10.2378 15.6385 10.2319 15.6107 10.2313C15.5829 10.2307 15.5541 10.2355 15.5261 10.2454C15.498 10.2553 15.4713 10.27 15.4473 10.2888C15.4233 10.3076 15.4026 10.3301 15.3863 10.355C15.3701 10.3798 15.3586 10.4066 15.3525 10.4338C15.3464 10.4609 15.3459 10.4879 15.3509 10.5133C15.356 10.5386 15.3665 10.5617 15.3818 10.5813C15.3972 10.6009 15.4172 10.6167 15.4406 10.6276C15.464 10.6385 15.4903 10.6444 15.5181 10.645C15.546 10.6456 15.5747 10.6408 15.6028 10.631C15.6308 10.6211 15.6576 10.6063 15.6815 10.5875C15.7055 10.5687 15.7262 10.5463 15.7425 10.5214C15.7588 10.4965 15.7703 10.4697 15.7763 10.4426C15.7824 10.4154 15.7829 10.3884 15.7779 10.3631C15.7729 10.3378 15.7624 10.3146 15.747 10.295ZM14.2217 10.9391C14.2217 10.8472 14.1852 10.7592 14.1203 10.6942C14.0553 10.6293 13.9673 10.5928 13.8755 10.5928C13.7836 10.5928 13.6956 10.6293 13.6306 10.6942C13.5657 10.7592 13.5292 10.8472 13.5292 10.9391C13.5292 11.0309 13.5657 11.1189 13.6306 11.1839C13.6956 11.2488 13.7836 11.2853 13.8755 11.2853C13.9673 11.2853 14.0553 11.2488 14.1203 11.1839C14.1852 11.1189 14.2217 11.0309 14.2217 10.9391ZM15.4801 11.3693C15.487 11.3313 15.4714 11.2907 15.4368 11.2566C15.4021 11.2225 15.3512 11.1976 15.2952 11.1875C15.2393 11.1773 15.1829 11.1827 15.1384 11.2024C15.094 11.2221 15.0651 11.2546 15.0582 11.2926C15.0513 11.3307 15.0669 11.3713 15.1016 11.4054C15.1362 11.4395 15.1871 11.4643 15.2431 11.4745C15.299 11.4847 15.3554 11.4793 15.3999 11.4596C15.4443 11.4398 15.4732 11.4074 15.4801 11.3693ZM9.50456 11.8811C9.23039 11.9584 9.0353 12.1301 8.91931 12.396C8.91566 12.4046 8.91428 12.4141 8.91533 12.4234C8.91638 12.4327 8.9198 12.4416 8.92528 12.4491C8.93075 12.4567 8.93809 12.4628 8.94659 12.4667C8.95509 12.4707 8.96446 12.4723 8.97379 12.4716C9.27608 12.4482 9.50339 12.3328 9.6557 12.1254C9.71194 12.048 9.71194 11.9783 9.6557 11.9162C9.63954 11.8978 9.61677 11.8848 9.59003 11.8786C9.56329 11.8723 9.53367 11.8732 9.50456 11.8811ZM13.064 12.4997C13.056 12.4841 13.0441 12.4706 13.0292 12.4601C13.0142 12.4496 12.9964 12.4422 12.9768 12.4384C12.9572 12.4346 12.9361 12.4344 12.9149 12.4378C12.8936 12.4412 12.8725 12.4482 12.8528 12.4584C12.8131 12.4789 12.7814 12.5111 12.7648 12.5478C12.7481 12.5846 12.7479 12.623 12.7642 12.6544C12.7722 12.67 12.7841 12.6835 12.799 12.694C12.814 12.7045 12.8318 12.7119 12.8514 12.7157C12.871 12.7195 12.8921 12.7197 12.9133 12.7163C12.9346 12.7129 12.9557 12.7059 12.9754 12.6957C13.0151 12.6752 13.0468 12.643 13.0634 12.6063C13.0801 12.5695 13.0803 12.5311 13.064 12.4997ZM17.8439 12.8811C17.6775 13.1693 17.8662 13.2314 18.4098 13.0674C18.4261 13.0627 18.4409 13.054 18.4531 13.0422C18.4653 13.0304 18.4743 13.0158 18.4795 12.9997C18.4847 12.9835 18.4859 12.9664 18.4829 12.9497C18.48 12.933 18.473 12.9173 18.4625 12.9039C18.2188 12.597 18.0126 12.5894 17.8439 12.8811ZM8.13371 13.3082C8.09621 13.4581 8.13898 13.5472 8.26201 13.5753C8.28642 13.5811 8.3127 13.5785 8.33745 13.5678C8.36219 13.5572 8.38428 13.539 8.40085 13.5156C8.60003 13.2367 8.54906 13.1318 8.24794 13.201C8.22038 13.2074 8.19519 13.2207 8.17507 13.2396C8.15494 13.2585 8.14065 13.2822 8.13371 13.3082ZM22.7104 13.802C22.7104 13.7512 22.6902 13.7025 22.6543 13.6666C22.6184 13.6306 22.5697 13.6105 22.5188 13.6105C22.468 13.6105 22.4193 13.6306 22.3834 13.6666C22.3475 13.7025 22.3273 13.7512 22.3273 13.802C22.3273 13.8528 22.3475 13.9016 22.3834 13.9375C22.4193 13.9734 22.468 13.9936 22.5188 13.9936C22.5697 13.9936 22.6184 13.9734 22.6543 13.9375C22.6902 13.9016 22.7104 13.8528 22.7104 13.802ZM9.78729 14.1432C9.80927 14.1215 9.82564 14.0945 9.83545 14.0637C9.84526 14.033 9.84832 13.9992 9.84447 13.9642C9.84061 13.9293 9.82992 13.8938 9.81298 13.8598C9.79605 13.8259 9.77321 13.7942 9.74577 13.7664C9.69037 13.7104 9.61959 13.6742 9.54902 13.6657C9.47845 13.6571 9.41386 13.677 9.36946 13.721C9.34747 13.7427 9.33111 13.7697 9.3213 13.8004C9.31149 13.8311 9.30842 13.8649 9.31228 13.8999C9.31613 13.9349 9.32683 13.9704 9.34376 14.0043C9.3607 14.0383 9.38354 14.07 9.41097 14.0977C9.46638 14.1537 9.53715 14.19 9.60772 14.1985C9.6783 14.207 9.74289 14.1871 9.78729 14.1432ZM13.5238 13.9484C13.5392 13.9405 13.5526 13.9291 13.5633 13.915C13.574 13.9008 13.5817 13.8841 13.5861 13.8659C13.5904 13.8477 13.5913 13.8282 13.5887 13.8087C13.5861 13.7892 13.58 13.77 13.5708 13.7521C13.5616 13.7343 13.5494 13.7182 13.535 13.7047C13.5206 13.6913 13.5043 13.6807 13.4869 13.6737C13.4695 13.6667 13.4514 13.6634 13.4337 13.6639C13.416 13.6644 13.3989 13.6688 13.3835 13.6767C13.3682 13.6846 13.3547 13.696 13.344 13.7102C13.3334 13.7243 13.3256 13.741 13.3212 13.7592C13.3169 13.7775 13.316 13.7969 13.3186 13.8164C13.3212 13.836 13.3273 13.8552 13.3365 13.873C13.3457 13.8909 13.3579 13.907 13.3723 13.9204C13.3867 13.9339 13.403 13.9444 13.4204 13.9514C13.4378 13.9584 13.4559 13.9617 13.4736 13.9612C13.4914 13.9607 13.5084 13.9564 13.5238 13.9484ZM8.1472 14.1933C8.15854 14.1965 8.17054 14.1968 8.18254 14.1943C8.19454 14.1918 8.2063 14.1865 8.21714 14.1787C8.22798 14.1709 8.23769 14.1608 8.24572 14.1488C8.25375 14.1369 8.25994 14.1235 8.26394 14.1092C8.27201 14.0805 8.27066 14.0504 8.26018 14.0256C8.24971 14.0007 8.23097 13.9831 8.20808 13.9767C8.19675 13.9735 8.18474 13.9732 8.17274 13.9757C8.16075 13.9782 8.14899 13.9835 8.13815 13.9913C8.12731 13.9991 8.1176 14.0092 8.10957 14.0211C8.10154 14.0331 8.09535 14.0465 8.09135 14.0607C8.08328 14.0894 8.08463 14.1195 8.0951 14.1444C8.10558 14.1693 8.12432 14.1868 8.1472 14.1933ZM28.4557 15.3363C28.485 15.4265 28.5529 15.5279 28.6596 15.6404C28.6912 15.6744 28.7246 15.6954 28.7597 15.7036C28.8183 15.7165 28.8605 15.7066 28.8863 15.6738C28.9085 15.6445 28.9097 15.5994 28.8898 15.5384C28.7445 15.0991 28.5084 14.7171 28.1815 14.3925C28.1624 14.3735 28.1387 14.36 28.113 14.3535C28.0873 14.347 28.0605 14.3477 28.0356 14.3556C27.9056 14.3966 27.6959 14.488 27.4065 14.6298C27.0561 14.7997 27.1622 14.9063 27.7246 14.9497C27.7474 14.9513 27.7695 14.9585 27.789 14.9705C27.8085 14.9825 27.8248 14.9991 27.8365 15.0187C27.8482 15.0384 27.855 15.0606 27.8564 15.0835C27.8577 15.1063 27.8535 15.1291 27.8441 15.15C27.7269 15.4172 27.8423 15.447 28.1903 15.2397C28.2137 15.2258 28.2399 15.2173 28.2669 15.2148C28.294 15.2123 28.3212 15.2158 28.3466 15.225C28.372 15.2343 28.395 15.2491 28.4139 15.2683C28.4328 15.2876 28.447 15.3108 28.4557 15.3363ZM26.6683 14.7897C26.6683 14.7357 26.6468 14.6838 26.6086 14.6456C26.5704 14.6074 26.5185 14.5859 26.4644 14.5859C26.4104 14.5859 26.3585 14.6074 26.3203 14.6456C26.282 14.6838 26.2606 14.7357 26.2606 14.7897C26.2606 14.8438 26.282 14.8957 26.3203 14.9339C26.3585 14.9721 26.4104 14.9936 26.4644 14.9936C26.5185 14.9936 26.5704 14.9721 26.6086 14.9339C26.6468 14.8957 26.6683 14.8438 26.6683 14.7897ZM19.1023 15.491C18.8738 15.1383 18.7203 15.2701 18.6418 15.8864C18.6266 16.0094 18.6436 16.0792 18.6928 16.0956C18.7514 16.1155 18.8474 16.0715 18.981 15.9638C19.0242 15.9284 19.076 15.9051 19.1312 15.8962C19.1865 15.8873 19.2431 15.893 19.2956 15.9128C19.6928 16.0628 20.0747 16.1401 20.4415 16.1448C20.4669 16.1454 20.4916 16.1369 20.5105 16.1209C20.5295 16.1049 20.5412 16.0827 20.5434 16.0587C20.5633 15.8325 20.428 15.7628 20.1374 15.8495C19.8738 15.9292 19.6278 15.9128 19.3993 15.8003C19.3056 15.7546 19.2065 15.6515 19.1023 15.491ZM21.4233 15.5497C21.4412 15.5149 21.4343 15.4691 21.4039 15.4223C21.3735 15.3754 21.3223 15.3315 21.2614 15.3C21.2313 15.2845 21.1997 15.2725 21.1684 15.2647C21.1371 15.2569 21.1068 15.2535 21.0792 15.2547C21.0516 15.2559 21.0273 15.2616 21.0075 15.2716C20.9877 15.2815 20.973 15.2955 20.9641 15.3127C20.9462 15.3475 20.9531 15.3934 20.9835 15.4402C21.0138 15.487 21.0651 15.531 21.126 15.5624C21.1561 15.578 21.1877 15.59 21.219 15.5978C21.2502 15.6056 21.2805 15.609 21.3081 15.6078C21.3358 15.6066 21.3601 15.6009 21.3799 15.5909C21.3996 15.5809 21.4144 15.5669 21.4233 15.5497ZM24.635 17.615C24.7584 17.6103 24.8725 17.4945 24.9522 17.2932C25.0319 17.0919 25.0706 16.8216 25.0598 16.5417C25.0491 16.2617 24.9897 15.9952 24.8949 15.8006C24.8 15.606 24.6773 15.4993 24.5539 15.5041C24.4305 15.5088 24.3164 15.6246 24.2367 15.8259C24.157 16.0271 24.1183 16.2975 24.1291 16.5774C24.1398 16.8573 24.1992 17.1239 24.294 17.3185C24.3889 17.5131 24.5116 17.6198 24.635 17.615ZM14.4981 17.753C14.6224 17.7335 14.7251 17.6093 14.7836 17.4076C14.8421 17.206 14.8516 16.9434 14.81 16.6777C14.7894 16.5461 14.7569 16.4178 14.7143 16.2999C14.6717 16.182 14.6199 16.077 14.5618 15.9908C14.5037 15.9046 14.4404 15.8389 14.3757 15.7974C14.3109 15.756 14.2459 15.7396 14.1843 15.7492C14.06 15.7687 13.9573 15.8929 13.8988 16.0946C13.8403 16.2963 13.8308 16.5588 13.8724 16.8245C13.893 16.9561 13.9255 17.0845 13.9681 17.2023C14.0107 17.3202 14.0625 17.4252 14.1206 17.5115C14.1787 17.5977 14.242 17.6634 14.3067 17.7048C14.3715 17.7463 14.4365 17.7626 14.4981 17.753ZM13.3284 16.2376C13.3316 16.1868 13.3088 16.1366 13.265 16.0978C13.2212 16.0591 13.16 16.035 13.0948 16.0309C13.0297 16.0268 12.966 16.043 12.9177 16.076C12.8694 16.109 12.8405 16.156 12.8373 16.2067C12.8341 16.2574 12.8569 16.3076 12.9007 16.3464C12.9445 16.3851 13.0057 16.4092 13.0708 16.4133C13.1359 16.4174 13.1997 16.4012 13.248 16.3682C13.2963 16.3353 13.3252 16.2883 13.3284 16.2376ZM19.1392 16.2836C18.8638 16.2309 18.8199 16.2754 19.0074 16.4172C19.0413 16.4418 19.0794 16.4559 19.1216 16.4594C19.3126 16.4769 19.3612 16.4394 19.2675 16.3469C19.2347 16.3153 19.1919 16.2942 19.1392 16.2836ZM22.4855 17.1237C22.4198 17.1155 22.3495 17.1325 22.2746 17.1747C22.2183 17.2051 22.2207 17.2321 22.2816 17.2555C22.7901 17.4547 22.9717 17.3229 22.8264 16.8601C22.7901 16.7441 22.7467 16.7031 22.6964 16.7371C22.6542 16.7663 22.6255 16.8612 22.6102 17.0218C22.6089 17.0367 22.6046 17.0513 22.5976 17.0645C22.5906 17.0778 22.581 17.0896 22.5693 17.0991C22.5577 17.1086 22.5443 17.1156 22.5299 17.1199C22.5155 17.1241 22.5004 17.1254 22.4855 17.1237ZM26.0163 16.9532C26.103 17.0048 26.1405 16.9977 26.1287 16.9321C26.1255 16.9139 26.1162 16.897 26.1021 16.8835C26.088 16.87 26.0697 16.8606 26.0497 16.8566C25.8411 16.8097 25.83 16.8419 26.0163 16.9532ZM27.3168 17.4067C27.4527 17.3762 27.4756 17.2971 27.3854 17.1694C27.37 17.1475 27.3485 17.1303 27.3231 17.1194C27.2978 17.1086 27.2695 17.1046 27.2412 17.1079C26.9683 17.1383 26.9395 17.2262 27.1551 17.3715C27.1801 17.3887 27.2074 17.4007 27.2353 17.4067C27.2631 17.4128 27.2909 17.4128 27.3168 17.4067ZM12.9684 17.5548C12.9698 17.5194 12.9435 17.4843 12.8952 17.4572C12.8468 17.4301 12.7804 17.4132 12.7106 17.4103C12.6407 17.4074 12.5731 17.4186 12.5227 17.4416C12.4722 17.4645 12.4431 17.4973 12.4416 17.5327C12.4401 17.5681 12.4664 17.6032 12.5148 17.6303C12.5631 17.6574 12.6295 17.6743 12.6994 17.6772C12.7692 17.6801 12.8368 17.6689 12.8873 17.6459C12.9377 17.623 12.9669 17.5902 12.9684 17.5548ZM18.7244 18.2889C18.4924 18.1964 18.2716 18.0786 18.0618 17.9357C17.8498 17.7904 17.7379 17.798 17.7261 17.9585C17.7208 18.0248 17.7342 18.0911 17.7646 18.1499C17.7951 18.2087 17.8415 18.2575 17.8984 18.2907C19.1075 18.9972 20.2476 18.9837 21.3185 18.2503C21.5083 18.119 21.6629 17.9556 21.7825 17.7599C21.7961 17.7373 21.8018 17.7111 21.7986 17.6857C21.7954 17.6603 21.7835 17.6374 21.7649 17.6211C21.6583 17.5273 21.5598 17.5297 21.4696 17.6281C21.3384 17.7699 21.2722 17.8413 21.271 17.8425C20.7332 18.2549 20.1275 18.4535 19.4538 18.4383C19.203 18.4325 18.9599 18.3827 18.7244 18.2889ZM13.5784 17.8548C13.6499 17.6732 13.5761 17.6123 13.357 17.672C13.0969 17.7435 13.0418 17.8425 13.1918 17.9691C13.3629 18.112 13.4917 18.0739 13.5784 17.8548ZM29.0824 18.2045C29.089 18.1627 29.0743 18.1191 29.0416 18.0836C29.0089 18.048 28.9607 18.0234 28.9078 18.015C28.8816 18.0108 28.855 18.0108 28.8295 18.0149C28.804 18.019 28.7802 18.0271 28.7593 18.0389C28.7384 18.0506 28.721 18.0657 28.7079 18.0833C28.6948 18.1008 28.6864 18.1206 28.6831 18.1413C28.6765 18.1832 28.6912 18.2267 28.7239 18.2623C28.7566 18.2978 28.8048 18.3225 28.8577 18.3309C28.8839 18.335 28.9105 18.3351 28.936 18.331C28.9615 18.3269 28.9853 18.3187 29.0062 18.307C29.0271 18.2953 29.0445 18.2802 29.0576 18.2626C29.0707 18.245 29.0791 18.2253 29.0824 18.2045ZM10.011 18.5598C10.0263 18.5745 10.045 18.5854 10.066 18.5919C10.0869 18.5984 10.1097 18.6004 10.1331 18.5977C10.1565 18.595 10.1799 18.5877 10.2022 18.5763C10.2244 18.5648 10.245 18.5494 10.2627 18.5309C10.2805 18.5124 10.295 18.4912 10.3055 18.4685C10.3161 18.4458 10.3223 18.422 10.324 18.3986C10.3258 18.3751 10.3228 18.3524 10.3155 18.3317C10.3081 18.3111 10.2964 18.2929 10.2811 18.2782C10.2657 18.2635 10.2471 18.2526 10.2261 18.2461C10.2052 18.2396 10.1824 18.2376 10.159 18.2403C10.1356 18.243 10.1121 18.2502 10.0899 18.2617C10.0677 18.2732 10.0471 18.2886 10.0293 18.3071C10.0116 18.3256 9.99707 18.3468 9.98655 18.3695C9.97603 18.3922 9.96974 18.4159 9.96804 18.4394C9.96634 18.4629 9.96926 18.4856 9.97663 18.5062C9.98401 18.5269 9.99569 18.5451 10.011 18.5598ZM11.1267 18.9779C11.142 19.0318 11.1636 19.0839 11.1918 19.1343C11.3031 19.3346 11.3763 19.33 11.4114 19.1202C11.4158 19.0961 11.4138 19.0701 11.4055 19.0442C11.3973 19.0184 11.3831 18.9933 11.364 18.9708C11.2539 18.8408 11.1964 18.689 11.1918 18.5156C11.1907 18.4847 11.1837 18.4555 11.1713 18.4311C11.1589 18.4067 11.1417 18.3879 11.1215 18.3768C10.9855 18.3042 10.9873 18.5045 11.1267 18.9779ZM25.7741 18.4139C25.7622 18.3923 25.7421 18.3763 25.7184 18.3694C25.6947 18.3626 25.6692 18.3654 25.6475 18.3774L25.189 18.6305C25.1674 18.6424 25.1514 18.6625 25.1446 18.6862C25.1377 18.7099 25.1406 18.7354 25.1525 18.7571L25.1899 18.8248C25.2018 18.8464 25.2219 18.8624 25.2456 18.8692C25.2693 18.8761 25.2948 18.8732 25.3164 18.8613L25.775 18.6082C25.7966 18.5962 25.8126 18.5762 25.8194 18.5525C25.8263 18.5287 25.8234 18.5032 25.8115 18.4816L25.7741 18.4139ZM8.6866 18.9075C8.70921 18.8995 8.72976 18.8863 8.74706 18.8688C8.76437 18.8513 8.7781 18.8298 8.78746 18.8055C8.79682 18.7812 8.80164 18.7546 8.80164 18.7272C8.80164 18.6998 8.79681 18.6722 8.78744 18.6459C8.76852 18.5928 8.73224 18.5483 8.68657 18.5222C8.6409 18.4961 8.58959 18.4906 8.54392 18.5069C8.52131 18.5149 8.50077 18.5281 8.48346 18.5456C8.46616 18.5631 8.45243 18.5846 8.44306 18.6089C8.4337 18.6332 8.42888 18.6598 8.42889 18.6872C8.42889 18.7146 8.43371 18.7422 8.44308 18.7685C8.462 18.8217 8.49828 18.8662 8.54395 18.8922C8.58962 18.9183 8.64093 18.9238 8.6866 18.9075ZM24.6347 18.9771C24.6512 18.9814 24.6688 18.9808 24.6865 18.9754C24.7042 18.97 24.7216 18.9599 24.7377 18.9457C24.7538 18.9314 24.7684 18.9134 24.7805 18.8925C24.7926 18.8716 24.802 18.8483 24.8083 18.8239C24.8146 18.7995 24.8175 18.7746 24.8169 18.7504C24.8164 18.7263 24.8124 18.7035 24.8051 18.6832C24.7978 18.663 24.7874 18.6458 24.7746 18.6325C24.7617 18.6193 24.7465 18.6103 24.73 18.606C24.7134 18.6018 24.6958 18.6024 24.6781 18.6078C24.6605 18.6132 24.6431 18.6233 24.6269 18.6375C24.6108 18.6517 24.5963 18.6698 24.5842 18.6907C24.5721 18.7116 24.5626 18.7349 24.5564 18.7592C24.5501 18.7836 24.5472 18.8086 24.5477 18.8327C24.5483 18.8568 24.5523 18.8797 24.5596 18.8999C24.5668 18.9201 24.5772 18.9374 24.5901 18.9506C24.603 18.9639 24.6181 18.9729 24.6347 18.9771ZM13.2744 19.18C13.2724 19.188 13.2721 19.1964 13.2735 19.2047C13.2749 19.2129 13.278 19.2208 13.2826 19.2278C13.2872 19.2349 13.2932 19.241 13.3002 19.2457C13.3073 19.2505 13.3152 19.2538 13.3236 19.2555C13.5064 19.2895 13.5831 19.2374 13.5538 19.0991C13.5339 19.0066 13.4923 18.9603 13.4291 18.9603C13.3623 18.9591 13.3107 19.0323 13.2744 19.18ZM16.2534 19.0868C16.1081 19.5192 16.2405 19.6422 16.6506 19.4559C16.6728 19.4459 16.6902 19.4277 16.6994 19.4051C16.7086 19.3825 16.7087 19.3573 16.6998 19.3346C16.6412 19.1917 16.5539 19.0862 16.4379 19.0183C16.4214 19.0089 16.4031 19.0032 16.3843 19.0016C16.3654 19.0001 16.3465 19.0026 16.3288 19.0092C16.3112 19.0157 16.2953 19.0261 16.2822 19.0395C16.2692 19.053 16.2593 19.0691 16.2534 19.0868ZM13.9141 19.4208C14.0653 19.3762 14.0776 19.2954 13.951 19.1782C13.9304 19.1591 13.9052 19.1459 13.8782 19.14C13.8513 19.1341 13.8236 19.1358 13.7981 19.1448C13.6657 19.1929 13.654 19.272 13.763 19.3821C13.7826 19.4017 13.807 19.4157 13.8337 19.4225C13.8603 19.4294 13.8881 19.4287 13.9141 19.4208ZM29.6266 19.7396C29.6478 19.7377 29.6681 19.7291 29.6865 19.7142C29.7048 19.6994 29.7209 19.6786 29.7337 19.653C29.7465 19.6275 29.7558 19.5977 29.761 19.5653C29.7663 19.5329 29.7674 19.4986 29.7644 19.4644C29.7613 19.4301 29.7541 19.3966 29.7432 19.3656C29.7323 19.3347 29.7179 19.307 29.7007 19.2841C29.6836 19.2613 29.6642 19.2436 29.6434 19.2323C29.6227 19.2209 29.6012 19.216 29.58 19.2179C29.5589 19.2198 29.5385 19.2284 29.5202 19.2433C29.5018 19.2581 29.4858 19.2789 29.473 19.3045C29.4602 19.33 29.4509 19.3598 29.4456 19.3922C29.4404 19.4246 29.4392 19.4589 29.4423 19.4931C29.4453 19.5274 29.4525 19.5609 29.4634 19.5919C29.4744 19.6228 29.4888 19.6505 29.5059 19.6734C29.523 19.6962 29.5425 19.7139 29.5632 19.7252C29.5839 19.7366 29.6055 19.7415 29.6266 19.7396ZM10.2457 19.6901C10.2442 19.6678 10.236 19.6461 10.2213 19.6263C10.2067 19.6065 10.1859 19.589 10.1603 19.5748C10.1347 19.5606 10.1047 19.55 10.072 19.5435C10.0393 19.537 10.0046 19.5349 9.96984 19.5371C9.93506 19.5393 9.90091 19.546 9.86933 19.5566C9.83775 19.5672 9.80937 19.5816 9.78579 19.599C9.76222 19.6164 9.74393 19.6364 9.73195 19.6579C9.71998 19.6794 9.71456 19.702 9.716 19.7243C9.71744 19.7467 9.72572 19.7684 9.74037 19.7881C9.75501 19.8079 9.77573 19.8254 9.80135 19.8396C9.82696 19.8538 9.85697 19.8645 9.88965 19.871C9.92234 19.8774 9.95706 19.8796 9.99184 19.8774C10.0266 19.8751 10.0608 19.8685 10.0924 19.8579C10.1239 19.8472 10.1523 19.8328 10.1759 19.8154C10.1995 19.798 10.2178 19.778 10.2297 19.7565C10.2417 19.735 10.2471 19.7125 10.2457 19.6901ZM26.3186 23.1713L26.714 23.2152C27.1182 23.357 27.4662 23.3365 27.758 23.1537C28.2981 22.8139 28.6847 22.2908 28.9179 21.5842C29.0468 21.1964 29.0163 20.8273 28.8265 20.477C28.5395 19.9462 28.1387 19.6381 27.6244 19.5526C27.1709 19.4776 26.7122 19.5168 26.2483 19.6703C25.7456 19.8379 25.3994 20.1935 25.2096 20.7371C24.8042 21.8982 25.1738 22.7096 26.3186 23.1713ZM9.08803 20.7055C9.06983 20.696 9.05384 20.6827 9.04109 20.6666C9.02834 20.6504 9.0191 20.6318 9.01397 20.6117C9.00885 20.5917 9.00794 20.5708 9.01131 20.5503C9.01468 20.5299 9.02225 20.5103 9.03355 20.4928C9.16009 20.3042 9.22219 20.1659 9.21984 20.0781C9.21516 19.8871 9.14486 19.8666 9.00894 20.0165L8.48872 20.5842C8.47234 20.6025 8.45974 20.6243 8.45217 20.6476C8.44459 20.6708 8.44228 20.6947 8.44546 20.717C8.44864 20.7393 8.4572 20.7591 8.47032 20.7746C8.48344 20.7902 8.50068 20.8009 8.52036 20.8057L9.00543 20.9199C9.03269 20.9264 9.06143 20.9231 9.08674 20.9106C9.11205 20.8981 9.13238 20.8772 9.14427 20.8514C9.17356 20.7904 9.15481 20.7418 9.08803 20.7055ZM13.7823 20.5034C13.4636 20.2444 13.1607 20.1355 12.8737 20.1765C12.6112 20.214 12.3025 20.2274 11.9475 20.2169C11.9004 20.2153 11.8531 20.2238 11.8086 20.2419C11.7641 20.2601 11.7234 20.2875 11.6891 20.3224L10.9264 21.0921C10.9088 21.1109 10.8877 21.1607 10.8631 21.2415L10.6276 22.0254C10.5947 22.1342 10.5866 22.2314 10.6048 22.2995C10.7852 22.9932 11.1836 23.4823 11.7999 23.767C12.1596 23.9334 12.5116 24.0026 12.8561 23.9744C13.2849 23.9416 13.6189 23.7524 13.8579 23.4068C14.0547 23.1221 14.2305 22.7647 14.3851 22.3347C14.6347 21.6422 14.4338 21.0318 13.7823 20.5034ZM15.3157 20.3631C15.3069 20.3446 15.2933 20.3285 15.2757 20.3159C15.2582 20.3032 15.2369 20.2943 15.2133 20.2894C15.1897 20.2846 15.1641 20.2841 15.138 20.2878C15.1119 20.2915 15.0858 20.2995 15.0612 20.3112C15.0116 20.3349 14.9711 20.3725 14.9486 20.4157C14.9261 20.4589 14.9235 20.5042 14.9414 20.5417C14.9502 20.5602 14.9638 20.5763 14.9814 20.5889C14.999 20.6016 15.0202 20.6106 15.0438 20.6154C15.0674 20.6202 15.093 20.6208 15.1191 20.617C15.1452 20.6133 15.1713 20.6053 15.1959 20.5936C15.2455 20.5699 15.2861 20.5323 15.3085 20.4891C15.331 20.4459 15.3336 20.4006 15.3157 20.3631ZM20.0794 20.9744C20.1919 21.2017 20.3425 21.4003 20.5311 21.5702C20.6014 21.6346 20.6495 21.6381 20.6752 21.5807C20.6852 21.5591 20.6874 21.533 20.6815 21.5053C20.6756 21.4776 20.6618 21.4495 20.6418 21.4243L20.2183 20.8795C20.148 20.6323 20.0613 20.4823 19.9582 20.4296C19.841 20.3686 19.7707 20.3839 19.7473 20.4753C19.7356 20.5245 19.7467 20.5778 19.7807 20.6352C19.858 20.7664 19.9576 20.8795 20.0794 20.9744ZM29.6087 21.0267C29.6472 21.0196 29.6797 20.9887 29.699 20.9409C29.7182 20.8931 29.7228 20.8322 29.7116 20.7717C29.706 20.7418 29.6968 20.7128 29.6843 20.6865C29.6719 20.6602 29.6566 20.637 29.6392 20.6183C29.6218 20.5996 29.6026 20.5858 29.5829 20.5776C29.5632 20.5694 29.5432 20.567 29.5241 20.5705C29.4856 20.5777 29.4532 20.6085 29.4339 20.6564C29.4146 20.7042 29.4101 20.765 29.4213 20.8255C29.4268 20.8555 29.4361 20.8845 29.4485 20.9108C29.4609 20.9371 29.4763 20.9603 29.4937 20.979C29.5111 20.9976 29.5302 21.0115 29.5499 21.0197C29.5697 21.0279 29.5896 21.0303 29.6087 21.0267ZM16.0612 22.1169C16.0733 22.1289 16.0886 22.1376 16.106 22.1424C16.1234 22.1472 16.1427 22.1481 16.1628 22.145C16.1828 22.1419 16.2033 22.1349 16.2229 22.1243C16.2426 22.1137 16.261 22.0999 16.2773 22.0835C16.31 22.0503 16.3317 22.0089 16.3376 21.9683C16.3434 21.9277 16.333 21.8913 16.3084 21.8671C16.2963 21.855 16.2811 21.8464 16.2636 21.8416C16.2462 21.8367 16.2269 21.8359 16.2069 21.839C16.1868 21.8421 16.1664 21.8491 16.1467 21.8597C16.1271 21.8702 16.1086 21.8841 16.0924 21.9005C16.0596 21.9336 16.0379 21.975 16.032 22.0156C16.0262 22.0562 16.0367 22.0926 16.0612 22.1169ZM23.2658 23.1642C23.6372 23.5368 24.0033 23.5708 24.3642 23.2662C24.4041 23.2334 24.4539 23.2064 24.5136 23.1853C24.6905 23.1244 24.7444 23.0014 24.6753 22.8162C24.6666 22.7944 24.6494 22.7768 24.6272 22.767C24.605 22.7572 24.5795 22.756 24.5558 22.7635C24.148 22.9006 23.7415 22.975 23.3361 22.9867C23.1756 22.9914 23.1521 23.0506 23.2658 23.1642ZM8.86607 24.0638C8.87228 24.0346 8.85921 24.0026 8.82974 23.9747C8.80027 23.9469 8.75683 23.9256 8.70895 23.9154C8.68525 23.9103 8.66117 23.9082 8.63809 23.9091C8.61502 23.9099 8.59339 23.9138 8.57446 23.9205C8.55552 23.9271 8.53965 23.9364 8.52774 23.9479C8.51583 23.9593 8.50812 23.9726 8.50505 23.987C8.49885 24.0162 8.51192 24.0482 8.54139 24.0761C8.57085 24.1039 8.6143 24.1252 8.66217 24.1354C8.68588 24.1405 8.70995 24.1426 8.73303 24.1417C8.75611 24.1409 8.77773 24.137 8.79666 24.1303C8.8156 24.1237 8.83148 24.1144 8.84338 24.103C8.85529 24.0915 8.863 24.0782 8.86607 24.0638ZM27.5154 24.7354C27.0081 24.7472 26.864 24.9985 27.0831 25.4894C27.0941 25.5149 27.1122 25.5363 27.1345 25.55C27.1568 25.5637 27.182 25.5689 27.2061 25.565C27.3092 25.5486 27.3748 25.4941 27.4029 25.4015C27.409 25.3801 27.4062 25.3562 27.3951 25.3333C27.384 25.3105 27.3652 25.29 27.3414 25.275C27.1833 25.1754 27.2231 25.1016 27.4609 25.0535C27.7562 24.9938 27.8406 24.8801 27.714 24.7126C27.6683 24.654 27.6326 24.6411 27.6068 24.6739C27.5928 24.6923 27.5771 24.7075 27.5612 24.7182C27.5453 24.7289 27.5296 24.7348 27.5154 24.7354ZM18.3325 25.5667C18.3805 25.7132 18.4467 25.7185 18.5311 25.5825C18.5464 25.5586 18.5536 25.5308 18.5513 25.504C18.5491 25.4773 18.5375 25.4534 18.5188 25.4367C18.4707 25.3933 18.4221 25.3881 18.3729 25.4209C18.3522 25.4345 18.3369 25.4562 18.3296 25.4825C18.3223 25.5089 18.3233 25.5385 18.3325 25.5667ZM26.441 26.2982C26.4259 26.2736 26.4016 26.256 26.3735 26.2492C26.3454 26.2425 26.3158 26.2471 26.2911 26.2622L25.6498 26.6553C25.6376 26.6628 25.627 26.6726 25.6186 26.6841C25.6101 26.6957 25.6041 26.7088 25.6008 26.7227C25.5974 26.7367 25.5968 26.7511 25.5991 26.7652C25.6013 26.7794 25.6063 26.7929 25.6138 26.8051L25.6689 26.895C25.684 26.9197 25.7083 26.9373 25.7364 26.944C25.7645 26.9508 25.7941 26.9461 25.8187 26.931L26.4601 26.538C26.4723 26.5305 26.4829 26.5207 26.4913 26.5091C26.4997 26.4975 26.5058 26.4844 26.5091 26.4705C26.5125 26.4566 26.513 26.4422 26.5108 26.428C26.5085 26.4139 26.5035 26.4003 26.4961 26.3881L26.441 26.2982ZM26.7456 27.1836C26.8218 27.302 26.871 27.2768 26.8933 27.1081C26.8967 27.0796 26.8916 27.0513 26.8787 27.0281C26.8658 27.005 26.8461 26.9884 26.823 26.9815C26.7761 26.9686 26.7427 26.9821 26.7228 27.0219C26.7121 27.0433 26.7086 27.0695 26.7127 27.098C26.7167 27.1264 26.7281 27.1559 26.7456 27.1836ZM11.5095 27.5183C11.5209 27.5043 11.5275 27.4867 11.5289 27.4665C11.5304 27.4463 11.5267 27.4239 11.5181 27.4006C11.5095 27.3772 11.4962 27.3534 11.4788 27.3305C11.4614 27.3075 11.4404 27.2859 11.4169 27.2669C11.3934 27.2479 11.3679 27.2318 11.3418 27.2196C11.3158 27.2073 11.2897 27.1992 11.2651 27.1956C11.2405 27.1921 11.2178 27.1932 11.1983 27.1988C11.1788 27.2045 11.163 27.2146 11.1517 27.2286C11.1403 27.2425 11.1337 27.2601 11.1323 27.2804C11.1308 27.3006 11.1345 27.323 11.1431 27.3463C11.1517 27.3697 11.165 27.3935 11.1824 27.4164C11.1998 27.4394 11.2208 27.461 11.2443 27.48C11.2678 27.499 11.2933 27.5151 11.3194 27.5273C11.3454 27.5395 11.3715 27.5477 11.3961 27.5512C11.4207 27.5548 11.4434 27.5537 11.4629 27.5481C11.4824 27.5424 11.4982 27.5323 11.5095 27.5183ZM23.3092 28.9239C23.295 28.8945 23.2643 28.8746 23.2236 28.8686C23.183 28.8626 23.1359 28.871 23.0927 28.8919C23.0495 28.9128 23.0137 28.9445 22.9932 28.98C22.9726 29.0156 22.9691 29.0521 22.9833 29.0814C22.9975 29.1108 23.0283 29.1307 23.0689 29.1367C23.1095 29.1427 23.1566 29.1343 23.1998 29.1134C23.243 29.0925 23.2789 29.0608 23.2994 29.0252C23.3199 28.9897 23.3234 28.9532 23.3092 28.9239Z" fill="#F9D915"/>
<path d="M5.53615 10.2835C5.16942 10.2589 4.81792 10.3075 4.48165 10.4294C3.979 10.0814 3.5326 9.67309 3.14243 9.20442C3.12302 9.18166 3.10818 9.15639 3.09882 9.13012C3.08946 9.10385 3.08577 9.07712 3.08795 9.05152C3.10318 8.83593 3.23441 8.79141 3.48163 8.91795C4.29477 9.33038 4.97961 9.78557 5.53615 10.2835Z" fill="#FBEC9F"/>
<path d="M16.1268 9.70178C16.2452 9.70178 16.3412 9.60578 16.3412 9.48736C16.3412 9.36895 16.2452 9.27295 16.1268 9.27295C16.0084 9.27295 15.9124 9.36895 15.9124 9.48736C15.9124 9.60578 16.0084 9.70178 16.1268 9.70178Z" fill="#F8DD4A"/>
<path d="M15.6815 10.5876C15.7823 10.5085 15.8116 10.3775 15.747 10.2951C15.6823 10.2126 15.5481 10.2098 15.4473 10.2888C15.3464 10.3679 15.3171 10.4989 15.3818 10.5813C15.4465 10.6638 15.5807 10.6666 15.6815 10.5876Z" fill="#FBEC9F"/>
<path d="M5.53613 10.2835C5.9755 10.6432 6.24264 10.891 6.33755 11.0269C6.52501 11.2917 6.50217 11.4692 6.26901 11.5595C6.15067 11.6052 6.01475 11.597 5.86127 11.5349C5.29769 11.3076 4.83782 10.9391 4.48163 10.4294C4.8179 10.3075 5.1694 10.2589 5.53613 10.2835Z" fill="#F8E065"/>
<path d="M13.8755 11.2853C14.0667 11.2853 14.2217 11.1303 14.2217 10.9391C14.2217 10.7478 14.0667 10.5928 13.8755 10.5928C13.6842 10.5928 13.5292 10.7478 13.5292 10.9391C13.5292 11.1303 13.6842 11.2853 13.8755 11.2853Z" fill="#FFE9DF"/>
<path d="M15.2431 11.4745C15.3596 11.4957 15.4657 11.4486 15.4801 11.3693C15.4945 11.2901 15.4118 11.2087 15.2952 11.1875C15.1787 11.1663 15.0726 11.2134 15.0582 11.2927C15.0438 11.3719 15.1266 11.4533 15.2431 11.4745Z" fill="#F8DD4A"/>
<path d="M9.65569 11.9163C9.71193 11.9784 9.71193 12.0481 9.65569 12.1254C9.50337 12.3328 9.27607 12.4482 8.97378 12.4716C8.96445 12.4724 8.95508 12.4707 8.94658 12.4668C8.93808 12.4628 8.93074 12.4568 8.92527 12.4492C8.91979 12.4416 8.91636 12.4327 8.91532 12.4234C8.91427 12.4141 8.91564 12.4047 8.9193 12.3961C9.03529 12.1301 9.23038 11.9584 9.50455 11.8811C9.53365 11.8732 9.56328 11.8724 9.59002 11.8786C9.61676 11.8848 9.63952 11.8979 9.65569 11.9163Z" fill="#FFE9DF"/>
<path d="M12.9754 12.6957C13.0582 12.653 13.0979 12.5652 13.0641 12.4997C13.0302 12.4341 12.9357 12.4156 12.8529 12.4584C12.7701 12.5011 12.7304 12.5889 12.7642 12.6544C12.798 12.72 12.8926 12.7385 12.9754 12.6957Z" fill="#F8DD4A"/>
<path d="M17.8439 12.8811C18.0126 12.5894 18.2188 12.597 18.4625 12.904C18.473 12.9173 18.48 12.933 18.4829 12.9497C18.4859 12.9664 18.4847 12.9836 18.4795 12.9997C18.4743 13.0158 18.4652 13.0304 18.4531 13.0422C18.4409 13.054 18.4261 13.0627 18.4098 13.0674C17.8661 13.2314 17.6775 13.1693 17.8439 12.8811Z" fill="#F8E065"/>
<path d="M8.24792 13.201C8.54904 13.1318 8.6 13.2367 8.40082 13.5156C8.38425 13.5389 8.36217 13.5571 8.33742 13.5678C8.31267 13.5784 8.2864 13.5811 8.26198 13.5753C8.13895 13.5472 8.09619 13.4581 8.13368 13.3082C8.14062 13.2822 8.15492 13.2585 8.17504 13.2396C8.19517 13.2207 8.22036 13.2074 8.24792 13.201Z" fill="#FFE9DF"/>
<path d="M32.8881 15.491C32.5964 15.2777 32.5565 15.0528 32.7686 14.8161C32.8506 14.7259 33.0082 14.6181 33.2414 14.4927C33.4581 14.3756 33.6749 14.259 33.8916 14.143C34.0404 14.0633 34.2402 13.9239 34.491 13.7247C34.8179 13.4634 35.1881 13.2742 35.6017 13.157C35.8911 13.075 35.9456 13.1541 35.7651 13.3943C35.1289 14.2437 34.3006 14.9508 33.28 15.5156C33.2191 15.5492 33.1499 15.5647 33.0805 15.5604C33.0111 15.556 32.9443 15.5319 32.8881 15.491Z" fill="#F9E47A"/>
<path d="M22.5188 13.9936C22.6246 13.9936 22.7104 13.9078 22.7104 13.802C22.7104 13.6962 22.6246 13.6105 22.5188 13.6105C22.413 13.6105 22.3273 13.6962 22.3273 13.802C22.3273 13.9078 22.413 13.9936 22.5188 13.9936Z" fill="#FAE789"/>
<path d="M9.41099 14.0977C9.52638 14.2143 9.69486 14.2347 9.78731 14.1432C9.87976 14.0517 9.86117 13.883 9.74579 13.7664C9.6304 13.6498 9.46192 13.6295 9.36947 13.721C9.27702 13.8124 9.29561 13.9811 9.41099 14.0977Z" fill="#FBEC9F"/>
<path d="M13.3365 13.873C13.3753 13.948 13.4591 13.9818 13.5238 13.9484C13.5885 13.915 13.6095 13.8271 13.5708 13.7521C13.5321 13.677 13.4482 13.6433 13.3835 13.6767C13.3189 13.7101 13.2978 13.798 13.3365 13.873Z" fill="#F8DD4A"/>
<path d="M8.09136 14.0608C8.07455 14.1206 8.09955 14.1799 8.14721 14.1933C8.19487 14.2067 8.24713 14.1691 8.26394 14.1093C8.28075 14.0495 8.25574 13.9901 8.20808 13.9767C8.16043 13.9633 8.10817 14.0009 8.09136 14.0608Z" fill="#F8DD4A"/>
<path d="M28.4557 15.3363C28.4471 15.3108 28.4328 15.2876 28.4139 15.2683C28.395 15.2491 28.3721 15.2343 28.3466 15.225C28.3212 15.2158 28.294 15.2123 28.2669 15.2148C28.2399 15.2173 28.2137 15.2258 28.1903 15.2397C27.8423 15.447 27.7269 15.4172 27.8441 15.15C27.8535 15.1291 27.8577 15.1063 27.8564 15.0834C27.855 15.0606 27.8482 15.0384 27.8365 15.0187C27.8248 14.9991 27.8085 14.9825 27.789 14.9705C27.7695 14.9585 27.7474 14.9513 27.7246 14.9497C27.1622 14.9063 27.0561 14.7997 27.4065 14.6298C27.6959 14.488 27.9056 14.3966 28.0357 14.3556C28.0605 14.3477 28.0873 14.347 28.113 14.3535C28.1387 14.36 28.1624 14.3735 28.1815 14.3925C28.5084 14.7171 28.7445 15.0991 28.8898 15.5384C28.9097 15.5994 28.9085 15.6445 28.8863 15.6738C28.8605 15.7066 28.8183 15.7165 28.7597 15.7036C28.7246 15.6954 28.6912 15.6743 28.6596 15.6404C28.5529 15.5279 28.485 15.4265 28.4557 15.3363Z" fill="#F8DD4A"/>
<path d="M1.17929 15.4664C0.649699 15.6105 0.280624 15.4418 0.0720671 14.9602C-0.0579879 14.6614 0.0386749 14.5325 0.362055 14.5736C1.03342 14.6603 1.74286 14.8524 2.49039 15.15C2.59115 15.191 2.69601 15.2115 2.80498 15.2115C3.36035 15.215 3.75872 15.4248 4.00008 15.8407C4.17349 16.1395 4.18579 16.4265 4.03699 16.7019C3.83898 17.0674 3.47342 17.1301 2.94031 16.8899C2.49742 16.6908 2.07855 16.4488 1.6837 16.1641C1.46108 16.0047 1.32516 15.7933 1.27595 15.5296C1.2738 15.5188 1.26954 15.5084 1.26343 15.4993C1.25731 15.4901 1.24948 15.4823 1.24042 15.4764C1.23135 15.4705 1.22125 15.4665 1.21074 15.4648C1.20022 15.4631 1.18952 15.4636 1.17929 15.4664Z" fill="#F8DD4A"/>
<path d="M26.4644 14.9936C26.577 14.9936 26.6683 14.9023 26.6683 14.7897C26.6683 14.6772 26.577 14.5859 26.4644 14.5859C26.3518 14.5859 26.2606 14.6772 26.2606 14.7897C26.2606 14.9023 26.3518 14.9936 26.4644 14.9936Z" fill="#F8DD4A"/>
<path d="M19.3993 15.8003C19.6278 15.9128 19.8738 15.9292 20.1374 15.8495C20.428 15.7628 20.5633 15.8325 20.5434 16.0586C20.5412 16.0827 20.5295 16.1049 20.5105 16.1209C20.4916 16.1369 20.4669 16.1454 20.4415 16.1448C20.0748 16.1401 19.6928 16.0627 19.2956 15.9128C19.2431 15.893 19.1865 15.8872 19.1313 15.8962C19.076 15.9051 19.0242 15.9284 18.981 15.9637C18.8474 16.0715 18.7514 16.1155 18.6928 16.0956C18.6436 16.0791 18.6266 16.0094 18.6418 15.8864C18.7203 15.2701 18.8738 15.1383 19.1023 15.491C19.2066 15.6515 19.3056 15.7546 19.3993 15.8003Z" fill="#F8E065"/>
<path d="M21.126 15.5624C21.2527 15.6279 21.3858 15.6222 21.4232 15.5497C21.4606 15.4773 21.3882 15.3655 21.2614 15.3C21.1346 15.2346 21.0015 15.2403 20.9641 15.3127C20.9267 15.3852 20.9992 15.497 21.126 15.5624Z" fill="#F8DD4A"/>
<path d="M24.635 17.6151C24.5116 17.6198 24.3889 17.5131 24.2941 17.3185C24.1992 17.124 24.1398 16.8574 24.1291 16.5774C24.1183 16.2975 24.157 16.0272 24.2367 15.8259C24.3164 15.6246 24.4305 15.5088 24.5539 15.5041C24.6774 15.4994 24.8 15.606 24.8949 15.8006C24.9898 15.9952 25.0491 16.2618 25.0599 16.5417C25.0706 16.8216 25.0319 17.092 24.9522 17.2933C24.8725 17.4946 24.7584 17.6103 24.635 17.6151ZM24.5729 17.3416C24.6088 17.3418 24.6436 17.2616 24.6698 17.1187C24.6959 16.9758 24.7112 16.7819 24.7122 16.5796C24.7127 16.4794 24.7098 16.3802 24.7034 16.2877C24.6971 16.1951 24.6876 16.1109 24.6754 16.0401C24.6632 15.9692 24.6486 15.9129 24.6324 15.8745C24.6161 15.8361 24.5987 15.8163 24.5809 15.8162C24.545 15.816 24.5102 15.8962 24.484 16.0391C24.4579 16.182 24.4426 16.3759 24.4416 16.5782C24.441 16.6784 24.444 16.7776 24.4503 16.8701C24.4567 16.9627 24.4662 17.0469 24.4784 17.1178C24.4906 17.1886 24.5052 17.2449 24.5214 17.2833C24.5376 17.3217 24.5551 17.3416 24.5729 17.3416Z" fill="#2F2219"/>
<path d="M14.4981 17.753C14.4366 17.7626 14.3715 17.7463 14.3068 17.7048C14.242 17.6634 14.1788 17.5977 14.1207 17.5115C14.0626 17.4253 14.0107 17.3202 13.9681 17.2024C13.9255 17.0845 13.893 16.9561 13.8724 16.8245C13.8308 16.5588 13.8403 16.2963 13.8988 16.0946C13.9573 15.893 14.06 15.7687 14.1843 15.7493C14.2459 15.7396 14.3109 15.756 14.3757 15.7974C14.4405 15.8389 14.5037 15.9046 14.5618 15.9908C14.6199 16.077 14.6717 16.182 14.7143 16.2999C14.7569 16.4178 14.7894 16.5462 14.81 16.6777C14.8517 16.9434 14.8422 17.206 14.7837 17.4076C14.7252 17.6093 14.6225 17.7335 14.4981 17.753ZM14.3149 17.3768C14.3302 17.3908 14.3489 17.4006 14.3692 17.4052C14.3894 17.4099 14.4105 17.4093 14.4304 17.4035C14.4504 17.3976 14.4685 17.3868 14.483 17.372C14.4975 17.3572 14.508 17.3388 14.5135 17.3188C14.6623 16.767 14.5879 16.6533 14.2903 16.9778C14.1637 17.1149 14.1719 17.2479 14.3149 17.3768Z" fill="#2F2219"/>
<path d="M24.4415 16.5782C24.4393 16.9994 24.4981 17.3412 24.5729 17.3416C24.6476 17.342 24.71 17.0008 24.7122 16.5796C24.7144 16.1583 24.6556 15.8165 24.5809 15.8161C24.5061 15.8157 24.4437 16.1569 24.4415 16.5782Z" fill="#2F2219"/>
<path d="M13.0708 16.4133C13.2064 16.4218 13.3218 16.3432 13.3284 16.2376C13.335 16.132 13.2305 16.0395 13.0949 16.0309C12.9592 16.0224 12.8439 16.1011 12.8373 16.2067C12.8306 16.3123 12.9352 16.4048 13.0708 16.4133Z" fill="#F8DD4A"/>
<path d="M19.2675 16.3469C19.3612 16.4394 19.3126 16.4769 19.1216 16.4594C19.0795 16.4559 19.0414 16.4418 19.0074 16.4172C18.8199 16.2754 18.8639 16.2309 19.1392 16.2836C19.1919 16.2942 19.2347 16.3153 19.2675 16.3469Z" fill="#F8DD4A"/>
<path d="M22.4855 17.1237C22.5004 17.1254 22.5155 17.1241 22.5299 17.1199C22.5443 17.1156 22.5577 17.1085 22.5694 17.099C22.581 17.0895 22.5906 17.0778 22.5976 17.0645C22.6046 17.0513 22.6089 17.0367 22.6102 17.0218C22.6255 16.8612 22.6542 16.7663 22.6964 16.737C22.7467 16.7031 22.7901 16.7441 22.8264 16.8601C22.9717 17.3229 22.7901 17.4547 22.2816 17.2555C22.2207 17.2321 22.2183 17.2051 22.2746 17.1747C22.3495 17.1325 22.4198 17.1155 22.4855 17.1237Z" fill="#F8E065"/>
<path d="M14.3148 17.3768C14.1719 17.2479 14.1637 17.1149 14.2902 16.9779C14.5878 16.6533 14.6622 16.767 14.5134 17.3188C14.508 17.3389 14.4975 17.3572 14.483 17.372C14.4684 17.3868 14.4503 17.3977 14.4304 17.4035C14.4105 17.4093 14.3894 17.4099 14.3691 17.4052C14.3489 17.4006 14.3302 17.3908 14.3148 17.3768Z" fill="#2F2219"/>
<path d="M26.0162 16.9532C25.8299 16.8419 25.8411 16.8097 26.0496 16.8566C26.0697 16.8606 26.088 16.87 26.1021 16.8835C26.1162 16.897 26.1255 16.9139 26.1287 16.9321C26.1404 16.9977 26.1029 17.0048 26.0162 16.9532Z" fill="#F8DD4A"/>
<path d="M27.1551 17.3715C26.9396 17.2262 26.9683 17.1384 27.2413 17.1079C27.2695 17.1046 27.2978 17.1086 27.3231 17.1194C27.3485 17.1303 27.37 17.1475 27.3854 17.1694C27.4756 17.2971 27.4527 17.3762 27.3168 17.4067C27.2909 17.4128 27.2631 17.4128 27.2353 17.4068C27.2074 17.4007 27.1801 17.3887 27.1551 17.3715Z" fill="#F9E47A"/>
<path d="M12.6994 17.6772C12.8448 17.6833 12.9652 17.6285 12.9683 17.5548C12.9714 17.4811 12.856 17.4164 12.7105 17.4103C12.5651 17.4042 12.4446 17.459 12.4416 17.5327C12.4385 17.6064 12.5539 17.6711 12.6994 17.6772Z" fill="#F8DD4A"/>
<path d="M19.4538 18.4383C20.1275 18.4535 20.7333 18.2549 21.2711 17.8425C21.2722 17.8413 21.3384 17.7699 21.4697 17.6281C21.5599 17.5297 21.6583 17.5273 21.7649 17.6211C21.7835 17.6374 21.7954 17.6603 21.7986 17.6857C21.8019 17.7111 21.7961 17.7373 21.7825 17.7599C21.663 17.9556 21.5083 18.119 21.3185 18.2503C20.2476 18.9837 19.1076 18.9972 17.8984 18.2907C17.8415 18.2575 17.7951 18.2087 17.7647 18.1499C17.7342 18.0911 17.7209 18.0248 17.7262 17.9585C17.7379 17.798 17.8498 17.7904 18.0619 17.9357C18.2716 18.0786 18.4924 18.1964 18.7244 18.2889C18.9599 18.3827 19.2031 18.4325 19.4538 18.4383Z" fill="#2F2219"/>
<path d="M13.5785 17.8548C13.4918 18.0739 13.3629 18.112 13.1918 17.9691C13.0419 17.8425 13.0969 17.7435 13.357 17.6721C13.5761 17.6123 13.65 17.6732 13.5785 17.8548Z" fill="#F9E47A"/>
<path d="M28.8578 18.3309C28.968 18.3484 29.0686 18.2918 29.0824 18.2046C29.0962 18.1173 29.0181 18.0324 28.9078 18.015C28.7976 17.9975 28.697 18.0541 28.6832 18.1413C28.6694 18.2286 28.7475 18.3135 28.8578 18.3309Z" fill="#FAE789"/>
<path d="M10.0293 18.3071C9.95477 18.3848 9.94656 18.498 10.011 18.5598C10.0755 18.6216 10.1882 18.6086 10.2627 18.5309C10.3373 18.4531 10.3455 18.34 10.2811 18.2782C10.2166 18.2164 10.1039 18.2293 10.0293 18.3071Z" fill="#F8DD4A"/>
<path d="M11.1267 18.9779C10.9873 18.5045 10.9855 18.3042 11.1214 18.3768C11.1417 18.3879 11.1589 18.4067 11.1713 18.4311C11.1836 18.4555 11.1907 18.4847 11.1917 18.5156C11.1964 18.6891 11.2538 18.8408 11.364 18.9708C11.3831 18.9933 11.3973 19.0184 11.4055 19.0442C11.4138 19.0701 11.4158 19.0961 11.4114 19.1202C11.3763 19.33 11.3031 19.3346 11.1917 19.1343C11.1636 19.0839 11.142 19.0318 11.1267 18.9779Z" fill="#F8DD4A"/>
<path d="M25.6475 18.3774L25.189 18.6305C25.144 18.6554 25.1276 18.712 25.1525 18.7571L25.1899 18.8248C25.2147 18.8698 25.2714 18.8861 25.3164 18.8613L25.7749 18.6082C25.82 18.5833 25.8363 18.5266 25.8115 18.4816L25.7741 18.4139C25.7492 18.3689 25.6926 18.3525 25.6475 18.3774Z" fill="#2F2219"/>
<path d="M8.44308 18.7686C8.48248 18.8792 8.59151 18.9414 8.68661 18.9076C8.78171 18.8737 8.82686 18.7566 8.78746 18.6459C8.74806 18.5353 8.63903 18.473 8.54394 18.5069C8.44884 18.5408 8.40369 18.6579 8.44308 18.7686Z" fill="#FBEC9F"/>
<path d="M24.5564 18.7592C24.5301 18.8617 24.5651 18.9593 24.6347 18.9771C24.7043 18.995 24.782 18.9264 24.8083 18.8239C24.8346 18.7214 24.7996 18.6239 24.73 18.606C24.6604 18.5882 24.5827 18.6568 24.5564 18.7592Z" fill="#2F2219"/>
<path d="M13.2744 19.18C13.3107 19.0324 13.3623 18.9591 13.429 18.9603C13.4923 18.9603 13.5339 19.0066 13.5538 19.0992C13.5831 19.2374 13.5064 19.2895 13.3236 19.2556C13.3152 19.2539 13.3073 19.2505 13.3002 19.2458C13.2931 19.241 13.2871 19.2349 13.2825 19.2278C13.2779 19.2208 13.2748 19.2129 13.2734 19.2047C13.272 19.1965 13.2724 19.1881 13.2744 19.18Z" fill="#2F2219"/>
<path d="M16.2534 19.0868C16.2593 19.0691 16.2692 19.0529 16.2822 19.0395C16.2953 19.0261 16.3112 19.0157 16.3288 19.0092C16.3465 19.0026 16.3654 19 16.3843 19.0016C16.4031 19.0032 16.4214 19.0089 16.4379 19.0183C16.5539 19.0862 16.6412 19.1917 16.6998 19.3346C16.7087 19.3573 16.7086 19.3825 16.6994 19.4051C16.6902 19.4277 16.6728 19.4458 16.6506 19.4559C16.2405 19.6422 16.1081 19.5192 16.2534 19.0868Z" fill="#FAE789"/>
<path d="M13.763 19.3821C13.654 19.2719 13.6658 19.1928 13.7981 19.1448C13.8236 19.1358 13.8513 19.1341 13.8783 19.14C13.9052 19.1459 13.9304 19.1591 13.9511 19.1782C14.0776 19.2954 14.0653 19.3762 13.9141 19.4207C13.8881 19.4287 13.8603 19.4293 13.8337 19.4225C13.8071 19.4157 13.7826 19.4017 13.763 19.3821Z" fill="#2F2219"/>
<path d="M29.4423 19.4931C29.4551 19.6372 29.5377 19.7475 29.6266 19.7396C29.7155 19.7316 29.7772 19.6084 29.7644 19.4644C29.7515 19.3203 29.669 19.21 29.58 19.2179C29.4911 19.2259 29.4294 19.3491 29.4423 19.4931Z" fill="#F8DD4A"/>
<ellipse cx="19.684" cy="20.8356" rx="9.139" ry="8.0845" fill="#F9D915"/>
</g>
<path d="M37 18.5449H0V20.0551H37V18.5449Z" fill="#434343" mask="url(#path-1-inside-1_0_325)"/>
<defs>
<clipPath id="clip0_0_325">
<path d="M0 0.800018H37V19.3H0V0.800018Z" fill="white"/>
</clipPath>
</defs>
</svg>
